<?xml version="1.0" encoding="UTF-8" standalone="no"?>
<svg width="32px" height="46px" viewBox="0 0 32 46" version="1.1" xmlns="http://www.w3.org/2000/svg" xmlns:xlink="http://www.w3.org/1999/xlink">
    <!-- Generator: Sketch 39.1 (31720) - http://www.bohemiancoding.com/sketch -->
    <title>certificate</title>
    <desc>Created with Sketch.</desc>
    <defs></defs>
    <g id="Landing" stroke="none" stroke-width="1" fill="none" fill-rule="evenodd">
        <g id="Главная_Ленд_BIOTEK" transform="translate(-322.000000, -1288.000000)" fill="#FFFFFF">
            <g id="VIDEO" transform="translate(268.000000, 786.000000)">
                <g id="benefits" transform="translate(0.000000, 485.000000)">
                    <g id="certificate" transform="translate(54.000000, 17.000000)">
                        <g id="Layer_1">
                            <g id="Certificate-file">
                                <path d="M31.3792353,10.9543592 C31.3755467,10.8877985 31.3626789,10.8236076 31.340348,10.7606708 C31.333252,10.7408074 31.3284514,10.721083 31.3196173,10.7020558 C31.2861567,10.6291527 31.2437903,10.5599441 31.1851489,10.5009802 C31.1851489,10.5009802 28.8026787,8.10375295 26.4174964,5.70861659 C25.2252171,4.510665 24.0316162,3.3141075 23.1348532,2.41703773 C22.4718257,1.75414978 22.0350262,1.31714978 21.7272684,1.04561039 C21.7224705,1.03878008 21.7177389,1.03264675 21.7130074,1.02581645 C21.7123121,1.02449221 21.7116168,1.02379524 21.7109215,1.02247099 L21.7054947,1.02651342 C21.2732172,0.649104327 21.1023638,0.608052812 20.9069558,0.726398267 L2.7680345,0.727025539 C1.57986115,0.727025539 0.613112696,1.69630137 0.613112696,2.88735288 L0.613112696,38.1299756 C0.613112696,38.7336904 0.8474784,39.3013023 1.27551332,39.7307747 C1.69666052,40.1507687 2.27822609,40.3917107 2.87057357,40.3917107 L12.0193733,40.3917107 C12.4038602,40.3917107 12.7150255,40.0799561 12.7150255,39.694741 C12.7150255,39.3094567 12.4038602,38.9977713 12.0193733,38.9977713 L2.87057363,38.9977713 C2.64302595,38.9977713 2.41951318,38.9045164 2.25846929,38.744562 C2.09679979,38.5825869 2.00441711,38.3586502 2.00441711,38.1299756 L2.00441711,2.88735295 C2.00441711,2.46471053 2.34681774,2.120965 2.76803457,2.120965 L20.4811481,2.12033773 C20.5073747,3.71103181 20.4777381,8.11971314 20.44734,10.9848859 C20.4453205,11.171395 20.5180186,11.3503773 20.6484534,11.482453 C20.7788882,11.6151561 20.9575302,11.6893133 21.1429921,11.6893133 L29.9955816,11.6893133 L29.9955816,38.2436503 C29.9955816,38.4423584 29.9154425,38.6363233 29.774783,38.7772518 C29.6327992,38.9195017 29.4439299,38.997772 29.2428881,38.997772 L28.9262961,38.997772 C28.5418092,38.997772 28.230644,39.3094574 28.230644,39.6947417 C28.230644,40.0799569 28.5418092,40.3917114 28.9262961,40.3917114 L29.2428881,40.3917114 C29.8162445,40.3917114 30.3549567,40.1677747 30.7592004,39.7621379 C31.1579484,39.3625656 31.386886,38.8092417 31.386886,38.2436503 L31.386886,10.9923437 C31.3868859,10.9788926 31.3799996,10.9676714 31.3792353,10.9543592 L31.3792353,10.9543592 Z M21.8461569,10.295374 C21.883513,6.62680475 21.895062,4.44668339 21.8842083,3.13582258 C23.5118966,4.76254992 26.4962424,7.76000729 29.0173552,10.295374 L21.8461569,10.295374 L21.8461569,10.295374 Z" id="Shape"></path>
                                <path d="M26.0383646,35.1474323 C26.0125574,35.0587078 25.9692861,34.9800892 25.9155831,34.9115765 C26.9212859,33.7029611 27.5275481,32.1489982 27.5275481,30.4523652 C27.5275481,26.6031407 24.4129745,23.4826682 20.5710264,23.4826682 C16.7290093,23.4826682 13.6145046,26.6031407 13.6145046,30.4523652 C13.6145046,32.2441355 14.2951302,33.8727448 15.40407,35.1074264 L13.0560342,43.1720622 C12.9793037,43.4355156 13.0641745,43.7200208 13.2728006,43.8983045 C13.4813564,44.0759634 13.7741566,44.1133903 14.0220867,43.9969965 L16.388279,42.8705518 L17.8753741,45.0308802 C18.0064351,45.2215004 18.2218096,45.3324571 18.4480351,45.3324571 C18.4874081,45.3324571 18.5268527,45.3290433 18.5662257,45.3222157 C18.8339126,45.2759353 19.0499134,45.0785539 19.1198968,44.8157944 L20.7161386,38.8487597 L22.3121735,44.8157944 C22.3821569,45.0778573 22.5975314,45.2752386 22.8644514,45.3222157 C22.9045913,45.3290433 22.9446595,45.3324571 22.9840352,45.3324571 C23.2095654,45.3324571 23.4236184,45.2228245 23.5553747,45.03297 L25.046575,42.8835158 L27.4113742,43.9983897 C27.658609,44.1140869 27.9507817,44.0752642 28.1599651,43.8969804 C28.3678959,43.7193215 28.4521377,43.4355156 28.3753395,43.1720622 L26.0383646,35.1474323 L26.0383646,35.1474323 Z M20.5710264,24.8102564 C23.6762085,24.8102564 26.2024696,27.341302 26.2024696,30.4523652 C26.2024696,33.5634975 23.6762086,36.0945432 20.5710264,36.0945432 C17.4657752,36.0945432 14.9395128,33.5634976 14.9395128,30.4523652 C14.9395128,27.341302 17.4657752,24.8102564 20.5710264,24.8102564 L20.5710264,24.8102564 Z M18.1660873,42.9978198 L17.1973904,41.5909855 C17.0030969,41.3092002 16.6341925,41.2091177 16.3264346,41.3568047 L14.8257738,42.0708488 L16.5539126,36.1360831 C17.4584696,36.7791072 18.5216356,37.2088587 19.6747489,37.3578007 L18.1660873,42.9978198 L18.1660873,42.9978198 Z M25.1070265,41.3711618 C24.7992687,41.2261229 24.433079,41.3255114 24.2394781,41.6045769 L23.2680001,43.00465 L21.746192,37.3151467 C22.8933213,37.1191585 23.9428526,36.6438257 24.8252166,35.9584959 L26.6076873,42.0790057 L25.1070265,41.3711618 L25.1070265,41.3711618 Z" id="Shape"></path>
                                <path d="M20.5710264,33.9372137 C22.4919991,33.9372137 24.0492872,32.3770479 24.0492872,30.4523652 C24.0492872,28.5277543 22.4919991,26.9675167 20.5710264,26.9675167 C18.650051,26.9675167 17.0927655,28.5277543 17.0927655,30.4523652 C17.0927655,32.3770479 18.6500509,33.9372137 20.5710264,33.9372137 L20.5710264,33.9372137 Z M20.5710264,28.3614561 C21.7217752,28.3614561 22.6579829,29.2994369 22.6579829,30.4523652 C22.6579829,31.6053627 21.7217752,32.5432743 20.5710264,32.5432743 C19.4202085,32.5432743 18.4840698,31.6053627 18.4840698,30.4523652 C18.4840698,29.2994368 19.4202085,28.3614561 20.5710264,28.3614561 L20.5710264,28.3614561 Z" id="Shape"></path>
                            </g>
                        </g>
                    </g>
                </g>
            </g>
        </g>
    </g>
</svg>