<?xml version="1.0" encoding="UTF-8" standalone="no"?>
<svg width="47px" height="46px" viewBox="0 0 47 46" version="1.1" xmlns="http://www.w3.org/2000/svg" xmlns:xlink="http://www.w3.org/1999/xlink">
    <!-- Generator: Sketch 39.1 (31720) - http://www.bohemiancoding.com/sketch -->
    <title>education</title>
    <desc>Created with Sketch.</desc>
    <defs></defs>
    <g id="Landing" stroke="none" stroke-width="1" fill="none" fill-rule="evenodd">
        <g id="Главная_Ленд_BIOTEK" transform="translate(-315.000000, -1288.000000)" fill="#FFFFFF">
            <g id="VIDEO" transform="translate(268.000000, 786.000000)">
                <g id="benefits" transform="translate(0.000000, 485.000000)">
                    <g id="education" transform="translate(47.000000, 17.000000)">
                        <g id="Layer_1">
                            <g id="Group">
                                <path d="M18.4440729,38.2311552 C18.0625896,37.8431293 17.4424833,37.8418405 17.0593354,38.2283793 C16.6761875,38.6147198 16.6749146,39.2424612 17.0565938,39.6303879 L18.3043458,40.8988578 C18.4955771,41.0933664 18.7468313,41.1906207 18.9980854,41.1906207 C19.2480667,41.1906207 19.49795,41.0942586 19.6890833,40.9016336 C20.0722313,40.5153922 20.0735042,39.8875517 19.691825,39.499625 L18.4440729,38.2311552 L18.4440729,38.2311552 Z" id="Shape"></path>
                                <path d="M23.6459937,39.2864784 L21.8213167,39.2864784 C21.2805229,39.2864784 20.84215,39.7304181 20.84215,40.2778578 C20.84215,40.8253966 21.2805229,41.2692371 21.8213167,41.2692371 L23.6459937,41.2692371 C24.1867875,41.2692371 24.6251604,40.8253966 24.6251604,40.2778578 C24.6251604,39.7304181 24.1866896,39.2864784 23.6459937,39.2864784 L23.6459937,39.2864784 Z" id="Shape"></path>
                                <path d="M34.1610688,25.4211466 C33.9017854,24.9405259 33.3070396,24.7637629 32.8324375,25.0260819 C32.3577375,25.2885 32.1830542,25.8908621 32.4422396,26.3712845 L33.4949417,28.3233103 C33.6727583,28.6530431 34.0086125,28.839819 34.3552375,28.839819 C34.5137646,28.839819 34.6746417,28.8006595 34.8235729,28.718375 C35.2982729,28.4559569 35.4729563,27.8535948 35.2137708,27.3731724 L34.1610688,25.4211466 L34.1610688,25.4211466 Z" id="Shape"></path>
                                <path d="M47,21.0113922 C47,19.707431 46.2182333,18.5849914 45.1042354,18.098125 L45.1042354,10.3288836 L46.4652771,9.62401293 C46.8152312,9.44288793 47.0241854,9.06735345 46.9960833,8.67040517 C46.9678833,8.2734569 46.7081104,7.932125 46.336125,7.80344397 L24.0425562,0.087737069 C23.8394771,0.0176465517 23.6188708,0.0168534483 23.4148125,0.0857543103 L0.668183333,7.80136207 C0.292477083,7.92885345 0.02966875,8.27306034 0.00235,8.67328017 C-0.0248708333,9.0735 0.188783333,9.45101724 0.54373125,9.62946552 L11.6833187,15.229569 L10.6834917,20.7469914 C10.6789875,20.7532371 10.6738958,20.7585905 10.6695875,20.7649353 C8.7919375,23.4688233 7.79945417,26.6485733 7.79945417,29.9599784 C7.79945417,38.7853362 14.8903833,45.9654009 23.6063375,45.9654009 C32.3229771,45.9654009 39.4145917,38.7853362 39.4145917,29.9599784 C39.4145917,26.8421897 38.5296208,23.8322629 36.8571062,21.2349483 C36.8521125,21.1956897 36.8450625,21.1569267 36.8356625,21.1192543 L35.7576,15.1696897 L43.1458042,11.3431638 L43.1458042,17.9247328 C41.7642,18.2549612 40.7324521,19.5130216 40.7324521,21.0113922 C40.7324521,22.4183578 41.6397479,23.6140603 42.8920042,24.0301422 C42.8891646,24.0609741 42.8874021,24.0920043 42.8874021,24.1231336 C42.8874021,24.3848578 42.9911937,24.6396422 43.1733187,24.8239397 C43.3564229,25.0093276 43.6080687,25.1145129 43.8665687,25.1145129 C44.1240896,25.1145129 44.3757354,25.0093276 44.5587417,24.8239397 C44.7408667,24.6396422 44.8457354,24.3838664 44.8457354,24.1231336 C44.8457354,24.091806 44.8439729,24.0606767 44.8410354,24.0296466 C46.0931937,23.6129698 47,22.4178621 47,21.0113922 L47,21.0113922 Z M37.4560625,29.9598793 C37.4563562,37.6921422 31.2433479,43.9826422 23.6063375,43.9826422 C15.9703062,43.9826422 9.7577875,37.6921422 9.7577875,29.9599784 C9.7577875,27.2400302 10.5218312,24.6220948 11.9724667,22.3539181 L23.3713375,22.3539181 C24.1836542,22.8358276 24.2427958,23.1276897 24.2428937,23.1303664 C24.2426,23.2260345 23.9102708,23.7575129 22.3795396,24.428875 C21.2927625,24.9055302 20.1787646,25.2012586 20.05255,25.2341724 C19.4588812,25.3665216 15.0071979,26.4539655 14.2042812,29.4311767 C13.7585646,31.0836078 14.5292667,32.8553017 16.4950417,34.6971853 C16.5039521,34.7055129 16.5129604,34.7136422 16.5220667,34.7215733 C16.6589542,34.8406379 19.5190021,37.2813147 23.5899854,37.2811164 C24.1956979,37.2810172 24.8288271,37.2269871 25.4831062,37.1031638 C26.4140979,36.9270948 27.0608375,37.0254397 27.4053083,37.3957198 C28.0404937,38.0784828 27.8231187,39.6949267 27.6974917,40.2048922 C27.6178854,40.5204483 27.6965125,40.8552371 27.9076208,41.1009009 C28.0946417,41.3185086 28.3646958,41.4414397 28.6461083,41.4414397 C28.6822396,41.4414397 28.7186646,41.4393578 28.7550896,41.435194 C28.8530062,41.4241897 31.1711833,41.1408534 32.7052437,39.1778233 C33.7837958,37.797625 34.1964167,35.9771552 33.9318458,33.7671724 C33.4584187,29.8045302 31.7128583,27.3806078 30.4058667,26.0829914 C31.63335,25.4874698 33.1613396,24.3728621 33.930475,22.353819 L35.2400125,22.353819 C36.689375,24.6199138 37.4560625,27.242806 37.4560625,29.9598793 L37.4560625,29.9598793 Z M27.9311208,26.5998966 C28.0702604,26.6805948 31.3465521,28.6370819 31.9879062,34.0056983 C32.2366146,36.0826379 31.7491854,37.6217543 30.5395229,38.580319 C30.2936542,38.775125 30.0396583,38.9283922 29.7985875,39.0487457 C29.8106312,38.0840345 29.6273312,36.897056 28.8364583,36.0423879 C28.0054396,35.1442974 26.7566104,34.845694 25.1236542,35.1543103 C21.1285562,35.9107328 18.0051125,33.3893578 17.8079083,33.225681 C16.8591937,32.3333405 15.8000292,31.0473233 16.0930937,29.955319 C16.5154083,28.3825948 19.4811083,27.3911164 20.4855375,27.168056 C20.495525,27.1659741 20.5053167,27.1635948 20.5152062,27.1611164 C20.5662208,27.1482284 21.7803875,26.838819 23.0413583,26.2991121 C25.0104625,25.4563405 26.0384896,24.5055086 26.1842875,23.3924871 C26.2312875,23.0335086 26.1844833,22.6874181 26.0491625,22.3542155 L31.7556479,22.3542155 C30.5923,24.2980129 28.3489312,24.7405647 28.2432792,24.7603922 C27.8349667,24.8329612 27.5135062,25.1565474 27.4445729,25.5704483 C27.3754437,25.9840517 27.5689271,26.3956724 27.9311208,26.5998966 L27.9311208,26.5998966 Z M12.7425812,20.3711595 L13.9015229,13.975375 L33.5502646,13.975375 L34.7091083,20.3711595 L12.7425812,20.3711595 L12.7425812,20.3711595 Z M35.3887479,13.1337931 L35.3292146,12.8051509 C35.2439292,12.3345431 34.83875,11.9927155 34.3661063,11.9927155 L13.0856813,11.9927155 C12.6130375,11.9927155 12.2078583,12.3345431 12.1225729,12.8051509 L12.0509958,13.2005129 L3.53577083,8.91983621 L23.7227604,2.07247845 L43.5179854,8.92350431 L35.3887479,13.1337931 L35.3887479,13.1337931 Z M43.8655896,22.2052112 C43.2179687,22.2052112 42.6909812,21.6696681 42.6909812,21.0113922 C42.6909812,20.355694 43.2179687,19.8221336 43.8655896,19.8221336 C44.5140917,19.8221336 45.0417646,20.355694 45.0417646,21.0113922 C45.0416667,21.6696681 44.5140917,22.2052112 43.8655896,22.2052112 L43.8655896,22.2052112 Z" id="Shape"></path>
                            </g>
                        </g>
                    </g>
                </g>
            </g>
        </g>
    </g>
</svg>