<?xml version="1.0" encoding="UTF-8" standalone="no"?>
<svg width="43px" height="43px" viewBox="0 0 43 43" version="1.1" xmlns="http://www.w3.org/2000/svg" xmlns:xlink="http://www.w3.org/1999/xlink">
    <!-- Generator: Sketch 39.1 (31720) - http://www.bohemiancoding.com/sketch -->
    <title>pen</title>
    <desc>Created with Sketch.</desc>
    <defs></defs>
    <g id="Landing" stroke="none" stroke-width="1" fill="none" fill-rule="evenodd">
        <g id="Главная_Ленд_BIOTEK" transform="translate(-478.000000, -1289.000000)" fill="#FFFFFF">
            <g id="VIDEO" transform="translate(268.000000, 786.000000)">
                <g id="benefits" transform="translate(0.000000, 485.000000)">
                    <g id="pen" transform="translate(210.000000, 18.000000)">
                        <g id="Capa_1">
                            <g id="Group">
                                <path d="M15.05,0 C6.73666667,0 0,6.73666667 0,15.05 C0,21.1416667 3.72666667,26.66 9.31666667,28.9533333 L9.31666667,32.9666667 L9.31666667,37.9833333 C9.31666667,38.4133333 9.60333333,38.7 10.0333333,38.7 L11.4666667,38.7 L11.4666667,41.5666667 L8.6,41.5666667 L8.6,43 L11.4666667,43 L12.9,43 L17.2,43 L18.6333333,43 L22.2166667,43 L22.2166667,41.5666667 L18.6333333,41.5666667 L18.6333333,38.7 L20.0666667,38.7 C20.4966667,38.7 20.7833333,38.4133333 20.7833333,37.9833333 L20.7833333,32.9666667 L20.7833333,28.9533333 C26.3733333,26.66 30.1,21.1416667 30.1,15.05 C30.1,6.73666667 23.3633333,0 15.05,0 L15.05,0 Z M19.35,37.2666667 L17.9166667,37.2666667 C17.4866667,37.2666667 17.2,37.5533333 17.2,37.9833333 L17.2,41.5666667 L12.9,41.5666667 L12.9,38.7 L15.7666667,38.7 L15.7666667,37.2666667 L12.1833333,37.2666667 L10.75,37.2666667 L10.75,33.6833333 L19.35,33.6833333 L19.35,37.2666667 L19.35,37.2666667 Z M19.8516667,27.8066667 C19.565,27.8783333 19.35,28.165 19.35,28.4516667 L19.35,32.25 L15.7666667,32.25 L15.7666667,11.4666667 L17.9166667,11.4666667 L17.9166667,10.0333333 L12.1833333,10.0333333 L12.1833333,11.4666667 L14.3333333,11.4666667 L14.3333333,32.25 L10.75,32.25 L10.75,28.4516667 C10.75,28.165 10.535,27.8783333 10.2483333,27.8066667 C5.01666667,25.8 1.43333333,20.7116667 1.43333333,15.05 C1.43333333,7.525 7.525,1.43333333 15.05,1.43333333 C22.575,1.43333333 28.6666667,7.525 28.6666667,15.05 C28.6666667,20.7116667 25.0833333,25.8 19.8516667,27.8066667 L19.8516667,27.8066667 Z" id="Shape"></path>
                                <path d="M42.2833333,17.2 L40.85,17.2 L40.85,12.1833333 C40.85,11.7533333 40.5633333,11.4666667 40.1333333,11.4666667 L37.9833333,11.4666667 L37.9833333,8.6 L36.55,8.6 L36.55,11.4666667 L34.4,11.4666667 C33.97,11.4666667 33.6833333,11.7533333 33.6833333,12.1833333 L33.6833333,17.2 L32.25,17.2 C31.82,17.2 31.5333333,17.4866667 31.5333333,17.9166667 L31.5333333,22.2166667 L31.5333333,36.6216667 C31.5333333,36.765 31.5333333,36.9083333 31.6766667,37.0516667 L35.1166667,41.1366667 L35.1166667,41.5666667 L32.25,41.5666667 L32.25,43 L35.1166667,43 L36.55,43 L37.9833333,43 L39.4166667,43 L43,43 L43,41.5666667 L39.4166667,41.5666667 L39.4166667,41.1366667 L42.8566667,37.0516667 C42.9283333,36.98 43,36.765 43,36.6216667 L43,22.2166667 L43,17.9166667 C43,17.4866667 42.7133333,17.2 42.2833333,17.2 L42.2833333,17.2 Z M32.9666667,18.6333333 L34.4,18.6333333 L37.2666667,18.6333333 L37.2666667,17.2 L35.1166667,17.2 L35.1166667,12.9 L39.4166667,12.9 L39.4166667,17.9166667 C39.4166667,18.3466667 39.7033333,18.6333333 40.1333333,18.6333333 L41.5666667,18.6333333 L41.5666667,21.5 L38.7,21.5 L35.8333333,21.5 L32.9666667,21.5 L32.9666667,18.6333333 L32.9666667,18.6333333 Z M32.9666667,22.9333333 L35.1166667,22.9333333 L35.1166667,38.8433333 L32.9666667,36.335 L32.9666667,22.9333333 L32.9666667,22.9333333 Z M36.55,41.5666667 L36.55,40.85 L36.55,22.9333333 L37.9833333,22.9333333 L37.9833333,40.85 L37.9833333,41.5666667 L36.55,41.5666667 L36.55,41.5666667 Z M41.5666667,36.4066667 L39.4166667,38.915 L39.4166667,22.9333333 L41.5666667,22.9333333 L41.5666667,36.4066667 L41.5666667,36.4066667 Z" id="Shape"></path>
                                <rect id="Rectangle-path" x="36.55" y="14.3333333" width="1.43333333" height="1.43333333"></rect>
                                <rect id="Rectangle-path" x="23.65" y="41.5666667" width="1.43333333" height="1.43333333"></rect>
                                <rect id="Rectangle-path" x="0" y="41.5666667" width="1.43333333" height="1.43333333"></rect>
                                <rect id="Rectangle-path" x="2.86666667" y="41.5666667" width="1.43333333" height="1.43333333"></rect>
                                <rect id="Rectangle-path" x="5.73333333" y="41.5666667" width="1.43333333" height="1.43333333"></rect>
                                <rect id="Rectangle-path" x="26.5166667" y="41.5666667" width="1.43333333" height="1.43333333"></rect>
                                <rect id="Rectangle-path" x="29.3833333" y="41.5666667" width="1.43333333" height="1.43333333"></rect>
                            </g>
                        </g>
                    </g>
                </g>
            </g>
        </g>
    </g>
</svg>