<?xml version="1.0" encoding="UTF-8" standalone="no"?>
<svg width="34px" height="43px" viewBox="0 0 34 43" version="1.1" xmlns="http://www.w3.org/2000/svg" xmlns:xlink="http://www.w3.org/1999/xlink">
    <!-- Generator: Sketch 39.1 (31720) - http://www.bohemiancoding.com/sketch -->
    <title>people</title>
    <desc>Created with Sketch.</desc>
    <defs></defs>
    <g id="Landing" stroke="none" stroke-width="1" fill="none" fill-rule="evenodd">
        <g id="Главная_Ленд_BIOTEK" transform="translate(-636.000000, -1289.000000)" fill="#FFFFFF">
            <g id="VIDEO" transform="translate(268.000000, 786.000000)">
                <g id="benefits" transform="translate(0.000000, 485.000000)">
                    <g id="people" transform="translate(368.000000, 18.000000)">
                        <g id="Group">
                            <path d="M30.1052861,32.6107171 L28.8584033,32.2982009 L31.0304196,14.1532225 C31.0337548,14.1256393 31.0353297,14.0979633 31.0353297,14.0701944 C31.0354223,6.31189849 24.7392153,0 17,0 C9.26078474,0 2.96457766,6.31189849 2.96457766,14.0701944 C2.96457766,14.0979633 2.96624523,14.1256393 2.96948774,14.1532225 L5.14150409,32.2982009 L3.89462125,32.6107171 C1.60152044,33.1854125 0,35.2417041 0,37.6113477 L0,40.8174946 C0,42.0209374 0.976643052,43 2.17711172,43 L31.8228883,43 C33.0233569,43 34,42.0209374 34,40.8174946 L34,37.6113477 C34,35.2417041 32.3984796,33.1854125 30.1052861,32.6107171 L30.1052861,32.6107171 Z M4.35422343,14.0291447 C4.37636512,7.05766523 10.0407466,1.39308855 17,1.39308855 C23.9592534,1.39308855 29.6236349,7.05766523 29.6457766,14.0291447 L27.4996076,31.9576371 L23.8609591,31.0457214 C22.8486485,30.7920864 22.1416894,29.8843499 22.1416894,28.838419 L22.1416894,28.6967883 C25.239673,26.5218056 27.3297003,22.445257 27.3297003,17.7851901 C27.3297003,17.5886717 27.317564,15.0662527 27.3011662,14.7741685 C27.2805068,14.4052786 26.9760817,14.1167235 26.607455,14.1167235 C19.5008065,14.1167235 13.717842,11.8413456 11.4212207,10.4968294 C11.0897439,10.3029114 10.6644196,10.4148229 10.4707956,10.7470281 C10.2772643,11.0792333 10.3890845,11.505797 10.720376,11.6998078 C13.6235313,13.3993758 19.2941199,15.3744968 25.9246757,15.5031253 C25.9296785,15.9732462 25.9341253,16.6029222 25.9369046,17.0885529 L23.8225123,17.0885529 C23.233673,16.1941901 22.2228447,15.6025918 21.0762016,15.6025918 C19.905564,15.6025918 18.876485,16.2194514 18.2935749,17.1453909 C17.9316185,16.876432 17.4840599,16.7170626 16.9999074,16.7170626 C16.5157548,16.7170626 16.0681962,16.876432 15.7062398,17.1453909 C15.1233297,16.2194514 14.0942507,15.6025918 12.9236131,15.6025918 C11.7770627,15.6025918 10.7661417,16.1941901 10.1773025,17.0885529 L8.161297,17.0885529 C8.37428338,16.3408359 8.90716621,15.6085356 9.58522071,14.6786026 C9.76856131,14.4271037 9.95820163,14.1670605 10.1555313,13.8876998 C10.3773188,13.5736976 10.3031117,13.1389611 9.98988556,12.9167171 C9.6766594,12.694473 9.24299728,12.7686782 9.02130245,13.0826803 C8.83008719,13.3534039 8.64359673,13.6091749 8.46331335,13.8564017 C7.46165668,15.2302657 6.67029973,16.3155745 6.67029973,17.7850972 C6.67029973,22.4451641 8.76032698,26.5217127 11.8583106,28.6966955 L11.8583106,28.8383261 C11.8583106,29.8843499 11.1513515,30.7919935 10.1390409,31.0457214 L6.50039237,31.9576371 L4.35422343,14.0291447 L4.35422343,14.0291447 Z M18.9046485,34.5609482 C18.5328719,33.8896652 17.8186866,33.4341253 17,33.4341253 C16.1816839,33.4341253 15.4676839,33.8892937 15.0958147,34.5601123 C13.7079292,34.0191296 12.6194659,32.9173823 12.0964959,31.5109201 C12.6621744,30.9775529 13.052109,30.2695853 13.1911662,29.482676 C14.370327,30.0544924 15.6554714,30.3693305 16.9999074,30.3693305 C18.3443433,30.3693305 19.6295804,30.0544924 20.8086485,29.482676 C20.9477057,30.2696782 21.3376403,30.9777387 21.9035041,31.5111058 C21.3826649,32.9039158 20.2784523,34.0203369 18.9046485,34.5609482 L18.9046485,34.5609482 Z M17.7874659,35.6166307 C17.7874659,36.0519244 17.434218,36.4060475 17,36.4060475 C16.565782,36.4060475 16.2125341,36.0519244 16.2125341,35.6166307 C16.2125341,35.1813369 16.565782,34.8272138 17,34.8272138 C17.434218,34.8272138 17.7874659,35.1813369 17.7874659,35.6166307 L17.7874659,35.6166307 Z M12.9237057,16.9956803 C13.9709428,16.9956803 14.8228883,17.8497365 14.8228883,18.899568 C14.8228883,19.9493996 13.9709428,20.8034557 12.9237057,20.8034557 C11.8764687,20.8034557 11.0245232,19.9493996 11.0245232,18.899568 C11.0245232,17.8497365 11.8764687,16.9956803 12.9237057,16.9956803 L12.9237057,16.9956803 Z M12.9237057,22.1965443 C14.7371935,22.1965443 16.2125341,20.7175486 16.2125341,18.899568 C16.2125341,18.4642743 16.565782,18.1101512 17,18.1101512 C17.434218,18.1101512 17.7874659,18.4642743 17.7874659,18.899568 C17.7874659,20.7175486 19.2628065,22.1965443 21.0762943,22.1965443 C22.889782,22.1965443 24.3651226,20.7175486 24.3651226,18.899568 C24.3651226,18.7579374 24.3551172,18.6186285 24.3377929,18.4816415 L25.922267,18.4816415 C25.6339619,24.3291771 21.7426757,28.9762419 17,28.9762419 C12.2573243,28.9762419 8.36613079,24.3291771 8.07773297,18.4816415 L9.66220708,18.4816415 C9.64479019,18.6186285 9.63487738,18.7579374 9.63487738,18.899568 C9.63487738,20.7175486 11.110218,22.1965443 12.9237057,22.1965443 L12.9237057,22.1965443 Z M19.1771117,18.899568 C19.1771117,17.8497365 20.0290572,16.9956803 21.0762943,16.9956803 C22.1235313,16.9956803 22.9754768,17.8497365 22.9754768,18.899568 C22.9754768,19.9493996 22.1235313,20.8034557 21.0762943,20.8034557 C20.0290572,20.8034557 19.1771117,19.9493996 19.1771117,18.899568 L19.1771117,18.899568 Z M1.38964578,40.8174946 L1.38964578,37.6113477 C1.38964578,36.5277106 1.8486921,35.5339741 2.60317711,34.8397516 L5.40303542,38.2079611 C5.74229428,38.6160432 5.92915531,39.1333434 5.92915531,39.6646674 L5.92915531,41.6069114 L2.17711172,41.6069114 C1.74289373,41.6069114 1.38964578,41.2527883 1.38964578,40.8174946 L1.38964578,40.8174946 Z M7.31880109,41.6069114 L7.31880109,39.6645745 C7.31880109,38.8080108 7.01761853,37.9740151 6.47065395,37.316013 L3.79716076,34.0998359 C3.93779292,34.0458769 4.08259401,33.9996263 4.23174932,33.9622916 L7.03540599,33.2597106 C8.2846049,34.5081965 9.03621798,36.017933 9.76235422,37.4800259 C10.5148011,38.995149 11.2821635,40.5386911 12.5952861,41.6070043 L7.31880109,41.6070043 L7.31880109,41.6069114 Z M24.3356621,35.7378294 C23.9943651,35.564622 23.5776567,35.7010518 23.4033025,36.0421728 C23.2633188,36.316054 23.127782,36.5890994 22.9937275,36.858987 C21.676436,39.5116134 20.6359619,41.6068186 17,41.6068186 C13.3640381,41.6068186 12.323564,39.5116134 11.0062725,36.858987 C10.3683324,35.5744665 9.6579455,34.1474795 8.57179837,32.8744752 L10.4761689,32.397203 C10.621248,32.3608898 10.762158,32.3158467 10.8989918,32.2633737 C11.630594,34.0018553 13.0589646,35.340892 14.8491989,35.954594 C15.0116948,36.9980173 15.9142234,37.7990432 17,37.7990432 C18.0861471,37.7990432 18.9889537,36.9975529 19.151079,35.9536652 C20.9199128,35.3426566 22.3682943,33.9869028 23.1000817,32.2630022 C23.2371935,32.315568 23.3784741,32.360797 23.5239237,32.397203 L25.4260708,32.8739179 C25.1981689,33.1407408 24.9784196,33.4240022 24.763673,33.7281598 C24.5420708,34.042162 24.6162779,34.4768985 24.9295967,34.6990497 C25.0514223,34.7856069 25.1915913,34.827121 25.3303706,34.827121 C25.548267,34.827121 25.7627357,34.7245896 25.8981798,34.5328078 C26.2356785,34.0546069 26.5854986,33.6368661 26.9634823,33.2591533 L29.7683433,33.9621058 C29.917406,33.9994406 30.0622997,34.045784 30.2029319,34.0996501 L27.5294387,37.3158272 C26.9824741,37.9738294 26.6812916,38.8078251 26.6812916,39.6643888 L26.6812916,41.6068186 L21.4049918,41.6068186 C22.7181144,40.5385054 23.4853842,38.9950562 24.2378311,37.4798402 C24.3695695,37.2145961 24.5027902,36.9463801 24.6437003,36.6703629 C24.8146267,36.3274773 24.6768665,35.9109438 24.3356621,35.7378294 L24.3356621,35.7378294 Z M32.6103542,40.8174017 C32.6103542,41.2526955 32.2571063,41.6068186 31.8228883,41.6068186 L28.0708447,41.6068186 L28.0708447,39.6644816 C28.0708447,39.1331577 28.2577057,38.6158575 28.5969646,38.2077754 L31.3968229,34.8395659 C32.1513079,35.5338812 32.6103542,36.5276177 32.6103542,37.6112549 L32.6103542,40.8174017 L32.6103542,40.8174017 Z" id="Shape"></path>
                            <path d="M14.5839619,25.061013 C15.3586431,25.6174125 16.2673787,25.9114471 17.2120599,25.9114471 C18.1567411,25.9114471 19.0654768,25.6174125 19.840158,25.061013 C20.1520872,24.8370043 20.2238856,24.4018035 20.0003379,24.0891015 C19.7767902,23.7763996 19.3427575,23.7043305 19.030921,23.9285248 C18.4936839,24.3143175 17.8647302,24.5183585 17.2121526,24.5183585 C16.5595749,24.5183585 15.9306213,24.3144104 15.3933842,23.9285248 C15.0815477,23.7044233 14.6474223,23.7763996 14.4239673,24.0891015 C14.2002343,24.4018035 14.2720327,24.8370043 14.5839619,25.061013 L14.5839619,25.061013 Z" id="Shape"></path>
                            <path d="M22.5324578,6.11008639 C23.9118202,7.07661123 25.0225177,8.38955076 25.744485,9.90690281 C25.8637166,10.1573801 26.1126485,10.3037473 26.3721417,10.3037473 C26.4723815,10.3037473 26.5742888,10.2819222 26.6708229,10.2357646 C27.0171226,10.0701728 27.1640545,9.65438229 26.9988719,9.30722462 C26.1737003,7.57282937 24.9045831,6.072473 23.3287248,4.96821814 C23.014109,4.74783153 22.5809101,4.82473002 22.3611608,5.14012527 C22.1412262,5.45542765 22.2179346,5.88969978 22.5324578,6.11008639 L22.5324578,6.11008639 Z" id="Shape"></path>
                            <path d="M18.3835313,4.46373434 C18.8500817,4.53097408 19.3154278,4.63341253 19.7665995,4.76854212 C19.8329319,4.78841685 19.8998202,4.79779698 19.9656894,4.79779698 C20.2648338,4.79779698 20.541188,4.60248596 20.6312371,4.30046436 C20.7410191,3.93185313 20.5320163,3.54383153 20.1642234,3.43368467 C19.6477384,3.27905184 19.1150409,3.16166091 18.581139,3.08476242 C18.2010245,3.02978186 17.8491662,3.29437581 17.7945995,3.67515335 C17.7399401,4.05611663 18.0036022,4.40912527 18.3835313,4.46373434 L18.3835313,4.46373434 Z" id="Shape"></path>
                        </g>
                    </g>
                </g>
            </g>
        </g>
    </g>
</svg>