<?xml version="1.0" encoding="UTF-8" standalone="no"?>
<svg width="35px" height="36px" viewBox="0 0 35 36" version="1.1" xmlns="http://www.w3.org/2000/svg" xmlns:xlink="http://www.w3.org/1999/xlink">
    <!-- Generator: Sketch 39.1 (31720) - http://www.bohemiancoding.com/sketch -->
    <title>multimedia</title>
    <desc>Created with Sketch.</desc>
    <defs></defs>
    <g id="Landing" stroke="none" stroke-width="1" fill="none" fill-rule="evenodd">
        <g id="Главная_Ленд_BIOTEK" transform="translate(-372.000000, -1466.000000)" fill="#FFFFFF">
            <g id="multimedia" transform="translate(372.000000, 1466.000000)">
                <g id="Capa_1">
                    <g id="Group">
                        <path d="M19.5077885,13.5849057 L15.4693269,13.5849057 L15.4693269,9.50943396 C15.4693269,9.13449057 15.1677885,8.83018868 14.79625,8.83018868 C14.4247115,8.83018868 14.1231731,9.13449057 14.1231731,9.50943396 L14.1231731,13.5849057 L10.0847115,13.5849057 C9.71317308,13.5849057 9.41163462,13.8892075 9.41163462,14.2641509 C9.41163462,14.6390943 9.71317308,14.9433962 10.0847115,14.9433962 L14.1231731,14.9433962 L14.1231731,19.0188679 C14.1231731,19.3938113 14.4247115,19.6981132 14.79625,19.6981132 C15.1677885,19.6981132 15.4693269,19.3938113 15.4693269,19.0188679 L15.4693269,14.9433962 L19.5077885,14.9433962 C19.8793269,14.9433962 20.1808654,14.6390943 20.1808654,14.2641509 C20.1808654,13.8892075 19.8793269,13.5849057 19.5077885,13.5849057 L19.5077885,13.5849057 Z" id="Shape"></path>
                        <path d="M34.8007692,34.8269434 L24.7995192,24.330566 C27.3504808,21.7487547 28.9308654,18.1895094 28.9308654,14.2641509 C28.9308654,6.39849057 22.5904808,0 14.79625,0 C7.00201923,0 0.661634615,6.39849057 0.661634615,14.2641509 C0.661634615,22.1298113 7.00201923,28.5283019 14.79625,28.5283019 C18.2175,28.5283019 21.3574038,27.2941132 23.8047115,25.2461887 L33.8301923,35.7683774 C33.9621154,35.9076226 34.1384615,35.9769057 34.3154808,35.9769057 C34.48375,35.9769057 34.6513462,35.9137358 34.7819231,35.7873962 C35.0498077,35.5272453 35.0578846,35.097283 34.8007692,34.8269434 L34.8007692,34.8269434 Z M2.00778846,14.2641509 C2.00778846,7.14769811 7.74442308,1.35849057 14.79625,1.35849057 C21.8480769,1.35849057 27.5847115,7.14769811 27.5847115,14.2641509 C27.5847115,21.3806038 21.8480769,27.1698113 14.79625,27.1698113 C7.74442308,27.1698113 2.00778846,21.3806038 2.00778846,14.2641509 L2.00778846,14.2641509 Z" id="Shape"></path>
                    </g>
                </g>
            </g>
        </g>
    </g>
</svg>