<?xml version="1.0" encoding="UTF-8" standalone="no"?>
<svg width="107px" height="107px" viewBox="0 0 107 107" version="1.1" xmlns="http://www.w3.org/2000/svg" xmlns:xlink="http://www.w3.org/1999/xlink">
    <!-- Generator: Sketch 39.1 (31720) - http://www.bohemiancoding.com/sketch -->
    <title>Group 4</title>
    <desc>Created with Sketch.</desc>
    <defs>
        <circle id="path-1" cx="52.5" cy="52.5" r="52.5"></circle>
    </defs>
    <g id="Page-1" stroke="none" stroke-width="1" fill="none" fill-rule="evenodd">
        <g id="polis812_vzr_step1" transform="translate(-1066.000000, -769.000000)">
            <g id="benefits" transform="translate(136.000000, 770.000000)">
                <g id="benefit1-copy-2" transform="translate(798.000000, 0.000000)">
                    <g id="Group-4" transform="translate(133.000000, 0.000000)">
                        <mask id="mask-2" fill="white">
                            <use xlink:href="#path-1"></use>
                        </mask>
                        <use id="Oval-3" stroke="#E3E6E7" fill="#FFFFFF" xlink:href="#path-1"></use>
                        <g id="badge" mask="url(#mask-2)">
                            <g id="Layer_1">
                                <path d="M52.5002051,0 C81.4949707,0 105,23.5050293 105,52.5002051 C105,81.4949707 81.4949707,105 52.5002051,105 C23.5054395,105 0,81.4949707 0,52.5002051 C0,23.5050293 23.5050293,0 52.5002051,0 L52.5002051,0 Z" id="Shape" fill="#5DDDD3"></path>
                                <g id="Group" transform="translate(31.376953, 59.472656)" fill="#FFFFFF">
                                    <polygon id="Shape" points="30.4655859 0.018046875 18.537832 0.018046875 32.4737109 31.7696777 35.1555176 24.2927344 44.4014648 31.7696777 30.4662012 0.018046875"></polygon>
                                    <polygon id="Shape" points="14.0722559 0.018046875 26.0000098 0.018046875 12.0641309 31.7696777 9.38232422 24.2927344 0.136376953 31.7696777 14.0716406 0.018046875"></polygon>
                                </g>
                                <path d="M60.9643945,15.9796875 L61.4645801,16.1587207 C62.3991211,14.4274512 64.3141406,13.3395117 66.394043,13.5583301 C69.1427051,13.8458496 71.1364746,16.3110938 70.8475195,19.0575 C70.7552344,19.936875 70.4396191,20.7391406 69.9636328,21.4136426 C70.0924219,21.5344336 70.2203906,21.6560449 70.3461035,21.7790918 C71.9046973,20.5732324 74.1004687,20.3566699 75.9131543,21.4037988 C78.3074414,22.7841797 79.1263184,25.8476367 77.7449121,28.2400781 C77.3039941,29.0033789 76.6922461,29.6065137 75.9855469,30.0293848 C76.054248,30.1922168 76.1217187,30.3558691 76.1871387,30.5203418 C78.0999023,30.0554297 80.1896484,30.7508496 81.4186816,32.4429492 C83.0441309,34.6780957 82.5464062,37.8096387 80.3122852,39.4334473 C79.5973828,39.9525 78.7916309,40.2545801 77.9713184,40.3532227 L77.9563477,40.8823242 C79.8947461,41.2340332 81.5234766,42.7204395 81.9580371,44.7669141 C82.5336914,47.470459 80.805498,50.1282715 78.104209,50.7039258 C77.2414453,50.8866504 76.3842187,50.8355859 75.5965137,50.5931836 L75.3660059,51.0712207 C76.9910449,52.1821289 77.873291,54.2003027 77.4379102,56.2453418 C76.8645117,58.9492969 74.2048535,60.6748242 71.5031543,60.1014258 C70.6381348,59.9174707 69.8740137,59.5200293 69.2522168,58.975957 C69.1193262,59.0916211 68.985,59.2060547 68.8492383,59.3186426 C69.8857031,60.9947461 69.8711426,63.1999512 68.6412891,64.8928711 C67.0170703,67.1296582 63.8859375,67.6245117 61.6503809,66.0007031 C60.9373242,65.4824707 60.4014551,64.8110449 60.0542578,64.0635352 C59.8856836,64.1150098 59.716084,64.1652539 59.5450488,64.212832 C59.8069336,66.1635352 58.8976172,68.1691992 57.0861621,69.2146875 C54.6929004,70.5969141 51.6312891,69.7757813 50.2498828,67.3829297 C49.8081445,66.6188086 49.5924023,65.7863965 49.5803027,64.9619824 C49.4039355,64.9402441 49.2294141,64.91625 49.0544824,64.8914355 C48.5005664,66.7814355 46.8533789,68.2442578 44.7732715,68.462666 C42.0246094,68.7520313 39.5620312,66.7566211 39.272666,64.0087793 C39.1803809,63.1310449 39.3214746,62.2820215 39.645293,61.5232324 C39.4947656,61.4323828 39.3446484,61.3392773 39.1953516,61.2451465 C37.9216113,62.7473437 35.8195605,63.414668 33.8298926,62.7676465 C31.2014062,61.9139062 29.7636035,59.0897754 30.6167285,56.4621094 C30.8898926,55.6214941 31.3646484,54.9024902 31.9700391,54.3413965 C31.8683203,54.1972266 31.7688574,54.0516211 31.670625,53.9049902 C29.8954687,54.7591406 27.704209,54.5148926 26.1497168,53.114209 C24.0950391,51.2652246 23.9299512,48.1000488 25.7789355,46.0463965 C26.3695605,45.3907617 27.0947168,44.9276953 27.8742187,44.6615039 C27.8416113,44.488418 27.8096191,44.3136914 27.7800879,44.1397852 C25.8113379,44.197207 23.9100586,43.0830176 23.0589844,41.1716895 C21.934541,38.6471777 23.0706738,35.6883105 25.5951855,34.5640723 C26.4009375,34.2055957 27.2509863,34.0770117 28.071709,34.1504297 L28.1970117,33.6348633 C26.3757129,32.886123 25.0933594,31.0949707 25.0933594,29.0041992 C25.0933594,26.2405664 27.334248,23.9996777 30.0984961,23.9996777 C30.9819727,23.9996777 31.8121289,24.2293652 32.5329785,24.6313184 C32.6396191,24.4906348 32.7476953,24.3509766 32.857207,24.2121387 C31.4961035,22.7891016 31.0502637,20.6288086 31.901748,18.7160449 C33.0253711,16.191123 35.9856738,15.0562207 38.50875,16.1798438 C39.314502,16.5389355 39.9795703,17.0850586 40.4738086,17.7443848 C40.6284375,17.6588672 40.7840918,17.5747852 40.9403613,17.4925488 C40.277959,15.6386426 40.7500488,13.4863477 42.3053613,12.0864844 C44.3577832,10.2370898 47.5241895,10.4048438 49.3717383,12.4572656 C49.9627734,13.1137207 50.3479102,13.8844043 50.5314551,14.6887207 C50.7067969,14.67375 50.8831641,14.6602148 51.0595312,14.6489355 C51.2069824,12.6842871 52.5137402,10.9091309 54.5050488,10.2614941 C57.133125,9.40693359 59.9572559,10.8480176 60.8099707,13.4746582 C61.0831348,14.3130176 61.1214844,15.1712695 60.9627539,15.9792773 L60.9643945,15.9796875 L60.9643945,15.9796875 Z" id="Shape" fill="#FF5B61"></path>
                                <path d="M52.5002051,16.9689844 C65.1929004,16.9689844 75.4824902,27.2585742 75.4824902,39.9512695 C75.4824902,52.6445801 65.1929004,62.9339648 52.5002051,62.9339648 C39.8068945,62.9339648 29.5175098,52.644375 29.5175098,39.9512695 C29.5175098,27.2583691 39.8068945,16.9689844 52.5002051,16.9689844 L52.5002051,16.9689844 Z" id="Shape" fill="#FFFFFF"></path>
                                <path d="M52.5002051,19.5131836 C63.7881152,19.5131836 72.9380859,28.6631543 72.9380859,39.9510645 C72.9380859,51.2389746 63.7881152,60.3895605 52.5002051,60.3895605 C41.2118848,60.3895605 32.061709,51.2395898 32.061709,39.9510645 C32.0619141,28.6633594 41.2118848,19.5131836 52.5002051,19.5131836 L52.5002051,19.5131836 Z" id="Shape" fill="#FBB429"></path>
                                <polygon id="Shape" fill="#FFFFFF" points="52.5002051 24.6489551 55.9067578 35.784082 66.9992285 35.7615234 58.0133203 42.6209766 61.4606836 53.7411328 52.5 46.8464063 43.5393164 53.7411328 46.9866797 42.6209766 38.0009766 35.7615234 49.0934473 35.784082 52.5006152 24.6489551 52.5002051 24.6489551"></polygon>
                            </g>
                        </g>
                    </g>
                </g>
            </g>
        </g>
    </g>
</svg>