<?xml version="1.0" encoding="UTF-8" standalone="no"?>
<svg width="107px" height="107px" viewBox="0 0 107 107" version="1.1" xmlns="http://www.w3.org/2000/svg" xmlns:xlink="http://www.w3.org/1999/xlink">
    <!-- Generator: Sketch 39.1 (31720) - http://www.bohemiancoding.com/sketch -->
    <title>Group 4</title>
    <desc>Created with Sketch.</desc>
    <defs>
        <circle id="path-1" cx="52.5" cy="52.5" r="52.5"></circle>
        <radialGradient cx="50%" cy="49.9999932%" fx="50%" fy="49.9999932%" r="48.5852148%" id="radialGradient-3">
            <stop stop-color="#2A93D8" offset="0%"></stop>
            <stop stop-color="#227FBB" offset="100%"></stop>
        </radialGradient>
    </defs>
    <g id="формы" stroke="none" stroke-width="1" fill="none" fill-rule="evenodd">
        <g id="polis812_osago_step1" transform="translate(-268.000000, -1580.000000)">
            <g id="benefits" transform="translate(136.000000, 1581.000000)">
                <g id="benefit1">
                    <g id="Group-4" transform="translate(133.000000, 0.000000)">
                        <mask id="mask-2" fill="white">
                            <use xlink:href="#path-1"></use>
                        </mask>
                        <use id="Oval-3" stroke="#E3E6E7" fill="#FFFFFF" xlink:href="#path-1"></use>
                        <g id="tag" mask="url(#mask-2)">
                            <g id="Layer_1">
                                <path d="M52.5,0.000616084929 C23.5052344,0.000616084929 0,23.5373194 0,52.5719646 C0,81.6078419 23.5052344,105.144545 52.5,105.144545 C81.4947656,105.144545 105,81.6078419 105,52.5719646 C105,23.5373194 81.4947656,0.000616084929 52.5,0.000616084929 L52.5,0.000616084929 Z" id="Shape" fill="#3DB39E"></path>
                                <path d="M74.2854492,36.6036593 L81.6721582,36.6036593 C82.6434082,36.6036593 83.4518262,37.2756026 83.685,38.1808367 C83.7280664,38.0116187 83.758418,37.8380881 83.758418,37.6551109 C83.758418,36.4944069 82.823877,35.5522077 81.6721582,35.5522077 L74.2854492,35.5522077 C71.58375,35.5522077 69.3881836,33.4735371 69.1226074,30.8206754 C69.1047656,30.9962596 69.0701074,31.1665044 69.0701074,31.3464012 C69.0701074,34.2504202 71.405332,36.6036593 74.2854492,36.6036593 L74.2854492,36.6036593 Z M81.6721582,42.912369 L66.601582,42.912369 L64.5204492,40.8094657 L63.4798828,40.8094657 L66.6026074,43.9638206 L81.674209,43.9638206 C84.5543262,43.9638206 86.8895508,41.6095547 86.8895508,38.7065625 C86.8895508,38.5266657 86.8548926,38.3564209 86.8370508,38.1808367 C86.5694238,40.8336984 84.3738574,42.912369 81.6721582,42.912369 L81.6721582,42.912369 Z" id="Shape" fill="#37A18E"></path>
                                <path d="M74.2854492,28.1920464 L99.0108984,28.1920464 C98.4491895,27.1184157 97.8558984,26.0659373 97.224873,25.0376915 L74.2854492,25.0376915 C71.405332,25.0376915 69.0701074,27.3919574 69.0701074,30.2949496 C69.0701074,33.1979418 71.405332,35.5522077 74.2854492,35.5522077 L81.6721582,35.5522077 C82.8251074,35.5522077 83.758418,36.4944069 83.758418,37.6551109 C83.758418,38.8158149 82.823877,39.7580141 81.6721582,39.7580141 L63.4788574,39.7580141 L66.601582,42.912369 L81.6731836,42.912369 C84.5533008,42.912369 86.8885254,40.5581031 86.8885254,37.6551109 C86.8885254,34.7521187 84.5533008,32.3978528 81.6731836,32.3978528 L74.2854492,32.3978528 C73.1325,32.3978528 72.1991895,31.4556536 72.1991895,30.2949496 C72.1989844,29.1342456 73.1325,28.1920464 74.2854492,28.1920464 L74.2854492,28.1920464 Z" id="Shape" fill="#E4E7E7"></path>
                                <path d="M43.05,41.5306958 C43.05,39.4982316 41.4046582,37.8506152 39.375,37.8506152 C38.0908008,37.8506152 36.965332,38.5118797 36.3078516,39.5107587 C36.8874023,39.1279646 37.5793359,38.9020668 38.325,38.9020668 C40.3546582,38.9020668 42,40.5496832 42,42.5821474 C42,43.328637 41.774209,44.022554 41.3921484,44.6020846 C42.3896484,43.9449273 43.05,42.8166704 43.05,41.5306958 L43.05,41.5306958 Z M59.1873926,81.9990559 C57.7645605,83.4226228 55.4588672,83.4226228 54.0370605,81.9990559 L29.7748828,57.9501806 C29.599541,57.7745964 28.334209,55.8135981 28.334209,54.207054 L28.344668,33.8992518 C28.344668,33.0422777 28.4517188,32.3955938 28.6721777,31.8951275 C27.688418,32.3272084 27.294668,33.2462018 27.294668,34.9507034 L27.284209,55.2585056 C27.284209,56.8640229 28.549541,58.826048 28.7248828,59.0016322 L52.9872656,83.0505075 C54.4088672,84.4740744 56.7147656,84.4740744 58.1375977,83.0505075 L78.7374902,62.4379486 L78.7415918,62.4338414 L59.1873926,81.9990559 L59.1873926,81.9990559 L59.1873926,81.9990559 Z" id="Shape" fill="#37A18E"></path>
                                <path d="M79.7874902,56.2321251 L55.7529492,31.9550931 C55.5755566,31.7774553 53.8408008,30.5114008 52.048623,30.5062667 C47.0685059,30.5588393 36.949541,30.52516 31.6691895,30.52516 C29.1996387,30.52516 28.344873,31.340035 28.344873,33.8992518 L28.3344141,54.207054 C28.3344141,55.8125713 29.5997461,57.7745964 29.7750879,57.9501806 L54.0374707,81.9990559 C55.4590723,83.4226228 57.7649707,83.4226228 59.1878027,81.9990559 L79.7876953,61.386497 C81.2090918,59.9627247 81.2090918,57.6558974 79.7874902,56.2321251 L79.7874902,56.2321251 L79.7874902,56.2321251 Z M39.375,45.2107765 C37.3453418,45.2107765 35.7,43.56316 35.7,41.5306958 C35.7,39.4982316 37.3453418,37.8506152 39.375,37.8506152 C41.4046582,37.8506152 43.05,39.4982316 43.05,41.5306958 C43.05,43.56316 41.4046582,45.2107765 39.375,45.2107765 L39.375,45.2107765 Z" id="Shape" fill="#EFC75E"></path>
                                <path d="M39.375,35.7477119 C36.1850098,35.7477119 33.6,38.3362955 33.6,41.5306958 C33.6,44.7250962 36.1850098,47.3136797 39.375,47.3136797 C42.5649902,47.3136797 45.15,44.7250962 45.15,41.5306958 C45.15,38.3362955 42.5649902,35.7477119 39.375,35.7477119 L39.375,35.7477119 Z M39.375,44.1593248 C37.9248926,44.1593248 36.75,42.982808 36.75,41.5306958 C36.75,40.0785836 37.9248926,38.9020668 39.375,38.9020668 C40.8251074,38.9020668 42,40.0785836 42,41.5306958 C42,42.982808 40.8251074,44.1593248 39.375,44.1593248 L39.375,44.1593248 Z" id="Shape" fill="#30444D"></path>
                                <path d="M56.7,54.673841 C59.0194336,54.673841 60.9,52.7906747 60.9,50.4680345 C60.9,48.1453943 59.0194336,46.2622281 56.7,46.2622281 C54.3805664,46.2622281 52.5,48.1453943 52.5,50.4680345 C52.5,52.7906747 54.3805664,54.673841 56.7,54.673841 L56.7,54.673841 Z M56.7,48.3651313 C57.8591016,48.3651313 58.8,49.3073305 58.8,50.4680345 C58.8,51.6287385 57.8591016,52.5709378 56.7,52.5709378 C55.5408984,52.5709378 54.6,51.6287385 54.6,50.4680345 C54.6,49.3073305 55.5408984,48.3651313 56.7,48.3651313 L56.7,48.3651313 Z M56.7,63.0854539 C54.3805664,63.0854539 52.5,64.9686201 52.5,67.2912603 C52.5,69.6139005 54.3805664,71.4970668 56.7,71.4970668 C59.0194336,71.4970668 60.9,69.6139005 60.9,67.2912603 C60.9,64.9686201 59.0194336,63.0854539 56.7,63.0854539 L56.7,63.0854539 Z M56.7,69.3941636 C55.5408984,69.3941636 54.6,68.4519643 54.6,67.2912603 C54.6,66.1305563 55.5408984,65.1883571 56.7,65.1883571 C57.8591016,65.1883571 58.8,66.1305563 58.8,67.2912603 C58.8,68.4521697 57.8591016,69.3941636 56.7,69.3941636 L56.7,69.3941636 Z M67.2,57.8281958 L46.2,57.8281958 C45.6204492,57.8281958 45.15,58.2982686 45.15,58.8796474 C45.15,59.4610262 45.6204492,59.931099 46.2,59.931099 L67.2,59.931099 C67.7805762,59.931099 68.25,59.4610262 68.25,58.8796474 C68.25,58.2982686 67.7805762,57.8281958 67.2,57.8281958 L67.2,57.8281958 Z" id="Shape" fill="#D07C40"></path>
                                <polygon id="Shape" fill="#CDCFCF" points="66.3903516 39.7580141 63.4786523 39.7580141 66.601377 42.912369 69.5403516 42.912369"></polygon>
                                <path d="M1.53295898,39.9535184 C1.27681641,40.9924429 1.05738281,42.0459482 0.865224609,43.1078732 L41.4635156,43.1078732 C41.795332,42.6673725 42,42.1248071 42,41.5306958 C42,40.9365846 41.795332,40.3940191 41.4635156,39.9535184 L1.53295898,39.9535184 L1.53295898,39.9535184 L1.53295898,39.9535184 Z" id="Shape" fill="#E4E7E7"></path>
                                <path d="M79.7874902,56.2321251 L55.7529492,31.9550931 C55.5755566,31.7774553 53.8408008,30.5114008 52.048623,30.5062667 C47.0685059,30.5588393 36.949541,30.52516 31.6691895,30.52516 C30.0269238,30.52516 29.1091992,30.9005611 28.6725879,31.8951275 C29.1649805,31.678471 29.7949805,31.5766116 30.6191895,31.5766116 C35.899541,31.5766116 46.0195313,31.6102909 50.998623,31.5577183 C52.7910059,31.5630577 54.5255566,32.8278801 54.7029492,33.0065447 L78.7374902,57.2835767 C80.1580664,58.7061168 80.1590918,61.0088369 78.7415918,62.433636 L79.7874902,61.3862916 C81.2090918,59.9627247 81.2090918,57.6558974 79.7874902,56.2321251 L79.7874902,56.2321251 Z" id="Shape" fill="#F2D27E"></path>
                                <path d="M99.0108984,28.1920464 L74.2854492,28.1920464 C73.1325,28.1920464 72.1991895,29.1342456 72.1991895,30.2949496 C72.1991895,30.4779268 72.229541,30.6514574 72.2726074,30.8206754 C72.5057813,29.9154413 73.3141992,29.243498 74.2854492,29.243498 L99.5494336,29.243498 C99.3740918,28.8913028 99.193418,28.5411612 99.0108984,28.1920464 L99.0108984,28.1920464 L99.0108984,28.1920464 Z M41.4635156,43.1078732 L1.08773438,43.1078732 L0.865224609,44.1593248 L39.375,44.1593248 C40.230791,44.1593248 40.9836328,43.7430568 41.4635156,43.1078732 L41.4635156,43.1078732 L41.4635156,43.1078732 Z" id="Shape" fill="#37A18E"></path>
                                <path d="M28.339541,44.1593248 L36.807832,44.1593248 C36.5002148,43.8586754 36.2535059,43.5011408 36.0664746,43.1078732 L28.3405664,43.1078732 L28.339541,44.1593248 L28.339541,44.1593248 Z" id="Shape" fill="#D7B354"></path>
                                <path d="M34.235332,44.1593248 L39.375,44.1593248 C38.519209,44.1593248 37.7663672,43.7428514 37.2864844,43.1078732 L33.8225098,43.1078732 C33.9264844,43.4748545 34.0651172,43.8260229 34.235332,44.1593248 L34.235332,44.1593248 L34.235332,44.1593248 Z" id="Shape" fill="#273A45"></path>
                                <polygon id="Shape" fill="#319180" points="27.2905664 44.1593248 28.339541 44.1593248 28.3405664 43.1078732 27.2915918 43.1078732"></polygon>
                            </g>
                        </g>
                        <g id="message" mask="url(#mask-2)">
                            <g id="Layer_1">
                                <g id="Strategy">
                                    <g id="paper_airplane">
                                        <path d="M105,52.5 C105,70.1773242 96.2632617,85.813916 82.8722754,95.3276953 C74.2987793,101.418721 62.8947949,98.0273438 51.5771484,98.0273438 C38.9273145,98.0273438 28.2452051,100.526221 19.1811621,93.0742969 C7.46956055,83.4454688 0,68.8449316 0,52.5 C0,23.5050293 23.5050293,0 52.5,0 C81.4949707,0 105,23.5050293 105,52.5 L105,52.5 Z" id="Shape" fill="url(#radialGradient-3)"></path>
                                        <path d="M82.8722754,95.3276953 C93.4575879,87.8072754 101.133252,76.4605078 103.885605,63.3047461 C97.0858301,64.2774316 91.0405371,68.8916895 88.5773438,75.812666 C88.1380664,77.046416 87.8339355,78.2953418 87.6559277,79.5434473 C81.9662402,78.2772949 76.093418,81.4190918 74.0889844,87.0513574 C73.9380469,87.4758691 73.8154102,87.9036621 73.7155371,88.3324805 C73.0102734,87.8673633 72.2395898,87.4777148 71.407998,87.1817871 C65.8442285,85.2015527 59.7290039,88.1068945 57.7489746,93.6706641 C57.2094141,95.1870117 57.0342773,96.7435547 57.1753711,98.2467773 C66.5820996,98.8886719 75.7138184,100.413428 82.8722754,95.3276953 L82.8722754,95.3276953 Z" id="Shape" fill="#ECF0F1" opacity="0.5"></path>
                                        <path d="M35.6034082,82.0281738 C32.3344629,77.5855664 26.1491016,76.5601758 21.6293848,79.6443457 C21.2040527,78.5463574 20.6310645,77.4854883 19.8995508,76.4914746 C16.1133984,71.3458594 9.39032227,69.6471973 3.74308594,71.9926758 C7.05407227,80.2667578 12.4053809,87.5035547 19.180957,93.0740918 C22.5883301,95.875459 26.2243652,97.2704004 30.1075195,97.9207031 C31.2721582,97.5979102 32.3990625,97.0632715 33.4301953,96.3044824 C37.9728809,92.9623242 38.9457715,86.5706543 35.6034082,82.0281738 L35.6034082,82.0281738 Z" id="Shape" fill="#ECF0F1" opacity="0.5"></path>
                                        <polygon id="Shape" fill="#F2C500" points="14.3554688 35.2603125 88.1835938 19.8925781 30.0935742 49.8058887"></polygon>
                                        <polygon id="Shape" fill="#F59D00" points="30.1464844 64.1133691 30.1464844 49.8058887 88.1835938 19.8925781"></polygon>
                                        <polygon id="Shape" fill="#F2C500" points="57.2775 71.9824219 39.9879785 56.6146875 88.1835937 19.8925781"></polygon>
                                        <path d="M74.8656152,91.1334375 C73.7104102,84.1480664 67.6452246,78.8201367 60.3325488,78.8201367 C56.2555957,78.8201367 52.5658301,80.4761426 49.8981738,83.152207 C47.0073926,80.2811133 43.026416,78.5061621 38.6303613,78.5061621 C31.9224609,78.5061621 26.1829395,82.6380762 23.8089551,88.4944922 C21.5898047,89.0518945 19.8886816,91.3130859 19.5423047,93.6087305 C28.5833789,100.98457 40.1268164,105 52.7050781,105 C64.0227246,105 74.5036523,101.418516 83.0771484,95.3276953 C81.0593848,92.967041 78.1485059,91.3934766 74.8656152,91.1334375 L74.8656152,91.1334375 Z" id="Shape" fill="#ECF0F1"></path>
                                    </g>
                                </g>
                            </g>
                        </g>
                    </g>
                </g>
            </g>
        </g>
    </g>
</svg>