<?xml version="1.0" encoding="UTF-8" standalone="no"?>
<svg width="107px" height="107px" viewBox="0 0 107 107" version="1.1" xmlns="http://www.w3.org/2000/svg" xmlns:xlink="http://www.w3.org/1999/xlink">
    <!-- Generator: Sketch 39.1 (31720) - http://www.bohemiancoding.com/sketch -->
    <title>Group 4</title>
    <desc>Created with Sketch.</desc>
    <defs>
        <circle id="path-1" cx="52.5" cy="52.5" r="52.5"></circle>
    </defs>
    <g id="Page-1" stroke="none" stroke-width="1" fill="none" fill-rule="evenodd">
        <g id="polis812_vzr_step1" transform="translate(-667.000000, -769.000000)">
            <g id="benefits" transform="translate(136.000000, 770.000000)">
                <g id="benefit1-copy" transform="translate(399.000000, 0.000000)">
                    <g id="Group-4" transform="translate(133.000000, 0.000000)">
                        <mask id="mask-2" fill="white">
                            <use xlink:href="#path-1"></use>
                        </mask>
                        <use id="Oval-3" stroke="#E3E6E7" fill="#FFFFFF" xlink:href="#path-1"></use>
                        <g id="travel" mask="url(#mask-2)">
                            <g id="Layer_1">
                                <path d="M52.5,105 C81.4164258,105 105,81.4154004 105,52.5 C105,23.5835742 81.4164258,0 52.5,0 C23.5835742,0 0,23.5845996 0,52.5 C0,81.4154004 23.5845996,105 52.5,105 L52.5,105 Z" id="Shape" fill="#FF757C"></path>
                                <path d="M52.5,26.1769922 C78.1626562,26.1769922 98.9643457,46.979502 98.9643457,72.6413379 C98.9643457,74.2526367 98.8819043,75.8438379 98.7227637,77.4124805 C89.8502637,93.8390332 72.4795312,105 52.5,105 C32.5204687,105 15.1505566,93.8400586 6.27805664,77.4135059 C6.11789063,75.8448633 6.0356543,74.2526367 6.0356543,72.641543 C6.0356543,46.9786816 26.8391895,26.1769922 52.5,26.1769922 L52.5,26.1769922 Z" id="Shape" fill="#0E7886"></path>
                                <path d="M81.5300391,36.3634277 C90.1703906,43.2866602 96.2847949,53.2294629 98.2691309,64.5948926 C98.1288574,64.3799707 97.985918,64.0975781 97.8419531,63.6790137 C96.9344824,63.976377 96.9051563,64.0009863 95.8338281,64.1791992 L95.7864551,64.2446191 C95.3603027,64.8518555 95.8081934,64.5950977 95.059043,65.2277637 C94.1677734,65.9779395 93.5869922,67.0018945 92.5905176,67.6091309 C92.4701367,68.67 92.6787012,68.9087109 92.4114844,70.1703516 C92.3073047,70.6354688 91.7864063,71.8858301 91.1762988,71.791084 C90.9831152,71.7549902 90.1646484,69.7300488 89.9714648,69.1701855 C89.64375,68.2173926 89.2723535,67.5143848 89.034668,66.4184473 C88.9011621,65.8339746 88.8111328,64.7144531 88.677627,64.3213184 C88.0381934,64.4160645 88.0666992,64.8223242 87.4565918,64.3933008 C87.0255176,64.0826074 87.2197266,63.8931152 86.9801953,63.427998 C86.475293,62.9516016 85.9543945,62.4752051 85.4343164,61.9986035 C85.031748,61.8679688 83.4850488,62.0933496 82.8294141,62.0221875 C81.6549316,61.9141113 81.5515723,61.9860938 80.852666,61.0456055 C79.6166602,61.1063086 79.7216602,61.569375 78.5158008,60.5331152 C77.7276855,59.8662012 77.8763672,58.7940527 76.7312109,59.4012891 C76.6877344,60.3778711 77.1631055,60.5938184 77.5941797,61.0456055 C77.9058984,61.3913672 78.293291,61.6290527 78.456123,62.0931445 C78.4712988,62.1064746 78.5461523,62.545957 78.5613281,62.6056348 C79.6771582,62.6776172 79.9441699,62.1423633 80.5542773,61.6897559 C81.1500293,62.2485938 80.5694531,62.3451855 81.4324219,62.784668 C82.1163574,63.13125 81.9828516,62.9286328 82.4278711,63.4874707 C82.6514063,64.2376465 80.897168,66.2750977 80.3155664,66.6444434 C79.8695215,66.9305273 79.6326563,66.7637988 79.2300879,67.0954102 C78.6351562,67.5974414 79.3049414,67.525459 78.2639648,67.9062891 C77.1481348,68.3117285 76.0464551,69.1689551 74.8719727,69.2409375 C74.6191113,68.5485938 74.36625,67.8476367 74.1131836,67.144834 C73.36875,64.7503418 73.3988965,65.6795508 72.6392871,64.4404688 C72.2822461,63.9033691 72.4309277,63.5586328 72.1932422,63.0822363 C72.0283594,62.7251953 71.7773437,62.5697461 71.5529883,62.1302637 C71.211123,61.4510449 70.8104004,60.3912012 70.0212598,60.498252 C69.8574023,61.0335059 70.7496973,62.8445508 70.972207,63.2848535 C71.1957422,63.7261816 71.5527832,63.9166992 71.6569629,64.5483398 C71.8056445,65.4168457 71.6276367,65.3089746 72.1030078,65.8924219 C73.1005078,67.0943848 72.0585059,66.8813086 73.6062305,68.0596875 C74.7655371,68.9425488 74.4691992,69.2038184 74.9597461,70.384043 C75.7185352,70.5971191 77.9795215,69.5864941 78.3648633,69.8838574 C78.826084,70.7049902 77.8306348,72.0150293 77.5777734,72.7301367 C76.7441309,75.1246289 75.2864355,75.0895605 74.1706055,76.9233691 C73.5615234,77.9132813 73.2783105,78.043916 72.7129102,79.2354199 C72.0726562,80.5813477 74.006748,84.309668 72.8474414,85.871543 C72.5945801,86.2277637 71.7761133,86.4426855 70.7503125,87.5273438 C69.6638086,88.7057227 70.7796387,88.5039258 70.3629199,90.4683691 C70.0362305,90.9211816 69.6344824,90.9447656 69.2329395,91.2677637 C69.0842578,91.7310352 69.2036133,92.0993555 68.9497266,92.6725488 C68.6816895,93.3630469 68.6380078,92.9937012 68.2497949,93.5543848 C67.9676074,93.9938672 67.9977539,94.1729004 67.6700391,94.5783398 C67.3878516,94.9487109 67.2381445,95.053916 66.9719531,95.2934473 C65.6770898,96.4849512 62.8952051,96.5200195 62.6575195,96.353291 C62.0020898,95.7944531 62.4491602,95.6513086 62.286123,94.8652441 C62.1269824,94.1737207 61.7605078,93.5949902 61.4545313,93.0617871 L61.4233594,93.0068262 C61.275498,92.7453516 61.1411719,92.4943359 61.0663184,92.255625 C60.5302441,90.5639355 60.7244531,89.2795313 59.7876562,87.5632324 C58.6121484,85.346748 60.4412402,84.1921582 60.3663867,82.9407715 C60.3370605,82.6073145 60.2185254,82.4046973 60.1873535,82.1421973 C59.9648438,80.7601758 59.8321582,79.5221191 58.9095117,78.437666 C57.897041,77.2592871 58.0313672,77.6751855 58.3582617,75.7343262 C58.7741602,73.5065625 57.8230078,74.0777051 56.4836426,74.0188477 C55.8282129,71.9947266 54.5485254,72.9815625 53.2698633,73.5783398 C52.465752,73.9468652 52.169209,73.4712891 51.260918,73.6019238 C49.2376172,73.8757031 50.8298438,74.7460547 48.1217871,72.6017578 C46.9907813,71.7076172 47.7495703,72.1604297 47.0808105,71.0407031 C46.8583008,70.6352637 46.1733398,70.1002148 45.8597754,69.69375 C44.8339746,68.4075 46.0539844,67.1087402 45.8749512,65.6321777 C45.5624121,62.8919238 45.1161621,65.2741113 46.648916,61.9627148 C47.4530273,60.1998633 48.6722168,60.188584 48.9857813,59.4014941 C49.2538184,58.6995117 49.0747852,58.1985059 49.5807129,57.5553809 C50.0267578,57.0316113 50.6672168,57.1386621 50.9200781,56.3165039 C51.2771191,55.3040332 50.5923633,55.1742188 49.84875,55.148584 C49.5370313,54.0887402 49.5370313,54.3500098 49.7738965,53.3734277 C49.9084277,52.8250488 49.7890723,52.5625488 49.9084277,52.0151953 C50.205791,50.6454785 52.5416309,52.003916 53.211416,51.4430273 C53.5231348,50.8595801 53.568457,50.2884375 53.211416,49.7275488 C52.8381738,49.1676855 52.3484473,49.2388477 52.0955859,48.7035938 C52.6609863,48.3227637 52.2442676,48.6562207 52.7350195,48.5483496 C53.3147754,48.4177148 53.2399219,48.2499609 53.9246777,48.1201465 C54.5356055,47.9997656 54.922998,47.4409277 55.5169043,47.0603027 C56.3646973,46.5119238 55.9629492,46.0221973 56.9897754,45.8573145 C58.6408594,45.5704102 57.5695313,45.6186035 57.7493848,44.0813379 C58.0014258,43.9865918 58.2391113,43.8776953 58.4767969,43.7716699 C58.9976953,44.4508887 58.343291,44.1771094 58.9675488,44.6288965 C59.1314063,44.5341504 59.3245898,44.4394043 59.503623,44.3446582 C59.4135938,43.6049414 59.0725488,43.7478809 58.8490137,42.832002 C58.0305469,42.9626367 57.7331836,43.6531348 57.0787793,43.4031445 C56.4393457,43.165459 56.4091992,42.2475293 56.4393457,41.4850488 C56.6770313,40.9139063 57.8666895,40.6042383 58.3270898,40.4602734 C59.0725488,40.2102832 58.9673438,39.7100977 59.6512793,39.0300586 C60.5443945,38.1369434 59.8889648,39.0423633 60.3208594,37.8877734 C61.3031836,37.8508594 60.8417578,37.815791 61.4215137,37.5184277 L61.4508398,37.5071484 L61.5105176,37.4825391 C61.8534082,37.3272949 62.2994531,37.2922266 62.7457031,37.1378027 C64.3816113,36.5902441 65.0511914,36.8640234 66.2408496,37.3508789 C67.1634961,37.7325293 69.9453809,37.7440137 70.1537402,38.9127539 C69.4849805,39.6137109 68.8455469,39.1022461 67.8775781,39.1627441 C68.0555859,40.0673438 68.1296191,40.0673438 68.9489063,40.317334 C69.0834375,39.8883105 68.8892285,40.0558594 69.1127637,39.7812598 C69.3808008,39.8409375 69.6488379,39.8883105 69.9160547,39.9375293 C70.1851172,39.0195996 70.4966309,39.1512598 71.405127,39.0433887 C71.2554199,38.411543 71.0915625,38.5905762 71.4336328,38.0905957 C72.3722754,38.1871875 71.612666,38.1039258 72.0738867,38.8541016 C72.7284961,38.7698145 73.36875,38.0432227 74.2751953,37.9484766 C74.8405957,37.8887988 74.8112695,38.1037207 75.6135352,38.0194336 C76.2681445,37.9484766 76.237793,37.7097656 76.894248,37.9843652 C77.1311133,37.5430371 76.894248,37.5543164 77.4740039,37.448291 C78.3652734,37.2930469 79.1400586,37.8404004 80.002207,37.9607813 C79.3637988,37.1755371 78.7528711,37.3289355 79.5418066,36.0191016 C80.5382813,35.8164844 80.6272852,35.9594238 81.0591797,36.710625 C81.3036328,36.5732227 81.4078125,36.435 81.5290137,36.3648633 L81.5300391,36.3634277 L81.5300391,36.3634277 Z M31.4917969,100.623838 L31.4917969,100.623838 C29.9440723,99.9474902 28.4361328,99.1983398 26.9708496,98.3817187 C26.9528027,98.3210156 26.9368066,98.2547754 26.9224512,98.1780762 C26.6999414,96.8549121 27.2653418,96.7117676 26.6392383,94.5075879 C26.229082,93.0498926 26.3939648,89.596377 25.9600195,87.8259375 C25.8909082,87.54375 25.8055957,87.3040137 25.7024414,87.1212891 C25.3008984,86.4554004 24.3185742,86.1457324 23.5314844,85.6086328 C23.485957,85.5981738 23.4566309,85.5850488 23.4424805,85.5612598 C22.3559766,84.7987793 21.3293555,81.8083301 20.4663867,80.689834 C20.0656641,80.1527344 19.8128027,80.3904199 19.6337695,79.5457031 C19.4405859,78.7717383 19.7379492,78.9033984 19.9918359,78.2584277 C18.6676465,75.8288672 21.7023926,75.8639355 21.0783398,72.9454688 C20.9438086,72.4093945 20.5582617,71.6592188 20.2305469,71.4223535 C19.6054688,71.6961328 19.9018066,71.8495313 19.5751172,72.3743262 C19.0702148,72.0882422 18.5644922,71.8013379 18.0737402,71.5170996 C16.5411914,70.0395117 17.3586328,71.1108398 16.928584,70.1465625 C16.0059375,68.121416 15.1269727,69.2542676 14.0263184,68.2530762 C13.5347461,67.835332 13.4457422,67.1799023 12.6283008,67.3002832 C11.3931152,67.4670117 12.0770508,67.6573242 10.7983887,67.0605469 C9.71188477,66.5480566 8.5819043,65.9533301 7.82229492,65.2618066 C7.79296875,64.1896582 8.18036133,64.1412598 7.51057617,63.1419141 C7.39224609,62.9563184 7.25853516,62.7838477 7.12318359,62.6189648 C9.21641602,53.0947266 14.2291406,44.6664258 21.1778027,38.3202832 C21.7177734,38.50875 22.4318555,38.3846777 22.9679297,38.3629395 C23.160293,38.0058984 23.2796484,37.6952051 23.6225391,37.5643652 C23.7560449,37.5169922 23.9199023,37.5057129 24.1426172,37.5169922 C24.1719434,37.6941797 24.2174707,37.8740332 24.2619727,38.0522461 C24.2619727,38.0655762 24.2923242,38.1839062 24.2771484,38.1603223 C24.2923242,38.1357129 24.3064746,38.2312793 24.320625,38.2663477 C25.2592676,37.7187891 24.470332,37.7064844 24.9752344,36.7175977 C24.1871191,36.5623535 24.2912988,36.6568945 23.7997266,36.1569141 C24.2771484,35.6331445 25.1977441,35.4541113 25.8827051,35.5023047 C25.8371777,35.9797266 25.614668,35.9674219 25.7945215,36.3718359 C26.3297754,36.0383789 26.7019922,35.146084 27.5639355,35.3119922 C27.727793,35.4303223 27.922002,35.5383984 28.1000098,35.6454492 C27.6529395,36.062168 26.9841797,36.0867773 26.4044238,36.324668 C26.1505371,38.910498 27.2228906,36.7424121 26.8648242,38.5173633 C27.5042578,38.4699902 28.1293359,38.004873 28.3670215,37.5284766 C28.1293359,37.2188086 27.7864453,37.2188086 27.594082,36.8492578 C27.7437891,36.3728613 28.063916,36.0119238 28.5167285,35.797002 C28.8227051,35.6520117 29.1883594,35.5744922 29.6032324,35.5744922 C34.3335645,35.6105859 32.0867285,35.8244824 33.5454492,36.4924219 C33.8721387,36.634541 34.4518945,36.7073437 34.6461035,36.9926074 C34.9434668,37.4454199 34.6612793,37.873418 35.1368555,38.2314844 C35.5535742,38.5411523 35.613252,38.2191797 36.1636816,38.9115234 C36.0453516,39.3036328 35.7621387,39.7090723 35.1823828,39.721377 C34.3790918,39.7326562 34.854668,39.1842773 33.9916992,39.2685645 C34.0079004,40.0773926 34.810166,40.3880859 34.0655273,40.8285937 C33.410918,41.2225488 33.8268164,40.6864746 33.3370898,40.9602539 C33.3219141,40.9725586 33.2774121,40.9963477 33.2632617,41.0086523 C33.2339355,41.0322363 33.203584,41.0683301 33.1884082,41.0919141 C33.1002246,41.1874805 33.0245508,41.2709473 32.951543,41.3552344 C31.7618848,41.0322363 31.9854199,41.1762012 31.2703125,40.3899316 C31.0033008,40.0925684 30.9585938,40.0205859 30.4821973,40.0564746 C30.184834,40.0677539 29.7982617,40.1985938 29.5150488,39.9371191 C30.095625,39.2105273 30.3788379,39.9135352 31.2266309,39.4834863 C31.3753125,39.4115039 32.3121094,38.6859375 32.4618164,38.5181836 C32.2089551,37.9460156 32.4314648,38.4215918 32.0610938,38.0530664 C31.2274512,37.2081445 30.9879199,37.4212207 29.8597852,37.4212207 C29.3302734,38.0303027 28.9342676,38.7833496 28.3575879,39.1139355 C28.0089551,39.3138867 27.5951074,39.359209 27.0475488,39.1252148 C27.3004102,40.1501953 27.9550195,39.3639258 28.0136719,40.6019824 C27.5825977,40.5187207 27.3590625,40.3035937 26.9130176,40.459043 C25.9602246,40.816084 26.8088379,40.7801953 26.882666,40.9715332 C26.882666,40.9838379 27.3287109,41.0312109 26.882666,41.1979395 C26.3910938,41.3759473 26.8078125,41.102373 25.8568652,40.5425098 C25.9903711,40.3048242 26.1249023,40.0546289 26.2584082,39.8046387 C25.4854688,40.0433496 24.5175,40.4241797 23.6110547,40.8644824 C22.5834082,41.3769727 21.6170801,41.9614453 21.0365039,42.4964941 C21.0213281,43.3906348 21.1851855,42.7938574 21.2752148,43.855752 C22.6580566,43.9381934 22.2120117,44.3538867 23.5958789,44.7480469 C23.8620703,44.8210547 24.2057813,44.8920117 24.6227051,44.9629688 C24.6227051,45.6307031 24.0269531,46.1308887 24.4426465,46.8224121 C25.4097949,47.4995801 25.4391211,46.1782617 25.677832,45.3333398 C28.9523145,44.6494043 27.3742383,43.6871777 28.2201855,41.8855664 C28.3471289,41.6165039 28.5269824,41.3295996 28.7866113,41.0197266 C29.0386523,41.0320313 30.0652734,41.1401074 30.2888086,41.1864551 C31.0332422,41.3170898 30.6316992,41.496123 31.4349902,41.8533691 C31.4198145,42.4975195 31.093125,43.330957 32.0448926,43.1765332 C32.7741504,43.0467187 32.6113184,42.4737305 33.5025879,42.3305859 C33.9033105,43.2720996 33.7999512,43.6775391 33.9781641,44.8085449 C36.1208203,45.6430078 35.1678223,46.3212012 34.7511035,47.8832812 C35.020166,48.013916 35.3015332,48.1332715 35.5847461,48.2518066 C35.5705957,48.7046191 35.5543945,49.1459473 35.5402441,49.5872754 C35.4957422,49.5872754 33.2480859,49.0975488 33.1002246,49.0512012 C33.4420898,48.0735938 34.067373,48.0623145 34.468916,47.0621484 C33.665625,47.2042676 33.7244824,47.4542578 33.1447266,47.633291 C32.6246484,47.7885352 32.2231055,47.6806641 31.6726758,47.7526465 C31.4794922,48.3949512 31.6575,47.1919629 31.7182031,48.0130957 C31.7475293,48.3237891 31.8972363,48.0264258 31.6878516,48.3588574 C30.943418,48.0130957 31.1970996,47.2032422 29.8132324,47.953418 C30.1257715,48.0963574 30.4374902,48.2271973 30.7652051,48.3588574 C30.7217285,49.2747363 30.646875,48.5842383 30.4534863,49.1925 C29.9770898,50.7525293 31.7473242,49.7874316 32.20875,49.7049902 C32.0893945,50.5271484 31.5836719,50.5271484 30.8693848,50.7525293 C30.0822949,50.9912402 29.843584,51.3132129 29.2183008,51.4563574 C29.2183008,50.47875 29.0704395,51.3011133 29.5004883,50.6227148 C28.8754102,50.6813672 28.4139844,50.9674512 27.8192578,51.2184668 L27.7606055,51.2412305 C26.9962793,51.5529492 26.8806152,51.5992969 26.7926367,52.5758789 C26.1380273,52.7776758 25.3794434,53.0059277 24.9180176,53.4823242 C24.4576172,53.922832 23.9953711,54.3623145 23.5483008,54.7913379 C23.5048242,54.8274316 23.4734473,54.8633203 23.4459668,54.8871094 C23.6098242,56.1136816 23.4459668,56.1374707 22.7005078,56.6157129 C22.07625,57.0193066 21.8678906,57.0078223 21.2881348,57.5203125 C19.4286914,59.188418 20.3220117,58.4126074 20.4243457,61.2845215 C20.0379785,61.1661914 19.666582,61.0345312 19.309541,60.9036914 C19.0263281,58.996875 19.4126953,59.6297461 17.8811719,59.1882129 C16.2292676,58.7118164 16.4517773,59.5216699 15.7680469,59.6646094 C15.0092578,59.8303125 14.637041,58.9730859 13.5363867,59.6881934 C12.9273047,60.1040918 12.3467285,60.3786914 12.1980469,61.1165625 C12.0200391,62.0107031 11.618291,62.6642871 11.6771484,63.6541992 C11.7823535,66.3358008 14.2213477,66.4891992 14.8464258,65.2388379 C15.2623242,64.4051953 15.1589648,63.9525879 16.5124805,64.1666895 C16.6459863,64.8817969 16.437627,65.4055664 16.2585938,65.9541504 C16.1402637,66.2753027 15.8125488,66.85875 15.9764063,67.3011035 C16.9435547,67.6942383 16.9728809,66.9545215 18.2525684,67.717002 C18.3425977,68.9909473 17.6728125,70.4203418 18.6541113,71.1592383 C19.411875,71.7191016 19.4574023,71.218916 20.1261621,71.1005859 C20.8705957,70.9699512 20.7370898,71.434043 21.4218457,71.5419141 C21.8082129,71.0644922 21.6443555,71.3639062 21.8982422,70.7784082 C22.3442871,69.7677832 22.4628223,70.2431543 23.5197949,69.6246387 C23.6229492,69.5649609 23.7121582,69.5042578 23.8171582,69.4333008 C23.9354883,69.683291 24.0700195,69.922002 24.1875293,70.1598926 C24.9614941,69.2429883 25.050498,70.1363086 25.9436133,70.3862988 C26.3281348,70.4915039 26.6008887,70.5292383 26.8121191,70.5321094 C27.4609863,70.541543 27.5272266,70.2261328 28.412959,70.5396973 C28.5181641,70.588916 28.6516699,70.6239844 28.7710254,70.6600781 C28.7851758,70.6600781 28.8296777,70.6836621 28.8296777,70.7084766 C28.8458789,70.7207812 28.8893555,70.7558496 28.9045313,70.7691797 C29.0532129,70.9348828 29.0694141,71.1026367 29.1877441,71.2806445 C29.7976465,71.8640918 30.4077539,72.4485645 31.0026855,73.019707 C32.177168,73.4848242 32.177168,72.6142676 33.5165332,73.912002 C34.0819336,74.4480762 33.828252,74.4376172 34.140791,75.1272949 C34.1863184,75.2353711 34.2753223,75.3413965 34.3339746,75.4730566 C34.4533301,75.7950293 34.5868359,76.103877 34.7213672,76.4135449 C35.3304492,77.2121191 36.1638867,76.7119336 37.0116797,77.5340918 C37.5024316,78.0104883 37.1310352,77.8675488 38.2165137,78.0578613 C39.8977441,78.3316406 39.2441602,78.1772168 40.5230273,79.1423145 C41.0137793,79.4993555 41.1321094,79.2967383 41.5933301,79.6064062 C42.233584,80.4995215 42.0697266,81.4648242 41.5346777,82.2510937 C39.8827734,84.6570703 40.4481738,84.2639355 40.3733203,86.1705469 C40.3136426,87.265459 40.0011035,89.5293164 38.9742773,89.8030957 C35.2412402,90.8526855 37.4124023,91.5790723 36.4311035,93.4251855 C36.148916,93.9499805 35.9395313,94.0806152 35.7615234,94.4983594 C35.0189355,96.2363965 35.5390137,96.8208691 33.3366797,96.4277344 C33.5460645,96.7962598 33.4115332,96.5460645 33.6198926,96.8795215 C34.274502,97.8919922 34.3786816,98.655498 33.0393164,98.9036426 C31.9234863,99.1185645 32.3998828,98.9036426 32.2957031,100.14252 C31.8638086,100.321553 31.670625,100.14252 31.3882324,100.428604 L31.4934375,100.624658 L31.4917969,100.623838 L31.4917969,100.623838 Z M21.6872168,37.8645996 L21.6872168,37.8645996 C21.9751465,37.8266602 21.9741211,37.7017676 22.7281934,37.5188379 C22.6685156,37.2688477 22.6229883,37.2688477 22.5643359,37.1741016 L22.540752,37.1267285 C22.2538477,37.3691309 21.968584,37.6164551 21.6872168,37.865625 L21.6872168,37.8645996 L21.6872168,37.8645996 Z M61.4520703,51.6788672 L61.4520703,51.6788672 L61.4227441,51.6579492 C61.3185645,51.5869922 61.2152051,51.5158301 61.1262012,51.4325684 C60.4715918,50.8480957 60.3362402,50.3253516 59.6088281,50.4559863 C59.592627,51.0043652 59.6685059,51.0271289 59.9355176,51.3851953 C60.947168,52.6478613 60.6346289,52.2196582 61.4225391,52.68375 L61.4518652,52.7007715 C61.6384863,52.8078223 61.8544336,52.9575293 62.1509766,53.1724512 C61.1393262,54.0637207 62.0771484,54.1594922 61.4518652,54.4578809 L61.4225391,54.4720313 C61.3618359,54.4947949 61.304209,54.5194043 61.259707,54.5429883 C61.0503223,54.0181934 61.511748,54.269209 60.9764941,53.5067285 C60.6791309,53.1135938 60.3967383,52.9942383 59.9355176,52.778291 C58.7741602,52.2307324 58.9238672,51.8027344 58.2097852,51.0874219 C57.4056738,51.1120313 57.5855273,51.3620215 57.020127,51.6481055 C56.3361914,51.9805371 56.4403711,51.5894531 55.6362598,51.6593848 C54.9816504,52.8160254 55.9184473,51.8507227 54.7287891,52.8035156 C53.3004199,53.9107324 54.4759277,55.0663477 52.1856152,55.4131348 C52.0217578,55.4367188 51.9620801,55.4131348 51.799248,55.4717871 C51.3663281,55.6262109 51.6191895,55.4953711 51.3663281,55.7455664 C51.5605371,56.1991992 51.2925,56.1263965 52.0662598,56.2342676 C53.4794531,56.4237598 53.6584863,55.5550488 54.6853125,55.340127 C55.1902148,55.2330762 58.3594922,55.101416 58.582207,55.1610938 C59.2661426,55.9245996 58.7015625,56.4606738 58.7015625,57.1029785 C59.4470215,57.4961133 60.5021484,57.5916797 60.934043,57.9971191 C61.4247949,58.4612109 61.1869043,58.3892285 61.4247949,58.4726953 L61.4541211,58.4821289 C61.5441504,58.5077637 61.6739648,58.5541113 61.9011914,58.6402441 C62.496123,58.842041 62.4657715,58.9613965 63.105,59.0087695 C63.6855762,57.0668848 63.0898242,57.269707 65.8868848,58.162002 C68.8024805,59.1168457 67.4932617,58.2462891 68.7284473,58.3769238 C69.339375,58.437627 69.1755176,58.6269141 70.0233105,58.5198633 C70.1861426,58.1864063 71.3909766,55.1600684 69.8291016,55.5419238 C69.3678809,55.6602539 69.6812402,55.8269824 69.0258105,55.6602539 C68.341875,55.4830664 68.9964844,55.3514063 68.2387207,55.4576367 C67.4932617,55.5657129 66.6019922,56.2211426 66.0212109,53.9695898 C65.7987012,53.1587109 65.3961328,52.4569336 64.4745117,53.6824805 C64.7121973,54.0991992 64.8760547,54.135293 65.1432715,54.5407324 C65.0694434,54.6590625 64.816582,54.9574512 64.727373,55.0532227 C64.2224707,55.5534082 64.9367578,55.3155176 64.1174707,55.421748 C63.6714258,55.088291 63.76125,54.6592676 63.3293555,54.0643359 C62.5705664,52.9550684 63.0613184,53.468584 62.6747461,52.4077148 C62.3706152,52.1407031 61.865918,51.940752 61.4537109,51.678457 L61.4520703,51.678457 L61.4520703,51.6788672 Z M77.340498,83.7502148 L77.340498,83.7502148 C76.6869141,84.0836719 76.5968848,84.8471777 76.1063379,85.2751758 C75.571084,85.763877 74.8559766,85.5384961 74.6486426,86.4430957 C74.3806055,87.5741016 75.0946875,87.2293652 74.3067773,88.7059277 C74.0245898,89.2534863 74.0094141,90.622998 74.4413086,91.0294629 C75.7343262,92.2787988 76.4342578,89.1236719 76.7316211,88.1347852 C76.9551563,87.4319824 77.1635156,86.6344336 77.4012012,85.9779785 C77.6388867,85.2753809 77.980957,84.6568652 77.340498,83.7502148 L77.340498,83.7502148 Z M75.1988672,50.5136133 L75.1988672,50.5136133 C75.3030469,51.9684375 76.1649902,52.5274805 76.775918,53.1941895 C76.7020898,53.8857129 76.537207,53.7066797 76.5523828,54.670957 C77.2816406,55.1965723 77.8158691,55.5169043 78.7698926,55.25625 C78.9033984,54.0883301 78.5311816,54.1469824 78.1749609,53.3494336 C78.2346387,53.2538672 78.3974707,53.135332 78.427002,53.111748 C78.6960645,52.754707 78.5615332,53.2538672 78.6960645,52.6466309 C77.9969531,52.42125 76.8661523,51.7051172 76.7779688,50.7654492 C77.119834,50.4916699 77.0156543,50.657373 77.2676953,50.4916699 C77.818125,50.1336035 77.4022266,50.6811621 77.728916,50.0739258 C77.4467285,49.5263672 77.1339844,49.4308008 76.4502539,49.7045801 C76.1528906,49.8239355 75.36375,50.3837988 75.1998926,50.5144336 L75.1988672,50.5136133 L75.1988672,50.5136133 Z M69.1139941,50.8954688 L69.1139941,50.8954688 C68.6535937,50.2531641 68.6820996,49.930166 67.7898047,49.906582 C67.433584,50.2882324 67.0168652,50.859375 66.8236816,51.4430273 C66.5263184,52.3248633 66.7346777,51.7168066 66.7640039,52.670625 C66.7488281,52.7056934 66.7640039,52.7549121 66.7640039,52.7899805 C66.7488281,53.361123 66.6142969,52.6819043 66.7043262,53.2066992 C67.4042578,53.0627344 66.869209,53.0750391 67.3901074,52.9083105 C67.8808594,52.741582 69.3830566,52.2887695 69.8149512,52.3968457 C70.840752,52.6345313 71.7037207,53.4454102 72.864873,52.6345313 C72.8041699,51.5982715 71.554834,51.2051367 70.6920703,50.7515039 C70.7375977,49.7995313 70.9894336,50.549707 70.9297559,49.6319824 C70.6323926,49.6196777 70.4533594,49.5723047 70.1709668,49.6916602 C69.5013867,49.9890234 69.8736035,50.0733105 69.8736035,50.1803613 C69.9029297,50.6918262 70.5431836,50.0733105 69.8594531,50.7051563 C69.6662695,50.8708594 69.3527051,50.8708594 69.1150195,50.8954688 L69.1139941,50.8954688 L69.1139941,50.8954688 Z M51.7375195,43.6767188 L51.7375195,43.6767188 C51.7090137,45.3448242 52.2887695,44.7839355 52.8381738,45.6071191 C52.5861328,46.3099219 52.5408105,45.7623633 52.2594434,46.4879297 C52.006582,47.0959863 52.3180957,46.5486328 52.1542383,47.6074512 C52.5861328,47.6320605 53.2255664,47.4776367 53.7909668,47.4294434 C54.5950781,47.3574609 54.579082,47.2865039 54.8622949,46.4641406 C54.41625,45.916582 53.97,45.3682031 53.5087793,44.8206445 C52.9271777,43.9377832 53.5087793,44.5460449 53.3307715,43.8071484 C53.1972656,43.5448535 53.0768848,43.2841992 52.9585547,43.0208789 C52.1845898,43.2846094 52.2594434,43.212627 51.7375195,43.6767188 L51.7375195,43.6767188 Z" id="Shape" fill="#15BDB1"></path>
                                <path d="M81.1408008,40.7252344 L80.6908594,40.275293 L78.8361328,38.4205664 L78.3861914,37.970625 C76.9227539,38.5257715 75.090791,40.9249805 74.3680957,42.4386621 L74.5926562,42.664043 L76.4473828,44.5187695 L76.6727637,44.7441504 C78.1864453,44.0204297 80.5856543,42.1894922 81.1408008,40.7260547 L81.1408008,40.7252344 L81.1408008,40.7252344 Z" id="Shape" fill="#FBB429"></path>
                                <path d="M81.1408008,40.7252344 L80.6908594,40.275293 L78.8361328,38.4205664 L78.3861914,37.970625 C78.0480176,38.0994141 77.6917969,38.3258203 77.3318848,38.6166211 L80.4945996,41.7793359 C80.7854004,41.4202441 81.0118066,41.0632031 81.1405957,40.7260547 L81.1405957,40.7252344 L81.1408008,40.7252344 Z" id="Shape" fill="#FFFFFF"></path>
                                <path d="M84.246709,49.5446191 L83.7967676,49.0946777 L81.942041,47.2399512 L81.4920996,46.7900098 C80.0286621,47.3451563 78.1966992,49.7443652 77.4740039,51.2580469 L77.6993848,51.4834277 L79.5541113,53.3381543 L79.7794922,53.5635352 C81.2931738,52.8398145 83.6923828,51.008877 84.2475293,49.5446191 L84.246709,49.5446191 L84.246709,49.5446191 Z" id="Shape" fill="#FBB429"></path>
                                <path d="M84.246709,49.5446191 L83.7967676,49.0957031 L81.942041,47.2401562 L81.4920996,46.7912402 C81.1539258,46.919209 80.7977051,47.1454102 80.437793,47.4372363 L83.6005078,50.5999512 C83.8913086,50.2408594 84.1185352,49.8838184 84.2465039,49.5456445 L84.2465039,49.5446191 L84.246709,49.5446191 Z" id="Shape" fill="#FFFFFF"></path>
                                <path d="M58.925918,18.5103516 L59.3758594,18.960293 L61.2305859,20.8150195 L61.6805273,21.2649609 C61.1253809,22.7283984 58.7261719,24.5603613 57.2124902,25.283877 L56.9871094,25.0584961 L55.1323828,23.2037695 L54.907002,22.9783887 C55.6307227,21.4657324 57.4616602,19.065498 58.9250977,18.5103516 L58.925918,18.5103516 L58.925918,18.5103516 Z" id="Shape" fill="#FBB429"></path>
                                <path d="M58.925918,18.5103516 L59.3758594,18.960293 L61.2305859,20.8150195 L61.6805273,21.2649609 C61.5525586,21.6031348 61.3263574,21.9601758 61.0345313,22.3192676 L57.8716113,19.1563477 C58.2307031,18.8645215 58.5877441,18.6383203 58.925918,18.5103516 L58.925918,18.5103516 Z" id="Shape" fill="#FFFFFF"></path>
                                <path d="M50.1063281,15.4054687 L50.5562695,15.8554102 L52.4109961,17.7101367 L52.8609375,18.1600781 C52.305791,19.6235156 49.906582,21.4554785 48.3929004,22.1781738 L48.1675195,21.952793 L46.312793,20.0980664 L46.0874121,19.8726855 C46.8111328,18.3600293 48.6420703,15.9597949 50.1055078,15.4046484 L50.1063281,15.4054687 L50.1063281,15.4054687 Z" id="Shape" fill="#FBB429"></path>
                                <g id="Group" transform="translate(33.222656, 13.945312)" fill="#FFFFFF">
                                    <path d="M16.8836719,1.46015625 L17.3336133,1.91009766 L19.1891602,3.76482422 L19.6380762,4.21476563 C19.5101074,4.55293945 19.2839062,4.90998047 18.9931055,5.26907227 L15.8295703,2.10615234 C16.188457,1.81432617 16.545498,1.58791992 16.8836719,1.46015625 L16.8836719,1.46015625 Z" id="Shape"></path>
                                    <path d="M10.2959473,43.2716895 L15.7376953,51.0084668 L17.4730664,48.9103125 L14.3936133,40.7746582 C14.7799805,40.4412012 14.0535938,41.102373 15.6429492,39.6721582 C17.2323047,38.2419434 24.2162402,31.8217676 30.5416699,26.6792285 L48.759375,52.4319141 L50.4207129,50.7705762 L40.3509668,18.6725684 C44.4666797,15.2797559 47.6511328,12.5735449 48.5091797,11.5930664 C51.1319238,8.59605469 53.5046777,4.59887695 51.6321094,0.852714844 C47.8849219,-1.02087891 43.8887695,1.35290039 40.8917578,3.97461914 C39.910459,4.83287109 37.2052734,8.01732422 33.8122559,12.132832 L1.71424805,2.06349609 L0.0529101563,3.72483398 L25.8047754,21.9425391 C20.6632617,28.2689941 14.2422656,35.2516992 12.8128711,36.8412598 C11.3816309,38.4306152 12.0438281,37.7042285 11.7103711,38.0905957 L3.5747168,35.0111426 L1.4765625,36.7465137 L9.21333984,42.1882617 C8.37313477,43.6336523 8.85158203,44.1120996 10.2969727,43.2718945 L10.2959473,43.2718945 L10.2959473,43.2716895 Z" id="Shape"></path>
                                </g>
                                <g id="Group" transform="translate(33.222656, 17.021484)" fill="#C8CACC">
                                    <polygon id="Shape" points="10.2959473 40.1955176 15.7376953 47.9322949 16.1562598 47.4265723 10.8812402 39.7921289 10.2967676 40.1957227 10.2959473 40.1957227"></polygon>
                                    <polygon id="Shape" points="1.98125977 33.2515723 1.47553711 33.6703418 9.21231445 39.1120898 9.6159082 38.5276172 1.98043945 33.2515723"></polygon>
                                    <polygon id="Shape" points="30.5424902 23.6024414 48.7601953 49.355127 49.4004492 48.7138477 31.6185352 22.7242969"></polygon>
                                    <polygon id="Shape" points="0.692138672 0.0073828125 0.0518847656 0.648662109 25.80375 18.8663672 26.6818945 17.7903223 0.691113281 0.00840820313"></polygon>
                                </g>
                                <path d="M83.2889941,16.3621582 C82.9204687,15.9936328 82.4744238,15.734209 81.9789551,15.5797852 L81.6787207,16.4181445 C81.9912598,16.6047656 82.2849316,16.8319922 82.5529687,17.099209 C82.8199805,17.3672461 83.0474121,17.660918 83.2340332,17.9726367 L84.0723926,17.6724023 C83.9179687,17.177959 83.6585449,16.7319141 83.2900195,16.3623633 L83.2889941,16.3623633 L83.2889941,16.3621582 Z M81.309375,15.437666 L81.309375,15.437666 C80.5450488,15.345791 79.7066895,15.4661719 78.875918,15.7852734 C79.624248,15.7227246 80.3762695,15.8316211 81.0667676,16.1129883 L81.309375,15.437666 L81.309375,15.437666 Z M83.5391895,18.5852051 L83.5391895,18.5852051 C83.821377,19.2757031 83.9294531,20.0269043 83.8669043,20.7760547 C84.1870312,19.9452832 84.3063867,19.1071289 84.2145117,18.3425977 L83.5391895,18.5852051 L83.5391895,18.5852051 Z" id="Shape" fill="#15BDB1"></path>
                                <path d="M37.9082812,62.2600781 L37.9148437,62.2535156 L38.0247656,62.1474902 L38.1336621,62.0422852 L38.2444043,61.9352344 L38.3551465,61.8281836 L38.4658887,61.7211328 L38.5776562,61.6130566 L38.6894238,61.5049805 L38.8022168,61.3969043 L38.9158301,61.2880078 L39.028623,61.1791113 L39.1422363,61.0691895 L39.2558496,60.9584473 L39.3704883,60.8477051 L39.485127,60.7359375 L39.6005859,60.6241699 L39.7170703,60.5124023 L39.8335547,60.3996094 L39.9500391,60.2868164 L40.0675488,60.1732031 L40.1850586,60.0585645 L40.3033887,59.9439258 L40.4217188,59.8292871 L40.5400488,59.713623 L40.6594043,59.5971387 L40.7787598,59.4806543 L40.8991406,59.3631445 L41.0195215,59.2456348 L41.1407227,59.1273047 L41.2619238,59.0079492 L41.383125,58.8885938 L40.705957,58.1991211 L40.5847559,58.3174512 L40.464375,58.4357813 L40.3439941,58.553291 L40.2236133,58.6716211 L40.1042578,58.7881055 L39.9859277,58.9045898 L39.8675977,59.0202539 L39.7492676,59.1357129 L39.6317578,59.2503516 L39.514248,59.3639648 L39.3967383,59.4775781 L39.2802539,59.5911914 L39.1637695,59.7039844 L39.0472852,59.8167773 L38.9318262,59.9285449 L38.8163672,60.0403125 L38.7017285,60.1510547 L38.5870898,60.2609766 L38.4734766,60.3717188 L38.3598633,60.4816406 L38.24625,60.5905371 L38.133457,60.6994336 L38.0206641,60.8075098 L37.9088965,60.9155859 L37.7971289,61.0226367 L37.6853613,61.1296875 L37.5746191,61.2367383 L37.4646973,61.3427637 L37.3547754,61.4498145 L37.2448535,61.5550195 L37.238291,61.561582 L37.9088965,62.2578223 L37.9082812,62.2600781 L37.9082812,62.2600781 Z M92.063877,61.8612012 L92.063877,61.8612012 L91.9492383,62.1606152 L91.8345996,62.4561328 L91.7199609,62.7469336 L91.6053223,63.0330176 L91.4898633,63.3152051 L91.3741992,63.5926758 L91.2587402,63.8664551 L91.1432812,64.1355176 L91.0276172,64.4006836 L90.9111328,64.6611328 L90.7956738,64.9187109 L90.6791895,65.1715723 L90.5627051,65.4197168 L90.4462207,65.6641699 L90.4404785,65.6754492 L91.3089844,66.1007813 L91.3175977,66.0837598 L91.4369531,65.8327441 L91.5563086,65.5780371 L91.6746387,65.3194336 L91.7939941,65.0571387 L91.9123242,64.7909473 L92.0306543,64.5200391 L92.1489844,64.2454395 L92.2664941,63.965918 L92.3840039,63.6837305 L92.502334,63.3958008 L92.6188184,63.1039746 L92.7363281,62.808457 L92.8528125,62.5082227 L92.9692969,62.2032715 L92.0657227,61.8603809 L92.063877,61.8612012 L92.063877,61.8612012 Z M89.0925,68.1981152 L89.0925,68.1981152 L89.0328223,68.2965527 L88.9144922,68.491582 L88.7961621,68.6829199 L88.677832,68.8713867 L88.5584766,69.0551367 L88.4391211,69.2351953 L88.3197656,69.4123828 L88.2004102,69.5856738 L88.0810547,69.7560938 L87.9616992,69.9228223 L87.8423437,70.0866797 L87.7219629,70.2468457 L87.6026074,70.4041406 L87.4822266,70.5575391 L87.3618457,70.7080664 L87.2406445,70.8559277 L87.1202637,70.9998926 L86.9998828,71.1409863 L86.879502,71.2783887 L86.7583008,71.4137402 L86.6379199,71.5454004 L86.5167187,71.6741895 L86.3955176,71.8001074 L86.2743164,71.9231543 L86.2533984,71.9440723 L86.9305664,72.6345703 L86.9598926,72.6052441 L87.089707,72.473584 L87.2184961,72.3390527 L87.3472852,72.2016504 L87.4760742,72.061377 L87.604043,71.9184375 L87.7320117,71.772627 L87.8589551,71.6229199 L87.9858984,71.4703418 L88.1128418,71.3140723 L88.2397852,71.155957 L88.3657031,70.9939453 L88.4916211,70.8290625 L88.6175391,70.6613086 L88.7426367,70.4898633 L88.8677344,70.3147266 L88.992832,70.1367188 L89.1169043,69.9548145 L89.242002,69.7700391 L89.3650488,69.5815723 L89.4891211,69.3902344 L89.612168,69.1952051 L89.7362402,68.9962793 L89.8592871,68.7936621 L89.9179395,68.6941992 L89.0892188,68.1960645 L89.0925,68.1981152 L89.0925,68.1981152 Z M84.0781348,73.6825195 L84.0781348,73.6825195 L84.0752637,73.6843652 L83.9511914,73.7592188 L83.8271191,73.8322266 L83.7030469,73.9023633 L83.5789746,73.9706543 L83.453877,74.0368945 L83.3298047,74.1002637 L83.204707,74.1628125 L83.0796094,74.2224902 L82.9545117,74.2803223 L82.8294141,74.3363086 L82.7034961,74.3902441 L82.5775781,74.442334 L82.4516602,74.4925781 L82.3257422,74.5417969 L82.1987988,74.5881445 L82.0718555,74.6336719 L81.9449121,74.6771484 L81.8179687,74.7187793 L81.69,74.7595898 L81.5620312,74.7975293 L81.4332422,74.8344434 L81.3052734,74.8705371 L81.1764844,74.9037598 L81.0476953,74.935957 L80.9178809,74.9663086 L80.7880664,74.9956348 L80.658252,75.0231152 L80.5276172,75.0495703 L80.3969824,75.0741797 L80.2663477,75.0977637 L80.1346875,75.1205273 L80.0030273,75.1414453 L79.8713672,75.1613379 L79.7386816,75.1802051 L79.7310937,75.1812305 L79.8541406,76.140791 L79.8703418,76.1379199 L80.0124609,76.1180273 L80.1535547,76.0971094 L80.2938281,76.0743457 L80.4349219,76.0507617 L80.5760156,76.025127 L80.7171094,75.9986719 L80.8573828,75.970166 L80.9976562,75.9398145 L81.1369043,75.9086426 L81.2771777,75.8754199 L81.4174512,75.8403516 L81.5577246,75.8034375 L81.697998,75.765498 L81.8362207,75.7257129 L81.9754687,75.684082 L82.1136914,75.6406055 L82.2519141,75.5950781 L82.3911621,75.5477051 L82.5293848,75.4984863 L82.6667871,75.4474219 L82.8050098,75.3943066 L82.9424121,75.3393457 L83.0798145,75.2825391 L83.2172168,75.2228613 L83.3546191,75.1613379 L83.4909961,75.0979688 L83.627373,75.0325488 L83.76375,74.9652832 L83.900127,74.8951465 L84.0365039,74.8231641 L84.1718555,74.7483105 L84.307207,74.6716113 L84.4425586,74.5930664 L84.5770898,74.5116504 L84.5799609,74.5098047 L84.0750586,73.6858008 L84.0781348,73.6825195 L84.0781348,73.6825195 Z M76.902041,75.342832 L76.902041,75.342832 L76.8858398,75.342832 L76.7465918,75.3418066 L76.6063184,75.3399609 L76.4660449,75.3381152 L76.3249512,75.3352441 L76.1838574,75.332373 L76.0427637,75.3286816 L75.9006445,75.3249902 L75.7585254,75.3202734 L75.6155859,75.3155566 L75.4726465,75.3108398 L75.329707,75.306123 L75.1867676,75.3003809 L75.0428027,75.2946387 L74.8978125,75.2899219 L74.7528223,75.2841797 L74.607832,75.2784375 L74.4628418,75.271875 L74.3178516,75.2661328 L74.172041,75.2603906 L74.0262305,75.2546484 L73.8793945,75.2489063 L73.7325586,75.2431641 L73.5857227,75.2374219 L73.4378613,75.2316797 L73.29,75.2259375 L73.1413184,75.2201953 L72.9926367,75.2154785 L72.8439551,75.2107617 L72.694248,75.2060449 L72.544541,75.2013281 L72.394834,75.1976367 L72.2443066,75.1939453 L72.0937793,75.1910742 L72.0786035,75.1900488 L72.061582,76.1571973 L72.0749121,76.1571973 L72.2227734,76.1600684 L72.3706348,76.1637598 L72.5184961,76.1674512 L72.665332,76.172168 L72.8131934,76.1768848 L72.9610547,76.1816016 L73.1078906,76.1863184 L73.2547266,76.1920605 L73.4015625,76.1978027 L73.5483984,76.2035449 L73.694209,76.2092871 L73.8400195,76.2150293 L73.9858301,76.2207715 L74.1316406,76.2265137 L74.2774512,76.2322559 L74.4232617,76.237998 L74.5690723,76.2437402 L74.7148828,76.2494824 L74.8606934,76.2552246 L75.0056836,76.2609668 L75.1506738,76.266709 L75.2964844,76.2724512 L75.4404492,76.277168 L75.5854395,76.2818848 L75.7304297,76.2866016 L75.8754199,76.290293 L76.0204102,76.2939844 L76.1654004,76.2976758 L76.3093652,76.3005469 L76.4533301,76.303418 L76.5972949,76.3052637 L76.7412598,76.3071094 L76.8852246,76.3081348 L76.9014258,76.3081348 L76.9051172,75.3409863 L76.902041,75.342832 L76.902041,75.342832 Z M69.1310156,75.2566992 L69.1310156,75.2566992 L69.005918,75.2661328 L68.848623,75.2794629 L68.6894824,75.2936133 L68.5321875,75.3087891 L68.3730469,75.3249902 L68.2139062,75.3430371 L68.0547656,75.3619043 L67.895625,75.3817969 L67.735459,75.4027148 L67.575293,75.4262988 L67.4143066,75.4509082 L67.2533203,75.4773633 L67.092334,75.5038184 L66.9313477,75.5331445 L66.7693359,75.5634961 L66.6073242,75.594668 L66.4444922,75.6278906 L66.2816602,75.662959 L66.1188281,75.699873 L65.9549707,75.7386328 L65.7911133,75.7794434 L65.6262305,75.8210742 L65.462373,75.8637305 L65.2974902,75.9092578 L65.1326074,75.9566309 L64.9677246,76.0058496 L64.8020215,76.0569141 L64.6363184,76.1100293 L64.4695898,76.1649902 L64.3028613,76.2228223 L64.281123,76.2304102 L64.6088379,77.140752 L64.622168,77.1360352 L64.7794629,77.0820996 L64.9357324,77.0310352 L65.092002,76.980791 L65.2482715,76.9323926 L65.404541,76.8868652 L65.5608105,76.8413379 L65.7160547,76.7986816 L65.8712988,76.7570508 L66.026543,76.7172656 L66.1817871,76.6793262 L66.3362109,76.6424121 L66.4906348,76.6083691 L66.6450586,76.5751465 L66.798457,76.5439746 L66.9518555,76.513623 L67.1062793,76.4851172 L67.2596777,76.4586621 L67.4130762,76.432207 L67.5664746,76.4075977 L67.7190527,76.384834 L67.8724512,76.3630957 L68.0250293,76.3421777 L68.1776074,76.3233105 L68.3301855,76.3052637 L68.4817383,76.2882422 L68.633291,76.272041 L68.7858691,76.2568652 L68.9363965,76.2435352 L69.0879492,76.2312305 L69.2130469,76.2217969 L69.137168,75.2575195 L69.1310156,75.2566992 L69.1310156,75.2566992 Z M61.5628125,77.4569824 L61.5628125,77.4569824 L61.4340234,77.5289648 L61.2625781,77.6274023 L61.0911328,77.7287109 L60.9196875,77.8318652 L60.7472168,77.938916 L60.5757715,78.0478125 L60.4033008,78.1595801 L60.2318555,78.2731934 L60.0593848,78.3907031 L59.8869141,78.5100586 L59.713623,78.6331055 L59.540332,78.7590234 L59.3678613,78.8878125 L59.1945703,79.0184473 L59.0212793,79.1529785 L58.8479883,79.2903809 L58.6736719,79.4306543 L58.4993555,79.5735938 L58.3250391,79.7194043 L58.1499023,79.8680859 L57.9747656,80.0214844 L57.8004492,80.1767285 L57.6253125,80.3348438 L57.5818359,80.3756543 L58.2411621,81.0831738 L58.2780762,81.0499512 L58.4466504,80.8965527 L58.6152246,80.7468457 L58.7829785,80.6010352 L58.9507324,80.4580957 L59.1174609,80.3178223 L59.2852148,80.1804199 L59.450918,80.0458887 L59.6176465,79.9152539 L59.7833496,79.7872852 L59.9490527,79.6613672 L60.1147559,79.5383203 L60.2796387,79.4189648 L60.4445215,79.3024805 L60.6094043,79.1878418 L60.7732617,79.0770996 L60.9371191,78.9682031 L61.1009766,78.8621777 L61.264834,78.7590234 L61.427666,78.6585352 L61.590498,78.5600977 L61.7525098,78.4645313 L61.9145215,78.3708105 L62.0433105,78.2988281 L61.5650684,77.4578027 L61.5628125,77.4569824 L61.5628125,77.4569824 Z M55.5216211,82.4809863 L55.5216211,82.4809863 L55.5045996,82.4990332 L55.3265918,82.7016504 L55.1533008,82.9005762 L54.9800098,83.0966309 L54.8067187,83.2908398 L54.634248,83.4821777 L54.4617773,83.6716699 L54.2893066,83.858291 L54.1178613,84.042041 L53.946416,84.2239453 L53.7759961,84.4040039 L53.6055762,84.5811914 L53.4351562,84.7563281 L53.2655566,84.9287988 L53.095957,85.0992188 L52.9263574,85.2669727 L52.7577832,85.4326758 L52.589209,85.5965332 L52.4214551,85.7575195 L52.2537012,85.9166602 L52.2215039,85.9459863 L52.8798047,86.6535059 L52.9158984,86.6202832 L53.0883691,86.4574512 L53.2608398,86.2925684 L53.4333105,86.1258398 L53.6057812,85.9562402 L53.7790723,85.7837695 L53.9523633,85.6094531 L54.1256543,85.4322656 L54.2999707,85.2542578 L54.4742871,85.0733789 L54.6494238,84.8906543 L54.8237402,84.7050586 L54.998877,84.5165918 L55.1740137,84.3262793 L55.3501758,84.133916 L55.5263379,83.9388867 L55.7025,83.7409863 L55.8796875,83.5410352 L56.056875,83.3392383 L56.2293457,83.1421582 L56.2463672,83.1241113 L55.5226465,82.482832 L55.5216211,82.4809863 L55.5216211,82.4809863 Z M50.0571094,87.816709 L50.0571094,87.816709 L49.940625,87.908584 L49.7796387,88.034502 L49.617627,88.1585742 L49.4566406,88.2808008 L49.2956543,88.4011816 L49.1354883,88.5195117 L48.9763477,88.6349707 L48.817207,88.748584 L48.6580664,88.8603516 L48.4999512,88.9702734 L48.3418359,89.0783496 L48.1837207,89.184375 L48.0264258,89.2885547 L47.8701562,89.3908887 L47.7138867,89.4903516 L47.5576172,89.5879688 L47.402373,89.6845605 L47.2471289,89.7782813 L47.0918848,89.8701563 L46.9384863,89.9601855 L46.7850879,90.0483691 L46.6316895,90.134502 L46.4791113,90.2198145 L46.3265332,90.3022559 L46.1749805,90.3828516 L46.1019727,90.420791 L46.5453516,91.2808887 L46.6259473,91.2392578 L46.7850879,91.1539453 L46.9442285,91.0678125 L47.1033691,90.9796289 L47.2635352,90.8887793 L47.4237012,90.7969043 L47.5838672,90.7031836 L47.7448535,90.6065918 L47.9058398,90.5089746 L48.0678516,90.4095117 L48.2298633,90.3071777 L48.3926953,90.2040234 L48.5555273,90.097998 L48.7183594,89.9899219 L48.8822168,89.88 L49.0460742,89.7682324 L49.210957,89.6546191 L49.3758398,89.5389551 L49.5407227,89.420625 L49.7064258,89.3002441 L49.8721289,89.1780176 L50.037832,89.0539453 L50.2045605,88.9280273 L50.3723145,88.7992383 L50.539043,88.6686035 L50.654502,88.5767285 L50.0569043,87.8160938 L50.0571094,87.816709 L50.0571094,87.816709 Z M43.5099902,91.5306738 L43.5099902,91.5306738 L43.3830469,91.5723047 L43.2409277,91.617832 L43.0988086,91.6613086 L42.9577148,91.7039648 L42.8174414,91.7447754 L42.677168,91.7835352 L42.5379199,91.8204492 L42.3986719,91.856543 L42.2604492,91.8905859 L42.1230469,91.9227832 L41.9856445,91.9531348 L41.8482422,91.9824609 L41.7118652,92.0099414 L41.5765137,92.0363965 L41.4411621,92.0610059 L41.3058105,92.0845898 L41.1723047,92.1063281 L41.0387988,92.1262207 L40.905293,92.1450879 L40.7726074,92.1621094 L40.6409473,92.1783105 L40.5092871,92.1924609 L40.3786523,92.205791 L40.2480176,92.2170703 L40.1173828,92.2265039 L39.9885937,92.2351172 L39.8598047,92.2416797 L39.7310156,92.2474219 L39.6030469,92.2521387 L39.4761035,92.2550098 L39.3501855,92.2568555 L39.2242676,92.2568555 L39.0983496,92.2558301 L38.9742773,92.2539844 L38.9258789,92.2521387 L38.8908105,93.2182617 L38.9504883,93.2201074 L39.0858398,93.2229785 L39.2211914,93.2240039 L39.3575684,93.2240039 L39.4949707,93.2221582 L39.632373,93.2184668 L39.7697754,93.21375 L39.907998,93.2080078 L40.0482715,93.1993945 L40.1875195,93.1899609 L40.327793,93.179502 L40.4680664,93.1671973 L40.6091602,93.1538672 L40.7512793,93.137666 L40.8933984,93.1206445 L41.0363379,93.1017773 L41.178457,93.0818848 L41.3224219,93.0609668 L41.4663867,93.0373828 L41.611377,93.011748 L41.7563672,92.9861133 L41.9021777,92.9576074 L42.0479883,92.9282813 L42.1937988,92.8971094 L42.3406348,92.8638867 L42.4884961,92.8288184 L42.6363574,92.7927246 L42.7842187,92.7547852 L42.9329004,92.715 L43.0826074,92.6733691 L43.2323145,92.6298926 L43.3820215,92.5853906 L43.5325488,92.539043 L43.6830762,92.4906445 L43.8100195,92.4490137 L43.5116309,91.5292383 L43.5099902,91.5306738 L43.5099902,91.5306738 Z M36.1823438,91.8309082 L36.1823438,91.8309082 L36.1349707,91.8175781 L36.0242285,91.7853809 L35.9143066,91.7513379 L35.8035645,91.7162695 L35.6936426,91.6801758 L35.5837207,91.6422363 L35.4748242,91.6042969 L35.3677734,91.5655371 L35.2596973,91.5247266 L35.1526465,91.4830957 L35.0466211,91.4404395 L34.9405957,91.3969629 L34.8353906,91.3524609 L34.7312109,91.3069336 L34.6270313,91.2605859 L34.523877,91.2121875 L34.421543,91.1637891 L34.319209,91.1145703 L34.216875,91.0643262 L34.1163867,91.0132617 L34.0169238,90.9611719 L33.9164355,90.9072363 L33.8169727,90.8533008 L33.7185352,90.7975195 L33.620918,90.7415332 L33.5233008,90.6847266 L33.4256836,90.6260742 L33.3301172,90.5674219 L33.2343457,90.5077441 L33.1395996,90.447041 L33.0448535,90.3855176 L32.9511328,90.3229688 L32.8574121,90.2604199 L32.7655371,90.1960254 L32.6736621,90.1316309 L32.5817871,90.0653906 L32.4909375,89.9991504 L32.4009082,89.9318848 L32.3119043,89.8635938 L32.2229004,89.7953027 L32.1347168,89.7261914 L32.0949316,89.6939941 L31.4858496,90.4451953 L31.531377,90.4821094 L31.626123,90.5569629 L31.7216895,90.630791 L31.8174609,90.7037988 L31.9150781,90.7768066 L32.0126953,90.8487891 L32.1111328,90.9189258 L32.2105957,90.9890625 L32.311084,91.0581738 L32.4115723,91.1254395 L32.5128809,91.1927051 L32.6152148,91.2589453 L32.7175488,91.3243652 L32.8207031,91.3897852 L32.9248828,91.4531543 L33.0290625,91.5157031 L33.1350879,91.5772266 L33.2411133,91.6379297 L33.3481641,91.6976074 L33.4562402,91.7562598 L33.5643164,91.8140918 L33.6732129,91.8708984 L33.7831348,91.9266797 L33.8930566,91.9806152 L34.0037988,92.0345508 L34.1155664,92.087666 L34.227334,92.1387305 L34.340127,92.1889746 L34.4537402,92.2381934 L34.5683789,92.2865918 L34.6819922,92.3339648 L34.7974512,92.3803125 L34.9139355,92.4258398 L35.0304199,92.4693164 L35.1479297,92.512793 L35.2662598,92.5544238 L35.3845898,92.5952344 L35.5039453,92.6339941 L35.6243262,92.6719336 L35.744707,92.7088477 L35.8659082,92.7449414 L35.9132812,92.7582715 L36.1823438,91.8290625 L36.1823438,91.8309082 L36.1823438,91.8309082 Z M30.1126465,87.7238086 L30.1126465,87.7238086 L30.0728613,87.6745898 L30.0027246,87.5874316 L29.9325879,87.5002734 L29.8642969,87.4120898 L29.7960059,87.3230859 L29.7287402,87.234082 L29.6625,87.1450781 L29.5962598,87.0550488 L29.5308398,86.9641992 L29.4664453,86.8733496 L29.4020508,86.7825 L29.339502,86.690625 L29.2769531,86.59875 L29.2154297,86.5058496 L29.1547266,86.4129492 L29.0940234,86.3192285 L29.0353711,86.2255078 L28.9767187,86.1307617 L28.9188867,86.0360156 L28.8620801,85.9412695 L28.8052734,85.8457031 L28.7492871,85.7501367 L28.6943262,85.6535449 L28.6403906,85.5579785 L28.5872754,85.4613867 L28.5341602,85.3637695 L28.4820703,85.2671777 L28.4310059,85.1695605 L28.3799414,85.0719434 L28.3307227,84.9735059 L28.2815039,84.8758887 L28.2331055,84.7774512 L28.1857324,84.6779883 L28.1393848,84.5785254 L28.0938574,84.4790625 L28.0493555,84.3795996 L28.0048535,84.2801367 L27.961377,84.1806738 L27.9187207,84.0801855 L27.8770898,83.9807227 L27.8362793,83.8802344 L27.7954687,83.7797461 L27.7622461,83.695459 L26.861543,84.0449121 L26.8976367,84.1367871 L26.940293,84.2438379 L26.9837695,84.3508887 L27.0282715,84.4579395 L27.0737988,84.5639648 L27.1193262,84.6699902 L27.1666992,84.777041 L27.2150977,84.8830664 L27.2643164,84.9890918 L27.3135352,85.0942969 L27.3637793,85.199502 L27.4148437,85.304707 L27.4669336,85.4099121 L27.5200488,85.5140918 L27.5731641,85.6182715 L27.6270996,85.7214258 L27.6830859,85.8245801 L27.7390723,85.9269141 L27.7958789,86.0300684 L27.8537109,86.1324023 L27.9123633,86.2347363 L27.972041,86.3360449 L28.0317187,86.4373535 L28.0932422,86.5386621 L28.1547656,86.6391504 L28.2162891,86.7386133 L28.2796582,86.8391016 L28.3430273,86.9385645 L28.4074219,87.0380273 L28.4728418,87.1364648 L28.539082,87.234082 L28.6063477,87.3316992 L28.6746387,87.4293164 L28.7429297,87.5259082 L28.8130664,87.6225 L28.8832031,87.7182715 L28.9541602,87.8138379 L29.0261426,87.908584 L29.098125,88.0033301 L29.1711328,88.0970508 L29.2449609,88.1907715 L29.3198145,88.2844922 L29.360625,88.3337109 L30.1108008,87.7238086 L30.1126465,87.7238086 L30.1126465,87.7238086 Z M26.9964844,80.9968359 L26.9964844,80.9968359 C26.7169629,79.4624414 26.6716406,77.9155371 27.0087891,76.3858594 L26.0644043,76.1775 C25.6950586,77.8095117 25.746123,79.5333984 26.0455371,81.1711523 L26.9964844,80.9960156 L26.9964844,80.9968359 L26.9964844,80.9968359 Z M27.9256934,73.7610645 L27.9256934,73.7610645 C28.5821484,72.3677637 29.5587305,71.027373 30.5305957,69.8387402 L29.7851367,69.2230957 C28.7697949,70.449668 27.7364062,71.896084 27.0561621,73.3388086 L27.9256934,73.7610645 L27.9256934,73.7610645 Z M32.4324902,67.6903418 L32.4324902,67.6903418 L32.4390527,67.6837793 L32.5214941,67.5966211 L32.6039355,67.5094629 L32.6871973,67.4223047 L32.7714844,67.3341211 L32.8557715,67.2459375 L32.9400586,67.1577539 L33.0253711,67.0695703 L33.1115039,66.9805664 L33.1976367,66.8915625 L33.2837695,66.8025586 L33.3709277,66.7135547 L33.4591113,66.6235254 L33.5472949,66.5334961 L33.6362988,66.4434668 L33.7253027,66.3534375 L33.815332,66.2625879 L33.9061816,66.1707129 L33.9970312,66.0788379 L34.0878809,65.9879883 L34.1797559,65.8961133 L34.2716309,65.8042383 L34.3653516,65.7113379 L34.4590723,65.6184375 L34.552793,65.5255371 L34.6475391,65.4318164 L34.7422852,65.3380957 L34.8378516,65.244375 L34.933623,65.1496289 L35.0302148,65.0548828 L35.1268066,64.9601367 L35.2244238,64.8645703 L35.322041,64.7690039 L35.4204785,64.6734375 L35.518916,64.5768457 L35.6183789,64.4802539 L35.7178418,64.3836621 L35.8183301,64.2860449 L35.8248926,64.2803027 L35.1503906,63.5869336 L35.1438281,63.5934961 L35.0433398,63.6911133 L34.9428516,63.7887305 L34.8433887,63.8853223 L34.7439258,63.9829395 L34.6454883,64.0785059 L34.5470508,64.1750977 L34.4494336,64.2706641 L34.3518164,64.3662305 L34.2552246,64.4617969 L34.1586328,64.556543 L34.062041,64.6512891 L33.9662695,64.7460352 L33.8715234,64.8397559 L33.7767773,64.934502 L33.6830566,65.0282227 L33.5893359,65.121123 L33.4956152,65.2148438 L33.4037402,65.3077441 L33.3118652,65.3996191 L33.2199902,65.4925195 L33.1291406,65.5843945 L33.038291,65.6762695 L32.9482617,65.7681445 L32.8582324,65.8589941 L32.7692285,65.9498437 L32.6802246,66.0406934 L32.5912207,66.131543 L32.5030371,66.2215723 L32.4158789,66.3116016 L32.3287207,66.4016309 L32.2425879,66.4916602 L32.1564551,66.5816895 L32.0711426,66.6706934 L31.9868555,66.758877 L31.901543,66.8478809 L31.8172559,66.9368848 L31.7339941,67.0250684 L31.7274316,67.0326563 L32.4320801,67.6948535 L32.4320801,67.6903418 L32.4324902,67.6903418 Z" id="Shape" fill="#FFFFFF"></path>
                            </g>
                        </g>
                    </g>
                </g>
            </g>
        </g>
    </g>
</svg>