<?xml version="1.0" encoding="UTF-8" standalone="no"?>
<svg width="8px" height="5px" viewBox="0 0 8 5" version="1.1" xmlns="http://www.w3.org/2000/svg" xmlns:xlink="http://www.w3.org/1999/xlink">
    <!-- Generator: Sketch 39.1 (31720) - http://www.bohemiancoding.com/sketch -->
    <title>angle-arrow-down</title>
    <desc>Created with Sketch.</desc>
    <defs></defs>
    <g id="Symbols" stroke="none" stroke-width="1" fill="none" fill-rule="evenodd">
        <g id="header" transform="translate(-1298.000000, -25.000000)" fill="#34495E">
            <g id="angle-arrow-down">
                <g transform="translate(1298.000000, 25.000000)">
                    <g id="Capa_1">
                        <path d="M7.91809123,0.524281437 L7.51741754,0.0969461078 C7.46402807,0.0398802395 7.40252632,0.0114371257 7.33299649,0.0114371257 C7.26363509,0.0114371257 7.2021614,0.0398802395 7.14877193,0.0969461078 L3.99904561,3.45631737 L0.849459649,0.0970359281 C0.796042105,0.0399700599 0.734568421,0.0115269461 0.665122807,0.0115269461 C0.595649123,0.0115269461 0.534175439,0.0399700599 0.480785965,0.0970359281 L0.0801684211,0.524401198 C0.0266666667,0.581347305 0,0.646916168 0,0.721017964 C0,0.79505988 0.0267508772,0.860628743 0.0801684211,0.91757485 L3.81470877,4.90098802 C3.86809825,4.95796407 3.9296,4.98643713 3.99904561,4.98643713 C4.06849123,4.98643713 4.1298807,4.95796407 4.18324211,4.90098802 L7.91809123,0.91757485 C7.9714807,0.860598802 7.99800702,0.79502994 7.99800702,0.721017964 C7.99800702,0.646916168 7.9714807,0.581347305 7.91809123,0.524281437 L7.91809123,0.524281437 Z" id="Shape"></path>
                    </g>
                </g>
            </g>
        </g>
    </g>
</svg>