<?xml version="1.0" encoding="UTF-8" standalone="no"?>
<svg width="40px" height="49px" viewBox="0 0 40 49" version="1.1" xmlns="http://www.w3.org/2000/svg" xmlns:xlink="http://www.w3.org/1999/xlink">
    <!-- Generator: Sketch 39.1 (31720) - http://www.bohemiancoding.com/sketch -->
    <title>upload</title>
    <desc>Created with Sketch.</desc>
    <defs></defs>
    <g id="формы" stroke="none" stroke-width="1" fill="none" fill-rule="evenodd" opacity="0.703941231">
        <g id="polis812_osago_step2_upload" transform="translate(-351.000000, -773.000000)" fill="#303030">
            <g id="visa" transform="translate(132.000000, 258.000000)">
                <g id="FILES" transform="translate(103.000000, 290.000000)">
                    <g id="file-copy" transform="translate(97.000000, 182.000000)">
                        <g id="upload" transform="translate(19.000000, 43.000000)">
                            <g id="Capa_1">
                                <g id="Group">
                                    <g transform="translate(12.714286, 17.647059)" id="Shape">
                                        <path d="M7.26735714,18.8029412 L7.26735714,18.8029412 C6.86321429,18.8029412 6.53521429,18.4735294 6.53521429,18.0676471 L6.53667857,1.48088235 C6.53667857,1.075 6.86467857,0.745588235 7.26882143,0.745588235 L7.26882143,0.745588235 C7.67296429,0.745588235 8.00096429,1.075 8.00096429,1.48088235 L7.9995,18.0676471 C7.9995,18.4735294 7.6715,18.8029412 7.26735714,18.8029412 L7.26735714,18.8029412 Z"></path>
                                        <path d="M13.5828214,8.55735294 C13.3953929,8.55735294 13.2079643,8.48529412 13.0644643,8.34264706 L7.26735714,2.52058824 L1.47025,8.34264706 C1.18471429,8.62941176 0.720535714,8.62941176 0.435,8.34264706 C0.149464286,8.05588235 0.149464286,7.58970588 0.435,7.30294118 L6.75046429,0.960294118 C7.036,0.673529412 7.50017857,0.673529412 7.78571429,0.960294118 L14.1011786,7.30294118 C14.3867143,7.58970588 14.3867143,8.05588235 14.1011786,8.34264706 C13.9576786,8.48529412 13.77025,8.55735294 13.5828214,8.55735294 L13.5828214,8.55735294 Z"></path>
                                    </g>
                                    <g id="Shape">
                                        <path d="M35.9892143,48.9602941 L3.97553571,48.9602941 C1.95775,48.9602941 0.314821429,47.3117647 0.314821429,45.2838235 L0.314821429,3.67647059 C0.314821429,1.64852941 1.95775,0 3.97553571,0 L27.224,0 C27.6281429,0 27.9561429,0.329411765 27.9561429,0.735294118 C27.9561429,1.14117647 27.6281429,1.47058824 27.224,1.47058824 L3.97553571,1.47058824 C2.76457143,1.47058824 1.77910714,2.46029412 1.77910714,3.67647059 L1.77910714,45.2838235 C1.77910714,46.5 2.76457143,47.4897059 3.97553571,47.4897059 L35.9892143,47.4897059 C37.2001786,47.4897059 38.1856429,46.5 38.1856429,45.2838235 L38.1856429,12.8 C38.1856429,12.3941176 38.5136429,12.0647059 38.9177857,12.0647059 C39.3219286,12.0647059 39.6499286,12.3941176 39.6499286,12.8 L39.6499286,45.2852941 C39.6499286,47.3117647 38.0084643,48.9602941 35.9892143,48.9602941 L35.9892143,48.9602941 Z"></path>
                                        <path d="M38.9177857,13.5352941 L27.224,13.5352941 C26.8198571,13.5352941 26.4918571,13.2058824 26.4918571,12.8 L26.4918571,1.05441176 C26.4918571,0.648529412 26.8198571,0.319117647 27.224,0.319117647 C27.6281429,0.319117647 27.9561429,0.648529412 27.9561429,1.05441176 L27.9561429,12.0632353 L38.9177857,12.0632353 C39.3219286,12.0632353 39.6499286,12.3926471 39.6499286,12.7985294 C39.6499286,13.2044118 39.3233929,13.5352941 38.9177857,13.5352941 L38.9177857,13.5352941 Z"></path>
                                        <path d="M38.9177857,13.5352941 C38.7274286,13.5352941 38.5370714,13.4602941 38.3935714,13.3132353 L26.6997857,1.25 C26.4186429,0.960294118 26.4245,0.492647059 26.7144286,0.210294118 C27.0028929,-0.0735294118 27.4670714,-0.0661764706 27.7496786,0.225 L39.4434643,12.2882353 C39.7246071,12.5779412 39.71875,13.0455882 39.4288214,13.3279412 C39.2867857,13.4661765 39.1022857,13.5352941 38.9177857,13.5352941 L38.9177857,13.5352941 Z"></path>
                                    </g>
                                </g>
                            </g>
                        </g>
                    </g>
                </g>
            </g>
        </g>
    </g>
</svg>