<?xml version="1.0" encoding="UTF-8" standalone="no"?>
<svg width="19px" height="20px" viewBox="0 0 19 20" version="1.1" xmlns="http://www.w3.org/2000/svg" xmlns:xlink="http://www.w3.org/1999/xlink">
    <!-- Generator: Sketch 39.1 (31720) - http://www.bohemiancoding.com/sketch -->
    <title>attachment</title>
    <desc>Created with Sketch.</desc>
    <defs></defs>
    <g id="статика" stroke="none" stroke-width="1" fill="none" fill-rule="evenodd" opacity="0.50390625">
        <g id="polis812_feedback" transform="translate(-515.000000, -798.000000)" fill="#000000">
            <g id="feedback" transform="translate(0.000000, 208.000000)">
                <g transform="translate(435.000000, 131.000000)" id="Group-5">
                    <g transform="translate(70.000000, 449.000000)">
                        <g id="attachment" transform="translate(10.000000, 10.000000)">
                            <g id="Capa_1">
                                <path d="M18.6732,7.62490566 C18.52462,7.47735849 18.28446,7.47735849 18.13588,7.62490566 L7.76416,17.9245283 C6.9996,18.6837736 5.9793,19.1015094 4.89022,19.1015094 C3.80076,19.1015094 2.78008,18.6837736 2.0159,17.9245283 C1.25172,17.165283 0.83068,16.1520755 0.83068,15.0701887 C0.83068,13.9886792 1.25134,12.9750943 2.0159,12.2162264 L12.38724,1.91622642 C13.4881,0.823396226 15.21634,0.890188679 16.40726,2.07207547 C17.5978,3.25433962 17.66544,4.9709434 16.56458,6.06415094 L6.82138,15.74 C6.27684,16.2807547 5.38992,16.2811321 4.84424,15.74 C4.29932,15.1984906 4.29932,14.3177358 4.84424,13.7766038 L11.44446,7.22226415 C11.59304,7.07471698 11.59304,6.83622642 11.44446,6.68867925 C11.29588,6.54113208 11.05572,6.54113208 10.90714,6.68867925 L4.30692,13.2426415 C3.4656,14.0781132 3.4656,15.4373585 4.30692,16.2732075 C5.149,17.109434 6.51814,17.1079245 7.3587,16.2732075 L17.10228,6.59735849 C18.50942,5.19962264 18.44178,3.0245283 16.94496,1.53811321 C15.44852,0.0520754717 13.25782,-0.0154716981 11.8503,1.38226415 L1.4782,11.6822642 C0.57,12.5837736 0.0703,13.7867925 0.0703,15.0701887 C0.0703,16.3535849 0.57,17.5569811 1.4782,18.4584906 C2.38602,19.3603774 3.59746,19.8566038 4.89022,19.8566038 C6.18222,19.8566038 7.39404,19.3603774 8.30186,18.4584906 L18.6732,8.15849057 C18.82178,8.0109434 18.82178,7.77207547 18.6732,7.62490566 L18.6732,7.62490566 Z" id="Shape"></path>
                            </g>
                        </g>
                    </g>
                </g>
            </g>
        </g>
    </g>
</svg>