<?xml version="1.0" encoding="UTF-8" standalone="no"?>
<svg width="18px" height="16px" viewBox="0 0 18 16" version="1.1" xmlns="http://www.w3.org/2000/svg" xmlns:xlink="http://www.w3.org/1999/xlink">
    <!-- Generator: Sketch 39.1 (31720) - http://www.bohemiancoding.com/sketch -->
    <title>paper</title>
    <desc>Created with Sketch.</desc>
    <defs></defs>
    <g id="Page-1" stroke="none" stroke-width="1" fill="none" fill-rule="evenodd">
        <g id="polis812_vzr_step2-copy" transform="translate(-715.000000, -792.000000)" fill="#000000">
            <g id="insurance" transform="translate(131.000000, 273.000000)">
                <g id="background-form" transform="translate(4.000000, 96.000000)">
                    <g id="item-insurance-copy" transform="translate(98.000000, 266.000000)">
                        <g id="programm-copy" transform="translate(391.000000, 22.000000)">
                            <g id="paper" transform="translate(91.000000, 135.000000)">
                                <g id="Capa_1">
                                    <path d="M0.00156443016,7.72017178 C0.0233936882,8.08763096 0.267153736,8.39687878 0.620060075,8.50238686 L7.15428465,10.4779347 L7.39440649,14.9820383 C7.40532112,15.1603106 7.52538204,15.3167536 7.69637789,15.3749649 C7.74367462,15.393156 7.79460955,15.4004324 7.84190628,15.4004324 C7.96924362,15.4004324 8.08930454,15.3494975 8.17662157,15.2512658 L10.4868847,12.6936044 L13.7612734,14.960209 C13.9068018,15.0620789 14.0777977,15.116652 14.2560699,15.116652 C14.6671876,15.116652 15.0237322,14.8255953 15.1110492,14.4181158 L17.8287918,0.567451563 C17.8615357,0.407370337 17.7996862,0.240012692 17.675987,0.138142821 C17.5486497,0.0326347408 17.3776538,0.00716727306 17.224849,0.0690168375 L0.525466623,6.86519251 C0.187113124,7.01799731 -0.0202648279,7.3527126 0.00156443016,7.72017178 L0.00156443016,7.72017178 Z M8.22391829,13.8651079 L8.0747517,11.0236662 L9.74832815,12.1806168 L8.22391829,13.8651079 L8.22391829,13.8651079 Z M14.2415171,14.2107378 L8.28212965,10.0850081 L16.6390973,2.00090617 L14.2415171,14.2107378 L14.2415171,14.2107378 Z M15.7222684,1.64436163 L7.45989426,9.63750828 L0.932946107,7.66559864 L15.7222684,1.64436163 L15.7222684,1.64436163 Z" id="Shape"></path>
                                </g>
                            </g>
                        </g>
                    </g>
                </g>
            </g>
        </g>
    </g>
</svg>