<?xml version="1.0" encoding="UTF-8" standalone="no"?>
<svg width="56px" height="40px" viewBox="0 0 56 40" version="1.1" xmlns="http://www.w3.org/2000/svg" xmlns:xlink="http://www.w3.org/1999/xlink">
    <!-- Generator: Sketch 39.1 (31720) - http://www.bohemiancoding.com/sketch -->
    <title>sky</title>
    <desc>Created with Sketch.</desc>
    <defs></defs>
    <g id="статика" stroke="none" stroke-width="1" fill="none" fill-rule="evenodd">
        <g id="polis812_offline-inner" transform="translate(-787.000000, -1648.000000)" fill="#79C930">
            <g id="block-copy-3" transform="translate(725.000000, 1633.000000)">
                <g id="sky" transform="translate(62.000000, 15.000000)">
                    <g id="Capa_1">
                        <g id="Group">
                            <path d="M51.677808,10.8899441 C51.980992,8.98536313 51.387728,7.22536313 50.011024,6.05944134 C48.616064,4.87765363 46.70288,4.50882682 44.922304,5.02368715 C43.735776,2.12681564 40.07472,0.0195530726 36.014496,0.0195530726 C35.93576,0.0195530726 35.856576,0.0203351955 35.77784,0.0220111732 C29.491392,0.148938547 26.43592,4.80078212 25.63792,9.22178771 C20.766368,9.86547486 16.576784,12.822905 15.27848,16.6099441 C12.893664,15.8825698 10.310048,16.3254749 8.46384,17.8343017 C6.527808,19.4162011 5.680752,21.8489385 6.07656,24.6031285 C1.74384,25.741676 0.087808,29.0324022 0.003696,31.8567598 C-0.109312,35.6598883 2.367344,39.0432402 5.892544,39.9012291 C5.961536,39.9178771 6.032096,39.9264804 6.103104,39.9264804 L41.322848,39.9264804 C41.34816,39.9264804 41.373808,39.9254749 41.39912,39.9232402 C44.946384,39.6182123 47.887728,35.8652514 48.240752,31.193743 C48.475168,28.0928492 47.522272,24.5492737 44.539152,22.2581006 L51.33352,22.2581006 C51.404528,22.2581006 51.475088,22.2494972 51.54408,22.2328492 C54.177424,21.5919553 56.027328,19.0693855 55.943328,16.2345251 C55.882064,14.1807821 54.712672,11.7977654 51.677808,10.8899441 L51.677808,10.8899441 Z M46.469136,31.0606704 C46.182304,34.858324 43.955744,37.8991061 41.282864,38.1543017 L6.213648,38.1543017 C3.203312,37.3660335 1.704304,34.4307263 1.779344,31.9093855 C1.868272,28.9131844 3.919776,26.7615642 7.26712,26.1540782 C7.50624,26.1105028 7.717136,25.9710615 7.850528,25.7683799 C7.98392,25.5654749 8.028384,25.3169832 7.972944,25.0806704 C7.404208,22.650838 7.993328,20.5093855 9.58944,19.2052514 C11.169648,17.9140782 13.49376,17.6719553 15.510544,18.5890503 C15.75784,18.7015642 16.042208,18.6953073 16.28368,18.5713966 C16.525264,18.4480447 16.69696,18.2213408 16.750048,17.9557542 C17.544464,13.9757542 22.315328,10.8603352 27.613824,10.8603352 L27.621552,10.8603352 C33.570432,10.8635754 37.898224,14.7778771 39.198544,21.3307263 C39.265856,21.6699441 39.524912,21.9392179 39.86192,22.0202235 C45.141488,23.2894972 46.736816,27.5224581 46.469136,31.0606704 L46.469136,31.0606704 Z M51.221296,20.4858101 L41.236384,20.4858101 C41.170304,20.4858101 41.106352,20.4941899 41.044416,20.5078212 C40.97128,20.4856983 40.900384,20.4617877 40.826016,20.4405587 C39.217136,13.3225698 34.31568,9.09162011 27.62256,9.08782123 L27.614384,9.08782123 C27.56824,9.08782123 27.522992,9.0922905 27.476848,9.0926257 C28.436016,4.59497207 31.507056,1.88078212 35.813792,1.79385475 C39.565456,1.72201117 42.954464,3.7252514 43.4812,6.36424581 C43.535072,6.63430168 43.711696,6.86413408 43.95944,6.98603352 C44.206288,7.1077095 44.497152,7.10837989 44.744896,6.98625698 C46.11376,6.31385475 47.767888,6.48402235 48.861344,7.41039106 C49.914816,8.3027933 50.244544,9.71664804 49.765968,11.2894972 C49.692496,11.5312849 49.725536,11.7929609 49.857808,12.0084916 C49.989632,12.2242458 50.207472,12.3734078 50.456784,12.4187709 C52.720416,12.8297207 54.107648,14.2756425 54.167232,16.2870391 C54.217744,17.9781006 53.221728,19.9442458 51.221296,20.4858101 L51.221296,20.4858101 Z" id="Shape"></path>
                            <path d="M32.106704,15.1613408 C29.924272,13.712067 27.32072,13.3037989 24.77832,14.0122905 C24.463376,14.1 24.27936,14.4258101 24.367056,14.7401117 C24.454752,15.0543017 24.782464,15.2375419 25.096624,15.1503911 C27.92496,14.3625698 30.113104,15.256648 31.450272,16.1450279 C33.286288,17.3643575 34.61976,19.3315084 34.847344,21.156648 C34.884528,21.4558659 35.139888,21.6746369 35.434112,21.6746369 C35.45864,21.6746369 35.483056,21.6731844 35.50792,21.6699441 C35.83272,21.6296089 36.062768,21.3345251 36.022448,21.0107263 C35.753872,18.8591061 34.216896,16.5632402 32.106704,15.1613408 L32.106704,15.1613408 Z" id="Shape"></path>
                        </g>
                    </g>
                </g>
            </g>
        </g>
    </g>
</svg>