<?xml version="1.0" encoding="UTF-8" standalone="no"?>
<svg width="220px" height="220px" viewBox="0 0 220 220" version="1.1" xmlns="http://www.w3.org/2000/svg" xmlns:xlink="http://www.w3.org/1999/xlink">
    <!-- Generator: Sketch 39.1 (31720) - http://www.bohemiancoding.com/sketch -->
    <title>Group 3</title>
    <desc>Created with Sketch.</desc>
    <defs>
        <radialGradient cx="50%" cy="50.0000068%" fx="50%" fy="50.0000068%" r="46.44625%" id="radialGradient-1">
            <stop stop-color="#04BE9E" offset="0%"></stop>
            <stop stop-color="#00A185" offset="100%"></stop>
        </radialGradient>
    </defs>
    <g id="статика" stroke="none" stroke-width="1" fill="none" fill-rule="evenodd">
        <g id="polis812_sucess" transform="translate(-610.000000, -259.000000)">
            <g id="feedback" transform="translate(0.000000, 208.000000)">
                <g id="Group-3" transform="translate(610.000000, 51.000000)">
                    <g id="goal">
                        <g id="Layer_1">
                            <g id="Strategy">
                                <g id="mission_2">
                                    <path d="M220,110 C220,118.555937 219.02332,126.884141 217.174805,134.878047 C176.659141,156.638711 166.982148,155.349648 114.787148,155.349648 C81.0480859,155.349648 46.0702344,204.810547 25.8921094,180.896719 C9.73671875,161.750703 0,137.012305 0,110 C0,49.2486328 49.2486328,0 110,0 C170.751367,0 220,49.2486328 220,110 L220,110 Z" id="Shape" fill="url(#radialGradient-1)"></path>
                                    <path d="M220,110 C220,109.984102 219.99957,109.968633 219.99957,109.952734 C219.995703,109.895156 219.623164,108.967891 219.167695,107.88293 L212.615391,92.2504688 C212.158633,91.1607813 211.393359,91.1530469 210.914687,92.2337109 L201.792422,112.834219 L217.173516,134.877617 C219.022031,126.883281 220,118.555937 220,110 L220,110 Z" id="Shape" fill="#008F76"></path>
                                    <path d="M79.921875,145.234375 L110.882578,105.552305 L98.5415234,95.4933203 C97.6258594,94.7469531 96.2306641,94.8556641 95.4413281,95.7348047 L77.6475391,115.562305 L51.6389844,89.1880859 C50.8092578,88.3471875 49.8544922,88.5852344 49.5171875,89.7174609 L36.1599219,134.581563 C35.8226172,135.714219 34.8923437,135.929063 34.0922656,135.059375 L17.496875,117.025391 C16.6967969,116.155703 15.7420312,116.363242 15.3750781,117.486445 L6.71386719,143.994727 C6.53253906,144.550313 6.28675781,145.278633 6.03582031,146.007383 C10.4976953,158.890703 17.2871875,170.685195 25.8994141,180.892422 L58.4375,136.640625 L79.921875,145.234375 L79.921875,145.234375 Z" id="Shape" fill="#008F76"></path>
                                    <path d="M149.313398,24.3503906 C149.313398,24.3503906 143.800938,34.3762891 136.640625,32.0847656 L144.232344,50.4182422 C144.232344,50.4182422 158.696914,50.1316406 161.5625,43.2566406 L149.313398,24.3503906 L149.313398,24.3503906 Z" id="Shape" fill="#C23824"></path>
                                    <polygon id="Shape" fill="#AB3120" points="146.094609 40.3919141 144.232344 50.4182422 140.9375 43.8302734"></polygon>
                                    <path d="M110,220 C162.195,220 205.899375,183.646719 217.174375,134.878047 L196.517148,105.273438 L177.03125,117.734375 L140.9375,67.03125 L79.921875,145.234375 L58.4375,136.640625 L25.8989844,180.892852 C46.0771094,204.80582 76.2617969,220 110,220 L110,220 Z" id="Shape" fill="#BDC3C7"></path>
                                    <polygon id="Shape" fill="#95A5A6" points="140.9375 67.03125 143.559883 136.640625 177.03125 117.734375"></polygon>
                                    <polygon id="Shape" fill="#ECF0F1" points="38.5073047 181.14293 58.4375 186.29918 77.8215625 210.145547 113.269063 179.209336 99.089375 146.339531 140.9375 67.03125 79.921875 145.234375 58.4375 136.640625 36.953125 165.859375"></polygon>
                                    <polygon id="Shape" fill="#95A5A6" points="58.4375 136.640625 58.4375 153.398438 67.5090625 149.562187 62.9732812 168.896836 86.6267187 136.640625"></polygon>
                                    <polygon id="Shape" fill="#95A5A6" points="133.248242 177.920703 150.005625 152.768945 179.652344 143.515625 193.831602 172.644141 177.03125 160.718164 143.560312 195.966289"></polygon>
                                    <polygon id="Shape" fill="#95A5A6" points="126.158828 112.826055 110 145.69543 121.53668 164.385977"></polygon>
                                    <polygon id="Shape" fill="#ECF0F1" points="185.453125 123.782656 193.831602 148.918086 204.143242 138.606016"></polygon>
                                    <polygon id="Shape" fill="#BDC3C7" points="77.8215625 179.853867 88.9453125 164.385977 83.3834375 183.721055"></polygon>
                                    <path d="M65.4646094,69.2299609 C66.1276172,68.2575781 66.5160547,67.0841016 66.5160547,65.8186719 C66.5160547,62.4709766 63.8025781,59.7570703 60.4544531,59.7570703 C59.3776562,59.7570703 58.3683203,60.0406641 57.4917578,60.5335156 C55.6058594,58.4723047 52.8953906,57.1789453 49.8815625,57.1789453 C47.0344531,57.1789453 44.4571875,58.3326563 42.5910547,60.1975 C40.4739844,60.8824219 38.7058203,62.3300391 37.5963672,64.2142188 C36.3730469,63.8309375 35.0723828,63.6238281 33.7227344,63.6238281 C28.3404687,63.6238281 23.7269141,66.9117969 21.7782812,71.5885156 C21.4517187,71.5592969 21.1217187,71.5416797 20.7869922,71.5416797 C14.7864062,71.5416797 9.92191406,76.4057422 9.92191406,82.4063281 C9.92191406,88.4069141 14.7864062,93.2709766 20.7869922,93.2709766 C21.2948828,93.2709766 21.7933203,93.2331641 22.2823047,93.1661328 C24.2730469,96.6904297 28.0512891,99.0713281 32.3876953,99.0713281 C37.2809766,99.0713281 41.4635547,96.0398828 43.1685547,91.7546094 C44.9771094,92.7214063 47.0426172,93.2709766 49.2366016,93.2709766 C54.5853516,93.2709766 59.1726953,90.0130859 61.1234766,85.3728906 C61.6562891,85.4794531 62.2067187,85.5370313 62.7708984,85.5370313 C67.3982031,85.5370313 71.149375,81.7858594 71.149375,77.1585547 C71.1498047,73.4739844 68.7684766,70.3523047 65.4646094,69.2299609 L65.4646094,69.2299609 Z" id="Shape" fill="#ECF0F1"></path>
                                    <path d="M79.261875,89.05875 C78.6585937,88.5770703 78.1880859,87.9153516 77.9444531,87.1217188 C77.2990625,85.0218359 78.4772656,82.7964844 80.5775781,82.1506641 C81.2530469,81.943125 81.9405469,81.9263672 82.5855078,82.0664453 C83.3709766,80.41 84.8216016,79.0758203 86.7122266,78.4948828 C88.4975781,77.9457422 90.3370703,78.1721875 91.8671875,78.9825781 C93.3268359,79.0036328 94.7151562,79.5708203 95.7743359,80.5384766 C96.4678516,80.0623828 97.2434375,79.68125 98.0899219,79.4208594 C101.465977,78.3827344 104.993711,79.5553516 107.117656,82.1128516 C107.316602,82.0316406 107.520703,81.9573047 107.730391,81.8924219 C111.494453,80.7352734 115.483242,82.8480469 116.640391,86.61125 C117.797539,90.3753125 115.684766,94.3641016 111.921133,95.52125 C111.602734,95.6196484 111.282617,95.6914063 110.96293,95.7442578 C110.394023,98.3382813 108.483203,100.560625 105.763281,101.397227 C102.694023,102.340391 99.4859766,101.245547 97.5901953,98.8865625 C96.6423047,99.8417578 95.4529297,100.585117 94.0766406,101.008359 C90.7216406,102.039609 87.21625,100.881172 85.0974609,98.3473047 C84.7837891,98.5166016 84.4494922,98.6588281 84.0958594,98.7679688 C81.19375,99.66 78.1171875,98.0310547 77.2247266,95.1285156 C76.5140234,92.8172266 77.4060547,90.4002344 79.261875,89.05875 L79.261875,89.05875 Z" id="Shape" fill="#ECF0F1" opacity="0.5"></path>
                                    <path d="M197.377383,61.2266016 C197.237734,61.2266016 197.226563,61.2308984 196.796875,61.2369141 L196.796875,61.2266016 C196.796875,56.43 193.111875,52.5417578 188.363828,52.5417578 C187.324844,52.5417578 186.410469,52.7282422 185.488359,53.0694141 C184.802148,52.7351172 184.076836,52.5417578 183.263867,52.5417578 C181.902188,52.5417578 180.687031,53.0724219 179.757617,53.9348047 C178.547188,53.0586719 177.075078,52.5417578 175.472773,52.5417578 C172.226484,52.5417578 169.476484,54.6588281 168.486484,57.6000391 C167.403242,56.3328906 165.804805,55.5298047 164.017734,55.5298047 C160.755977,55.5298047 158.112969,58.2011719 158.112969,61.4964453 C158.112969,62.1405469 158.215664,62.7601562 158.402578,63.3415234 C156.437188,64.7629297 155.15543,67.0871094 155.15543,69.7142187 C155.15543,74.0407422 158.628164,77.5482812 162.911289,77.5482812 C163.009688,77.5482812 163.106797,77.5444141 163.204336,77.5405469 C163.014414,78.3264453 162.911289,79.1462891 162.911289,79.9910547 C162.911289,85.6667969 167.465977,90.2678906 173.08457,90.2678906 C175.497695,90.2678906 177.713164,89.4175391 179.457266,87.9991406 C180.676289,88.7343359 182.100273,89.1571484 183.623086,89.1571484 C186.077891,89.1571484 188.277461,88.0580078 189.769766,86.3212109 C189.968711,86.3396875 190.169805,86.35 190.373477,86.35 C194.101875,86.35 197.123867,83.2970703 197.123867,79.5308594 C197.123867,79.4951953 197.121719,79.4603906 197.121289,79.4247266 C197.260078,79.4311719 197.399297,79.4354687 197.540234,79.4354687 C202.518164,79.4354687 206.471719,75.3585937 206.471719,70.3308203 C206.472148,65.3026172 202.355313,61.2266016 197.377383,61.2266016 L197.377383,61.2266016 Z" id="Shape" fill="#BDC3C7"></path>
                                    <polygon id="Shape" fill="#F59D00" points="134.0625 80.2076172 99.7343359 29.6858203 93.2894531 34.1975391 131.364063 85.1748047"></polygon>
                                    <path d="M134.0625,17.7619922 C134.0625,17.7619922 127.466367,30.8528516 102.405703,33.6170313 L95.6389844,37.3428516 L111.923711,59.1460547 L116.95707,55.0326563 C116.95707,55.0326563 137.500859,57.5794141 146.094609,40.3919141 L134.0625,17.7619922 L134.0625,17.7619922 Z" id="Shape" fill="#E94B35"></path>
                                    <polygon id="Shape" fill="#FF523A" points="95.6389844 37.3428516 102.405703 33.6170312 116.95707 55.0326562 111.923711 59.1460547"></polygon>
                                </g>
                            </g>
                        </g>
                    </g>
                </g>
            </g>
        </g>
    </g>
</svg>