<?xml version="1.0" encoding="UTF-8" standalone="no"?>
<svg width="20px" height="20px" viewBox="0 0 20 20" version="1.1" xmlns="http://www.w3.org/2000/svg" xmlns:xlink="http://www.w3.org/1999/xlink">
    <!-- Generator: Sketch 39.1 (31720) - http://www.bohemiancoding.com/sketch -->
    <title>Shape</title>
    <desc>Created with Sketch.</desc>
    <defs></defs>
    <g id="Page-1" stroke="none" stroke-width="1" fill="none" fill-rule="evenodd">
        <g id="polis812_vzr_step1" transform="translate(-389.000000, -1894.000000)" fill="#303030">
            <g id="cross" transform="translate(389.000000, 1894.000000)">
                <g id="Capa_1">
                    <path d="M18.8258537,8.85923345 L11.074007,8.85923345 L11.074007,1.10738676 C11.074007,0.496097561 10.5756794,0 9.96662021,0 C9.35533101,0 8.85923345,0.496097561 8.85923345,1.10738676 L8.85923345,8.85923345 L1.10738676,8.85923345 C0.496097561,8.85923345 0,9.35533101 0,9.96662021 C0,10.5756794 0.496097561,11.074007 1.10738676,11.074007 L8.85923345,11.074007 L8.85923345,18.8258537 C8.85923345,19.4349129 9.35533101,19.9332404 9.96662021,19.9332404 C10.5756794,19.9332404 11.074007,19.4349129 11.074007,18.8258537 L11.074007,11.074007 L18.8258537,11.074007 C19.4349129,11.074007 19.9332404,10.5756794 19.9332404,9.96662021 C19.9332404,9.35533101 19.4349129,8.85923345 18.8258537,8.85923345 L18.8258537,8.85923345 Z" id="Shape"></path>
                </g>
            </g>
        </g>
    </g>
</svg>