<?xml version="1.0" encoding="UTF-8" standalone="no"?>
<svg width="24px" height="24px" viewBox="0 0 24 24" version="1.1" xmlns="http://www.w3.org/2000/svg" xmlns:xlink="http://www.w3.org/1999/xlink">
    <!-- Generator: Sketch 39.1 (31720) - http://www.bohemiancoding.com/sketch -->
    <title>clock</title>
    <desc>Created with Sketch.</desc>
    <defs></defs>
    <g id="формы" stroke="none" stroke-width="1" fill="none" fill-rule="evenodd" opacity="0.510202892">
        <g id="polis812_green_step2_delivery" transform="translate(-588.000000, -1508.000000)" fill="#000000">
            <g id="visa" transform="translate(132.000000, 258.000000)">
                <g id="background-form" transform="translate(4.000000, 94.000000)">
                    <g id="Доставка" transform="translate(99.000000, 997.000000)">
                        <g id="дата-copy" transform="translate(333.000000, 114.000000)">
                            <g id="date" transform="translate(0.000000, 29.000000)">
                                <g id="clock" transform="translate(20.000000, 16.000000)">
                                    <g id="Capa_1">
                                        <g id="Group">
                                            <path d="M12,0 C5.3832,0 0,5.3832 0,12 C0,18.6168 5.3832,24 12,24 C18.6168,24 24,18.6168 24,12 C24,5.3832 18.6168,0 12,0 L12,0 Z M12,23.2 C5.8244,23.2 0.8,18.1756 0.8,12 C0.8,5.8244 5.8244,0.8 12,0.8 C18.1756,0.8 23.2,5.8244 23.2,12 C23.2,18.1756 18.1756,23.2 12,23.2 L12,23.2 Z" id="Shape"></path>
                                            <path d="M12.4,10.4084 L12.4,6.3516 C12.4,6.1304 12.2208,5.9516 12,5.9516 C11.7792,5.9516 11.6,6.1304 11.6,6.3516 L11.6,10.4084 C11.0404,10.554 10.6024,10.992 10.4568,11.5516 L7.6,11.5516 C7.3792,11.5516 7.2,11.7304 7.2,11.9516 C7.2,12.1728 7.3792,12.3516 7.6,12.3516 L10.4568,12.3516 C10.6356,13.0396 11.2568,13.5516 12,13.5516 C12.8824,13.5516 13.6,12.834 13.6,11.9516 C13.6,11.208 13.088,10.5872 12.4,10.4084 L12.4,10.4084 Z M12,12.7516 C11.5588,12.7516 11.2,12.3928 11.2,11.9516 C11.2,11.5104 11.5588,11.1516 12,11.1516 C12.4412,11.1516 12.8,11.5104 12.8,11.9516 C12.8,12.3928 12.4412,12.7516 12,12.7516 L12,12.7516 Z" id="Shape"></path>
                                            <path d="M12,3.9516 C12.2208,3.9516 12.4,3.7728 12.4,3.5516 L12.4,3.1516 C12.4,2.9304 12.2208,2.7516 12,2.7516 C11.7792,2.7516 11.6,2.9304 11.6,3.1516 L11.6,3.5516 C11.6,3.7728 11.7792,3.9516 12,3.9516 L12,3.9516 Z" id="Shape"></path>
                                            <path d="M12,19.9516 C11.7792,19.9516 11.6,20.1304 11.6,20.3516 L11.6,20.7516 C11.6,20.9728 11.7792,21.1516 12,21.1516 C12.2208,21.1516 12.4,20.9728 12.4,20.7516 L12.4,20.3516 C12.4,20.1304 12.2208,19.9516 12,19.9516 L12,19.9516 Z" id="Shape"></path>
                                            <path d="M20.8,11.5516 L20.4,11.5516 C20.1792,11.5516 20,11.7304 20,11.9516 C20,12.1728 20.1792,12.3516 20.4,12.3516 L20.8,12.3516 C21.0208,12.3516 21.2,12.1728 21.2,11.9516 C21.2,11.7304 21.0208,11.5516 20.8,11.5516 L20.8,11.5516 Z" id="Shape"></path>
                                            <path d="M3.6,11.5516 L3.2,11.5516 C2.9792,11.5516 2.8,11.7304 2.8,11.9516 C2.8,12.1728 2.9792,12.3516 3.2,12.3516 L3.6,12.3516 C3.8208,12.3516 4,12.1728 4,11.9516 C4,11.7304 3.8208,11.5516 3.6,11.5516 L3.6,11.5516 Z" id="Shape"></path>
                                            <path d="M17.9396,5.446 L17.6568,5.7288 C17.5004,5.8852 17.5004,6.138 17.6568,6.2944 C17.7348,6.3724 17.8372,6.4116 17.9396,6.4116 C18.042,6.4116 18.1444,6.3724 18.2224,6.2944 L18.5052,6.0116 C18.6616,5.8552 18.6616,5.6024 18.5052,5.446 C18.3488,5.2896 18.096,5.29 17.9396,5.446 L17.9396,5.446 Z" id="Shape"></path>
                                            <path d="M5.7776,17.6084 L5.4948,17.8912 C5.3384,18.0476 5.3384,18.3004 5.4948,18.4568 C5.5728,18.5348 5.6752,18.574 5.7776,18.574 C5.88,18.574 5.9824,18.5348 6.0604,18.4568 L6.3432,18.174 C6.4996,18.0176 6.4996,17.7648 6.3432,17.6084 C6.1868,17.452 5.9336,17.4524 5.7776,17.6084 L5.7776,17.6084 Z" id="Shape"></path>
                                            <path d="M18.2224,17.6084 C18.066,17.452 17.8132,17.452 17.6568,17.6084 C17.5004,17.7648 17.5004,18.0176 17.6568,18.174 L17.9396,18.4568 C18.0176,18.5348 18.12,18.574 18.2224,18.574 C18.3248,18.574 18.4272,18.5348 18.5052,18.4568 C18.6616,18.3004 18.6616,18.0476 18.5052,17.8912 L18.2224,17.6084 L18.2224,17.6084 Z" id="Shape"></path>
                                            <path d="M6.0604,5.446 C5.904,5.2896 5.6512,5.2896 5.4948,5.446 C5.3384,5.6024 5.3384,5.8552 5.4948,6.0116 L5.7776,6.2944 C5.8556,6.3724 5.958,6.4116 6.0604,6.4116 C6.1628,6.4116 6.2652,6.3724 6.3432,6.2944 C6.4996,6.138 6.4996,5.8852 6.3432,5.7288 L6.0604,5.446 L6.0604,5.446 Z" id="Shape"></path>
                                        </g>
                                    </g>
                                </g>
                            </g>
                        </g>
                    </g>
                </g>
            </g>
        </g>
    </g>
</svg>