<?xml version="1.0" encoding="UTF-8" standalone="no"?>
<svg width="20px" height="20px" viewBox="0 0 20 20" version="1.1" xmlns="http://www.w3.org/2000/svg" xmlns:xlink="http://www.w3.org/1999/xlink">
    <!-- Generator: Sketch 39.1 (31720) - http://www.bohemiancoding.com/sketch -->
    <title>interface copy</title>
    <desc>Created with Sketch.</desc>
    <defs></defs>
    <g id="формы" stroke="none" stroke-width="1" fill="none" fill-rule="evenodd">
        <g id="polis812_viza_step2" transform="translate(-1161.000000, -819.000000)" fill="#FFFFFF">
            <g id="visa" transform="translate(131.000000, 258.000000)">
                <g id="background-form" transform="translate(4.000000, 93.000000)">
                    <g id="FILES" transform="translate(670.000000, 259.000000)">
                        <g id="file" transform="translate(30.000000, 209.000000)">
                            <g id="interface-copy" transform="translate(326.000000, 0.000000)">
                                <g id="Capa_1">
                                    <g id="Group">
                                        <path d="M12.1636667,7.33333333 L3.83033333,7.33333333 C3.646,7.33333333 3.497,7.48266667 3.497,7.66666667 C3.497,7.85066667 3.646,8 3.83033333,8 L12.1636667,8 C12.348,8 12.497,7.85066667 12.497,7.66666667 C12.497,7.48266667 12.348,7.33333333 12.1636667,7.33333333 L12.1636667,7.33333333 Z" id="Shape"></path>
                                        <path d="M3.83033333,5.33333333 L7.16366667,5.33333333 C7.348,5.33333333 7.497,5.184 7.497,5 C7.497,4.816 7.348,4.66666667 7.16366667,4.66666667 L3.83033333,4.66666667 C3.646,4.66666667 3.497,4.816 3.497,5 C3.497,5.184 3.646,5.33333333 3.83033333,5.33333333 L3.83033333,5.33333333 Z" id="Shape"></path>
                                        <path d="M12.497,10.3333333 C12.497,10.1493333 12.348,10 12.1636667,10 L3.83033333,10 C3.646,10 3.497,10.1493333 3.497,10.3333333 C3.497,10.5173333 3.646,10.6666667 3.83033333,10.6666667 L12.1636667,10.6666667 C12.348,10.6666667 12.497,10.5173333 12.497,10.3333333 L12.497,10.3333333 Z" id="Shape"></path>
                                        <path d="M9.83033333,13 C9.83033333,12.816 9.68133333,12.6666667 9.497,12.6666667 L3.83033333,12.6666667 C3.646,12.6666667 3.497,12.816 3.497,13 C3.497,13.184 3.646,13.3333333 3.83033333,13.3333333 L9.497,13.3333333 C9.68133333,13.3333333 9.83033333,13.184 9.83033333,13 L9.83033333,13 Z" id="Shape"></path>
                                        <path d="M3.83033333,15.3333333 C3.646,15.3333333 3.497,15.4826667 3.497,15.6666667 C3.497,15.8506667 3.646,16 3.83033333,16 L8.497,16 C8.68133333,16 8.83033333,15.8506667 8.83033333,15.6666667 C8.83033333,15.4826667 8.68133333,15.3333333 8.497,15.3333333 L3.83033333,15.3333333 L3.83033333,15.3333333 Z" id="Shape"></path>
                                        <path d="M0.830333333,0.666666667 L10.497,0.666666667 L10.497,5.33333333 L15.1636667,5.33333333 L15.1636667,10.3333333 L15.8303333,10.3333333 L15.8303333,4.862 L10.9683333,0 L0.163666667,0 L0.163666667,20 L12.497,20 L12.497,19.3333333 L0.830333333,19.3333333 L0.830333333,0.666666667 L0.830333333,0.666666667 Z M11.1636667,1.138 L14.6923333,4.66666667 L11.1636667,4.66666667 L11.1636667,1.138 L11.1636667,1.138 Z" id="Shape"></path>
                                        <path d="M19.744,19.4303333 L17.754,17.349 C18.336,16.7093333 18.694,15.863 18.694,14.932 C18.6943333,12.9476667 17.08,11.3333333 15.0956667,11.3333333 C13.1113333,11.3333333 11.497,12.9476667 11.497,14.932 C11.497,16.9163333 13.1113333,18.5306667 15.0956667,18.5306667 C15.9096667,18.5306667 16.6586667,18.256 17.262,17.7986667 L19.2623333,19.8906667 C19.3276667,19.9593333 19.4153333,19.9936667 19.5033333,19.9936667 C19.5863333,19.9936667 19.669,19.963 19.7336667,19.9013333 C19.8663333,19.7743333 19.8713333,19.563 19.744,19.4303333 L19.744,19.4303333 Z M12.1636667,14.932 C12.1636667,13.3153333 13.479,12 15.0956667,12 C16.7123333,12 18.0276667,13.3153333 18.0276667,14.932 C18.0276667,16.5486667 16.7123333,17.864 15.0956667,17.864 C13.479,17.864 12.1636667,16.5486667 12.1636667,14.932 L12.1636667,14.932 Z" id="Shape"></path>
                                    </g>
                                </g>
                            </g>
                        </g>
                    </g>
                </g>
            </g>
        </g>
    </g>
</svg>