<?xml version="1.0" encoding="UTF-8" standalone="no"?>
<svg width="18px" height="25px" viewBox="0 0 18 25" version="1.1" xmlns="http://www.w3.org/2000/svg" xmlns:xlink="http://www.w3.org/1999/xlink">
    <!-- Generator: Sketch 39.1 (31720) - http://www.bohemiancoding.com/sketch -->
    <title>passport</title>
    <desc>Created with Sketch.</desc>
    <defs></defs>
    <g id="Page-1" stroke="none" stroke-width="1" fill="none" fill-rule="evenodd" opacity="0.491604478">
        <g id="polis812_vzr_step3" transform="translate(-1177.000000, -905.000000)" fill="#000000">
            <g id="insurance" transform="translate(131.000000, 273.000000)">
                <g id="background-form" transform="translate(4.000000, 92.000000)">
                    <g id="users" transform="translate(9.000000, 451.000000)">
                        <g id="user">
                            <g id="filter-copy-2" transform="translate(891.000000, 57.000000)">
                                <g id="passport" transform="translate(142.000000, 32.000000)">
                                    <g id="Layer_1">
                                        <g id="Group">
                                            <path d="M6.95743085,5.83334961 L11.0425213,5.83334961 C11.2684309,5.83334961 11.451016,5.64667969 11.451016,5.41669922 C11.451016,5.18671875 11.2684309,5.00004883 11.0425213,5.00004883 L6.95743085,5.00004883 C6.73195213,5.00004883 6.54893617,5.18671875 6.54893617,5.41669922 C6.54893617,5.64667969 6.73195213,5.83334961 6.95743085,5.83334961 L6.95743085,5.83334961 Z" id="Shape"></path>
                                            <path d="M5.32340426,7.5 L12.6765957,7.5 C12.9025053,7.5 13.0850904,7.31333008 13.0850904,7.08334961 C13.0850904,6.85336914 12.9025053,6.66669922 12.6765957,6.66669922 L5.32340426,6.66669922 C5.09792553,6.66669922 4.91490957,6.85336914 4.91490957,7.08334961 C4.91490957,7.31333008 5.09792553,7.5 5.32340426,7.5 L5.32340426,7.5 Z" id="Shape"></path>
                                            <path d="M9,10 C5.84631383,10 3.28083511,12.6166504 3.28083511,15.8333496 C3.28083511,19.0500488 5.84631383,21.6666504 9,21.6666504 C12.1536862,21.6666504 14.7191649,19.05 14.7191649,15.8333008 C14.7191649,12.6166016 12.1536862,10 9,10 L9,10 Z M10.4681968,14.0862305 C10.0363883,14.1354004 9.55311702,14.1666504 9,14.1666504 C8.44645213,14.1666504 7.96318085,14.1354004 7.53180319,14.0862305 C7.86312766,12.4204102 8.60577128,11.4253906 9,10.9949707 C9.3946117,11.4262695 10.1368723,12.4208496 10.4681968,14.0862305 L10.4681968,14.0862305 Z M10.5850053,14.9125 C10.614016,15.2045898 10.6340266,15.5079102 10.6340266,15.8333496 C10.6340266,16.1587891 10.614016,16.4616699 10.5853883,16.7533691 C10.1176277,16.7004395 9.59840426,16.6666992 9.00651064,16.6666992 C8.40968617,16.6666992 7.88557979,16.7008789 7.41494681,16.7545898 C7.38593617,16.4625 7.36592553,16.1591797 7.36592553,15.8333496 C7.36592553,15.507959 7.38593617,15.2045898 7.41494681,14.9125 C7.88390426,14.9658203 8.40556915,15 8.99995213,15 C9.59433511,15 10.1156649,14.9658203 10.5850053,14.9125 L10.5850053,14.9125 Z M7.98936702,10.9412598 C7.53548936,11.5720703 6.99831383,12.5666992 6.7266383,13.9616699 C5.67473936,13.7496094 5.09218085,13.4237305 4.82299468,13.2295898 C5.51661702,12.0766602 6.65104787,11.2287598 7.98936702,10.9412598 L7.98936702,10.9412598 Z M4.09787234,15.8333496 C4.09787234,15.1800293 4.22492553,14.5570801 4.44959043,13.9846191 C4.83931915,14.2475586 5.51580319,14.5804687 6.6065266,14.7921387 C6.57263298,15.1225586 6.54893617,15.4654785 6.54893617,15.8333984 C6.54893617,16.201709 6.57263298,16.5450684 6.60695745,16.8754883 C5.51623404,17.0875977 4.83975,17.4208984 4.44959043,17.6833984 C4.22530851,17.1104004 4.09787234,16.4870605 4.09787234,15.8333496 L4.09787234,15.8333496 Z M4.82380851,18.4383301 C5.09586702,18.2420898 5.68005319,17.9179199 6.7266383,17.70625 C6.99869681,19.1004395 7.53592021,20.0945801 7.98936702,20.7254395 C6.65147872,20.4379395 5.51743085,19.5908203 4.82380851,18.4383301 L4.82380851,18.4383301 Z M7.53223404,17.58125 C7.96523936,17.5316895 8.45056915,17.5 9.00655851,17.5 C9.55680319,17.5 10.0384468,17.53125 10.4681968,17.5795898 C10.1368723,19.2462402 9.39422872,20.2412598 9,20.6716797 C8.60577128,20.2408203 7.86312766,19.2458496 7.53223404,17.58125 L7.53223404,17.58125 Z M10.0110638,20.7254395 C10.4645106,20.0946289 11.0016862,19.0991699 11.2737926,17.7037598 C12.32325,17.9145996 12.9074362,18.2387695 13.1786809,18.4337402 C12.4853936,19.5887695 11.3501489,20.4375 10.0110638,20.7254395 L10.0110638,20.7254395 Z M13.9021277,15.8333496 C13.9021277,16.4854492 13.7750745,17.1070801 13.5520372,17.6787598 C13.16025,17.4158203 12.483383,17.0837402 11.3934734,16.8733398 C11.427367,16.5433594 11.4510638,16.2008301 11.4510638,15.8333496 C11.4510638,15.4654297 11.426984,15.1225098 11.3930426,14.7925293 C12.4821383,14.5816895 13.159867,14.2496094 13.5516064,13.9871094 C13.7750745,14.5587402 13.9021277,15.1808105 13.9021277,15.8333496 L13.9021277,15.8333496 Z M11.2733617,13.9616699 C11.0016862,12.5670898 10.4645106,11.5720703 10.0110638,10.9412598 C11.349766,11.2287598 12.4845798,12.0774902 13.178633,13.2316895 C12.90375,13.4287598 12.3179362,13.7512695 11.2733617,13.9616699 L11.2733617,13.9616699 Z" id="Shape"></path>
                                            <path d="M15.9446968,1.66665039 L15.5362021,1.66665039 L15.5362021,1.25 C15.5362021,0.560839844 14.9863404,0 14.3106702,0 L1.23831383,0 C0.562643617,0 0.0127819149,0.560839844 0.0127819149,1.25 L0.0127819149,24.5833496 C0.0127819149,24.8133301 0.195797872,25 0.421276596,25 L15.9446968,25 C17.0901383,25 17.987266,24.0850098 17.987266,22.9166504 L17.987266,3.75 C17.9872181,2.60126953 17.0709415,1.66665039 15.9446968,1.66665039 L15.9446968,1.66665039 Z M17.1702287,22.9166504 C17.1702287,23.6174805 16.6322394,24.1666504 15.9446968,24.1666504 L0.829771277,24.1666504 L0.829771277,1.25 C0.829771277,1.02041016 1.01317021,0.833349609 1.23826596,0.833349609 L14.3106223,0.833349609 C14.5361011,0.833349609 14.719117,1.02041016 14.719117,1.25 L14.719117,1.66665039 L2.05530319,1.66665039 C1.82982447,1.66665039 1.64680851,1.85332031 1.64680851,2.08330078 C1.64680851,2.31328125 1.82982447,2.49995117 2.05530319,2.49995117 L15.9446489,2.49995117 C16.6088777,2.49995117 17.1701809,3.07246094 17.1701809,3.74995117 L17.1701809,22.9166504 L17.1702287,22.9166504 Z" id="Shape"></path>
                                        </g>
                                    </g>
                                </g>
                            </g>
                        </g>
                    </g>
                </g>
            </g>
        </g>
    </g>
</svg>