<?xml version="1.0" encoding="UTF-8" standalone="no"?>
<svg width="37px" height="21px" viewBox="0 0 37 21" version="1.1" xmlns="http://www.w3.org/2000/svg" xmlns:xlink="http://www.w3.org/1999/xlink">
    <!-- Generator: Sketch 39.1 (31720) - http://www.bohemiancoding.com/sketch -->
    <title>group</title>
    <desc>Created with Sketch.</desc>
    <defs></defs>
    <g id="Symbols" stroke="none" stroke-width="1" fill="none" fill-rule="evenodd">
        <g id="header" transform="translate(-599.000000, -13.000000)">
            <g id="group">
                <g transform="translate(599.000000, 13.000000)">
                    <g id="Layer_1">
                        <g id="Group">
                            <path d="M25.7187755,7.76467391 L25.7187755,10.6331522 C25.7187755,11.1733696 25.9302041,11.6755435 26.2926531,12.0559783 L26.2926531,13.0298913 C26.2926531,13.4483696 26.624898,13.7831522 27.0402041,13.7831522 C27.4555102,13.7831522 27.7877551,13.4483696 27.7877551,13.0298913 L27.7877551,11.7059783 C27.7877551,11.4548913 27.6593878,11.2190217 27.4555102,11.0820652 C27.3044898,10.9831522 27.2138776,10.8157609 27.2138776,10.6331522 L27.2138776,7.76467391 C27.2138776,6.76032609 28.0293878,5.93858696 29.0261224,5.93858696 L29.6377551,5.93858696 C30.6344898,5.93858696 31.45,6.76032609 31.45,7.76467391 L31.45,10.6331522 C31.45,10.8157609 31.3593878,10.9831522 31.2083673,11.0820652 C30.9969388,11.2190217 30.8761224,11.4548913 30.8761224,11.7059783 L30.8761224,14.4679348 C30.8761224,14.8027174 31.072449,15.1146739 31.3669388,15.2592391 C31.7218367,15.4342391 33.5642857,16.3701087 35.2708163,17.7777174 C35.4142857,17.8994565 35.4973469,18.0744565 35.4973469,18.2722826 L35.4973469,19.4820652 L30.2569388,19.4820652 C29.8416327,19.4820652 29.5093878,19.8168478 29.5093878,20.2353261 C29.5093878,20.6538043 29.8416327,20.988587 30.2569388,20.988587 L36.244898,20.988587 C36.6602041,20.988587 36.992449,20.6538043 36.992449,20.2353261 L36.992449,18.2722826 C36.992449,17.6255435 36.7130612,17.0244565 36.2146939,16.613587 C34.7120408,15.3733696 33.1036735,14.4679348 32.3712245,14.0798913 L32.3712245,12.0483696 C32.7336735,11.6679348 32.945102,11.1657609 32.945102,10.6255435 L32.945102,7.75706522 C32.945102,5.91576087 31.457551,4.42445652 29.6377551,4.42445652 L29.0261224,4.42445652 C27.2063265,4.43206522 25.7187755,5.92336957 25.7187755,7.76467391 L25.7187755,7.76467391 Z" id="Shape" fill="#757575"></path>
                            <path d="M0.74755102,20.988587 L6.82612245,20.988587 C7.24142857,20.988587 7.57367347,20.6538043 7.57367347,20.2353261 C7.57367347,19.8168478 7.24142857,19.4820652 6.82612245,19.4820652 L1.49510204,19.4820652 L1.49510204,18.2722826 C1.49510204,18.0820652 1.57816327,17.8994565 1.72163265,17.7777174 C3.42061224,16.3701087 5.27061224,15.4266304 5.6255102,15.2592391 C5.92755102,15.1146739 6.11632653,14.8027174 6.11632653,14.4679348 L6.11632653,11.7059783 C6.11632653,11.4548913 5.98795918,11.2190217 5.78408163,11.0820652 C5.63306122,10.9831522 5.54244898,10.8157609 5.54244898,10.6331522 L5.54244898,7.76467391 C5.54244898,6.76032609 6.35795918,5.93858696 7.35469388,5.93858696 L7.96632653,5.93858696 C8.96306122,5.93858696 9.77857143,6.76032609 9.77857143,7.76467391 L9.77857143,10.6331522 C9.77857143,10.8157609 9.68795918,10.9831522 9.53693878,11.0820652 C9.3255102,11.2190217 9.20469388,11.4548913 9.20469388,11.7059783 L9.20469388,13.0907609 C9.20469388,13.5092391 9.53693878,13.8440217 9.9522449,13.8440217 C10.367551,13.8440217 10.6997959,13.5092391 10.6997959,13.0907609 L10.6997959,12.0559783 C11.0622449,11.6755435 11.2736735,11.1733696 11.2736735,10.6331522 L11.2736735,7.76467391 C11.2736735,5.92336957 9.78612245,4.43206522 7.96632653,4.43206522 L7.35469388,4.43206522 C5.52734694,4.43206522 4.04734694,5.93097826 4.04734694,7.76467391 L4.04734694,10.6331522 C4.04734694,11.1733696 4.25877551,11.6755435 4.62122449,12.0559783 L4.62122449,14.0875 C3.88122449,14.4755435 2.28040816,15.3733696 0.777755102,16.6211957 C0.286938776,17.0320652 0,17.6331522 0,18.2798913 L0,20.2353261 C2.68266135e-16,20.6538043 0.332244898,20.988587 0.74755102,20.988587 L0.74755102,20.988587 Z" id="Shape" fill="#757575"></path>
                            <path d="M22.9853061,7.80271739 L22.9853061,4.09728261 C22.9853061,1.8375 21.1655102,0.00380434783 18.9228571,0.00380434783 L18.13,0.00380434783 C15.8873469,0.00380434783 14.067551,1.8375 14.067551,4.09728261 L14.067551,7.80271739 C14.067551,8.47228261 14.3393878,9.09619565 14.807551,9.55271739 L14.807551,12.4059783 C13.9240816,12.8625 11.7644898,14.0494565 9.74836735,15.7233696 C9.15938776,16.2103261 8.82714286,16.9255435 8.82714286,17.6940217 L8.82714286,20.2353261 C8.82714286,20.6538043 9.15938776,20.988587 9.57469388,20.988587 L27.4706122,20.988587 C27.8859184,20.988587 28.2181633,20.6538043 28.2181633,20.2353261 L28.2181633,17.6940217 C28.2181633,16.9255435 27.8859184,16.2103261 27.2969388,15.7233696 C25.2808163,14.0570652 23.1212245,12.8625 22.2377551,12.4059783 L22.2377551,9.55271739 C22.7134694,9.10380435 22.9853061,8.47228261 22.9853061,7.80271739 L22.9853061,7.80271739 Z M26.3530612,16.8875 C26.5946939,17.0853261 26.7306122,17.3820652 26.7306122,17.6940217 L26.7306122,19.4820652 L10.3297959,19.4820652 L10.3297959,17.6940217 C10.3297959,17.3820652 10.4657143,17.0853261 10.7073469,16.8875 C12.9273469,15.0461957 15.3361224,13.8211957 15.7967347,13.5929348 C16.1063265,13.4407609 16.3102041,13.113587 16.3102041,12.7711957 L16.3102041,9.1951087 C16.3102041,8.94402174 16.1818367,8.70815217 15.9779592,8.57119565 C15.7212245,8.39619565 15.5702041,8.11467391 15.5702041,7.81032609 L15.5702041,4.1048913 C15.5702041,2.67445652 16.7255102,1.51793478 18.137551,1.51793478 L18.9304082,1.51793478 C20.35,1.51793478 21.4977551,2.68206522 21.4977551,4.1048913 L21.4977551,7.81032609 C21.4977551,8.11467391 21.3467347,8.40380435 21.09,8.57119565 C20.8785714,8.70815217 20.7577551,8.94402174 20.7577551,9.1951087 L20.7577551,12.7711957 C20.7577551,13.1211957 20.9616327,13.4407609 21.2712245,13.5929348 C21.7242857,13.8211957 24.1330612,15.0538043 26.3530612,16.8875 L26.3530612,16.8875 Z" id="Shape" fill="#34495E"></path>
                        </g>
                    </g>
                </g>
            </g>
        </g>
    </g>
</svg>