<?xml version="1.0" encoding="UTF-8" standalone="no"?>
<svg width="23px" height="12px" viewBox="0 0 23 12" version="1.1" xmlns="http://www.w3.org/2000/svg" xmlns:xlink="http://www.w3.org/1999/xlink">
    <!-- Generator: Sketch 39.1 (31720) - http://www.bohemiancoding.com/sketch -->
    <title>transport</title>
    <desc>Created with Sketch.</desc>
    <defs></defs>
    <g id="Page-1" stroke="none" stroke-width="1" fill="none" fill-rule="evenodd">
        <g id="polis812_vzr_step2-copy" transform="translate(-627.000000, -820.000000)" fill="#000000">
            <g id="insurance" transform="translate(131.000000, 273.000000)">
                <g id="background-form" transform="translate(4.000000, 96.000000)">
                    <g id="item-insurance-copy" transform="translate(98.000000, 266.000000)">
                        <g id="programm-copy" transform="translate(391.000000, 22.000000)">
                            <g id="transport" transform="translate(3.000000, 163.000000)">
                                <g id="Capa_1">
                                    <g id="Group">
                                        <path d="M22.1898155,1.34444493 C20.608605,0.415878952 18.8119469,0.909133429 17.5833944,1.48636945 L13.9210708,3.2071089 L7.62235492,0.0150470958 L3.87128693,0.177430495 L9.0725552,5.49044363 L5.75777789,7.07703197 L2.30905584,5.75454914 L0,6.83939424 L2.08674544,9.45035715 C1.86628092,9.71536877 1.66649974,10.0884929 1.84786943,10.4804068 C2.08475757,10.9922126 2.78491464,11.2501661 3.93338428,11.2501184 C4.16889984,11.2501184 4.42330018,11.2392929 4.69634866,11.2175464 C5.95703844,11.1172072 7.32384274,10.792965 8.1784859,10.3914178 L21.2698566,4.24044913 C22.4005773,3.70913828 22.9638079,3.15126427 22.9917327,2.53482732 C23.0062158,2.21511563 22.87885,1.74894889 22.1898155,1.34444493 L22.1898155,1.34444493 Z M20.8697262,3.37597809 L7.7784029,9.52699449 C7.05027362,9.86912033 5.85485233,10.1557831 4.73293498,10.2572667 C3.58621656,10.3609918 2.9730999,10.2307513 2.76872768,10.1201589 C2.81080431,10.0621205 2.8893726,9.97093782 3.0343453,9.84236642 L3.37436615,9.5408245 L1.49497474,7.1893412 L2.34625745,6.78932006 L5.79867126,8.11332897 L10.6816906,5.77610488 L6.04332157,1.03803867 L7.4168941,0.97856962 L13.9053571,4.26672615 L17.9833354,2.35074511 C19.4726779,1.65099427 20.7274987,1.5897607 21.7131048,2.16842742 L21.7131521,2.16847511 C21.9614942,2.3142625 22.0482979,2.4414509 22.0460261,2.49133432 C22.0459314,2.49476798 22.0174859,2.83679844 20.8697262,3.37597809 L20.8697262,3.37597809 Z" id="Shape"></path>
                                    </g>
                                </g>
                            </g>
                        </g>
                    </g>
                </g>
            </g>
        </g>
    </g>
</svg>