<?xml version="1.0" encoding="UTF-8" standalone="no"?>
<svg width="18px" height="16px" viewBox="0 0 18 16" version="1.1" xmlns="http://www.w3.org/2000/svg" xmlns:xlink="http://www.w3.org/1999/xlink">
    <!-- Generator: Sketch 39.1 (31720) - http://www.bohemiancoding.com/sketch -->
    <title>money</title>
    <desc>Created with Sketch.</desc>
    <defs></defs>
    <g id="формы" stroke="none" stroke-width="1" fill="none" fill-rule="evenodd">
        <g id="polis812_viza_step1" transform="translate(-1031.000000, -529.000000)" fill="#FFFFFF">
            <g id="visa" transform="translate(131.000000, 258.000000)">
                <g id="background-form" transform="translate(4.000000, 94.000000)">
                    <g id="sidebar" transform="translate(701.000000, 92.000000)">
                        <g id="money" transform="translate(195.000000, 85.000000)">
                            <g id="Capa_1">
                                <g id="Group">
                                    <path d="M6.72632365,10.5523953 L9.65785892,11.4483953 C9.65412448,11.4672188 9.6466556,11.4898071 9.63918672,11.5086306 C9.56076349,11.7232188 9.40018257,11.8436894 9.13877178,11.8851012 C8.17528631,12.0394541 6.57694606,11.9415718 6.5620083,11.9415718 C6.31553527,11.9265129 6.1026722,12.1147482 6.08773444,12.3632188 C6.07279668,12.6116894 6.25951867,12.8262776 6.5059917,12.8413365 C6.57694606,12.8451012 8.21636515,12.9467482 9.2806805,12.7735718 C10.337527,12.60416 10.6400166,11.6667482 10.584,11.0756894 C10.5653278,10.8912188 10.4420913,10.7368659 10.2665726,10.68416 L6.984,9.68274824 C5.36325311,9.18957176 3.58565975,10.1006306 3.51097095,10.1382776 C3.50350207,10.1420424 3.49229876,10.1458071 3.48482988,10.1533365 L0.217195021,12.1448659 C0.00433195021,12.2728659 -0.0628879668,12.5514541 0.0640829876,12.7660424 C0.149975104,12.9053365 0.295618257,12.9843953 0.44873029,12.9843953 C0.527153527,12.9843953 0.605576763,12.9618071 0.68026556,12.9203953 L3.93296266,10.9439247 C4.07487137,10.8686306 5.50516183,10.1796894 6.72632365,10.5523953 L6.72632365,10.5523953 Z" id="Shape"></path>
                                    <path d="M17.9147054,9.79568941 C17.657029,9.32133647 16.8541245,8.56463059 15.6366971,9.10674824 C14.4864896,9.62251294 12.0553693,10.8008659 12.0292282,10.81216 C11.8051618,10.9213365 11.7118008,11.1886306 11.8200996,11.4145129 C11.9283983,11.6403953 12.197278,11.7345129 12.41761,11.6253365 C12.443751,11.6140424 14.8599336,10.4394541 15.9989378,9.93121882 C16.323834,9.78439529 16.5964481,9.78439529 16.8317178,9.93121882 C16.8391867,9.93498353 16.8429212,9.93874824 16.85039,9.94251294 L10.7595187,14.4413365 C10.3263237,14.7613365 9.777361,14.8931012 9.25080498,14.8102776 L3.81719502,13.9368659 C3.69022407,13.9180424 3.55951867,13.9519247 3.4586888,14.0347482 L2.08441494,15.1905129 C1.89395851,15.3486306 1.86781743,15.6347482 2.02839834,15.8267482 C2.1180249,15.93216 2.24499585,15.9886306 2.3719668,15.9886306 C2.47279668,15.9886306 2.57362656,15.9547482 2.65951867,15.8832188 L3.87694606,14.8592188 L9.11263071,15.7025129 C9.87445643,15.8267482 10.6698921,15.6309835 11.2935436,15.1716894 L17.7914689,10.3754541 C17.9669876,10.2399247 18.0230041,9.99521882 17.9147054,9.79568941 L17.9147054,9.79568941 Z" id="Shape"></path>
                                    <path d="M9.61304564,9.27616 C10.3113859,9.27616 10.9649129,9.00133647 11.4615934,8.50439529 C12.4810954,7.47663059 12.4810954,5.80886588 11.4615934,4.78110118 C10.9686473,4.28416 10.3113859,4.00933647 9.61304564,4.00933647 C8.91470539,4.00933647 8.26117842,4.28416 7.76449793,4.78110118 C6.74499585,5.80886588 6.74499585,7.47663059 7.76449793,8.50439529 C8.26117842,9.00133647 8.91470539,9.27616 9.61304564,9.27616 L9.61304564,9.27616 Z M8.3993527,5.42110118 C8.72424896,5.09357176 9.15370954,4.91286588 9.61304564,4.91286588 C10.0723817,4.91286588 10.5018423,5.09357176 10.8267386,5.42110118 C11.4952033,6.09498353 11.4952033,7.19427765 10.8267386,7.86816 C10.5018423,8.19568941 10.0723817,8.37639529 9.61304564,8.37639529 C9.15370954,8.37639529 8.72424896,8.19568941 8.3993527,7.86816 C7.73088797,7.19427765 7.73088797,6.09498353 8.3993527,5.42110118 L8.3993527,5.42110118 Z" id="Shape"></path>
                                    <path d="M12.6790207,4.12980706 C13.224249,4.12980706 13.7358672,3.91521882 14.1205145,3.52745412 C14.9159502,2.72557176 14.9159502,1.42298353 14.1205145,0.621101176 C13.7358672,0.233336471 13.224249,0.0187482353 12.6790207,0.0187482353 C12.1337925,0.0187482353 11.6221743,0.233336471 11.237527,0.621101176 C10.4420913,1.42298353 10.4420913,2.72557176 11.237527,3.52745412 C11.6221743,3.91898353 12.137527,4.12980706 12.6790207,4.12980706 L12.6790207,4.12980706 Z M11.8723817,1.26110118 C12.0889793,1.04274824 12.3765311,0.922277647 12.6827552,0.922277647 C12.9889793,0.922277647 13.2765311,1.04274824 13.4931286,1.26110118 C13.937527,1.70910118 13.937527,2.44321882 13.4931286,2.89121882 C13.2765311,3.10957176 12.9889793,3.23004235 12.6827552,3.23004235 C12.3765311,3.23004235 12.0889793,3.10957176 11.8723817,2.89121882 C11.4279834,2.43945412 11.4279834,1.70910118 11.8723817,1.26110118 L11.8723817,1.26110118 Z" id="Shape"></path>
                                </g>
                            </g>
                        </g>
                    </g>
                </g>
            </g>
        </g>
    </g>
</svg>