<?xml version="1.0" encoding="UTF-8" standalone="no"?>
<svg width="25px" height="19px" viewBox="0 0 25 19" version="1.1" xmlns="http://www.w3.org/2000/svg" xmlns:xlink="http://www.w3.org/1999/xlink">
    <!-- Generator: Sketch 39.1 (31720) - http://www.bohemiancoding.com/sketch -->
    <title>hotel-bell</title>
    <desc>Created with Sketch.</desc>
    <defs></defs>
    <g id="формы" stroke="none" stroke-width="1" fill="none" fill-rule="evenodd" opacity="0.495102612">
        <g id="polis812_viza_step2" transform="translate(-350.000000, -1850.000000)" fill="#000000">
            <g id="visa" transform="translate(131.000000, 258.000000)">
                <g id="background-form" transform="translate(4.000000, 93.000000)">
                    <g id="отель" transform="translate(200.000000, 1452.000000)">
                        <g id="input" transform="translate(0.000000, 29.000000)">
                            <g id="hotel-bell" transform="translate(15.000000, 18.000000)">
                                <g id="Layer_1">
                                    <g id="Group">
                                        <path d="M24.4897949,15.3467775 L23.9795898,15.3467775 L23.9795898,13.0080864 C23.9795898,12.7210969 23.751123,12.4883717 23.4693848,12.4883717 L22.7041016,12.4883717 L22.7041016,9.88979843 C22.7041016,7.59721466 20.8730957,5.73208115 18.6224609,5.73208115 L14.0306152,5.73208115 L14.0306152,2.61379319 L15.8163086,2.61379319 C16.0980469,2.61379319 16.3265137,2.3811178 16.3265137,2.09407853 L16.3265137,1.05464921 C16.3265137,0.481515707 15.86875,0.0152198953 15.3061035,0.0152198953 L9.69389648,0.0152198953 C9.13125,0.0152198953 8.67348633,0.481515707 8.67348633,1.05464921 L8.67348633,2.09407853 C8.67348633,2.3811178 8.9019043,2.61379319 9.18369141,2.61379319 L10.9693848,2.61379319 L10.9693848,5.73208115 L6.37753906,5.73208115 C4.1269043,5.73208115 2.29589844,7.59721466 2.29589844,9.88979843 L2.29589844,12.4883717 L1.53061523,12.4883717 C1.24887695,12.4883717 1.02041016,12.7210969 1.02041016,13.0080864 L1.02041016,15.3467775 L0.510205078,15.3467775 C0.228417969,15.3467775 0,15.5795026 0,15.8664921 L0,17.4256361 C0,18.2853613 0.686621094,18.9847801 1.53061523,18.9847801 L23.4693848,18.9847801 C24.3133789,18.9847801 25,18.2853613 25,17.4256361 L25,15.8664921 C25,15.5795026 24.7715332,15.3467775 24.4897949,15.3467775 L24.4897949,15.3467775 Z M9.69389648,1.57436387 L9.69389648,1.05464921 L15.3061523,1.05464921 L15.3061523,1.57436387 L9.69389648,1.57436387 L9.69389648,1.57436387 Z M13.0102051,2.61379319 L13.0102051,5.73208115 L11.9897949,5.73208115 L11.9897949,2.61379319 L13.0102051,2.61379319 L13.0102051,2.61379319 Z M3.31630859,9.88979843 C3.31630859,8.17039791 4.68955078,6.77151047 6.37753906,6.77151047 L11.4795898,6.77151047 L13.5204102,6.77151047 L18.6224609,6.77151047 C20.3104004,6.77151047 21.6836914,8.17034817 21.6836914,9.88979843 L21.6836914,12.4883717 L3.31630859,12.4883717 L3.31630859,9.88979843 L3.31630859,9.88979843 Z M23.9795898,17.4256361 C23.9795898,17.7122277 23.7507324,17.9453508 23.4693848,17.9453508 L1.53061523,17.9453508 C1.24926758,17.9453508 1.02041016,17.7122277 1.02041016,17.4256361 L1.02041016,16.3862068 L20.4081543,16.3862068 L20.4081543,15.3467775 L2.04082031,15.3467775 L2.04082031,13.527801 L22.9591797,13.527801 L22.9591797,15.8664921 C22.9591797,16.1535314 23.1876465,16.3862068 23.4693848,16.3862068 L23.9795898,16.3862068 L23.9795898,17.4256361 L23.9795898,17.4256361 Z" id="Shape"></path>
                                        <path d="M4.33671875,10.6693455 L5.35712891,10.6693455 C5.35712891,9.52307853 6.27265625,8.59048691 7.39794922,8.59048691 L7.39794922,7.55105759 C5.71000977,7.55105759 4.33671875,8.94994503 4.33671875,10.6693455 L4.33671875,10.6693455 Z" id="Shape"></path>
                                    </g>
                                </g>
                            </g>
                        </g>
                    </g>
                </g>
            </g>
        </g>
    </g>
</svg>