<?xml version="1.0" encoding="UTF-8" standalone="no"?>
<svg width="21px" height="20px" viewBox="0 0 21 20" version="1.1" xmlns="http://www.w3.org/2000/svg" xmlns:xlink="http://www.w3.org/1999/xlink">
    <!-- Generator: Sketch 39.1 (31720) - http://www.bohemiancoding.com/sketch -->
    <title>calendar</title>
    <desc>Created with Sketch.</desc>
    <defs></defs>
    <g id="статика" stroke="none" stroke-width="1" fill="none" fill-rule="evenodd">
        <g id="polis812_contacts" transform="translate(-466.000000, -942.000000)" fill="#79C930">
            <g id="viza_price_v2" transform="translate(-5.000000, 208.000000)">
                <g id="contacts">
                    <g id="zavod" transform="translate(140.000000, 592.000000)">
                        <g id="icons" transform="translate(0.000000, 142.000000)">
                            <g id="calendar" transform="translate(331.000000, 0.000000)">
                                <g id="Group">
                                    <path d="M17.6818495,1.38183206 L15.0623441,1.38183206 L15.0623441,0.717633588 C15.0623441,0.319160305 14.8004086,0.0534351145 14.4074301,0.0534351145 C14.0144516,0.0534351145 13.7525161,0.319083969 13.7525161,0.717633588 L13.7525161,1.38183206 L7.20375269,1.38183206 L7.20375269,0.717633588 C7.20375269,0.319160305 6.9418172,0.0534351145 6.54883871,0.0534351145 C6.15593548,0.0534351145 5.89392473,0.319083969 5.89392473,0.717633588 L5.89392473,1.38183206 L3.27441935,1.38183206 C1.44072043,1.38183206 0,2.8429771 0,4.70267176 L0,16.6577099 C0,18.5174046 1.44072043,19.9785496 3.27441935,19.9785496 L17.6818495,19.9785496 C19.5155484,19.9785496 20.9562688,18.5174046 20.9562688,16.6577099 L20.9562688,4.70267176 C20.9562688,2.8429771 19.5155484,1.38183206 17.6818495,1.38183206 L17.6818495,1.38183206 Z M1.30975269,4.70267176 C1.30975269,3.64 2.22660215,2.71015267 3.27441935,2.71015267 L5.89392473,2.71015267 L5.89392473,3.37435115 C5.89392473,3.77282443 6.15586022,4.03854962 6.54883871,4.03854962 C6.94174194,4.03854962 7.20375269,3.77290076 7.20375269,3.37435115 L7.20375269,2.71015267 L13.7525914,2.71015267 L13.7525914,3.37435115 C13.7525914,3.77282443 14.0145269,4.03854962 14.4075054,4.03854962 C14.8004839,4.03854962 15.0624194,3.77290076 15.0624194,3.37435115 L15.0624194,2.71015267 L17.6819247,2.71015267 C18.7297419,2.71015267 19.6465914,3.64 19.6465914,4.70267176 L19.6465914,6.69519084 L1.30975269,6.69519084 L1.30975269,4.70267176 L1.30975269,4.70267176 Z M19.6465161,16.6577099 C19.6465161,17.7203817 18.7296667,18.650229 17.6818495,18.650229 L3.27441935,18.650229 C2.22660215,18.650229 1.30975269,17.7203817 1.30975269,16.6577099 L1.30975269,8.02351145 L19.6465161,8.02351145 L19.6465161,16.6577099 L19.6465161,16.6577099 Z" id="Shape"></path>
                                    <path d="M4.58417204,16.6577099 C4.97707527,16.6577099 5.23908602,16.5248855 5.50102151,16.2592366 C5.76295699,15.9935878 5.89392473,15.5950382 5.89392473,15.3293893 C5.89392473,15.0637405 5.76295699,14.6651908 5.50102151,14.399542 C4.97715054,13.8682443 4.19126882,13.8682443 3.66732258,14.399542 C3.4053871,14.6651908 3.27441935,14.9308397 3.27441935,15.3293893 C3.27441935,15.5950382 3.4053871,15.9935878 3.66732258,16.2592366 C3.92925806,16.5248855 4.19126882,16.6577099 4.58417204,16.6577099 L4.58417204,16.6577099 Z" id="Shape"></path>
                                    <path d="M4.58417204,12.6726718 C4.97707527,12.6726718 5.23908602,12.5398473 5.50102151,12.2741985 C5.76295699,12.0085496 5.89392473,11.61 5.89392473,11.3443511 C5.89392473,11.0787023 5.76295699,10.6801527 5.50102151,10.4145038 C4.97715054,9.88320611 4.19126882,9.88320611 3.66732258,10.4145038 C3.4053871,10.6801527 3.27441935,10.9458015 3.27441935,11.3443511 C3.27441935,11.7429008 3.4053871,12.0085496 3.66732258,12.2741985 C3.92925806,12.5398473 4.19126882,12.6726718 4.58417204,12.6726718 L4.58417204,12.6726718 Z" id="Shape"></path>
                                    <path d="M8.51350538,16.6577099 C8.9064086,16.6577099 9.16841935,16.5248855 9.43035484,16.2592366 C9.69229032,15.9935878 9.82325806,15.5950382 9.82325806,15.3293893 C9.82325806,15.0637405 9.69229032,14.6651908 9.43035484,14.399542 C8.90648387,13.8682443 8.12060215,13.8682443 7.59665591,14.399542 C7.33472043,14.6651908 7.20375269,15.0637405 7.20375269,15.3293893 C7.20375269,15.5950382 7.33472043,15.9935878 7.59665591,16.2592366 C7.8585914,16.5248855 8.12060215,16.6577099 8.51350538,16.6577099 L8.51350538,16.6577099 Z" id="Shape"></path>
                                    <path d="M8.51350538,12.6726718 C8.9064086,12.6726718 9.16841935,12.5398473 9.43035484,12.2741985 C9.69229032,12.0085496 9.82325806,11.61 9.82325806,11.3443511 C9.82325806,11.0787023 9.69229032,10.6801527 9.43035484,10.4145038 C8.90648387,9.88320611 8.12060215,9.88320611 7.59665591,10.4145038 C7.33472043,10.6801527 7.20375269,11.0787023 7.20375269,11.3443511 C7.20375269,11.61 7.33472043,12.0085496 7.59665591,12.2741985 C7.8585914,12.5398473 8.12060215,12.6726718 8.51350538,12.6726718 L8.51350538,12.6726718 Z" id="Shape"></path>
                                    <path d="M12.4427634,16.6577099 C12.8356667,16.6577099 13.0976774,16.5248855 13.3596129,16.2592366 C13.6215484,15.9935878 13.7525161,15.7279389 13.7525161,15.3293893 C13.7525161,14.9308397 13.6215484,14.6651908 13.3596129,14.399542 C12.8357419,13.8682443 12.0498602,13.8682443 11.525914,14.399542 C11.2639785,14.6651908 11.1330108,15.0637405 11.1330108,15.3293893 C11.1330108,15.5950382 11.2639785,15.9935878 11.525914,16.2592366 C11.7878495,16.5248855 12.0498602,16.6577099 12.4427634,16.6577099 L12.4427634,16.6577099 Z" id="Shape"></path>
                                    <path d="M12.4427634,12.6726718 C12.8356667,12.6726718 13.0976774,12.5398473 13.3596129,12.2741985 C13.6215484,12.0085496 13.7525161,11.7429008 13.7525161,11.3443511 C13.7525161,11.0787023 13.6215484,10.6801527 13.3596129,10.4145038 C12.8357419,9.88320611 12.0498602,9.88320611 11.525914,10.4145038 C11.2639785,10.6801527 11.1330108,11.0787023 11.1330108,11.3443511 C11.1330108,11.61 11.2639785,12.0085496 11.525914,12.2741985 C11.7878495,12.5398473 12.0498602,12.6726718 12.4427634,12.6726718 L12.4427634,12.6726718 Z" id="Shape"></path>
                                    <path d="M16.3720968,16.6577099 C16.765,16.6577099 17.0270108,16.5248855 17.2889462,16.2592366 C17.5508817,15.9935878 17.6818495,15.5950382 17.6818495,15.3293893 C17.6818495,15.0637405 17.5508817,14.6651908 17.2889462,14.399542 C16.7650753,13.8682443 15.9791935,13.8682443 15.4552473,14.399542 C15.1933118,14.6651908 15.0623441,14.9308397 15.0623441,15.3293893 C15.0623441,15.5950382 15.1933118,15.9935878 15.4552473,16.2592366 C15.7171828,16.5248855 15.9791935,16.6577099 16.3720968,16.6577099 L16.3720968,16.6577099 Z" id="Shape"></path>
                                    <path d="M16.3720968,12.6726718 C16.765,12.6726718 17.0270108,12.5398473 17.2889462,12.2741985 C17.5508817,12.0085496 17.6818495,11.7429008 17.6818495,11.3443511 C17.6818495,11.0787023 17.5508817,10.6801527 17.2889462,10.4145038 C16.7650753,9.88320611 15.9791935,9.88320611 15.4552473,10.4145038 C15.1933118,10.6801527 15.0623441,11.0787023 15.0623441,11.3443511 C15.0623441,11.61 15.1933118,12.0085496 15.4552473,12.2741985 C15.7171828,12.5398473 15.9791935,12.6726718 16.3720968,12.6726718 L16.3720968,12.6726718 Z" id="Shape"></path>
                                </g>
                            </g>
                        </g>
                    </g>
                </g>
            </g>
        </g>
    </g>
</svg>