<?xml version="1.0" encoding="UTF-8" standalone="no"?>
<svg width="17px" height="15px" viewBox="0 0 17 15" version="1.1" xmlns="http://www.w3.org/2000/svg" xmlns:xlink="http://www.w3.org/1999/xlink">
    <!-- Generator: Sketch 39.1 (31720) - http://www.bohemiancoding.com/sketch -->
    <title>signs</title>
    <desc>Created with Sketch.</desc>
    <defs></defs>
    <g id="Page-1" stroke="none" stroke-width="1" fill="none" fill-rule="evenodd">
        <g id="polis812_vzr_step2-copy" transform="translate(-631.000000, -846.000000)" fill="#010002">
            <g id="insurance" transform="translate(131.000000, 273.000000)">
                <g id="background-form" transform="translate(4.000000, 96.000000)">
                    <g id="item-insurance-copy" transform="translate(98.000000, 266.000000)">
                        <g id="programm-copy" transform="translate(391.000000, 22.000000)">
                            <g id="signs" transform="translate(7.000000, 189.000000)">
                                <g id="Capa_1">
                                    <path d="M16.9215779,8.69461326 L14.8089648,2.40422652 L8.81146734,1.28668508 L8.81146734,0.761685083 C8.81146734,0.588480663 8.6668392,0.447928177 8.48863819,0.447928177 C8.30975377,0.447928177 8.16546734,0.588480663 8.16546734,0.761685083 L8.16546734,1.16593923 L2.08382412,0.0329834254 L0.0284472362,7.0879558 L0.181276382,7.12980663 L0,7.12980663 C0,8.13348066 1.10457286,8.94969613 2.46175377,8.94969613 C3.74580905,8.94969613 4.87216583,8.06378453 4.91889447,7.03848066 L4.93017085,7.03491713 L4.92103015,7.00640884 C4.92137186,6.99513812 4.92350754,6.9841989 4.92350754,6.97292818 L4.91009548,6.97292818 L2.89657789,0.823425414 L8.16512563,1.80480663 L8.16512563,13.2087017 L4.77580402,13.2087017 L3.71274874,14.9211878 L13.0344724,14.9211878 L12.2264171,13.2087017 L8.81138191,13.2087017 L8.81138191,1.92522099 L13.7844372,2.85174033 L12.3811256,8.85149171 L12.3728392,8.85149171 C12.3728392,9.85483425 13.3997588,10.6713812 14.663397,10.6713812 C15.8826131,10.6713812 16.9526734,9.74751381 16.9526734,8.69461326 L16.9215779,8.69461326 L16.9215779,8.69461326 Z M4.26281407,7.0680663 C4.19062814,7.67875691 3.44894975,8.32201657 2.46141206,8.32201657 C1.53478392,8.32201657 0.744155779,7.83712707 0.655738693,7.24093923 L2.38068342,1.32132597 L4.26281407,7.0680663 L4.26281407,7.0680663 Z M11.8113266,13.8353867 L12.0268593,14.2939227 L4.85713065,14.2939227 L5.14177387,13.8353867 L11.8113266,13.8353867 L11.8113266,13.8353867 Z M14.6631407,10.043453 C13.7853769,10.043453 13.071804,9.54041436 13.0268693,8.91140884 L14.3837085,3.15961326 L16.2881357,8.83069061 C16.1973266,9.42895028 15.5362915,10.043453 14.6631407,10.043453 L14.6631407,10.043453 Z" id="Shape"></path>
                                </g>
                            </g>
                        </g>
                    </g>
                </g>
            </g>
        </g>
    </g>
</svg>