<?xml version="1.0" encoding="UTF-8" standalone="no"?>
<svg width="23px" height="21px" viewBox="0 0 23 21" version="1.1" xmlns="http://www.w3.org/2000/svg" xmlns:xlink="http://www.w3.org/1999/xlink">
    <!-- Generator: Sketch 39.1 (31720) - http://www.bohemiancoding.com/sketch -->
    <title>symbols</title>
    <desc>Created with Sketch.</desc>
    <defs></defs>
    <g id="Page-1" stroke="none" stroke-width="1" fill="none" fill-rule="evenodd">
        <g id="polis812_vzr_step1" transform="translate(-149.000000, -1698.000000)" fill="#000000">
            <g id="description" transform="translate(0.000000, 1019.000000)">
                <g id="alpha" transform="translate(133.000000, 110.000000)">
                    <g id="links" transform="translate(1.000000, 423.000000)">
                        <g id="Group-3" transform="translate(0.000000, 138.000000)">
                            <g id="symbols" transform="translate(15.000000, 8.000000)">
                                <g id="Capa_1">
                                    <g id="Group">
                                        <path d="M9.96232578,10.1072432 L7.66332753,10.1072432 L7.66332753,11.6579189 L7.66332753,15.5346081 L8.42966028,15.5346081 L8.42966028,13.2085946 L9.96232578,13.2085946 C10.8052718,13.2085946 11.4949913,12.5107703 11.4949913,11.6579189 C11.4949913,10.8050676 10.8052718,10.1072432 9.96232578,10.1072432 L9.96232578,10.1072432 Z M9.96232578,12.4332973 L8.42966028,12.4332973 L8.42966028,10.8826216 L9.96232578,10.8826216 C10.4221254,10.8826216 10.7286585,11.1927568 10.7286585,11.6579595 C10.7286585,12.1231622 10.4221254,12.4332973 9.96232578,12.4332973 L9.96232578,12.4332973 Z" id="Shape"></path>
                                        <path d="M14.5603223,10.1072432 L12.261324,10.1072432 L12.261324,15.5346081 L14.5603223,15.5346081 C15.4032683,15.5346081 16.0929878,14.8367838 16.0929878,13.9839324 L16.0929878,11.6579189 C16.0929878,10.8050676 15.4032683,10.1072432 14.5603223,10.1072432 L14.5603223,10.1072432 Z M15.3266551,13.983973 C15.3266551,14.4491757 15.020122,14.7593108 14.5603223,14.7593108 L13.0276568,14.7593108 L13.0276568,10.8826216 L14.5603223,10.8826216 C15.020122,10.8826216 15.3266551,11.1927568 15.3266551,11.6579595 L15.3266551,13.983973 L15.3266551,13.983973 Z" id="Shape"></path>
                                        <path d="M20.6909843,7.78127027 L14.5603223,7.78127027 L14.5603223,5.45525676 L9.96232578,0.0278918919 L1.53266551,0.0278918919 C0.689679443,0.0278918919 0,0.725675676 0,1.57856757 L0,19.4113378 C0,20.2641892 0.689679443,20.9620135 1.53266551,20.9620135 L13.0276568,20.9620135 C13.8706028,20.9620135 14.5603223,20.2641892 14.5603223,19.4113378 L14.5603223,17.8606622 L20.6909843,17.8606622 C21.99377,17.8606622 22.9899826,16.8527432 22.9899826,15.5346486 L22.9899826,10.1072432 C22.9899826,8.78918919 21.99377,7.78127027 20.6909843,7.78127027 L20.6909843,7.78127027 Z M9.96232578,1.19087838 L13.5641098,5.45525676 L10.7286585,5.45525676 C10.3455122,5.45525676 9.96232578,5.06760811 9.96232578,4.67991892 L9.96232578,1.19087838 L9.96232578,1.19087838 Z M13.7939895,19.4112973 C13.7939895,19.7989459 13.4874564,20.1866351 13.0276568,20.1866351 L1.53266551,20.1866351 C1.14951916,20.1866351 0.766332753,19.8765 0.766332753,19.4112973 L0.766332753,1.57856757 C0.766332753,1.19091892 1.07286585,0.80322973 1.53266551,0.80322973 L9.19599303,0.80322973 L9.19599303,4.67991892 C9.19599303,5.53281081 9.88567247,6.23059459 10.7286585,6.23059459 L13.7939895,6.23059459 L13.7939895,7.78127027 L7.66332753,7.78127027 C6.36054181,7.78127027 5.36432927,8.78918919 5.36432927,10.1072838 L5.36432927,15.5346486 C5.36432927,16.8527432 6.36054181,17.8606622 7.66332753,17.8606622 L13.7939895,17.8606622 L13.7939895,19.4112973 L13.7939895,19.4112973 Z M22.2236498,15.5346486 C22.2236498,16.3875 21.5339303,17.0853243 20.6909843,17.0853243 L7.66332753,17.0853243 C6.82034146,17.0853243 6.13066202,16.3875 6.13066202,15.5346486 L6.13066202,10.1072432 C6.13066202,9.25435135 6.82034146,8.55656757 7.66332753,8.55656757 L20.6909843,8.55656757 C21.5339303,8.55656757 22.2236498,9.25435135 22.2236498,10.1072432 L22.2236498,15.5346486 L22.2236498,15.5346486 Z" id="Shape"></path>
                                        <polygon id="Shape" points="16.8593206 15.5346486 17.6256533 15.5346486 17.6256533 13.2085946 19.9246516 13.2085946 19.9246516 12.4332973 17.6256533 12.4332973 17.6256533 10.8826216 20.6909843 10.8826216 20.6909843 10.1072432 16.8593206 10.1072432"></polygon>
                                    </g>
                                </g>
                            </g>
                        </g>
                    </g>
                </g>
            </g>
        </g>
    </g>
</svg>