<?xml version="1.0" encoding="UTF-8" standalone="no"?>
<svg width="32px" height="40px" viewBox="0 0 32 40" version="1.1" xmlns="http://www.w3.org/2000/svg" xmlns:xlink="http://www.w3.org/1999/xlink">
    <!-- Generator: Sketch 39.1 (31720) - http://www.bohemiancoding.com/sketch -->
    <title>file</title>
    <desc>Created with Sketch.</desc>
    <defs></defs>
    <g id="статика" stroke="none" stroke-width="1" fill="none" fill-rule="evenodd">
        <g id="polis812_offline-inner" transform="translate(-209.000000, -1648.000000)" fill="#79C930">
            <g id="block" transform="translate(135.000000, 1633.000000)">
                <g id="file" transform="translate(74.000000, 15.000000)">
                    <g id="Capa_1">
                        <g id="Group">
                            <path d="M26,16.6666667 L9.33333333,16.6666667 C8.96533333,16.6666667 8.66666667,16.9646667 8.66666667,17.3333333 C8.66666667,17.702 8.96533333,18 9.33333333,18 L26,18 C26.368,18 26.6666667,17.702 26.6666667,17.3333333 C26.6666667,16.9646667 26.368,16.6666667 26,16.6666667 L26,16.6666667 Z" id="Shape"></path>
                            <path d="M9.33333333,12.6666667 L16,12.6666667 C16.368,12.6666667 16.6666667,12.3686667 16.6666667,12 C16.6666667,11.6313333 16.368,11.3333333 16,11.3333333 L9.33333333,11.3333333 C8.96533333,11.3333333 8.66666667,11.6313333 8.66666667,12 C8.66666667,12.3686667 8.96533333,12.6666667 9.33333333,12.6666667 L9.33333333,12.6666667 Z" id="Shape"></path>
                            <path d="M26,22 L9.33333333,22 C8.96533333,22 8.66666667,22.298 8.66666667,22.6666667 C8.66666667,23.0353333 8.96533333,23.3333333 9.33333333,23.3333333 L26,23.3333333 C26.368,23.3333333 26.6666667,23.0353333 26.6666667,22.6666667 C26.6666667,22.298 26.368,22 26,22 L26,22 Z" id="Shape"></path>
                            <path d="M26,27.3333333 L9.33333333,27.3333333 C8.96533333,27.3333333 8.66666667,27.6313333 8.66666667,28 C8.66666667,28.3686667 8.96533333,28.6666667 9.33333333,28.6666667 L26,28.6666667 C26.368,28.6666667 26.6666667,28.3686667 26.6666667,28 C26.6666667,27.6313333 26.368,27.3333333 26,27.3333333 L26,27.3333333 Z" id="Shape"></path>
                            <path d="M26,32.6666667 L9.33333333,32.6666667 C8.96533333,32.6666667 8.66666667,32.9646667 8.66666667,33.3333333 C8.66666667,33.702 8.96533333,34 9.33333333,34 L26,34 C26.368,34 26.6666667,33.702 26.6666667,33.3333333 C26.6666667,32.9646667 26.368,32.6666667 26,32.6666667 L26,32.6666667 Z" id="Shape"></path>
                            <path d="M28.6666667,9.724 L28.6666667,0 L0,0 L0,36.6666667 L3.33333333,36.6666667 L3.33333333,40 L32,40 L32,13.0573333 L28.6666667,9.724 L28.6666667,9.724 Z M22.6666667,5.60933333 L28.6666667,11.6093333 L29.724,12.6666667 L22.6666667,12.6666667 L22.6666667,5.60933333 L22.6666667,5.60933333 Z M1.33333333,35.3333333 L1.33333333,1.33333333 L27.3333333,1.33333333 L27.3333333,8.39066667 L22.276,3.33333333 L3.33333333,3.33333333 L3.33333333,35.3333333 L1.33333333,35.3333333 L1.33333333,35.3333333 Z M4.66666667,38.6666667 L4.66666667,36.6666667 L4.66666667,4.66666667 L21.3333333,4.66666667 L21.3333333,14 L30.6666667,14 L30.6666667,38.6666667 L4.66666667,38.6666667 L4.66666667,38.6666667 Z" id="Shape"></path>
                        </g>
                    </g>
                </g>
            </g>
        </g>
    </g>
</svg>