<?xml version="1.0" encoding="UTF-8" standalone="no"?>
<svg width="43px" height="24px" viewBox="0 0 43 24" version="1.1" xmlns="http://www.w3.org/2000/svg" xmlns:xlink="http://www.w3.org/1999/xlink">
    <!-- Generator: Sketch 39.1 (31720) - http://www.bohemiancoding.com/sketch -->
    <title>Layer_1</title>
    <desc>Created with Sketch.</desc>
    <defs></defs>
    <g id="Page-1" stroke="none" stroke-width="1" fill="none" fill-rule="evenodd">
        <g id="polis812_vzr_step1" transform="translate(-891.000000, -4711.000000)" fill="#46688C">
            <g id="press" transform="translate(-4.000000, 4229.000000)">
                <g id="vkontakte" transform="translate(139.000000, 471.000000)">
                    <g id="vk-copy" transform="translate(756.000000, 11.000000)">
                        <g id="Layer_1">
                            <g id="XMLID_1_">
                                <path d="M36.8053906,15.2602935 C38.2239596,16.6337728 39.7212131,17.9260167 40.9935132,19.4380005 C41.5555453,20.1099004 42.0876492,20.8032587 42.4947009,21.5830082 C43.0714864,22.6914619 42.5490775,23.9112487 41.5468338,23.9774355 L35.3167081,23.9746486 C33.7098584,24.1068828 32.4280037,23.4653591 31.3501667,22.3758557 C30.487588,21.5045595 29.6887999,20.5772484 28.859381,19.6765514 C28.5193516,19.3084138 28.1634448,18.9620133 27.7382675,18.6882092 C26.8877725,18.1407404 26.1495433,18.308367 25.6635261,19.1880236 C25.1685163,20.082729 25.0562504,21.07344 25.0076346,22.0705606 C24.9408933,23.5254149 24.49745,23.9079045 23.0238019,23.9745093 C19.8744551,24.1217922 16.8855685,23.6492886 14.1089894,22.0737655 C11.6610587,20.6848193 9.76279533,18.7240197 8.11056151,16.5041861 C4.89363036,12.1817043 2.43010322,7.43200453 0.215977823,2.54923454 C-0.282404129,1.44914125 0.0820736787,0.858616193 1.30603905,0.837715117 C3.33848758,0.798560435 5.37065509,0.801347246 7.40549226,0.834928307 C8.23153891,0.846911591 8.77839613,1.31676777 9.09734934,2.09066494 C10.1969651,4.77199428 11.5424699,7.32304025 13.2313763,9.68764863 C13.6811425,10.317189 14.1397607,10.9467294 14.792842,11.3898322 C15.5153342,11.8804502 16.0654231,11.7178398 16.405312,10.9196974 C16.6209918,10.4136127 16.7154132,9.8685126 16.764029,9.32647804 C16.9250512,7.46168405 16.9462679,5.6000949 16.6638468,3.74184993 C16.4904599,2.5821189 15.8317583,1.83135226 14.6648392,1.61189096 C14.0693662,1.50000054 14.1580267,1.28026056 14.4463492,0.94319588 C14.9471198,0.361867292 15.4181027,0 16.3569773,0 L23.3979747,0 C24.5064425,0.216953167 24.7526126,0.710775917 24.9043612,1.81686085 L24.9104031,9.57297139 C24.8983194,10.0011648 25.1260829,11.2718108 25.9037948,11.5552294 C26.5262453,11.7569945 26.9365287,11.2631717 27.3099991,10.8717642 C28.9958143,9.09740225 30.1989845,7.00046698 31.2738709,4.82912389 C31.7508956,3.87436275 32.1610385,2.88281571 32.5585357,1.89210472 C32.8530405,1.15694421 33.3151714,0.795216263 34.1502106,0.811240421 L40.9267719,0.817232063 C41.1276984,0.817232063 41.3310135,0.820158214 41.5256171,0.853181913 C42.6675258,1.04616851 42.9804372,1.53330292 42.627762,2.63910917 C42.0720528,4.3740378 40.9908436,5.81983488 39.9336612,7.27232031 C38.8035552,8.82304079 37.5949052,10.3206725 36.4742132,11.8805895 C35.4445704,13.3050675 35.5263461,14.0230891 36.8053906,15.2602935 L36.8053906,15.2602935 L36.8053906,15.2602935 Z" id="XMLID_807_"></path>
                            </g>
                        </g>
                    </g>
                </g>
            </g>
        </g>
    </g>
</svg>