<?xml version="1.0" encoding="UTF-8" standalone="no"?>
<svg width="28px" height="26px" viewBox="0 0 28 26" version="1.1" xmlns="http://www.w3.org/2000/svg" xmlns:xlink="http://www.w3.org/1999/xlink">
    <!-- Generator: Sketch 39.1 (31720) - http://www.bohemiancoding.com/sketch -->
    <title>warning</title>
    <desc>Created with Sketch.</desc>
    <defs></defs>
    <g id="Page-1" stroke="none" stroke-width="1" fill="none" fill-rule="evenodd">
        <g id="polis812_vzr_step3" transform="translate(-496.000000, -765.000000)" fill="#FF757C">
            <g id="insurance" transform="translate(131.000000, 273.000000)">
                <g id="background-form" transform="translate(4.000000, 92.000000)">
                    <g id="warning" transform="translate(341.000000, 391.000000)">
                        <g transform="translate(20.000000, 9.000000)" id="Group">
                            <g>
                                <path d="M14.0449324,8.74041328 C13.5511486,8.74041328 13.2218649,9.07428782 13.2218649,9.57519557 L13.2218649,15.585321 C13.2218649,16.0861328 13.5510541,16.4201033 14.0449324,16.4201033 C14.5387162,16.4201033 14.868,16.0862288 14.868,15.585321 L14.868,9.57519557 C14.868,9.07428782 14.5387162,8.74041328 14.0449324,8.74041328 L14.0449324,8.74041328 Z" id="Shape"></path>
                                <path d="M14.5387162,19.2582288 C14.209527,18.9243542 13.7156486,18.9243542 13.3864595,19.2582288 C13.2218649,19.4251661 13.2218649,19.7590406 13.2218649,19.9259779 C13.2218649,20.2598524 13.2218649,20.4267897 13.3864595,20.5937269 C13.5510541,20.7606642 13.8802432,20.7606642 14.0448378,20.7606642 C14.2094324,20.7606642 14.5386216,20.7606642 14.374027,20.5937269 C14.5386216,20.4267897 14.7032162,20.0929151 14.7032162,19.9259779 C14.7034054,19.5921033 14.7034054,19.4251661 14.5387162,19.2582288 L14.5387162,19.2582288 Z" id="Shape"></path>
                                <path d="M27.3780405,19.4251661 L17.6662973,2.22947601 C17.0079189,0.893881919 15.526473,0.059195572 14.0449324,0.059195572 C12.5634865,0.059195572 11.2466351,0.89397786 10.4235676,2.22947601 L0.711824324,19.4251661 C-0.111243243,20.7607601 -0.111243243,22.4302288 0.711824324,23.7658229 C1.3702027,25.101417 2.85164865,25.9361033 4.33318919,25.9361033 L23.7566757,25.9361033 C25.4027162,25.9361033 26.7195676,25.101321 27.3780405,23.7658229 C28.2011081,22.4302288 28.2011081,20.7607601 27.3780405,19.4251661 L27.3780405,19.4251661 Z M26.0611892,23.0980738 C25.732,23.9328561 24.9089324,24.4336679 23.9213649,24.4336679 L4.33318919,24.4336679 C3.51012162,24.4336679 2.68714865,23.9328561 2.19336486,23.0980738 C1.69958108,22.2632915 1.69958108,21.2616679 2.19336486,20.4268856 L11.9051081,3.23109963 C12.2342973,2.39631734 13.0573649,1.89550554 14.0449324,1.89550554 C15.0325946,1.89550554 15.8555676,2.39631734 16.3494459,3.23109963 L26.0611892,20.4267897 C26.5550676,21.261572 26.5550676,22.2632915 26.0611892,23.0980738 L26.0611892,23.0980738 Z" id="Shape"></path>
                            </g>
                        </g>
                    </g>
                </g>
            </g>
        </g>
    </g>
</svg>