<?xml version="1.0" encoding="UTF-8" standalone="no"?>
<svg width="50px" height="50px" viewBox="0 0 50 50" version="1.1" xmlns="http://www.w3.org/2000/svg" xmlns:xlink="http://www.w3.org/1999/xlink">
    <!-- Generator: Sketch 39.1 (31720) - http://www.bohemiancoding.com/sketch -->
    <title>loading</title>
    <desc>Created with Sketch.</desc>
    <defs></defs>
    <g id="статика" stroke="none" stroke-width="1" fill="none" fill-rule="evenodd">
        <g id="polis812_all_news" transform="translate(-694.000000, -1524.000000)">
            <g id="loading" transform="translate(694.000000, 1524.000000)">
                <g id="Layer_1">
                    <path d="M25,9.27419355 C23.6290323,9.27419355 22.5806452,8.22580645 22.5806452,6.85483871 L22.5806452,2.41935484 C22.5806452,1.0483871 23.6290323,0 25,0 C26.3709677,0 27.4193548,1.0483871 27.4193548,2.41935484 L27.4193548,6.85483871 C27.4193548,8.14516129 26.3709677,9.27419355 25,9.27419355 L25,9.27419355 Z" id="Shape" fill="#CBF1A8"></path>
                    <path d="M25,50 C23.6290323,50 22.5806452,48.9516129 22.5806452,47.5806452 L22.5806452,43.1451613 C22.5806452,41.7741935 23.6290323,40.7258065 25,40.7258065 C26.3709677,40.7258065 27.4193548,41.7741935 27.4193548,43.1451613 L27.4193548,47.5806452 C27.4193548,48.9516129 26.3709677,50 25,50 L25,50 Z" id="Shape" fill="#95DE52"></path>
                    <path d="M15.8870968,11.6935484 C15.0806452,11.6935484 14.2741935,11.2903226 13.7903226,10.483871 L11.6129032,6.69354839 C10.9677419,5.56451613 11.3709677,4.03225806 12.5,3.38709677 C13.6290323,2.74193548 15.1612903,3.14516129 15.8064516,4.27419355 L17.983871,8.06451613 C18.6290323,9.19354839 18.2258065,10.7258065 17.0967742,11.3709677 C16.7741935,11.5322581 16.2903226,11.6935484 15.8870968,11.6935484 L15.8870968,11.6935484 Z" id="Shape" fill="#D7F0BE"></path>
                    <path d="M36.2903226,46.9354839 C35.483871,46.9354839 34.6774194,46.5322581 34.1935484,45.7258065 L32.016129,41.9354839 C31.3709677,40.8064516 31.7741935,39.2741935 32.9032258,38.6290323 C34.0322581,37.983871 35.5645161,38.3870968 36.2096774,39.516129 L38.3870968,43.3064516 C39.0322581,44.4354839 38.6290323,45.9677419 37.5,46.6129032 C37.0967742,46.8548387 36.6935484,46.9354839 36.2903226,46.9354839 L36.2903226,46.9354839 Z" id="Shape" fill="#95DE52"></path>
                    <path d="M8.06451613,17.983871 L4.27419355,15.8064516 C3.14516129,15.1612903 2.74193548,13.6290323 3.38709677,12.5 C4.03225806,11.3709677 5.56451613,10.9677419 6.69354839,11.6129032 L10.483871,13.7903226 C11.6129032,14.4354839 12.016129,15.9677419 11.3709677,17.0967742 C10.8870968,17.9032258 10.0806452,18.3064516 9.27419355,18.3064516 C8.87096774,18.3064516 8.46774194,18.2258065 8.06451613,17.983871 Z" id="Shape" fill="#DFF4CC"></path>
                    <path d="M44.5967742,38.7096774 C44.1935484,38.7096774 43.7903226,38.6290323 43.3870968,38.3870968 L39.516129,36.2096774 C38.3870968,35.5645161 37.983871,34.0322581 38.6290323,32.9032258 C39.2741935,31.7741935 40.8064516,31.3709677 41.9354839,32.016129 L45.7258065,34.1935484 C46.8548387,34.8387097 47.2580645,36.3709677 46.6129032,37.5 C46.2096774,38.3064516 45.4032258,38.7096774 44.5967742,38.7096774 L44.5967742,38.7096774 Z" id="Shape" fill="#9FE262"></path>
                    <path d="M6.85483871,27.4193548 L2.41935484,27.4193548 C1.0483871,27.4193548 0,26.3709677 0,25 C0,23.6290323 1.0483871,22.5806452 2.41935484,22.5806452 L6.85483871,22.5806452 C8.22580645,22.5806452 9.27419355,23.6290323 9.27419355,25 C9.27419355,26.3709677 8.14516129,27.4193548 6.85483871,27.4193548 L6.85483871,27.4193548 Z" id="Shape" fill="#F1FAE8"></path>
                    <path d="M47.5806452,27.4193548 L43.1451613,27.4193548 C41.7741935,27.4193548 40.7258065,26.3709677 40.7258065,25 C40.7258065,23.6290323 41.7741935,22.5806452 43.1451613,22.5806452 L47.5806452,22.5806452 C48.9516129,22.5806452 50,23.6290323 50,25 C50,26.3709677 48.9516129,27.4193548 47.5806452,27.4193548 L47.5806452,27.4193548 Z" id="Shape" fill="#ABE774"></path>
                    <path d="M5.40322581,38.7096774 C4.59677419,38.7096774 3.79032258,38.3064516 3.30645161,37.5 C2.66129032,36.3709677 3.06451613,34.8387097 4.19354839,34.1935484 L7.98387097,32.016129 C9.11290323,31.3709677 10.6451613,31.7741935 11.2903226,32.9032258 C11.9354839,34.0322581 11.5322581,35.5645161 10.4032258,36.2096774 L6.61290323,38.3870968 C6.29032258,38.6290323 5.88709677,38.7096774 5.40322581,38.7096774 L5.40322581,38.7096774 Z" id="Shape" fill="#79C930"></path>
                    <path d="M38.6290323,17.0967742 C37.983871,15.9677419 38.3870968,14.4354839 39.516129,13.7903226 L43.3064516,11.6129032 C44.4354839,10.9677419 45.9677419,11.3709677 46.6129032,12.5 C47.2580645,13.6290323 46.8548387,15.1612903 45.7258065,15.8064516 L41.9354839,17.983871 C41.5322581,18.2258065 41.1290323,18.3064516 40.7258065,18.3064516 C39.9193548,18.3064516 39.1129032,17.9032258 38.6290323,17.0967742 Z" id="Shape" fill="#B6E789"></path>
                    <path d="M13.7096774,46.9354839 C13.3064516,46.9354839 12.9032258,46.8548387 12.5,46.6129032 C11.3709677,45.9677419 10.9677419,44.4354839 11.6129032,43.3064516 L13.7903226,39.516129 C14.4354839,38.3870968 15.9677419,37.983871 17.0967742,38.6290323 C18.2258065,39.2741935 18.6290323,40.8064516 17.983871,41.9354839 L15.8064516,45.7258065 C15.3225806,46.5322581 14.516129,46.9354839 13.7096774,46.9354839 L13.7096774,46.9354839 Z" id="Shape" fill="#89D841"></path>
                    <path d="M34.1129032,11.6935484 C33.7096774,11.6935484 33.3064516,11.6129032 32.9032258,11.3709677 C31.7741935,10.7258065 31.3709677,9.19354839 32.016129,8.06451613 L34.1935484,4.27419355 C34.8387097,3.14516129 36.3709677,2.74193548 37.5,3.38709677 C38.6290323,4.03225806 39.0322581,5.56451613 38.3870968,6.69354839 L36.2096774,10.483871 C35.7258065,11.2096774 34.9193548,11.6935484 34.1129032,11.6935484 L34.1129032,11.6935484 Z" id="Shape" fill="#C3EE9C"></path>
                </g>
            </g>
        </g>
    </g>
</svg>