<?xml version="1.0" encoding="UTF-8" standalone="no"?>
<svg width="25px" height="25px" viewBox="0 0 25 25" version="1.1" xmlns="http://www.w3.org/2000/svg" xmlns:xlink="http://www.w3.org/1999/xlink">
    <!-- Generator: Sketch 39.1 (31720) - http://www.bohemiancoding.com/sketch -->
    <title>phone-call</title>
    <desc>Created with Sketch.</desc>
    <defs></defs>
    <g id="Page-1" stroke="none" stroke-width="1" fill="none" fill-rule="evenodd" opacity="0.497201493">
        <g id="polis812_vzr_step3" transform="translate(-765.000000, -1343.000000)" fill="#000000">
            <g id="insurance" transform="translate(131.000000, 273.000000)">
                <g id="background-form" transform="translate(4.000000, 92.000000)">
                    <g id="get_data_send" transform="translate(70.000000, 925.000000)">
                        <g id="user-copy-3">
                            <g id="phone-call" transform="translate(560.000000, 53.000000)">
                                <path d="M24.9295259,20.532597 C24.8502155,19.9331358 24.5041487,19.4162716 23.9801724,19.1146013 L17.8257543,15.5711207 C17.0719828,15.1371228 16.1157328,15.2634698 15.5004849,15.8786638 L14.2882543,17.0908944 C13.9656789,17.4135237 13.4553341,17.4420797 13.1014009,17.1572198 C12.1457435,16.3882543 11.2047953,15.541972 10.3047414,14.6418642 C9.4046875,13.7418103 8.55840517,12.8009159 7.78938578,11.8452047 C7.50452586,11.4912177 7.53302802,10.9809267 7.85571121,10.6582974 L9.06788793,9.44606681 C9.6830819,8.83092672 9.80959052,7.87478448 9.37548491,7.12085129 L5.83200431,0.96643319 C5.53028017,0.442403017 5.01346983,0.0963900862 4.41400862,0.0170797414 C3.81449353,-0.0623922414 3.22543103,0.137553879 2.79784483,0.565140086 L0.971282328,2.39175647 C-0.303556034,3.66664871 -0.324030172,5.99865302 0.913631466,8.95829741 C2.10371767,11.8040948 4.32462284,14.9368534 7.16713362,17.779472 C10.0097522,20.6220366 13.1425108,22.8429418 15.9883621,24.033028 C17.4452047,24.6422414 18.7498384,24.9466595 19.851347,24.9466056 C20.9875539,24.9466056 21.9075431,24.6226293 22.554903,23.9753233 L24.3814655,22.1487069 C24.8089978,21.7211207 25.0087823,21.1320582 24.9295259,20.532597 L24.9295259,20.532597 Z M17.4225216,16.2714978 L23.5769397,19.8149784 C23.8813039,19.990194 24.0822737,20.2904095 24.1282866,20.6385776 C24.166972,20.9307651 24.091056,21.2184806 23.9189655,21.4503233 L15.7398168,16.7823276 L16.0719828,16.4501616 C16.4292565,16.0928879 16.9847522,16.0194504 17.4225216,16.2714978 L17.4225216,16.2714978 Z M4.30797414,0.818318966 C4.65619612,0.864385776 4.95635776,1.0653556 5.13157328,1.36971983 L8.67505388,7.52413793 C8.92720905,7.96201509 8.85371767,8.51740302 8.49644397,8.87462284 L8.19132543,9.17974138 L3.49768319,1.02764009 C3.68954741,0.885560345 3.9190194,0.808405172 4.15824353,0.808405172 C4.20786638,0.808405172 4.25792026,0.81169181 4.30797414,0.818318966 L4.30797414,0.818318966 Z M21.9833513,23.4038254 C20.970528,24.4166487 18.8990841,24.3741918 16.3001616,23.2873384 C13.5490841,22.1369073 10.5086207,19.9778556 7.73868534,17.2079741 C4.96875,14.4380388 2.80969828,11.3975216 1.65926724,8.64649784 C0.572359914,6.04752155 0.529956897,3.97607759 1.54278017,2.96320043 L2.89876078,1.60716595 L7.59946121,9.7716056 L7.28421336,10.0868534 C6.66918103,10.7019397 6.615625,11.6756466 7.15969828,12.3519397 C7.94682112,13.3301724 8.81271552,14.2928879 9.73318966,15.2133621 C10.6537716,16.1338901 11.6164871,16.9997845 12.5946659,17.7869073 C13.2708513,18.3309806 14.2445582,18.2774784 14.8597522,17.6623384 L15.1473599,17.3747306 L23.3378772,22.0492457 L21.9833513,23.4038254 L21.9833513,23.4038254 Z" id="Shape"></path>
                            </g>
                        </g>
                    </g>
                </g>
            </g>
        </g>
    </g>
</svg>