<?xml version="1.0" encoding="UTF-8" standalone="no"?>
<svg width="30px" height="50px" viewBox="0 0 30 50" version="1.1" xmlns="http://www.w3.org/2000/svg" xmlns:xlink="http://www.w3.org/1999/xlink">
    <!-- Generator: Sketch 39.1 (31720) - http://www.bohemiancoding.com/sketch -->
    <title>Group 5</title>
    <desc>Created with Sketch.</desc>
    <defs>
        <rect id="path-1" x="0" y="0" width="30" height="50" rx="3"></rect>
        <mask id="mask-2" maskContentUnits="userSpaceOnUse" maskUnits="objectBoundingBox" x="0" y="0" width="30" height="50" fill="white">
            <use xlink:href="#path-1"></use>
        </mask>
    </defs>
    <g id="Page-1" stroke="none" stroke-width="1" fill="none" fill-rule="evenodd">
        <g id="polis812_vzr_step2-copy" transform="translate(-1020.000000, -784.000000)">
            <g id="insurance" transform="translate(131.000000, 273.000000)">
                <g id="Group-5" transform="translate(889.000000, 511.000000)">
                    <use id="Rectangle-10" stroke="#D5D9DB" mask="url(#mask-2)" stroke-width="2" fill="#FFFFFF" xlink:href="#path-1"></use>
                    <g id="angle-arrow-down" transform="translate(15.000000, 25.428571) rotate(90.000000) translate(-15.000000, -25.428571) translate(6.000000, 19.428571)" fill="#D5D9DB">
                        <g id="Capa_1">
                            <path d="M16.9673383,1.25827545 L16.1087519,0.232670659 C15.9943459,0.0957125749 15.8625564,0.0274491018 15.7135639,0.0274491018 C15.5649323,0.0274491018 15.433203,0.0957125749 15.318797,0.232670659 L8.56938346,8.29516168 L1.82027068,0.232886228 C1.70580451,0.0959281437 1.57407519,0.0276646707 1.42526316,0.0276646707 C1.27639098,0.0276646707 1.14466165,0.0959281437 1.03025564,0.232886228 L0.171789474,1.25856287 C0.0571428571,1.39523353 1.13686838e-13,1.5525988 1.13686838e-13,1.73044311 C1.13686838e-13,1.90814371 0.0573233083,2.06550898 0.171789474,2.20217964 L8.17437594,11.7623713 C8.28878195,11.8991138 8.42057143,11.9674491 8.56938346,11.9674491 C8.71819549,11.9674491 8.84974436,11.8991138 8.96409023,11.7623713 L16.9673383,2.20217964 C17.0817444,2.06543713 17.1385865,1.90807186 17.1385865,1.73044311 C17.1385865,1.5525988 17.0817444,1.39523353 16.9673383,1.25827545 L16.9673383,1.25827545 Z" id="Shape"></path>
                        </g>
                    </g>
                </g>
            </g>
        </g>
    </g>
</svg>