<?xml version="1.0" encoding="UTF-8" standalone="no"?>
<svg width="45px" height="33px" viewBox="0 0 45 33" version="1.1" xmlns="http://www.w3.org/2000/svg" xmlns:xlink="http://www.w3.org/1999/xlink">
    <!-- Generator: Sketch 39.1 (31720) - http://www.bohemiancoding.com/sketch -->
    <title>business</title>
    <desc>Created with Sketch.</desc>
    <defs></defs>
    <g id="статика" stroke="none" stroke-width="1" fill="none" fill-rule="evenodd">
        <g id="polis812_feedback" transform="translate(-792.000000, -1098.000000)" fill="#79C930">
            <g id="feedback" transform="translate(0.000000, 208.000000)">
                <g id="seo" transform="translate(345.000000, 871.000000)">
                    <g id="block-copy-2" transform="translate(380.000000, 0.000000)">
                        <g id="business" transform="translate(67.000000, 19.000000)">
                            <g id="Layer_1">
                                <g id="Group">
                                    <path d="M6.73684211,25.487234 L20.2105263,25.487234 C20.6236842,25.487234 20.9590351,25.1517048 20.9590351,24.7383271 C20.9590351,24.3249495 20.6236842,23.9894202 20.2105263,23.9894202 L6.73684211,23.9894202 C6.32368421,23.9894202 5.98833333,24.3249495 5.98833333,24.7383271 C5.98833333,25.1517048 6.32368421,25.487234 6.73684211,25.487234 L6.73684211,25.487234 Z" id="Shape"></path>
                                    <path d="M44.1637719,13.5042846 L3.7427193,13.5042846 C3.3295614,13.5042846 2.99421053,13.8398138 2.99421053,14.2531915 C2.99421053,14.6665691 3.3295614,15.0020984 3.7427193,15.0020984 L43.4152632,15.0020984 L43.4152632,29.2318564 C43.4152632,30.4705851 42.4077193,31.4786649 41.1696491,31.4786649 L3.7427193,31.4786649 C2.70149123,31.4786649 1.49710526,30.7102739 1.49710526,29.2318564 L1.49710526,12.7552899 C1.49710526,12.3419122 1.16175439,12.006383 0.748596491,12.006383 C0.335438596,12.006383 0,12.3419122 0,12.7552899 L0,29.2318564 C0,31.0315851 1.45736842,32.9765665 3.7427193,32.9765665 L41.1696491,32.9765665 C43.2333333,32.9765665 44.9123684,31.2967261 44.9123684,29.2318564 L44.9123684,14.2531915 C44.9122807,13.8398138 44.5769298,13.5042846 44.1637719,13.5042846 L44.1637719,13.5042846 Z" id="Shape"></path>
                                    <path d="M41.1695614,0.0234335106 L3.7427193,0.0234335106 C1.67894737,0.0234335106 0,1.70327394 0,3.76805585 L0,8.26167287 C0,8.67505053 0.335350877,9.01057979 0.748508772,9.01057979 L41.1695614,9.01057979 C41.5827193,9.01057979 41.9180702,8.67505053 41.9180702,8.26167287 C41.9180702,7.84829521 41.5827193,7.51276596 41.1695614,7.51276596 L1.49710526,7.51276596 L1.49710526,3.76805585 C1.49710526,2.52932713 2.50464912,1.52124734 3.7427193,1.52124734 L41.1696491,1.52124734 C42.4077193,1.52124734 43.4152632,2.52932713 43.4152632,3.76805585 L43.4152632,11.2573883 C43.4152632,11.670766 43.750614,12.0062952 44.1637719,12.0062952 C44.5769298,12.0062952 44.9122807,11.670766 44.9122807,11.2573883 L44.9122807,3.76805585 C44.9122807,1.70327394 43.2333333,0.0234335106 41.1695614,0.0234335106 L41.1695614,0.0234335106 Z" id="Shape"></path>
                                    <path d="M26.1988596,22.4915186 C26.6120175,22.4915186 26.9473684,22.1559894 26.9473684,21.7426117 C26.9473684,21.329234 26.6120175,20.9937048 26.1988596,20.9937048 L20.2105263,20.9937048 C19.7973684,20.9937048 19.4620175,21.329234 19.4620175,21.7426117 C19.4620175,22.1559894 19.7973684,22.4915186 20.2105263,22.4915186 L26.1988596,22.4915186 L26.1988596,22.4915186 Z" id="Shape"></path>
                                    <path d="M6.73684211,22.4915186 L17.2164035,22.4915186 C17.6295614,22.4915186 17.9649123,22.1559894 17.9649123,21.7426117 C17.9649123,21.329234 17.6295614,20.9937048 17.2164035,20.9937048 L6.73684211,20.9937048 C6.32368421,20.9937048 5.98833333,21.329234 5.98833333,21.7426117 C5.98833333,22.1559894 6.32368421,22.4915186 6.73684211,22.4915186 L6.73684211,22.4915186 Z" id="Shape"></path>
                                </g>
                            </g>
                        </g>
                    </g>
                </g>
            </g>
        </g>
    </g>
</svg>