<?xml version="1.0" encoding="UTF-8" standalone="no"?>
<svg width="13px" height="13px" viewBox="0 0 13 13" version="1.1" xmlns="http://www.w3.org/2000/svg" xmlns:xlink="http://www.w3.org/1999/xlink">
    <!-- Generator: Sketch 39.1 (31720) - http://www.bohemiancoding.com/sketch -->
    <title>editing</title>
    <desc>Created with Sketch.</desc>
    <defs></defs>
    <g id="Page-1" stroke="none" stroke-width="1" fill="none" fill-rule="evenodd" opacity="0.497084888">
        <g id="polis812_vzr_step2-copy" transform="translate(-323.000000, -487.000000)" fill="#FFFFFF">
            <g id="insurance" transform="translate(131.000000, 273.000000)">
                <g id="background-form" transform="translate(4.000000, 96.000000)">
                    <g id="input" transform="translate(100.000000, 66.000000)">
                        <g id="editing" transform="translate(88.000000, 52.000000)">
                            <g id="Group">
                                <path d="M12.4756303,12.0333333 L0.524369748,12.0333333 C0.273109244,12.0333333 0.0764705882,12.2444444 0.0764705882,12.4888889 C0.0764705882,12.7333333 0.284033613,12.9444444 0.524369748,12.9444444 L12.4865546,12.9444444 C12.7378151,12.9444444 12.9344538,12.7333333 12.9344538,12.4888889 C12.9344538,12.2444444 12.7268908,12.0333333 12.4756303,12.0333333 L12.4756303,12.0333333 Z" id="Shape"></path>
                                <path d="M0.0764705882,8 L0.0655462185,10.1666667 C0.0655462185,10.2888889 0.109243697,10.4111111 0.196638655,10.5 C0.284033613,10.5888889 0.393277311,10.6333333 0.513445378,10.6333333 L2.63277311,10.6222222 C2.75294118,10.6222222 2.86218487,10.5777778 2.94957983,10.4888889 L10.2689076,3.04444444 C10.4436975,2.86666667 10.4436975,2.57777778 10.2689076,2.38888889 L8.17142857,0.233333333 C7.99663866,0.0555555556 7.71260504,0.0555555556 7.52689076,0.233333333 L6.06302521,1.73333333 L0.207563025,7.67777778 C0.131092437,7.76666667 0.0764705882,7.87777778 0.0764705882,8 L0.0764705882,8 Z M7.85462185,1.21111111 L9.32941176,2.71111111 L8.49915966,3.55555556 L7.02436975,2.05555556 L7.85462185,1.21111111 L7.85462185,1.21111111 Z M0.983193277,8.2 L6.37983193,2.71111111 L7.85462185,4.21111111 L2.45798319,9.68888889 L0.972268908,9.7 L0.983193277,8.2 L0.983193277,8.2 Z" id="Shape"></path>
                            </g>
                        </g>
                    </g>
                </g>
            </g>
        </g>
    </g>
</svg>