<?xml version="1.0" encoding="UTF-8" standalone="no"?>
<svg width="11px" height="15px" viewBox="0 0 11 15" version="1.1" xmlns="http://www.w3.org/2000/svg" xmlns:xlink="http://www.w3.org/1999/xlink">
    <!-- Generator: Sketch 39.1 (31720) - http://www.bohemiancoding.com/sketch -->
    <title>cross</title>
    <desc>Created with Sketch.</desc>
    <defs></defs>
    <g id="Page-1" stroke="none" stroke-width="1" fill="none" fill-rule="evenodd">
        <g id="polis812_vzr_step2-copy" transform="translate(-718.000000, -766.000000)" fill="#000000">
            <g id="insurance" transform="translate(131.000000, 273.000000)">
                <g id="background-form" transform="translate(4.000000, 96.000000)">
                    <g id="item-insurance-copy" transform="translate(98.000000, 266.000000)">
                        <g id="programm-copy" transform="translate(391.000000, 22.000000)">
                            <g id="cross" transform="translate(94.000000, 109.000000)">
                                <g id="Layer_1">
                                    <g id="Group">
                                        <path d="M8.19408247,0 L2.72347423,0 L0.0109175258,4.42636082 L2.61992784,15 L8.29765979,15 L10.9066082,4.42636082 L8.19408247,0 L8.19408247,0 Z M7.5708866,14.0721649 L3.34663918,14.0721649 L1.00462887,4.58053608 L3.24309278,0.927835052 L7.67446392,0.927835052 L9.91289691,4.58053608 L7.5708866,14.0721649 L7.5708866,14.0721649 Z" id="Shape"></path>
                                        <polygon id="Shape" points="5.92268041 2.31958763 4.99484536 2.31958763 4.99484536 4.03954639 3.29127835 4.03954639 3.29127835 4.96738144 4.99484536 4.96738144 4.99484536 12.643268 5.92268041 12.643268 5.92268041 4.96738144 7.62624742 4.96738144 7.62624742 4.03954639 5.92268041 4.03954639"></polygon>
                                    </g>
                                </g>
                            </g>
                        </g>
                    </g>
                </g>
            </g>
        </g>
    </g>
</svg>