<?xml version="1.0" encoding="UTF-8" standalone="no"?>
<svg width="50px" height="50px" viewBox="0 0 50 50" version="1.1" xmlns="http://www.w3.org/2000/svg" xmlns:xlink="http://www.w3.org/1999/xlink">
    <!-- Generator: Sketch 39.1 (31720) - http://www.bohemiancoding.com/sketch -->
    <title>youtube</title>
    <desc>Created with Sketch.</desc>
    <defs></defs>
    <g id="Page-1" stroke="none" stroke-width="1" fill="none" fill-rule="evenodd">
        <g id="polis812_vzr_step1" transform="translate(-936.000000, -4071.000000)">
            <g id="socials" transform="translate(235.000000, 3888.000000)">
                <g id="you" transform="translate(698.000000, 183.000000)">
                    <g id="youtube" transform="translate(3.000000, 0.000000)">
                        <g id="Capa_1">
                            <g id="Group">
                                <rect id="Rectangle-path" fill="#DC472E" x="0" y="0" width="49.9705044" height="49.9705044"></rect>
                                <g transform="translate(10.087719, 6.907895)" id="Shape" fill="#FFFFFF">
                                    <path d="M18.7783991,25.0804825 C18.7773026,24.8940789 18.7224781,24.7 18.6533991,24.5256579 C18.5612939,24.2964912 18.3639254,24.1824561 18.1161184,24.1583333 C17.8255482,24.1298246 17.5930921,24.2471491 17.3825658,24.4335526 C17.298136,24.5070175 17.2597588,24.6166667 17.2597588,24.6166667 L17.2641447,30.5344298 L17.2641447,30.6802632 C17.2641447,30.6802632 17.3145833,30.7482456 17.3222588,30.7570175 C17.4933114,30.9423246 17.6928728,31.0892544 17.9483553,31.141886 C18.3694079,31.2285088 18.666557,31.0530702 18.7487939,30.6627193 C18.7696272,30.5651316 18.7816886,30.4642544 18.7816886,30.3644737 C18.7838816,28.6024123 18.7871711,26.8414474 18.7783991,25.0804825 L18.7783991,25.0804825 Z M18.7783991,25.0804825 C18.7773026,24.8940789 18.7224781,24.7 18.6533991,24.5256579 C18.5612939,24.2964912 18.3639254,24.1824561 18.1161184,24.1583333 C17.8255482,24.1298246 17.5930921,24.2471491 17.3825658,24.4335526 C17.298136,24.5070175 17.2597588,24.6166667 17.2597588,24.6166667 L17.2641447,30.5344298 L17.2641447,30.6802632 C17.2641447,30.6802632 17.3145833,30.7482456 17.3222588,30.7570175 C17.4933114,30.9423246 17.6928728,31.0892544 17.9483553,31.141886 C18.3694079,31.2285088 18.666557,31.0530702 18.7487939,30.6627193 C18.7696272,30.5651316 18.7816886,30.4642544 18.7816886,30.3644737 C18.7838816,28.6024123 18.7871711,26.8414474 18.7783991,25.0804825 L18.7783991,25.0804825 Z M25.4044956,16.1561404 C18.4012061,16.0059211 11.3946272,16.0059211 4.39024123,16.1561404 C1.96041667,16.2076754 0.0174342105,18.1945175 0.0174342105,20.6254386 L0.0174342105,31.5640351 C0.0174342105,33.9960526 1.96041667,35.9828947 4.39024123,36.0344298 C11.3946272,36.1846491 18.4012061,36.1846491 25.4044956,36.0344298 C27.8354167,35.9828947 29.7783991,33.9960526 29.7783991,31.5640351 L29.7783991,20.6254386 C29.7783991,18.1946272 27.8354167,16.2076754 25.4044956,16.1561404 L25.4044956,16.1561404 Z M6.44725877,32.5608553 L4.42752193,32.5608553 L4.42752193,21.1430921 L2.33651316,21.1430921 L2.33651316,19.2330044 L8.54265351,19.2330044 L8.54265351,21.1387061 L6.44725877,21.1387061 L6.44725877,32.5608553 L6.44725877,32.5608553 Z M13.6753289,27.8217105 L13.6753289,32.5618421 L11.8869518,32.5618421 L11.8869518,31.4785088 C11.8222588,31.5475877 11.7860746,31.5848684 11.7520833,31.6232456 C11.3672149,32.0574561 10.9308114,32.4192982 10.3737939,32.6111842 C10.101864,32.704386 9.82225877,32.7361842 9.53607456,32.6868421 C9.14572368,32.6221491 8.88366228,32.3973684 8.72576754,32.0421053 C8.57883772,31.7142544 8.54155702,31.3633772 8.54046053,31.010307 C8.53607456,29.7054825 8.53826754,22.7997807 8.53826754,22.7328947 L10.3222588,22.7328947 C10.3255482,22.7932018 10.3321272,27.7504386 10.3332237,30.1682018 C10.3332237,30.2997807 10.3343202,30.4346491 10.360636,30.5629386 C10.4264254,30.8875 10.6753289,31.0267544 10.9878289,30.9127193 C11.3474781,30.7811404 11.6216009,30.5333333 11.851864,30.2361842 C11.8858553,30.1934211 11.8858553,30.1166667 11.8858553,30.0552632 L11.8858553,22.7219298 L13.6753289,22.7175439 C13.6753289,22.7176535 13.6753289,26.1791667 13.6753289,27.8217105 L13.6753289,27.8217105 Z M20.479057,31.6144737 C20.2400219,32.3337719 19.7137061,32.7 18.9571272,32.6923246 C18.3419956,32.6868421 17.8430921,32.4423246 17.4319079,31.9960526 C17.3858553,31.9467105 17.2586623,31.8118421 17.2586623,31.8118421 L17.2586623,32.5596491 L15.4669956,32.5596491 L15.4669956,19.2317982 L17.2586623,19.2317982 L17.2586623,23.6188596 C17.2586623,23.6188596 17.3595395,23.4171053 17.4516447,23.3129386 C17.729057,23.0026316 18.0667763,22.7625 18.483443,22.6572368 C19.170943,22.4850877 19.9637061,22.697807 20.3408991,23.5015351 C20.5634868,23.9763158 20.6259868,24.4828947 20.6259868,24.9982456 C20.6292763,26.8611842 20.6292763,28.7241228 20.6270833,30.5870614 C20.6259868,30.9357456 20.5898026,31.2801535 20.479057,31.6144737 L20.479057,31.6144737 Z M27.0963816,31.2395833 C26.7860746,32.1485746 26.1446272,32.6529605 25.2038377,32.7911184 C24.6205044,32.8766447 24.0426535,32.8645833 23.4955044,32.6167763 C22.7466009,32.279057 22.3222588,31.6683114 22.1402412,30.8908991 C22.0558114,30.529057 22.0141447,30.1496711 22.0097588,29.7779605 C21.9955044,28.3185307 22.0020833,26.8580044 22.0053728,25.3985746 C22.0064693,24.6354167 22.1884868,23.9314693 22.7115132,23.3470395 C23.3080044,22.6792763 24.0711623,22.4303728 24.9428728,22.4862939 C25.2049342,22.5027412 25.4724781,22.5455044 25.7213816,22.6277412 C26.5689693,22.90625 27.0218202,23.5411184 27.1994518,24.3832237 C27.2674342,24.7077851 27.2926535,25.0444079 27.298136,25.3766447 C27.3123904,26.1551535 27.2926535,27.8711623 27.2926535,27.8711623 L23.8617325,27.8711623 L23.8617325,30.3305921 C23.8617325,30.7724781 24.2191886,31.1299342 24.6610746,31.1299342 C25.101864,31.1299342 25.4593202,30.7724781 25.4593202,30.3305921 L25.4593202,29.0663377 L27.3025219,29.0663377 C27.3025219,29.0662281 27.3299342,30.5586623 27.0963816,31.2395833 L27.0963816,31.2395833 Z M25.4593202,24.9654605 C25.4593202,24.5246711 25.101864,24.1661184 24.6610746,24.1661184 C24.2191886,24.1661184 23.8617325,24.5246711 23.8617325,24.9654605 L23.8617325,26.345943 L25.4593202,26.345943 L25.4593202,24.9654605 L25.4593202,24.9654605 Z M18.6533991,24.5257675 C18.5612939,24.2966009 18.3639254,24.1825658 18.1161184,24.158443 C17.8255482,24.1299342 17.5930921,24.2472588 17.3825658,24.4336623 C17.298136,24.5071272 17.2597588,24.6167763 17.2597588,24.6167763 L17.2641447,30.5345395 L17.2641447,30.6803728 C17.2641447,30.6803728 17.3145833,30.7483553 17.3222588,30.7571272 C17.4933114,30.9424342 17.6928728,31.089364 17.9483553,31.1419956 C18.3694079,31.2286184 18.666557,31.0531798 18.7487939,30.6628289 C18.7696272,30.5652412 18.7816886,30.464364 18.7816886,30.3645833 C18.7838816,28.6025219 18.7871711,26.841557 18.7783991,25.0805921 C18.7773026,24.8940789 18.7224781,24.7 18.6533991,24.5257675 L18.6533991,24.5257675 Z"></path>
                                    <path d="M23.2332237,3.50767544 L23.2326754,13.4028509 L21.3991228,13.4028509 L21.4013158,12.3398026 C21.1985746,12.5394737 21.0255482,12.7259868 20.8354167,12.8935307 C20.4983553,13.1904605 20.116557,13.4118421 19.6699561,13.4992325 C18.9843202,13.6333333 18.4003289,13.416557 18.1816886,12.7064693 C18.1088816,12.4699561 18.0649123,12.2150219 18.0630482,11.9680921 L18.0630482,3.50767544 L19.8827851,3.50767544 L19.8827851,11.0538377 C19.8827851,11.1538377 19.8907895,11.2549342 19.9083333,11.3529605 C19.9635965,11.6639254 20.1934211,11.810307 20.4928728,11.7064693 C20.8578947,11.5801535 21.1364035,11.3274123 21.3726974,11.0296053 C21.40625,10.9870614 21.4002193,10.9076754 21.4002193,10.8452851 L21.4002193,3.50767544 L23.2332237,3.50767544 L23.2332237,3.50767544 Z"></path>
                                    <path d="M8.06776316,5.22719298 C7.66973684,3.54945175 6.83585526,0.0076754386 6.83585526,0.0076754386 L4.74934211,0.0076754386 C4.74934211,0.0076754386 6.35241228,5.32423246 7.06929825,7.69528509 C7.09506579,7.7810307 7.10690789,7.87412281 7.10690789,7.96392544 L7.10614035,13.4007675 L9.03015351,13.4007675 L9.02938596,7.96392544 C9.02938596,7.87412281 9.04122807,7.7810307 9.06699561,7.69528509 C9.78388158,5.32423246 11.3869518,0.0076754386 11.3869518,0.0076754386 L9.3004386,0.0076754386 C9.3004386,0.0076754386 8.46644737,3.54945175 8.0685307,5.22719298 L8.06776316,5.22719298 L8.06776316,5.22719298 Z"></path>
                                    <path d="M13.8982456,3.25997807 L13.8982456,3.25997807 C12.4482456,3.25997807 11.272807,4.43541667 11.272807,5.88541667 L11.272807,11.0234649 C11.272807,12.4734649 12.4482456,13.6489035 13.8982456,13.6489035 L13.8982456,13.6489035 C15.3482456,13.6489035 16.5236842,12.4734649 16.5236842,11.0234649 L16.5236842,5.88541667 C16.5237939,4.43541667 15.3482456,3.25997807 13.8982456,3.25997807 L13.8982456,3.25997807 Z M14.6559211,11.127193 C14.6559211,11.5449561 14.3160088,11.8847588 13.8983553,11.8847588 C13.4807018,11.8847588 13.1407895,11.5449561 13.1407895,11.127193 L13.1407895,5.78157895 C13.1407895,5.36381579 13.4807018,5.02401316 13.8983553,5.02401316 C14.3160088,5.02401316 14.6559211,5.36392544 14.6559211,5.78157895 L14.6559211,11.127193 L14.6559211,11.127193 Z"></path>
                                </g>
                            </g>
                        </g>
                    </g>
                </g>
            </g>
        </g>
    </g>
</svg>