<?xml version="1.0" encoding="UTF-8" standalone="no"?>
<svg width="21px" height="16px" viewBox="0 0 21 16" version="1.1" xmlns="http://www.w3.org/2000/svg" xmlns:xlink="http://www.w3.org/1999/xlink">
    <!-- Generator: Sketch 39.1 (31720) - http://www.bohemiancoding.com/sketch -->
    <title>transport</title>
    <desc>Created with Sketch.</desc>
    <defs></defs>
    <g id="Page-1" stroke="none" stroke-width="1" fill="none" fill-rule="evenodd">
        <g id="polis812_vzr_step2-copy" transform="translate(-628.000000, -765.000000)" fill="#211915">
            <g id="insurance" transform="translate(131.000000, 273.000000)">
                <g id="background-form" transform="translate(4.000000, 96.000000)">
                    <g id="item-insurance-copy" transform="translate(98.000000, 266.000000)">
                        <g id="programm-copy" transform="translate(391.000000, 22.000000)">
                            <g id="transport" transform="translate(4.000000, 108.000000)">
                                <g id="Capa_1">
                                    <g id="Group">
                                        <path d="M20.448469,9.958715 C20.4467073,9.63995948 20.3974351,9.32417682 20.3021387,9.02006534 L18.7171696,3.9672124 C18.3237625,2.71305535 17.1762427,1.87041771 15.8618579,1.87041771 L14.9996215,1.87041771 L14.684059,0.456497533 C14.6278502,0.204851341 14.4046112,0.0258747999 14.146744,0.0258747999 L12.7911798,0.0258747999 C12.5315509,0.0258747999 12.307266,0.20721861 12.2528738,0.461066913 L11.9509094,1.87041771 L1.92216731,1.87041771 C0.862291469,1.87041771 0,2.73265413 0,3.79252998 L0,11.2477755 C0,12.3076514 0.862291469,13.1699428 1.92216731,13.1699428 L2.32135492,13.1699428 C2.55131032,14.2914227 3.54589359,15.1375837 4.73437269,15.1375837 C5.9228518,15.1375837 6.91743506,14.2914778 7.14739046,13.1699428 L12.9419693,13.1699428 C13.1719247,14.2914227 14.1664529,15.1375837 15.3549871,15.1375837 C16.5584956,15.1375837 17.5624929,14.2697319 17.7757123,13.1271118 C18.4336479,13.0198139 19.0396136,12.7104724 19.5191232,12.2283754 C20.1230521,11.6211984 20.4530934,10.8151709 20.448469,9.958715 L20.448469,9.958715 Z M13.9929266,12.6744679 C13.9929266,11.9234381 14.6039573,11.3124075 15.354932,11.3124075 C16.1060169,11.3124075 16.7169925,11.9234381 16.7169925,12.6744679 C16.7169925,13.4254978 16.1059619,14.0365284 15.354932,14.0365284 C14.6039573,14.0365284 13.9929266,13.4254978 13.9929266,12.6744679 L13.9929266,12.6744679 Z M6.09643317,12.6744679 C6.09643317,13.4254978 5.48540252,14.0365284 4.73437269,14.0365284 C3.98334286,14.0365284 3.37231222,13.4254978 3.37231222,12.6744679 C3.37231222,11.9234381 3.98334286,11.3124075 4.73437269,11.3124075 C5.48540252,11.3124075 6.09643317,11.9234381 6.09643317,12.6744679 L6.09643317,12.6744679 Z M17.7277062,12.0149358 C17.4385141,10.9761452 16.4846698,10.2114072 15.3549871,10.2114072 C14.2057606,10.2114072 13.2380431,11.0026806 12.9674587,12.0689426 L7.12195609,12.0689426 C6.85137174,11.0026806 5.88365423,10.2114072 4.73437269,10.2114072 C3.58509115,10.2114072 2.61737364,11.0026806 2.3467893,12.0689426 L1.92211226,12.0689426 C1.46935832,12.0689426 1.10100026,11.7006396 1.10100026,11.2478306 L1.10100026,9.51515486 L19.295554,9.51515486 C19.3288609,9.66253112 19.3465879,9.81310043 19.3474137,9.96471575 C19.3504416,10.5258686 19.1341943,11.0540448 18.73842,11.4519112 C18.4564948,11.7353779 18.1077905,11.927512 17.7277062,12.0149358 L17.7277062,12.0149358 Z M1.92216731,2.97147303 L15.8618579,2.97147303 C16.3937227,2.97147303 16.8815452,3.19052798 17.2295338,3.55552782 L14.0839288,3.55552782 C13.7799275,3.55552782 13.5334012,3.80199905 13.5334012,4.10605548 L13.5334012,7.24433838 C13.5334012,7.54839481 13.7799275,7.79486604 14.0839288,7.79486604 L18.7638543,7.79486604 L18.9580805,8.41409955 L1.10105531,8.41409955 L1.10105531,3.79252998 C1.10105531,3.33977603 1.46935832,2.97147303 1.92216731,2.97147303 L1.92216731,2.97147303 Z M17.7794008,4.65658313 L18.4184533,6.69381073 L14.6344565,6.69381073 L14.6344565,4.65658313 L17.7794008,4.65658313 L17.7794008,4.65658313 Z M13.2362264,1.12693011 L13.7054961,1.12693011 L13.8038754,1.5676275 L13.1418109,1.5676275 L13.2362264,1.12693011 L13.2362264,1.12693011 Z" id="Shape"></path>
                                        <path d="M4.4737529,6.05668507 L5.21443281,6.05668507 L5.21443281,6.79736498 C5.21443281,7.10142141 5.46090404,7.34789264 5.76496047,7.34789264 C6.06901689,7.34789264 6.31548812,7.10142141 6.31548812,6.79736498 L6.31548812,6.05668507 L7.05616803,6.05668507 C7.36022446,6.05668507 7.60669569,5.81021384 7.60669569,5.50615741 C7.60669569,5.20210099 7.36022446,4.95562976 7.05616803,4.95562976 L6.31548812,4.95562976 L6.31548812,4.21494985 C6.31548812,3.91089342 6.06901689,3.66442219 5.76496047,3.66442219 C5.46090404,3.66442219 5.21443281,3.91089342 5.21443281,4.21494985 L5.21443281,4.95562976 L4.4737529,4.95562976 C4.16969647,4.95562976 3.92322524,5.20210099 3.92322524,5.50615741 C3.92322524,5.81021384 4.16969647,6.05668507 4.4737529,6.05668507 L4.4737529,6.05668507 Z" id="Shape"></path>
                                    </g>
                                </g>
                            </g>
                        </g>
                    </g>
                </g>
            </g>
        </g>
    </g>
</svg>