<?xml version="1.0" encoding="UTF-8" standalone="no"?>
<svg width="26px" height="21px" viewBox="0 0 26 21" version="1.1" xmlns="http://www.w3.org/2000/svg" xmlns:xlink="http://www.w3.org/1999/xlink">
    <!-- Generator: Sketch 39.1 (31720) - http://www.bohemiancoding.com/sketch -->
    <title>sports</title>
    <desc>Created with Sketch.</desc>
    <defs></defs>
    <g id="формы" stroke="none" stroke-width="1" fill="none" fill-rule="evenodd" opacity="0.488864272">
        <g id="polis812_osago_step1" transform="translate(-250.000000, -877.000000)" fill="#000000">
            <g id="visa" transform="translate(131.000000, 258.000000)">
                <g id="background-form" transform="translate(4.000000, 94.000000)">
                    <g id="безаварийность" transform="translate(100.000000, 479.000000)">
                        <g id="sports" transform="translate(15.000000, 46.000000)">
                            <g id="Capa_1">
                                <g id="Group">
                                    <path d="M7.52766102,9.56751064 C7.52766102,10.5531702 8.31823729,11.3547447 9.29037288,11.3547447 C10.2625085,11.3547447 11.0530847,10.5531702 11.0530847,9.56751064 C11.0530847,8.58185106 10.2625085,7.7802766 9.29037288,7.7802766 C8.31823729,7.7802766 7.52766102,8.58185106 7.52766102,9.56751064 L7.52766102,9.56751064 Z M10.1717288,9.56751064 C10.1717288,10.0603404 9.77644068,10.4611277 9.29037288,10.4611277 C8.80430508,10.4611277 8.40901695,10.0603404 8.40901695,9.56751064 C8.40901695,9.07468085 8.80430508,8.67389362 9.29037288,8.67389362 C9.77644068,8.67389362 10.1717288,9.07468085 10.1717288,9.56751064 L10.1717288,9.56751064 Z" id="Shape"></path>
                                    <path d="M8.54871186,17.6860213 C6.1840339,17.8852979 4.1040339,16.0985106 3.90749153,13.7040638 C3.88766102,13.4578723 3.67922034,13.2666383 3.432,13.2961277 C3.18918644,13.316234 3.00938983,13.5320426 3.02966102,13.778234 C3.25440678,16.5167234 5.52477966,18.594383 8.18823729,18.594383 C8.33189831,18.594383 8.47644068,18.5885745 8.62186441,18.5760638 C8.86467797,18.5559574 9.04447458,18.3401489 9.02420339,18.0939574 C9.00481356,17.8482128 8.79769492,17.6601064 8.54871186,17.6860213 L8.54871186,17.6860213 Z" id="Shape"></path>
                                    <path d="M25.8382712,12.2278085 C25.9982373,11.7305106 25.9325763,11.1921064 25.6575932,10.749766 L21.398,3.91180851 C20.9277966,3.15625532 19.9494915,2.89442553 19.1646441,3.31844681 L18.9601695,3.43417021 C18.940339,3.41808511 18.9187458,3.39797872 18.8997966,3.38457447 C18.8059322,3.28761702 18.5463729,3.0293617 18.1352203,2.69380851 C14.4352881,-0.325723404 9.16522034,-0.646085106 5.02108475,1.89848936 C2.61233898,3.37742553 1.0999322,5.27904255 0.532779661,7.52157447 C0.445966102,7.7856383 -1.54281356,14.0405106 2.76833898,18.8736383 C2.97633898,19.1318936 4.08684746,20.1336383 9.00569492,20.5737447 C10.2030169,20.6809787 11.4188475,20.7341489 12.6492203,20.7341489 C15.0381356,20.7341489 17.4812542,20.5326383 19.9486102,20.1300638 C22.0034915,19.7949574 23.6335593,19.4169574 24.7938644,19.0063404 C24.9207797,18.9612128 25.0208136,18.860234 25.0648814,18.7315532 C25.1089492,18.6042128 26.1247119,15.5887021 25.1234915,13.3309787 C25.1155593,13.314 25.1071864,13.2974681 25.0974915,13.2818298 L25.0300678,13.1701277 C25.4090508,12.9811277 25.7029831,12.6487021 25.8382712,12.2278085 L25.8382712,12.2278085 Z M24.2954576,18.2342553 C23.1986102,18.6001915 21.6906102,18.9411064 19.8084746,19.2480638 C16.1420339,19.8458936 12.533322,19.9924468 9.08325424,19.6837021 C4.38210169,19.2637021 3.46416949,18.3218298 3.46108475,18.3218298 L3.46108475,18.3222766 C3.45183051,18.3093191 3.44169492,18.2963617 3.43155932,18.2847447 C-0.541152542,13.8443617 1.34891525,7.86382979 1.37755932,7.77446809 C1.89359322,5.73612766 3.27335593,4.0163617 5.47718644,2.66342553 C9.30579661,0.313659574 14.17,0.605425532 17.5826102,3.39082979 C17.8408475,3.6017234 18.0321017,3.77776596 18.1515254,3.89259574 L14.3625763,6.03682979 C14.1770508,6.14138298 13.9791864,6.21868085 13.7747119,6.26559574 L13.6539661,6.29374468 C12.9709153,6.45414894 11.8269153,6.72134043 9.7059322,6.279 C8.56016949,6.04040426 7.41484746,6.49034043 6.71328814,7.45276596 C6.62559322,7.57340426 6.54715254,7.69806383 6.47884746,7.82629787 C6.01613559,8.69310638 6.00027119,9.71540426 6.44138983,10.6041064 C6.45725424,10.6362766 6.46827119,10.6693404 6.48545763,10.7010638 L6.48545763,10.7015106 L6.48545763,10.7019574 C6.53569492,10.7948936 6.58857627,10.8878298 6.64630508,10.9847872 C6.91688136,11.4374043 7.23945763,11.8565106 7.60037288,12.2412128 C8.59586441,13.3032766 9.90071186,14.0847447 11.3456949,14.4515745 C11.4360339,14.4743617 11.5400339,14.5038511 11.6519661,14.5355745 C11.6792881,14.5431702 11.7039661,14.5503191 11.7326102,14.5583617 C12.5734237,14.7978511 13.9646441,15.1941702 16.0278983,15.1941702 C18.0611864,15.1941702 20.7471186,14.8090213 24.2020339,13.5097021 L24.3307119,13.7237234 C25.0362373,15.3469787 24.490678,17.5595745 24.2954576,18.2342553 L24.2954576,18.2342553 Z M15.8018305,14.2884894 C13.9738983,14.2607872 12.726339,13.9118298 11.9679322,13.6960213 C11.8564407,13.6647447 11.7586102,13.6370426 11.6660678,13.6124681 C11.6303729,13.6026383 11.5929153,13.5923617 11.5598644,13.5838723 C10.5498305,13.3274043 9.62176271,12.8399362 8.84088136,12.1884894 C8.2719661,11.7135319 7.77884746,11.1545745 7.40030508,10.521 C7.34962712,10.4361064 7.3020339,10.3534468 7.2579661,10.2707872 C7.10989831,9.99689362 7.02616949,9.702 7.00589831,9.40487234 C6.97152542,8.90980851 7.11254237,8.40759574 7.42233898,7.98223404 C7.47962712,7.90359574 7.54176271,7.83165957 7.60698305,7.76285106 C7.62769492,7.74095745 7.64972881,7.72174468 7.67088136,7.70119149 C7.71759322,7.65606383 7.76518644,7.6122766 7.81454237,7.57206383 C7.84054237,7.55106383 7.86698305,7.53140426 7.89342373,7.51174468 C7.94277966,7.47555319 7.99345763,7.44159574 8.04501695,7.41031915 C8.07233898,7.39378723 8.09922034,7.37680851 8.12698305,7.36161702 C8.1860339,7.329 8.24728814,7.30085106 8.30898305,7.27448936 C8.33057627,7.26510638 8.35172881,7.25438298 8.37332203,7.24589362 C8.4579322,7.2132766 8.54430508,7.18602128 8.63244068,7.16502128 C8.64830508,7.16144681 8.66461017,7.15965957 8.68047458,7.15653191 C8.75274576,7.14089362 8.82633898,7.12882979 8.90037288,7.12168085 C8.93077966,7.11855319 8.96162712,7.11765957 8.99247458,7.11631915 C9.04447458,7.1136383 9.09647458,7.11319149 9.14935593,7.11453191 C9.27494915,7.11721277 9.40186441,7.12748936 9.52877966,7.15385106 C10.1073898,7.27448936 10.6229831,7.34553191 11.0826102,7.3817234 C11.2377288,10.5245745 13.1092881,13.1339362 15.8018305,14.2884894 L15.8018305,14.2884894 Z M25.0005424,11.9503404 C24.9322373,12.1625745 24.7885763,12.3220851 24.596,12.399383 C24.3721356,12.4891915 24.1610508,12.5638085 23.9437966,12.6455745 C23.6450169,12.7581702 23.3484407,12.8685319 23.062,12.9677234 C22.9425763,13.0088298 22.8275593,13.0450213 22.7098983,13.0838936 C22.4212542,13.1795106 22.1343729,13.2728936 21.8580678,13.3555532 C21.7558305,13.3859362 21.6584407,13.4118511 21.5579661,13.4404468 C21.2750508,13.5213191 20.9947797,13.5995106 20.7246441,13.6669787 C20.642678,13.6875319 20.564678,13.7040638 20.4840339,13.7232766 C20.2042034,13.7902979 19.9274576,13.8537447 19.6621695,13.9073617 C19.6017966,13.9194255 19.5445085,13.9288085 19.4845763,13.9404255 C19.3008136,13.9757234 19.1232203,14.0056596 18.9460678,14.0351489 C15.1685763,14.0324681 12.1873898,11.1554681 11.9644068,7.40674468 C12.8373898,7.39378723 13.4486102,7.25751064 13.8518305,7.16368085 L13.9686102,7.13642553 C14.2559322,7.07074468 14.5331186,6.96261702 14.7922373,6.81606383 L19.1095593,4.37291489 C19.11,4.37291489 19.11,4.37246809 19.1104407,4.37246809 L19.5868136,4.10304255 C19.9613898,3.90108511 20.4280678,4.02797872 20.6532542,4.38944681 L24.9128475,11.2274043 C25.0446102,11.4400851 25.077661,11.7104043 25.0005424,11.9503404 L25.0005424,11.9503404 Z" id="Shape"></path>
                                </g>
                            </g>
                        </g>
                    </g>
                </g>
            </g>
        </g>
    </g>
</svg>