<?xml version="1.0" encoding="UTF-8" standalone="no"?>
<svg width="23px" height="25px" viewBox="0 0 23 25" version="1.1" xmlns="http://www.w3.org/2000/svg" xmlns:xlink="http://www.w3.org/1999/xlink">
    <!-- Generator: Sketch 39.1 (31720) - http://www.bohemiancoding.com/sketch -->
    <title>calendar</title>
    <desc>Created with Sketch.</desc>
    <defs></defs>
    <g id="Page-1" stroke="none" stroke-width="1" fill="none" fill-rule="evenodd" opacity="0.478603078">
        <g id="polis812_vzr_step1" transform="translate(-439.000000, -491.000000)" fill="#000000">
            <g id="insurance" transform="translate(131.000000, 258.000000)">
                <g id="background-form" transform="translate(4.000000, 47.000000)">
                    <g id="date" transform="translate(100.000000, 171.000000)">
                        <g id="calendar" transform="translate(204.000000, 15.000000)">
                            <g id="Capa_1">
                                <g id="Group">
                                    <path d="M22.5892857,1.66666667 L19.7142857,1.66666667 L19.7142857,0.416666667 C19.7142857,0.18625 19.5306964,0 19.3035714,0 L16.4285714,0 C16.2014464,0 16.0178571,0.18625 16.0178571,0.416666667 L16.0178571,1.66666667 L6.98214286,1.66666667 L6.98214286,0.416666667 C6.98214286,0.18625 6.79855357,0 6.57142857,0 L3.69642857,0 C3.46930357,0 3.28571429,0.18625 3.28571429,0.416666667 L3.28571429,1.66666667 L0.410714286,1.66666667 C0.183589286,1.66666667 0,1.85291667 0,2.08333333 L0,6.66666667 L0,24.5833333 C0,24.81375 0.183589286,25 0.410714286,25 L22.5892857,25 C22.8164107,25 23,24.81375 23,24.5833333 L23,6.66666667 L23,2.08333333 C23,1.85291667 22.8164107,1.66666667 22.5892857,1.66666667 L22.5892857,1.66666667 Z M16.8392857,0.833333333 L18.8928571,0.833333333 L18.8928571,2.08333333 L18.8928571,3.33333333 L16.8392857,3.33333333 L16.8392857,2.08333333 L16.8392857,0.833333333 L16.8392857,0.833333333 Z M4.10714286,0.833333333 L6.16071429,0.833333333 L6.16071429,2.08333333 L6.16071429,3.33333333 L4.10714286,3.33333333 L4.10714286,2.08333333 L4.10714286,0.833333333 L4.10714286,0.833333333 Z M0.821428571,2.5 L3.28571429,2.5 L3.28571429,3.75 C3.28571429,3.98041667 3.46930357,4.16666667 3.69642857,4.16666667 L6.57142857,4.16666667 C6.79855357,4.16666667 6.98214286,3.98041667 6.98214286,3.75 L6.98214286,2.5 L16.0178571,2.5 L16.0178571,3.75 C16.0178571,3.98041667 16.2014464,4.16666667 16.4285714,4.16666667 L19.3035714,4.16666667 C19.5306964,4.16666667 19.7142857,3.98041667 19.7142857,3.75 L19.7142857,2.5 L22.1785714,2.5 L22.1785714,6.25 L0.821428571,6.25 L0.821428571,2.5 L0.821428571,2.5 Z M0.821428571,24.1666667 L0.821428571,7.08333333 L22.1785714,7.08333333 L22.1785714,24.1666667 L0.821428571,24.1666667 L0.821428571,24.1666667 Z" id="Shape"></path>
                                    <path d="M14.7857143,9.58333333 L11.9107143,9.58333333 L11.0892857,9.58333333 L8.21428571,9.58333333 L7.39285714,9.58333333 L3.69642857,9.58333333 L3.69642857,13.3333333 L3.69642857,14.1666667 L3.69642857,17.0833333 L3.69642857,17.9166667 L3.69642857,21.6666667 L7.39285714,21.6666667 L8.21428571,21.6666667 L11.0892857,21.6666667 L11.9107143,21.6666667 L14.7857143,21.6666667 L15.6071429,21.6666667 L19.3035714,21.6666667 L19.3035714,17.9166667 L19.3035714,17.0833333 L19.3035714,14.1666667 L19.3035714,13.3333333 L19.3035714,9.58333333 L15.6071429,9.58333333 L14.7857143,9.58333333 L14.7857143,9.58333333 Z M11.9107143,10.4166667 L14.7857143,10.4166667 L14.7857143,13.3333333 L11.9107143,13.3333333 L11.9107143,10.4166667 L11.9107143,10.4166667 Z M14.7857143,17.0833333 L11.9107143,17.0833333 L11.9107143,14.1666667 L14.7857143,14.1666667 L14.7857143,17.0833333 L14.7857143,17.0833333 Z M8.21428571,14.1666667 L11.0892857,14.1666667 L11.0892857,17.0833333 L8.21428571,17.0833333 L8.21428571,14.1666667 L8.21428571,14.1666667 Z M8.21428571,10.4166667 L11.0892857,10.4166667 L11.0892857,13.3333333 L8.21428571,13.3333333 L8.21428571,10.4166667 L8.21428571,10.4166667 Z M4.51785714,10.4166667 L7.39285714,10.4166667 L7.39285714,13.3333333 L4.51785714,13.3333333 L4.51785714,10.4166667 L4.51785714,10.4166667 Z M4.51785714,14.1666667 L7.39285714,14.1666667 L7.39285714,17.0833333 L4.51785714,17.0833333 L4.51785714,14.1666667 L4.51785714,14.1666667 Z M7.39285714,20.8333333 L4.51785714,20.8333333 L4.51785714,17.9166667 L7.39285714,17.9166667 L7.39285714,20.8333333 L7.39285714,20.8333333 Z M11.0892857,20.8333333 L8.21428571,20.8333333 L8.21428571,17.9166667 L11.0892857,17.9166667 L11.0892857,20.8333333 L11.0892857,20.8333333 Z M14.7857143,20.8333333 L11.9107143,20.8333333 L11.9107143,17.9166667 L14.7857143,17.9166667 L14.7857143,20.8333333 L14.7857143,20.8333333 Z M18.4821429,20.8333333 L15.6071429,20.8333333 L15.6071429,17.9166667 L18.4821429,17.9166667 L18.4821429,20.8333333 L18.4821429,20.8333333 Z M18.4821429,17.0833333 L15.6071429,17.0833333 L15.6071429,14.1666667 L18.4821429,14.1666667 L18.4821429,17.0833333 L18.4821429,17.0833333 Z M18.4821429,10.4166667 L18.4821429,13.3333333 L15.6071429,13.3333333 L15.6071429,10.4166667 L18.4821429,10.4166667 L18.4821429,10.4166667 Z" id="Shape"></path>
                                </g>
                            </g>
                        </g>
                    </g>
                </g>
            </g>
        </g>
    </g>
</svg>