<?xml version="1.0" encoding="UTF-8" standalone="no"?>
<svg width="22px" height="26px" viewBox="0 0 22 26" version="1.1" xmlns="http://www.w3.org/2000/svg" xmlns:xlink="http://www.w3.org/1999/xlink">
    <!-- Generator: Sketch 39.1 (31720) - http://www.bohemiancoding.com/sketch -->
    <title>city-hall-major</title>
    <desc>Created with Sketch.</desc>
    <defs></defs>
    <g id="формы" stroke="none" stroke-width="1" fill="none" fill-rule="evenodd" opacity="0.49609375">
        <g id="polis812_osago_step2_self" transform="translate(-251.000000, -1559.000000)" fill="#030104">
            <g id="visa" transform="translate(132.000000, 258.000000)">
                <g id="background-form" transform="translate(4.000000, 94.000000)">
                    <g id="АВТО" transform="translate(100.000000, 720.000000)">
                        <g id="безаварийность-copy-6" transform="translate(0.000000, 444.000000)">
                            <g id="city-hall-major" transform="translate(15.000000, 43.000000)">
                                <g id="Capa_1">
                                    <g id="Group">
                                        <path d="M20.9531667,9.63963 L10.7127778,9.63963 L0.9295,9.63963 C0.679555556,9.63963 0.471166667,9.84861429 0.471166667,10.0992729 L0.471166667,12.4121957 C0.471166667,12.6628543 0.679555556,12.8718386 0.9295,12.8718386 L3.60005556,12.8718386 L3.60005556,23.0232043 L2.28861111,23.0232043 C2.03866667,23.0232043 1.83027778,23.2321886 1.83027778,23.4828471 L1.83027778,25.2043629 C1.83027778,25.4556343 2.03866667,25.6640057 2.28861111,25.6640057 L5.16511111,25.6640057 C5.14433333,25.7130343 17.4075,25.7007771 17.4007778,25.6633929 L19.9338333,25.6633929 C20.1831667,25.6633929 20.3921667,25.4550214 20.3921667,25.20375 L20.3921667,23.4822343 C20.3921667,23.2315757 20.1831667,23.0225914 19.9338333,23.0225914 L18.8387222,23.0225914 L18.8387222,23.4822343 C18.8381111,23.3284071 18.8381111,23.1758057 18.8381111,23.0225914 C18.8387222,19.6390071 18.8387222,16.25481 18.8387222,12.8712257 C18.8381111,12.7823614 18.8381111,12.6934971 18.8381111,12.6046329 L18.8381111,12.4121957 C18.8387222,12.4759329 18.8387222,12.5402829 18.8387222,12.6046329 L18.8387222,12.8712257 L20.955,12.8712257 C21.0796667,12.8712257 21.1713333,12.8246486 21.2446667,12.7602986 C21.1444444,12.8338414 21.0142778,12.8644843 20.8914444,12.8503886 C21.0142778,12.8644843 21.1444444,12.8338414 21.2434444,12.7602986 C21.2874444,12.7265914 21.2911111,12.7143343 21.2996667,12.7057543 C21.5001111,12.4416129 21.3870556,11.95194 20.955,11.95194 C21.3876667,11.95194 21.5007222,12.4416129 21.2996667,12.7057543 C21.3650556,12.6328243 21.4139444,12.5390571 21.4139444,12.4115829 C21.4115,11.6412214 21.4115,10.8702471 21.4115,10.0992729 C21.4115,9.84861429 21.2031111,9.63963 20.9531667,9.63963 Z M13.8190556,24.0724157 C13.8196667,24.0724157 13.8190556,24.0718029 13.8190556,24.0724157 C13.9284444,24.0577071 14.0384444,24.0436114 14.1472222,24.0301286 C14.0390556,24.0442243 13.9290556,24.05832 13.8190556,24.0724157 L13.8190556,24.0724157 Z M13.4462778,23.0238171 L13.4462778,23.0238171 L13.4432222,23.0238171 L13.4462778,23.0238171 C13.7200556,22.7553857 13.959,22.4489571 14.1521111,22.1413029 C14.7742222,21.1527643 15.0168333,19.9331786 15.0284444,18.7785557 C15.0284444,18.7754914 15.0296667,18.77304 15.0296667,18.7705886 C15.0131667,17.0202686 14.4075556,15.0045814 12.8296667,14.0485243 L12.8296667,12.8724514 L15.6145,12.8724514 L15.6145,23.0238171 L13.4462778,23.0238171 L13.4462778,23.0238171 Z M12.8296667,15.6511457 C13.0331667,15.8969014 13.1975556,16.1745257 13.3307778,16.4662457 C13.464,16.7579657 13.5666667,17.0662329 13.6448889,17.3732743 C13.7616111,17.8316914 13.8025556,18.2986886 13.8074444,18.7699757 C13.7982778,19.7621914 13.5397778,21.0969943 12.8296667,21.9268029 L12.8296667,21.9274157 C12.5821667,22.2172971 12.2796667,22.4458929 11.913,22.5764314 C11.814,22.61259 11.7107222,22.6401686 11.6025556,22.6616186 C11.2120556,22.7351614 10.8405,22.5831729 10.5239444,22.3521257 L10.5239444,23.48346 C10.5239444,23.5545514 10.5031667,23.62074 10.4732222,23.6814129 L10.4726111,23.6814129 C10.5031667,23.6201271 10.5233333,23.5545514 10.5233333,23.4828471 C10.5239444,23.10594 10.5239444,22.7290329 10.5239444,22.3515129 C10.3326667,22.2111686 10.1609444,22.0426329 10.0179444,21.8765486 C9.85538889,21.6871757 9.724,21.4696114 9.60727778,21.2410157 L9.60727778,21.2404029 C9.33227778,20.7023143 9.17094444,20.0863929 9.1025,19.51521 C9.07255556,19.2645514 9.05788889,18.9979586 9.05972222,18.7252371 C9.06583333,17.9040086 9.22655556,17.0153657 9.60727778,16.2817757 C9.82972222,15.8533886 10.1358889,15.4887386 10.5239444,15.2141786 C10.6333333,15.1369586 10.7366111,15.05361 10.8606667,14.9929371 C11.1943333,14.8299171 11.5713889,14.8415614 11.913,14.9622943 C12.1140556,15.0327729 12.3035,15.1412486 12.463,15.2730129 C12.6005,15.3857786 12.7172222,15.5157043 12.8296667,15.6511457 L12.8296667,15.6511457 Z M9.60727778,12.8724514 L9.60727778,14.3880471 C9.262,14.6705743 8.95766667,15.0168386 8.71627778,15.4004871 C8.06788889,16.4319257 7.79044444,17.7115714 7.83261111,18.9667029 C7.85827778,19.7199043 7.99822222,20.4639129 8.24266667,21.14112 C8.28544444,21.2587886 8.338,21.3733929 8.38933333,21.48861 C8.5745,21.9084171 8.80855556,22.3043229 9.09455556,22.6493614 C9.20455556,22.7811257 9.31944444,22.9079871 9.44288889,23.0219786 L9.60727778,23.0219786 L9.60727778,23.0225914 L9.44288889,23.0225914 C9.44288889,23.0225914 9.4435,23.0225914 9.4435,23.0232043 C8.569,23.0225914 7.69694444,23.0225914 6.82305556,23.0225914 L6.82305556,12.8718386 L6.82305556,12.8712257 C7.75133333,12.8718386 8.679,12.8718386 9.60727778,12.8724514 L9.60727778,12.8724514 L9.60727778,12.8724514 Z M20.4942222,11.9525529 L18.3785556,11.9525529 C18.1286111,11.9525529 17.9202222,12.1615371 17.9202222,12.4121957 L17.9202222,23.29041 L17.9202222,23.4828471 C17.9202222,23.7335057 18.1286111,23.94249 18.3785556,23.94249 L19.4730556,23.94249 L19.4736667,23.94249 L19.4736667,24.74472 L19.4730556,24.74472 L16.3539444,24.74472 L16.3527222,24.74472 C16.2500556,24.67179 16.1486111,24.6000857 16.0459444,24.5277686 C15.7703333,24.3334929 15.4959444,24.1379914 15.2203333,23.9437157 L16.0722222,23.9437157 C16.3209444,23.9437157 16.5305556,23.7347314 16.5305556,23.4840729 L16.5305556,12.6064714 L16.5305556,12.4134214 C16.5305556,12.1627629 16.3209444,11.9537786 16.0722222,11.9537786 L12.3701111,11.9537786 C12.1201667,11.9537786 11.9117778,12.1627629 11.9117778,12.4134214 L11.9117778,13.6912286 C11.4345,13.6072671 10.9627222,13.6710043 10.5227222,13.8426043 L10.5227222,12.6058586 L10.5227222,12.4128086 C10.5227222,12.16215 10.3143333,11.9531657 10.0643889,11.9531657 L6.3635,11.9531657 C6.237,11.9531657 6.14288889,12.0009686 6.07077778,12.0671571 C6.061,12.0745114 6.05061111,12.08064 6.04205556,12.08922 C6.03227778,12.0996386 6.02555556,12.1112829 6.017,12.1229271 C5.95222222,12.1952443 5.90577778,12.2883986 5.90577778,12.4134214 L5.90577778,23.2916357 L5.90577778,23.48346 C5.90577778,23.7341186 6.11416667,23.9431029 6.36411111,23.9431029 L7.53988889,23.9431029 L7.54111111,23.9431029 C7.29666667,24.1079614 7.05222222,24.2734329 6.80777778,24.4382914 C6.65622222,24.5412514 6.50527778,24.6429857 6.35372222,24.74472 L6.35372222,24.74472 L6.35311111,24.74472 L2.74694444,24.74472 L2.74694444,25.2043629 L2.74633333,25.2043629 L2.74633333,24.74472 L2.74694444,24.74472 L2.74694444,23.94249 L2.74633333,23.94249 L2.74633333,23.48346 L2.74694444,23.4828471 L2.74694444,23.94249 L4.05716667,23.94249 L4.05838889,23.94249 C4.30833333,23.94249 4.51672222,23.7335057 4.51672222,23.4828471 L4.51672222,12.6052457 L4.51672222,12.4121957 C4.51672222,12.1615371 4.30833333,11.9525529 4.05838889,11.9525529 L4.05716667,11.9525529 L1.38783333,11.9525529 L1.38783333,12.4121957 L1.38722222,12.4115829 L1.38722222,11.9525529 L1.38783333,11.9525529 L1.38783333,10.5589157 L1.38722222,10.5589157 L1.38722222,10.0998857 L1.38783333,10.0992729 L1.38783333,10.5589157 L11.1686667,10.5589157 L11.1698889,10.5589157 L20.4936111,10.5589157 L20.4942222,10.5589157 L20.4948333,10.5589157 C20.4954444,11.0234614 20.4954444,11.4880071 20.4954444,11.9525529 L20.4942222,11.9525529 L20.4942222,11.9525529 Z M20.4954444,10.0998857 L20.4954444,10.0998857 C20.6482222,10.2524871 20.801,10.4057014 20.9531667,10.5589157 C20.8003889,10.4057014 20.6482222,10.2531 20.4954444,10.0998857 L20.4954444,10.0998857 Z" id="Shape"></path>
                                        <path d="M0.787111111,8.66763857 L11.0232222,8.66763857 L20.8529444,8.66763857 C20.999,8.71728 21.1322222,8.66947714 21.2293889,8.56651714 C21.4530556,8.38143429 21.4432778,7.98859286 21.1963889,7.82496 C21.1915,7.82067 21.1902778,7.81515429 21.1841667,7.81086429 C18.1726111,5.49732857 15.1616667,3.18440571 12.1501111,0.87087 C11.7999444,0.602438571 11.4503889,0.334007143 11.1008333,0.0655757143 C10.9865556,-0.0220628571 10.7525,-0.0220628571 10.6382222,0.0655757143 C7.62666667,2.37911143 4.61511111,4.69203429 1.60355556,7.00557 C1.254,7.27400143 0.904444444,7.54243286 0.554888889,7.81086429 C0.215722222,8.07194143 0.290277778,8.66763857 0.787111111,8.66763857 L0.787111111,8.66763857 Z M10.0527778,1.66452 C10.3253333,1.45553571 10.5978889,1.24593857 10.8698333,1.03695429 C13.7823889,3.27388286 16.6943333,5.51081143 19.6062778,7.74774 L10.7170556,7.74774 L2.13338889,7.74774 C4.77338889,5.71979571 7.41277778,3.69246429 10.0527778,1.66452 L10.0527778,1.66452 Z" id="Shape"></path>
                                    </g>
                                </g>
                            </g>
                        </g>
                    </g>
                </g>
            </g>
        </g>
    </g>
</svg>