<?xml version="1.0" encoding="UTF-8" standalone="no"?>
<svg width="41px" height="32px" viewBox="0 0 41 32" version="1.1" xmlns="http://www.w3.org/2000/svg" xmlns:xlink="http://www.w3.org/1999/xlink">
    <!-- Generator: Sketch 39.1 (31720) - http://www.bohemiancoding.com/sketch -->
    <title>Group 3</title>
    <desc>Created with Sketch.</desc>
    <defs></defs>
    <g id="формы" stroke="none" stroke-width="1" fill="none" fill-rule="evenodd">
        <g id="polis812_mainpage" transform="translate(-735.000000, -2012.000000)" fill="#79C930">
            <g id="contacts" transform="translate(0.000000, 1862.000000)">
                <g id="sky" transform="translate(735.000000, 150.000000)">
                    <g id="Capa_1">
                        <g id="wb-cloudy">
                            <g id="Group-3">
                                <path d="M33.1416667,10.125 C31.9458333,4.3875 26.8208333,0 20.5,0 C15.5458333,0 11.275,2.7 9.225,6.75 C3.92916667,7.425 0,11.64375 0,16.875 C0,22.44375 4.6125,27 10.25,27 L32.4583333,27 C37.2416667,27 41,23.2875 41,18.5625 C41,14.175 37.4125,10.4625 33.1416667,10.125 L33.1416667,10.125 Z" id="Shape"></path>
                                <polygon id="Triangle" transform="translate(6.250000, 27.250000) rotate(180.000000) translate(-6.250000, -27.250000) " points="12.5 23 10 31.5 0 27.5"></polygon>
                            </g>
                        </g>
                    </g>
                </g>
            </g>
        </g>
    </g>
</svg>