<?xml version="1.0" encoding="UTF-8" standalone="no"?>
<svg width="29px" height="31px" viewBox="0 0 29 31" version="1.1" xmlns="http://www.w3.org/2000/svg" xmlns:xlink="http://www.w3.org/1999/xlink">
    <!-- Generator: Sketch 39.1 (31720) - http://www.bohemiancoding.com/sketch -->
    <title>pdf</title>
    <desc>Created with Sketch.</desc>
    <defs></defs>
    <g id="формы" stroke="none" stroke-width="1" fill="none" fill-rule="evenodd">
        <g id="polis812_viza_step2" transform="translate(-1176.000000, -1589.000000)" fill="#FFFFFF">
            <g id="visa" transform="translate(131.000000, 258.000000)">
                <g id="background-form" transform="translate(4.000000, 93.000000)">
                    <g id="FILES" transform="translate(670.000000, 259.000000)">
                        <g id="pdf" transform="translate(371.000000, 979.000000)">
                            <g id="Layer_1">
                                <path d="M28.789031,8.38919336 L20.9734711,0.182730469 C20.8622045,0.0659960937 20.7086963,0 20.5483574,0 L8.89982438,0 C7.59620248,0 6.53560537,1.07131641 6.53560537,2.38808984 L6.53560537,10.7307832 L1.81489669,10.7307832 C0.839561983,10.7307832 0.0460764463,11.5323633 0.0460764463,12.5177031 L0.0460764463,21.4631406 C0.0460764463,22.4484199 0.839561983,23.25 1.81489669,23.25 L6.53560537,23.25 L6.53560537,28.6160879 C6.53560537,29.9305605 7.59620248,31 8.89982438,31 L26.5897045,31 C27.8933264,31 28.9539236,29.931166 28.9539236,28.6174199 L28.9539236,8.80260742 C28.9539236,8.64845508 28.8947851,8.50029687 28.789031,8.38919336 L28.789031,8.38919336 Z M20.6945558,1.60939648 L27.1104463,8.34614453 L20.6945558,8.34614453 L20.6945558,1.60939648 L20.6945558,1.60939648 Z M1.81489669,22.0577109 C1.49014463,22.0577109 1.22602893,21.791002 1.22602893,21.4631406 L1.22602893,12.5177031 C1.22602893,12.1898418 1.49020455,11.9230723 1.81489669,11.9230723 L17.745843,11.9230723 C18.070595,11.9230723 18.3347107,12.1898418 18.3347107,12.5177031 L18.3347107,21.4631406 C18.3347107,21.791002 18.0705351,22.0577109 17.745843,22.0577109 L1.81489669,22.0577109 L1.81489669,22.0577109 Z M27.7739711,28.6174199 C27.7739711,29.273748 27.2426839,29.8077109 26.5896446,29.8077109 L8.89982438,29.8077109 C8.24678512,29.8077109 7.71549793,29.2732031 7.71549793,28.6161484 L7.71549793,23.25 L17.745843,23.25 C18.7211777,23.25 19.5146632,22.4484199 19.5146632,21.4631406 L19.5146632,12.5177031 C19.5146632,11.5323633 18.7211777,10.7307832 17.745843,10.7307832 L7.71549793,10.7307832 L7.71549793,2.38808984 C7.71549793,1.72867383 8.24678512,1.19228906 8.89982438,1.19228906 L19.5146033,1.19228906 L19.5146033,8.94228906 C19.5146033,9.27154297 19.7787789,9.53843359 20.1045496,9.53843359 L27.7739711,9.53843359 L27.7739711,28.6174199 L27.7739711,28.6174199 Z" id="Shape"></path>
                                <path d="M7.09906818,15.1303008 C6.90319835,14.8729766 6.66005372,14.7058672 6.36969421,14.6290332 C6.18071488,14.5778105 5.7751343,14.5521992 5.15289256,14.5521992 L3.51091736,14.5521992 L3.51091736,19.6730723 L4.53412603,19.6730723 L4.53412603,17.7413848 L5.20130579,17.7413848 C5.66452686,17.7413848 6.01827893,17.7169238 6.26256198,17.668002 C6.44231405,17.6284043 6.61919008,17.5475137 6.79319008,17.425209 C6.96719008,17.3029648 7.11063223,17.1347051 7.22357645,16.9204902 C7.33652066,16.7062754 7.39296281,16.4419277 7.39296281,16.1275684 C7.39290289,15.7200273 7.29493802,15.387625 7.09906818,15.1303008 L7.09906818,15.1303008 Z M6.22277686,16.5397715 C6.14560331,16.6539023 6.03901033,16.7376992 5.90299793,16.7912832 C5.76698554,16.8448672 5.49741736,16.8716289 5.09411364,16.8716289 L4.53412603,16.8716289 L4.53412603,15.4185039 L5.02844421,15.4185039 C5.39717562,15.4185039 5.64259711,15.4301289 5.76470868,15.4534395 C5.93061983,15.4837129 6.06777066,15.5593965 6.17604132,15.6804902 C6.2843719,15.801584 6.33853719,15.9553125 6.33853719,16.1415547 C6.33859711,16.2929219 6.29995041,16.4256406 6.22277686,16.5397715 L6.22277686,16.5397715 Z" id="Shape"></path>
                                <path d="M12.3118781,15.9511953 C12.2012707,15.624 12.0399132,15.3474824 11.8279256,15.121582 C11.615938,14.8956816 11.3612293,14.738502 11.0639793,14.6499824 C10.8427645,14.5847734 10.5212479,14.5521992 10.0995496,14.5521992 L8.22940909,14.5521992 L8.22940909,19.6730723 L10.1548533,19.6730723 C10.532812,19.6730723 10.8346756,19.6369863 11.0605041,19.5647539 C11.3624277,19.4669707 11.6020971,19.3307402 11.7795124,19.1560625 C12.0145682,18.9255 12.1954587,18.6239766 12.3222438,18.2513711 C12.4259607,17.9462754 12.4777893,17.5829941 12.4777893,17.1615273 C12.4777893,16.6818145 12.4224855,16.2783906 12.3118781,15.9511953 L12.3118781,15.9511953 Z M11.3162913,18.0540488 C11.2471467,18.2834609 11.1578698,18.448209 11.0484008,18.548293 C10.9389318,18.6484375 10.8012417,18.719459 10.6353306,18.7613574 C10.5086054,18.7939922 10.3023099,18.8102793 10.016564,18.8102793 L9.25261777,18.8102793 L9.25261777,18.8102793 L9.25261777,15.4185039 L9.71236364,15.4185039 C10.1294483,15.4185039 10.4095021,15.434791 10.552345,15.4674258 C10.7436012,15.5093242 10.9014835,15.5896699 11.0259318,15.7084629 C11.1503802,15.8272559 11.2471467,15.9925488 11.3162913,16.2044629 C11.385436,16.416377 11.4200083,16.7202617 11.4200083,17.1161777 C11.4200083,17.5120332 11.385436,17.8246367 11.3162913,18.0540488 L11.3162913,18.0540488 Z" id="Shape"></path>
                                <polygon id="Shape" points="16.8264112 15.4185039 16.8264112 14.5521992 13.352343 14.5521992 13.352343 19.6730723 14.3755517 19.6730723 14.3755517 17.4968965 16.4911136 17.4968965 16.4911136 16.6305918 14.3755517 16.6305918 14.3755517 15.4185039"></polygon>
                            </g>
                        </g>
                    </g>
                </g>
            </g>
        </g>
    </g>
</svg>