<?xml version="1.0" encoding="UTF-8" standalone="no"?>
<svg width="21px" height="21px" viewBox="0 0 21 21" version="1.1" xmlns="http://www.w3.org/2000/svg" xmlns:xlink="http://www.w3.org/1999/xlink">
    <!-- Generator: Sketch 39.1 (31720) - http://www.bohemiancoding.com/sketch -->
    <title>Group 2</title>
    <desc>Created with Sketch.</desc>
    <defs>
        <rect id="path-1" x="0" y="0" width="20.9508249" height="20.2749919" rx="5"></rect>
        <mask id="mask-2" maskContentUnits="userSpaceOnUse" maskUnits="objectBoundingBox" x="0" y="0" width="20.9508249" height="20.2749919" fill="white">
            <use xlink:href="#path-1"></use>
        </mask>
        <mask id="mask-4" maskContentUnits="userSpaceOnUse" maskUnits="objectBoundingBox" x="0" y="0" width="20.9508249" height="20.2749919" fill="white">
            <use xlink:href="#path-1"></use>
        </mask>
    </defs>
    <g id="Page-1" stroke="none" stroke-width="1" fill="none" fill-rule="evenodd">
        <g id="polis812_vzr_step2-copy" transform="translate(-1060.000000, -1000.000000)">
            <g id="insurance" transform="translate(135.000000, 369.000000)">
                <g id="Group-2" transform="translate(925.000000, 631.000000)">
                    <mask id="mask-3" fill="white">
                        <use xlink:href="#path-1"></use>
                    </mask>
                    <g id="Rectangle-18" stroke="#D5D9DB" mask="url(#mask-2)" stroke-width="2" fill="#25B7D3">
                        <use mask="url(#mask-4)" xlink:href="#path-1"></use>
                    </g>
                    <path d="M16.5173207,5.30250127 C16.9186421,4.90117981 17.5658174,4.89768442 17.9690629,5.30092996 L17.9690629,5.30092996 C18.3695166,5.70138362 18.3724832,6.34768067 17.9674916,6.75267223 L9.7529988,14.9671651 C9.35167734,15.3684865 8.70450207,15.3719819 8.30125653,14.9687364 L8.30125653,14.9687364 C7.90080288,14.5682827 7.89783627,13.9219857 8.30282784,13.5169941 L16.5173207,5.30250127" id="Rectangle-20" fill="#FFFFFF" mask="url(#mask-3)"></path>
                    <path d="M3.29986453,10.7471805 C2.90060016,10.3479161 2.89877239,9.70240847 3.30201793,9.29916293 L3.30201793,9.29916293 C3.70247158,8.89870927 4.35559346,8.90256749 4.75003549,9.29700952 L9.10485518,13.6518292 C9.50411954,14.0510936 9.50594732,14.6966012 9.10270178,15.0998468 L9.10270178,15.0998468 C8.70224812,15.5003004 8.04912625,15.4964422 7.65468422,15.1020002 L3.29986453,10.7471805" id="Rectangle-20" fill="#FFFFFF" mask="url(#mask-3)"></path>
                </g>
            </g>
        </g>
    </g>
</svg>