<?xml version="1.0" encoding="UTF-8" standalone="no"?>
<svg width="20px" height="20px" viewBox="0 0 20 20" version="1.1" xmlns="http://www.w3.org/2000/svg" xmlns:xlink="http://www.w3.org/1999/xlink">
    <!-- Generator: Sketch 39.1 (31720) - http://www.bohemiancoding.com/sketch -->
    <title>parking</title>
    <desc>Created with Sketch.</desc>
    <defs></defs>
    <g id="статика" stroke="none" stroke-width="1" fill="none" fill-rule="evenodd">
        <g id="polis812_contacts" transform="translate(-135.000000, -943.000000)" fill="#79C930">
            <g id="viza_price_v2" transform="translate(-5.000000, 208.000000)">
                <g id="contacts">
                    <g id="zavod" transform="translate(140.000000, 592.000000)">
                        <g id="icons" transform="translate(0.000000, 142.000000)">
                            <g id="parking" transform="translate(0.000000, 1.000000)">
                                <g id="Capa_1">
                                    <g id="Group">
                                        <path d="M13.6487885,4.31313929 C12.7679671,3.59879418 11.4529363,3.24149688 9.61002053,3.24149688 C8.24517454,3.24149688 7.17708419,3.30744283 6.33967146,3.40781705 C5.90061602,3.46012474 5.56997947,3.837921 5.56997947,4.28586279 L5.56997947,15.2253638 C5.56997947,16.0532225 6.23252567,16.7243659 7.05051335,16.7243659 C7.86833676,16.7243659 8.53088296,16.0532225 8.53088296,15.2253638 L8.53088296,11.9383784 C8.80505133,11.9788773 9.15782341,11.9981705 9.55211499,11.9981705 C11.3153593,11.9981705 12.8263655,11.5614137 13.8456263,10.5883992 C14.6310472,9.83388773 15.062423,8.72137214 15.062423,7.41093555 C15.062423,6.10058212 14.4938809,4.98898129 13.6487885,4.31313929 L13.6487885,4.31313929 Z M9.53014374,9.6750104 C9.09942505,9.6750104 8.78562628,9.65600832 8.53088296,9.59575884 L8.53088296,5.64370062 C8.74599589,5.58424116 9.15782341,5.52544699 9.76722793,5.52544699 C11.2567556,5.52544699 12.1000821,6.26008316 12.1000821,7.49076923 C12.1000821,8.86112266 11.1190965,9.6750104 9.53014374,9.6750104 L9.53014374,9.6750104 Z" id="Shape"></path>
                                        <path d="M16.9300205,0.00503118503 L3.0363039,0.00503118503 C1.36229979,0.00503118503 0,1.38399168 0,3.07920998 L0,16.8866944 C0,18.5820374 1.36229979,19.9610395 3.0363039,19.9610395 L16.9300616,19.9610395 C18.60423,19.9610395 19.9665298,18.582079 19.9665298,16.8866944 L19.9665298,3.07920998 C19.9664887,1.38399168 18.6041889,0.00503118503 16.9300205,0.00503118503 L16.9300205,0.00503118503 Z M17.9706776,16.8866944 C17.9706776,17.4679002 17.5036961,17.940499 16.9300205,17.940499 L3.0363039,17.940499 C2.46279261,17.940499 1.99564682,17.4679002 1.99564682,16.8866944 L1.99564682,3.07920998 C1.99564682,2.49821206 2.46279261,2.02557173 3.0363039,2.02557173 L16.9300616,2.02557173 C17.5037372,2.02557173 17.9707187,2.49821206 17.9707187,3.07920998 L17.9706776,16.8866944 L17.9706776,16.8866944 L17.9706776,16.8866944 Z" id="Shape"></path>
                                    </g>
                                </g>
                            </g>
                        </g>
                    </g>
                </g>
            </g>
        </g>
    </g>
</svg>