<?xml version="1.0" encoding="UTF-8" standalone="no"?>
<svg width="30px" height="30px" viewBox="0 0 30 30" version="1.1" xmlns="http://www.w3.org/2000/svg" xmlns:xlink="http://www.w3.org/1999/xlink">
    <!-- Generator: Sketch 39.1 (31720) - http://www.bohemiancoding.com/sketch -->
    <title>Layer_1</title>
    <desc>Created with Sketch.</desc>
    <defs></defs>
    <g id="Page-1" stroke="none" stroke-width="1" fill="none" fill-rule="evenodd">
        <g id="polis812_vzr_step1" transform="translate(-135.000000, -296.000000)">
            <g id="insurance" transform="translate(131.000000, 258.000000)">
                <g id="TOP">
                    <g id="question" transform="translate(4.000000, 38.000000)">
                        <g id="Layer_1">
                            <path d="M29.9491751,14.9749497 C29.9491751,6.70400402 23.2448089,0.000181086519 14.974829,0.000181086519 C6.70442656,0.000181086519 0,6.70400402 0,14.9749497 C0,23.2446278 6.70442656,29.948994 14.974829,29.948994 C23.2448089,29.948994 29.9491751,23.2446278 29.9491751,14.9749497 L29.9491751,14.9749497 Z" id="Shape" fill="#3DB39E"></path>
                            <path d="M8.34301811,10.4783903 C8.34301811,9.6384507 8.61265594,8.78734406 9.15205231,7.92525151 C9.69126761,7.06315895 10.4783903,6.34919517 11.5128773,5.78323944 C12.5474245,5.21746479 13.7543662,4.93442656 15.1337022,4.93442656 C16.415674,4.93442656 17.5475855,5.17110664 18.5290744,5.6439839 C19.5105634,6.11710262 20.2685915,6.76038229 20.8037022,7.57376258 C21.3385714,8.38738431 21.6060966,9.27144869 21.6060966,10.2263783 C21.6060966,10.978008 21.4535614,11.6368612 21.1484909,12.2025755 C20.8434205,12.7685312 20.4807646,13.2570423 20.0608853,13.6681087 C19.6408249,14.0792958 18.8870825,14.7712274 17.7995372,15.7438431 C17.4988732,16.018008 17.2577867,16.2590342 17.0767002,16.4667404 C16.8953722,16.6745674 16.7604628,16.8646479 16.6721529,17.0369819 C16.583662,17.2094366 16.5150302,17.381831 16.4665594,17.5542857 C16.4178471,17.7266197 16.3449296,18.0296378 16.2477465,18.4627968 C16.0796982,19.3824748 15.5535211,19.8421932 14.6694567,19.8421932 C14.2096177,19.8421932 13.8226962,19.6919517 13.5089336,19.3912274 C13.1949899,19.0906841 13.0381087,18.6441247 13.0381087,18.05167 C13.0381087,17.3089135 13.1529175,16.6656338 13.3829577,16.1218913 C13.6128169,15.5780282 13.917827,15.1005634 14.2981087,14.689497 C14.6781489,14.2783099 15.1911066,13.7898592 15.8366197,13.2239034 C16.4023944,12.7288129 16.8114688,12.355171 17.0634809,12.103159 C17.315493,11.8511469 17.527666,11.5705835 17.7001207,11.2609256 C17.8725151,10.9515091 17.9587726,10.6155936 17.9587726,10.2529376 C17.9587726,9.54561368 17.6955936,8.94881288 17.1695976,8.46241449 C16.6434205,7.97625755 15.9647082,7.73293763 15.1337022,7.73293763 C14.1609054,7.73293763 13.4447082,7.97830986 12.9850503,8.46905433 C12.5252113,8.95979879 12.1362374,9.68263581 11.8178873,10.6375654 C11.5172233,11.6368612 10.9468612,12.1362978 10.1069215,12.1362978 C9.61158954,12.1362978 9.19382294,11.9617907 8.85356137,11.6124145 C8.51317907,11.263159 8.34301811,10.885171 8.34301811,10.4783903 L8.34301811,10.4783903 Z M14.8154125,25.0148089 C14.2759557,25.0148089 13.8051308,24.8400604 13.4028773,24.4908652 C13.0004427,24.1417304 12.7993763,23.6532193 12.7993763,23.025332 C12.7993763,22.4682495 12.9937425,21.9997183 13.3829577,21.6194366 C13.7719316,21.239336 14.2493964,21.0491348 14.8153521,21.0491348 C15.3724346,21.0491348 15.8409658,21.239336 16.2212475,21.6194366 C16.6012877,21.9997183 16.7915493,22.4682495 16.7915493,23.025332 C16.7915493,23.6443461 16.5925956,24.1306841 16.1946881,24.4842857 C15.7967807,24.8378873 15.3370624,25.0148089 14.8154125,25.0148089 L14.8154125,25.0148089 Z" id="Shape" fill="#FFFFFF"></path>
                        </g>
                    </g>
                </g>
            </g>
        </g>
    </g>
</svg>