<?xml version="1.0" encoding="UTF-8" standalone="no"?>
<svg width="25px" height="25px" viewBox="0 0 25 25" version="1.1" xmlns="http://www.w3.org/2000/svg" xmlns:xlink="http://www.w3.org/1999/xlink">
    <!-- Generator: Sketch 39.1 (31720) - http://www.bohemiancoding.com/sketch -->
    <title>placeholder</title>
    <desc>Created with Sketch.</desc>
    <defs></defs>
    <g id="формы" stroke="none" stroke-width="1" fill="none" fill-rule="evenodd" opacity="0.488689366">
        <g id="polis812_green_step2" transform="translate(-252.000000, -1289.000000)" fill="#000000">
            <g id="visa" transform="translate(132.000000, 258.000000)">
                <g id="background-form" transform="translate(4.000000, 94.000000)">
                    <g id="СОбственник" transform="translate(100.000000, 671.000000)">
                        <g id="возраст-и-стаж-copy" transform="translate(1.000000, 223.000000)">
                            <g id="placeholder" transform="translate(15.000000, 43.000000)">
                                <g id="Capa_1">
                                    <g id="Group">
                                        <path d="M12.5,10.8333333 C14.1083333,10.8333333 15.4166667,9.52458333 15.4166667,7.91666667 C15.4166667,6.30875 14.1083333,5 12.5,5 C10.8916667,5 9.58333333,6.30875 9.58333333,7.91666667 C9.58333333,9.52458333 10.8916667,10.8333333 12.5,10.8333333 L12.5,10.8333333 Z M12.5,5.83333333 C13.64875,5.83333333 14.5833333,6.76791667 14.5833333,7.91666667 C14.5833333,9.06541667 13.64875,10 12.5,10 C11.35125,10 10.4166667,9.06541667 10.4166667,7.91666667 C10.4166667,6.76791667 11.35125,5.83333333 12.5,5.83333333 L12.5,5.83333333 Z" id="Shape"></path>
                                        <path d="M12.42625,22.8154167 L18.8183333,13.5833333 C21.2158333,10.3870833 20.8691667,5.13333333 18.07625,2.34083333 C16.5670833,0.83125 14.5604167,0 12.42625,0 C10.2920833,0 8.28541667,0.83125 6.77625,2.34041667 C3.98333333,5.13291667 3.63666667,10.3866667 6.02458333,13.5704167 L12.42625,22.8154167 L12.42625,22.8154167 Z M7.36541667,2.92958333 C8.7175,1.57791667 10.5145833,0.833333333 12.42625,0.833333333 C14.3379167,0.833333333 16.135,1.57791667 17.4870833,2.92958333 C20.0079167,5.45 20.3183333,10.195 18.1425,13.0958333 L12.42625,21.35125 L6.70083333,13.0833333 C4.53416667,10.195 4.845,5.45 7.36541667,2.92958333 L7.36541667,2.92958333 Z" id="Shape"></path>
                                        <path d="M17.54875,17.9195833 C17.3195833,17.8916667 17.1129167,18.0558333 17.08625,18.2845833 C17.0595833,18.5133333 17.2229167,18.7204167 17.45125,18.7470833 C21.8329167,19.2629167 24.1666667,20.6529167 24.1666667,21.4583333 C24.1666667,22.5891667 19.7283333,24.1666667 12.5,24.1666667 C5.27166667,24.1666667 0.833333333,22.5891667 0.833333333,21.4583333 C0.833333333,20.6529167 3.16708333,19.2629167 7.54875,18.7470833 C7.77708333,18.7204167 7.94041667,18.5129167 7.91375,18.2845833 C7.88666667,18.0558333 7.68,17.8908333 7.45125,17.9195833 C3.06416667,18.43625 0,19.89125 0,21.4583333 C0,23.2183333 4.29375,25 12.5,25 C20.70625,25 25,23.2183333 25,21.4583333 C25,19.89125 21.9358333,18.43625 17.54875,17.9195833 L17.54875,17.9195833 Z" id="Shape"></path>
                                    </g>
                                </g>
                            </g>
                        </g>
                    </g>
                </g>
            </g>
        </g>
    </g>
</svg>