<?xml version="1.0" encoding="UTF-8" standalone="no"?>
<svg width="36px" height="45px" viewBox="0 0 36 45" version="1.1" xmlns="http://www.w3.org/2000/svg" xmlns:xlink="http://www.w3.org/1999/xlink">
    <!-- Generator: Sketch 39.1 (31720) - http://www.bohemiancoding.com/sketch -->
    <title>down-arrow-sketch</title>
    <desc>Created with Sketch.</desc>
    <defs></defs>
    <g id="Page-1" stroke="none" stroke-width="1" fill="none" fill-rule="evenodd">
        <g id="polis812_vzr_step1" transform="translate(-445.000000, -355.000000)" fill="#FFFFFF">
            <g id="insurance" transform="translate(131.000000, 258.000000)">
                <g id="background-form" transform="translate(4.000000, 47.000000)">
                    <g id="input-copy-5" transform="translate(310.000000, 50.000000)">
                        <g id="down-arrow-sketch">
                            <g id="Capa_1">
                                <g id="Group">
                                    <path d="M35.5779231,10.5490206 C29.4055385,7.25056701 23.5356923,3.42742268 17.4092308,0.0473195876 C17.241,-0.0454639175 17.0028462,-0.0018556701 16.9089231,0.179072165 C15.93,2.06164948 15.1915385,4.01822165 14.565,6.01399485 C14.5040769,5.91981959 14.4348462,5.82935567 14.3757692,5.73448454 C14.3003077,5.61340206 14.1154615,5.72103093 14.1851538,5.84652062 C14.2751538,6.00889175 14.3723077,6.17938144 14.4643846,6.34476804 C14.1221538,7.4581701 13.8106154,8.58224227 13.5117692,9.71304124 C13.4743846,9.64623711 13.4291538,9.58430412 13.3929231,9.51703608 C13.326,9.39224227 13.1434615,9.50195876 13.2053077,9.62721649 C13.2740769,9.76639175 13.3543846,9.89791237 13.4270769,10.0345361 C13.3174615,10.4518299 13.2087692,10.8693557 13.1007692,11.2875773 C13.0506923,11.3110052 13.014,11.3687629 13.0449231,11.4341753 C13.0486154,11.4418299 13.0532308,11.4490206 13.0566923,11.4564433 C12.9152308,12.0031701 12.7737692,12.5505928 12.6295385,13.0982474 C12.4043077,13.9537113 12.1656923,14.804768 11.9247692,15.6546649 C11.9097692,15.637268 11.8956923,15.6189433 11.8806923,15.6015464 L11.8772308,15.6050258 C11.8232308,15.5493557 11.7156923,15.6159278 11.7613846,15.693866 C11.7941538,15.749768 11.8352308,15.8003351 11.8691538,15.8555412 C11.0584615,18.7095619 10.2083077,21.5454897 9.58915385,24.4380155 C9.50053846,24.3913918 9.37592308,24.4816237 9.43569231,24.5936598 C9.46430769,24.6472423 9.49753846,24.6982732 9.52661538,24.7518557 C9.44353846,25.1512887 9.36023077,25.5504897 9.28707692,25.9527062 C9.26653846,25.9775258 9.25384615,26.0074485 9.26676923,26.043634 C9.26723077,26.0450258 9.26792308,26.0464175 9.26838462,26.0475773 C9.14630769,26.7269845 9.03738462,27.4096392 8.94992308,28.0976289 C8.87907692,28.0229381 8.74523077,28.0994845 8.80361538,28.198067 C8.83984615,28.2593041 8.87353846,28.3244845 8.90884615,28.3868814 C8.90330769,28.434201 8.89430769,28.4803608 8.88876923,28.5276804 C6.16476923,27.4460567 3.28846154,27.0004639 0.376846154,26.7942526 C0.201461538,26.7817268 0.131538462,26.999768 0.208615385,27.1217784 C0.196384615,27.1635309 0.193615385,27.2101546 0.215769231,27.2595619 C2.87884615,33.1798454 5.91853846,38.9277835 8.73669231,44.775 C8.80892308,44.9248454 8.99261538,44.9726289 9.14123077,44.9408505 C10.9186154,44.5599742 12.6161538,44.0111598 14.2735385,43.3723454 C14.3053846,43.3739691 14.3335385,43.3635309 14.3531538,43.3412629 C15.2824615,42.980799 16.1972308,42.5880928 17.1034615,42.1738144 C17.1258462,42.1881959 17.145,42.2113918 17.1678462,42.2246134 C17.2675385,42.2807474 17.3746154,42.1696392 17.3213077,42.0705928 C17.5463077,41.9666753 17.7680769,41.8544072 17.9919231,41.7479381 C18.0606923,41.7843557 18.1389231,41.7347165 18.1622308,41.6660567 C18.4712308,41.5178351 18.7758462,41.3543041 19.0839231,41.2023711 C19.0998462,41.2137371 19.1139231,41.2285825 19.1298462,41.2394845 C19.218,41.2995619 19.3294615,41.1905412 19.2888462,41.0991495 C20.2520769,40.6210825 21.2106923,40.128866 22.1695385,39.6303866 C22.1826923,39.6266753 22.1930769,39.6213402 22.2034615,39.6129897 C22.8159231,39.2945103 23.4302308,38.9706959 24.0440769,38.6487371 C24.0482308,38.6459536 24.0526154,38.6447938 24.0565385,38.6422423 C24.4587692,38.4309278 24.8596154,38.221933 25.2632308,38.0096907 C25.407,37.9345361 25.4531538,37.8102062 25.4425385,37.687732 C25.4803846,37.6452835 25.5073846,37.591933 25.5034615,37.5232732 C25.4201538,36.1076289 25.2648462,34.695232 24.954,33.3106701 C24.9244615,33.1791495 24.8109231,33.0798711 24.687,33.0420619 C24.1437692,32.8757474 23.6386154,32.6006443 23.1401538,32.3308763 C23.0132308,32.2622165 22.8816923,32.1685052 22.7434615,32.0956701 C22.8182308,32.0021907 22.902,31.9168299 22.9776923,31.8240464 C22.992,31.8363402 23.0030769,31.8528093 23.0178462,31.8646392 C23.1279231,31.950232 23.3247692,31.8381959 23.2292308,31.7006443 C23.2077692,31.6695619 23.1853846,31.6387113 23.1639231,31.6080928 C26.1653077,27.9746907 29.6358462,24.8096134 32.7110769,21.2448711 C35.6210769,17.8714948 35.6217692,15.5099227 35.4627692,11.2571907 C35.7609231,11.1764691 35.9240769,10.7338918 35.5779231,10.5490206 L35.5779231,10.5490206 Z M34.6617692,10.940799 C34.6913077,11.6819072 34.7485385,12.4077062 34.7861538,13.1260825 C34.4780769,12.1750515 33.9893077,11.2263402 33.5450769,10.3261082 C33.9177692,10.5304639 34.2863077,10.7413144 34.6617692,10.940799 L34.6617692,10.940799 Z M23.0836154,4.19219072 C24.1133077,4.81059278 25.1406923,5.43154639 26.1687692,6.05087629 C28.7044615,9.05265464 30.1093846,12.7106443 31.9862308,16.087268 C31.9677692,16.0939948 31.9490769,16.0951546 31.9310769,16.1058247 C31.6714615,15.9814948 31.4074615,15.8678351 31.1450769,15.750232 C30.7513846,14.9761856 30.0881538,14.2114175 29.6545385,13.4911856 C28.7496923,11.9878608 27.8921538,10.4560052 26.9806154,8.95639175 C26.4325385,8.055 24.7105385,4.35340206 23.2728462,4.6243299 C23.2557692,4.62757732 23.2592308,4.65703608 23.277,4.65494845 C24.6110769,4.50417526 27.0124615,10.0022938 27.5319231,10.923634 C28.2662308,12.2249227 28.9982308,13.5273711 29.7835385,14.7985052 C29.8705385,14.9395361 29.9674615,15.108866 30.0733846,15.283067 C29.7685385,15.1554897 29.4636923,15.0269845 29.1572308,14.9033505 C29.2329231,14.7268299 29.0231538,14.5920619 28.8777692,14.7080412 C29.1085385,14.5234021 22.7831538,5.33621134 21.2183077,2.95677835 C22.0989231,3.5139433 22.8343846,4.04257732 23.0836154,4.19219072 L23.0836154,4.19219072 Z M18.7883077,31.8407474 C18.8266154,31.8869072 18.861,31.938866 18.8988462,31.9859536 C18.1465385,33.0831186 17.4156923,34.1948969 16.7411538,35.3442526 C16.4418462,35.4843557 16.3816154,36.005799 16.7889231,36.1108763 C17.712,36.3493299 18.6336923,36.5840722 19.5505385,36.8447938 C22.6456154,37.7241495 20.6102308,37.9851031 19.1603077,38.5385567 C17.4131538,39.2054381 15.6237692,39.774201 13.9103077,40.5278351 C11.4362308,41.6159536 11.3478462,41.4925515 10.2835385,39.0254381 C9.47907692,37.1607216 8.57653846,35.3676804 7.60061538,33.6010825 C7.60707692,33.5604897 7.61238462,33.5189691 7.58746154,33.4728093 C7.41553846,33.1566495 7.22769231,32.8506959 7.03546154,32.5477577 C7.78707692,32.8924485 8.54515385,33.2239175 9.29515385,33.5723196 C9.741,33.7796907 10.1843077,33.9926289 10.6234615,34.2143814 C10.7487692,34.2774742 11.3794615,34.5442268 11.2922308,34.4430928 C11.4902308,34.672268 11.8576154,34.4291753 11.7823846,34.1566237 C11.7403846,34.0046907 11.6469231,33.8743299 11.5250769,33.7588144 C14.2022308,26.2456701 15.855,18.405 18.5342308,10.8832732 C22.4365385,13.5967268 27.1084615,14.7096649 31.3659231,16.7284021 C27.1846154,21.6637887 22.7125385,26.4664948 19.0255385,31.8034021 C18.993,31.7690722 18.9648462,31.730567 18.9323077,31.6960052 C18.8404615,31.5988144 18.7061538,31.7410052 18.7883077,31.8407474 L18.7883077,31.8407474 Z M17.7422308,34.7972938 C17.8292308,35.0747165 17.9386154,35.3502835 18.0874615,35.6100773 C17.8269231,35.5393299 17.5689231,35.4674227 17.3037692,35.3978351 C17.4466154,35.1944072 17.5966154,34.9977062 17.7422308,34.7972938 L17.7422308,34.7972938 Z M20.8326923,2.71902062 C22.3668462,5.96899485 24.5676923,8.81976804 26.4890769,11.8401031 C26.8647692,12.4306701 27.3193846,13.6326804 27.9302308,14.4129897 C27.9020769,14.4020876 27.8743846,14.3902577 27.8464615,14.3795876 C24.3320769,10.7990722 21.2259231,6.56280928 19.3075385,1.88396907 C19.812,2.11917526 20.3356154,2.41654639 20.8326923,2.71902062 L20.8326923,2.71902062 Z M18.9759231,1.74085052 C19.7646923,4.3239433 21.2319231,6.71056701 22.6876154,8.95523196 C23.0072308,9.44814433 23.3434615,9.95520619 23.6956154,10.4608763 C21.4876154,7.64512887 19.2256154,4.82868557 18.0320769,1.43188144 C18.3173077,1.48407216 18.6413077,1.6014433 18.9759231,1.74085052 L18.9759231,1.74085052 Z M16.8692308,1.84036082 C17.0199231,1.49752577 17.3404615,1.38015464 17.7537692,1.40265464 C18.3579231,3.73871134 19.7194615,5.84512887 21.0466154,7.82280928 C22.3343077,9.74157216 23.7676154,11.7978866 25.4192308,13.4487371 C24.9542308,13.2710567 24.4892308,13.0943041 24.027,12.9110567 C21.6258462,9.21177835 19.0449231,5.69853093 16.8683077,1.84198454 C16.8687692,1.84152062 16.869,1.84082474 16.8692308,1.84036082 L16.8692308,1.84036082 Z M16.7554615,2.11685567 C18.4407692,5.70873711 20.5156154,9.49314433 23.1184615,12.5334278 C22.6774615,12.3513402 22.2320769,12.1785309 21.7966154,11.9839175 C20.0106923,9.05590206 17.6875385,6.50667526 16.2415385,3.36804124 C16.4035385,2.94865979 16.5777692,2.53229381 16.7554615,2.11685567 L16.7554615,2.11685567 Z M16.1150769,3.71389175 C17.3358462,6.6082732 19.3103077,9.07445876 21.0803077,11.649201 C20.7743077,11.5049227 20.4669231,11.3638918 20.1648462,11.2101031 C18.5005385,9.23868557 17.2453846,6.9828866 15.6650769,4.94791237 C15.8088462,4.53479381 15.9611538,4.1242268 16.1150769,3.71389175 L16.1150769,3.71389175 Z M15.5522308,5.29283505 C16.6128462,6.85252577 17.5640769,8.50592784 18.6851538,10.0227062 C18.5305385,9.82345361 18.1315385,9.81046392 18.0138462,10.1312629 C17.9457692,10.3172938 17.8846154,10.5063402 17.8204615,10.6939948 C16.9931538,9.34213918 15.9879231,8.06891753 15.0692308,6.75858247 C15.2139231,6.26242268 15.3881538,5.77994845 15.5522308,5.29283505 L15.5522308,5.29283505 Z M14.8772308,7.41015464 C14.8968462,7.33755155 14.9203846,7.26726804 14.9406923,7.19489691 C15.7370769,8.59268041 16.6253077,10.0009021 17.6533846,11.1792526 C17.5892308,11.3703866 17.5227692,11.5605928 17.457,11.7510309 C17.4161538,11.7301546 17.3702308,11.7354897 17.3286923,11.7547423 C17.0843077,11.3316495 16.86,10.9452062 16.4960769,10.5436856 C15.7986923,9.77427835 15.2912308,8.84296392 14.7233077,7.96801546 C14.7745385,7.78221649 14.8269231,7.59572165 14.8772308,7.41015464 L14.8772308,7.41015464 Z M14.2686923,9.61770619 C14.8119231,10.4446392 15.2577692,11.3369845 15.8037692,12.1634536 C15.9064615,12.318866 16.7545385,13.5150773 16.872,12.7340722 C16.8996923,12.549433 16.6659231,12.4849485 16.5957692,12.6575258 C16.6165385,12.6062629 16.2274615,12.2082216 16.1450769,12.0971134 C15.915,11.7874485 15.7128462,11.4545876 15.5083846,11.1277577 C15.138,10.5353351 14.8089231,9.90208763 14.3829231,9.34701031 C14.3734615,9.33471649 14.3600769,9.33425258 14.3485385,9.32659794 C14.4535385,8.94734536 14.5576154,8.56832474 14.6621538,8.18930412 C15.1253077,8.97494845 15.5508462,9.78309278 16.077,10.53 C16.3656923,10.9396392 16.7192308,11.2725 16.9393846,11.7299227 C17.0416154,11.9421649 17.1041538,12.1864175 17.2398462,12.3819588 C17.0275385,13.0056959 16.803,13.623866 16.5976154,14.2503866 C16.5858462,14.2656959 16.569,14.2712629 16.5606923,14.2919072 C16.5680769,14.3055928 16.5692308,14.3088402 16.575,14.3199742 C16.5726923,14.3273969 16.5701538,14.3348196 16.5678462,14.3422423 C16.5392308,14.3002577 16.5013846,14.242732 16.4432308,14.1508763 C16.365,14.0221392 16.2844615,13.8947938 16.2013846,13.7690722 C15.9251538,13.3415722 15.6053077,12.9386598 15.3191538,12.5169588 C14.8756154,11.8635309 14.4348462,11.2084794 14.0136923,10.541134 C14.0990769,10.2333247 14.1830769,9.92597938 14.2686923,9.61770619 L14.2686923,9.61770619 Z M13.5207692,12.3290722 C13.8941538,13.0121907 14.2938462,13.6820876 14.7230769,14.326933 C14.8375385,14.4990464 15.5556923,15.7133505 15.8806154,15.2376031 C15.9814615,15.0898454 15.7682308,14.9527577 15.6475385,15.0569072 C15.7573846,14.962268 15.7583077,15.0520361 15.6249231,14.8792268 C15.5376923,14.7660309 15.4449231,14.6577062 15.3549231,14.5468299 C15.0752308,14.2019072 14.8246154,13.831701 14.5746923,13.4652062 C14.244,12.9806443 13.9232308,12.4851804 13.6167692,11.9818299 C13.7157692,11.6246134 13.8131538,11.2680928 13.9121538,10.9108763 C14.5705385,12.0161598 15.3085385,13.0694845 15.9726923,14.1729124 C16.0878462,14.3642784 16.2666923,14.6131701 16.4402308,14.737268 C16.2551538,15.3071907 16.0659231,15.8754897 15.8856923,16.447268 C15.8826923,16.4328866 15.8863846,16.4175773 15.8776154,16.4038918 C15.5113846,15.823299 15.0320769,15.3062629 14.6007692,14.7732216 C14.1791538,14.2522423 13.7635385,13.6834794 13.2761538,13.2170103 C13.3580769,12.920799 13.4388462,12.6252835 13.5207692,12.3290722 L13.5207692,12.3290722 Z M13.2156923,13.4369072 C13.6292308,13.9769072 14.019,14.5384794 14.4311538,15.0794072 C14.8075385,15.5730155 15.174,16.2296907 15.6793846,16.6033763 C15.7354615,16.6446649 15.7973077,16.6268041 15.8413846,16.5866753 C15.7026923,17.0280928 15.5559231,17.4660309 15.4202308,17.9086082 C14.4276923,16.9077062 13.6437692,15.8133247 12.8896154,14.6196649 C12.9985385,14.2248711 13.1060769,13.8314691 13.2156923,13.4369072 L13.2156923,13.4369072 Z M12.3500769,16.5764691 C12.6196154,16.9508505 12.8997692,17.3178093 13.1808462,17.6810567 C13.6213846,18.2507474 14.0711538,18.956134 14.643,19.4012629 C14.7897692,19.5153866 15.0618462,19.3620619 14.9275385,19.1806701 C14.5165385,18.6255928 13.9924615,18.1382474 13.5426923,17.6133247 C13.1651538,17.1723711 12.8014615,16.7198196 12.4343077,16.2702835 C12.5485385,15.8539175 12.6634615,15.4398711 12.7781538,15.0237371 C13.1619231,15.7059278 13.5791538,16.3711856 14.0328462,17.0065206 C14.295,17.3737113 14.7812308,18.1997165 15.3159231,18.2537629 C15.0754615,19.0431186 14.8382308,19.833634 14.6063077,20.6262371 C14.5414615,20.6283247 14.4777692,20.6707732 14.475,20.7526546 C14.4729231,20.8083247 14.4888462,20.8876546 14.4803077,20.9528351 C14.0741538,20.3195876 13.614,19.7164948 13.1766923,19.1064433 C12.8286923,18.6207216 12.3703846,18.1329124 12.0595385,17.6321134 C12.1546154,17.2795361 12.2538462,16.9285825 12.3500769,16.5764691 L12.3500769,16.5764691 Z M12.0147692,17.7935567 C12.6205385,19.0305928 13.467,20.2258763 14.2760769,21.3441495 C14.3014615,21.3791753 14.334,21.408634 14.3713846,21.425567 C14.3056154,21.6533505 14.2366154,21.8802062 14.1713077,22.1082216 C13.8671538,21.7053093 13.0843846,20.8229381 12.9687692,20.6654381 C12.5365385,20.0767268 12.129,19.4708505 11.7205385,18.8654381 C11.8165385,18.5075258 11.9183077,18.1512371 12.0147692,17.7935567 L12.0147692,17.7935567 Z M11.625,19.2168557 C12.1959231,20.1015464 12.7631538,20.9908763 13.4007692,21.8282474 C13.4764615,21.9275258 13.7688462,22.3093299 14.0524615,22.5218041 C13.9416923,22.910799 13.8267692,23.2981701 13.7176154,23.6876289 C13.2286154,23.0757216 12.7419231,22.4733247 12.3096923,21.8066753 C12.0050769,21.3367268 11.7175385,20.7424485 11.3300769,20.2998711 C11.4244615,19.9377835 11.529,19.5784794 11.625,19.2168557 L11.625,19.2168557 Z M11.2232308,20.7099742 C11.5467692,21.2801289 11.9432308,21.8338144 12.2822308,22.3731186 C12.645,22.950232 13.0643077,23.6301031 13.6029231,24.0937887 C13.5117692,24.4203866 13.4162308,24.7460567 13.3262308,25.0733505 C12.9233077,24.6017784 12.4763077,24.1582732 12.1052308,23.6611856 C11.6838462,23.0965979 11.301,22.505799 10.9068462,21.9224227 C11.0086154,21.5174227 11.1191538,21.1145103 11.2232308,20.7099742 L11.2232308,20.7099742 Z M10.8085385,22.3111856 C11.1685385,22.9101031 11.5472308,23.4985825 11.9513077,24.0668814 C12.3055385,24.5646649 12.7022308,25.1473454 13.1944615,25.5500258 C13.0825385,25.9598969 12.9648462,26.3681443 12.8545385,26.7780155 C12.4896923,26.2702577 12.0814615,25.7891753 11.7309231,25.2691237 C11.3157692,24.6532732 10.9336154,24.0163144 10.5353077,23.3893299 C10.6216154,23.028634 10.7196923,22.6707216 10.8085385,22.3111856 L10.8085385,22.3111856 Z M10.4543077,23.7231186 C10.7843077,24.2946649 11.112,24.8676031 11.4579231,25.4289433 C11.82,26.0169588 12.2116154,26.6949742 12.7539231,27.1479897 C12.6226154,27.6371907 12.4848462,28.1259278 12.3556154,28.6153608 C12.0046154,27.8962887 11.4489231,27.2484278 10.9931538,26.5961598 C10.6751538,26.1408247 10.3901538,25.6653093 10.098,25.1939691 C10.2073846,24.7026804 10.3382308,24.2144072 10.4543077,23.7231186 L10.4543077,23.7231186 Z M10.0103077,25.5903866 C10.2468462,25.9793814 10.4905385,26.3635052 10.7381538,26.7460052 C11.2040769,27.4660052 11.6386154,28.2750773 12.2293846,28.8967268 C12.2436923,28.9115722 12.2591538,28.9118041 12.2743846,28.9185309 C12.1823077,29.2685567 12.0844615,29.6181186 11.9933077,29.9679124 C11.3418462,28.8062629 10.4344615,27.7772938 9.78715385,26.6003351 C9.85753846,26.2635309 9.93692308,25.9271907 10.0103077,25.5903866 L10.0103077,25.5903866 Z M9.70292308,27.0255155 C9.99669231,27.6044845 10.3359231,28.1625773 10.6733077,28.7127835 C11.0363077,29.3049742 11.4050769,29.9526031 11.8550769,30.4965464 C11.7096923,31.0585825 11.5564615,31.6201546 11.4133846,32.1819588 C11.0796923,31.6159794 10.7090769,31.0673969 10.3846154,30.4949227 C10.0506923,29.9057474 9.71769231,29.3165722 9.36161538,28.7410825 C9.46638462,28.1679124 9.58661538,27.5970619 9.70292308,27.0255155 L9.70292308,27.0255155 Z M6.57646154,28.5149227 C7.45407692,29.8064691 8.05038462,31.3851804 9.11584615,32.5203866 C9.22153846,32.6331186 9.39646154,32.4890722 9.32446154,32.3587113 C8.62776923,31.0943041 7.81453846,29.8046134 6.95907692,28.6232474 C7.602,28.8178608 8.23961538,29.030799 8.86407692,29.289433 C8.92176923,29.3515979 9.01292308,29.3666753 9.09853846,29.3518299 C9.099,29.3518299 9.09923077,29.3515979 9.09969231,29.3515979 C9.13130769,29.345799 9.16061538,29.3425515 9.18646154,29.3249227 C9.25015385,29.2970876 9.29492308,29.2411856 9.32815385,29.1771649 C9.91753846,30.3564433 10.4695385,31.6368557 11.3123077,32.5795361 C11.2571538,32.7964175 11.2006154,33.013299 11.1459231,33.2304124 C10.7157692,32.4967268 10.1436923,31.7957474 9.67707692,31.0924485 C9.18438462,30.3490206 8.65107692,29.6478093 7.97053846,29.0681443 C7.875,28.9869588 7.74046154,29.1166237 7.83138462,29.2082474 C8.57192308,29.9512113 9.11007692,30.8451804 9.657,31.7340464 C9.95792308,32.2230155 10.2498462,32.7869072 10.6294615,33.2471134 C10.4116154,33.1557216 10.2025385,33.0731443 10.0437692,32.9991495 C9.32930769,32.6655928 8.60307692,32.3090722 7.85676923,32.0304897 C7.85630769,32.0295619 7.857,32.028634 7.85630769,32.0274742 C7.53553846,31.4496649 7.10007692,30.931701 6.75807692,30.3624742 C6.35561538,29.6928093 6.00184615,28.9867268 5.68223077,28.2739175 C5.67807692,28.2644072 5.66930769,28.2630155 5.66307692,28.2569845 C5.97,28.3339948 6.27207692,28.4279381 6.57646154,28.5149227 L6.57646154,28.5149227 Z M5.59015385,28.2391237 C5.54976923,28.2523454 5.51561538,28.2901546 5.53130769,28.3377062 C5.90284615,29.4868299 6.44469231,30.8908763 7.28630769,31.8391237 C7.23992308,31.8249742 7.19469231,31.8061856 7.14807692,31.7929639 C6.98007692,31.7447165 6.82615385,31.8265979 6.732,31.9632216 C6.729,31.972732 6.726,31.9824742 6.723,31.9919845 C6.70846154,31.9973196 6.70453846,32.0128608 6.69761538,32.0253866 C5.86015385,30.7670103 4.95507692,29.5550258 4.41876923,28.119201 C4.36476923,27.9749227 4.13492308,28.0340722 4.18592308,28.1836856 C4.68853846,29.6577835 5.53569231,30.9560567 6.36461538,32.2629124 C6.36323077,32.3016495 6.36253846,32.3410825 6.38376923,32.3839948 C7.74738462,35.1807216 9.02376923,38.0147938 10.1937692,40.8968814 C7.46815385,36.6724485 4.73307692,32.4343299 3.01938462,27.6801031 C3.88223077,27.8422423 4.74,28.0266495 5.59015385,28.2391237 L5.59015385,28.2391237 Z M8.60353846,42.7945361 C6.15253846,37.5221134 3.53746154,32.293067 0.639692308,27.2537629 C1.01076923,27.3170876 1.38207692,27.3808763 1.75338462,27.4453608 C1.95069231,30.0022423 3.32723077,32.1856701 4.70238462,34.2962629 C6.73823077,37.4212113 8.70715385,40.5661082 10.5325385,43.8237371 C9.62030769,43.8084278 8.93423077,43.5054897 8.60353846,42.7945361 L8.60353846,42.7945361 Z M11.0215385,43.807268 C9.51761538,40.9757474 7.93592308,38.1238144 6.12438462,35.4797165 C4.48684615,33.0886856 2.49923077,30.436933 2.03423077,27.4959278 C2.27723077,27.5388402 2.51907692,27.5873196 2.76161538,27.6320876 C4.49215385,33.5862371 8.26892308,38.5898196 11.5908462,43.7263144 C11.3976923,43.7580928 11.202,43.7926546 11.0215385,43.807268 L11.0215385,43.807268 Z M11.9614615,43.661134 C11.7477692,43.3213144 11.5294615,42.9831186 11.3132308,42.6442268 C11.3316923,42.6370361 11.3496923,42.6381959 11.3681538,42.6282216 C11.5952308,42.5043557 11.8278462,42.3932474 12.0576923,42.2763402 C12.1370769,42.7641495 12.4700769,43.2148454 12.9470769,43.3663144 C13.0428462,43.396701 13.0883077,43.278634 13.0359231,43.2127577 C12.7421538,42.8411598 12.3452308,42.6780928 12.288,42.1587371 C12.4246154,42.0907732 12.5637692,42.0293041 12.7013077,41.9636598 C13.0809231,42.3545103 13.485,42.7319072 13.9026923,43.0858763 C13.2205385,43.3326804 12.5642308,43.5347165 11.9614615,43.661134 L11.9614615,43.661134 Z M14.1498462,42.9935567 C13.7586923,42.5904124 13.2932308,42.2526804 12.8667692,41.8857216 C13.1785385,41.7381959 13.4995385,41.6127062 13.8152308,41.4742268 C14.1925385,41.8880412 14.5820769,42.3324742 15.0567692,42.6312371 C14.7507692,42.7588144 14.4473077,42.8817526 14.1498462,42.9935567 L14.1498462,42.9935567 Z M16.2272308,42.1107216 C15.9223846,41.771134 15.5247692,41.5220103 15.1906154,41.2114175 C15.0669231,41.096366 14.8843846,41.2777577 15.0053077,41.3979124 C15.3043846,41.6948196 15.6353077,41.9722423 15.9759231,42.226701 C15.7587692,42.3255155 15.5420769,42.4222423 15.327,42.5147938 C14.8966154,42.1318299 14.4507692,41.7702062 14.0231538,41.3837629 C14.6021538,41.1327835 15.1883077,40.8985052 15.7751538,40.6663144 C16.056,41.0861598 16.3647692,41.5331443 16.7231538,41.8757474 C16.5576923,41.9548454 16.3922308,42.0341753 16.2272308,42.1107216 L16.2272308,42.1107216 Z M17.0584615,41.7138402 C16.8823846,41.5002062 16.6903846,41.2958505 16.5136154,41.0903351 C16.3610769,40.9131186 16.2196154,40.7270876 16.0744615,40.5438402 C16.2823846,40.4624227 16.4914615,40.3842526 16.6998462,40.3042268 C16.9626923,40.6943814 17.2670769,41.0991495 17.6141538,41.4331701 C17.4286154,41.5264175 17.2446923,41.6226804 17.0584615,41.7138402 L17.0584615,41.7138402 Z M17.9146154,41.281701 C17.5961538,40.9207732 17.2336154,40.5960309 16.9313077,40.2156186 C17.2144615,40.1072938 17.4983077,39.9998969 17.7819231,39.8925 C18.0745385,40.2181701 18.3666923,40.5709794 18.6890769,40.8757732 C18.432,41.011933 18.1753846,41.1483247 17.9146154,41.281701 L17.9146154,41.281701 Z M18.9936923,40.7161856 C18.7003846,40.3886598 18.3542308,40.0926804 18.0267692,39.7999485 C18.2976923,39.6976546 18.5676923,39.5925773 18.8386154,39.4902835 C19.1056154,39.7769845 19.4035385,40.1045103 19.755,40.3026031 C19.5036923,40.4406186 19.2512308,40.5784021 18.9936923,40.7161856 L18.9936923,40.7161856 Z M20.1055385,40.1093814 C19.7517692,39.892732 19.428,39.6575258 19.1171538,39.3840464 C19.4187692,39.2694588 19.7185385,39.1513918 20.0194615,39.0351804 C20.2786154,39.2787371 20.5532308,39.5125515 20.8442308,39.6951031 C20.6028462,39.8317268 20.3570769,39.9697423 20.1055385,40.1093814 L20.1055385,40.1093814 Z M21.0583846,39.5730928 C20.8804615,39.3102835 20.6146154,39.1068557 20.3513077,38.9066753 C20.5998462,38.8097165 20.8446923,38.7032474 21.0923077,38.604201 C21.2374615,38.8384794 21.4040769,39.0695103 21.5944615,39.2662113 C21.4188462,39.3671134 21.2413846,39.4689433 21.0583846,39.5730928 L21.0583846,39.5730928 Z M21.9122308,39.0825 C21.8268462,39.0066495 21.7405385,38.9314948 21.6616154,38.8470619 C21.5577692,38.7361856 21.4751538,38.6072165 21.384,38.4847423 C21.7548462,38.334433 22.1284615,38.1906186 22.4953846,38.0310309 C22.7808462,37.906701 22.7254615,37.4831443 22.4953846,37.3425773 C21.2293846,36.5713144 19.9130769,36.1194588 18.5363077,35.7313918 C18.2660769,35.3952835 18.0346154,35.0387629 17.8836923,34.6031443 C18.1430769,34.2487113 18.3994615,33.8919588 18.6606923,33.5391495 C18.7613077,33.997268 19.1630769,34.4412371 19.4231538,34.7884794 C19.6615385,35.1067268 19.9093846,35.4177835 20.1609231,35.7253608 C20.3651538,35.9751804 20.6148462,36.3581443 20.9187692,36.4885052 C21.0108462,36.5281701 21.1675385,36.4609021 21.1163077,36.3356443 C20.9058462,35.820232 20.2973077,35.3551546 19.9366154,34.9373969 C19.6779231,34.6377062 19.4266154,34.3312887 19.1873077,34.0153608 C19.0587692,33.8462629 18.8049231,33.6122165 18.7654615,33.3951031 C18.9639231,33.1274227 19.155,32.8527835 19.3557692,32.5864948 C20.6803846,34.4356701 21.7465385,36.6787113 23.3653846,38.2356186 C22.9280769,38.4914691 22.4485385,38.7726031 21.9122308,39.0825 L21.9122308,39.0825 Z M23.8324615,33.5458763 C23.9916923,33.6161598 24.1546154,33.676701 24.3184615,33.7353866 C24.3523846,33.7474485 24.5123077,34.8784794 24.534,34.9939948 C24.5351538,35.0002577 24.5360769,35.0069845 24.5372308,35.0130155 C24.0643846,34.4106186 23.5753846,33.8195876 23.0778462,33.2338918 C23.3653846,33.3628608 23.6485385,33.4646907 23.8324615,33.5458763 L23.8324615,33.5458763 Z M24.6295385,35.6699227 C24.636,35.6752577 24.6452308,35.6734021 24.6528462,35.6773454 C24.7488462,36.2349742 24.8420769,36.793299 24.9429231,37.3495361 C24.9246923,37.3560309 24.9076154,37.355799 24.8891538,37.3655412 C24.6230769,37.5061082 24.2406923,37.7260052 23.7863077,37.9904381 C22.4035385,36.1046134 21.0650769,34.1318041 19.5207692,32.3723969 C19.938,31.8214948 20.3753077,31.2884536 20.8008462,30.7449742 C21.876,32.4106701 23.0679231,34.4328866 24.6295385,35.6699227 L24.6295385,35.6699227 Z M22.827,31.1295619 C22.5754615,30.7739691 22.3239231,30.4186082 22.074,30.0616237 C21.9846923,29.9338144 21.7797692,30.0477062 21.8623846,30.1859536 C22.0975385,30.5793557 22.3181538,31.0425773 22.6077692,31.4273969 C22.4621538,31.6336082 22.3031538,31.8259021 22.1614615,32.0355928 C22.1402308,32.0474227 22.1261538,32.0666753 22.1083846,32.0819845 C21.7013077,31.5944072 21.2997692,31.1024227 20.9173846,30.5955928 C21.4516154,29.9145619 22.0010769,29.2469845 22.5456923,28.5743041 C22.8039231,29.1140722 23.1057692,29.7531186 23.5211538,30.2297938 C23.2903846,30.5306443 23.0499231,30.8215206 22.827,31.1295619 L22.827,31.1295619 Z M23.7355385,29.9528351 C23.3753077,29.4594588 23.0123077,28.9776804 22.7178462,28.4239948 C22.71,28.4093814 22.6973077,28.4079897 22.6871538,28.3991753 C22.9066154,28.1282474 23.1353077,27.8640464 23.3563846,27.5942784 C23.5943077,28.0950773 23.9037692,28.7879381 24.3551538,29.1945619 C24.1490769,29.4476289 23.9372308,29.6951289 23.7355385,29.9528351 L23.7355385,29.9528351 Z M25.2717692,28.1294072 C25.0952308,27.6703608 24.7003846,27.2690722 24.5180769,26.8093299 C24.4714615,26.6914948 24.2822308,26.7383505 24.3251538,26.8626804 C24.4943077,27.3507216 24.7712308,27.9090464 25.1111538,28.3126546 C24.9415385,28.5119072 24.7603846,28.7016495 24.5935385,28.9032216 C24.1940769,28.4481186 23.8396154,27.9888402 23.5428462,27.433067 C23.5347692,27.4182216 23.5216154,27.4168299 23.5112308,27.4077835 C23.9367692,26.8895876 24.3717692,26.3785825 24.7998462,25.8631701 C25.1628462,26.3514433 25.5408462,26.8438918 25.9594615,27.2628093 C25.9781538,27.2815979 25.9984615,27.2839175 26.0183077,27.2899485 C25.7711538,27.5703866 25.5154615,27.8452577 25.2717692,28.1294072 L25.2717692,28.1294072 Z M26.1782308,27.1108763 C26.1763846,27.1053093 26.1793846,27.1002062 26.1768462,27.0946392 C25.9283077,26.5467526 25.4298462,26.0856186 24.9994615,25.6242526 C25.2803077,25.2865206 25.5641538,24.9506443 25.8456923,24.6133763 C25.9783846,24.8471907 26.0993077,25.0875 26.2412308,25.3145876 C26.4295385,25.6152062 26.6457692,26.0276289 27.0023077,26.1473196 C27.0207692,26.1535825 27.036,26.1468557 27.0528462,26.145 C26.7606923,26.4667268 26.4662308,26.786366 26.1782308,27.1108763 L26.1782308,27.1108763 Z M27.1714615,26.0134794 C27.1728462,25.9784536 27.1652308,25.9431959 27.1366154,25.9153608 C26.6965385,25.4883247 26.3275385,24.9606186 26.0076923,24.4194588 C26.2146923,24.1721907 26.4214615,23.9228351 26.6284615,23.675567 C26.886,24.2529124 27.3193846,25.0153608 27.8566154,24.9910052 C28.002,24.9845103 28.0285385,24.7843299 27.8905385,24.738866 C27.3966923,24.5764948 27.0369231,23.9856959 26.7879231,23.4846649 C27.054,23.1671134 27.3186923,22.8467784 27.5852308,22.5292268 C27.7596923,22.8952577 27.9551538,23.2503866 28.182,23.5878866 C28.3453846,23.8307474 28.5357692,24.1227835 28.8002308,24.2728608 C28.2523846,24.8506701 27.7045385,25.4280155 27.1714615,26.0134794 L27.1714615,26.0134794 Z M29.4290769,23.6008763 C29.2956923,23.7381959 29.1706154,23.8801546 29.0383846,24.0181701 C28.5507692,23.4976546 28.1231538,22.9114948 27.7986923,22.2731443 C27.9756923,22.0622938 28.1510769,21.8495876 28.3278462,21.6389691 C28.5736154,22.3169845 29.1362308,23.1603866 29.8195385,23.1821907 C29.8456154,23.1831186 29.8629231,23.1594588 29.8836923,23.1439175 C29.7272308,23.298866 29.5733077,23.4519588 29.4290769,23.6008763 L29.4290769,23.6008763 Z M29.9303077,23.0977577 C29.9450769,23.0625 29.9543077,23.023067 29.9300769,22.989201 C29.7380769,22.725 29.4126923,22.5855928 29.1701538,22.3673196 C28.8715385,22.0987113 28.6746923,21.7542526 28.5447692,21.3791753 C28.7171538,21.1738918 28.8881538,20.9665206 29.0603077,20.7610052 C29.061,20.7777062 29.0573077,20.7939433 29.0653846,20.8108763 C29.2343077,21.1539433 29.4726923,21.4629124 29.7064615,21.7637629 C29.9019231,22.0152062 30.1453846,22.3946907 30.4518462,22.5879124 C30.2743846,22.7609536 30.099,22.9312113 29.9303077,23.0977577 L29.9303077,23.0977577 Z M30.7518462,22.2963402 C30.2132308,21.7839433 29.7611538,21.2079897 29.247,20.6700773 C29.2211538,20.6429381 29.1923077,20.6348196 29.1643846,20.6364433 C29.4103846,20.3434794 29.6543077,20.0475 29.9003077,19.7545361 C30.1638462,20.1736856 30.4181538,20.5995619 30.6957692,21.0089691 C30.882,21.2833763 31.0966154,21.5447938 31.3968462,21.6579897 C31.1815385,21.8737113 30.9655385,22.0887371 30.7518462,22.2963402 L30.7518462,22.2963402 Z M31.6423846,21.4104897 C30.942,20.9632732 30.5656154,20.205 30.054,19.5705928 C30.2796923,19.3015206 30.5037692,19.0301289 30.7296923,18.7608247 C30.9431538,19.2201031 31.1706923,19.670799 31.4554615,20.0931959 C31.6370769,20.3634278 31.8701538,20.6686856 32.1500769,20.8781443 C31.983,21.0572165 31.8140769,21.2355928 31.6423846,21.4104897 L31.6423846,21.4104897 Z M32.4692308,20.5218557 C32.1821538,20.2286598 31.8763846,19.9547165 31.6232308,19.6165206 C31.3654615,19.2715979 31.1393077,18.9032474 30.921,18.5309536 C31.089,18.3305412 31.2558462,18.1287371 31.4238462,17.9283247 C31.704,18.7072423 32.1401538,19.6935309 32.841,20.0760309 C32.7175385,20.2249485 32.5998462,20.3752577 32.4692308,20.5218557 L32.4692308,20.5218557 Z M33.0567692,19.8171649 C32.8624615,19.4483505 32.5294615,19.1454124 32.2869231,18.8072165 C32.0342308,18.4548711 31.8221538,18.0712113 31.6294615,17.6822165 C31.8807692,17.3818299 32.1332308,17.083067 32.3824615,16.7798969 C32.8013077,17.4940979 33.2388462,18.1973969 33.7303846,18.8686856 C33.5344615,19.1901804 33.3032308,19.5054124 33.0567692,19.8171649 L33.0567692,19.8171649 Z M34.1607692,18.0487113 C34.1074615,18.1735052 34.0333846,18.2962113 33.9699231,18.4200773 C32.2266923,14.1949485 29.7263077,9.69564433 26.5945385,6.30556701 C27.4403077,6.81425258 28.2918462,7.31273196 29.1415385,7.8142268 C30.3696923,10.9500773 31.9352308,14.8061598 34.4487692,17.0858505 C34.4616923,17.0976804 34.4773846,17.0958247 34.4916923,17.1025515 C34.4030769,17.4166237 34.2962308,17.7316237 34.1607692,18.0487113 L34.1607692,18.0487113 Z M34.5851538,16.6973196 C32.8075385,13.8219588 31.0654615,11.0435567 29.5119231,8.03365979 C30.7043077,8.73417526 31.9059231,9.41891753 33.1160769,10.0897423 C33.1172308,10.0948454 33.1130769,10.0985567 33.1151538,10.1038918 C33.5448462,11.2493041 33.9396923,12.5631186 34.5708462,13.6097165 C34.6271538,13.7036598 34.7303077,13.7113144 34.8085385,13.6707216 C34.8429231,14.6836856 34.815,15.6855155 34.5851538,16.6973196 L34.5851538,16.6973196 Z" id="Shape"></path>
                                    <path d="M33.4610769,12.4406443 C32.8149231,11.3817526 32.1101538,10.361134 31.4081538,9.33935567 C31.3107692,9.19762887 31.0864615,9.32358247 31.1755385,9.47597938 C31.731,10.4258505 32.3021538,11.3662113 32.8580769,12.3156186 C33.3863077,13.2172423 33.78,14.259201 34.3933846,15.097732 C34.5214615,15.2728608 34.809,15.1745103 34.7531538,14.9453351 C34.5323077,14.0427835 33.9401538,13.2260567 33.4610769,12.4406443 L33.4610769,12.4406443 Z" id="Shape"></path>
                                    <path d="M24.7098462,36.7401804 C23.2052308,35.0424742 21.8180769,33.3062629 20.4117692,31.5241237 C20.3323846,31.4234536 20.1662308,31.5549742 20.2356923,31.6609794 C21.4437692,33.5034278 22.7256923,35.6641237 24.4966154,37.018067 C24.6634615,37.1456443 24.8353846,36.8819072 24.7098462,36.7401804 L24.7098462,36.7401804 Z" id="Shape"></path>
                                </g>
                            </g>
                        </g>
                    </g>
                </g>
            </g>
        </g>
    </g>
</svg>