<?xml version="1.0" encoding="UTF-8" standalone="no"?>
<svg width="25px" height="18px" viewBox="0 0 25 18" version="1.1" xmlns="http://www.w3.org/2000/svg" xmlns:xlink="http://www.w3.org/1999/xlink">
    <!-- Generator: Sketch 39.1 (31720) - http://www.bohemiancoding.com/sketch -->
    <title>mail</title>
    <desc>Created with Sketch.</desc>
    <defs></defs>
    <g id="формы" stroke="none" stroke-width="1" fill="none" fill-rule="evenodd">
        <g id="polis812_green_step2" transform="translate(-582.000000, -602.000000)" fill="#303030">
            <g id="visa" transform="translate(132.000000, 258.000000)">
                <g id="background-form" transform="translate(4.000000, 94.000000)">
                    <g id="Контакты" transform="translate(100.000000, 200.000000)">
                        <g id="место-регистрации" transform="translate(331.000000, 2.000000)">
                            <g id="mail" transform="translate(15.000000, 48.000000)">
                                <g id="Capa_1">
                                    <g id="Group">
                                        <g transform="translate(3.906250, 8.608696)" id="Shape" opacity="0.496851679">
                                            <path d="M15.7101562,5.09478261 C15.6140625,5.09478261 15.5179687,5.05956522 15.4429687,4.98834783 L10.9476562,0.763826087 C10.790625,0.616695652 10.7828125,0.368608696 10.9304687,0.211304348 C11.078125,0.0524347826 11.3242187,0.0453913043 11.4828125,0.194086957 L15.978125,4.4186087 C16.1351562,4.56573913 16.1429687,4.81382609 15.9953125,4.97113043 C15.9179687,5.05330435 15.8148437,5.09478261 15.7101562,5.09478261 L15.7101562,5.09478261 Z"></path>
                                            <path d="M0.7046875,5.09478261 C0.60078125,5.09478261 0.496875,5.05330435 0.41953125,4.97113043 C0.271875,4.81382609 0.2796875,4.56573913 0.43671875,4.4186087 L4.93359375,0.194086957 C5.09140625,0.0469565217 5.3390625,0.0532173913 5.4859375,0.211304348 C5.63359375,0.368608696 5.62578125,0.616695652 5.46875,0.763826087 L0.971875,4.98834783 C0.896875,5.05956522 0.80078125,5.09478261 0.7046875,5.09478261 L0.7046875,5.09478261 Z"></path>
                                        </g>
                                        <path d="M22.275,17.6313913 L1.953125,17.6313913 C0.8765625,17.6313913 0,16.754087 0,15.6748696 L0,2.33373913 C0,1.25452174 0.8765625,0.377217391 1.953125,0.377217391 L22.275,0.377217391 C23.3515625,0.377217391 24.228125,1.25452174 24.228125,2.33373913 L24.228125,15.6748696 C24.228125,16.754087 23.3515625,17.6313913 22.275,17.6313913 L22.275,17.6313913 Z M1.953125,1.15982609 C1.30703125,1.15982609 0.78125,1.68652174 0.78125,2.33373913 L0.78125,15.6748696 C0.78125,16.322087 1.30703125,16.8487826 1.953125,16.8487826 L22.275,16.8487826 C22.9210938,16.8487826 23.446875,16.322087 23.446875,15.6748696 L23.446875,2.33373913 C23.446875,1.68652174 22.9210938,1.15982609 22.275,1.15982609 L1.953125,1.15982609 L1.953125,1.15982609 Z" id="Shape" opacity="0.54349347"></path>
                                        <path d="M12.1140625,10.9706087 C11.5945312,10.9706087 11.075,10.7976522 10.6796875,10.4525217 L0.6484375,1.68652174 C0.4859375,1.54486957 0.46875,1.29756522 0.61015625,1.134 C0.753125,0.971217391 0.99921875,0.956347826 1.16171875,1.09643478 L11.1929687,9.86165217 C11.6921875,10.2975652 12.5359375,10.2975652 13.034375,9.86165217 L23.053125,1.11052174 C23.2148437,0.968869565 23.4609375,0.984521739 23.6046875,1.14808696 C23.7460937,1.31165217 23.7296875,1.55817391 23.5671875,1.7006087 L13.5484375,10.4517391 C13.1523437,10.7976522 12.6335937,10.9706087 12.1140625,10.9706087 L12.1140625,10.9706087 Z" id="Shape" opacity="0.54349347"></path>
                                    </g>
                                </g>
                            </g>
                        </g>
                    </g>
                </g>
            </g>
        </g>
    </g>
</svg>