<?xml version="1.0" encoding="UTF-8" standalone="no"?>
<svg width="18px" height="16px" viewBox="0 0 18 16" version="1.1" xmlns="http://www.w3.org/2000/svg" xmlns:xlink="http://www.w3.org/1999/xlink">
    <!-- Generator: Sketch 39.1 (31720) - http://www.bohemiancoding.com/sketch -->
    <title>medical</title>
    <desc>Created with Sketch.</desc>
    <defs></defs>
    <g id="формы" stroke="none" stroke-width="1" fill="none" fill-rule="evenodd">
        <g id="polis812_viza_step1" transform="translate(-931.000000, -530.000000)" fill="#FFFFFF">
            <g id="visa" transform="translate(131.000000, 258.000000)">
                <g id="background-form" transform="translate(4.000000, 94.000000)">
                    <g id="sidebar" transform="translate(701.000000, 92.000000)">
                        <g id="medical" transform="translate(95.000000, 86.000000)">
                            <g id="Capa_1">
                                <g id="Group">
                                    <path d="M16.4819736,1.48283744 L16.4819736,1.48283744 C14.4972952,-0.489891626 11.268,-0.489891626 9.28332159,1.48283744 L8.98521145,1.77915271 L8.68710132,1.48283744 C6.70246256,-0.489852217 3.47312775,-0.489852217 1.48848899,1.48283744 C-0.49614978,3.4555665 -0.49614978,6.66541872 1.48848899,8.63814778 L8.775,15.8807488 C8.83304405,15.9384433 8.9091674,15.96733 8.9852511,15.96733 C9.0613348,15.96733 9.13745815,15.9384828 9.1955022,15.8807488 L16.4819736,8.63814778 C18.4666123,6.66541872 18.4666123,3.4555665 16.4819736,1.48283744 L16.4819736,1.48283744 Z M16.0614714,8.22017734 L8.9852511,15.2537931 L1.90899119,8.22017734 C0.156211454,6.47795074 0.156251101,3.64307389 1.90899119,1.90084729 C2.78548018,1.02963547 3.93644934,0.594167488 5.08777533,0.594167488 C6.23882379,0.594167488 7.39026872,1.02983251 8.26655947,1.90084729 L8.7749207,2.40614778 C8.8306652,2.46159606 8.90631278,2.49272906 8.98517181,2.49272906 C9.06403084,2.49272906 9.13967841,2.46159606 9.19542291,2.40614778 L9.70378414,1.90084729 C11.4566035,0.15862069 14.3086123,0.158660099 16.0613921,1.90084729 C17.8142115,3.6431133 17.8142115,6.47791133 16.0614714,8.22017734 L16.0614714,8.22017734 Z" id="Shape"></path>
                                    <path d="M11.4584273,6.20535961 L10.9920529,6.20535961 L10.9920529,5.15720197 C10.9920529,4.05726108 10.0917753,3.16244335 8.98521145,3.16244335 C7.87860793,3.16244335 6.97837004,4.05730049 6.97837004,5.15720197 L6.97837004,6.20535961 L6.51207489,6.20535961 C6.34785463,6.20535961 6.21471806,6.33769458 6.21471806,6.50092611 L6.21471806,10.858601 C6.21471806,11.0218325 6.34785463,11.1541675 6.51207489,11.1541675 L11.4584273,11.1541675 C11.6226476,11.1541675 11.7557841,11.0218325 11.7557841,10.858601 L11.7557841,6.50092611 C11.7557841,6.33769458 11.6226476,6.20535961 11.4584273,6.20535961 L11.4584273,6.20535961 Z M7.5730837,5.15720197 C7.5730837,4.38325123 8.20657269,3.75357635 8.98521145,3.75357635 C9.76385022,3.75357635 10.3973392,4.38325123 10.3973392,5.15720197 L10.3973392,6.20535961 L7.5730837,6.20535961 L7.5730837,5.15720197 L7.5730837,5.15720197 Z M11.1610705,10.5629951 L6.80939207,10.5629951 L6.80939207,6.7964532 L11.1610308,6.7964532 L11.1610308,10.5629951 L11.1610705,10.5629951 Z" id="Shape"></path>
                                    <path d="M8.68785463,9.06333005 L8.68785463,9.78139901 C8.68785463,9.94463054 8.82099119,10.0769655 8.98521145,10.0769655 C9.14943172,10.0769655 9.28256828,9.94463054 9.28256828,9.78139901 L9.28256828,9.06333005 C9.64189427,8.94029557 9.90091189,8.60110345 9.90091189,8.2026798 C9.90091189,7.70080788 9.49012335,7.29253202 8.98521145,7.29253202 C8.48029956,7.29253202 8.06955066,7.70080788 8.06955066,8.2026798 C8.06955066,8.60110345 8.32852863,8.94033498 8.68785463,9.06333005 L8.68785463,9.06333005 Z M8.98521145,7.88370443 C9.16219824,7.88370443 9.30619824,8.02679803 9.30619824,8.20271921 C9.30619824,8.37864039 9.16219824,8.5217734 8.98521145,8.5217734 C8.80822467,8.5217734 8.66426432,8.37864039 8.66426432,8.20271921 C8.66426432,8.02679803 8.80822467,7.88370443 8.98521145,7.88370443 L8.98521145,7.88370443 Z" id="Shape"></path>
                                </g>
                            </g>
                        </g>
                    </g>
                </g>
            </g>
        </g>
    </g>
</svg>