<?xml version="1.0" encoding="UTF-8" standalone="no"?>
<svg width="15px" height="15px" viewBox="0 0 15 15" version="1.1" xmlns="http://www.w3.org/2000/svg" xmlns:xlink="http://www.w3.org/1999/xlink">
    <!-- Generator: Sketch 39.1 (31720) - http://www.bohemiancoding.com/sketch -->
    <title>add</title>
    <desc>Created with Sketch.</desc>
    <defs></defs>
    <g id="формы" stroke="none" stroke-width="1" fill="none" fill-rule="evenodd">
        <g id="polis812_osago_step2_self" transform="translate(-938.000000, -1249.000000)" fill="#FFFFFF">
            <g id="visa" transform="translate(132.000000, 258.000000)">
                <g id="background-form" transform="translate(4.000000, 94.000000)">
                    <g id="ВЛАДЕЛЬЦЫ" transform="translate(801.000000, 231.000000)">
                        <g id="add" transform="translate(1.000000, 666.000000)">
                            <g id="Group">
                                <path d="M7.5,0.0641025641 C3.3974359,0.0641025641 0.0512820513,3.3974359 0.0512820513,7.5 C0.0512820513,11.6025641 3.38461538,14.9358974 7.5,14.9358974 C11.6025641,14.9358974 14.9358974,11.6025641 14.9358974,7.5 C14.9358974,3.3974359 11.6025641,0.0641025641 7.5,0.0641025641 L7.5,0.0641025641 Z M7.5,13.8974359 C3.97435897,13.8974359 1.1025641,11.025641 1.1025641,7.5 C1.1025641,3.97435897 3.97435897,1.1025641 7.5,1.1025641 C11.025641,1.1025641 13.8974359,3.97435897 13.8974359,7.5 C13.8974359,11.025641 11.025641,13.8974359 7.5,13.8974359 L7.5,13.8974359 Z" id="Shape"></path>
                                <path d="M10.9230769,6.91025641 L8.02564103,6.91025641 L8.02564103,4 C8.02564103,3.70512821 7.79487179,3.47435897 7.5,3.47435897 C7.20512821,3.47435897 6.97435897,3.70512821 6.97435897,4 L6.97435897,6.8974359 L4.07692308,6.8974359 C3.78205128,6.8974359 3.55128205,7.12820513 3.55128205,7.42307692 C3.55128205,7.71794872 3.78205128,7.94871795 4.07692308,7.94871795 L6.97435897,7.94871795 L6.97435897,10.8461538 C6.97435897,11.1410256 7.20512821,11.3717949 7.5,11.3717949 C7.79487179,11.3717949 8.02564103,11.1410256 8.02564103,10.8461538 L8.02564103,7.94871795 L10.9230769,7.94871795 C11.2179487,7.94871795 11.4487179,7.71794872 11.4487179,7.42307692 C11.4487179,7.12820513 11.2179487,6.91025641 10.9230769,6.91025641 L10.9230769,6.91025641 Z" id="Shape"></path>
                            </g>
                        </g>
                    </g>
                </g>
            </g>
        </g>
    </g>
</svg>