<?xml version="1.0" encoding="UTF-8" standalone="no"?>
<svg width="24px" height="24px" viewBox="0 0 24 24" version="1.1" xmlns="http://www.w3.org/2000/svg" xmlns:xlink="http://www.w3.org/1999/xlink">
    <!-- Generator: Sketch 39.1 (31720) - http://www.bohemiancoding.com/sketch -->
    <title>search-2</title>
    <desc>Created with Sketch.</desc>
    <defs></defs>
    <g id="Page-1" stroke="none" stroke-width="1" fill="none" fill-rule="evenodd" opacity="0.485599347">
        <g id="polis812_vzr_step1" transform="translate(-666.000000, -499.000000)" fill="#000000">
            <g id="insurance" transform="translate(131.000000, 258.000000)">
                <g id="background-form" transform="translate(4.000000, 47.000000)">
                    <g id="dropdown-copy" transform="translate(100.000000, 171.000000)">
                        <g id="search-2" transform="translate(431.000000, 23.000000)">
                            <g id="Capa_1">
                                <path d="M23.8342222,21.9488889 L16.7977778,14.9124444 C17.9657778,13.3537778 18.6666667,11.4262222 18.6666667,9.33333333 C18.6666667,4.18666667 14.48,0 9.33333333,0 C4.18666667,0 0,4.18666667 0,9.33333333 C0,14.48 4.18666667,18.6666667 9.33333333,18.6666667 C11.4262222,18.6666667 13.3537778,17.9657778 14.9124444,16.7977778 L21.9488889,23.8342222 L23.8342222,21.9488889 L23.8342222,21.9488889 Z M0.888888889,9.33333333 C0.888888889,4.67688889 4.67688889,0.888888889 9.33333333,0.888888889 C13.9897778,0.888888889 17.7777778,4.67688889 17.7777778,9.33333333 C17.7777778,13.9897778 13.9897778,17.7777778 9.33333333,17.7777778 C4.67688889,17.7777778 0.888888889,13.9897778 0.888888889,9.33333333 L0.888888889,9.33333333 Z M15.8075556,16.0413333 C15.8866667,15.9648889 15.9644444,15.8871111 16.0408889,15.808 C16.1057778,15.7408889 16.176,15.6791111 16.2386667,15.6102222 L22.5773333,21.9488889 L21.9484444,22.5777778 L15.6102222,16.2386667 C15.6791111,16.176 15.7404444,16.1057778 15.8075556,16.0413333 L15.8075556,16.0413333 Z" id="Shape"></path>
                            </g>
                        </g>
                    </g>
                </g>
            </g>
        </g>
    </g>
</svg>