<?xml version="1.0" encoding="UTF-8" standalone="no"?>
<svg width="50px" height="50px" viewBox="0 0 50 50" version="1.1" xmlns="http://www.w3.org/2000/svg" xmlns:xlink="http://www.w3.org/1999/xlink">
    <!-- Generator: Sketch 39.1 (31720) - http://www.bohemiancoding.com/sketch -->
    <title>Group 7</title>
    <desc>Created with Sketch.</desc>
    <defs></defs>
    <g id="Page-1" stroke="none" stroke-width="1" fill="none" fill-rule="evenodd">
        <g id="polis812_vzr_step1" transform="translate(-586.000000, -4071.000000)">
            <g id="socials" transform="translate(235.000000, 3888.000000)">
                <g id="vk" transform="translate(351.000000, 183.000000)">
                    <g id="Group-7">
                        <circle id="Oval-4" fill="#46688C" cx="25" cy="25" r="25"></circle>
                        <g id="vk" transform="translate(8.000000, 17.000000)" fill="#FFFFFF">
                            <g id="Layer_1">
                                <g id="XMLID_1_">
                                    <path d="M27.4827541,11.4009711 C28.5420066,12.4265549 29.6600131,13.3914798 30.6100459,14.5204855 C31.029718,15.0221965 31.4270426,15.5399306 31.7309902,16.1221734 C32.1616787,16.9498613 31.7715934,17.8606821 31.0232131,17.910104 L26.3711475,17.9080231 C25.1713049,18.006763 24.2141377,17.5277341 23.4093115,16.7141965 C22.7652197,16.0635954 22.1687607,15.3711676 21.5494295,14.6986127 C21.2955279,14.4237225 21.0297705,14.1650636 20.7122885,13.9606127 C20.0772197,13.551815 19.5259803,13.6769827 19.1630689,14.3338266 C18.7934426,15.0019075 18.7096131,15.7416763 18.6733115,16.4862312 C18.6234754,17.572578 18.2923541,17.858185 17.1919738,17.9079191 C14.840341,18.017896 12.6085246,17.6650751 10.5352393,16.4886243 C8.70735738,15.4514913 7.28991475,13.9873526 6.05618361,12.3297919 C3.65408525,9.10217341 1.81455738,5.55554913 0.161259016,1.90956069 C-0.210885246,1.08811561 0.0612721311,0.64716763 0.975213115,0.631560694 C2.49285246,0.602323699 4.01028197,0.604404624 5.52970492,0.629479769 C6.14651803,0.638427746 6.55485902,0.989271676 6.79302295,1.56714451 C7.61411148,3.56930636 8.61880656,5.47418497 9.87992131,7.23984971 C10.2157639,7.70993064 10.5582164,8.18001156 11.0458754,8.51087861 C11.5853639,8.87722543 11.996118,8.75580347 12.2499148,8.15982659 C12.4109639,7.78193064 12.4814689,7.37490173 12.5177705,6.97016185 C12.6380066,5.57771098 12.6538492,4.18765318 12.4429639,2.80009249 C12.3134951,1.93411561 11.8216393,1.37351445 10.9502951,1.20964162 C10.5056525,1.12609249 10.5718557,0.962011561 10.7871475,0.710323699 C11.1610754,0.276242775 11.5127607,0.00603468208 12.213823,0.00603468208 L17.4713705,0.00603468208 C18.2990689,0.168034682 18.4828852,0.536774566 18.5961967,1.36269364 L18.6007082,7.15421965 C18.5916852,7.47395376 18.7617574,8.42275145 19.3424787,8.6343815 C19.8072656,8.78504046 20.1136262,8.41630058 20.3924984,8.12403468 C21.6513049,6.79910983 22.549718,5.23331792 23.352341,3.61196532 C23.7085377,2.89904046 24.0147934,2.1586474 24.3116066,1.41887861 C24.5315148,0.869930636 24.8765902,0.59982659 25.500118,0.611791908 L30.5602098,0.616265896 C30.7102426,0.616265896 30.862059,0.618450867 31.0073705,0.643109827 C31.8600393,0.787213873 32.0936918,1.15095954 31.8303475,1.97667052 C31.4153967,3.27215029 30.6080525,4.3517341 29.8186492,5.43631214 C28.9747934,6.59424277 28.0722885,7.71253179 27.2354623,8.87732948 C26.466623,9.94099422 26.5276852,10.4771445 27.4827541,11.4009711 L27.4827541,11.4009711 L27.4827541,11.4009711 Z" id="XMLID_807_"></path>
                                </g>
                            </g>
                        </g>
                    </g>
                </g>
            </g>
        </g>
    </g>
</svg>