<?xml version="1.0" encoding="UTF-8" standalone="no"?>
<svg width="18px" height="15px" viewBox="0 0 18 15" version="1.1" xmlns="http://www.w3.org/2000/svg" xmlns:xlink="http://www.w3.org/1999/xlink">
    <!-- Generator: Sketch 39.1 (31720) - http://www.bohemiancoding.com/sketch -->
    <title>photo-camera</title>
    <desc>Created with Sketch.</desc>
    <defs></defs>
    <g id="формы" stroke="none" stroke-width="1" fill="none" fill-rule="evenodd">
        <g id="polis812_mainpage" transform="translate(-135.000000, -1519.000000)" fill="#303030">
            <g id="viza_price_v2" transform="translate(0.000000, 1080.000000)">
                <g id="table" transform="translate(135.000000, 234.000000)">
                    <g id="photo-camera" transform="translate(0.000000, 205.000000)">
                        <g id="Capa_1">
                            <g id="Group">
                                <path d="M16.5603,3.15 L14.0031,3.15 L12.8031,0.15 L5.1969,0.15 L3.9969,3.15 L3.6,3.15 L3.6,1.65 L1.8,1.65 L1.8,3.15 L1.4397,3.15 C0.6456,3.15 0,3.7956 0,4.5897 L0,13.4001 C0,14.1996 0.6504,14.85 1.4499,14.85 L16.5501,14.85 C17.3496,14.85 18,14.1996 18,13.4001 L18,4.5897 C18,3.7956 17.3544,3.15 16.5603,3.15 L16.5603,3.15 Z M2.4,2.25 L3,2.25 L3,3.15 L2.4,3.15 L2.4,2.25 L2.4,2.25 Z M17.4,13.4001 C17.4,13.869 17.0187,14.25 16.5501,14.25 L1.4499,14.25 C0.9813,14.25 0.6,13.8687 0.6,13.4001 L0.6,4.5897 C0.6,4.1268 0.9768,3.75 1.4397,3.75 L1.8,3.75 L3.6,3.75 L4.4031,3.75 L5.6031,0.75 L12.3969,0.75 L13.5969,3.75 L16.5603,3.75 C17.0232,3.75 17.4,4.1268 17.4,4.5897 L17.4,13.4001 L17.4,13.4001 Z" id="Shape"></path>
                                <path d="M9,2.85 C6.0225,2.85 3.6,5.2725 3.6,8.25 C3.6,11.2275 6.0225,13.65 9,13.65 C11.9775,13.65 14.4,11.2275 14.4,8.25 C14.4,5.2725 11.9775,2.85 9,2.85 L9,2.85 Z M9,13.05 C6.3534,13.05 4.2,10.8966 4.2,8.25 C4.2,5.6034 6.3534,3.45 9,3.45 C11.6466,3.45 13.8,5.6034 13.8,8.25 C13.8,10.8966 11.6466,13.05 9,13.05 L9,13.05 Z" id="Shape"></path>
                                <path d="M9,4.65 C7.0149,4.65 5.4,6.2649 5.4,8.25 C5.4,10.2351 7.0149,11.85 9,11.85 C10.9851,11.85 12.6,10.2351 12.6,8.25 C12.6,6.2649 10.9851,4.65 9,4.65 L9,4.65 Z M9,11.25 C7.3458,11.25 6,9.9042 6,8.25 C6,6.5958 7.3458,5.25 9,5.25 C10.6542,5.25 12,6.5958 12,8.25 C12,9.9042 10.6542,11.25 9,11.25 L9,11.25 Z" id="Shape"></path>
                                <path d="M15.6,4.35 C14.9382,4.35 14.4,4.8882 14.4,5.55 C14.4,6.2118 14.9382,6.75 15.6,6.75 C16.2618,6.75 16.8,6.2118 16.8,5.55 C16.8,4.8882 16.2618,4.35 15.6,4.35 L15.6,4.35 Z M15.6,6.15 C15.2691,6.15 15,5.8809 15,5.55 C15,5.2191 15.2691,4.95 15.6,4.95 C15.9309,4.95 16.2,5.2191 16.2,5.55 C16.2,5.8809 15.9309,6.15 15.6,6.15 L15.6,6.15 Z" id="Shape"></path>
                            </g>
                        </g>
                    </g>
                </g>
            </g>
        </g>
    </g>
</svg>