<?xml version="1.0" encoding="UTF-8" standalone="no"?>
<svg width="50px" height="50px" viewBox="0 0 50 50" version="1.1" xmlns="http://www.w3.org/2000/svg" xmlns:xlink="http://www.w3.org/1999/xlink">
    <!-- Generator: Sketch 39.1 (31720) - http://www.bohemiancoding.com/sketch -->
    <title>google-plus</title>
    <desc>Created with Sketch.</desc>
    <defs></defs>
    <g id="Symbols" stroke="none" stroke-width="1" fill="none" fill-rule="evenodd">
        <g id="footer" transform="translate(-835.000000, -283.000000)">
            <g id="socials">
                <g transform="translate(555.000000, 283.000000)">
                    <g id="google-plus" transform="translate(280.000000, 0.000000)">
                        <g id="Layer_1">
                            <g id="Group">
                                <path d="M24.9417808,0 C38.6597603,0 49.8835616,11.2238014 49.8835616,24.9417808 C49.8835616,38.6597603 38.6597603,49.8835616 24.9417808,49.8835616 C11.2238014,49.8835616 0,38.659589 0,24.9417808 C0,11.2239726 11.2238014,0 24.9417808,0 L24.9417808,0 Z" id="Shape" fill="#DD4B39"></path>
                                <g transform="translate(9.417808, 15.068493)" id="Shape" fill="#FFFFFF">
                                    <polygon points="28.1506849 5.66421233 28.1506849 8.47020548 30.9565068 8.47020548 30.9565068 11.2761986 28.1506849 11.2761986 28.1506849 14.0821918 25.3446918 14.0821918 25.3446918 11.2761986 22.5386986 11.2761986 22.5386986 8.47020548 25.3446918 8.47020548 25.3446918 5.66421233"></polygon>
                                    <path d="M2.89708904,16.8880137 C-0.844178082,13.1467466 -0.844178082,6.5994863 3.05291096,2.85839041 C5.85890411,0.0523972603 9.91181507,-0.571061644 13.4972603,0.831849315 L14.9001712,1.61130137 L16.4590753,2.70256849 L13.9648973,5.19674658 L13.0296233,4.57328767 C10.8472603,3.17037671 7.72945205,3.48202055 5.70308219,5.50856164 C3.36472603,7.84691781 3.20890411,12.0558219 5.70308219,14.55 C8.04143836,17.0441781 12.2503425,17.0441781 14.4327055,14.55 C15.0561644,13.9265411 15.6797945,12.9910959 15.8356164,12.0558219 L15.8356164,11.7440068 L10.2238014,11.7440068 L10.2238014,8.62636986 L19.1092466,8.62636986 L19.2650685,9.40582192 L19.2650685,11.5881849 C19.1092466,13.614726 18.3297945,15.6412671 16.9267123,17.0441781 C13.1856164,20.6292808 6.63835616,20.6292808 2.89708904,16.8880137 L2.89708904,16.8880137 Z"></path>
                                </g>
                            </g>
                        </g>
                    </g>
                </g>
            </g>
        </g>
    </g>
</svg>