<?xml version="1.0" encoding="UTF-8" standalone="no"?>
<svg width="28px" height="25px" viewBox="0 0 28 25" version="1.1" xmlns="http://www.w3.org/2000/svg" xmlns:xlink="http://www.w3.org/1999/xlink">
    <!-- Generator: Sketch 39.1 (31720) - http://www.bohemiancoding.com/sketch -->
    <title>left-quote</title>
    <desc>Created with Sketch.</desc>
    <defs></defs>
    <g id="Page-1" stroke="none" stroke-width="1" fill="none" fill-rule="evenodd" opacity="0.248309235">
        <g id="polis812_vzr_step1" transform="translate(-155.000000, -4831.000000)" fill="#000000">
            <g id="press" transform="translate(-4.000000, 4229.000000)">
                <g id="vkontakte" transform="translate(139.000000, 471.000000)">
                    <g id="Group-6" transform="translate(0.000000, 77.000000)">
                        <g id="left-quote" transform="translate(20.000000, 54.000000)">
                            <g id="Capa_1">
                                <g id="Group">
                                    <path d="M11.2451613,5.00727273 C11.9451613,4.71181818 12.2387097,3.87090909 11.9225806,3.18909091 L10.816129,0.848181818 C10.5,0.189318182 9.73225806,-0.106363636 9.05483871,0.189318182 C7.13548387,1.0075 5.48709677,2.07568182 4.17741935,3.37113636 C2.57419355,4.89363636 1.49032258,6.64363636 0.903225806,8.57545455 C0.316129032,10.5302273 0,13.1890909 0,16.5754545 L0,23.5527273 C0,24.3027273 0.609677419,24.9163636 1.35483871,24.9163636 L10.2290323,24.9163636 C10.9741935,24.9163636 11.583871,24.3027273 11.583871,23.5527273 L11.583871,14.6209091 C11.583871,13.8706818 10.9741935,13.2572727 10.2290323,13.2572727 L5.98387097,13.2572727 C6.02903226,10.9615909 6.57096774,9.12090909 7.56451613,7.73431818 C8.37741935,6.62113636 9.59677419,5.71204545 11.2451613,5.00727273 L11.2451613,5.00727273 Z" id="Shape"></path>
                                    <path d="M27.1870968,5.00727273 C27.8870968,4.71181818 28.1804194,3.87090909 27.8645161,3.18909091 L26.7580645,0.871136364 C26.4419355,0.212045455 25.6741935,-0.0834090909 24.9967742,0.212045455 C23.1,1.03022727 21.4739677,2.09840909 20.1419355,3.37113636 C18.5384839,4.91659091 17.4322581,6.66659091 16.8449355,8.59840909 C16.2578387,10.5072727 15.9645161,13.1665909 15.9645161,16.5756818 L15.9645161,23.5529545 C15.9645161,24.3029545 16.5741935,24.9165909 17.3193548,24.9165909 L26.1935484,24.9165909 C26.9387097,24.9165909 27.5483871,24.3029545 27.5483871,23.5529545 L27.5483871,14.6211364 C27.5483871,13.8709091 26.9387097,13.2575 26.1935484,13.2575 L21.9258065,13.2575 C21.9709677,10.9618182 22.513129,9.12113636 23.5064516,7.73454545 C24.3193548,6.62113636 25.5387097,5.71204545 27.1870968,5.00727273 L27.1870968,5.00727273 Z" id="Shape"></path>
                                </g>
                            </g>
                        </g>
                    </g>
                </g>
            </g>
        </g>
    </g>
</svg>