<?xml version="1.0" encoding="UTF-8" standalone="no"?>
<svg width="40px" height="40px" viewBox="0 0 40 40" version="1.1" xmlns="http://www.w3.org/2000/svg" xmlns:xlink="http://www.w3.org/1999/xlink">
    <!-- Generator: Sketch 39.1 (31720) - http://www.bohemiancoding.com/sketch -->
    <title>england</title>
    <desc>Created with Sketch.</desc>
    <defs></defs>
    <g id="статика" stroke="none" stroke-width="1" fill="none" fill-rule="evenodd">
        <g id="polis812_offline" transform="translate(-1035.000000, -476.000000)">
            <g id="UK" transform="translate(1035.000000, 476.000000)">
                <g id="england">
                    <g id="Layer_1">
                        <circle id="Oval" fill="#F0F0F0" cx="20" cy="20" r="20"></circle>
                        <path d="M39.8307031,17.3913281 L22.6088281,17.3913281 L22.60875,17.3913281 L22.60875,0.169296875 C21.7547656,0.058125 20.8841406,0 20,0 C19.1158594,0 18.2452344,0.058125 17.3913281,0.169296875 L17.3913281,17.3911719 L17.3913281,17.39125 L0.169296875,17.39125 C0.058125,18.2452344 0,19.1157031 0,20 C0,20.8842969 0.058125,21.7547656 0.169296875,22.6086719 L17.3911719,22.6086719 L17.39125,22.6086719 L17.39125,39.8307031 C18.2452344,39.941875 19.1158594,40 20,40 C20.8841406,40 21.7547656,39.9419531 22.6086719,39.8307031 L22.6086719,22.6088281 L22.6086719,22.60875 L39.8307031,22.60875 C39.941875,21.7547656 40,20.8842969 40,20 C40,19.1157031 39.941875,18.2452344 39.8307031,17.3913281 L39.8307031,17.3913281 Z" id="Shape" fill="#D80027"></path>
                    </g>
                </g>
            </g>
        </g>
    </g>
</svg>