<?xml version="1.0" encoding="UTF-8" standalone="no"?>
<svg width="12px" height="15px" viewBox="0 0 12 15" version="1.1" xmlns="http://www.w3.org/2000/svg" xmlns:xlink="http://www.w3.org/1999/xlink">
    <!-- Generator: Sketch 39.1 (31720) - http://www.bohemiancoding.com/sketch -->
    <title>danger</title>
    <desc>Created with Sketch.</desc>
    <defs></defs>
    <g id="Symbols" stroke="none" stroke-width="1" fill="none" fill-rule="evenodd">
        <g id="header" transform="translate(-1186.000000, -81.000000)" fill="#FF7058">
            <g id="danger">
                <g transform="translate(1186.000000, 81.000000)">
                    <g id="Layer_1">
                        <path d="M9.63968504,4.41234977 C9.67370079,5.06692913 9.35055118,5.7215085 8.89133858,6.40965603 C9.26551181,4.17737257 8.51716535,1.67654372 5.50677165,0.518441774 C5.76188976,1.4583506 5.1496063,2.61645255 4.55433071,3.87525901 C4.19716535,3.47244094 3.78897638,3.08640696 3.29574803,2.71715707 C3.53385827,5.8389971 -3.40535433,8.96083713 2.22425197,14.2981765 C2.22425197,14.2981765 2.5984252,14.5331538 3.26173228,14.768131 C3.24472441,14.7513469 3.22771654,14.7345628 3.21070866,14.7177787 L3.21070866,14.7177787 C2.00314961,13.4254041 1.33984252,10.7567344 3.63590551,8.9944053 C3.60188976,9.43079155 3.82299213,9.8503937 4.12913386,10.2867799 C3.89102362,8.84334853 4.36724409,7.21529217 6.32314961,6.46000829 C6.15307087,7.06423539 6.56125984,7.81951927 6.93543307,8.64193949 C7.15653543,8.37339412 7.42866142,8.12163282 7.75181102,7.88665562 C7.63275591,9.54828015 10.7622047,11.2602569 9.63968504,13.794654 C9.8607874,13.6268131 10.0818898,13.4421881 10.2859843,13.223995 L10.2859843,13.223995 C12.1398425,11.2434729 13.160315,7.13137174 9.63968504,4.41234977 L9.63968504,4.41234977 Z" id="Shape"></path>
                    </g>
                </g>
            </g>
        </g>
    </g>
</svg>