<?xml version="1.0" encoding="UTF-8" standalone="no"?>
<svg width="27px" height="25px" viewBox="0 0 27 25" version="1.1" xmlns="http://www.w3.org/2000/svg" xmlns:xlink="http://www.w3.org/1999/xlink">
    <!-- Generator: Sketch 39.1 (31720) - http://www.bohemiancoding.com/sketch -->
    <title>Capa_1</title>
    <desc>Created with Sketch.</desc>
    <defs></defs>
    <g id="Page-1" stroke="none" stroke-width="1" fill="none" fill-rule="evenodd" opacity="0.49895056">
        <g id="polis812_vzr_step1" transform="translate(-1165.000000, -435.000000)" fill="#000000">
            <g id="insurance" transform="translate(131.000000, 258.000000)">
                <g id="background-form" transform="translate(4.000000, 47.000000)">
                    <g id="input-copy-3" transform="translate(585.000000, 114.000000)">
                        <g id="airplane-travelling-around-earth" transform="translate(445.000000, 16.000000)">
                            <g id="Capa_1">
                                <g id="Group">
                                    <path d="M4.44982979,18.0159091 C3.73519149,16.8738636 3.21357447,15.1272727 3.21357447,13.2596591 C3.21357447,7.65965909 7.82023404,3.10340909 13.4810426,3.10340909 C14.6466383,3.10340909 15.7645532,3.30625 16.8089362,3.66136364 L15.5623404,2.16420455 C14.8861915,2.03977273 14.192234,1.96647727 13.4810426,1.96647727 C7.18602128,1.96647727 2.0646383,7.03238636 2.0646383,13.2590909 C2.0646383,15.3380682 2.64657447,17.2818182 3.46289362,18.5926136 L4.44982979,18.0159091 L4.44982979,18.0159091 Z" id="Shape"></path>
                                    <path d="M23.4291064,10.7556818 C23.6353404,11.5568182 23.7490851,12.3948864 23.7490851,13.2596591 C23.7490851,18.8585227 19.1424255,23.4147727 13.4810426,23.4147727 C11.0768936,23.4147727 8.86978723,22.5892045 7.12110638,21.2130682 L6.10429787,21.8534091 C8.09368085,23.5323864 10.6661489,24.5511364 13.4810426,24.5511364 C19.7766383,24.5511364 24.8980213,19.4852273 24.8980213,13.2596591 C24.8980213,12.8471591 24.8687234,12.4431818 24.8250638,12.04375 L23.4291064,10.7556818 L23.4291064,10.7556818 Z" id="Shape"></path>
                                    <path d="M26.5157234,10.1693182 C26.3732553,9.49715909 23.5646809,5.57897727 23.5646809,5.57897727 C23.5646809,5.57897727 25.9504468,3.29943182 26.1084255,3.02897727 C26.2652553,2.75852273 26.8695957,2.15227273 26.099234,1.52556818 C25.3282979,0.9 24.776234,1.30454545 24.5033617,1.54602273 C24.2293404,1.78863636 22.1802128,3.60397727 22.1802128,3.60397727 C22.1802128,3.60397727 18.0204894,0.608522727 17.3334255,0.555681818 C16.6469362,0.502272727 16.1885106,1.10965909 16.1885106,1.10965909 L20.4200426,5.32954545 L18.3462128,7.74943182 L16.4935532,7.21477273 L15.4692766,7.83863636 C15.4692766,7.83863636 17.5023191,8.71534091 17.9044468,9.22045455 C18.3071489,9.72556818 18.8379574,11.4022727 18.8379574,11.4022727 L19.8139787,10.89375 L19.3584255,8.68636364 L21.7125957,6.83295455 L25.748234,11.2102273 C25.749383,11.2102273 26.6581915,10.8414773 26.5157234,10.1693182 L26.5157234,10.1693182 Z" id="Shape"></path>
                                    <path d="M17.0140213,9.88693182 C16.6314255,9.53181818 16.020766,9.30852273 16.020766,9.30852273 C10.9654468,14.1676136 4.6566383,19.51875 3.28423404,19.6909091 C2.76319149,19.7278409 2.43459574,19.6079545 2.30476596,19.3306818 C2.1582766,19.0142045 1.98191489,18.8096591 2.35474468,18.4392045 L1.28853191,16.0886364 C0.270574468,17.1011364 -0.35387234,19.05 0.218297872,20.2801136 C0.71693617,21.3528409 1.78946809,21.9698864 3.12625532,21.9698864 C3.23425532,21.9698864 3.34512766,21.9653409 3.456,21.9579545 C6.17208511,21.7579545 14.9861489,13.4727273 17.6235319,10.9392045 C17.6229574,10.9386364 17.396617,10.2420455 17.0140213,9.88693182 L17.0140213,9.88693182 Z" id="Shape"></path>
                                </g>
                            </g>
                        </g>
                    </g>
                </g>
            </g>
        </g>
    </g>
</svg>