<?xml version="1.0" encoding="UTF-8" standalone="no"?>
<svg width="16px" height="25px" viewBox="0 0 16 25" version="1.1" xmlns="http://www.w3.org/2000/svg" xmlns:xlink="http://www.w3.org/1999/xlink">
    <!-- Generator: Sketch 39.1 (31720) - http://www.bohemiancoding.com/sketch -->
    <title>horse</title>
    <desc>Created with Sketch.</desc>
    <defs></defs>
    <g id="формы" stroke="none" stroke-width="1" fill="none" fill-rule="evenodd" opacity="0.488164646">
        <g id="polis812_osago_step1" transform="translate(-583.000000, -562.000000)" fill="#000000">
            <g id="visa" transform="translate(131.000000, 258.000000)">
                <g id="background-form" transform="translate(4.000000, 94.000000)">
                    <g id="мощность" transform="translate(431.000000, 195.000000)">
                        <g id="horse" transform="translate(17.000000, 15.000000)">
                            <g id="Group">
                                <path d="M10.0709124,22.2847358 C10.0709124,22.4873777 10.2332326,22.6516634 10.4334502,22.6516634 L11.2070574,22.6516634 C11.4072749,22.6516634 11.5695952,22.4873777 11.5695952,22.2847358 C11.5695952,22.0820939 11.4072749,21.9178082 11.2070574,21.9178082 L10.4334502,21.9178082 C10.2332326,21.9178082 10.0709124,22.0820939 10.0709124,22.2847358 L10.0709124,22.2847358 Z" id="Shape"></path>
                                <path d="M15.5828399,9.56457926 C15.5828399,9.44094912 15.6304048,9.32475538 15.7167855,9.23732877 C15.8886767,9.06340509 15.9833233,8.83209393 15.9833233,8.58610568 C15.9833233,8.34011742 15.8886767,8.10885519 15.7167855,7.93488258 L11.10429,3.26658513 C11.3953837,2.79290607 11.7972689,1.76007828 11.1541269,0.223825832 C11.1029366,0.101565558 10.9904532,0.0168297456 10.8600363,0.00225048924 C10.7296193,-0.0123287671 10.6016193,0.0455968689 10.5253414,0.1537182 C9.96495468,0.947749511 8.84369789,1.66922701 7.54547432,2.5045499 C6.07013897,3.45381605 4.39801813,4.5297456 3.08210272,6.025 C1.53986707,7.77744618 0.790138973,9.76741683 0.790138973,12.1087084 C0.790138973,16.5336595 3.11956495,18.4535714 3.83352266,18.9365949 C4.01981873,19.0626223 4.2377281,19.1292564 4.46370997,19.1292564 L4.63303927,19.1292564 C4.85960121,19.1292564 5.04391541,19.3158023 5.04391541,19.5451076 C5.04391541,19.7744129 4.85960121,19.9609589 4.63303927,19.9609589 L2.69960121,19.9609589 C2.61481571,19.9609589 2.53264048,19.991047 2.4675287,20.0459883 L0.425522659,21.7681996 C0.165703927,21.9872798 0.0167250755,22.3091977 0.0167250755,22.6514677 L0.0167250755,24.6330724 C0.0167250755,24.8357143 0.179045317,25 0.37926284,25 L15.0741269,25 C15.2743444,25 15.4366647,24.8357143 15.4366647,24.6330724 L15.4366647,22.6513699 C15.4366647,22.3090998 15.2876858,21.987182 15.0279154,21.7681507 L12.9859094,20.0458904 C12.9207492,19.9909491 12.8386224,19.9608611 12.7538369,19.9608611 L10.8203505,19.9608611 C10.5937885,19.9608611 10.4094743,19.7743151 10.4094743,19.5450098 C10.4094743,19.3157045 10.5937885,19.1291585 10.8203505,19.1291585 L11.1650997,19.1291585 C11.5593474,19.1291585 11.9194683,18.9271526 12.1283867,18.5887965 L12.8865257,17.3611057 C13.5320363,16.3157534 13.3999275,14.9587573 12.5651722,14.0610568 L8.4355287,9.62015656 C8.86491843,9.68571429 9.40345619,9.73581213 10.0469849,9.73581213 C11.5209668,9.73581213 12.2090634,10.5041585 12.816145,11.182045 C13.0193595,11.409002 13.2113112,11.6233366 13.4184894,11.7881605 C13.7179456,12.0264188 14.1458369,12.0015656 14.4138731,11.7302838 L15.7172205,10.4111057 C15.8588036,10.2678082 15.8584653,10.0351272 15.7168822,9.89182975 C15.6304532,9.80445205 15.5828399,9.68820939 15.5828399,9.56457926 L15.5828399,9.56457926 Z M14.0727009,21.9178082 L12.7539335,21.9178082 C12.553716,21.9178082 12.3913958,22.0820939 12.3913958,22.2847358 C12.3913958,22.4873777 12.553716,22.6516634 12.7539335,22.6516634 L14.6873716,22.6516634 C14.6954924,22.6516634 14.7034683,22.6509785 14.7114924,22.6504403 C14.7114924,22.6507339 14.7115408,22.6510763 14.7115408,22.6513699 L14.7115408,24.2661448 L0.741752266,24.2661448 L0.741752266,22.6513699 C0.741752266,22.6510763 0.741800604,22.6507339 0.741800604,22.6504403 C0.749824773,22.6509785 0.757800604,22.6516634 0.76592145,22.6516634 L8.88691239,22.6516634 C9.08712991,22.6516634 9.24945015,22.4873777 9.24945015,22.2847358 C9.24945015,22.0820939 9.08712991,21.9178082 8.88691239,21.9178082 L1.38064048,21.9178082 L2.83083988,20.6947162 L12.6225498,20.6947162 L14.0727009,21.9178082 L14.0727009,21.9178082 Z M9.76159517,19.9608611 L5.69174622,19.9608611 C5.74138973,19.8318004 5.7689426,19.6916341 5.7689426,19.5450098 C5.7689426,19.3983855 5.74138973,19.2582192 5.69174622,19.1291585 L9.76159517,19.1291585 C9.71195166,19.2582192 9.68439879,19.3983855 9.68439879,19.5450098 C9.68439879,19.6916341 9.71190332,19.8318004 9.76159517,19.9608611 L9.76159517,19.9608611 Z M15.2041088,8.71844423 C14.9807855,8.94447162 14.8577644,9.24496086 14.8577644,9.56462818 C14.8577644,9.75797456 14.9027674,9.94432485 14.9878429,10.1114971 L13.9010997,11.2114481 C13.8907069,11.2219667 13.8759154,11.2187378 13.8665378,11.2113014 C13.7074079,11.0847358 13.5432991,10.9014677 13.353281,10.6892857 C12.7156012,9.97715264 11.8423202,9.00195695 10.0468882,9.00195695 C8.38279154,9.00195695 7.48625982,8.64163405 7.47857402,8.63845401 C7.47659215,8.63762231 7.47456193,8.63703523 7.47258006,8.63625245 C7.46832628,8.63454012 7.46397583,8.63302348 7.45962538,8.63150685 C7.4524713,8.62896282 7.44526888,8.62666341 7.43806647,8.62455969 C7.43598792,8.6239726 7.43400604,8.6231409 7.43192749,8.62260274 C6.87627795,8.47509785 6.4361571,8.12451076 6.1926284,7.63551859 C5.9389003,7.1260274 5.91593958,6.52358121 6.12974018,5.98268102 C6.20413293,5.79452055 6.11369184,5.58096869 5.92778248,5.50572407 C5.74182477,5.43033268 5.53087613,5.52196673 5.45653172,5.7101272 C5.16553474,6.44633072 5.19787311,7.26854207 5.54513595,7.96585127 C5.86793958,8.61399217 6.4332568,9.08478474 7.14378248,9.30200587 L12.0370755,14.56409 C12.6462356,15.2191781 12.7426707,16.2093933 12.2716133,16.9722114 L11.5134743,18.1999022 C11.4379215,18.3222603 11.3076495,18.3953523 11.1650514,18.3953523 L4.46366163,18.3953523 C4.38163142,18.3953523 4.30308157,18.3715264 4.23642296,18.3264188 C1.71141994,16.6181018 1.51516616,13.1353718 1.51516616,12.1086595 C1.51516616,7.25415851 5.07446526,4.96399217 7.93440483,3.12382583 C9.03158912,2.41785714 10.0082175,1.78948141 10.6823927,1.09603718 C10.9944169,2.36296477 10.3974864,3.01443249 10.3706103,3.04290607 C10.2290272,3.18620352 10.2290272,3.41854207 10.3706103,3.56179061 L15.2041088,8.45381605 C15.2390091,8.48913894 15.2582477,8.5361546 15.2582477,8.58610568 C15.2582477,8.63605675 15.2390091,8.68307241 15.2041088,8.71844423 L15.2041088,8.71844423 Z" id="Shape"></path>
                                <path d="M10.9939335,5.13287671 C10.156858,4.67069472 9.55896073,5.00225049 9.12246526,5.24432485 C8.89493656,5.37049902 8.69844109,5.47945205 8.50010876,5.47945205 C8.29989124,5.47945205 8.137571,5.64373777 8.137571,5.84637965 C8.137571,6.04902153 8.29989124,6.21330724 8.50010876,6.21330724 C8.88406042,6.21330724 9.19579456,6.04041096 9.47088822,5.88791585 C9.54523263,5.84667319 9.61575831,5.80758317 9.68439879,5.77304305 L9.68439879,5.84637965 C9.68439879,6.04902153 9.84671903,6.21330724 10.0469366,6.21330724 C10.2471541,6.21330724 10.4094743,6.04902153 10.4094743,5.84637965 L10.4094743,5.67436399 C10.4837221,5.69726027 10.5620785,5.7303816 10.6467674,5.77710372 C10.822574,5.87421722 11.0427553,5.80861057 11.1386103,5.63067515 C11.2344653,5.45283757 11.1696918,5.22994129 10.9939335,5.13287671 L10.9939335,5.13287671 Z" id="Shape"></path>
                            </g>
                        </g>
                    </g>
                </g>
            </g>
        </g>
    </g>
</svg>