<?xml version="1.0" encoding="UTF-8" standalone="no"?>
<svg width="24px" height="24px" viewBox="0 0 24 24" version="1.1" xmlns="http://www.w3.org/2000/svg" xmlns:xlink="http://www.w3.org/1999/xlink">
    <!-- Generator: Sketch 39.1 (31720) - http://www.bohemiancoding.com/sketch -->
    <title>arrows</title>
    <desc>Created with Sketch.</desc>
    <defs></defs>
    <g id="формы" stroke="none" stroke-width="1" fill="none" fill-rule="evenodd" opacity="0.513118004">
        <g id="polis812_osago_step1" transform="translate(-251.000000, -719.000000)" fill="#000000">
            <g id="visa" transform="translate(131.000000, 258.000000)">
                <g id="background-form" transform="translate(4.000000, 94.000000)">
                    <g id="возраст-и-стаж" transform="translate(101.000000, 323.000000)">
                        <g id="arrows" transform="translate(15.000000, 44.000000)">
                            <g id="Capa_1">
                                <g id="Group">
                                    <path d="M11.9935729,0 C11.7240407,0 11.5054373,0.21860339 11.5054373,0.488135593 C11.5054373,0.757667797 11.7240407,0.976271186 11.9935729,0.976271186 C18.0685017,0.976271186 23.0108746,5.91864407 23.0108746,11.9935729 C23.0108746,18.0685017 18.0685017,23.0108746 11.9935729,23.0108746 C5.91864407,23.0108746 0.976271186,18.0685831 0.976271186,11.9935729 C0.976271186,7.8603661 3.25765424,4.11002034 6.93014237,2.20604746 C7.16949153,2.08197966 7.26288814,1.78738983 7.13882034,1.54804068 C7.01475254,1.30869153 6.72008136,1.21529492 6.48081356,1.33936271 C2.48330847,3.41182373 0,7.49434576 0,11.9935729 C0,18.6069153 5.38031186,23.9871458 11.9935729,23.9871458 C18.6068339,23.9871458 23.9871458,18.6068339 23.9871458,11.9935729 C23.9871458,5.38031186 18.6069153,0 11.9935729,0 L11.9935729,0 Z" id="Shape"></path>
                                    <path d="M16.6952949,5.81499661 C15.3345356,4.77795254 13.7087186,4.22985763 11.9935729,4.22985763 C7.71262373,4.22985763 4.22977627,7.71270508 4.22977627,11.9936542 C4.22977627,16.2746034 7.71262373,19.7574508 11.9935729,19.7574508 C14.0673356,19.7574508 16.0170305,18.9499119 17.4833898,17.4834712 C17.6740068,17.2928542 17.6740068,16.9837831 17.4833898,16.7931661 C17.2927729,16.6025492 16.9836203,16.6025492 16.7930847,16.7931661 C15.511078,18.0751729 13.8065898,18.7811797 11.9935729,18.7811797 C8.25095593,18.7811797 5.20604746,15.7363525 5.20604746,11.9936542 C5.20604746,8.25095593 8.25087458,5.20612881 11.9935729,5.20612881 C14.9951186,5.20612881 17.6757153,7.21684068 18.5122983,10.0959458 C18.5874712,10.3548203 18.8583051,10.5036203 19.117261,10.4284475 C19.3761356,10.3531932 19.5250169,10.0823593 19.4497627,9.82348475 C18.9902644,8.24200678 18.0120407,6.81835932 16.6952949,5.81499661 L16.6952949,5.81499661 Z" id="Shape"></path>
                                    <path d="M17.7171254,10.5162305 C17.5264271,10.3256136 17.2173559,10.3256136 17.0268203,10.5162305 C16.8362034,10.7068475 16.8362034,11.0159186 17.0268203,11.2065356 L18.8630237,13.0428203 C18.9545492,13.1343458 19.0786983,13.1857627 19.2082169,13.1857627 C19.3377356,13.1857627 19.4618847,13.1343458 19.5534102,13.0428203 L21.3896136,11.2065356 C21.5802305,11.0159186 21.5802305,10.7068475 21.3896136,10.5162305 C21.1989153,10.3256136 20.8898441,10.3256136 20.6993085,10.5162305 L19.2082169,12.007322 L17.7171254,10.5162305 L17.7171254,10.5162305 Z" id="Shape"></path>
                                </g>
                            </g>
                        </g>
                    </g>
                </g>
            </g>
        </g>
    </g>
</svg>