<?xml version="1.0" encoding="UTF-8" standalone="no"?>
<svg width="40px" height="40px" viewBox="0 0 40 40" version="1.1" xmlns="http://www.w3.org/2000/svg" xmlns:xlink="http://www.w3.org/1999/xlink">
    <!-- Generator: Sketch 39.1 (31720) - http://www.bohemiancoding.com/sketch -->
    <title>united-states-of-america</title>
    <desc>Created with Sketch.</desc>
    <defs></defs>
    <g id="статика" stroke="none" stroke-width="1" fill="none" fill-rule="evenodd">
        <g id="polis812_offline" transform="translate(-1035.000000, -405.000000)">
            <g id="USA" transform="translate(1035.000000, 405.000000)">
                <g id="united-states-of-america">
                    <g id="Layer_1">
                        <circle id="Oval" fill="#F0F0F0" cx="20" cy="20" r="20"></circle>
                        <g id="Group" transform="translate(0.625000, 4.296875)" fill="#D80027">
                            <path d="M18.5054688,15.703125 L39.375,15.703125 C39.375,13.8979687 39.134375,12.1492187 38.6860156,10.4857031 L18.5054688,10.4857031 L18.5054688,15.703125 L18.5054688,15.703125 Z" id="Shape"></path>
                            <path d="M18.5054688,5.26835938 L36.4395313,5.26835938 C35.2152344,3.27054688 33.6498438,1.5046875 31.8246875,0.0509375 L18.5054688,0.0509375 L18.5054688,5.26835938 L18.5054688,5.26835938 Z" id="Shape"></path>
                            <path d="M19.375,35.703125 C24.0819531,35.703125 28.4082813,34.07625 31.8246875,31.3553125 L6.9253125,31.3553125 C10.3417188,34.07625 14.6680469,35.703125 19.375,35.703125 L19.375,35.703125 Z" id="Shape"></path>
                            <path d="M2.31046875,26.1378906 L36.4395313,26.1378906 C37.4224219,24.5340625 38.1846875,22.7809375 38.6860156,20.9204688 L0.063984375,20.9204688 C0.5653125,22.7809375 1.32757813,24.5340625 2.31046875,26.1378906 L2.31046875,26.1378906 Z" id="Shape"></path>
                        </g>
                        <path d="M9.264375,3.12328125 L11.0869531,3.12328125 L9.39164063,4.35492188 L10.0392187,6.3478125 L8.34398438,5.11617188 L6.64875,6.3478125 L7.208125,4.62617187 C5.71546875,5.86953125 4.4071875,7.32625 3.3290625,8.949375 L3.91304688,8.949375 L2.83390625,9.73335938 C2.66578125,10.0138281 2.50453125,10.29875 2.35,10.5878906 L2.8653125,12.1739062 L1.90390625,11.4753906 C1.66492188,11.9817187 1.44632813,12.4994531 1.24984375,13.0279687 L1.81757813,14.7754687 L3.91304688,14.7754687 L2.21773438,16.0071094 L2.8653125,18 L1.17007813,16.7683594 L0.154609375,17.5061719 C0.05296875,18.3232031 0,19.1553906 0,20 L20,20 L20,0 C16.0490625,0 12.3660156,1.14609375 9.264375,3.12328125 L9.264375,3.12328125 Z M10.0392187,18 L8.34398437,16.7683594 L6.64875,18 L7.29632812,16.0071094 L5.60101562,14.7754687 L7.69648437,14.7754687 L8.34398437,12.7825781 L8.99148437,14.7754687 L11.0869531,14.7754687 L9.39164062,16.0071094 L10.0392187,18 L10.0392187,18 Z M9.39164062,10.1810156 L10.0392187,12.1739062 L8.34398437,10.9422656 L6.64875,12.1739062 L7.29632812,10.1810156 L5.60101562,8.949375 L7.69648437,8.949375 L8.34398437,6.95648437 L8.99148437,8.949375 L11.0869531,8.949375 L9.39164062,10.1810156 L9.39164062,10.1810156 Z M17.213125,18 L15.5178906,16.7683594 L13.8226563,18 L14.4702344,16.0071094 L12.7749219,14.7754687 L14.8703906,14.7754687 L15.5178906,12.7825781 L16.1653906,14.7754687 L18.2608594,14.7754687 L16.5655469,16.0071094 L17.213125,18 L17.213125,18 Z M16.5655469,10.1810156 L17.213125,12.1739062 L15.5178906,10.9422656 L13.8226563,12.1739062 L14.4702344,10.1810156 L12.7749219,8.949375 L14.8703906,8.949375 L15.5178906,6.95648437 L16.1653906,8.949375 L18.2608594,8.949375 L16.5655469,10.1810156 L16.5655469,10.1810156 Z M16.5655469,4.35492188 L17.213125,6.3478125 L15.5178906,5.11617188 L13.8226563,6.3478125 L14.4702344,4.35492188 L12.7749219,3.12328125 L14.8703906,3.12328125 L15.5178906,1.13039063 L16.1653906,3.12328125 L18.2608594,3.12328125 L16.5655469,4.35492188 L16.5655469,4.35492188 Z" id="Shape" fill="#0052B4"></path>
                    </g>
                </g>
            </g>
        </g>
    </g>
</svg>