<?xml version="1.0" encoding="UTF-8" standalone="no"?>
<svg width="21px" height="25px" viewBox="0 0 21 25" version="1.1" xmlns="http://www.w3.org/2000/svg" xmlns:xlink="http://www.w3.org/1999/xlink">
    <!-- Generator: Sketch 39.1 (31720) - http://www.bohemiancoding.com/sketch -->
    <title>group-of-people-outline</title>
    <desc>Created with Sketch.</desc>
    <defs></defs>
    <g id="формы" stroke="none" stroke-width="1" fill="none" fill-rule="evenodd" opacity="0.493994869">
        <g id="polis812_osago_step1" transform="translate(-840.000000, -718.000000)" fill="#000000">
            <g id="visa" transform="translate(131.000000, 258.000000)">
                <g id="background-form" transform="translate(4.000000, 94.000000)">
                    <g id="безаварийность-copy" transform="translate(431.000000, 322.000000)">
                        <g id="group-of-people-outline" transform="translate(274.000000, 44.000000)">
                            <g id="Capa_1">
                                <g id="Group">
                                    <path d="M16.8656378,6.79769335 C18.054553,6.79769335 19.0216493,5.83995929 19.0216493,4.6624152 C19.0216493,3.4848711 18.0545873,2.52710312 16.8656378,2.52710312 C15.6757635,2.52710312 14.7076737,3.48483718 14.7076737,4.6624152 C14.7076737,5.83995929 15.6757635,6.79769335 16.8656378,6.79769335 L16.8656378,6.79769335 Z M16.8656378,3.18616011 C17.6874812,3.18616011 18.3560555,3.84847354 18.3560555,4.6624152 C18.3560555,5.47632293 17.6874812,6.13867028 16.8656378,6.13867028 C16.042801,6.13867028 15.3732675,5.47632293 15.3732675,4.6624152 C15.3732675,3.84847354 16.0428352,3.18616011 16.8656378,3.18616011 L16.8656378,3.18616011 Z" id="Shape"></path>
                                    <path d="M4.12182382,6.74562415 C5.31087602,6.74562415 6.27831485,5.78789009 6.27831485,4.61031208 C6.27831485,3.43310719 5.31087602,2.47550882 4.12182382,2.47550882 C2.93194943,2.47550882 1.96385971,3.43310719 1.96385971,4.61031208 C1.96385971,5.78789009 2.93191517,6.74562415 4.12182382,6.74562415 L4.12182382,6.74562415 Z M4.12182382,3.13456581 C4.94380424,3.13456581 5.61272104,3.79674355 5.61272104,4.61031208 C5.61272104,5.42425373 4.94380424,6.08656716 4.12182382,6.08656716 C3.29898695,6.08656716 2.62945351,5.42425373 2.62945351,4.61031208 C2.62941925,3.79674355 3.29898695,3.13456581 4.12182382,3.13456581 L4.12182382,3.13456581 Z" id="Shape"></path>
                                    <path d="M5.970646,17.0781208 L5.90757749,17.0781208 C5.24547798,17.0781208 4.66943393,16.4908752 4.66943393,15.8353121 L4.66943393,8.39274084 C4.66943393,8.14494573 4.73150897,7.88989145 4.81667374,7.63449796 C4.85028059,7.53398915 4.84246982,7.41916554 4.77991517,7.33331072 C4.71736052,7.24765943 4.62650897,7.19226594 4.51965905,7.19226594 L1.91593312,7.19226594 C0.878642741,7.19243555 0.0103800979,8.12893487 0.0103800979,8.92669607 L0.0103800979,14.9567843 C0.0103800979,15.1386703 0.222880914,15.2658752 0.406742251,15.2658752 L1.34153344,15.2658752 L1.34153344,22.0582768 C1.34153344,22.2401628 1.51659054,22.3505427 1.70028059,22.3505427 L5.970646,22.3505427 C6.15433605,22.3505427 6.33336705,22.2401628 6.33336705,22.0582768 L6.33336705,17.3537313 C6.33336705,17.1717096 6.15450734,17.0781208 5.970646,17.0781208 L5.970646,17.0781208 Z M5.6678075,21.6914179 L2.00709299,21.6914179 L2.00709299,14.9566486 C2.00709299,14.7747626 1.88414192,14.6067164 1.70024633,14.6067164 L0.675939641,14.6067164 L0.675939641,8.92672999 C0.675939641,8.49752374 1.23351876,7.85166214 1.91589886,7.85166214 L4.09119739,7.85166214 C4.05807015,8.01641791 4.00384013,8.21709634 4.00384013,8.39291045 L4.00384013,15.8354817 C4.00384013,16.7637381 4.66943393,17.5343284 5.6678075,17.6639756 L5.6678075,21.6914179 L5.6678075,21.6914179 Z" id="Shape"></path>
                                    <path d="M15.4850848,15.8353121 L15.4850848,8.39274084 C15.4850848,7.4218114 14.5092186,6.36865672 13.2147896,6.36865672 L7.77119902,6.36865672 C6.53422023,6.36865672 5.50141762,7.44355495 5.50141762,8.39274084 L5.50141762,15.8353121 C5.50141762,16.0171981 5.72388744,16.0895183 5.90757749,16.0895183 L7.16535073,16.0895183 L7.16535073,24.6000678 C7.16535073,24.7819539 7.32077814,24.986635 7.50446819,24.986635 L13.4820343,24.986635 C13.6657243,24.986635 13.8211175,24.7821574 13.8211175,24.6000678 L13.8211175,16.0895183 L15.0784111,16.0895183 C15.2621354,16.0895183 15.4850848,16.0173677 15.4850848,15.8353121 L15.4850848,15.8353121 Z M14.8195253,15.4304953 L13.4820343,15.4304953 C13.2983442,15.4304953 13.1555579,15.6534261 13.1555579,15.835346 L13.1555579,24.3276119 L7.83091028,24.3276119 L7.83091028,15.8353121 C7.83091028,15.6534261 7.68829527,15.4304613 7.50443393,15.4304613 L6.1669429,15.4304613 L6.1669429,8.39274084 C6.1669429,7.83158073 6.88310114,7.0277137 7.77116476,7.0277137 L13.2149266,7.0277137 C14.1493752,7.0277137 14.8196623,7.82449118 14.8196623,8.39274084 L14.8196623,15.4304953 L14.8195253,15.4304953 L14.8195253,15.4304953 Z" id="Shape"></path>
                                    <path d="M10.4939021,5.11648575 C11.9180653,5.11648575 13.0765253,3.96909769 13.0765253,2.5587517 C13.0765253,1.14789688 11.9179282,0 10.4939021,0 C9.06823165,0 7.90846982,1.14789688 7.90846982,2.55858209 C7.90846982,3.96909769 9.06823165,5.11648575 10.4939021,5.11648575 L10.4939021,5.11648575 Z M10.4939021,0.659056988 C11.5509935,0.659056988 12.4109315,1.51119403 12.4109315,2.55858209 C12.4109315,3.60546133 11.5509935,4.45729308 10.4939021,4.45729308 C9.43530343,4.45729308 8.57402936,3.60549525 8.57402936,2.55858209 C8.57402936,1.51119403 9.43530343,0.659056988 10.4939021,0.659056988 L10.4939021,0.659056988 Z" id="Shape"></path>
                                    <path d="M19.0700555,7.19246947 L16.485925,7.19246947 C16.3807879,7.19246947 16.281783,7.27204885 16.2190228,7.35559701 C16.1562969,7.43914518 16.1561256,7.56221167 16.1862724,7.66207598 C16.2603034,7.90756445 16.3170343,8.16343284 16.3170343,8.39277476 L16.3170343,15.835346 C16.3170343,16.4909091 15.7403051,17.0781547 15.0784111,17.0781547 L15.0158564,17.0781547 C14.8321664,17.0781547 14.6531011,17.1715739 14.6531011,17.3536296 L14.6531011,22.1097693 C14.6531011,22.2916554 14.8319951,22.5152307 15.0158564,22.5152307 L19.2867015,22.5152307 C19.4703915,22.5152307 19.6449347,22.291825 19.6449347,22.1097693 L19.6449347,15.2657395 L20.5797602,15.2657395 C20.7634502,15.2657395 20.9760881,15.1902646 20.9760881,15.0083786 L20.9760881,8.9791384 C20.9761223,8.16275441 20.1557863,7.19246947 19.0700555,7.19246947 L19.0700555,7.19246947 Z M20.3105285,14.6066825 L19.2867015,14.6066825 C19.1030114,14.6066825 18.9793409,14.8263229 18.9793409,15.0083786 L18.9793409,21.8561398 L15.3186949,21.8561398 L15.3186949,17.663806 C16.3170685,17.5338195 16.9826281,16.7633989 16.9826281,15.8353121 L16.9826281,8.39274084 C16.9826281,8.23521031 16.9308646,8.0162483 16.9039038,7.85149254 L19.0700212,7.85149254 C19.7885432,7.85149254 20.3104943,8.54399593 20.3104943,8.97910448 L20.3104943,14.6066825 L20.3105285,14.6066825 Z" id="Shape"></path>
                                </g>
                            </g>
                        </g>
                    </g>
                </g>
            </g>
        </g>
    </g>
</svg>