<?xml version="1.0" encoding="UTF-8" standalone="no"?>
<svg width="31px" height="41px" viewBox="0 0 31 41" version="1.1" xmlns="http://www.w3.org/2000/svg" xmlns:xlink="http://www.w3.org/1999/xlink">
    <!-- Generator: Sketch 39.1 (31720) - http://www.bohemiancoding.com/sketch -->
    <title>link</title>
    <desc>Created with Sketch.</desc>
    <defs></defs>
    <g id="статика" stroke="none" stroke-width="1" fill="none" fill-rule="evenodd">
        <g id="polis812_feedback" transform="translate(-610.000000, -1092.000000)" fill="#79C930">
            <g id="feedback" transform="translate(0.000000, 208.000000)">
                <g id="seo" transform="translate(345.000000, 871.000000)">
                    <g id="block-copy" transform="translate(190.000000, 0.000000)">
                        <g id="link" transform="translate(75.000000, 13.000000)">
                            <g id="Layer_1">
                                <g id="Link-chains">
                                    <path d="M30.4852144,7.15714475 C30.2018739,6.09611494 29.52316,5.2097693 28.5743739,4.66136318 L22.5433234,1.17251166 C21.5945373,0.623484391 20.4883341,0.477934453 19.4305518,0.76182833 C18.3722113,1.04634348 17.4870373,1.72638439 16.9390809,2.67764657 L9.27867144,15.9718346 C8.73071513,16.9224129 8.58482907,18.0301591 8.86878919,19.0906302 C9.15274932,20.1510386 9.83146319,21.0373851 10.7808689,21.5863487 L15.4744556,24.3023507 C15.5719184,24.3587575 15.6784974,24.3854692 15.7838348,24.3854692 C15.9981683,24.3854692 16.2064898,24.2744589 16.3214981,24.0748631 C16.492867,23.7776129 16.3911246,23.397865 16.0944544,23.2261634 L11.4008689,20.5101614 C10.7384613,20.1273708 10.2644088,19.5085817 10.0663815,18.7690902 C9.86841569,18.0295998 9.97015688,17.2566879 10.3527588,16.5930468 L18.0131683,3.29885851 C18.3958341,2.63515554 19.0127949,2.16017675 19.7514644,1.96176166 C20.4889537,1.76402985 21.2615342,1.86534954 21.9233234,2.24869954 L27.9543739,5.73761293 C28.6161608,6.12040409 29.0896562,6.73857233 29.2876209,7.47868414 C29.4855879,8.21879657 29.3839069,8.99164633 29.0012436,9.6553496 L25.0547581,16.5038404 C24.8834507,16.8010906 24.9851316,17.1808373 25.2818018,17.3525401 C25.5766722,17.523622 25.9569184,17.4223028 26.128907,17.1250525 L30.075331,10.2765617 C30.6232873,9.32592075 30.7691721,8.21817518 30.4852144,7.15714475 L30.4852144,7.15714475 Z" id="Shape"></path>
                                    <path d="M20.2170841,19.4133492 L14.7182417,16.232681 C14.4215088,16.0609782 14.0425031,16.1629195 13.8711968,16.4601697 C13.6998291,16.7574188 13.8015088,17.1371666 14.0982417,17.3088694 L19.5970841,20.4895376 C20.9636246,21.2806503 21.4334613,23.0381225 20.6439538,24.4073347 L12.9835429,37.7015239 C12.6014993,38.3651638 11.9845373,38.8395849 11.2458689,39.0379366 C10.5083796,39.2357314 9.73703726,39.1350318 9.07462963,38.7516203 L3.04357907,35.2627691 C1.67703726,34.4716564 1.20658095,32.7141842 1.99553101,31.3449696 L5.94195563,24.4964794 C6.11332338,24.1992292 6.01158101,23.8194837 5.71491076,23.6477797 C5.41879932,23.4760758 5.03917332,23.5773962 4.86786707,23.8752673 L0.921380946,30.7237575 C-0.209002868,32.6862925 0.464875256,35.2051206 2.42357907,36.3389564 L8.45462963,39.8278076 C9.08678157,40.1930195 9.78787775,40.3798779 10.4980866,40.3798779 C10.8547113,40.3798779 11.2137531,40.3331657 11.5673397,40.2379331 C12.6257416,39.9539771 13.5102948,39.2733154 14.0576315,38.322736 L21.7180411,25.0285469 C22.8490449,23.0666352 22.1757873,20.5478071 20.2170841,19.4133492 L20.2170841,19.4133492 Z" id="Shape"></path>
                                </g>
                            </g>
                        </g>
                    </g>
                </g>
            </g>
        </g>
    </g>
</svg>