<?xml version="1.0" encoding="UTF-8" standalone="no"?>
<svg width="40px" height="40px" viewBox="0 0 40 40" version="1.1" xmlns="http://www.w3.org/2000/svg" xmlns:xlink="http://www.w3.org/1999/xlink">
    <!-- Generator: Sketch 39.1 (31720) - http://www.bohemiancoding.com/sketch -->
    <title>finland</title>
    <desc>Created with Sketch.</desc>
    <defs></defs>
    <g id="статика" stroke="none" stroke-width="1" fill="none" fill-rule="evenodd">
        <g id="polis812_offline" transform="translate(-735.000000, -405.000000)">
            <g id="FI" transform="translate(735.000000, 405.000000)">
                <g id="finland">
                    <g id="Layer_1">
                        <circle id="Oval" fill="#F0F0F0" cx="20" cy="20" r="20"></circle>
                        <path d="M39.8307031,17.3913281 L15.6522656,17.3913281 L15.6521875,17.3913281 L15.6521875,0.475390625 C13.8039063,0.885234375 12.0516406,1.54953125 10.4347656,2.43179687 L10.4347656,17.3911719 L10.4347656,17.39125 L0.169296875,17.39125 C0.05796875,18.2452344 0,19.1158594 0,20 C0,20.8841406 0.05796875,21.7547656 0.169296875,22.6086719 L10.4346875,22.6086719 L10.4347656,22.6086719 L10.4347656,37.568125 C12.0516406,38.4503125 13.8039063,39.1147656 15.6521875,39.5245312 L15.6521875,22.6089062 L15.6521875,22.60875 L39.8307031,22.60875 C39.941875,21.7547656 40,20.8841406 40,20 C40,19.1158594 39.941875,18.2452344 39.8307031,17.3913281 L39.8307031,17.3913281 Z" id="Shape" fill="#0052B4"></path>
                    </g>
                </g>
            </g>
        </g>
    </g>
</svg>