<?xml version="1.0" encoding="UTF-8" standalone="no"?>
<svg width="34px" height="40px" viewBox="0 0 34 40" version="1.1" xmlns="http://www.w3.org/2000/svg" xmlns:xlink="http://www.w3.org/1999/xlink">
    <!-- Generator: Sketch 39.1 (31720) - http://www.bohemiancoding.com/sketch -->
    <title>coin</title>
    <desc>Created with Sketch.</desc>
    <defs></defs>
    <g id="статика" stroke="none" stroke-width="1" fill="none" fill-rule="evenodd">
        <g id="polis812_feedback" transform="translate(-988.000000, -1094.000000)" fill="#79C930">
            <g id="feedback" transform="translate(0.000000, 208.000000)">
                <g id="seo" transform="translate(345.000000, 871.000000)">
                    <g id="block-copy-3" transform="translate(570.000000, 0.000000)">
                        <g id="coin" transform="translate(73.000000, 15.000000)">
                            <g id="Layer_1">
                                <path d="M33.8920972,31.9044055 L31.7712685,27.7020663 C31.6514815,27.4647953 31.406713,27.3149318 31.138963,27.3149318 L29.7207222,27.3149318 C29.6946713,24.7766862 29.5119213,16.2215984 28.2365278,13.694347 C26.8105741,10.8688499 24.7231944,8.10074074 24.6350463,7.98432749 C24.5487083,7.87033138 24.4293935,7.78510721 24.293,7.74003899 L17.9305139,5.63898635 C17.856375,5.6145809 17.7812917,5.60623782 17.7072315,5.60623782 C16.3201574,2.31750487 13.0402593,0 9.22352315,0 C4.15594907,0 0.0331342593,4.08452242 0.0331342593,9.10502924 C0.0331342593,14.1255361 4.15594907,18.2100585 9.22352315,18.2100585 C10.0960324,18.2100585 10.9568148,18.0879532 11.7869028,17.8495127 C12.1421713,18.5360624 12.5990463,19.2622222 13.0784306,20.0237037 C14.117713,21.6746199 15.2956713,23.5459649 15.5956898,25.3291228 C16.1759722,28.7778558 18.9293426,32.1394152 20.1558611,33.4940351 L18.7287269,34.4366472 C18.403838,34.6511501 18.3160833,35.0860819 18.5326759,35.4078752 L21.3605,39.6102144 C21.4964213,39.8122417 21.7205694,39.9221832 21.9492824,39.9221832 C22.0773333,39.9221832 22.2069583,39.8877193 22.3233611,39.8156725 L33.6345787,32.8118519 C33.9435694,32.6201949 34.0551713,32.2274464 33.8920972,31.9044055 L33.8920972,31.9044055 Z M17.9027315,12.0921637 C18.9590139,12.6377388 20.3534861,13.4178558 20.7417315,13.8025731 C21.2416574,14.2977778 21.2416574,16.548538 21.2416574,17.5096296 C21.2416574,18.5169591 20.8947315,19.3440156 20.7088333,19.408655 C20.7033241,19.4130214 20.3729259,19.397115 19.6863935,18.4901365 C19.0109583,17.5978947 17.7407593,16.0331384 16.3370787,14.8667446 C17.0235324,14.0355556 17.551162,13.0950487 17.9027315,12.0921637 L17.9027315,12.0921637 Z M11.4631157,14.3196101 C11.0160787,14.9840156 10.9992361,15.7296686 11.2403056,16.5466667 C10.5855694,16.7203899 9.9089537,16.8092788 9.22352315,16.8092788 C4.93558796,16.8092788 1.4470463,13.3531384 1.4470463,9.10502924 C1.4470463,4.85692008 4.93558796,1.40077973 9.22352315,1.40077973 C13.5114583,1.40077973 17,4.85692008 17,9.10502924 C17,10.9088499 16.3586435,12.6581676 15.1943009,14.0395322 C14.5188657,13.628694 13.8409907,13.3668616 13.2081343,13.3668616 C13.1873565,13.3668616 13.1662639,13.3670955 13.1456435,13.3677193 C12.4510833,13.3867446 11.8693056,13.7158674 11.4631157,14.3196101 L11.4631157,14.3196101 Z M22.156037,38.2671345 L20.1010833,35.2134893 L21.6337593,34.2012476 C21.8099769,34.0849123 21.9242546,33.8963743 21.9451111,33.6874854 C21.9659676,33.4786745 21.8912778,33.2716569 21.7415046,33.1231969 C21.7006574,33.082729 17.6522963,29.0340741 16.9903194,25.0987135 C16.6441019,23.0409357 15.3870463,21.0441326 14.2780324,19.2824172 C13.2193102,17.6006238 12.1245417,15.8617544 12.6394213,15.0966082 C12.8289398,14.8149708 13.0214491,14.7723977 13.1847593,14.7678752 C14.2811806,14.7367641 16.4982639,16.6135673 18.5551852,19.3306043 C18.8944769,19.7787914 19.927463,21.1432359 21.1540602,20.7379337 C22.3394167,20.3465107 22.6555694,18.5245224 22.6555694,17.5096296 C22.6555694,15.4350097 22.5867824,13.6495127 21.7415833,12.8120078 C21.0810231,12.1576608 19.01875,11.082963 18.2708287,10.7040156 C18.3654306,10.1791033 18.4138333,9.64405458 18.4138333,9.10495127 C18.4138333,8.45465887 18.3433148,7.8205848 18.2118796,7.20849903 L23.632912,8.99867446 C24.1096204,9.6468616 25.8013565,12.0017154 26.971838,14.3209357 C28.0701481,16.497076 28.3109815,24.9441715 28.3110602,28.0153606 C28.3110602,28.4021832 28.6276065,28.7157115 29.0179769,28.7157115 L30.7019213,28.7157115 L32.3399815,31.9612476 L22.156037,38.2671345 L22.156037,38.2671345 Z" id="Shape"></path>
                            </g>
                        </g>
                    </g>
                </g>
            </g>
        </g>
    </g>
</svg>