<?xml version="1.0" encoding="UTF-8" standalone="no"?>
<svg width="60px" height="60px" viewBox="0 0 60 60" version="1.1" xmlns="http://www.w3.org/2000/svg" xmlns:xlink="http://www.w3.org/1999/xlink">
    <!-- Generator: Sketch 39.1 (31720) - http://www.bohemiancoding.com/sketch -->
    <title>Group 4 Copy 2</title>
    <desc>Created with Sketch.</desc>
    <defs>
        <ellipse id="path-1" cx="30" cy="30" rx="30" ry="30"></ellipse>
    </defs>
    <g id="формы" stroke="none" stroke-width="1" fill="none" fill-rule="evenodd">
        <g id="polis812_osago_step1" transform="translate(-935.000000, -443.000000)">
            <g id="visa" transform="translate(131.000000, 258.000000)">
                <g id="background-form" transform="translate(4.000000, 94.000000)">
                    <g id="Group-4-Copy-2" transform="translate(800.000000, 91.000000)">
                        <mask id="mask-2" fill="white">
                            <use xlink:href="#path-1"></use>
                        </mask>
                        <use id="Oval-3" fill="#FFFFFF" xlink:href="#path-1"></use>
                        <g id="people" mask="url(#mask-2)">
                            <g id="Layer_1">
                                <circle id="Oval" fill="#324A5E" cx="30" cy="30" r="30"></circle>
                                <path d="M19.523622,58.1102362 C22.7834646,59.3267717 26.3149606,60 30,60 C33.6850394,60 37.2165354,59.3267717 40.476378,58.1102362 L40.476378,46.0629921 L19.523622,46.0629921 L19.523622,58.1102362 L19.523622,58.1102362 Z" id="Shape" fill="#FF7058"></path>
                                <path d="M33.992126,14.9055118 C34.4291339,18.3425197 32.6811024,21.7440945 30,21.7440945 C27.3188976,21.7440945 25.5708661,18.3543307 26.007874,14.9055118 C26.3622047,12.0826772 28.1220472,10.1338583 30,10.1338583 C31.8661417,10.1338583 33.6377953,12.0708661 33.992126,14.9055118 L33.992126,14.9055118 Z" id="Shape" fill="#F9B54C"></path>
                                <path d="M45.8858268,32.1377953 L41.1259843,34.9724409 L18.496063,34.9724409 L14.1259843,32.1377953 L15.2362205,24.3188976 C16.9606299,18.6496063 25.0275591,16.6771654 25.0275591,16.6771654 L26.8110236,18.4015748 L30.011811,20.3858268 L33.2007874,18.4015748 L34.984252,16.6771654 C34.984252,16.6771654 43.0511811,18.6496063 44.7755906,24.3188976 L45.8858268,32.1377953 L45.8858268,32.1377953 Z" id="Shape" fill="#FF7058"></path>
                                <g id="Group" transform="translate(24.094488, 14.527559)" fill="#FFFFFF">
                                    <path d="M9.77952756,0.0118110236 C9.77952756,0.0118110236 11.1259843,2.09055118 5.90551181,5.85826772 C5.90551181,5.85826772 8.72834646,4.59448819 9.37795276,7.22834646 C9.37795276,7.22834646 14.3267717,2.27952756 9.77952756,0.0118110236 L9.77952756,0.0118110236 Z" id="Shape"></path>
                                    <path d="M2.03149606,0.0118110236 C2.03149606,0.0118110236 0.68503937,2.09055118 5.90551181,5.85826772 C5.90551181,5.85826772 3.08267717,4.59448819 2.43307087,7.22834646 C2.43307087,7.22834646 -2.51574803,2.27952756 2.03149606,0.0118110236 L2.03149606,0.0118110236 Z" id="Shape"></path>
                                </g>
                                <path d="M35.3740157,9.31889764 C35.2913386,9.27165354 35.2086614,9.23622047 35.1141732,9.22440945 C35.1141732,9.09448819 35.1259843,8.96456693 35.1259843,8.83464567 C35.1259843,4.99606299 32.8346457,3.68503937 30.011811,3.68503937 C27.1889764,3.68503937 24.8976378,4.99606299 24.8976378,8.83464567 C24.8976378,8.96456693 24.8976378,9.09448819 24.9094488,9.22440945 C24.8149606,9.2480315 24.7322835,9.27165354 24.6496063,9.31889764 C24.1535433,9.6496063 24.1653543,10.5590551 24.6850394,11.3503937 C24.8858268,11.6456693 25.1220472,11.8818898 25.3700787,12.0472441 C26.1850394,14.9527559 27.9566929,17.5511811 30.023622,17.5511811 C32.0905512,17.5511811 33.8622047,14.9409449 34.6771654,12.0472441 C34.9251969,11.8818898 35.1614173,11.6456693 35.3622047,11.3503937 C35.8582677,10.5590551 35.8700787,9.6496063 35.3740157,9.31889764 L35.3740157,9.31889764 Z" id="Shape" fill="#FFD05B"></path>
                                <path d="M35.7637795,6.74409449 C35.7637795,7.14566929 35.7047244,7.52362205 35.5984252,7.9015748 L24.4133858,7.9015748 C24.3070866,7.53543307 24.2480315,7.14566929 24.2480315,6.74409449 C24.2480315,4.02755906 26.8228346,1.81889764 30,1.81889764 C33.1771654,1.83070866 35.7637795,4.03937008 35.7637795,6.74409449 L35.7637795,6.74409449 Z" id="Shape" fill="#84DBFF"></path>
                                <path d="M35.6456693,9.37795276 C35.3740157,10.2874016 33.9330709,10.5708661 33.2362205,9.83858268 C32.3503937,8.89370079 31.0393701,8.5984252 30,8.52755906 C28.9606299,8.5984252 27.6496063,8.90551181 26.7637795,9.83858268 C26.0669291,10.5708661 24.6377953,10.2874016 24.3543307,9.37795276 C24.2125984,8.90551181 24.1771654,8.30314961 24.3661417,7.55905512 C24.3661417,7.55905512 26.4212598,6.66141732 30,6.62598425 C33.5787402,6.6496063 35.6338583,7.55905512 35.6338583,7.55905512 C35.8110236,8.30314961 35.7874016,8.89370079 35.6456693,9.37795276 L35.6456693,9.37795276 Z" id="Shape" fill="#54C0EB"></path>
                                <path d="M40.4055118,54.2834646 L19.5944882,54.2834646 C19.4645669,54.2834646 19.3464567,54.1771654 19.3464567,54.0354331 L19.3464567,33.2244094 C19.3464567,33.0944882 19.4527559,32.976378 19.5944882,32.976378 L40.4055118,32.976378 C40.5354331,32.976378 40.6535433,33.0826772 40.6535433,33.2244094 L40.6535433,54.0354331 C40.6417323,54.1653543 40.5354331,54.2834646 40.4055118,54.2834646 L40.4055118,54.2834646 Z" id="Shape" fill="#FFFFFF"></path>
                                <rect id="Rectangle-path" fill="#F9B54C" x="27.023622" y="32.988189" width="5.95275591" height="2.33858268"></rect>
                                <path d="M33.3188976,39.4015748 L26.6692913,39.4015748 C26.1968504,39.4015748 25.8188976,39.023622 25.8188976,38.5511811 L25.8188976,38.5511811 C25.8188976,38.0787402 26.1968504,37.7007874 26.6692913,37.7007874 L33.3188976,37.7007874 C33.7913386,37.7007874 34.1692913,38.0787402 34.1692913,38.5511811 L34.1692913,38.5511811 C34.1692913,39.023622 33.7913386,39.4015748 33.3188976,39.4015748 L33.3188976,39.4015748 Z" id="Shape" fill="#324A5E"></path>
                                <g id="Group" transform="translate(13.228346, 31.771654)" fill="#FFD05B">
                                    <path d="M32.6574803,0.366141732 C32.6574803,0.366141732 34.5944882,7.9488189 32.6574803,12.0708661 L28.2637795,21.0472441 C28.2637795,21.0472441 27.2480315,23.8700787 24.7204724,24.6614173 L23.0551181,24.6614173 L23.7519685,23.9173228 C23.7519685,23.9173228 26.7992126,21.7440945 26.1850394,18.9448819 C26.1850394,18.9448819 24.7322835,19.4055118 24.9448819,17.9645669 C24.9448819,17.9645669 26.2086614,15.8031496 27.8740157,16.0393701 C27.8740157,16.0393701 27.3661417,10.5590551 29.3149606,7.41732283 C29.3149606,7.41732283 26.515748,2.97637795 27.5669291,1.16929134 C27.5551181,1.18110236 28.5590551,-0.602362205 32.6574803,0.366141732 L32.6574803,0.366141732 Z" id="Shape"></path>
                                    <path d="M0.885826772,0.366141732 C0.885826772,0.366141732 -1.0511811,7.9488189 0.885826772,12.0708661 L5.27952756,21.0472441 C5.27952756,21.0472441 6.29527559,23.8700787 8.82283465,24.6614173 L10.488189,24.6614173 L9.79133858,23.9173228 C9.79133858,23.9173228 6.74409449,21.7440945 7.35826772,18.9448819 C7.35826772,18.9448819 8.81102362,19.4055118 8.5984252,17.9645669 C8.5984252,17.9645669 7.33464567,15.8031496 5.66929134,16.0393701 C5.66929134,16.0393701 6.17716535,10.5590551 4.22834646,7.41732283 C4.22834646,7.41732283 7.02755906,2.97637795 5.97637795,1.16929134 C5.98818898,1.18110236 4.98425197,-0.602362205 0.885826772,0.366141732 L0.885826772,0.366141732 Z" id="Shape"></path>
                                </g>
                            </g>
                        </g>
                    </g>
                </g>
            </g>
        </g>
    </g>
</svg>