<?xml version="1.0" encoding="UTF-8" standalone="no"?>
<svg width="13px" height="17px" viewBox="0 0 13 17" version="1.1" xmlns="http://www.w3.org/2000/svg" xmlns:xlink="http://www.w3.org/1999/xlink">
    <!-- Generator: Sketch 39.1 (31720) - http://www.bohemiancoding.com/sketch -->
    <title>file</title>
    <desc>Created with Sketch.</desc>
    <defs></defs>
    <g id="формы" stroke="none" stroke-width="1" fill="none" fill-rule="evenodd">
        <g id="polis812_viza_step1" transform="translate(-870.000000, -529.000000)" fill="#FFFFFF">
            <g id="visa" transform="translate(131.000000, 258.000000)">
                <g id="background-form" transform="translate(4.000000, 94.000000)">
                    <g id="sidebar" transform="translate(701.000000, 92.000000)">
                        <g id="file" transform="translate(34.000000, 85.000000)">
                            <g id="Capa_1">
                                <g id="Group">
                                    <path d="M10.5625,7.08333333 L3.79166667,7.08333333 C3.64216667,7.08333333 3.52083333,7.20998333 3.52083333,7.36666667 C3.52083333,7.52335 3.64216667,7.65 3.79166667,7.65 L10.5625,7.65 C10.712,7.65 10.8333333,7.52335 10.8333333,7.36666667 C10.8333333,7.20998333 10.712,7.08333333 10.5625,7.08333333 L10.5625,7.08333333 Z" id="Shape"></path>
                                    <path d="M3.79166667,5.38333333 L6.5,5.38333333 C6.6495,5.38333333 6.77083333,5.25668333 6.77083333,5.1 C6.77083333,4.94331667 6.6495,4.81666667 6.5,4.81666667 L3.79166667,4.81666667 C3.64216667,4.81666667 3.52083333,4.94331667 3.52083333,5.1 C3.52083333,5.25668333 3.64216667,5.38333333 3.79166667,5.38333333 L3.79166667,5.38333333 Z" id="Shape"></path>
                                    <path d="M10.5625,9.35 L3.79166667,9.35 C3.64216667,9.35 3.52083333,9.47665 3.52083333,9.63333333 C3.52083333,9.79001667 3.64216667,9.91666667 3.79166667,9.91666667 L10.5625,9.91666667 C10.712,9.91666667 10.8333333,9.79001667 10.8333333,9.63333333 C10.8333333,9.47665 10.712,9.35 10.5625,9.35 L10.5625,9.35 Z" id="Shape"></path>
                                    <path d="M10.5625,11.6166667 L3.79166667,11.6166667 C3.64216667,11.6166667 3.52083333,11.7433167 3.52083333,11.9 C3.52083333,12.0566833 3.64216667,12.1833333 3.79166667,12.1833333 L10.5625,12.1833333 C10.712,12.1833333 10.8333333,12.0566833 10.8333333,11.9 C10.8333333,11.7433167 10.712,11.6166667 10.5625,11.6166667 L10.5625,11.6166667 Z" id="Shape"></path>
                                    <path d="M10.5625,13.8833333 L3.79166667,13.8833333 C3.64216667,13.8833333 3.52083333,14.0099833 3.52083333,14.1666667 C3.52083333,14.32335 3.64216667,14.45 3.79166667,14.45 L10.5625,14.45 C10.712,14.45 10.8333333,14.32335 10.8333333,14.1666667 C10.8333333,14.0099833 10.712,13.8833333 10.5625,13.8833333 L10.5625,13.8833333 Z" id="Shape"></path>
                                    <path d="M11.6458333,4.1327 L11.6458333,0 L0,0 L0,15.5833333 L1.35416667,15.5833333 L1.35416667,17 L13,17 L13,5.54936667 L11.6458333,4.1327 L11.6458333,4.1327 Z M9.20833333,2.38396667 L11.6458333,4.93396667 L12.075375,5.38333333 L9.20833333,5.38333333 L9.20833333,2.38396667 L9.20833333,2.38396667 Z M0.541666667,15.0166667 L0.541666667,0.566666667 L11.1041667,0.566666667 L11.1041667,3.56603333 L9.049625,1.41666667 L1.35416667,1.41666667 L1.35416667,15.0166667 L0.541666667,15.0166667 L0.541666667,15.0166667 Z M1.89583333,16.4333333 L1.89583333,15.5833333 L1.89583333,1.98333333 L8.66666667,1.98333333 L8.66666667,5.95 L12.4583333,5.95 L12.4583333,16.4333333 L1.89583333,16.4333333 L1.89583333,16.4333333 Z" id="Shape"></path>
                                </g>
                            </g>
                        </g>
                    </g>
                </g>
            </g>
        </g>
    </g>
</svg>