<?xml version="1.0" encoding="UTF-8" standalone="no"?>
<svg width="62px" height="62px" viewBox="0 0 62 62" version="1.1" xmlns="http://www.w3.org/2000/svg" xmlns:xlink="http://www.w3.org/1999/xlink">
    <!-- Generator: Sketch 39.1 (31720) - http://www.bohemiancoding.com/sketch -->
    <title>Group 4 Copy</title>
    <desc>Created with Sketch.</desc>
    <defs>
        <circle id="path-1" cx="30" cy="30" r="30"></circle>
    </defs>
    <g id="статика" stroke="none" stroke-width="1" fill="none" fill-rule="evenodd">
        <g id="polis812_about" transform="translate(-535.000000, -936.000000)">
            <g id="viza_price_v2" transform="translate(0.000000, 508.000000)">
                <g id="seo" transform="translate(135.000000, 131.000000)">
                    <g id="Group-4-Copy" transform="translate(401.000000, 298.000000)">
                        <mask id="mask-2" fill="white">
                            <use xlink:href="#path-1"></use>
                        </mask>
                        <use id="Oval-3" stroke="#E3E6E7" fill="#FFFFFF" xlink:href="#path-1"></use>
                        <g id="signs" mask="url(#mask-2)">
                            <g id="Layer_1">
                                <circle id="Oval" fill="#FFD05B" cx="30" cy="30" r="30"></circle>
                                <path d="M37.9841584,52.5148515 C37.770297,52.5148515 37.5564356,52.4673267 37.3544554,52.3485149 L18.4277228,41.9168317 C18.0118812,41.6792079 17.750495,41.239604 17.750495,40.7524752 C17.7623762,40.2653465 18.0237624,39.8376238 18.4514851,39.6118812 L37.7940594,29.5722772 L23.5960396,22.170297 C22.9544554,21.8376238 22.7049505,21.0534653 23.0376238,20.4118812 C23.370297,19.770297 24.1544554,19.5207921 24.7960396,19.8534653 L41.2158416,28.419802 C41.6435644,28.6455446 41.9168317,29.0970297 41.9168317,29.5841584 C41.9168317,30.0712871 41.6435644,30.5227723 41.2158416,30.7366337 L21.8138614,40.8118812 L38.6019802,50.0673267 C39.2316832,50.4118812 39.4693069,51.2079208 39.1128713,51.8376238 C38.8871287,52.2772277 38.4356436,52.5148515 37.9841584,52.5148515 L37.9841584,52.5148515 Z" id="Shape" fill="#FFFFFF"></path>
                                <g id="Group" transform="translate(13.425743, 7.485149)" fill="#FF7058">
                                    <path d="M11.0851485,0 C8.24554455,0 5.94059406,2.29306931 5.94059406,5.14455446 C5.94059406,7.98415842 11.0851485,13.5564356 11.0851485,13.5564356 C11.0851485,13.5564356 16.229703,7.98415842 16.229703,5.14455446 C16.229703,2.29306931 13.9247525,0 11.0851485,0 L11.0851485,0 Z M11.0851485,7.41386139 C9.82574257,7.41386139 8.8039604,6.39207921 8.8039604,5.13267327 C8.8039604,3.87326733 9.82574257,2.85148515 11.0851485,2.85148515 C12.3445545,2.85148515 13.3663366,3.87326733 13.3663366,5.13267327 C13.3663366,6.39207921 12.3445545,7.41386139 11.0851485,7.41386139 L11.0851485,7.41386139 Z" id="Shape"></path>
                                    <path d="M27.1960396,6.38019802 C23.9168317,6.38019802 21.2435644,9.04158416 21.2435644,12.3326733 C21.2435644,15.6237624 27.1960396,22.0752475 27.1960396,22.0752475 C27.1960396,22.0752475 33.1485149,15.6237624 33.1485149,12.3326733 C33.1485149,9.04158416 30.4871287,6.38019802 27.1960396,6.38019802 L27.1960396,6.38019802 Z M27.1960396,14.970297 C25.7346535,14.970297 24.5584158,13.7940594 24.5584158,12.3326733 C24.5584158,10.8712871 25.7346535,9.6950495 27.1960396,9.6950495 C28.6574257,9.6950495 29.8336634,10.8712871 29.8336634,12.3326733 C29.8336634,13.7940594 28.6574257,14.970297 27.1960396,14.970297 L27.1960396,14.970297 Z" id="Shape"></path>
                                    <path d="M5.94059406,17.9405941 C2.67326733,17.9405941 0.0237623762,20.590099 0.0237623762,23.8574257 C0.0237623762,27.1247525 5.94059406,33.5405941 5.94059406,33.5405941 C5.94059406,33.5405941 11.8574257,27.1247525 11.8574257,23.8574257 C11.8693069,20.5782178 9.21980198,17.9405941 5.94059406,17.9405941 L5.94059406,17.9405941 Z M5.94059406,26.4712871 C4.49108911,26.4712871 3.31485149,25.2950495 3.31485149,23.8455446 C3.31485149,22.3960396 4.49108911,21.219802 5.94059406,21.219802 C7.39009901,21.219802 8.56633663,22.3960396 8.56633663,23.8455446 C8.56633663,25.3069307 7.39009901,26.4712871 5.94059406,26.4712871 L5.94059406,26.4712871 Z" id="Shape"></path>
                                    <path d="M24.629703,27.2435644 C21.1841584,27.2435644 18.380198,30.0356436 18.380198,33.4930693 C18.380198,36.950495 24.629703,43.7227723 24.629703,43.7227723 C24.629703,43.7227723 30.8792079,36.950495 30.8792079,33.4930693 C30.8792079,30.0475248 28.0871287,27.2435644 24.629703,27.2435644 L24.629703,27.2435644 Z M24.629703,36.2732673 C23.0970297,36.2732673 21.8613861,35.0376238 21.8613861,33.5049505 C21.8613861,31.9722772 23.0970297,30.7366337 24.629703,30.7366337 C26.1623762,30.7366337 27.3980198,31.9722772 27.3980198,33.5049505 C27.3980198,35.0257426 26.1623762,36.2732673 24.629703,36.2732673 L24.629703,36.2732673 Z" id="Shape"></path>
                                </g>
                            </g>
                        </g>
                    </g>
                </g>
            </g>
        </g>
    </g>
</svg>