<?xml version="1.0" encoding="UTF-8" standalone="no"?>
<svg width="12px" height="16px" viewBox="0 0 12 16" version="1.1" xmlns="http://www.w3.org/2000/svg" xmlns:xlink="http://www.w3.org/1999/xlink">
    <!-- Generator: Sketch 39.1 (31720) - http://www.bohemiancoding.com/sketch -->
    <title>travel</title>
    <desc>Created with Sketch.</desc>
    <defs></defs>
    <g id="Page-1" stroke="none" stroke-width="1" fill="none" fill-rule="evenodd">
        <g id="polis812_vzr_step2-copy" transform="translate(-719.000000, -819.000000)" fill="#010002">
            <g id="insurance" transform="translate(131.000000, 273.000000)">
                <g id="background-form" transform="translate(4.000000, 96.000000)">
                    <g id="item-insurance-copy" transform="translate(98.000000, 266.000000)">
                        <g id="programm-copy" transform="translate(391.000000, 22.000000)">
                            <g id="travel" transform="translate(95.000000, 162.000000)">
                                <g id="Capa_1">
                                    <g id="Group">
                                        <path d="M10.4583,1.48392727 L10.0938,1.48392727 L10.0938,0.937309091 C10.0938,0.656 9.9717,0.405527273 9.75,0.232145455 C9.4806,0.0215272727 9.0936,-0.0500363636 8.6913,0.0349090909 L1.8339,1.48392727 L1.6002,1.48392727 C0.8487,1.48392727 0.2373,2.0768 0.2373,2.80552727 L0.2373,14.4439273 C0.2373,15.1726545 0.8487,15.7655273 1.6002,15.7655273 L10.4577,15.7655273 C11.2095,15.7655273 11.8212,15.1726545 11.8212,14.4439273 L11.8212,2.80552727 C11.8212,2.0768 11.2098,1.48392727 10.4583,1.48392727 L10.4583,1.48392727 Z M8.8188,0.603345455 C9.039,0.556509091 9.2478,0.586763636 9.3735,0.685381818 C9.4536,0.747636364 9.4938,0.832581818 9.4938,0.937309091 L9.4938,1.48392727 L4.6518,1.48392727 L8.8188,0.603345455 L8.8188,0.603345455 Z M11.2212,14.4439273 C11.2212,14.8517818 10.8786,15.1837091 10.4577,15.1837091 L1.6002,15.1837091 C1.1796,15.1837091 0.8373,14.8517818 0.8373,14.4439273 L0.8373,2.80552727 C0.8373,2.39767273 1.1796,2.06574545 1.6002,2.06574545 L10.4583,2.06574545 C10.8789,2.06574545 11.2212,2.39767273 11.2212,2.80552727 L11.2212,14.4439273 L11.2212,14.4439273 Z" id="Shape"></path>
                                    </g>
                                </g>
                            </g>
                        </g>
                    </g>
                </g>
            </g>
        </g>
    </g>
</svg>