<?xml version="1.0" encoding="UTF-8" standalone="no"?>
<svg width="16px" height="16px" viewBox="0 0 16 16" version="1.1" xmlns="http://www.w3.org/2000/svg" xmlns:xlink="http://www.w3.org/1999/xlink">
    <!-- Generator: Sketch 39.1 (31720) - http://www.bohemiancoding.com/sketch -->
    <title>Group</title>
    <desc>Created with Sketch.</desc>
    <defs></defs>
    <g id="Page-1" stroke="none" stroke-width="1" fill="none" fill-rule="evenodd">
        <g id="polis812_vzr_step1" transform="translate(-975.000000, -1421.000000)">
            <g id="description" transform="translate(0.000000, 1019.000000)">
                <g id="alpha-copy" transform="translate(735.000000, 120.000000)">
                    <g id="asisi" transform="translate(0.000000, 277.000000)">
                        <g id="Group" transform="translate(239.601610, 4.221328)">
                            <path d="M16.3712837,8.76531187 C16.3712837,4.35414085 12.7956217,0.778768612 8.38496579,0.778768612 C3.97408451,0.778768612 0.398390342,4.35414085 0.398390342,8.76531187 C0.398390342,13.1758068 3.97408451,16.7514688 8.38496579,16.7514688 C12.7956217,16.7514688 16.3712837,13.1758068 16.3712837,8.76531187 L16.3712837,8.76531187 Z" id="Shape" fill="#CACACA"></path>
                            <path d="M10.5472515,12.3538833 C10.5025996,12.2884668 10.4169336,12.2651911 10.3454004,12.2990905 C9.55402817,12.6737223 8.65583903,13.0697948 8.4795493,13.1044024 C8.47510664,13.1004427 8.46805634,13.0931992 8.4588169,13.0806761 C8.43492958,13.0483219 8.42330785,13.0060523 8.42330785,12.9514205 C8.42330785,12.5037746 8.76117505,11.142004 9.42747686,8.90412877 C9.98927968,7.02385513 10.0542455,6.63454326 10.0542455,6.50528773 C10.0542455,6.30575453 9.97785111,6.13715895 9.83323944,6.01769014 C9.69587123,5.90440241 9.50393561,5.84700201 9.26280885,5.84700201 C8.86171429,5.84700201 8.39684507,5.99927565 7.84160966,6.31254728 C7.30356539,6.61622535 6.7035171,7.13057545 6.05823742,7.84130382 C6.00772636,7.89696579 6.00244668,7.98018511 6.04552113,8.04180282 C6.08865996,8.10345272 6.16865996,8.12692153 6.23822938,8.09859155 C6.46477264,8.0061328 7.6032837,7.5397505 7.76923944,7.43550905 C7.90512676,7.35032596 8.02276056,7.30709054 8.11888934,7.30709054 C8.122334,7.30709054 8.12529577,7.30721932 8.12777465,7.30741247 C8.1289336,7.31378672 8.13002817,7.32350905 8.13002817,7.33744869 C8.13002817,7.43554125 8.10984306,7.55166197 8.07027767,7.68201207 C7.10010463,10.8253843 6.62850704,12.7523702 6.62850704,13.573167 C6.62850704,13.862841 6.70902213,14.0960483 6.8677666,14.2662213 C7.02953722,14.439839 7.24774245,14.5278551 7.51632998,14.5278551 C7.80255936,14.5278551 8.15092153,14.4082897 8.58127968,14.162334 C8.99773038,13.9243622 9.63335211,13.4008692 10.5245553,12.5617867 C10.5822777,12.5074769 10.5919034,12.4192998 10.5472515,12.3538833 L10.5472515,12.3538833 Z" id="Shape" fill="#FFFFFF"></path>
                            <path d="M10.5161207,3.24698592 C10.3575694,3.0847002 10.1546881,3.00241449 9.91317505,3.00241449 C9.61249095,3.00241449 9.3505996,3.12123944 9.13487324,3.35560563 C8.92259155,3.58610865 8.81493763,3.86895775 8.81493763,4.19626559 C8.81493763,4.45487324 8.89422938,4.6691831 9.05059155,4.83320724 C9.20904628,4.99971026 9.40919115,5.08412072 9.64539235,5.08412072 C9.93377867,5.08412072 10.1942535,4.95863179 10.4195412,4.71113078 C10.6409014,4.46797586 10.753159,4.1821006 10.753159,3.86145674 C10.7531911,3.6150503 10.6734487,3.40833803 10.5161207,3.24698592 L10.5161207,3.24698592 Z" id="Shape" fill="#FFFFFF"></path>
                        </g>
                    </g>
                </g>
            </g>
        </g>
    </g>
</svg>