<?xml version="1.0" encoding="UTF-8" standalone="no"?>
<svg width="48px" height="40px" viewBox="0 0 48 40" version="1.1" xmlns="http://www.w3.org/2000/svg" xmlns:xlink="http://www.w3.org/1999/xlink">
    <!-- Generator: Sketch 39.1 (31720) - http://www.bohemiancoding.com/sketch -->
    <title>photo-camera</title>
    <desc>Created with Sketch.</desc>
    <defs></defs>
    <g id="статика" stroke="none" stroke-width="1" fill="none" fill-rule="evenodd">
        <g id="polis812_offline-inner" transform="translate(-595.000000, -1648.000000)" fill="#79C930">
            <g id="block-copy-2" transform="translate(529.000000, 1633.000000)">
                <g id="photo-camera" transform="translate(66.000000, 15.000000)">
                    <g id="Capa_1">
                        <g id="Group">
                            <path d="M44.1608,8.4 L37.3416,8.4 L34.1416,0.4 L13.8584,0.4 L10.6584,8.4 L9.6,8.4 L9.6,4.4 L4.8,4.4 L4.8,8.4 L3.8392,8.4 C1.7216,8.4 0,10.1216 0,12.2392 L0,35.7336 C0,37.8656 1.7344,39.6 3.8664,39.6 L44.1336,39.6 C46.2656,39.6 48,37.8656 48,35.7336 L48,12.2392 C48,10.1216 46.2784,8.4 44.1608,8.4 L44.1608,8.4 Z M6.4,6 L8,6 L8,8.4 L6.4,8.4 L6.4,6 L6.4,6 Z M46.4,35.7336 C46.4,36.984 45.3832,38 44.1336,38 L3.8664,38 C2.6168,38 1.6,36.9832 1.6,35.7336 L1.6,12.2392 C1.6,11.0048 2.6048,10 3.8392,10 L4.8,10 L9.6,10 L11.7416,10 L14.9416,2 L33.0584,2 L36.2584,10 L44.1608,10 C45.3952,10 46.4,11.0048 46.4,12.2392 L46.4,35.7336 L46.4,35.7336 Z" id="Shape"></path>
                            <path d="M24,7.6 C16.06,7.6 9.6,14.06 9.6,22 C9.6,29.94 16.06,36.4 24,36.4 C31.94,36.4 38.4,29.94 38.4,22 C38.4,14.06 31.94,7.6 24,7.6 L24,7.6 Z M24,34.8 C16.9424,34.8 11.2,29.0576 11.2,22 C11.2,14.9424 16.9424,9.2 24,9.2 C31.0576,9.2 36.8,14.9424 36.8,22 C36.8,29.0576 31.0576,34.8 24,34.8 L24,34.8 Z" id="Shape"></path>
                            <path d="M24,12.4 C18.7064,12.4 14.4,16.7064 14.4,22 C14.4,27.2936 18.7064,31.6 24,31.6 C29.2936,31.6 33.6,27.2936 33.6,22 C33.6,16.7064 29.2936,12.4 24,12.4 L24,12.4 Z M24,30 C19.5888,30 16,26.4112 16,22 C16,17.5888 19.5888,14 24,14 C28.4112,14 32,17.5888 32,22 C32,26.4112 28.4112,30 24,30 L24,30 Z" id="Shape"></path>
                            <path d="M41.6,11.6 C39.8352,11.6 38.4,13.0352 38.4,14.8 C38.4,16.5648 39.8352,18 41.6,18 C43.3648,18 44.8,16.5648 44.8,14.8 C44.8,13.0352 43.3648,11.6 41.6,11.6 L41.6,11.6 Z M41.6,16.4 C40.7176,16.4 40,15.6824 40,14.8 C40,13.9176 40.7176,13.2 41.6,13.2 C42.4824,13.2 43.2,13.9176 43.2,14.8 C43.2,15.6824 42.4824,16.4 41.6,16.4 L41.6,16.4 Z" id="Shape"></path>
                        </g>
                    </g>
                </g>
            </g>
        </g>
    </g>
</svg>