<?xml version="1.0" encoding="UTF-8" standalone="no"?>
<svg width="25px" height="25px" viewBox="0 0 25 25" version="1.1" xmlns="http://www.w3.org/2000/svg" xmlns:xlink="http://www.w3.org/1999/xlink">
    <!-- Generator: Sketch 39.1 (31720) - http://www.bohemiancoding.com/sketch -->
    <title>people</title>
    <desc>Created with Sketch.</desc>
    <defs></defs>
    <g id="формы" stroke="none" stroke-width="1" fill="none" fill-rule="evenodd" opacity="0.503439832">
        <g id="polis812_osago_step1" transform="translate(-251.000000, -458.000000)" fill="#000000">
            <g id="visa" transform="translate(131.000000, 258.000000)">
                <g id="background-form" transform="translate(4.000000, 94.000000)">
                    <g id="тип-собственика" transform="translate(100.000000, 62.000000)">
                        <g id="people" transform="translate(16.000000, 44.000000)">
                            <g id="Capa_1">
                                <g id="Group">
                                    <path d="M12.5,21.8253968 C13.5769531,21.8253968 14.453125,20.9353175 14.453125,19.8412698 L14.453125,19.4444444 C14.453125,18.3503968 13.5769531,17.4603175 12.5,17.4603175 C11.4230469,17.4603175 10.546875,18.3503968 10.546875,19.4444444 L10.546875,19.8412698 C10.546875,20.9353175 11.4230469,21.8253968 12.5,21.8253968 L12.5,21.8253968 Z M11.328125,19.4444444 C11.328125,18.7880456 11.8538086,18.2539683 12.5,18.2539683 C13.1461914,18.2539683 13.671875,18.7880456 13.671875,19.4444444 L13.671875,19.8412698 C13.671875,20.4976687 13.1461914,21.031746 12.5,21.031746 C11.8538086,21.031746 11.328125,20.4976687 11.328125,19.8412698 L11.328125,19.4444444 L11.328125,19.4444444 Z" id="Shape"></path>
                                    <path d="M14.0660156,21.8383929 L13.7344727,21.8383929 C13.5988281,21.8383929 13.4729004,21.909871 13.4018066,22.0272321 C13.1739746,22.403373 12.8453125,22.6190476 12.5,22.6190476 C12.1546875,22.6190476 11.8260254,22.403373 11.5981934,22.0272321 C11.5270996,21.909871 11.4011719,21.8383929 11.2655273,21.8383929 L10.9339844,21.8383929 C10.0560059,21.8383929 9.375,22.6846726 9.375,23.4126984 L9.375,24.2722222 C9.375,24.6735119 9.69638672,25 10.0914063,25 L14.9102051,25 C15.3042969,25 15.6249512,24.674256 15.6249512,24.2738591 L15.6249512,23.4126984 C15.6249512,23.0672619 15.4665527,22.6806548 15.2012207,22.378621 C14.8952148,22.0302579 14.492041,21.8383929 14.0660156,21.8383929 L14.0660156,21.8383929 Z M14.84375,24.2063492 L10.15625,24.2063492 L10.15625,23.4126984 C10.15625,23.1446429 10.4591309,22.6320437 10.9339844,22.6320437 L11.059375,22.6320437 C11.4290039,23.131002 11.9439453,23.4126984 12.5,23.4126984 C13.0560547,23.4126984 13.5709961,23.131002 13.9405762,22.6320437 L14.0659668,22.6320437 C14.5408203,22.6320437 14.8437012,23.1446429 14.8437012,23.4126984 L14.8437012,24.2063492 L14.84375,24.2063492 Z" id="Shape"></path>
                                    <path d="M12.5,4.36507937 C13.5769531,4.36507937 14.453125,3.475 14.453125,2.38095238 L14.453125,1.98412698 C14.453125,0.890079365 13.5769531,0 12.5,0 C11.4230469,0 10.546875,0.890079365 10.546875,1.98412698 L10.546875,2.38095238 C10.546875,3.475 11.4230469,4.36507937 12.5,4.36507937 L12.5,4.36507937 Z M11.328125,1.98412698 C11.328125,1.32772817 11.8538086,0.793650794 12.5,0.793650794 C13.1461914,0.793650794 13.671875,1.32772817 13.671875,1.98412698 L13.671875,2.38095238 C13.671875,3.03735119 13.1461914,3.57142857 12.5,3.57142857 C11.8538086,3.57142857 11.328125,3.03735119 11.328125,2.38095238 L11.328125,1.98412698 L11.328125,1.98412698 Z" id="Shape"></path>
                                    <path d="M14.0660156,4.3780754 L13.7344727,4.3780754 C13.5988281,4.3780754 13.4729004,4.44955357 13.4018066,4.56691468 C13.1739746,4.94300595 12.8453125,5.15873016 12.5,5.15873016 C12.1546875,5.15873016 11.8260254,4.94300595 11.5981934,4.56691468 C11.5270996,4.44955357 11.4011719,4.3780754 11.2655273,4.3780754 L10.9339844,4.3780754 C10.0560059,4.3780754 9.375,5.22435516 9.375,5.95238095 L9.375,6.81190476 C9.375,7.21319444 9.69638672,7.53968254 10.0914063,7.53968254 L14.9102051,7.53968254 C15.3042969,7.53968254 15.6249512,7.21393849 15.6249512,6.81354167 L15.6249512,5.95238095 C15.6249512,5.60694444 15.4665527,5.2203373 15.2012207,4.91830357 C14.8952148,4.56994048 14.492041,4.3780754 14.0660156,4.3780754 L14.0660156,4.3780754 Z M14.84375,6.74603175 L10.15625,6.74603175 L10.15625,5.95238095 C10.15625,5.6843254 10.4591309,5.17172619 10.9339844,5.17172619 L11.059375,5.17172619 C11.4290039,5.67068452 11.9439453,5.95238095 12.5,5.95238095 C13.0560547,5.95238095 13.5709961,5.67068452 13.9405762,5.17172619 L14.0659668,5.17172619 C14.5408203,5.17172619 14.8437012,5.6843254 14.8437012,5.95238095 L14.8437012,6.74603175 L14.84375,6.74603175 Z" id="Shape"></path>
                                    <path d="M19.921875,10.7142857 L19.921875,11.1111111 C19.921875,12.2051587 20.7980469,13.0952381 21.875,13.0952381 C22.9519531,13.0952381 23.828125,12.2051587 23.828125,11.1111111 L23.828125,10.7142857 C23.828125,9.6202381 22.9519531,8.73015873 21.875,8.73015873 C20.7980469,8.73015873 19.921875,9.6202381 19.921875,10.7142857 L19.921875,10.7142857 Z M20.703125,10.7142857 C20.703125,10.0578869 21.2288086,9.52380952 21.875,9.52380952 C22.5211914,9.52380952 23.046875,10.0578869 23.046875,10.7142857 L23.046875,11.1111111 C23.046875,11.7675099 22.5211914,12.3015873 21.875,12.3015873 C21.2288086,12.3015873 20.703125,11.7675099 20.703125,11.1111111 L20.703125,10.7142857 L20.703125,10.7142857 Z" id="Shape"></path>
                                    <path d="M24.5762695,13.6484623 C24.2702148,13.3000992 23.8670898,13.1082341 23.4410156,13.1082341 L23.1094727,13.1082341 C22.9738281,13.1082341 22.8479004,13.1797123 22.7768066,13.2970734 C22.5489746,13.6731647 22.2203125,13.8888889 21.875,13.8888889 C21.5296875,13.8888889 21.2010254,13.6731647 20.9731934,13.2970734 C20.9020996,13.1797123 20.7761719,13.1082341 20.6405273,13.1082341 L20.3089844,13.1082341 C19.4310059,13.1082341 18.75,13.9545139 18.75,14.6825397 L18.75,15.5420635 C18.75,15.9433532 19.0713867,16.2698413 19.4664063,16.2698413 L24.2852051,16.2698413 C24.6792969,16.2698413 24.9999512,15.9440972 24.9999512,15.5437004 L24.9999512,14.6825397 C25,14.3371032 24.8416016,13.950496 24.5762695,13.6484623 L24.5762695,13.6484623 Z M24.21875,15.4761905 L19.53125,15.4761905 L19.53125,14.6825397 C19.53125,14.4144841 19.8341309,13.9018849 20.3089844,13.9018849 L20.434375,13.9018849 C20.8040039,14.4008433 21.3189453,14.6825397 21.875,14.6825397 C22.4310547,14.6825397 22.9459961,14.4008433 23.3155762,13.9018849 L23.4409668,13.9018849 C23.9158203,13.9018849 24.2187012,14.4144841 24.2187012,14.6825397 L24.2187012,15.4761905 L24.21875,15.4761905 Z" id="Shape"></path>
                                    <path d="M3.125,13.0952381 C4.20195313,13.0952381 5.078125,12.2051587 5.078125,11.1111111 L5.078125,10.7142857 C5.078125,9.6202381 4.20195313,8.73015873 3.125,8.73015873 C2.04804688,8.73015873 1.171875,9.6202381 1.171875,10.7142857 L1.171875,11.1111111 C1.171875,12.2051587 2.04804688,13.0952381 3.125,13.0952381 L3.125,13.0952381 Z M1.953125,10.7142857 C1.953125,10.0578869 2.47880859,9.52380952 3.125,9.52380952 C3.77119141,9.52380952 4.296875,10.0578869 4.296875,10.7142857 L4.296875,11.1111111 C4.296875,11.7675099 3.77119141,12.3015873 3.125,12.3015873 C2.47880859,12.3015873 1.953125,11.7675099 1.953125,11.1111111 L1.953125,10.7142857 L1.953125,10.7142857 Z" id="Shape"></path>
                                    <path d="M6.25,15.5437004 L6.25,14.6825397 C6.25,14.3371032 6.09160156,13.950496 5.82626953,13.6484623 C5.52021484,13.3000992 5.11708984,13.1082341 4.69101562,13.1082341 L4.35947266,13.1082341 C4.22382812,13.1082341 4.09790039,13.1797123 4.02680664,13.2970734 C3.79897461,13.6731647 3.4703125,13.8888889 3.125,13.8888889 C2.7796875,13.8888889 2.45102539,13.6731647 2.22319336,13.2970734 C2.15209961,13.1797123 2.02617187,13.1082341 1.89052734,13.1082341 L1.55898437,13.1082341 C0.681005859,13.1082341 0,13.9545139 0,14.6825397 L0,15.5420635 C0,15.9433532 0.321386719,16.2698413 0.71640625,16.2698413 L5.53520508,16.2698413 C5.9293457,16.2698413 6.25,15.9440972 6.25,15.5437004 L6.25,15.5437004 Z M5.46875,15.4761905 L0.78125,15.4761905 L0.78125,14.6825397 C0.78125,14.4144841 1.08413086,13.9018849 1.55898437,13.9018849 L1.684375,13.9018849 C2.05400391,14.4008433 2.56894531,14.6825397 3.125,14.6825397 C3.68105469,14.6825397 4.19599609,14.4008433 4.56557617,13.9018849 L4.6909668,13.9018849 C5.16582031,13.9018849 5.46870117,14.4144841 5.46870117,14.6825397 L5.46870117,15.4761905 L5.46875,15.4761905 Z" id="Shape"></path>
                                    <path d="M8.8206543,21.4608631 C6.89609375,20.625744 5.28110352,19.1371528 4.27324219,17.2693452 C4.16953125,17.0771825 3.93217773,17.0067956 3.74296875,17.1121528 C3.55375977,17.2175099 3.48447266,17.4586806 3.58818359,17.6508433 C4.67973633,19.6738591 6.42905273,21.2861607 8.51376953,22.1907242 C8.56381836,22.2124504 8.61582031,22.2227183 8.66704102,22.2227183 C8.81875,22.2227183 8.96308594,22.1323413 9.02646484,21.9816468 C9.11118164,21.7801091 9.01904297,21.5469742 8.8206543,21.4608631 L8.8206543,21.4608631 Z" id="Shape"></path>
                                    <path d="M21.2568359,17.1125496 C21.0676758,17.0071429 20.8302246,17.0775794 20.7265137,17.2697421 C19.7187988,19.1371032 18.1041504,20.6254464 16.180127,21.4605159 C15.9817383,21.5465774 15.8895996,21.7798115 15.9743652,21.9813492 C16.0377441,22.1320437 16.1820313,22.222371 16.3337891,22.222371 C16.3849609,22.222371 16.4370117,22.2121032 16.4870605,22.1903274 C18.5712402,21.2857639 20.3201172,19.6737599 21.4115723,17.6512401 C21.515332,17.4590774 21.4460449,17.2178571 21.2568359,17.1125496 L21.2568359,17.1125496 Z" id="Shape"></path>
                                    <path d="M15.5010742,3.67291667 C17.582373,4.38685516 19.3611328,5.83353175 20.509668,7.74642857 C20.583252,7.86899802 20.7118164,7.93665675 20.8435059,7.93665675 C20.912793,7.93665675 20.9830078,7.91790675 21.0465332,7.87857143 C21.2307129,7.76443452 21.288916,7.5202381 21.1766113,7.33313492 C19.9327148,5.26135913 18.0058105,3.69444444 15.7509766,2.92098214 C15.5466797,2.85089286 15.3249023,2.96235119 15.2559082,3.17003968 C15.1869141,3.37762897 15.2966797,3.60282738 15.5010742,3.67291667 L15.5010742,3.67291667 Z" id="Shape"></path>
                                    <path d="M3.95341797,7.87847222 C4.01694336,7.91785714 4.08710937,7.93660714 4.15644531,7.93660714 C4.28813477,7.93660714 4.41674805,7.86894841 4.4902832,7.74637897 C5.63911133,5.83308532 7.41826172,4.38630952 9.50009766,3.67251984 C9.70454102,3.60243056 9.81430664,3.37728175 9.7453125,3.16964286 C9.67626953,2.96195437 9.45449219,2.85039683 9.25029297,2.92058532 C6.99487305,3.69389881 5.0675293,5.2609623 3.82333984,7.33313492 C3.71103516,7.52013889 3.76923828,7.76433532 3.95341797,7.87847222 L3.95341797,7.87847222 Z" id="Shape"></path>
                                </g>
                            </g>
                        </g>
                    </g>
                </g>
            </g>
        </g>
    </g>
</svg>