<?xml version="1.0" encoding="UTF-8" standalone="no"?>
<svg width="25px" height="22px" viewBox="0 0 25 22" version="1.1" xmlns="http://www.w3.org/2000/svg" xmlns:xlink="http://www.w3.org/1999/xlink">
    <!-- Generator: Sketch 39.1 (31720) - http://www.bohemiancoding.com/sketch -->
    <title>medical copy 2</title>
    <desc>Created with Sketch.</desc>
    <defs></defs>
    <g id="формы" stroke="none" stroke-width="1" fill="none" fill-rule="evenodd" opacity="0.499883396">
        <g id="polis812_viza_step1" transform="translate(-251.000000, -710.000000)" fill="#000000">
            <g id="visa" transform="translate(131.000000, 258.000000)">
                <g id="background-form" transform="translate(4.000000, 94.000000)">
                    <g id="insurance-co" transform="translate(100.000000, 260.000000)">
                        <g id="insurance" transform="translate(1.000000, 81.000000)">
                            <g id="medical-copy-2" transform="translate(15.000000, 17.000000)">
                                <g id="Capa_1">
                                    <g id="Group">
                                        <path d="M22.89163,2.03890148 L22.89163,2.03890148 C20.1351322,-0.673600985 15.65,-0.673600985 12.8935022,2.03890148 L12.4794604,2.44633498 L12.0654185,2.03890148 C9.30897577,-0.673546798 4.82378855,-0.673546798 2.06734581,2.03890148 C-0.689096916,4.75140394 -0.689096916,9.16495074 2.06734581,11.8774532 L12.1875,21.8360296 C12.2681167,21.9153596 12.3738436,21.9550788 12.4795154,21.9550788 C12.5851872,21.9550788 12.6909141,21.9154138 12.7715308,21.8360296 L22.89163,11.8774532 C25.6480727,9.16495074 25.6480727,4.75140394 22.89163,2.03890148 L22.89163,2.03890148 Z M22.3075991,11.3027438 L12.4795154,20.9739655 L2.65137665,11.3027438 C0.216960352,8.90718227 0.217015419,5.0092266 2.65137665,2.61366502 C3.86872247,1.41574877 5.46729075,0.816980296 7.06635463,0.816980296 C8.66503304,0.816980296 10.2642621,1.4160197 11.4813326,2.61366502 L12.1873899,3.3084532 C12.2648128,3.38469458 12.3698789,3.42750246 12.4794053,3.42750246 C12.5889317,3.42750246 12.6939978,3.38469458 12.7714207,3.3084532 L13.477478,2.61366502 C15.9119493,0.218103448 19.8730727,0.218157635 22.307489,2.61366502 C24.7419604,5.00928079 24.7419604,8.90712808 22.3075991,11.3027438 L22.3075991,11.3027438 Z" id="Shape"></path>
                                        <path d="M15.9144824,8.53236946 L15.2667401,8.53236946 L15.2667401,7.09115271 C15.2667401,5.57873399 14.0163546,4.34835961 12.4794604,4.34835961 C10.942511,4.34835961 9.69218062,5.57878818 9.69218062,7.09115271 L9.69218062,8.53236946 L9.04454846,8.53236946 C8.81646476,8.53236946 8.63155286,8.71433005 8.63155286,8.9387734 L8.63155286,14.9305764 C8.63155286,15.1550197 8.81646476,15.3369803 9.04454846,15.3369803 L15.9144824,15.3369803 C16.1425661,15.3369803 16.327478,15.1550197 16.327478,14.9305764 L16.327478,8.9387734 C16.327478,8.71433005 16.1425661,8.53236946 15.9144824,8.53236946 L15.9144824,8.53236946 Z M10.5181718,7.09115271 C10.5181718,6.02697044 11.3980176,5.16116749 12.4794604,5.16116749 C13.5609031,5.16116749 14.4407489,6.02697044 14.4407489,7.09115271 L14.4407489,8.53236946 L10.5181718,8.53236946 L10.5181718,7.09115271 L10.5181718,7.09115271 Z M15.5014868,14.5241182 L9.45748899,14.5241182 L9.45748899,9.34512315 L15.5014317,9.34512315 L15.5014317,14.5241182 L15.5014868,14.5241182 Z" id="Shape"></path>
                                        <path d="M12.0664648,12.4620788 L12.0664648,13.4494236 C12.0664648,13.673867 12.2513767,13.8558276 12.4794604,13.8558276 C12.7075441,13.8558276 12.8924559,13.673867 12.8924559,13.4494236 L12.8924559,12.4620788 C13.3915198,12.2929064 13.7512665,11.8265172 13.7512665,11.2786847 C13.7512665,10.5886108 13.1807269,10.0272315 12.4794604,10.0272315 C11.7781938,10.0272315 11.2077093,10.5886108 11.2077093,11.2786847 C11.2077093,11.8265172 11.5674009,12.2929606 12.0664648,12.4620788 L12.0664648,12.4620788 Z M12.4794604,10.8400936 C12.7252753,10.8400936 12.9252753,11.0368473 12.9252753,11.2787389 C12.9252753,11.5206305 12.7252753,11.7174384 12.4794604,11.7174384 C12.2336454,11.7174384 12.0337004,11.5206305 12.0337004,11.2787389 C12.0337004,11.0368473 12.2336454,10.8400936 12.4794604,10.8400936 L12.4794604,10.8400936 Z" id="Shape"></path>
                                    </g>
                                </g>
                            </g>
                        </g>
                    </g>
                </g>
            </g>
        </g>
    </g>
</svg>