<?xml version="1.0" encoding="UTF-8" standalone="no"?>
<svg width="105px" height="105px" viewBox="0 0 105 105" version="1.1" xmlns="http://www.w3.org/2000/svg" xmlns:xlink="http://www.w3.org/1999/xlink">
    <!-- Generator: Sketch 39.1 (31720) - http://www.bohemiancoding.com/sketch -->
    <title>contract</title>
    <desc>Created with Sketch.</desc>
    <defs></defs>
    <g id="формы" stroke="none" stroke-width="1" fill="none" fill-rule="evenodd">
        <g id="polis812_green_step1" transform="translate(-1028.000000, -696.000000)">
            <g id="benefits" transform="translate(97.000000, 695.000000)">
                <g id="benefit1-copy-2" transform="translate(798.000000, 1.000000)">
                    <g id="Group-4" transform="translate(133.000000, 0.000000)">
                        <g id="contract">
                            <g id="Layer_1">
                                <circle id="Oval" fill="#29B471" cx="52.4267059" cy="52.4267059" r="52.4267059"></circle>
                                <polygon id="Shape" fill="#FCFCFD" points="70.5072941 10.6109706 31.3443529 10.6109706 31.3443529 85.1671471 88.8670588 85.1671471 88.8670588 28.9009412"></polygon>
                                <polygon id="Shape" fill="#E2E2E2" points="70.5072941 28.9009412 88.8670588 28.9009412 70.5072941 10.6109706"></polygon>
                                <g id="Group" transform="translate(40.558824, 24.500000)" fill="#F1F3F7">
                                    <rect id="Rectangle-path" x="0.139794118" y="0.0728823529" width="24.0143235" height="4.32826471"></rect>
                                    <rect id="Rectangle-path" x="0.139794118" y="11.4517941" width="38.9535588" height="4.32826471"></rect>
                                    <rect id="Rectangle-path" x="0.139794118" y="22.8305" width="38.9535588" height="4.32826471"></rect>
                                    <rect id="Rectangle-path" x="0.139794118" y="34.2094118" width="38.9535588" height="4.32826471"></rect>
                                    <rect id="Rectangle-path" x="0.139794118" y="45.5883235" width="38.9535588" height="4.32826471"></rect>
                                </g>
                                <polygon id="Shape" fill="#E95342" points="46.1437941 94.2422353 36.0913824 86.9124118 26.1085588 94.2422353 26.1085588 55.9170294 46.1437941 55.9170294"></polygon>
                                <polygon id="Shape" fill="#FF553E" points="36.0913824 34.2065294 39.3025294 32.3914706 41.7459412 35.1140588 45.3758529 34.3461176 46.8419412 37.6968529 50.4720588 38.1158235 50.8908235 41.7459412 54.2417647 43.2816176 53.5436176 46.8419412 56.1964118 49.2851471 54.4511471 52.4965 56.1964118 55.7076471 53.5436176 58.1510588 54.2417647 61.7111765 50.8908235 63.2470588 50.4720588 66.8771765 46.8419412 67.2959412 45.3758529 70.6468824 41.7459412 69.8789412 39.3025294 72.6015294 36.0913824 70.7864706 32.9498235 72.6015294 30.4368235 69.8789412 26.8765 70.6468824 25.3406176 67.2959412 21.7107059 66.8771765 21.2917353 63.2470588 18.0107941 61.7111765 18.7089412 58.1510588 15.9863529 55.7076471 17.8014118 52.4965 15.9863529 49.2851471 18.7089412 46.8419412 18.0107941 43.2816176 21.2917353 41.7459412 21.7107059 38.1158235 25.3406176 37.6968529 26.8765 34.3461176 30.4368235 35.1140588 32.9498235 32.3914706"></polygon>
                                <ellipse id="Oval" fill="#FBD303" cx="36.0913824" cy="52.8454706" rx="14.7296471" ry="14.7296471"></ellipse>
                            </g>
                        </g>
                    </g>
                </g>
            </g>
        </g>
    </g>
</svg>