<?xml version="1.0" encoding="UTF-8" standalone="no"?>
<svg width="11px" height="7px" viewBox="0 0 11 7" version="1.1" xmlns="http://www.w3.org/2000/svg" xmlns:xlink="http://www.w3.org/1999/xlink">
    <!-- Generator: Sketch 39.1 (31720) - http://www.bohemiancoding.com/sketch -->
    <title>russia</title>
    <desc>Created with Sketch.</desc>
    <defs></defs>
    <g id="формы" stroke="none" stroke-width="1" fill="none" fill-rule="evenodd">
        <g id="polis812_green_step2" transform="translate(-488.000000, -983.000000)">
            <g id="visa" transform="translate(132.000000, 258.000000)">
                <g id="background-form" transform="translate(4.000000, 94.000000)">
                    <g id="АВТО" transform="translate(99.000000, 410.000000)">
                        <g id="госномер" transform="translate(0.000000, 157.000000)">
                            <g id="russia" transform="translate(253.000000, 64.000000)">
                                <g id="Layer_1">
                                    <path d="M10.9785575,2.33525 L0,2.33525 L0,0.189645833 C0,0.0880833333 0.0847621832,0.00572916667 0.189294347,0.00572916667 L10.7892846,0.00572916667 C10.8938168,0.00572916667 10.9785789,0.0880833333 10.9785789,0.189645833 L10.9785789,2.33525 L10.9785575,2.33525 Z" id="Shape" fill="#FFFFFF"></path>
                                    <path d="M10.7892632,6.99425 L0.189294347,6.99425 C0.0847621832,6.99425 0,6.91189583 0,6.81033333 L0,4.66475 L10.9785575,4.66475 L10.9785575,6.81033333 C10.9785575,6.91191667 10.8937953,6.99425 10.7892632,6.99425 L10.7892632,6.99425 Z" id="Shape" fill="#FF4B55"></path>
                                    <rect id="Rectangle-path" fill="#41479B" x="0" y="2.33516667" width="10.9785575" height="2.32941667"></rect>
                                </g>
                            </g>
                        </g>
                    </g>
                </g>
            </g>
        </g>
    </g>
</svg>