<?xml version="1.0" encoding="UTF-8" standalone="no"?>
<svg width="18px" height="18px" viewBox="0 0 18 18" version="1.1" xmlns="http://www.w3.org/2000/svg" xmlns:xlink="http://www.w3.org/1999/xlink">
    <!-- Generator: Sketch 39.1 (31720) - http://www.bohemiancoding.com/sketch -->
    <title>home</title>
    <desc>Created with Sketch.</desc>
    <defs></defs>
    <g id="формы" stroke="none" stroke-width="1" fill="none" fill-rule="evenodd">
        <g id="polis812_viza_step1" transform="translate(-964.000000, -527.000000)" fill="#FFFFFF">
            <g id="visa" transform="translate(131.000000, 258.000000)">
                <g id="background-form" transform="translate(4.000000, 94.000000)">
                    <g id="sidebar" transform="translate(701.000000, 92.000000)">
                        <g id="home" transform="translate(128.000000, 83.000000)">
                            <g id="Capa_1">
                                <g id="Group">
                                    <path d="M17.6531186,8.12501695 L8.90298305,0 L0.153152542,8.12501695 C0.0298983051,8.23972881 0.0225762712,8.43284746 0.137288136,8.55640678 C0.251389831,8.67966102 0.445118644,8.68667797 0.568372881,8.57227119 L1.58094915,7.632 L1.58094915,17.8062712 L16.2250169,17.8062712 L16.2250169,7.63169492 L17.2375932,8.5719661 C17.2961695,8.62657627 17.3709153,8.65342373 17.4453559,8.65342373 C17.5274237,8.65342373 17.6088814,8.62077966 17.668678,8.55610169 C17.7836949,8.43284746 17.7763729,8.23972881 17.6531186,8.12501695 L17.6531186,8.12501695 Z M15.6148475,17.1961017 L2.19111864,17.1961017 L2.19111864,7.06515254 L8.90298305,0.832576271 L15.6148475,7.06515254 L15.6148475,17.1961017 L15.6148475,17.1961017 Z" id="Shape"></path>
                                    <path d="M4.02162712,10.789322 L8.29281356,10.789322 L8.29281356,6.51813559 L4.02162712,6.51813559 L4.02162712,10.789322 L4.02162712,10.789322 Z M4.63179661,7.12830508 L7.68264407,7.12830508 L7.68264407,10.1791525 L4.63179661,10.1791525 L4.63179661,7.12830508 L4.63179661,7.12830508 Z" id="Shape"></path>
                                    <path d="M13.784339,6.51813559 L9.51315254,6.51813559 L9.51315254,10.789322 L13.784339,10.789322 L13.784339,6.51813559 L13.784339,6.51813559 Z M13.1741695,10.1791525 L10.123322,10.1791525 L10.123322,7.12830508 L13.1741695,7.12830508 L13.1741695,10.1791525 L13.1741695,10.1791525 Z" id="Shape"></path>
                                    <path d="M4.02162712,16.2808475 L8.29281356,16.2808475 L8.29281356,12.009661 L4.02162712,12.009661 L4.02162712,16.2808475 L4.02162712,16.2808475 Z M4.63179661,12.6198305 L7.68264407,12.6198305 L7.68264407,15.670678 L4.63179661,15.670678 L4.63179661,12.6198305 L4.63179661,12.6198305 Z" id="Shape"></path>
                                    <path d="M13.784339,12.009661 L9.51315254,12.009661 L9.51315254,16.2808475 L13.784339,16.2808475 L13.784339,12.009661 L13.784339,12.009661 Z M13.1741695,15.670678 L10.123322,15.670678 L10.123322,12.6198305 L13.1741695,12.6198305 L13.1741695,15.670678 L13.1741695,15.670678 Z" id="Shape"></path>
                                </g>
                            </g>
                        </g>
                    </g>
                </g>
            </g>
        </g>
    </g>
</svg>