<?xml version="1.0" encoding="UTF-8" standalone="no"?>
<svg width="20px" height="20px" viewBox="0 0 20 20" version="1.1" xmlns="http://www.w3.org/2000/svg" xmlns:xlink="http://www.w3.org/1999/xlink">
    <!-- Generator: Sketch 39.1 (31720) - http://www.bohemiancoding.com/sketch -->
    <title>crossed-knife-and-fork</title>
    <desc>Created with Sketch.</desc>
    <defs></defs>
    <g id="статика" stroke="none" stroke-width="1" fill="none" fill-rule="evenodd">
        <g id="polis812_contacts" transform="translate(-318.000000, -980.000000)" fill="#79C930">
            <g id="viza_price_v2" transform="translate(-5.000000, 208.000000)">
                <g id="contacts">
                    <g id="zavod" transform="translate(140.000000, 592.000000)">
                        <g id="icons" transform="translate(0.000000, 142.000000)">
                            <g id="crossed-knife-and-fork" transform="translate(183.000000, 38.000000)">
                                <g id="Capa_1">
                                    <g id="Group">
                                        <path d="M1.51269663,0.15375 C1.34325843,0.322613636 1.24168539,0.569090909 1.59640449,2.04602273 C1.8088764,2.93079545 3.46741573,7.86397727 4.03258427,9.28125 C5.18258427,12.1646591 5.91865169,12.0695455 6.34033708,12.1244318 C6.54629213,12.15125 6.74662921,12.1023864 6.91977528,11.9827273 C7.39134831,11.6572727 7.54865169,11.5623864 7.73078652,11.4523864 C7.7947191,11.4138636 7.86292135,11.3726136 7.94831461,11.3195455 C8.45808989,12.1643182 9.08741573,13.4748864 9.69842697,14.7471591 C10.5205618,16.4593182 11.3707865,18.2298864 12.0501124,19.1460227 C12.4821348,19.7284091 12.9493258,19.8997727 13.2652809,19.9407955 C13.87,20.0194318 14.4953933,19.6917045 14.8588764,19.1057955 C15.2275281,18.51125 15.24,17.8061364 14.891236,17.2660227 C14.1733708,16.1535227 3.6647191,2.16034091 2.0894382,0.239659091 C1.87078652,-0.0271590909 1.61022472,0.0564772727 1.51269663,0.15375 L1.51269663,0.15375 Z M14.2164045,18.6980682 C14.0097753,19.0313636 13.674382,19.2204545 13.3620225,19.1797727 C13.1168539,19.1479545 12.8729213,18.9769318 12.6569663,18.6855682 C12.021236,17.8284091 11.1873034,16.0915909 10.3806742,14.4119318 C9.64382022,12.8775 8.94786517,11.4280682 8.37853933,10.5767045 C8.31505618,10.4818182 8.21696629,10.4247727 8.11269663,10.4111364 C8.02696629,10.4 7.93696629,10.4182955 7.85876404,10.4694318 C7.6041573,10.6356818 6.98292135,11.0103409 6.49213483,11.3490909 C6.46966292,11.3646591 6.45651685,11.3661364 6.43707865,11.36375 C6.17696629,11.4998864 6.16044944,11.3 5.72146067,10.6973864 C5.01438202,9.72670455 3.01775281,4.02511364 2.44022472,2.15238636 C2.21617978,1.42613636 2.45483146,1.82659091 2.63033708,2.055 C4.52764045,4.52363636 13.558764,16.6046591 14.2561798,17.6854545 C14.4774157,18.0279545 14.3806742,18.4331818 14.2164045,18.6980682 L14.2164045,18.6980682 Z" id="Shape"></path>
                                        <path d="M19.871236,3.93840909 C19.7252809,3.78636364 19.4851685,3.78272727 19.3350562,3.93034091 C18.3670787,4.88011364 17.4642697,5.80625 16.7388764,6.55045455 C16.5535955,6.74068182 16.3838202,6.91477273 16.2301124,7.07170455 L15.5149438,6.34784091 L18.5370787,3.38215909 C18.6874157,3.23465909 18.6908989,2.99170455 18.5450562,2.83977273 C18.3992135,2.68784091 18.1592135,2.68409091 18.0088764,2.83170455 L14.9786517,5.80522727 L14.3053933,5.12375 L17.345618,2.14034091 C17.4959551,1.99272727 17.4995506,1.74988636 17.3537079,1.59806818 C17.2078652,1.44602273 16.9676404,1.44238636 16.8175281,1.58988636 L13.7693258,4.58113636 L13.1134831,3.91727273 L16.4076404,0.684659091 C16.5579775,0.537159091 16.561573,0.294318182 16.415618,0.1425 C16.2697753,-0.00965909091 16.0297753,-0.0131818182 15.8795506,0.134318182 L12.0886517,3.85443182 C11.1197753,4.80511364 11.1946067,6.20136364 12.2502247,7.48897727 L10.0941573,9.63670455 C9.94382022,9.78420455 9.94022472,10.0270455 10.0860674,10.1788636 C10.1447191,10.24 10.218764,10.2771591 10.2958427,10.2901136 C10.4105618,10.3094318 10.5324719,10.2752273 10.6223596,10.1870455 L12.78,8.03772727 C13.2048315,8.39545455 13.7070787,8.63215909 14.2347191,8.72079545 C14.3025843,8.73238636 14.371236,8.74125 14.4398876,8.74761364 C15.1285393,8.81238636 15.7595506,8.61761364 16.171573,8.21329545 C16.4347191,7.95522727 16.807191,7.57295455 17.2789888,7.08897727 C18.0017978,6.34761364 18.901236,5.42477273 19.8632584,4.48090909 C20.0133708,4.33329545 20.0169663,4.09045455 19.871236,3.93840909 L19.871236,3.93840909 Z M14.5098876,7.98375 C13.9776404,7.93375 13.4660674,7.67875 13.0703371,7.26625 C12.2950562,6.45806818 11.767191,5.30272727 12.5704494,4.45284091 L15.6931461,7.61363636 C15.6760674,7.63045455 15.6594382,7.64693182 15.6432584,7.66284091 C15.3941573,7.90704545 14.9705618,8.02715909 14.5098876,7.98375 L14.5098876,7.98375 Z" id="Shape"></path>
                                        <path d="M8.38067416,13.1307955 C8.22404494,12.99 7.98438202,13.0043182 7.8452809,13.1627273 C6.31932584,14.8992045 3.55022472,17.9667045 2.6158427,18.8048864 C2.15134831,19.2215909 1.41966292,19.0535227 1.02786517,18.6348864 C0.618089888,18.1971591 0.67988764,17.6428409 1.19741573,17.1135227 C2.51146067,15.7704545 4.44719101,14.2325 5.90730337,13.1189773 C6.07449438,12.9914773 6.10786517,12.7510227 5.98179775,12.5818182 C5.85573034,12.4126136 5.61797753,12.3789773 5.45067416,12.5064773 C3.97179775,13.6344318 2.00696629,15.1954545 0.658314607,16.5739773 C-0.323932584,17.5781818 -0.0531460674,18.5957955 0.477191011,19.1621591 C0.776853933,19.4820455 1.20123596,19.7122727 1.65202247,19.7879545 C2.15359551,19.8721591 2.68786517,19.7653409 3.11910112,19.3784091 C4.1988764,18.4098864 7.30617978,14.9305682 8.41224719,13.6718182 C8.55134831,13.5138636 8.53719101,13.27125 8.38067416,13.1307955 L8.38067416,13.1307955 Z" id="Shape"></path>
                                    </g>
                                </g>
                            </g>
                        </g>
                    </g>
                </g>
            </g>
        </g>
    </g>
</svg>