<?xml version="1.0" encoding="UTF-8" standalone="no"?>
<svg width="34px" height="40px" viewBox="0 0 34 40" version="1.1" xmlns="http://www.w3.org/2000/svg" xmlns:xlink="http://www.w3.org/1999/xlink">
    <!-- Generator: Sketch 39.1 (31720) - http://www.bohemiancoding.com/sketch -->
    <title>Layer_1</title>
    <desc>Created with Sketch.</desc>
    <defs></defs>
    <g id="статика" stroke="none" stroke-width="1" fill="none" fill-rule="evenodd">
        <g id="polis812_feedback" transform="translate(-417.000000, -1094.000000)" fill="#79C930">
            <g id="feedback" transform="translate(0.000000, 208.000000)">
                <g id="seo" transform="translate(345.000000, 871.000000)">
                    <g id="block">
                        <g id="agenda" transform="translate(72.000000, 15.000000)">
                            <g id="Layer_1">
                                <g id="Contact-book">
                                    <path d="M25.1864438,24.368937 C24.9048104,23.8446259 24.4350453,23.4601259 23.8632137,23.2861876 C23.2907552,23.1134367 22.684486,23.1708121 22.1557219,23.4503126 C21.7290219,23.6743116 21.2395472,23.7219381 20.7784071,23.5828113 C20.3233749,23.4442496 19.9341989,23.1256246 19.710366,22.7087497 L16.8776632,17.4206876 C16.6476588,16.9916248 16.5997444,16.4996874 16.7429857,16.0351872 C16.8862894,15.5706871 17.2029296,15.1892495 17.6358,14.9609375 C18.7142915,14.3908751 19.125,13.0560624 18.5519747,11.9854999 L17.5441888,10.1043749 C17.2730083,9.59843756 16.8198627,9.22793744 16.2683075,9.06006275 C15.7149257,8.89343737 15.130189,8.94900025 14.6235255,9.21756269 L14.0824219,9.50200025 C13.1072519,10.0183129 12.3115886,10.8484376 11.843082,11.8408752 C11.0831186,13.4509373 11.131033,15.3491247 11.9715892,16.9183755 L17.3726153,26.9995618 C18.2156249,28.5730004 19.7792486,29.6765614 21.554362,29.9511886 C21.8126373,29.9908757 22.0733025,30.0110006 22.3346618,30.0110006 C23.1696157,30.0110006 24.0040003,29.8077512 24.7436898,29.4177508 L25.2897039,29.1296863 C25.7994525,28.8604998 26.1726971,28.4106874 26.3411842,27.8625631 C26.5102406,27.3150634 26.4537011,26.7352509 26.1825183,26.229875 L25.1864438,24.368937 L25.1864438,24.368937 Z M25.1372083,27.4975634 C25.0665003,27.7258754 24.9109808,27.9138136 24.7000554,28.0249381 L24.1528451,28.3142496 C23.4205222,28.6999989 22.5670596,28.8439989 21.7474704,28.7158752 C20.3621599,28.5016251 19.1422525,27.6403761 18.4842883,26.412375 L13.0832634,16.3311875 C12.4278187,15.1074374 12.3902923,13.6273754 12.9830259,12.3712504 C13.3371926,11.6223121 13.937922,10.9955001 14.6733301,10.6061256 L15.2144337,10.3216874 C15.3460261,10.2514994 15.4898967,10.2160621 15.6355927,10.2160621 C15.7241187,10.2160621 15.8127072,10.2295005 15.8999735,10.2557504 C16.1299779,10.3253126 16.3193707,10.4803753 16.4318852,10.6909371 L17.4402368,12.5726879 C17.68743,13.0346871 17.5097487,13.6115002 17.0430675,13.8574374 C16.3143965,14.2419374 15.7794633,14.885875 15.5384404,15.6701875 C15.2974188,16.4538753 15.3779478,17.2845626 15.765989,18.0078125 L18.598693,23.2965636 C18.9842158,24.0136886 19.6267529,24.5398116 20.4107036,24.7784376 C21.1952859,25.0146866 22.0235002,24.9353123 22.747825,24.5532489 C23.2262176,24.2999387 23.8207779,24.4824386 24.0747083,24.9560618 L25.0708453,26.8158126 L25.0708453,26.8164372 C25.1839891,27.026999 25.207347,27.2693133 25.1372083,27.4975634 L25.1372083,27.4975634 Z" id="Shape"></path>
                                    <path d="M30.1005159,0 L6.73288173,0 C4.84273308,0 3.30555556,1.5503125 3.30555556,3.45581263 L3.30555556,11.875 L1.10185185,11.875 C0.753855556,11.875 0.472222222,12.1545625 0.472222222,12.5 C0.472222222,12.8454995 0.753855556,13.125 1.10185185,13.125 L3.30555556,13.125 L3.30555556,26.25 L1.10185185,26.25 C0.753855556,26.25 0.472222222,26.5295625 0.472222222,26.875 C0.472222222,27.2204995 0.753855556,27.5 1.10185185,27.5 L3.30555556,27.5 L3.30555556,36.5441871 C3.30555556,38.4497499 4.84273308,40 6.73288173,40 L30.1005153,40 C31.9906009,40 33.5277778,38.4497499 33.5277778,36.5441871 L33.5277778,3.45581263 C33.5277778,1.5503125 31.9906009,0 30.1005159,0 L30.1005159,0 Z M32.2685185,36.5441871 C32.2685185,37.7606249 31.2958043,38.75 30.1005159,38.75 L6.73288173,38.75 C5.53752957,38.75 4.56481481,37.7606249 4.56481481,36.5441871 L4.56481481,27.5 L6.76851852,27.5 C7.11651481,27.5 7.39814815,27.2204995 7.39814815,26.875 C7.39814815,26.5295625 7.11651481,26.25 6.76851852,26.25 L4.56481481,26.25 L4.56481481,13.125 L6.76851852,13.125 C7.11651481,13.125 7.39814815,12.8454995 7.39814815,12.5 C7.39814815,12.1545625 7.11651481,11.875 6.76851852,11.875 L4.56481481,11.875 L4.56481481,3.45581263 C4.56481481,2.23937494 5.53752957,1.25 6.73288173,1.25 L30.1005153,1.25 C31.2958043,1.25 32.2685185,2.23937494 32.2685185,3.45581263 L32.2685185,36.5441871 L32.2685185,36.5441871 Z" id="Shape"></path>
                                </g>
                            </g>
                        </g>
                    </g>
                </g>
            </g>
        </g>
    </g>
</svg>