<?xml version="1.0" encoding="UTF-8" standalone="no"?>
<svg width="26px" height="26px" viewBox="0 0 26 26" version="1.1" xmlns="http://www.w3.org/2000/svg" xmlns:xlink="http://www.w3.org/1999/xlink">
    <!-- Generator: Sketch 39.1 (31720) - http://www.bohemiancoding.com/sketch -->
    <title>folder copy 2</title>
    <desc>Created with Sketch.</desc>
    <defs></defs>
    <g id="формы" stroke="none" stroke-width="1" fill="none" fill-rule="evenodd">
        <g id="polis812_viza_step2" transform="translate(-258.000000, -767.000000)" fill="#303030">
            <g id="visa" transform="translate(131.000000, 258.000000)">
                <g id="users" transform="translate(104.000000, 352.000000)">
                    <g id="folder-copy-2" transform="translate(23.000000, 157.000000)">
                        <g id="Capa_1">
                            <g id="Group">
                                <path d="M24.5110173,11.5115232 L23.0230464,11.5115232 L23.0230464,8.83914439 C23.0230464,8.19705721 22.5003379,7.67434879 21.8582508,7.67434879 L21.3176355,7.67434879 L21.3176355,0 L4.2635271,0 L4.2635271,0.852705421 L2.98446897,0.852705421 L2.98446897,1.70541084 L1.70541084,1.70541084 L1.70541084,4.68987981 L1.1647956,4.68987981 C0.522708423,4.68987981 0,5.21258824 0,5.85467542 L0,24.4807463 L0.00255811626,24.4807463 C0.00042635271,24.7207829 0.075038077,24.9557032 0.225114231,25.1522518 C0.434027059,25.4251175 0.75038077,25.5811626 1.0935947,25.5811626 L20.1767157,25.5811626 C20.6700058,25.5811626 21.1040328,25.2486075 21.2208535,24.8081852 L25.5811626,12.8541079 L25.5811626,12.7786434 C25.5811626,12.0444641 25.1309342,11.5115232 24.5110173,11.5115232 L24.5110173,11.5115232 Z M21.8582508,8.52705421 C22.0304973,8.52705421 22.1703409,8.6668979 22.1703409,8.83914439 L22.1703409,11.5115232 L21.3176355,11.5115232 L21.3176355,8.52705421 L21.8582508,8.52705421 L21.8582508,8.52705421 Z M20.4649301,0.852705421 L20.4649301,7.67434879 L20.4649301,11.5115232 L5.42789636,11.5115232 C5.32855617,11.5115232 5.23305317,11.5281509 5.14053463,11.5533057 C5.13286028,11.5554375 5.12390687,11.5545848 5.11623253,11.5567166 L5.11623253,0.852705421 L20.4649301,0.852705421 L20.4649301,0.852705421 Z M4.2635271,1.70541084 L4.2635271,12.6136449 L4.23666688,12.687404 L3.83717439,13.7822777 L3.83717439,1.70541084 L4.2635271,1.70541084 L4.2635271,1.70541084 Z M2.55811626,2.55811626 L2.98446897,2.55811626 L2.98446897,16.120396 L2.55811626,17.2890288 L2.55811626,4.68987981 L2.55811626,2.55811626 L2.55811626,2.55811626 Z M0.852705421,5.85467542 C0.852705421,5.68242892 0.992975463,5.54258524 1.1647956,5.54258524 L1.70541084,5.54258524 L1.70541084,19.5879226 L0.852705421,21.9136766 L0.852705421,5.85467542 L0.852705421,5.85467542 Z M20.4086515,24.5510945 C20.3809386,24.6555509 20.2854356,24.7284572 20.1767157,24.7284572 L1.0935947,24.7284572 C0.989990994,24.7284572 0.929448909,24.6691942 0.902588688,24.6338069 C0.875728467,24.598846 0.834372254,24.5246606 0.850147305,24.459855 L1.70541084,22.1149151 L1.70541084,22.1153414 L2.98446897,18.6085904 L2.98446897,18.6085904 L4.2635271,15.1018394 L4.2635271,15.1031184 L5.08724054,12.8430227 L5.11623253,12.7641474 L5.11623253,12.7641474 L5.18444896,12.5769786 L5.19553413,12.5420177 C5.22367341,12.4375613 5.31960277,12.3642286 5.42789636,12.3642286 L20.4649301,12.3642286 L21.3176355,12.3642286 L23.0230464,12.3642286 L24.5110173,12.3642286 C24.672605,12.3642286 24.7143876,12.5970172 24.72462,12.7134115 L20.4086515,24.5510945 L20.4086515,24.5510945 Z" id="Shape"></path>
                                <path d="M7.42635271,6.85270542 L17.6588178,6.85270542 C17.8941645,6.85270542 18.0851705,6.66212576 18.0851705,6.42635271 C18.0851705,6.19057966 17.8941645,6 17.6588178,6 L7.42635271,6 C7.19100601,6 7,6.19057966 7,6.42635271 C7,6.66212576 7.19100601,6.85270542 7.42635271,6.85270542 L7.42635271,6.85270542 Z" id="Shape"></path>
                                <path d="M7.42635271,3.85270542 L11.6898798,3.85270542 C11.9252265,3.85270542 12.1162325,3.66212576 12.1162325,3.42635271 C12.1162325,3.19057966 11.9252265,3 11.6898798,3 L7.42635271,3 C7.19100601,3 7,3.19057966 7,3.42635271 C7,3.66212576 7.19100601,3.85270542 7.42635271,3.85270542 L7.42635271,3.85270542 Z" id="Shape"></path>
                                <path d="M7.42635271,9.85270542 L17.6588178,9.85270542 C17.8941645,9.85270542 18.0851705,9.66212576 18.0851705,9.42635271 C18.0851705,9.19057966 17.8941645,9 17.6588178,9 L7.42635271,9 C7.19100601,9 7,9.19057966 7,9.42635271 C7,9.66212576 7.19100601,9.85270542 7.42635271,9.85270542 L7.42635271,9.85270542 Z" id="Shape"></path>
                            </g>
                        </g>
                    </g>
                </g>
            </g>
        </g>
    </g>
</svg>