<?xml version="1.0" encoding="UTF-8" standalone="no"?>
<svg width="107px" height="107px" viewBox="0 0 107 107" version="1.1" xmlns="http://www.w3.org/2000/svg" xmlns:xlink="http://www.w3.org/1999/xlink">
    <!-- Generator: Sketch 39.1 (31720) - http://www.bohemiancoding.com/sketch -->
    <title>Group 4</title>
    <desc>Created with Sketch.</desc>
    <defs>
        <circle id="path-1" cx="52.5" cy="52.5" r="52.5"></circle>
    </defs>
    <g id="формы" stroke="none" stroke-width="1" fill="none" fill-rule="evenodd">
        <g id="polis812_viza_step1" transform="translate(-667.000000, -1309.000000)">
            <g id="benefits" transform="translate(136.000000, 1310.000000)">
                <g id="benefit1-copy" transform="translate(399.000000, 0.000000)">
                    <g id="Group-4" transform="translate(133.000000, 0.000000)">
                        <mask id="mask-2" fill="white">
                            <use xlink:href="#path-1"></use>
                        </mask>
                        <use id="Oval-3" stroke="#E3E6E7" fill="#FFFFFF" xlink:href="#path-1"></use>
                        <g id="travel" mask="url(#mask-2)">
                            <g id="Layer_1" fill="#9CCAD4">
                                <path d="M52.5,105 C81.4164258,105 105,81.4154004 105,52.5 C105,23.5835742 81.4164258,0 52.5,0 C23.5835742,0 0,23.5845996 0,52.5 C0,81.4154004 23.5845996,105 52.5,105 L52.5,105 Z" id="Shape"></path>
                            </g>
                            <g id="sofa" transform="translate(19.000000, 31.000000)">
                                <g id="Capa_1">
                                    <path d="M3.42631034,17.5326842 C3.89172414,17.5372105 4.35372414,17.8099211 4.49255172,18.3519474 L6.76044828,27.1952368 C6.80482759,27.3683684 6.82758621,27.5460263 6.82758621,27.7236842 L6.82758621,27.7236842 L11.3838621,22.0657895 L9.10344828,14.1447368 L3.42631034,17.5326842 L3.42631034,17.5326842 Z" id="Shape" fill="#D79B19"></path>
                                    <polygon id="Shape" fill="#B37417" points="59.1724138 27.7236842 6.82758621 27.7236842 11.3838621 22.0657895 54.6252414 22.0657895"></polygon>
                                    <path d="M54.6252414,22.0657895 L56.8965517,14.1447368 L56.8965517,5.375 C56.8965517,2.71918421 54.731069,0.565789474 52.0603448,0.565789474 L37.8362069,0.565789474 C35.1654828,0.565789474 33,2.71918421 33,5.375 L33,22.0657895 L54.6252414,22.0657895 L54.6252414,22.0657895 Z" id="Shape" fill="#E5AC20"></path>
                                    <path d="M33.0045517,22.0657895 L33.0045517,5.375 C33.0045517,2.71918421 30.839069,0.565789474 28.1683448,0.565789474 L13.9442069,0.565789474 C11.2734828,0.565789474 9.108,2.71918421 9.108,5.375 L9.108,14.1447368 L11.3838621,22.0657895 L33.0045517,22.0657895 L33.0045517,22.0657895 Z" id="Shape" fill="#F6C020"></path>
                                    <path d="M62.5736897,17.5326842 C62.1082759,17.5372105 61.6462759,17.8099211 61.5074483,18.3519474 L59.2395517,27.1952368 C59.1951724,27.3683684 59.1724138,27.5460263 59.1724138,27.7236842 L59.1724138,27.7236842 L54.6252414,22.0657895 L56.8965517,14.1447368 L62.5736897,17.5326842 L62.5736897,17.5326842 Z" id="Shape" fill="#D79B19"></path>
                                    <polygon id="Shape" fill="#774836" points="7.96551724 42.4342105 6.82758621 42.4342105 6.82758621 37.9078947 12.5172414 37.9078947"></polygon>
                                    <polygon id="Shape" fill="#774836" points="58.0344828 42.4342105 59.1724138 42.4342105 59.1724138 37.9078947 53.4827586 37.9078947"></polygon>
                                    <path d="M6.76044828,27.1952368 L4.49255172,18.3519474 C4.21148276,17.2565789 2.61610345,17.2565789 2.33503448,18.3519474 L0.067137931,27.1952368 C-0.0216206897,27.5426316 -0.0216206897,27.9058684 0.067137931,28.2521316 L2.33503448,37.0954211 C2.48182759,37.6668684 2.98593103,37.9327895 3.47524138,37.9078947 L6.82758621,37.9078947 L6.82758621,27.7236842 L6.82758621,27.7236842 C6.82758621,27.5460263 6.80482759,27.3683684 6.76044828,27.1952368 L6.76044828,27.1952368 Z" id="Shape" fill="#FFC83E"></path>
                                    <path d="M65.9328621,27.1952368 L63.6649655,18.3519474 C63.3838966,17.2565789 61.7885172,17.2565789 61.5074483,18.3519474 L59.2395517,27.1952368 C59.1951724,27.3683684 59.1724138,27.5460263 59.1724138,27.7236842 L59.1724138,27.7236842 L59.1724138,37.9078947 L62.5247586,37.9078947 C63.014069,37.9327895 63.5181724,37.6668684 63.6649655,37.0954211 L65.9328621,28.2521316 C66.0227586,27.9047368 66.0227586,27.5426316 65.9328621,27.1952368 L65.9328621,27.1952368 Z" id="Shape" fill="#FFC83E"></path>
                                    <polygon id="Shape" fill="#F5BE26" points="59.1724138 27.7236842 6.82758621 27.7236842 6.82758621 27.7236842 6.82758621 37.9078947 59.1724138 37.9078947"></polygon>
                                </g>
                            </g>
                        </g>
                    </g>
                </g>
            </g>
        </g>
    </g>
</svg>