<?xml version="1.0" encoding="UTF-8" standalone="no"?>
<svg width="22px" height="24px" viewBox="0 0 22 24" version="1.1" xmlns="http://www.w3.org/2000/svg" xmlns:xlink="http://www.w3.org/1999/xlink">
    <!-- Generator: Sketch 39.1 (31720) - http://www.bohemiancoding.com/sketch -->
    <title>people</title>
    <desc>Created with Sketch.</desc>
    <defs></defs>
    <g id="формы" stroke="none" stroke-width="1" fill="none" fill-rule="evenodd" opacity="0.498484142">
        <g id="polis812_viza_step2" transform="translate(-351.000000, -933.000000)" fill="#000000">
            <g id="visa" transform="translate(131.000000, 258.000000)">
                <g id="background-form" transform="translate(4.000000, 93.000000)">
                    <g id="семейное" transform="translate(200.000000, 537.000000)">
                        <g id="people" transform="translate(16.000000, 45.000000)">
                            <g id="Capa_1">
                                <path d="M21.9653874,3.93617433 C21.8081047,3.06578208 21.4140052,2.25646489 20.8255916,1.5952155 C20.8244398,1.59393705 20.8233455,1.59260048 20.8221937,1.59132203 C20.5208168,1.24794189 20.0213822,0.775845036 19.3537801,0.476687651 L19.3385759,0.46988862 C18.6942408,0.158062954 18.0027958,0 17.283534,0 C16.2198168,0 15.2136911,0.346460048 14.3738901,1.00201453 C14.3730838,1.00265375 14.3692827,1.00567554 14.3682461,1.00643099 C13.6462775,1.57528329 13.169822,2.38814528 13.1108482,2.49169976 L13.1108482,2.49169976 C13.108199,2.49623245 13.1056073,2.50082324 13.1031309,2.50541404 C12.7243508,3.20612107 12.5241623,4.00038741 12.5241623,4.80238257 C12.5241623,4.96892978 12.532801,5.1375109 12.5499634,5.30336077 C12.5659162,5.45834383 12.6578325,5.59490557 12.7946126,5.66713801 C12.8812304,5.71287167 12.9717644,5.75093462 13.0647749,5.78103632 C13.4355497,6.92617918 14.2453455,7.84201453 15.2748534,8.35705569 C14.8335288,8.58450363 14.4371832,8.88523002 14.0943403,9.25301695 C13.9200105,9.44001937 13.9289372,9.73423729 14.1143246,9.91014044 C14.2996545,10.0859855 14.5912408,10.0769782 14.7655707,9.88997579 C14.9303403,9.71320097 15.1106597,9.55618402 15.3051466,9.41997094 C15.5840628,10.2173172 16.3029215,10.8014528 17.1205497,10.8014528 L17.1893141,10.8014528 C18.0083246,10.8014528 18.7264921,10.1754189 18.9889372,9.3283293 C19.9618325,9.94372881 20.5842827,11.0401743 20.5842827,12.2130363 L20.5842827,17.0420339 L16.3936859,19.7857627 C16.1801937,19.9255206 16.1194346,20.2134044 16.258,20.4287651 C16.3462304,20.5659661 16.4940681,20.6406392 16.6449005,20.6406392 C16.7308848,20.6406392 16.8177906,20.6164068 16.8952513,20.5656755 L21.2957696,17.6845133 C21.4266754,17.598799 21.5057487,17.4520097 21.5057487,17.2945278 L21.5057487,12.2130363 C21.5057487,10.5666828 20.5948796,9.09100242 19.1553194,8.35467312 C20.5185707,7.66814528 21.4825969,6.28253753 21.5770471,4.66872639 C21.707089,4.5497724 21.8201414,4.41001453 21.9105602,4.25282324 C21.9656754,4.15728814 21.9850838,4.04495884 21.9653874,3.93617433 L21.9653874,3.93617433 Z M17.1893717,9.87172881 L17.1206073,9.87172881 C16.5692251,9.87172881 16.1033665,9.33245521 16.1033665,8.69410169 C16.1033665,8.68614044 16.1031937,8.67823729 16.1027906,8.67033414 C16.4600314,8.7651138 16.8336859,8.81526392 17.2168429,8.81526392 C17.5443089,8.81526392 17.8638848,8.77842131 18.1712513,8.70862954 C18.135199,9.33716223 17.6918586,9.87172881 17.1893717,9.87172881 L17.1893717,9.87172881 Z M17.2167853,7.88548184 C15.8275026,7.88548184 14.5956754,7.05042131 14.0560419,5.79870218 C14.6957696,5.61611622 15.1851257,5.06847458 15.2883298,4.39397579 C15.5632147,4.42959806 15.8417853,4.44755448 16.1212775,4.44755448 C17.0584084,4.44755448 17.9612147,4.24933656 18.7697435,3.86975303 C18.9781099,4.59178692 19.6399529,5.12094915 20.4219319,5.12094915 C20.4789476,5.12094915 20.5356178,5.11804358 20.5917696,5.11234867 C20.2668953,6.69181598 18.8728325,7.88548184 17.2167853,7.88548184 L17.2167853,7.88548184 Z M20.4219319,4.19122518 C19.9814136,4.19122518 19.6230209,3.82971429 19.6230209,3.38527845 L19.6230209,3.12656659 C19.6230209,2.95740436 19.5319686,2.80160775 19.3852251,2.71972881 C19.2384241,2.63779177 19.059199,2.64284746 18.9172932,2.73286199 C18.1065759,3.24639225 17.1397277,3.51783051 16.1212199,3.51783051 C15.7229162,3.51783051 15.3272618,3.47546731 14.9452565,3.39190315 C14.8091675,3.36209201 14.6669162,3.39608717 14.5584136,3.48435835 C14.4499686,3.57262954 14.3869058,3.70564649 14.3869058,3.84621792 L14.3869058,4.12823245 C14.3869058,4.57261017 14.0285707,4.93417918 13.5881099,4.93417918 C13.5579319,4.93417918 13.5280995,4.93249395 13.4986126,4.9291816 C13.4917592,4.92813559 13.4849058,4.92726392 13.4780524,4.92656659 C13.4677435,4.92517191 13.4575497,4.92348668 13.447356,4.92168523 C13.4461466,4.88182082 13.4455131,4.84207264 13.4455131,4.80244068 C13.4455131,4.15740436 13.6059058,3.51887651 13.9094136,2.95548668 C13.910623,2.95322034 13.9118901,2.95101211 13.9128691,2.94932688 C13.9167853,2.94217918 14.3329424,2.21421792 14.9346021,1.73985472 C14.9358115,1.73886683 14.9373665,1.7377046 14.9376545,1.73747215 C15.6145864,1.20906538 16.4257644,0.929782082 17.283534,0.929782082 C17.8637696,0.929782082 18.4211414,1.05710412 18.9400995,1.30820339 C18.9490838,1.31256174 18.9623874,1.31866344 18.9797801,1.32639225 C19.4921728,1.55604843 19.8855812,1.92772881 20.1268901,2.20149153 C20.1295393,2.20462954 20.1322461,2.20770944 20.1350105,2.21084746 C20.5698272,2.69764649 20.8736806,3.28410654 21.0204241,3.91664891 C20.8697068,4.08889104 20.6517801,4.19122518 20.4219319,4.19122518 L20.4219319,4.19122518 Z M13.2927225,16.0856949 C14.3367435,15.4658208 15.0390157,14.3199225 15.0390157,13.0117772 C15.0390157,12.423109 14.8967644,11.8672155 14.6452618,11.3773947 C14.6362199,11.3568232 14.625911,11.3372397 14.6143927,11.3186441 C14.0162461,10.2055787 12.847712,9.44798063 11.5070942,9.44798063 C10.1661885,9.44798063 8.99742408,10.2058111 8.39945026,11.3193995 C8.38827749,11.3375303 8.37819895,11.3566489 8.36938743,11.3766392 C8.11753927,11.8666344 7.97523037,12.4227603 7.97523037,13.0117772 C7.97523037,14.3196901 8.67715707,15.4653559 9.72089005,16.0852881 C8.42893717,16.7592058 7.61056021,18.0969298 7.61056021,19.5773753 L7.61056021,21.2729492 C7.61056021,21.4318838 7.69101571,21.5797772 7.82387958,21.6651429 L11.2597382,23.8722131 C11.3352408,23.920678 11.4211675,23.9449104 11.5071518,23.9449104 C11.5926178,23.9449104 11.6780838,23.9209685 11.7532408,23.8730266 L15.1972199,21.6775206 C15.3315236,21.5919225 15.4126126,21.4425763 15.4118639,21.2823051 L15.4037435,19.5751671 C15.3967173,18.0912349 14.5792042,16.7579274 13.2927225,16.0856949 L13.2927225,16.0856949 Z M11.5070942,10.3777627 C12.3090576,10.3777627 13.0275707,10.7444455 13.5068482,11.3204455 C12.8860105,11.4999516 12.2051623,11.593569 11.5072094,11.593569 C10.8090262,11.593569 10.1281204,11.4999516 9.50734031,11.3204455 C9.9866178,10.7444455 10.7051885,10.3777627 11.5070942,10.3777627 L11.5070942,10.3777627 Z M8.89663874,13.0117772 C8.89663874,12.7097724 8.94726178,12.4193898 9.04044503,12.1489976 C9.80071204,12.3946925 10.6443717,12.5233511 11.5072094,12.5233511 C12.3698168,12.5233511 13.2133613,12.3946925 13.9737435,12.1489976 C14.0669267,12.4193898 14.1175497,12.7097724 14.1175497,13.0117772 C14.1175497,14.464155 12.9465393,15.6457918 11.5070942,15.6457918 C10.0677068,15.6457918 8.89663874,14.464155 8.89663874,13.0117772 L8.89663874,13.0117772 Z M12.3248953,16.4791671 C12.2673037,16.918954 11.8850105,17.2162518 11.5391152,17.2162518 L11.4830209,17.2162518 C11.1166806,17.2162518 10.7098534,16.9036126 10.6571571,16.4712639 C10.9294503,16.5393705 11.2141832,16.5755738 11.5070366,16.5755738 C11.7884293,16.5755738 12.0623351,16.5421598 12.3248953,16.4791671 L12.3248953,16.4791671 Z M11.5080733,22.9295884 L8.53196859,21.0178402 L8.53196859,19.5774334 C8.53196859,18.5551961 9.04384293,17.6218111 9.87241361,17.0717288 C10.1603141,17.7346053 10.8389738,18.1460339 11.4830209,18.1460339 L11.5391152,18.1460339 C12.2344188,18.1460339 12.8490366,17.6894528 13.114534,17.055109 C13.9550838,17.601937 14.4773246,18.5426441 14.4822199,19.5796416 L14.4891309,21.0291719 L11.5080733,22.9295884 L11.5080733,22.9295884 Z M8.19868586,10.4508668 C8.33298953,10.2327748 8.26664398,9.94611138 8.05056021,9.81059564 C7.91026702,9.72261501 7.76479058,9.64282809 7.61551309,9.57181598 C8.18486387,9.27812107 8.68850262,8.85745278 9.08830366,8.33125424 C9.25295812,8.38890073 9.42970681,8.42028087 9.61353927,8.42028087 C10.4988953,8.42028087 11.2191937,7.69348184 11.2191937,6.80013559 L11.2191937,5.64482324 C11.2191937,4.17623245 10.6632042,2.78533656 9.65368063,1.72846489 C8.64703665,0.674673123 7.29559162,0.062527845 5.84831414,0.00476513317 L5.84791099,0.00476513317 C5.72213089,-0.00011622276 5.60504712,-0.00127845036 5.48992147,0.00156900726 C4.04909424,0.0366682809 2.68998953,0.625104116 1.66295812,1.65844068 C0.610010471,2.71781114 0.0301204188,4.13357869 0.0301204188,5.64488136 L0.0301204188,6.8001937 C0.0301204188,7.69353995 0.750418848,8.42033898 1.63583246,8.42033898 C1.81966492,8.42033898 1.99635602,8.38901695 2.16095288,8.33137046 C2.60135602,8.91097337 3.16782723,9.3625569 3.80934031,9.65741404 C2.3876911,10.411816 1.5083822,11.872155 1.5083822,13.4892785 L1.5083822,17.2946441 C1.5083822,17.4521259 1.58739791,17.5989153 1.71836126,17.6846295 L5.8980733,20.4211525 C5.97553403,20.4718838 6.06243979,20.4961162 6.14842408,20.4961162 C6.29925654,20.4961162 6.44715183,20.421385 6.53532461,20.2842421 C6.67383246,20.0688232 6.6130733,19.7809395 6.39963874,19.6412397 L2.42984817,17.0421501 L2.42984817,13.4892785 C2.42984817,12.4136368 2.92623037,11.4260339 3.75779581,10.7887264 C4.04298953,11.6237869 4.77532461,12.2512155 5.58506283,12.2512155 L5.65382723,12.2512155 C6.53325131,12.2512155 7.23517801,11.448 7.48236126,10.5506441 C7.50983246,10.566799 7.5370733,10.5833608 7.56408377,10.6002712 C7.78028272,10.7359031 8.0643822,10.6689007 8.19868586,10.4508668 L8.19868586,10.4508668 Z M2.77534031,3.95523487 C2.47747644,4.46568523 2.32002094,5.04993705 2.32002094,5.64488136 L2.32002094,6.8001937 C2.32002094,7.02043584 2.21727749,7.21691041 2.05757592,7.34341889 C2.04386911,7.35242615 2.03079581,7.36207264 2.01835602,7.37230024 C1.90910471,7.44697337 1.77739267,7.4905569 1.63577487,7.4905569 C1.25849215,7.4905569 0.951586387,7.18088136 0.951586387,6.8001937 L0.951586387,5.64482324 C0.951586387,3.06392252 2.9548534,0.993414044 5.51197906,0.931002421 C5.60758115,0.928619855 5.70577487,0.92966586 5.81220419,0.933791768 C8.32740314,1.03438257 10.2976702,3.1036707 10.2976702,5.64482324 L10.2976702,6.80013559 C10.2976702,7.18082324 9.99070681,7.49049879 9.61342408,7.49049879 C9.47180628,7.49049879 9.34003665,7.44685714 9.23072775,7.37218402 C9.21834555,7.36201453 9.20532984,7.35242615 9.19168063,7.34341889 C9.03197906,7.21691041 8.92917801,7.02037772 8.92917801,6.80013559 L8.92917801,5.64482324 C8.92917801,4.00387409 7.71768063,2.58584019 6.11110471,2.3463632 C5.98480628,2.32741889 5.85643455,2.36240194 5.75662827,2.44271186 C5.65682199,2.52302179 5.59445026,2.64145278 5.58442932,2.76987893 C5.5591466,3.09483777 5.50074869,3.41526392 5.41038743,3.72621792 L3.17231937,3.72621792 C3.0091623,3.72621792 2.85809948,3.81332688 2.77534031,3.95523487 L2.77534031,3.95523487 Z M5.65382723,11.3214334 L5.58506283,11.3214334 C5.06420419,11.3214334 4.55296335,10.6834286 4.55296335,10.0333366 C4.55296335,9.99323971 4.5478377,9.95378208 4.53804712,9.91595157 C4.88797382,10.0057337 5.25235602,10.0525133 5.62468586,10.0525133 C5.9771466,10.0525133 6.32258115,10.0105569 6.65528796,9.92995642 C6.62395812,10.6059661 6.11692147,11.3214334 5.65382723,11.3214334 L5.65382723,11.3214334 Z M5.62468586,9.12273123 C4.55083246,9.12273123 3.55973822,8.62942373 2.90860733,7.78675061 C3.11720419,7.51333656 3.24142932,7.17106053 3.24142932,6.80013559 L3.24142932,5.64482324 C3.24142932,5.30237288 3.31364921,4.96503632 3.45175393,4.656 L5.74292147,4.656 C5.93579581,4.656 6.10822513,4.53483777 6.17508901,4.35225182 C6.29027225,4.03786925 6.37717801,3.71354964 6.435,3.38324455 C7.35744503,3.7220339 8.00776963,4.62351574 8.00776963,5.64482324 L8.00776963,6.80013559 C8.00776963,7.17106053 8.13199476,7.51333656 8.34064921,7.78675061 C7.68957592,8.62948184 6.69853927,9.12273123 5.62468586,9.12273123 L5.62468586,9.12273123 Z" id="XMLID_173_"></path>
                            </g>
                        </g>
                    </g>
                </g>
            </g>
        </g>
    </g>
</svg>