<?xml version="1.0" encoding="UTF-8" standalone="no"?>
<svg width="40px" height="40px" viewBox="0 0 40 40" version="1.1" xmlns="http://www.w3.org/2000/svg" xmlns:xlink="http://www.w3.org/1999/xlink">
    <!-- Generator: Sketch 39.1 (31720) - http://www.bohemiancoding.com/sketch -->
    <title>lithuania</title>
    <desc>Created with Sketch.</desc>
    <defs></defs>
    <g id="статика" stroke="none" stroke-width="1" fill="none" fill-rule="evenodd">
        <g id="polis812_offline" transform="translate(-735.000000, -547.000000)">
            <g id="LI" transform="translate(735.000000, 547.000000)">
                <g id="lithuania">
                    <g id="Layer_1">
                        <path d="M38.7560156,26.9564844 C39.56,24.7899219 40,22.4464063 40,20 C40,17.5535938 39.56,15.2100781 38.7560156,13.0435156 L20,11.304375 L1.24398437,13.0435156 C0.44,15.2100781 0,17.5535938 0,20 C0,22.4464063 0.44,24.7899219 1.24398437,26.9564844 L20,28.695625 L38.7560156,26.9564844 L38.7560156,26.9564844 Z" id="Shape" fill="#6DA544"></path>
                        <path d="M38.7560156,13.0435156 C35.9301562,5.4275 28.5992969,0 20,0 C11.4007031,0 4.06984375,5.4275 1.24398437,13.0435156 L38.7560156,13.0435156 L38.7560156,13.0435156 Z" id="Shape" fill="#FFDA44"></path>
                        <path d="M20,40 C28.5992969,40 35.9301562,34.5725 38.7560156,26.9564844 L1.24398437,26.9564844 C4.06984375,34.5725 11.4007031,40 20,40 L20,40 Z" id="Shape" fill="#D80027"></path>
                    </g>
                </g>
            </g>
        </g>
    </g>
</svg>