<?xml version="1.0" encoding="UTF-8" standalone="no"?>
<svg width="18px" height="16px" viewBox="0 0 18 16" version="1.1" xmlns="http://www.w3.org/2000/svg" xmlns:xlink="http://www.w3.org/1999/xlink">
    <!-- Generator: Sketch 39.1 (31720) - http://www.bohemiancoding.com/sketch -->
    <title>running-man-silhouette-with-delivery</title>
    <desc>Created with Sketch.</desc>
    <defs></defs>
    <g id="формы" stroke="none" stroke-width="1" fill="none" fill-rule="evenodd">
        <g id="polis812_mainpage" transform="translate(-1035.000000, -1710.000000)" fill="#303030">
            <g id="viza_price_v2" transform="translate(0.000000, 1080.000000)">
                <g id="table-copy-4" transform="translate(1035.000000, 234.000000)">
                    <g id="running-man-silhouette-with-delivery" transform="translate(0.000000, 396.000000)">
                        <g id="Capa_1">
                            <g id="Group">
                                <path d="M14.888822,4.75164444 L11.1342203,4.73831111 C11.1904322,4.65955556 11.2372627,4.57226667 11.3084237,4.50871111 C11.5587458,4.28675556 11.6067203,3.87173333 11.4172627,3.58088889 C11.2265085,3.29057778 10.8710847,3.23253333 10.6207627,3.4544 C10.2490932,3.78462222 9.981,4.22808889 9.83860169,4.73342222 L8.1460678,4.72773333 C7.42088136,4.72773333 6.6520678,5.38533333 6.39655932,6.2256 L5.10933051,10.4459556 C4.97394915,10.8915556 5.00727966,11.3318222 5.20138983,11.652 C5.38535593,11.9566222 5.68830508,12.1247111 6.05463559,12.1282667 L9.49644915,12.1403556 C9.38135593,12.6013333 9.13789831,12.9956444 8.78316102,13.2447111 C8.41011864,13.5075556 7.97194068,13.5837333 7.54970339,13.4619556 C7.24507627,13.3732444 6.93716949,13.5901333 6.86120339,13.9435556 C6.78569492,14.3001778 6.97141525,14.6577778 7.27550847,14.7464 C7.49875424,14.812 7.72390678,14.8433778 7.94730508,14.8433778 C8.44428814,14.8433778 8.93349153,14.6844444 9.36938136,14.3784889 C10.0033475,13.9328889 10.4502966,13.2248 10.6266356,12.3865778 C10.6443305,12.3061333 10.6443305,12.2245333 10.6360932,12.1454222 L12.7942627,12.1536 L12.798,12.1536 C13.0210932,12.1536 13.2444915,12.0744889 13.460339,11.9627556 C13.4755932,12.0065778 13.4847458,12.0528889 13.5107542,12.0935111 C13.7651186,12.5092444 13.8638136,13.0128889 13.7920424,13.5151111 C13.7195847,14.0152889 13.484822,14.4516444 13.1293983,14.7472889 C12.8738136,14.9584889 12.8136356,15.3728 12.9955424,15.6698667 C13.1073559,15.8512 13.2816356,15.9473778 13.4578983,15.9473778 C13.5716186,15.9473778 13.6871695,15.9092444 13.7867797,15.8258667 C14.3907712,15.3272 14.7905085,14.5844444 14.9133814,13.7352 C15.0356441,12.8849778 14.8666271,12.0282667 14.4343983,11.3243556 C14.3977881,11.2627556 14.3479068,11.2185778 14.2987119,11.1768889 C14.3992373,11.0141333 14.4894661,10.8424 14.545678,10.6565333 L15.831839,6.43751111 C15.9687458,5.99146667 15.9348814,5.55137778 15.7407712,5.2304 C15.5558136,4.92328889 15.2553814,4.75288889 14.888822,4.75164444 L14.888822,4.75164444 Z M15.405178,6.25822222 L14.1186356,10.4772444 C14.0438136,10.7223111 13.894322,10.9407111 13.7210339,11.1287111 C13.6953305,11.1429333 13.6671864,11.1490667 13.6427797,11.1700444 C13.5914492,11.2131556 13.5526271,11.2697778 13.5177712,11.3253333 C13.2918559,11.5027556 13.038178,11.6221333 12.7982288,11.6221333 L12.7982288,11.8878222 L12.7948729,11.6221333 L10.2631271,11.6131556 C10.2454322,11.6064 10.2307881,11.5899556 10.2127119,11.5843556 C10.1032627,11.5529778 9.99877119,11.5714667 9.90038136,11.6118222 L7.62994068,11.6028444 L7.72085593,11.3043556 C7.76272881,11.1668444 7.70033898,11.0154667 7.58257627,10.9670222 C7.4665678,10.9178667 7.33469492,10.9883556 7.29282203,11.1273778 L7.14798305,11.6015111 L6.0559322,11.5976 C5.84199153,11.5976 5.66977119,11.5088889 5.57267797,11.3475556 C5.46307627,11.1669333 5.45041525,10.9101333 5.53736441,10.6236444 L6.82459322,6.40337778 C7.01374576,5.78302222 7.61911017,5.25955556 8.14835593,5.25955556 L9.08016102,5.26293333 L8.93044068,5.75502222 C8.88811017,5.89271111 8.95042373,6.04391111 9.06811017,6.09253333 C9.09335593,6.1032 9.11852542,6.108 9.14422881,6.108 C9.23781356,6.108 9.32514407,6.03973333 9.35725424,5.93146667 L9.54770339,5.30755556 C9.55258475,5.29297778 9.54404237,5.27893333 9.54648305,5.26426667 L9.73807627,5.26426667 C9.66905085,5.95386667 9.82677966,6.63493333 10.191661,7.18764444 C10.6418898,7.87093333 11.3244407,8.22995556 12.0124831,8.22995556 C12.4984068,8.22995556 12.9865424,8.05208889 13.3995508,7.68515556 C13.6486525,7.464 13.6978475,7.04808889 13.5083136,6.75706667 C13.3170254,6.46666667 12.9621356,6.41031111 12.7108983,6.63128889 C12.2065932,7.08071111 11.4794237,6.96684444 11.0921949,6.3816 C10.9057119,6.09768889 10.8262373,5.74755556 10.8665847,5.39342222 C10.8712373,5.34871111 10.8935085,5.312 10.9032712,5.2688 L14.8858475,5.28266667 C15.0998644,5.28266667 15.271322,5.37191111 15.3681864,5.53253333 C15.4775593,5.71031111 15.4910593,5.97537778 15.405178,6.25822222 L15.405178,6.25822222 Z" id="Shape"></path>
                                <path d="M8.23705932,8.81724444 C8.12028814,8.76808889 7.98933051,8.83893333 7.94730508,8.97644444 L7.61918644,10.0519111 C7.57716102,10.1890667 7.63939831,10.3400889 7.7574661,10.3892444 C7.78271186,10.3995556 7.80772881,10.4034667 7.83358475,10.4034667 C7.92617797,10.4034667 8.0145,10.3354667 8.04722034,10.2278222 L8.37472881,9.15235556 C8.41797458,9.01742222 8.35558475,8.86471111 8.23705932,8.81724444 L8.23705932,8.81724444 Z" id="Shape"></path>
                                <path d="M8.89322034,6.66791111 C8.77660169,6.61982222 8.64533898,6.69031111 8.60300847,6.82835556 L8.27519492,7.90284444 C8.23347458,8.04035556 8.29510169,8.19191111 8.41240678,8.24053333 C8.4375,8.2512 8.46266949,8.25582222 8.48867797,8.25582222 C8.58188136,8.25582222 8.66928814,8.18746667 8.70292373,8.07955556 L9.0304322,7.00488889 C9.07283898,6.86826667 9.01060169,6.716 8.89322034,6.66791111 L8.89322034,6.66791111 Z" id="Shape"></path>
                                <path d="M17.7351102,5.54915556 L16.5989746,5.54577778 L16.5989746,5.54577778 C16.4739661,5.54577778 16.3721441,5.66373333 16.3703898,5.81031111 C16.3703898,5.956 16.4727458,6.07528889 16.5977542,6.076 L17.7338898,6.07973333 L17.7338898,6.07973333 C17.8592034,6.07973333 17.9610254,5.96142222 17.9621695,5.81493333 C17.9621695,5.66782222 17.8604237,5.54986667 17.7351102,5.54915556 L17.7351102,5.54915556 Z" id="Shape"></path>
                                <path d="M16.8050593,4.66097778 C16.8530339,4.66097778 16.8997881,4.64426667 16.9401356,4.60915556 L17.8549322,3.82426667 C17.9560678,3.73768889 17.9778051,3.57164444 17.9041271,3.45377778 C17.8305254,3.33582222 17.6871356,3.31057778 17.5866102,3.39715556 L16.6715085,4.18231111 C16.5706017,4.26888889 16.5489407,4.43484444 16.6225424,4.55271111 C16.6662458,4.62248889 16.7352712,4.66097778 16.8050593,4.66097778 L16.8050593,4.66097778 Z" id="Shape"></path>
                                <path d="M15.9522712,2.51368889 C15.8342797,2.46488889 15.7043898,2.5376 15.6634322,2.67413333 L15.2823051,3.92177778 C15.2413475,4.05928889 15.3021356,4.21084444 15.419822,4.26017778 C15.4455254,4.27084444 15.4712288,4.27546667 15.4956356,4.27546667 C15.5903644,4.27546667 15.6775424,4.20817778 15.7107966,4.09893333 L16.0910085,2.85128889 C16.1325763,2.71475556 16.0699576,2.56408889 15.9522712,2.51368889 L15.9522712,2.51368889 Z" id="Shape"></path>
                                <path d="M1.34138136,6.47946667 L5.55216102,6.47946667 C5.67732203,6.47946667 5.77914407,6.36008889 5.77914407,6.21448889 C5.77914407,6.06862222 5.67739831,5.94888889 5.55216102,5.94888889 L1.34138136,5.94888889 C1.21622034,5.94888889 1.11348305,6.06782222 1.11348305,6.21448889 C1.11348305,6.3608 1.21622034,6.47946667 1.34138136,6.47946667 L1.34138136,6.47946667 Z" id="Shape"></path>
                                <path d="M5.22236441,8.11804444 C5.22236441,7.97217778 5.11977966,7.85253333 4.99461864,7.85253333 L0.78429661,7.85253333 C0.659288136,7.85253333 0.556932203,7.97146667 0.556932203,8.11804444 C0.556932203,8.26373333 0.659288136,8.3824 0.78429661,8.3824 L4.99461864,8.3824 C5.11924576,8.38231111 5.22236441,8.26373333 5.22236441,8.11804444 L5.22236441,8.11804444 Z" id="Shape"></path>
                                <path d="M4.4380678,9.75626667 L0.226830508,9.75626667 C0.101669492,9.75626667 0,9.87493333 0,10.0219556 C0,10.1677333 0.101669492,10.2863111 0.226830508,10.2863111 L4.4380678,10.2863111 C4.56307627,10.2863111 4.6654322,10.1677333 4.6654322,10.0219556 C4.66489831,9.87493333 4.56307627,9.75626667 4.4380678,9.75626667 L4.4380678,9.75626667 Z" id="Shape"></path>
                                <path d="M12.9364322,0.00862222222 C13.8380339,0.00862222222 14.5688644,0.860533333 14.5688644,1.91173333 C14.5688644,2.9624 13.8380339,3.81466667 12.9364322,3.81466667 C12.0347542,3.81466667 11.3033136,2.9624 11.3033136,1.91173333 C11.3033136,0.860533333 12.0347542,0.00862222222 12.9364322,0.00862222222 L12.9364322,0.00862222222 Z" id="Shape"></path>
                            </g>
                        </g>
                    </g>
                </g>
            </g>
        </g>
    </g>
</svg>