<?xml version="1.0" encoding="UTF-8" standalone="no"?>
<svg width="21px" height="25px" viewBox="0 0 21 25" version="1.1" xmlns="http://www.w3.org/2000/svg" xmlns:xlink="http://www.w3.org/1999/xlink">
    <!-- Generator: Sketch 39.1 (31720) - http://www.bohemiancoding.com/sketch -->
    <title>symbol</title>
    <desc>Created with Sketch.</desc>
    <defs></defs>
    <g id="Page-1" stroke="none" stroke-width="1" fill="none" fill-rule="evenodd" opacity="0.503964552">
        <g id="polis812_vzr_step1" transform="translate(-684.000000, -435.000000)" fill="#000000">
            <g id="insurance" transform="translate(131.000000, 258.000000)">
                <g id="background-form" transform="translate(4.000000, 47.000000)">
                    <g id="input" transform="translate(100.000000, 115.000000)">
                        <g id="symbol" transform="translate(449.000000, 15.000000)">
                            <path d="M20.7426953,0.240442765 C20.5789609,0.081587473 20.3619609,-0.00388768898 20.1349531,0.000107991361 C17.6469453,0.0428185745 15.2735625,0.421706263 12.7608359,0.822786177 C10.1131953,1.24546436 7.37542969,1.6825054 4.39096875,1.7212743 C3.92875,1.72726782 3.55271875,2.1012959 3.55271875,2.5550216 L3.55271875,2.58795896 L2.62303125,2.58795896 L2.62303125,2.12899568 C2.62303125,1.42931965 2.04651562,0.860097192 1.337875,0.860097192 C0.629234375,0.860097192 0.05271875,1.42931965 0.05271875,2.12899568 L0.05271875,23.7272678 C0.05271875,24.4269438 0.629234375,24.9961663 1.337875,24.9961663 C2.04651562,24.9961663 2.62303125,24.4269438 2.62303125,23.7272678 L2.62303125,14.6319654 L3.55271875,14.6319654 L3.55271875,14.6529698 C3.55271875,14.8789957 3.64289844,15.0913067 3.80663281,15.2507559 C3.96725,15.4071814 4.17834375,15.4929266 4.40228906,15.4929266 C4.40617187,15.4929266 4.41016406,15.4928726 4.41404687,15.4928186 C7.454125,15.4522678 10.2184141,15.0110151 12.8917031,14.5842333 C15.3796562,14.187095 17.7296328,13.811933 20.1641562,13.7715443 C20.6239687,13.7638769 20.9980859,13.3901728 20.9980859,12.9384989 L20.9980859,0.840712743 C20.9980859,0.613444924 20.9073594,0.400269978 20.7426953,0.240442765 L20.7426953,0.240442765 Z M1.80277344,23.7272678 C1.80277344,23.9803456 1.59425,24.1862311 1.33792969,24.1862311 C1.08160937,24.1862311 0.873085937,23.9803456 0.873085937,23.7272678 L0.873085937,2.12899568 C0.873085937,1.87591793 1.08160937,1.6700324 1.33792969,1.6700324 C1.59425,1.6700324 1.80277344,1.87591793 1.80277344,2.12899568 L1.80277344,23.7272678 L1.80277344,23.7272678 Z M2.62308594,13.8220302 L2.62308594,3.39789417 L3.55277344,3.39789417 L3.55277344,13.8220302 L2.62308594,13.8220302 L2.62308594,13.8220302 Z M20.1777734,12.9385529 C20.1777734,12.9534557 20.1639922,12.9615551 20.1504297,12.9617711 C17.6569531,13.0031317 15.2787031,13.3828294 12.7607812,13.7847192 C10.11675,14.2068035 7.38275781,14.6432505 4.40294531,14.6830454 C4.39419531,14.6824514 4.38883594,14.6801836 4.38276562,14.6742441 C4.37833594,14.6699244 4.37308594,14.662743 4.37308594,14.6529698 L4.37308594,2.5550216 C4.37308594,2.54184665 4.38566406,2.53131749 4.40179687,2.53110151 C7.44674219,2.49163067 10.2148047,2.04973002 12.8918125,1.62235421 C15.3747344,1.22602592 17.7200078,0.851673866 20.1492266,0.809935205 L20.1499375,0.809935205 C20.1529453,0.809935205 20.1598906,0.810421166 20.1677656,0.818034557 C20.1723594,0.822516199 20.1778828,0.830075594 20.1778828,0.840712743 L20.1778828,12.9385529 L20.1777734,12.9385529 L20.1777734,12.9385529 Z" id="Shape"></path>
                        </g>
                    </g>
                </g>
            </g>
        </g>
    </g>
</svg>