<?xml version="1.0" encoding="UTF-8" standalone="no"?>
<svg width="15px" height="15px" viewBox="0 0 15 15" version="1.1" xmlns="http://www.w3.org/2000/svg" xmlns:xlink="http://www.w3.org/1999/xlink">
    <!-- Generator: Sketch 39.1 (31720) - http://www.bohemiancoding.com/sketch -->
    <title>medical</title>
    <desc>Created with Sketch.</desc>
    <defs></defs>
    <g id="Page-1" stroke="none" stroke-width="1" fill="none" fill-rule="evenodd">
        <g id="polis812_vzr_step2-copy" transform="translate(-631.000000, -792.000000)" fill="#000000">
            <g id="insurance" transform="translate(131.000000, 273.000000)">
                <g id="background-form" transform="translate(4.000000, 96.000000)">
                    <g id="item-insurance-copy" transform="translate(98.000000, 266.000000)">
                        <g id="programm-copy" transform="translate(391.000000, 22.000000)">
                            <g id="medical" transform="translate(7.000000, 135.000000)">
                                <g id="Layer_1">
                                    <g id="Group">
                                        <path d="M8.5255441,0.49231363 C7.85538017,0.839772603 7.05512662,0.839685236 6.38502093,0.49231363 C3.48947125,-1.00879883 0.015667834,1.10606754 0.015667834,4.36893764 C0.015667834,6.42235581 1.71801585,14.9105942 4.37962555,14.9105942 C5.31325955,14.9105942 6.16293375,13.9581471 6.97728253,11.9988524 C7.15332724,11.5752967 7.75726691,11.5751802 7.93331162,11.9988524 C8.7476604,13.9581471 9.59730549,14.9105942 10.5309686,14.9105942 C13.1664847,14.9105942 14.8949263,6.48767728 14.8949263,4.36893764 C14.8948681,1.10714506 11.4222878,-1.00943952 8.5255441,0.49231363 L8.5255441,0.49231363 Z M10.5309104,14.1335803 C9.97872114,14.1335803 9.29347182,13.2468333 8.65088677,11.7006103 C8.20930431,10.6382845 6.70143546,10.6377603 6.25967826,11.7006685 C5.61712233,13.2468041 4.93184389,14.1335803 4.37965467,14.1335803 C2.67756876,14.1335803 0.792769101,6.78021147 0.792769101,4.36899589 C0.792769101,1.68420478 3.65130425,-0.0494789032 6.02739825,1.18222253 C6.92151319,1.64573414 7.98908096,1.64573414 8.8831959,1.18222253 C11.2568436,-0.0482848861 14.1177668,1.68167114 14.1177668,4.36899589 C14.1177959,6.7698439 12.2342485,14.1335803 10.5309104,14.1335803 L10.5309104,14.1335803 Z" id="Shape"></path>
                                        <path d="M12.6931297,3.98041613 C12.4785561,3.98041613 12.3045791,4.15433491 12.3045791,4.36896676 C12.3045791,5.01766751 12.0378764,6.86300636 11.4450032,8.93430566 C11.3859431,9.14055027 11.5053157,9.35570632 11.7115894,9.41470824 C11.9169895,9.4737684 12.1328153,9.35503651 12.1920211,9.14812208 C12.8056003,7.00454107 13.081593,5.06304016 13.081593,4.36899589 C13.0816803,4.15436404 12.9077033,3.98041613 12.6931297,3.98041613 L12.6931297,3.98041613 Z" id="Shape"></path>
                                        <path d="M4.37965467,1.81822592 C2.97318991,1.81822592 1.82888471,2.96247288 1.82888471,4.36893764 C1.82888471,4.58356949 2.00286173,4.75748828 2.21743534,4.75748828 C2.43200895,4.75748828 2.60598598,4.58356949 2.60598598,4.36893764 C2.60598598,3.39095028 3.40160907,2.59532719 4.37965467,2.59532719 C4.59422828,2.59532719 4.76820531,2.42140841 4.76820531,2.20677656 C4.76820531,1.9921447 4.59422828,1.81822592 4.37965467,1.81822592 L4.37965467,1.81822592 Z" id="Shape"></path>
                                    </g>
                                </g>
                            </g>
                        </g>
                    </g>
                </g>
            </g>
        </g>
    </g>
</svg>