<?xml version="1.0" encoding="UTF-8" standalone="no"?>
<svg width="18px" height="23px" viewBox="0 0 18 23" version="1.1" xmlns="http://www.w3.org/2000/svg" xmlns:xlink="http://www.w3.org/1999/xlink">
    <!-- Generator: Sketch 39.1 (31720) - http://www.bohemiancoding.com/sketch -->
    <title>Capa_1</title>
    <desc>Created with Sketch.</desc>
    <defs></defs>
    <g id="Page-1" stroke="none" stroke-width="1" fill="none" fill-rule="evenodd" opacity="0.501923974">
        <g id="polis812_vzr_step3" transform="translate(-472.000000, -906.000000)" fill="#000000">
            <g id="insurance" transform="translate(131.000000, 273.000000)">
                <g id="background-form" transform="translate(4.000000, 92.000000)">
                    <g id="users" transform="translate(9.000000, 451.000000)">
                        <g id="user">
                            <g id="filter" transform="translate(91.000000, 57.000000)">
                                <g id="Capa_1" transform="translate(237.000000, 33.000000)">
                                    <path d="M16.0489565,16.4407833 L12.3108261,14.6099833 C11.9582609,14.4371 11.7391304,14.0898 11.7391304,13.7034 L11.7391304,12.40735 C11.8287391,12.3000167 11.9230435,12.1777333 12.0204783,12.0428 C12.5053043,11.3719667 12.8938696,10.6252333 13.1763913,9.81985 C13.7285217,9.57183333 14.0869565,9.03708333 14.0869565,8.43333333 L14.0869565,6.9 C14.0869565,6.53085 13.946087,6.1732 13.6956522,5.89375 L13.6956522,3.8548 C13.7175652,3.64396667 13.8036522,2.38893333 12.8770435,1.35355 C12.0733043,0.4554 10.769087,0 9,0 C7.23091304,0 5.92669565,0.4554 5.12295652,1.35316667 C4.19634783,2.38855 4.28243478,3.64396667 4.30434783,3.8548 L4.30434783,5.89375 C4.05391304,6.1732 3.91304348,6.53085 3.91304348,6.9 L3.91304348,8.43333333 C3.91304348,8.89985 4.12943478,9.33493333 4.49882609,9.62511667 C4.85726087,11.0154667 5.6073913,12.0631167 5.86956522,12.3993 L5.86956522,13.66775 C5.86956522,14.0388167 5.66295652,14.3792167 5.33073913,14.5570833 L1.83991304,16.4223833 C0.70473913,17.0292 0,18.1922333 0,19.4587667 L0,20.7 C0,22.5193 5.88717391,23 9,23 C12.1128261,23 18,22.5193 18,20.7 L18,19.5335167 C18,18.2156167 17.2522174,17.03035 16.0489565,16.4407833 L16.0489565,16.4407833 Z M17.2173913,20.7 C17.2173913,21.2201833 14.3170435,22.2333333 9,22.2333333 C3.68295652,22.2333333 0.782608696,21.2201833 0.782608696,20.7 L0.782608696,19.4587667 C0.782608696,18.4732167 1.33121739,17.5674 2.2143913,17.0959 L5.70521739,15.2306 C6.28943478,14.9181833 6.65217391,14.3190333 6.65217391,13.66775 L6.65217391,12.1271333 L6.561,12.0205667 C6.5516087,12.00945 5.59252174,10.8728667 5.22665217,9.31231667 L5.19104348,9.16051667 L5.0576087,9.07618333 C4.83104348,8.93281667 4.69565217,8.69246667 4.69565217,8.43333333 L4.69565217,6.9 C4.69565217,6.68495 4.78878261,6.48446667 4.95782609,6.33458333 L5.08695652,6.22073333 L5.08695652,3.83333333 L5.08343478,3.78311667 C5.08226087,3.77276667 4.94921739,2.71016667 5.71147826,1.8584 C6.35986957,1.1339 7.46647826,0.766666667 9,0.766666667 C10.5280435,0.766666667 11.6323043,1.13121667 12.2814783,1.85073333 C13.0433478,2.69445 12.9173478,3.77391667 12.9165652,3.78311667 L12.9130435,6.22073333 L13.0421739,6.33496667 C13.2112174,6.48446667 13.3043478,6.68495 13.3043478,6.9 L13.3043478,8.43333333 C13.3043478,8.76798333 13.0805217,9.06085 12.747913,9.16128333 L12.5530435,9.21993333 L12.4904348,9.40968333 C12.2286522,10.2074 11.8557391,10.9441667 11.3814783,11.5996667 C11.2652609,11.76105 11.1521739,11.9040333 11.0539565,12.0132833 L10.9565217,12.12215 L10.9565217,13.7034 C10.9565217,14.3819 11.3411739,14.9917833 11.9606087,15.2953833 L15.6987391,17.1261833 C16.6355217,17.5850333 17.2173913,18.5073333 17.2173913,19.5335167 L17.2173913,20.7 L17.2173913,20.7 Z" id="Shape"></path>
                                </g>
                            </g>
                        </g>
                    </g>
                </g>
            </g>
        </g>
    </g>
</svg>