<?xml version="1.0" encoding="UTF-8" standalone="no"?>
<svg width="26px" height="25px" viewBox="0 0 26 25" version="1.1" xmlns="http://www.w3.org/2000/svg" xmlns:xlink="http://www.w3.org/1999/xlink">
    <!-- Generator: Sketch 39.1 (31720) - http://www.bohemiancoding.com/sketch -->
    <title>arrows</title>
    <desc>Created with Sketch.</desc>
    <defs></defs>
    <g id="статика" stroke="none" stroke-width="1" fill="none" fill-rule="evenodd">
        <g id="polis812_all_news" transform="translate(-584.000000, -1452.000000)" fill="#FFFFFF">
            <g id="btn" transform="translate(557.000000, 1440.000000)">
                <g id="arrows" transform="translate(27.000000, 12.000000)">
                    <g id="Capa_1">
                        <path d="M25.0453825,12.7893814 L21.168597,8.25508516 C20.8717921,7.90807567 20.4462849,7.70950345 19.9996997,7.70950345 C19.5540827,7.70950345 19.1280542,7.90807567 18.830281,8.25508516 L14.9525273,12.7889442 C14.6633939,13.1270635 14.6026178,13.4511916 14.6026178,13.6633178 C14.6026178,14.2449704 15.0582896,14.835076 15.9294883,14.835076 L18.2912655,14.835076 C18.0212736,18.3821951 15.7202725,21.1931032 12.9990522,21.1931032 C11.6860351,21.1931032 10.4180788,20.5379242 9.43009469,19.3488228 C9.11034982,18.964795 8.63643028,18.7432686 8.12951586,18.7432686 C7.74564327,18.7432686 7.37033593,18.8739255 7.07353106,19.1109005 C6.72652632,19.3867154 6.50919216,19.7797062 6.46368456,20.2143061 C6.41817697,20.6498533 6.5484434,21.0769475 6.83132041,21.4160141 C8.46788086,23.3853404 10.6587998,24.4699455 13.0004674,24.4699455 C17.5407253,24.4699455 21.3413918,20.1879999 21.6472088,14.835076 L24.0687939,14.835076 C24.9399925,14.835076 25.3961857,14.2449704 25.3961857,13.6633178 C25.3957388,13.4516289 25.3349627,13.1280108 25.0453825,12.7893814 L25.0453825,12.7893814 Z M24.0693153,13.8979609 L20.7171705,13.8979609 L20.7080839,14.3564623 C20.6094717,19.4171753 17.1515646,23.5342878 12.9994991,23.5342878 L12.9985309,23.5342878 C10.9512103,23.5342878 9.02410138,22.5718866 7.57277398,20.8259814 C7.45211554,20.679876 7.39618067,20.4976996 7.41576904,20.3103495 C7.4354319,20.1239467 7.52823463,19.9562716 7.67808943,19.8363995 C7.80731314,19.7337978 7.96334982,19.679072 8.12951586,19.679072 C8.34685002,19.679072 8.55025632,19.7741681 8.68767287,19.9384911 C9.86089002,21.3514508 11.3926564,22.1288337 12.9990522,22.1288337 C16.4134627,22.1288337 19.168646,18.7231563 19.2720995,14.3761374 L19.2826012,13.8979609 L15.92852,13.8979609 C15.6968111,13.8979609 15.5589477,13.8099333 15.5589477,13.6628805 C15.5589477,13.6155876 15.5752589,13.5186698 15.6863094,13.3893974 L19.5635418,8.85553838 C19.7933142,8.58861361 20.2054149,8.58905083 20.4347404,8.85510116 L24.3115259,13.3894703 C24.4225764,13.5177953 24.4393345,13.6156604 24.4393345,13.6629534 C24.4393345,13.8099333 24.3010242,13.8979609 24.0693153,13.8979609 L24.0693153,13.8979609 Z M11.0010378,12.1679415 C11.2901712,11.8293121 11.3513942,11.5052568 11.3513942,11.2926206 C11.3513942,10.7104579 10.895201,10.1208624 10.0240024,10.1208624 L7.66274645,10.1208624 C7.93221697,6.57330605 10.2332181,3.7628352 12.9545129,3.7628352 C14.2675299,3.7628352 15.5354863,4.41801419 16.5234704,5.60711561 C16.8432153,5.99158056 17.3171348,6.21215967 17.8244961,6.21215967 C18.2074005,6.21215967 18.5822609,6.08194002 18.8804809,5.84496504 C19.597058,5.27504457 19.706172,4.24093879 19.1231385,3.53890404 C17.4860566,1.56957779 15.2952122,0.484972727 12.9544384,0.484972727 C8.41328664,0.484972727 4.61262022,4.76735554 4.30672872,10.122174 L1.88521808,10.122174 C1.01401944,10.1223198 0.557826258,10.7123525 0.557826258,11.294078 C0.557826258,11.5062041 0.618602362,11.8298222 0.908703985,12.1679415 L4.7854895,16.7018005 C5.08229437,17.0474255 5.50832294,17.246945 5.95438677,17.246945 C6.40000372,17.246945 6.82603229,17.0483728 7.12328404,16.7008532 L11.0010378,12.1679415 L11.0010378,12.1679415 Z M5.51979294,16.1004729 L1.64300743,11.5666138 C1.53195697,11.4378516 1.51519885,11.3404237 1.51519885,11.2935679 C1.51519885,11.1469524 1.65350918,11.0584876 1.88521808,11.0584876 L1.88521808,11.0589248 L5.23736281,11.0589248 L5.24644944,10.5999862 C5.34506164,5.53927314 8.80296872,1.4221607 12.9554811,1.4221607 C15.0022803,1.4221607 16.9294637,2.38456187 18.381238,4.13046706 C18.6311201,4.43207821 18.5846443,4.87513107 18.277859,5.11910162 C17.9777025,5.35651383 17.5100394,5.30783631 17.2673818,5.01701 C16.0936433,3.60499762 14.5619514,2.82710464 12.9554811,2.82710464 C9.54107067,2.82710464 6.78588729,6.23234481 6.68295521,10.579801 L6.67245346,11.0584147 L10.0260133,11.0584147 C10.2577222,11.0584147 10.3960325,11.1464423 10.3960325,11.293495 C10.3960325,11.340788 10.3792744,11.4386532 10.268224,11.5674883 L6.39099158,16.1009101 C6.16121918,16.3674705 5.74904398,16.3665232 5.51979294,16.1004729 L5.51979294,16.1004729 Z" id="Shape"></path>
                    </g>
                </g>
            </g>
        </g>
    </g>
</svg>