<?xml version="1.0" encoding="UTF-8" standalone="no"?>
<svg width="14px" height="10px" viewBox="0 0 14 10" version="1.1" xmlns="http://www.w3.org/2000/svg" xmlns:xlink="http://www.w3.org/1999/xlink">
    <!-- Generator: Sketch 39.1 (31720) - http://www.bohemiancoding.com/sketch -->
    <title>Shape</title>
    <desc>Created with Sketch.</desc>
    <defs></defs>
    <g id="Page-1" stroke="none" stroke-width="1" fill="none" fill-rule="evenodd">
        <g id="polis812_vzr_step1" transform="translate(-344.000000, -4612.000000)" fill="#34495E">
            <g id="press" transform="translate(-4.000000, 4229.000000)">
                <g id="pressa" transform="translate(138.000000, 112.000000)">
                    <g id="more" transform="translate(1.000000, 264.000000)">
                        <path d="M218.277187,7.14478261 C218.0895,6.95173913 217.777125,6.95173913 217.582875,7.14478261 C217.395187,7.33130435 217.395187,7.64173913 217.582875,7.82782609 L221.103437,11.3265217 L209.486063,11.3265217 C209.21525,11.3269565 209,11.5408696 209,11.81 C209,12.0791304 209.21525,12.3 209.486063,12.3 L221.103437,12.3 L217.582875,15.7921739 C217.395187,15.9852174 217.395187,16.296087 217.582875,16.4821739 C217.777125,16.6752174 218.089937,16.6752174 218.277187,16.4821739 L222.631188,12.1552174 C222.825437,11.9686957 222.825437,11.6582609 222.631188,11.4721739 L218.277187,7.14478261 L218.277187,7.14478261 Z" id="Shape"></path>
                    </g>
                </g>
            </g>
        </g>
    </g>
</svg>