<?xml version="1.0" encoding="UTF-8" standalone="no"?>
<svg width="19px" height="15px" viewBox="0 0 19 15" version="1.1" xmlns="http://www.w3.org/2000/svg" xmlns:xlink="http://www.w3.org/1999/xlink">
    <!-- Generator: Sketch 39.1 (31720) - http://www.bohemiancoding.com/sketch -->
    <title>business</title>
    <desc>Created with Sketch.</desc>
    <defs></defs>
    <g id="формы" stroke="none" stroke-width="1" fill="none" fill-rule="evenodd">
        <g id="polis812_viza_step1" transform="translate(-997.000000, -530.000000)" fill="#FFFFFF">
            <g id="visa" transform="translate(131.000000, 258.000000)">
                <g id="background-form" transform="translate(4.000000, 94.000000)">
                    <g id="sidebar" transform="translate(701.000000, 92.000000)">
                        <g id="business" transform="translate(161.000000, 86.000000)">
                            <g id="Capa_1">
                                <g id="Group">
                                    <path d="M12.0903913,12.565125 C11.915,12.526375 11.7398696,12.6313333 11.6994348,12.7995 L11.3220435,14.3697917 L0.735826087,14.3697917 L1.73391304,10.216875 L9.79886957,10.216875 C9.97895652,10.216875 10.1249565,10.0769583 10.1249565,9.904375 C10.1249565,9.73179167 9.97895652,9.591875 9.79886957,9.591875 L1.73391304,9.591875 L0.735826087,5.43895833 L11.322087,5.43895833 L11.8027391,7.43895833 C11.8431739,7.60716667 12.0182174,7.712125 12.1936957,7.67333333 C12.3692174,7.63458333 12.4786957,7.46683333 12.4382609,7.29866667 L11.9162174,5.12641667 L13.0476522,0.418625 C13.0699565,0.325833333 13.0468696,0.228416667 12.9850435,0.153875 C12.9232174,0.0793333333 12.8292609,0.0359583333 12.729913,0.0359583333 L1.4743913,0.0359583333 C1.32247826,0.0359583333 1.19073913,0.136458333 1.1566087,0.278333333 L0.00834782609,5.05633333 C-0.00273913043,5.10245833 -0.00273913043,5.15045833 0.00834782609,5.19658333 L1.13978261,9.904375 L0.00834782609,14.6121667 C-0.0139565217,14.7049583 0.00913043478,14.802375 0.0709565217,14.8769167 C0.132782609,14.9514583 0.22673913,14.9948333 0.326086957,14.9948333 L11.5815652,14.9948333 C11.7334783,14.9948333 11.8652174,14.8943333 11.8993478,14.7524583 L12.335,12.9398333 C12.3753913,12.771625 12.265913,12.603875 12.0903913,12.565125 L12.0903913,12.565125 Z M1.73391304,0.661041667 L12.3201739,0.661041667 L11.322087,4.81395833 L0.735826087,4.81395833 L1.73391304,0.661041667 L1.73391304,0.661041667 Z" id="Shape"></path>
                                    <path d="M2.739,2.30004167 L8.34743478,2.30004167 C8.52752174,2.30004167 8.67352174,2.160125 8.67352174,1.98754167 C8.67352174,1.81495833 8.52752174,1.67504167 8.34743478,1.67504167 L2.739,1.67504167 C2.55891304,1.67504167 2.41291304,1.81495833 2.41291304,1.98754167 C2.41291304,2.160125 2.55891304,2.30004167 2.739,2.30004167 L2.739,2.30004167 Z" id="Shape"></path>
                                    <path d="M2.15208696,3.79995833 L7.76052174,3.79995833 C7.9406087,3.79995833 8.0866087,3.66004167 8.0866087,3.48745833 C8.0866087,3.314875 7.9406087,3.17495833 7.76052174,3.17495833 L2.15208696,3.17495833 C1.972,3.17495833 1.826,3.314875 1.826,3.48745833 C1.826,3.66004167 1.972,3.79995833 2.15208696,3.79995833 L2.15208696,3.79995833 Z" id="Shape"></path>
                                    <path d="M8.67352174,11.543375 C8.67352174,11.3707917 8.52752174,11.230875 8.34743478,11.230875 L2.739,11.230875 C2.55891304,11.230875 2.41291304,11.3707917 2.41291304,11.543375 C2.41291304,11.7159583 2.55891304,11.855875 2.739,11.855875 L8.34743478,11.855875 C8.52752174,11.855875 8.67352174,11.7159583 8.67352174,11.543375 L8.67352174,11.543375 Z" id="Shape"></path>
                                    <path d="M2.15208696,12.7307917 C1.972,12.7307917 1.826,12.8707083 1.826,13.0432917 C1.826,13.215875 1.972,13.3557917 2.15208696,13.3557917 L7.76052174,13.3557917 C7.9406087,13.3557917 8.0866087,13.215875 8.0866087,13.0432917 C8.0866087,12.8707083 7.9406087,12.7307917 7.76052174,12.7307917 L2.15208696,12.7307917 L2.15208696,12.7307917 Z" id="Shape"></path>
                                    <path d="M8.08656522,6.76545833 C8.08656522,6.592875 7.94056522,6.45295833 7.76047826,6.45295833 L2.15208696,6.45295833 C1.972,6.45295833 1.826,6.592875 1.826,6.76545833 C1.826,6.93804167 1.972,7.07795833 2.15208696,7.07795833 L7.76052174,7.07795833 C7.94056522,7.07795833 8.08656522,6.93804167 8.08656522,6.76545833 L8.08656522,6.76545833 Z" id="Shape"></path>
                                    <path d="M2.739,8.577875 L8.34743478,8.577875 C8.52752174,8.577875 8.67352174,8.43795833 8.67352174,8.265375 C8.67352174,8.09279167 8.52752174,7.952875 8.34743478,7.952875 L2.739,7.952875 C2.55891304,7.952875 2.41291304,8.09279167 2.41291304,8.265375 C2.41291304,8.43795833 2.55891304,8.577875 2.739,8.577875 L2.739,8.577875 Z" id="Shape"></path>
                                    <path d="M9.39717391,2.59720833 C9.42004348,2.70679167 9.50226087,2.79633333 9.61273913,2.83204167 C9.64682609,2.84304167 9.68195652,2.84841667 9.71686957,2.84841667 C9.79517391,2.84841667 9.87217391,2.821375 9.93265217,2.77025 L11.0413043,1.83279167 C11.1763478,1.718625 11.1892174,1.521125 11.0700435,1.39170833 C10.950913,1.26233333 10.7448696,1.24995833 10.6097826,1.36416667 L9.92565217,1.94266667 L9.90626087,1.84966667 C9.87091304,1.68045833 9.69934783,1.57066667 9.52252174,1.60454167 C9.34591304,1.63841667 9.23143478,1.80304167 9.26673913,1.97229167 L9.39717391,2.59720833 L9.39717391,2.59720833 Z" id="Shape"></path>
                                    <path d="M9.73334783,7.698 C9.74943478,7.698 9.7656087,7.696875 9.78178261,7.69454167 C9.89708696,7.67795833 9.99443478,7.60358333 10.0369565,7.49954167 L10.5765652,6.180375 C10.6423043,6.01970833 10.5596522,5.838375 10.392,5.775375 C10.2243043,5.71229167 10.0351304,5.79158333 9.9693913,5.95225 L9.6363913,6.76633333 L9.57478261,6.69208333 C9.46273913,6.557 9.2576087,6.5345 9.1166087,6.64191667 C8.97565217,6.74929167 8.95217391,6.945875 9.06426087,7.081 L9.47808696,7.57995833 C9.54047826,7.65516667 9.63482609,7.698 9.73334783,7.698 L9.73334783,7.698 Z" id="Shape"></path>
                                    <path d="M9.769,9.19166667 C9.8313913,9.266875 9.92569565,9.30970833 10.0242174,9.30970833 C10.0403043,9.30970833 10.0564783,9.30858333 10.0726522,9.30625 C10.1879565,9.28966667 10.2853043,9.21529167 10.3278261,9.11125 L10.8674348,7.79208333 C10.9331739,7.63141667 10.8505217,7.45008333 10.6828696,7.38708333 C10.5151304,7.324 10.326,7.40329167 10.2602609,7.56395833 L9.92726087,8.37804167 L9.86565217,8.30379167 C9.7536087,8.16870833 9.54852174,8.14620833 9.40747826,8.253625 C9.26652174,8.361 9.24304348,8.55758333 9.35513043,8.69270833 L9.769,9.19166667 L9.769,9.19166667 Z" id="Shape"></path>
                                    <path d="M18.9004348,5.8625 L17.2377826,4.16395833 C17.1786087,4.1035 17.0968261,4.06808333 17.0103913,4.06541667 C16.9235217,4.06308333 16.8399565,4.09316667 16.7768696,4.14983333 L10.5462174,9.75120833 C10.5062609,9.787125 10.4763913,9.83208333 10.4593913,9.882 L9.67365217,12.185 C9.6366087,12.2935 9.66426087,12.4126667 9.74578261,12.4959167 C9.80826087,12.5597083 9.89469565,12.594625 9.9836087,12.594625 C10.0106957,12.594625 10.038,12.591375 10.0649565,12.58475 L12.5133478,11.98025 C12.5663913,11.9671667 12.6151304,11.9414583 12.655087,11.9055417 L18.8857391,6.30416667 C19.0170435,6.186125 19.0236522,5.988375 18.9004348,5.8625 L18.9004348,5.8625 Z M10.4784348,11.83725 L10.9081739,10.5777083 L11.8174783,11.506625 L10.4784348,11.83725 L10.4784348,11.83725 Z M12.4466957,11.2359167 L11.2302609,9.99320833 L16.9852609,4.81945833 L18.2017391,6.06216667 L12.4466957,11.2359167 L12.4466957,11.2359167 Z" id="Shape"></path>
                                </g>
                            </g>
                        </g>
                    </g>
                </g>
            </g>
        </g>
    </g>
</svg>