<?xml version="1.0" encoding="UTF-8" standalone="no"?>
<svg width="24px" height="24px" viewBox="0 0 24 24" version="1.1" xmlns="http://www.w3.org/2000/svg" xmlns:xlink="http://www.w3.org/1999/xlink">
    <!-- Generator: Sketch 39.1 (31720) - http://www.bohemiancoding.com/sketch -->
    <title>steering-wheel</title>
    <desc>Created with Sketch.</desc>
    <defs></defs>
    <g id="формы" stroke="none" stroke-width="1" fill="none" fill-rule="evenodd" opacity="0.498017724">
        <g id="polis812_green_step1" transform="translate(-250.000000, -423.000000)" fill="#303030">
            <g id="visa-copy-2" transform="translate(135.000000, 258.000000)">
                <g id="background-form" transform="translate(0.000000, 94.000000)">
                    <g id="form" transform="translate(100.000000, 55.000000)">
                        <g id="авто">
                            <g id="steering-wheel" transform="translate(15.000000, 16.000000)">
                                <g id="Layer_1">
                                    <g id="Group">
                                        <path d="M12.0022857,0 C5.39017143,0 0.00685714286,5.35996288 0.00685714286,11.9743852 C0.00685714286,18.5888074 5.39017143,23.9487703 12.0022857,23.9487703 C18.6144,23.9487703 23.9977143,18.5888074 23.9977143,11.9743852 C23.9977143,5.35996288 18.6144,0 12.0022857,0 L12.0022857,0 Z M14.8987429,21.1547471 C14.8402286,21.1832575 14.7817143,21.1832575 14.7232,21.1832575 C14.4598857,21.1832575 14.1965714,20.9836845 14.1380571,20.7270905 L13.8454857,19.273058 C13.8062857,19.1010487 13.6879429,18.9550441 13.5261714,18.8771972 L13.9917714,15.1675545 C14.8402286,14.6258561 15.4253714,13.7990534 15.6594286,12.8582088 L18.9901143,11.5438329 C19.0963429,11.670181 19.2582857,11.7463016 19.4335429,11.7463016 L19.4628,11.7463016 L21.0134286,11.6607703 L21.0426857,11.6607703 C21.3645143,11.6607703 21.6570857,11.9458747 21.6278286,12.2594896 C21.3645714,16.5645661 18.6144,19.985819 14.8987429,21.1547471 L14.8987429,21.1547471 Z M15.2790857,12.4020418 C15.1913143,12.4305522 15.1328,12.5160835 15.1035429,12.6016148 C14.928,13.4854385 14.3721143,14.2837309 13.5821714,14.7398979 C13.4944,14.7684084 13.4358857,14.8539397 13.4358857,14.939471 L12.9385143,18.816891 L11.0626286,18.816891 L10.5686857,14.939471 C10.5394286,14.8539397 10.5101714,14.7969188 10.4224,14.7398979 C9.6032,14.2837309 9.04731429,13.4854385 8.87177143,12.5731044 C8.84251429,12.4875731 8.784,12.4020418 8.69622857,12.3735313 L5.27154286,11.011935 L5.77714286,9.21243619 L9.60314286,9.72206032 C9.69091429,9.72206032 9.77868571,9.69354988 9.8372,9.636529 C10.4223429,9.09483063 11.1830286,8.78121578 12.0022286,8.78121578 C12.8214286,8.78121578 13.6113714,9.09483063 14.1965143,9.66503944 C14.2550286,9.72206032 14.3135429,9.75057077 14.4013143,9.75057077 C14.4013143,9.75057077 14.4305714,9.75057077 14.4305714,9.72206032 L18.2857714,9.21221346 L18.7926286,11.0161671 L15.2790857,12.4020418 L15.2790857,12.4020418 Z M4.62948571,11.7463016 C4.80634286,11.7463016 4.96971429,11.6689002 5.07588571,11.5404362 L8.31588571,12.8296984 C8.54994286,13.7705429 9.13508571,14.5973457 9.98354286,15.1390441 L10.4718857,18.8667842 C10.2984571,18.9414571 10.1708571,19.0930858 10.1298286,19.273058 L9.83725714,20.7270905 C9.77874286,21.0121949 9.54468571,21.1832575 9.25211429,21.1832575 C9.1936,21.1832575 9.13508571,21.1832575 9.07657143,21.1547471 C5.36091429,19.985819 2.61074286,16.5930766 2.37668571,12.2309791 C2.34742857,11.8888538 2.64,11.6322599 2.96182857,11.6322599 L2.99108571,11.6322599 L4.60022857,11.7463016 L4.62948571,11.7463016 L4.62948571,11.7463016 Z M18.4973714,8.26802784 C18.3276571,8.34153132 18.2191429,8.48625522 18.1866286,8.64846404 L14.4891429,9.15185151 C13.7869714,8.55313225 12.9092571,8.21100696 12.0022857,8.21100696 C11.0660571,8.21100696 10.2176,8.55313225 9.51542857,9.15185151 L5.85588571,8.64618097 C5.81754286,8.48486311 5.71588571,8.34119722 5.56571429,8.26802784 L4.13211429,7.58377726 C3.81028571,7.44122506 3.72251429,7.04207889 3.89805714,6.75697448 C5.62422857,4.10550348 8.60845714,2.33785615 12.0022857,2.33785615 C15.3961143,2.33785615 18.4096,4.10550348 20.1065143,6.75697448 C20.2820571,7.04207889 20.1650286,7.41271462 19.8724571,7.58377726 L18.4973714,8.26802784 L18.4973714,8.26802784 Z M12.0022857,1.76764733 C11.8062857,1.76764733 11.6112571,1.77393968 11.4171429,1.78490951 L11.4171429,0.585020882 C11.6109714,0.575220418 11.8060571,0.570208817 12.0022857,0.570208817 C12.1985143,0.570208817 12.3936,0.575164733 12.5874286,0.585020882 L12.5874286,1.7849652 C12.3933714,1.77399536 12.1983429,1.76764733 12.0022857,1.76764733 L12.0022857,1.76764733 Z M12.0022857,23.3785615 C5.712,23.3785615 0.592,18.2751926 0.592,11.9743852 C0.592,5.96937355 5.24257143,1.05199072 11.1245714,0.603563805 L11.1245714,1.8057355 C7.98542857,2.07168445 5.14142857,3.75535963 3.40068571,6.44335963 C3.22514286,6.72846404 3.16662857,7.04207889 3.2544,7.35569374 C3.34217143,7.66930858 3.57622857,7.92590255 3.8688,8.06845476 L5.3024,8.75270534 L4.64771429,11.08271 C4.63725714,11.1039814 4.63028571,11.1256427 4.62674286,11.1474153 L3.02034286,11.0335963 L2.93257143,11.0335963 C2.6348,11.0335963 2.33725714,11.155768 2.13222857,11.3546729 C2.14674286,11.1050951 2.16914286,10.8555174 2.20114286,10.6059397 C2.2304,10.5204084 2.17188571,10.434877 2.08411429,10.434877 C1.99634286,10.4063666 1.90857143,10.4633875 1.90857143,10.5489188 C1.85605714,10.9583666 1.8284,11.3897541 1.82302857,11.803935 C1.76931429,11.9488817 1.74777143,12.1042413 1.76228571,12.2595452 C2.05485714,16.707174 4.86354286,20.4135313 8.93028571,21.6965012 C9.04731429,21.7250116 9.16434286,21.753522 9.28137143,21.753522 C9.83725714,21.753522 10.3346286,21.3543759 10.4224,20.8411879 L10.7125143,19.3995174 C10.7409143,19.4094292 10.7709714,19.4156659 10.8027429,19.4156659 C10.8027429,19.4156659 10.832,19.4156659 10.832,19.3871555 L13.2603429,19.3871555 L13.5529143,20.8411879 C13.6250857,21.1752947 13.8311429,21.4439722 14.1086286,21.6011137 C13.8001714,21.6668213 13.4878286,21.7173828 13.1725714,21.753522 C13.1140571,21.7820325 13.0555429,21.8390534 13.0555429,21.9245847 C13.0555429,21.9816056 13.1433143,22.0386265 13.2018286,22.0386265 C13.7010286,21.9830534 14.1932571,21.8864965 14.6785143,21.7528538 C14.6837143,21.7529095 14.6887429,21.753522 14.6939429,21.753522 C14.8109714,21.753522 14.928,21.7250116 15.0450286,21.6965012 C19.1410286,20.4135313 21.9497143,16.7356845 22.2130286,12.2880557 C22.2422857,11.9744408 22.1252571,11.660826 21.8912,11.4327425 C21.6571429,11.2046589 21.3645714,11.0621067 21.0427429,11.0621067 L20.9549714,11.0621067 L19.4043429,11.1476381 L18.7893714,8.95901624 C18.7954286,8.92822274 18.7961143,8.89692807 18.7899429,8.86680278 C18.7899429,8.8201949 18.7765714,8.77804176 18.7546857,8.74167981 L20.1065143,8.09702088 C20.3990857,7.95446868 20.6331429,7.69787471 20.7209143,7.38425986 C20.7233714,7.37546172 20.7253143,7.3665522 20.7275429,7.35769838 C20.9820571,7.83485847 21.1971429,8.33072854 21.3645714,8.83829234 C21.3938286,8.89531323 21.4523429,8.92382367 21.5108571,8.92382367 L21.5693714,8.92382367 C21.6278857,8.89531323 21.6864,8.83829234 21.6571429,8.75276102 C21.4023429,8.03276102 21.0809143,7.35602784 20.6929714,6.70368445 C20.6628571,6.6214942 20.6234286,6.54331323 20.5746286,6.47192575 C18.8862857,3.7819768 16.0438857,2.07396752 12.88,1.80579118 L12.88,0.603563805 C18.762,1.05199072 23.4125714,5.96937355 23.4125714,11.9743852 C23.4125714,18.2751926 18.2925714,23.3785615 12.0022857,23.3785615 L12.0022857,23.3785615 Z" id="Shape"></path>
                                        <path d="M13.1433143,12.0028956 C13.1433143,11.4041763 12.6166857,10.8909884 12.0022857,10.8909884 C11.3878857,10.8909884 10.8612571,11.4041763 10.8612571,12.0028956 C10.8612571,12.6016148 11.3586286,13.1148028 12.0022857,13.1148028 C12.6459429,13.1148028 13.1433143,12.6016148 13.1433143,12.0028956 L13.1433143,12.0028956 Z M12.0022857,12.9152297 C11.5049143,12.9152297 11.0953143,12.5160835 11.0953143,12.0028956 C11.0953143,11.5182181 11.5049143,11.0905615 12.0022857,11.0905615 C12.4996571,11.0905615 12.9092571,11.4897077 12.9092571,12.0028956 C12.9092571,12.5160835 12.4996571,12.9152297 12.0022857,12.9152297 L12.0022857,12.9152297 Z" id="Shape"></path>
                                        <path d="M11.2123429,13.3428863 L11.1830857,13.3143759 C10.9782857,13.1718237 10.7149714,13.257355 10.5979429,13.4569281 C10.4516571,13.6850116 10.5394286,13.9416056 10.7442286,14.0556473 L10.7734857,14.0841578 C10.8612571,14.1126682 10.9197714,14.1411787 11.0075429,14.1411787 C11.1538286,14.1411787 11.3001143,14.0556473 11.3586286,13.9416056 C11.5049143,13.713522 11.4171429,13.4569281 11.2123429,13.3428863 L11.2123429,13.3428863 Z" id="Shape"></path>
                                        <path d="M10.9782857,10.6914153 C11.0660571,10.6914153 11.1538286,10.6629049 11.2123429,10.6343944 L11.2416,10.605884 C11.4464,10.4633318 11.5049143,10.2067378 11.3878857,10.0071647 C11.2416,9.80759165 10.9782857,9.75057077 10.7734857,9.86461253 L10.7442286,9.89312297 C10.5394286,10.0356752 10.4809143,10.2922691 10.5979429,10.4918422 C10.6857143,10.605884 10.832,10.6914153 10.9782857,10.6914153 L10.9782857,10.6914153 Z" id="Shape"></path>
                                        <path d="M12.7922286,10.6343944 C12.88,10.6629049 12.9385143,10.6914153 13.0262857,10.6914153 C13.1725714,10.6914153 13.3188571,10.605884 13.3773714,10.4918422 C13.4944,10.2637587 13.4358857,10.0071647 13.2310857,9.89312297 L13.2018286,9.86461253 C12.9970286,9.75057077 12.7337143,9.83610209 12.6166857,10.0356752 C12.4996571,10.2352483 12.5874286,10.5203527 12.7922286,10.6343944 L12.7922286,10.6343944 Z" id="Shape"></path>
                                        <path d="M14.0210286,11.4897077 C13.7869714,11.4897077 13.5821714,11.6892807 13.5821714,11.9173643 L13.5821714,11.9743852 C13.5821714,12.2309791 13.7869714,12.4020418 14.0210286,12.4020418 C14.2550857,12.4020418 14.4598857,12.2024687 14.4598857,11.9458747 L14.4598857,11.9173643 C14.4598857,11.6892807 14.2550857,11.4897077 14.0210286,11.4897077 L14.0210286,11.4897077 Z" id="Shape"></path>
                                        <path d="M9.98354286,11.5182181 C9.74948571,11.5182181 9.54468571,11.7177912 9.54468571,11.9458747 L9.54468571,12.0028956 C9.54468571,12.2309791 9.74948571,12.4305522 9.98354286,12.4305522 C10.2468571,12.4305522 10.4224,12.2309791 10.4224,11.9743852 L10.4224,11.9458747 C10.4224,11.7177912 10.2176,11.5182181 9.98354286,11.5182181 L9.98354286,11.5182181 Z" id="Shape"></path>
                                        <path d="M12.7922286,13.3143759 L12.7629714,13.3428863 C12.5581714,13.4569281 12.4996571,13.713522 12.6166857,13.9130951 C12.7044571,14.0271369 12.8507429,14.1126682 12.9970286,14.1126682 C13.0848,14.1126682 13.1725714,14.1126682 13.2603429,14.0556473 C13.4651429,13.9130951 13.5236571,13.6565012 13.4066286,13.4569281 C13.2603429,13.257355 12.9970286,13.2003341 12.7922286,13.3143759 L12.7922286,13.3143759 Z" id="Shape"></path>
                                        <path d="M2.39067593,9.5773679 L2.44141589,9.5773679 C2.5428958,9.5773679 2.64437572,9.49304643 2.69511568,9.45088569 L2.74585563,9.32440347 C2.79659559,9.240082 2.74585563,9.11359978 2.59363576,9.07143905 C2.49215584,9.02927831 2.33993597,9.07143905 2.28919601,9.19792126 L2.23845606,9.32440347 C2.1877161,9.40872495 2.23845606,9.53520716 2.39067593,9.5773679 L2.39067593,9.5773679 Z" id="Shape"></path>
                                        <path d="M2.22361558,10.2352483 C2.35997922,10.2352483 2.45088831,10.1782274 2.45088831,10.0926961 C2.45088831,10.0071647 2.49634286,9.89312297 2.5417974,9.77908121 C2.5417974,9.69354988 2.49634286,9.636529 2.35997922,9.60801856 C2.22361558,9.60801856 2.13270649,9.636529 2.08725195,9.72206032 C2.08725195,9.83610209 2.0417974,9.95014385 1.99634286,10.0641856 C1.99634286,10.1497169 2.0417974,10.2067378 2.22361558,10.2352483 L2.22361558,10.2352483 Z" id="Shape"></path>
                                        <path d="M11.0738373,21.7759277 L10.8981139,21.7295926 C10.7926798,21.6832575 10.6872458,21.7759277 10.6872458,21.914933 C10.6521011,22.0539383 10.7223905,22.1929435 10.8278245,22.1929435 L11.0386926,22.2392786 C11.1441267,22.2392786 11.214416,22.1929435 11.214416,22.0076032 C11.2495607,21.914933 11.1792713,21.7759277 11.0738373,21.7759277 L11.0738373,21.7759277 Z" id="Shape"></path>
                                        <path d="M12.2656,21.8104872 L11.5634286,21.8104872 C11.4756571,21.8104872 11.4171429,21.9148351 11.4171429,22.0713568 C11.4171429,22.2278785 11.4756571,22.3322264 11.5634286,22.3322264 L12.0022857,22.3322264 L12.2656,22.3322264 C12.3533714,22.3322264 12.4118857,22.2278785 12.4118857,22.0713568 C12.4118857,21.9148351 12.3533714,21.8104872 12.2656,21.8104872 L12.2656,21.8104872 Z" id="Shape"></path>
                                        <path d="M21.9756903,9.37993503 C21.9353468,9.29440371 21.8546598,9.23738283 21.7336293,9.26589327 C21.6125988,9.29440371 21.5319118,9.35142459 21.5722553,9.43695592 C21.6125988,9.55099768 21.6529423,9.69354988 21.6932858,9.80759165 C21.7336293,9.86461253 21.8143163,9.92163341 21.8950033,9.92163341 L21.9353468,9.92163341 C22.0563773,9.89312297 22.1370643,9.83610209 22.0967208,9.75057077 C22.0563773,9.636529 22.0160338,9.4939768 21.9756903,9.37993503 L21.9756903,9.37993503 Z" id="Shape"></path>
                                    </g>
                                </g>
                            </g>
                        </g>
                    </g>
                </g>
            </g>
        </g>
    </g>
</svg>