<?xml version="1.0" encoding="UTF-8" standalone="no"?>
<svg width="40px" height="40px" viewBox="0 0 40 40" version="1.1" xmlns="http://www.w3.org/2000/svg" xmlns:xlink="http://www.w3.org/1999/xlink">
    <!-- Generator: Sketch 39.1 (31720) - http://www.bohemiancoding.com/sketch -->
    <title>spain</title>
    <desc>Created with Sketch.</desc>
    <defs></defs>
    <g id="статика" stroke="none" stroke-width="1" fill="none" fill-rule="evenodd">
        <g id="polis812_offline" transform="translate(-1035.000000, -618.000000)">
            <g id="ESP" transform="translate(1035.000000, 618.000000)">
                <g id="spain">
                    <g id="Layer_1">
                        <path d="M0,20 C0,22.4464063 0.440078125,24.7898438 1.24398437,26.9564844 L20,28.695625 L38.7560156,26.9564844 C39.5599219,24.7898438 40,22.4464063 40,20 C40,17.5535938 39.5599219,15.2101563 38.7560156,13.0435156 L20,11.304375 L1.24398437,13.0435156 C0.440078125,15.2101563 0,17.5535938 0,20 L0,20 Z" id="Shape" fill="#FFDA44"></path>
                        <g id="Group" transform="translate(1.171875, 0.000000)" fill="#D80027">
                            <path d="M37.5841406,13.0435156 C34.7582812,5.42757813 27.4274219,0 18.828125,0 C10.2288281,0 2.89796875,5.42757813 0.072109375,13.0435156 L37.5841406,13.0435156 L37.5841406,13.0435156 Z" id="Shape"></path>
                            <path d="M0.072109375,26.9564844 C2.89796875,34.5724219 10.2288281,40 18.828125,40 C27.4274219,40 34.7582812,34.5724219 37.5841406,26.9564844 L0.072109375,26.9564844 L0.072109375,26.9564844 Z" id="Shape"></path>
                        </g>
                    </g>
                </g>
            </g>
        </g>
    </g>
</svg>