<?xml version="1.0" encoding="UTF-8" standalone="no"?>
<svg width="20px" height="12px" viewBox="0 0 20 12" version="1.1" xmlns="http://www.w3.org/2000/svg" xmlns:xlink="http://www.w3.org/1999/xlink">
    <!-- Generator: Sketch 39.1 (31720) - http://www.bohemiancoding.com/sketch -->
    <title>left-arrow</title>
    <desc>Created with Sketch.</desc>
    <defs></defs>
    <g id="статика" stroke="none" stroke-width="1" fill="none" fill-rule="evenodd">
        <g id="polis812_single-news" transform="translate(-935.000000, -542.000000)" fill="#303030">
            <g id="left-arrow" transform="translate(935.000000, 542.000000)">
                <g id="Capa_1">
                    <path d="M19.0866833,5.168928 L2.94842893,5.168928 L6.79925187,1.462656 C7.13660848,1.138176 7.13660848,0.611808 6.79925187,0.287376 C6.46189526,-0.037296 5.91496259,-0.037296 5.57810474,0.287376 L0.253017456,5.412336 C-0.0843391521,5.736816 -0.0843391521,6.263232 0.253017456,6.587616 L5.57810474,11.712816 C5.74673317,11.8752 5.96773067,11.956272 6.1886783,11.956272 C6.40962594,11.956272 6.63062344,11.8752 6.79925187,11.712816 C7.13660848,11.388336 7.13660848,10.861968 6.79925187,10.537584 L2.94842893,6.83112 L19.0866833,6.83112 C19.563591,6.83112 19.9503242,6.458976 19.9503242,6 C19.9503242,5.541024 19.5636409,5.168928 19.0866833,5.168928 L19.0866833,5.168928 Z" id="Shape"></path>
                </g>
            </g>
        </g>
    </g>
</svg>