<?xml version="1.0" encoding="UTF-8" standalone="no"?>
<svg width="12px" height="7px" viewBox="0 0 12 7" version="1.1" xmlns="http://www.w3.org/2000/svg" xmlns:xlink="http://www.w3.org/1999/xlink">
    <!-- Generator: Sketch 39.1 (31720) - http://www.bohemiancoding.com/sketch -->
    <title>caret-arrow-up</title>
    <desc>Created with Sketch.</desc>
    <defs></defs>
    <g id="Page-1" stroke="none" stroke-width="1" fill="none" fill-rule="evenodd" opacity="0.49504431">
        <g id="polis812_vzr_step1" transform="translate(-917.000000, -502.000000)" fill="#000000">
            <g id="insurance" transform="translate(131.000000, 258.000000)">
                <g id="background-form" transform="translate(4.000000, 47.000000)">
                    <g id="input-copy-5" transform="translate(586.000000, 171.000000)">
                        <g id="caret-arrow-up" transform="translate(202.000000, 29.500000) rotate(180.000000) translate(-202.000000, -29.500000) translate(196.000000, 26.000000)">
                            <g id="Capa_1" transform="translate(0.000000, -0.000000)">
                                <path d="M11.7516041,5.60047729 L6.51309215,0.266121409 C6.36511945,0.115273401 6.18974744,0.0399119555 5.98693515,0.0399119555 C5.78412287,0.0399119555 5.60879181,0.115273401 5.46065529,0.266121409 L0.222143345,5.60047729 C0.0740068259,5.7513253 0,5.92990732 0,6.13626506 C0,6.3426228 0.0740068259,6.52132994 0.222143345,6.67205283 C0.370443686,6.82290083 0.545774744,6.89830399 0.748423208,6.89830399 L11.2254061,6.89830399 C11.4280956,6.89830399 11.6035495,6.82290083 11.7516041,6.67205283 C11.8995768,6.52137164 11.9738703,6.3426645 11.9738703,6.13626506 C11.9738703,5.92986562 11.8995768,5.7513253 11.7516041,5.60047729 L11.7516041,5.60047729 Z" id="Shape"></path>
                            </g>
                        </g>
                    </g>
                </g>
            </g>
        </g>
    </g>
</svg>