<?xml version="1.0" encoding="UTF-8" standalone="no"?>
<svg width="25px" height="25px" viewBox="0 0 25 25" version="1.1" xmlns="http://www.w3.org/2000/svg" xmlns:xlink="http://www.w3.org/1999/xlink">
    <!-- Generator: Sketch 39.1 (31720) - http://www.bohemiancoding.com/sketch -->
    <title>people</title>
    <desc>Created with Sketch.</desc>
    <defs></defs>
    <g id="формы" stroke="none" stroke-width="1" fill="none" fill-rule="evenodd" opacity="0.506005131">
        <g id="polis812_viza_step2" transform="translate(-351.000000, -1203.000000)" fill="#000000">
            <g id="visa" transform="translate(131.000000, 258.000000)">
                <g id="background-form" transform="translate(4.000000, 93.000000)">
                    <g id="занятость" transform="translate(200.000000, 808.000000)">
                        <g id="input" transform="translate(1.000000, 29.000000)">
                            <g id="people" transform="translate(15.000000, 15.000000)">
                                <g id="Layer_1">
                                    <g id="Group">
                                        <g id="Shape">
                                            <path d="M23.7314484,20.7337798 C21.2465774,19.4160714 19.3405754,18.6771825 17.6437996,18.3938988 L17.8193948,18.1524802 C17.9026786,18.0691964 17.9442956,17.9442956 17.9026786,17.8193948 L17.5125,16.2587302 C18.5444444,14.7999008 19.1516865,12.9760913 19.1516865,11.2412202 L19.1516865,9.57584325 L19.568006,9.57584325 L20.4006944,9.57584325 C20.650496,9.57584325 20.8170139,9.4093254 20.8170139,9.15952381 C20.8170139,8.90972222 20.650496,8.74320437 20.4006944,8.74320437 L19.984375,8.74320437 L19.984375,8.32688492 C19.984375,5.03779762 17.8193948,2.24831349 14.5719246,1.33234127 L14.5719246,1.24900794 C14.5719246,0.582837302 14.0307044,0 13.3229167,0 L11.6575397,0 C10.991369,0 10.4085317,0.541220238 10.4085317,1.24900794 L10.4085317,1.33229167 C7.16106151,2.24826389 4.99608135,5.03774802 4.99608135,8.32683532 L4.99608135,8.74315476 L4.5797619,8.74315476 C4.32996032,8.74315476 4.16344246,8.90967262 4.16344246,9.15947421 C4.16344246,9.40927579 4.32996032,9.57579365 4.5797619,9.57579365 L5.4124504,9.57579365 L5.82876984,9.57579365 L5.82876984,11.2411706 C5.82876984,12.9760417 6.4360119,14.7998512 7.46795635,16.2587302 L7.07777778,17.8193948 C7.07777778,17.9026786 7.07777778,18.0691964 7.16106151,18.1524802 L7.33665675,18.3938988 C5.63993056,18.6772321 3.73387897,19.4160714 1.24900794,20.7337798 C0.457986111,21.1085317 0,21.8995536 0,22.7738591 L0,24.5641369 C0,24.8139385 0.166517857,24.9804563 0.416319444,24.9804563 L10.4085317,24.9804563 L10.5750496,24.9804563 L14.4054067,24.9804563 L14.5719246,24.9804563 L24.5641369,24.9804563 C24.8139385,24.9804563 24.9804563,24.8139385 24.9804563,24.5641369 L24.9804563,22.7738591 C24.980506,21.9411706 24.4808532,21.1501488 23.7314484,20.7337798 L23.7314484,20.7337798 Z M12.2405754,20.3484127 L12.4926091,19.7813492 L13.114881,21.1503968 L13.521875,22.0660714 L11.4910714,22.0660714 L12.2405754,20.3484127 L12.2405754,20.3484127 Z M11.1746032,22.8987599 L13.8027282,22.8987599 L14.040625,24.1477679 L10.9248016,24.1477679 L11.1746032,22.8987599 L11.1746032,22.8987599 Z M16.8618056,17.0699901 L17.0283234,17.8193948 L16.6030258,18.403373 C16.5758929,18.4255456 16.5507937,18.4524306 16.5287202,18.4855159 L14.7969742,20.8833333 L14.2474702,21.6378472 L13.1250496,19.1124008 C14.4667163,18.9487599 15.6643849,18.275248 16.6316964,17.3073413 C16.6424107,17.2967262 16.6531746,17.2862103 16.6638393,17.275496 C16.6664187,17.2728671 16.668998,17.2702381 16.6715774,17.2676091 C16.7357143,17.2032738 16.7991567,17.1375 16.8618056,17.0699901 L16.8618056,17.0699901 Z M16.3193948,3.04508929 C16.365625,3.07584325 16.4114583,3.10709325 16.4567956,3.13893849 C16.9875,3.5344246 17.477381,3.99771825 17.8610615,4.49647817 L15.9458829,4.87118056 L16.3193948,3.04508929 L16.3193948,3.04508929 Z M9.03462302,4.87118056 L7.11944444,4.49647817 C7.503125,3.99766865 7.99305556,3.534375 8.52375992,3.13888889 C8.56904762,3.10709325 8.61488095,3.07584325 8.66111111,3.04508929 L9.03462302,4.87118056 L9.03462302,4.87118056 Z M5.82876984,8.32683532 C5.82876984,7.21894841 6.10768849,6.17375992 6.6125,5.26036706 L9.49260913,5.82881944 L9.57589286,5.82881944 C9.70079365,5.82881944 9.78407738,5.78720238 9.90897817,5.74553571 C10.033879,5.66225198 10.075496,5.49573413 10.033879,5.37083333 L9.46230159,2.5890873 C9.76334325,2.44424603 10.0792659,2.31984127 10.4085813,2.21755952 L10.4085813,3.33075397 C10.4085813,3.58055556 10.5750992,3.74707341 10.8249008,3.74707341 C11.0747024,3.74707341 11.2412202,3.58055556 11.2412202,3.33075397 L11.2412202,1.66537698 L11.2412202,1.24900794 C11.2412202,1.04082341 11.4077381,0.832688492 11.6575397,0.832688492 L13.3229167,0.832688492 C13.5311012,0.832688492 13.7392361,0.999206349 13.7392361,1.24900794 L13.7392361,1.66532738 L13.7392361,3.33070437 C13.7392361,3.58050595 13.905754,3.74702381 14.1555556,3.74702381 C14.4053571,3.74702381 14.571875,3.58050595 14.571875,3.33070437 L14.571875,2.21755952 C14.9121528,2.32321429 15.2382937,2.45238095 15.5483135,2.60342262 L14.988244,5.32921627 C14.988244,5.45411706 15.0298611,5.62063492 15.1131448,5.70391865 C15.1964286,5.78720238 15.2796627,5.82881944 15.4045635,5.82881944 L15.4878472,5.82881944 L18.3493056,5.22638889 C18.8659722,6.14781746 19.1516369,7.20525794 19.1516369,8.32683532 L19.1516369,8.74315476 L18.7353175,8.74315476 L6.24513889,8.74315476 L5.82881944,8.74315476 L5.82881944,8.32683532 L5.82876984,8.32683532 Z M6.66145833,9.57584325 L18.318998,9.57584325 L18.318998,11.2412202 C18.318998,13.0566468 17.6962302,14.6698909 16.7612103,15.896131 L16.7369048,15.9042163 C16.6952877,15.9458333 16.653621,15.9875 16.612004,16.0291171 C16.4025298,16.3084325 16.1814484,16.5630952 15.9504464,16.7927083 C14.9701389,17.706002 13.8008433,18.2591766 12.6741567,18.3139881 C12.6174603,18.2896329 12.553869,18.277381 12.4902282,18.277381 C12.4262401,18.277381 12.3685516,18.2899306 12.3168155,18.3145337 C11.6271329,18.2828869 10.9212798,18.0642857 10.2521825,17.6903274 C9.57435516,17.3008929 8.93670635,16.7394841 8.36840278,16.0291171 C8.32678571,15.9875 8.28511905,15.9458333 8.24350198,15.9042163 L8.21919643,15.896131 C7.28417659,14.6698413 6.66140873,13.0565972 6.66140873,11.2412202 L6.66140873,9.57584325 L6.66145833,9.57584325 Z M11.8554067,19.1125 L10.7329861,21.6379464 L10.1834821,20.8834325 L8.45173611,18.4856151 C8.43849206,18.472371 8.42380952,18.4592262 8.40863095,18.4462798 L7.95213294,17.8194444 L8.11865079,17.0700397 C8.17509921,17.1308036 8.23234127,17.1900298 8.29012897,17.2483135 C9.26750992,18.2478671 10.4865079,18.9455357 11.8554067,19.1125 L11.8554067,19.1125 Z M0.832688492,22.7738591 C0.832688492,22.2326389 1.12410714,21.7329861 1.62375992,21.4831845 C4.27757937,20.0733135 6.18799603,19.3657242 7.88978175,19.1543651 L10.3743056,22.5705357 L10.058879,24.1477183 L0.832688492,24.1477183 L0.832688492,22.7738591 L0.832688492,22.7738591 Z M24.1478175,24.1478175 L14.9216766,24.1478175 L14.60625,22.5706349 L17.1176587,19.1174603 C18.8134921,19.3733631 20.7580853,20.0804067 23.356746,21.4416171 C23.8563492,21.7330357 24.1478175,22.2326885 24.1478175,22.7739087 L24.1478175,24.1478175 L24.1478175,24.1478175 Z"></path>
                                        </g>
                                    </g>
                                </g>
                            </g>
                        </g>
                    </g>
                </g>
            </g>
        </g>
    </g>
</svg>