<?xml version="1.0" encoding="UTF-8" standalone="no"?>
<svg width="107px" height="107px" viewBox="0 0 107 107" version="1.1" xmlns="http://www.w3.org/2000/svg" xmlns:xlink="http://www.w3.org/1999/xlink">
    <!-- Generator: Sketch 39.1 (31720) - http://www.bohemiancoding.com/sketch -->
    <title>Group 4</title>
    <desc>Created with Sketch.</desc>
    <defs>
        <circle id="path-1" cx="52.5" cy="52.5" r="52.5"></circle>
    </defs>
    <g id="формы" stroke="none" stroke-width="1" fill="none" fill-rule="evenodd">
        <g id="polis812_green_step1" transform="translate(-628.000000, -695.000000)">
            <g id="benefits" transform="translate(97.000000, 695.000000)">
                <g id="benefit1-copy" transform="translate(399.000000, 1.000000)">
                    <g id="Group-4" transform="translate(133.000000, 0.000000)">
                        <mask id="mask-2" fill="white">
                            <use xlink:href="#path-1"></use>
                        </mask>
                        <use id="Oval-3" stroke="#E3E6E7" fill="#FFFFFF" xlink:href="#path-1"></use>
                        <g id="transport" mask="url(#mask-2)">
                            <g id="Capa_1">
                                <g id="Group">
                                    <circle id="Oval" fill="#324A5E" cx="52.1147426" cy="52.1147426" r="52.1139706"></circle>
                                    <g transform="translate(18.529412, 31.654412)">
                                        <path d="M1.91470588,35.6243382 L33.7922426,35.6243382 C34.6484559,35.6243382 35.3409926,34.6932353 35.3409926,33.5405515 L35.3409926,2.18801471 C35.3409926,1.03841912 34.6492279,0.104227941 33.7922426,0.104227941 L1.91470588,0.104227941 C1.05849265,0.104227941 0.365955882,1.03841912 0.365955882,2.18801471 L0.365955882,33.5397794 C0.365955882,34.6932353 1.05849265,35.6243382 1.91470588,35.6243382 L1.91470588,35.6243382 Z" id="Shape" fill="#FEC820"></path>
                                        <path d="M33.7922426,0.104227941 L31.9809926,0.104227941 C23.8782353,9.01069853 15.6303309,17.7851471 7.68430147,26.8336765 C5.34573529,29.4972794 3.02878676,32.1809559 0.744264706,34.8916544 C1.02838235,35.3371324 1.44375,35.6243382 1.91547794,35.6243382 L33.7930147,35.6243382 C34.6492279,35.6243382 35.3417647,34.6932353 35.3417647,33.5405515 L35.3417647,2.18801471 C35.3409926,1.03841912 34.6484559,0.104227941 33.7922426,0.104227941 L33.7922426,0.104227941 Z" id="Shape" fill="#FEB60E"></path>
                                        <path d="M36.9646324,6.09077206 L36.9646324,35.6243382 L49.9159191,35.6243382 L64.6344485,35.6243382 L68.7541544,35.6243382 L68.7541544,31.0128309 L68.7541544,23.0652574 C68.7541544,23.0652574 65.6165074,20.4163235 61.0034559,19.3369853 C61.0034559,19.3369853 55.8283456,8.99988971 53.9661397,7.42875 C53.9669118,7.42875 51.2917279,6.58102941 36.9646324,6.09077206 L36.9646324,6.09077206 Z" id="Shape" fill="#FEC820"></path>
                                        <path d="M65.8419485,35.6243382 C65.8859559,35.2861765 65.9114338,34.9426103 65.9114338,34.5944118 C65.9114338,30.1774632 62.3298529,26.5974265 57.9136765,26.5974265 C53.4967279,26.5974265 49.9174632,30.1782353 49.9174632,34.5944118 C49.9174632,34.9426103 49.9429412,35.2861765 49.9869485,35.6243382 L65.8419485,35.6243382 L65.8419485,35.6243382 Z" id="Shape" fill="#FF6F00"></path>
                                        <path d="M21.7859559,35.6243382 C21.8299632,35.2861765 21.8554412,34.9426103 21.8554412,34.5944118 C21.8554412,30.1774632 18.2723162,26.5974265 13.8561397,26.5974265 C9.44073529,26.5974265 5.86069853,30.1782353 5.86069853,34.5944118 C5.86069853,34.9426103 5.88463235,35.2861765 5.93018382,35.6243382 L21.7859559,35.6243382 L21.7859559,35.6243382 Z" id="Shape" fill="#FF6F00"></path>
                                        <circle id="Oval" fill="#35393F" cx="57.9129044" cy="34.8391544" r="6.03441176"></circle>
                                        <ellipse id="Oval" fill="#35393F" cx="13.8576838" cy="34.5944118" rx="5.88694853" ry="5.88694853"></ellipse>
                                        <path d="M52.9763603,10.0190074 L43.3719485,10.0190074 C42.9179779,10.0190074 42.1883824,10.4552206 42.1883824,10.9091912 L42.1883824,18.5147426 C42.1883824,18.9671691 42.9179779,19.6851838 43.3719485,19.6851838 L57.0713603,19.6851838 C56.9146324,19.3809926 54.1552941,12.9512868 52.9763603,10.0190074 L52.9763603,10.0190074 Z" id="Shape" fill="#FEFEFE"></path>
                                        <path d="M68.7549265,25.3243015 C68.0160662,25.3999632 67.4323897,26.0222426 67.4323897,26.7811765 L67.4323897,28.363125 C67.4323897,29.1236029 68.0160662,29.7451103 68.7549265,29.82 L68.7549265,25.3243015 L68.7549265,25.3243015 Z" id="Shape" fill="#FF6F00"></path>
                                        <rect id="Rectangle-path" fill="#FF6F00" x="0.365955882" y="10.0869485" width="34.9750368" height="2.69371324"></rect>
                                        <rect id="Rectangle-path" fill="#FF6F00" x="0.365955882" y="16.9243015" width="34.9750368" height="3.00099265"></rect>
                                    </g>
                                </g>
                            </g>
                        </g>
                    </g>
                </g>
            </g>
        </g>
    </g>
</svg>