<?xml version="1.0" encoding="UTF-8" standalone="no"?>
<svg width="25px" height="20px" viewBox="0 0 25 20" version="1.1" xmlns="http://www.w3.org/2000/svg" xmlns:xlink="http://www.w3.org/1999/xlink">
    <!-- Generator: Sketch 39.1 (31720) - http://www.bohemiancoding.com/sketch -->
    <title>reading</title>
    <desc>Created with Sketch.</desc>
    <defs></defs>
    <g id="формы" stroke="none" stroke-width="1" fill="none" fill-rule="evenodd" opacity="0.495102612">
        <g id="polis812_viza_step2" transform="translate(-350.000000, -1848.000000)" fill="#000000">
            <g id="visa" transform="translate(131.000000, 258.000000)">
                <g id="background-form" transform="translate(4.000000, 93.000000)">
                    <g id="отель" transform="translate(200.000000, 1452.000000)">
                        <g id="input" transform="translate(0.000000, 29.000000)">
                            <g id="hotel-bell" transform="translate(15.000000, 16.000000)">
                                <g id="reading">
                                    <g id="Capa_1">
                                        <g id="Group">
                                            <path d="M12.9032258,16.4866667 L12.9032258,4.73070866 C12.9032258,4.51322835 12.7227419,4.33700787 12.5,4.33700787 C12.2772581,4.33700787 12.0967742,4.51322835 12.0967742,4.73070866 L12.0967742,16.4866667 C12.0967742,16.704147 12.2772581,16.8803675 12.5,16.8803675 C12.7227419,16.8803675 12.9032258,16.704147 12.9032258,16.4866667 L12.9032258,16.4866667 Z" id="Shape"></path>
                                            <path d="M24.5967742,1.77333333 C23.7443011,1.77333333 22.682043,1.41417323 21.5573656,1.03396325 C20.1330645,0.552388451 18.5186022,0.00661417323 16.8443011,0.00661417323 C14.9069355,0.00661417323 13.725,0.835538058 13.0746774,1.53091864 C12.8314516,1.79107612 12.642957,2.05175853 12.5000538,2.28299213 C12.3571505,2.05175853 12.1686559,1.79107612 11.9254301,1.53091864 C11.2750538,0.835538058 10.093172,0.00661417323 8.15580645,0.00661417323 C6.48145161,0.00661417323 4.86704301,0.552388451 3.44274194,1.03396325 C2.31795699,1.41417323 1.25569892,1.77333333 0.403225806,1.77333333 C0.180483871,1.77333333 0,1.94955381 0,2.16703412 L0,18.0248819 C0,18.2423622 0.180483871,18.4185827 0.403225806,18.4185827 C1.39139785,18.4185827 2.51596774,18.0383727 3.70650538,17.635853 C5.07075269,17.1746457 6.61704301,16.6518635 8.15569892,16.6518635 C9.47505376,16.6518635 10.542957,17.0784252 11.3297849,17.919685 C11.4798925,18.08021 11.735,18.0914961 11.8994624,17.9448819 C12.0639247,17.7982677 12.0754301,17.5492388 11.9252688,17.3886614 C11.2748925,16.6933333 10.0930108,15.8644094 8.15569892,15.8644094 C6.48134409,15.8644094 4.86693548,16.4101837 3.44263441,16.8917585 C2.48913978,17.2142257 1.58043011,17.5213648 0.806451613,17.6074541 L0.806451613,2.54120735 C1.69306452,2.45874016 2.675,2.12671916 3.70650538,1.77800525 C5.07075269,1.3167979 6.61704301,0.794015748 8.15569892,0.794015748 C11.2675806,0.794015748 12.0817742,3.20671916 12.1145161,3.30813648 C12.1665591,3.47338583 12.3229032,3.58624672 12.5,3.58624672 C12.6770968,3.58624672 12.8334409,3.47343832 12.8854839,3.30813648 C12.8933333,3.28299213 13.7125269,0.794015748 16.8443011,0.794015748 C18.382957,0.794015748 19.9292473,1.3167979 21.2934946,1.77800525 C22.3250538,2.12677165 23.3069355,2.45874016 24.1935484,2.54120735 L24.1935484,17.6074541 C23.4195699,17.5213648 22.5108602,17.2142257 21.5573656,16.891811 C20.1330645,16.4102362 18.5186022,15.8644619 16.8443011,15.8644619 C14.9068817,15.8644619 13.7249462,16.6933858 13.0746774,17.3887664 C12.9245161,17.5493963 12.9360753,17.7983727 13.1004839,17.9449869 C13.265,18.091601 13.5200538,18.080315 13.6701613,17.91979 C14.4569892,17.0784777 15.5248925,16.651916 16.8443011,16.651916 C18.382957,16.651916 19.9292473,17.1746982 21.2934946,17.6359055 C22.484086,18.0384252 23.6086559,18.4186352 24.5967742,18.4186352 C24.8195161,18.4186352 25,18.2424147 25,18.0249344 L25,2.16703412 C25,1.9496063 24.8195161,1.77333333 24.5967742,1.77333333 L24.5967742,1.77333333 Z" id="Shape"></path>
                                            <path d="M24.5967742,19.2059843 C23.7443011,19.2059843 22.682043,18.8468241 21.5573656,18.4666142 C20.1330645,17.9850394 18.5186022,17.4392651 16.8443011,17.4392651 C15.0247849,17.4392651 13.8716667,18.1703937 13.1993548,18.8353806 L11.8005914,18.8353281 C11.1282796,18.1703412 9.97510753,17.4392651 8.15569892,17.4392651 C6.48134409,17.4392651 4.86693548,17.9850394 3.44263441,18.4666142 C2.31795699,18.8468241 1.25569892,19.2059843 0.403225806,19.2059843 C0.180483871,19.2059843 0,19.3822047 0,19.599685 C0,19.8171654 0.180483871,19.9933858 0.403225806,19.9933858 C1.39139785,19.9933858 2.51596774,19.6131759 3.70650538,19.2106562 C5.07075269,18.7494488 6.61704301,18.2266667 8.15569892,18.2266667 C9.47505376,18.2266667 10.542957,18.6532283 11.3297849,19.4944882 C11.4061828,19.576168 11.5142473,19.6226772 11.6275269,19.6226772 L13.3723656,19.6227297 C13.4856452,19.6227297 13.5937097,19.576168 13.6701075,19.4945407 C14.4569355,18.6532283 15.5248387,18.2266667 16.8442473,18.2266667 C18.3829032,18.2266667 19.9291935,18.7494488 21.2934409,19.2106562 C22.4840323,19.6131759 23.6086022,19.9933858 24.5967204,19.9933858 C24.8194624,19.9933858 24.9999462,19.8171654 24.9999462,19.599685 C24.9999462,19.3822047 24.8195161,19.2059843 24.5967742,19.2059843 L24.5967742,19.2059843 Z" id="Shape"></path>
                                        </g>
                                    </g>
                                </g>
                            </g>
                        </g>
                    </g>
                </g>
            </g>
        </g>
    </g>
</svg>