<?xml version="1.0" encoding="UTF-8" standalone="no"?>
<svg width="107px" height="107px" viewBox="0 0 107 107" version="1.1" xmlns="http://www.w3.org/2000/svg" xmlns:xlink="http://www.w3.org/1999/xlink">
    <!-- Generator: Sketch 39.1 (31720) - http://www.bohemiancoding.com/sketch -->
    <title>Group 4</title>
    <desc>Created with Sketch.</desc>
    <defs>
        <circle id="path-1" cx="52.5" cy="52.5" r="52.5"></circle>
    </defs>
    <g id="формы" stroke="none" stroke-width="1" fill="none" fill-rule="evenodd">
        <g id="polis812_viza_step1" transform="translate(-1066.000000, -1309.000000)">
            <g id="benefits" transform="translate(136.000000, 1310.000000)">
                <g id="benefit1-copy-2" transform="translate(798.000000, 0.000000)">
                    <g id="Group-4" transform="translate(133.000000, 0.000000)">
                        <mask id="mask-2" fill="white">
                            <use xlink:href="#path-1"></use>
                        </mask>
                        <use id="Oval-3" stroke="#E3E6E7" fill="#FFFFFF" xlink:href="#path-1"></use>
                        <g id="badge" mask="url(#mask-2)" fill="#AA185B">
                            <g id="Layer_1">
                                <path d="M52.5002051,0 C81.4949707,0 105,23.5050293 105,52.5002051 C105,81.4949707 81.4949707,105 52.5002051,105 C23.5054395,105 0,81.4949707 0,52.5002051 C0,23.5050293 23.5050293,0 52.5002051,0 L52.5002051,0 Z" id="Shape"></path>
                            </g>
                        </g>
                        <g id="telephone" mask="url(#mask-2)">
                            <g transform="translate(17.000000, 15.000000)" id="Layer_1">
                                <g>
                                    <path d="M66.0269051,57.8299672 C66.0363718,59.1147762 65.2806769,60.2718557 64.1226487,60.8124614 C56.8365923,64.214429 46.7076231,66.3262731 35.4998179,66.3262731 C24.2920128,66.3262731 14.1630436,64.2146123 6.87680513,60.8124614 C5.71895897,60.2716725 4.9632641,59.114593 4.97254872,57.8299672 C5.20120513,26.9500193 10.8129359,0 35.5,0 C60.1870641,0 65.7987949,26.9500193 66.0269051,57.8299672 L66.0269051,57.8299672 Z" id="Shape" fill="#5A4146"></path>
                                    <path d="M46.7494949,62.8282793 L46.7494949,55.0021412 L24.2505051,55.0021412 L24.2505051,62.8282793 C24.2505051,64.9172164 22.9226231,66.7717689 20.9537385,67.4322242 L5.63849231,72.5710938 C2.35738205,73.6720968 0.144366667,76.7630787 0.144366667,80.2445795 L0.144366667,90.5917728 C0.144366667,92.3787037 1.5833,93.8271605 3.35848205,93.8271605 L67.6413359,93.8271605 C69.4165179,93.8271605 70.8554513,92.3787037 70.8554513,90.5917728 L70.8554513,80.2445795 C70.8554513,76.7630787 68.6422538,73.6720968 65.3611436,72.5710938 L50.0458974,67.4322242 C48.0773769,66.7715856 46.7494949,64.9170332 46.7494949,62.8282793 L46.7494949,62.8282793 Z" id="Shape" fill="#E6AF78"></path>
                                    <path d="M24.2505051,62.8282793 C24.2505051,64.7863715 23.0757282,66.5251061 21.3083744,67.2810378 C39.3168872,70.3703704 46.7445795,57.4288194 46.7445795,57.4288194 L46.7496769,57.4253376 L46.7496769,55.0021412 L24.2505051,55.0021412 L24.2505051,62.8282793 L24.2505051,62.8282793 Z" id="Shape" fill="#D29B6E"></path>
                                    <path d="M65.3611436,72.5710937 L52.8469385,68.3721451 C46.8907667,76.5059703 39.9387744,81.0510899 35.5,82.5032118 C31.0612256,81.0510899 24.1092333,76.5059703 18.1530615,68.3721451 L5.63885641,72.5710937 C2.3575641,73.6720968 0.144548718,76.7630787 0.144548718,80.2445795 L0.144548718,90.5917728 C0.144548718,92.3785204 1.5836641,93.8271605 3.3586641,93.8271605 L67.6415179,93.8271605 C69.4165179,93.8271605 70.8556333,92.3785204 70.8556333,90.5917728 L70.8556333,80.2445795 C70.8556333,76.7628954 68.6424359,73.6720968 65.3611436,72.5710937 L65.3611436,72.5710937 Z" id="Shape" fill="#E4EAF6"></path>
                                    <g id="Group" transform="translate(0.000000, 68.354552)" fill="#D7DEED">
                                        <path d="M11.1180538,15.4886285 L2.20300256,6.51457369 C0.917720513,7.9637635 0.144366667,9.8533179 0.144366667,11.8898438 L0.144366667,22.237037 C0.144366667,24.023968 1.5833,25.4724248 3.35848205,25.4724248 L13.0010103,25.4724248 L13.0010103,20.0641686 C13.0010103,18.3481578 12.3237795,16.7023341 11.1180538,15.4886285 L11.1180538,15.4886285 Z" id="Shape"></path>
                                        <path d="M59.8819462,15.4886285 L68.7969974,6.51457369 C70.0822795,7.9637635 70.8556333,9.8533179 70.8556333,11.8898438 L70.8556333,22.237037 C70.8556333,24.023968 69.4167,25.4724248 67.6415179,25.4724248 L57.9989897,25.4724248 L57.9989897,20.0641686 C57.9989897,18.3481578 58.6762205,16.7023341 59.8819462,15.4886285 L59.8819462,15.4886285 Z" id="Shape"></path>
                                        <path d="M15.5662949,1.93683449 C22.0212872,10.7529225 29.5826051,15.615625 34.5067282,17.2260802 L35.5,17.5504437 L36.4934538,17.225897 C41.4175769,15.6152585 48.9788949,10.7525559 55.4338872,1.93665123 L56.0102615,1.07864583 L52.8469385,0.0172260802 C46.8909487,8.15123457 39.9389564,12.6963542 35.5001821,14.1484761 C31.0614077,12.6963542 24.1094154,8.15123457 18.1532436,0.0174093364 L14.9899205,1.07882909 L15.5662949,1.93683449 L15.5662949,1.93683449 Z" id="Shape"></path>
                                    </g>
                                    <path d="M14.8772308,33.9883391 L13.0110231,33.9822917 C11.2320179,33.9766107 9.78671282,35.4269001 9.78671282,37.2176794 L9.78671282,43.6131366 C9.78671282,45.4251736 11.2649692,46.8838927 13.0649103,46.8479745 L15.8348205,46.7924479 L14.8772308,33.9883391 L14.8772308,33.9883391 Z" id="Shape" fill="#707487"></path>
                                    <path d="M13.0112051,33.9822917 C13.0075641,33.9822917 13.0046513,33.9833912 13.0010103,33.9833912 L13.0010103,46.8428434 C13.0226744,46.8428434 13.0432462,46.8485243 13.0650923,46.8481578 L15.8350026,46.7926312 L14.8774128,33.9887056 L13.0112051,33.9822917 L13.0112051,33.9822917 Z" id="Shape" fill="#65687A"></path>
                                    <path d="M56.1227692,33.9883391 L57.9889769,33.9822917 C59.7679821,33.9766107 61.2132872,35.4269001 61.2132872,37.2176794 L61.2132872,43.6131366 C61.2132872,45.4251736 59.7350308,46.8838927 57.9350897,46.8479745 L55.1651795,46.7924479 L56.1227692,33.9883391 L56.1227692,33.9883391 Z" id="Shape" fill="#707487"></path>
                                    <path d="M57.9887949,33.9822917 C57.9924359,33.9822917 57.9953487,33.9833912 57.9989897,33.9833912 L57.9989897,46.8428434 C57.9773256,46.8428434 57.9567538,46.8485243 57.9349077,46.8481578 L55.1649974,46.7926312 L56.1225872,33.9887056 L57.9887949,33.9822917 L57.9887949,33.9822917 Z" id="Shape" fill="#65687A"></path>
                                    <path d="M14.6079769,19.4125096 L14.6079769,26.3874228 C14.6079769,29.2858025 14.7184821,32.1828993 14.9393103,35.0724826 L15.8654051,47.1910301 C16.0867795,50.0877604 17.5854256,52.7323302 19.9497256,54.3983121 L29.6545154,61.2365162 C31.3670718,62.4432581 33.4069564,63.0907022 35.4974513,63.0907022 L35.5021846,63.0907022 C37.5924974,63.0907022 39.6325641,62.4434414 41.3451205,61.2365162 L51.0499103,54.3983121 C53.4143923,52.7323302 54.9130385,50.0877604 55.1342308,47.1910301 L56.0603256,35.0724826 C56.2811538,32.1828993 56.391659,29.2856192 56.391659,26.3874228 L56.391659,19.4125096 L14.6079769,19.4125096 L14.6079769,19.4125096 Z" id="Shape" fill="#F0C087"></path>
                                    <path d="M56.2715051,19.4125096 L14.6079769,19.4125096 L14.6079769,26.3877894 C14.6079769,27.2866609 14.6381974,28.1847994 14.6593154,29.0833044 L14.6593154,29.0833044 L14.6593154,29.0838542 C14.6848026,30.1641493 14.7255821,31.2435282 14.7818359,32.3225405 L14.7818359,32.3230903 L14.7818359,32.3232735 C14.8297154,33.2399209 14.8694026,34.1569348 14.9393103,35.0722994 L15.8654051,47.1908468 C16.0867795,50.0875772 17.5854256,52.732147 19.9499077,54.3981289 L29.6546974,61.2363329 C31.3672538,62.4428916 33.4071385,63.0901524 35.4976333,63.0901524 C32.9186949,63.0901524 30.0843385,58.6216339 28.3060615,55.2328607 C27.1345615,53.0006173 26.5093974,50.5261092 26.4626103,48.0019387 L26.1911718,33.3546393 C26.1696897,32.189863 27.0080359,31.1989969 28.1482231,30.9997975 C36.7665308,29.4941647 43.6078359,27.0339506 47.5186615,25.2957658 C50.6189949,30.4544271 54.7024051,31.9974441 55.2318103,32.1796007 L55.7373667,32.3535108 L56.2163436,32.3535108 C56.2727795,31.275598 56.3139231,30.1973187 56.3399564,29.1181231 L56.2715051,19.4125096 L56.2715051,19.4125096 Z" id="Shape" fill="#E6AF78"></path>
                                    <path d="M13.0010103,17.7947242 L13.0010103,29.1186728 C32.0408436,29.1186728 46.5344923,22.4463156 48.9619641,20.9720197 C51.570759,27.5008873 56.2715051,29.1186728 56.2715051,29.1186728 L57.9991718,29.1186728 L57.9991718,17.7947242 L13.0010103,17.7947242 L13.0010103,17.7947242 Z" id="Shape" fill="#5A4146"></path>
                                    <path d="M57.9349077,46.8477913 L55.1773769,46.7926312 C53.9503513,49.036603 50.2749179,52.7108893 39.3165231,52.7108893 L39.3165231,55.946277 C53.9605462,55.946277 57.7182667,49.6646219 58.6729436,46.7700907 C58.4348205,46.8212191 58.1894154,46.8529225 57.9349077,46.8477913 L57.9349077,46.8477913 Z" id="Shape" fill="#464655"></path>
                                    <path d="M37.910541,56.6199267 L36.3033923,56.6199267 C34.9720513,56.6199267 33.8928513,55.5334008 33.8928513,54.1934317 L33.8928513,54.1934317 C33.8928513,52.8532793 34.9722333,51.7669367 36.3033923,51.7669367 L37.910541,51.7669367 C39.2418821,51.7669367 40.3210821,52.8534626 40.3210821,54.1934317 L40.3210821,54.1934317 C40.3212641,55.5334008 39.2418821,56.6199267 37.910541,56.6199267 L37.910541,56.6199267 Z" id="Shape" fill="#5B5D6E"></path>
                                </g>
                            </g>
                        </g>
                    </g>
                </g>
            </g>
        </g>
    </g>
</svg>