<?xml version="1.0" encoding="UTF-8" standalone="no"?>
<svg width="20px" height="21px" viewBox="0 0 20 21" version="1.1" xmlns="http://www.w3.org/2000/svg" xmlns:xlink="http://www.w3.org/1999/xlink">
    <!-- Generator: Sketch 39.1 (31720) - http://www.bohemiancoding.com/sketch -->
    <title>commerce</title>
    <desc>Created with Sketch.</desc>
    <defs></defs>
    <g id="статика" stroke="none" stroke-width="1" fill="none" fill-rule="evenodd">
        <g id="polis812_contacts" transform="translate(-310.000000, -943.000000)" fill="#79C930">
            <g id="viza_price_v2" transform="translate(-5.000000, 208.000000)">
                <g id="contacts">
                    <g id="zavod" transform="translate(140.000000, 592.000000)">
                        <g id="icons" transform="translate(0.000000, 142.000000)">
                            <g id="commerce" transform="translate(175.000000, 1.000000)">
                                <g id="Capa_1">
                                    <g id="Group">
                                        <path d="M19.2153488,9.7482 L10.0427907,0.544133333 C9.68139535,0.181533333 9.20790698,0 8.7344186,0 C8.26093023,0 7.78697674,0.181533333 7.42604651,0.544133333 L2.4027907,5.5832 C1.68,6.3084 1.68,7.5068 2.4027907,8.232 L3.23534884,9.0902 L5.15581395,9.0902 L3.36325581,7.26833333 C3.23767442,7.14186667 3.21906977,6.98366667 3.21906977,6.90713333 C3.21906977,6.8306 3.23767442,6.678 3.36325581,6.552 L4.02651163,5.90706667 L7.17860465,9.0902 L10.2023256,9.0902 L5.53813953,4.38713333 L8.38604651,1.51853333 C8.51162791,1.39253333 8.65813953,1.36873333 8.7344186,1.36873333 C8.81069767,1.36873333 8.9572093,1.3846 9.0827907,1.51013333 L18.255814,10.7128 C18.3818605,10.8392667 18.4009302,10.9848667 18.4009302,11.0618667 C18.4009302,11.1384 18.3683721,11.2849333 18.2423256,11.4114 L17.7223256,11.9205333 L17.7223256,13.8474 L19.2032558,12.3750667 C19.9255814,11.6484667 19.9386047,10.4734 19.2153488,9.7482 L19.2153488,9.7482 Z" id="Shape"></path>
                                        <path d="M14.9116279,9.95306667 L1.93813953,9.95306667 C0.91627907,9.95306667 0.0423255814,10.7790667 0.0423255814,11.8043333 L0.0423255814,16.7276667 L16.7390698,16.7276667 L16.7390698,11.8043333 C16.7390698,10.7790667 15.9334884,9.95306667 14.9116279,9.95306667 L14.9116279,9.95306667 Z M4.57627907,15.0514 C4.21395349,15.0514 3.88604651,14.9067333 3.64418605,14.6734 C3.40232558,14.9067333 3.07395349,15.0514 2.71255814,15.0514 C1.96930233,15.0514 1.36604651,14.4470667 1.36604651,13.6999333 C1.36604651,12.9537333 1.96883721,12.3489333 2.71255814,12.3489333 C3.0744186,12.3489333 3.4027907,12.4931333 3.64418605,12.7264667 C3.88604651,12.4931333 4.21395349,12.3489333 4.57627907,12.3489333 C5.32,12.3489333 5.9227907,12.9537333 5.9227907,13.6999333 C5.9227907,14.4470667 5.32,15.0514 4.57627907,15.0514 L4.57627907,15.0514 Z" id="Shape"></path>
                                        <path d="M0.0423255814,18.9308 C0.0423255814,19.9560667 0.915813953,20.7928 1.93813953,20.7928 L14.9116279,20.7928 C15.9334884,20.7928 16.7395349,19.9560667 16.7395349,18.9308 L16.7395349,18.8216 L0.0423255814,18.8216 L0.0423255814,18.9308 L0.0423255814,18.9308 Z" id="Shape"></path>
                                    </g>
                                </g>
                            </g>
                        </g>
                    </g>
                </g>
            </g>
        </g>
    </g>
</svg>