<?xml version="1.0" encoding="UTF-8" standalone="no"?>
<svg width="40px" height="40px" viewBox="0 0 40 40" version="1.1" xmlns="http://www.w3.org/2000/svg" xmlns:xlink="http://www.w3.org/1999/xlink">
    <!-- Generator: Sketch 39.1 (31720) - http://www.bohemiancoding.com/sketch -->
    <title>cancel</title>
    <desc>Created with Sketch.</desc>
    <defs></defs>
    <g id="формы" stroke="none" stroke-width="1" fill="none" fill-rule="evenodd">
        <g id="polis812_mainpage-copy" transform="translate(-940.000000, -365.000000)" fill="#FF757C">
            <g id="cancel" transform="translate(940.000000, 365.000000)">
                <g id="Capa_1">
                    <g id="Group">
                        <path d="M19.9755601,39.9511202 C30.9898167,39.9511202 39.9511202,30.9898167 39.9511202,19.9755601 C39.9511202,8.96130346 30.9898167,0 19.9755601,0 C8.96130346,0 0,8.96130346 0,19.9755601 C0,30.9898167 8.96130346,39.9511202 19.9755601,39.9511202 L19.9755601,39.9511202 Z M19.9755601,1.99592668 C29.8900204,1.99592668 37.9551935,10.0610998 37.9551935,19.9755601 C37.9551935,29.8900204 29.8900204,37.9551935 19.9755601,37.9551935 C10.0610998,37.9551935 1.99592668,29.8900204 1.99592668,19.9755601 C1.99592668,10.0610998 10.0610998,1.99592668 19.9755601,1.99592668 L19.9755601,1.99592668 Z" id="Shape" opacity="0.684468284"></path>
                        <path d="M13.552024,26.3973479 C13.7895015,26.6348254 14.0962433,26.7535642 14.41288,26.7535642 C14.7295167,26.7535642 15.0362585,26.6348254 15.273736,26.3973479 L19.9837067,21.6873772 L24.6936774,26.3973479 C24.9311549,26.6348254 25.2378967,26.7535642 25.5545334,26.7535642 C25.8711701,26.7535642 26.1779119,26.6348254 26.4153894,26.3973479 C26.8903444,25.9223929 26.8903444,25.1604858 26.4153894,24.6855308 L21.6856289,19.9755601 L26.3955996,15.2655894 C26.8705547,14.7906343 26.8705547,14.0287273 26.3955996,13.5537723 C25.9206446,13.0788173 25.1587376,13.0788173 24.6837825,13.5537723 L19.9738118,18.263743 L15.2638411,13.5537723 C14.7888861,13.0788173 14.0269791,13.0788173 13.552024,13.5537723 C13.077069,14.0287273 13.077069,14.7906343 13.552024,15.2655894 L18.2619947,19.9755601 L13.552024,24.6855308 C13.077069,25.1604858 13.077069,25.9223929 13.552024,26.3973479 L13.552024,26.3973479 Z" id="Shape"></path>
                    </g>
                </g>
            </g>
        </g>
    </g>
</svg>