<?xml version="1.0" encoding="UTF-8" standalone="no"?>
<svg width="14px" height="22px" viewBox="0 0 14 22" version="1.1" xmlns="http://www.w3.org/2000/svg" xmlns:xlink="http://www.w3.org/1999/xlink">
    <!-- Generator: Sketch 39.1 (31720) - http://www.bohemiancoding.com/sketch -->
    <title>Capa_1 Copy</title>
    <desc>Created with Sketch.</desc>
    <defs></defs>
    <g id="формы" stroke="none" stroke-width="1" fill="none" fill-rule="evenodd">
        <g id="polis812_mainpage" transform="translate(-200.000000, -503.000000)" fill="#BEC2C3">
            <g id="slider" transform="translate(0.000000, 208.000000)">
                <g id="navi" transform="translate(135.000000, 282.000000)">
                    <g id="angle-arrow-down" transform="translate(48.000000, 24.000000) rotate(90.000000) translate(-48.000000, -24.000000) translate(37.000000, -7.000000)">
                        <g id="Capa_1-Copy" transform="translate(11.000000, 7.000000) rotate(180.000000) translate(-11.000000, -7.000000) translate(0.000000, 0.000000)">
                            <path d="M21.7747509,1.46798802 L20.6728982,0.271449102 C20.5260772,0.111664671 20.3569474,0.0320239521 20.1657404,0.0320239521 C19.9749965,0.0320239521 19.8059439,0.111664671 19.6591228,0.271449102 L10.9973754,9.67768862 L2.33601404,0.271700599 C2.18911579,0.111916168 2.02006316,0.0322754491 1.82908772,0.0322754491 C1.63803509,0.0322754491 1.46898246,0.111916168 1.3221614,0.271700599 L0.220463158,1.46832335 C0.0733333333,1.62777246 -3.55271368e-15,1.81136527 -3.55271368e-15,2.0188503 C-3.55271368e-15,2.22616766 0.0735649123,2.40976048 0.220463158,2.56920958 L10.4904491,13.7227665 C10.6372702,13.8822994 10.8064,13.962024 10.9973754,13.962024 C11.1883509,13.962024 11.3571719,13.8822994 11.5039158,13.7227665 L21.7747509,2.56920958 C21.9215719,2.40967665 21.9945193,2.22608383 21.9945193,2.0188503 C21.9945193,1.81136527 21.9215719,1.62777246 21.7747509,1.46798802 L21.7747509,1.46798802 Z" id="Shape"></path>
                        </g>
                    </g>
                </g>
            </g>
        </g>
    </g>
</svg>