<?xml version="1.0" encoding="UTF-8" standalone="no"?>
<svg width="45px" height="40px" viewBox="0 0 45 40" version="1.1" xmlns="http://www.w3.org/2000/svg" xmlns:xlink="http://www.w3.org/1999/xlink">
    <!-- Generator: Sketch 39.1 (31720) - http://www.bohemiancoding.com/sketch -->
    <title>Group</title>
    <desc>Created with Sketch.</desc>
    <defs></defs>
    <g id="Page-1" stroke="none" stroke-width="1" fill="none" fill-rule="evenodd" opacity="0.85">
        <g id="Artboard" transform="translate(-1137.000000, -355.000000)" fill="#FFFFFF">
            <g id="1st---copy" transform="translate(-210.000000, 0.000000)">
                <g id="benefits" transform="translate(210.000000, 336.000000)">
                    <g id="animals-copy-3" transform="translate(1051.000000, 19.000000)">
                        <g id="coins" transform="translate(86.000000, 0.000000)">
                            <g id="Capa_1">
                                <g id="Group">
                                    <path d="M34.8305613,10.7637232 C40.6309771,10.7637232 45,8.46300716 45,5.40811456 C45,2.35322196 40.6309771,0.0525059666 34.8305613,0.0525059666 C29.0301455,0.0525059666 24.6611227,2.35322196 24.6611227,5.40811456 C24.6611227,8.46300716 29.0301455,10.7637232 34.8305613,10.7637232 L34.8305613,10.7637232 Z M34.8305613,2.35322196 C39.6673597,2.35322196 42.7546778,4.16706444 42.7546778,5.4176611 C42.7546778,6.66825776 39.6673597,8.48210024 34.8305613,8.48210024 C29.993763,8.48210024 26.9064449,6.66825776 26.9064449,5.4176611 C26.9064449,4.16706444 29.993763,2.35322196 34.8305613,2.35322196 L34.8305613,2.35322196 Z" id="Shape"></path>
                                    <path d="M44.1486486,10.8687351 C43.5686071,10.6491647 42.9230769,10.9546539 42.7079002,11.5465394 C42.2307692,12.8735084 39.0873181,14.3054893 34.8399168,14.3054893 C30.7047817,14.3054893 27.6081081,12.9498807 27.0093555,11.6420048 C26.7474012,11.0692124 26.0738046,10.8210024 25.512474,11.0883055 C24.9511435,11.3556086 24.7079002,12.0429594 24.9698545,12.6157518 C26.0644491,15.0023866 30.031185,16.5966587 34.8399168,16.5966587 C37.1320166,16.5966587 39.3586279,16.2147971 41.1268191,15.5083532 C43.0727651,14.7350835 44.3544699,13.6372315 44.8222453,12.3293556 C45.0280665,11.7470167 44.7286902,11.0883055 44.1486486,10.8687351 L44.1486486,10.8687351 Z" id="Shape"></path>
                                    <path d="M44.1486486,16.7112172 C43.5686071,16.4916468 42.9230769,16.797136 42.7079002,17.3890215 C42.2307692,18.7159905 39.0873181,20.1479714 34.8399168,20.1479714 C30.7047817,20.1479714 27.6081081,18.7923628 27.0093555,17.4844869 C26.7474012,16.9116945 26.0738046,16.6634845 25.512474,16.9307876 C24.9511435,17.1980907 24.7079002,17.8854415 24.9698545,18.4582339 C26.0644491,20.8448687 30.031185,22.4391408 34.8399168,22.4391408 C37.1320166,22.4391408 39.3586279,22.0572792 41.1268191,21.3508353 C43.0727651,20.5775656 44.3544699,19.4797136 44.8222453,18.1718377 C45.0280665,17.5894988 44.7286902,16.9307876 44.1486486,16.7112172 L44.1486486,16.7112172 Z" id="Shape"></path>
                                    <path d="M44.1486486,22.5441527 C43.5686071,22.3245823 42.9230769,22.6300716 42.7079002,23.221957 C42.2307692,24.548926 39.0873181,25.9809069 34.8399168,25.9809069 C30.7047817,25.9809069 27.6081081,24.6252983 27.0093555,23.3174224 C26.7474012,22.7446301 26.0738046,22.49642 25.512474,22.7637232 C24.9511435,23.0310263 24.7079002,23.7183771 24.9698545,24.2911695 C26.0644491,26.6778043 30.031185,28.2720764 34.8399168,28.2720764 C37.1320166,28.2720764 39.3586279,27.8902148 41.1268191,27.1837709 C43.0727651,26.4105012 44.3544699,25.3126492 44.8222453,24.0047733 C45.0280665,23.4224344 44.7286902,22.7637232 44.1486486,22.5441527 L44.1486486,22.5441527 Z" id="Shape"></path>
                                    <path d="M44.1486486,28.3866348 C43.5686071,28.1670644 42.9230769,28.4725537 42.7079002,29.0644391 C42.2307692,30.3914081 39.0873181,31.823389 34.8399168,31.823389 C30.7047817,31.823389 27.6081081,30.4677804 27.0093555,29.1599045 C26.7474012,28.5871122 26.0738046,28.3389021 25.512474,28.6062053 C24.9511435,28.8735084 24.7079002,29.5608592 24.9698545,30.1336516 C26.0644491,32.5202864 30.031185,34.1145585 34.8399168,34.1145585 C37.1320166,34.1145585 39.3586279,33.7326969 41.1268191,33.026253 C43.0727651,32.2529833 44.3544699,31.1551313 44.8222453,29.8472554 C45.0280665,29.2553699 44.7286902,28.5966587 44.1486486,28.3866348 L44.1486486,28.3866348 Z" id="Shape"></path>
                                    <path d="M44.1486486,34.2195704 C43.5686071,34 42.9230769,34.3054893 42.7079002,34.8973747 C42.2307692,36.2243437 39.0873181,37.6563246 34.8399168,37.6563246 C30.7047817,37.6563246 27.6081081,36.300716 27.0093555,34.9928401 C26.7474012,34.4200477 26.0738046,34.1718377 25.512474,34.4391408 C24.9511435,34.7064439 24.7079002,35.3937947 24.9698545,35.9665871 C26.0644491,38.353222 30.031185,39.947494 34.8399168,39.947494 C37.1320166,39.947494 39.3586279,39.5656325 41.1268191,38.8591885 C43.0727651,38.0859189 44.3544699,36.9880668 44.8222453,35.6801909 C45.0280665,35.097852 44.7286902,34.4391408 44.1486486,34.2195704 L44.1486486,34.2195704 Z" id="Shape"></path>
                                    <path d="M19.4781705,22.5441527 C18.8981289,22.3245823 18.2525988,22.6300716 18.037422,23.221957 C17.5602911,24.548926 14.4168399,25.9809069 10.1694387,25.9809069 C6.03430353,25.9809069 2.93762994,24.6252983 2.33887734,23.3174224 C2.07692308,22.7446301 1.4033264,22.49642 0.841995842,22.7637232 C0.280665281,23.0310263 0.0374220374,23.7183771 0.299376299,24.2911695 C1.39397089,26.6778043 5.36070686,28.2720764 10.1694387,28.2720764 C12.4615385,28.2720764 14.6881497,27.8902148 16.456341,27.1837709 C18.4022869,26.4105012 19.6839917,25.3126492 20.1517672,24.0047733 C20.3575884,23.4224344 20.0582121,22.7637232 19.4781705,22.5441527 L19.4781705,22.5441527 Z" id="Shape"></path>
                                    <path d="M19.4781705,28.3866348 C18.8981289,28.1670644 18.2525988,28.4725537 18.037422,29.0644391 C17.5602911,30.3914081 14.4168399,31.823389 10.1694387,31.823389 C6.03430353,31.823389 2.93762994,30.4677804 2.33887734,29.1599045 C2.07692308,28.5871122 1.4033264,28.3389021 0.841995842,28.6062053 C0.280665281,28.8735084 0.0374220374,29.5608592 0.299376299,30.1336516 C1.39397089,32.5202864 5.36070686,34.1145585 10.1694387,34.1145585 C12.4615385,34.1145585 14.6881497,33.7326969 16.456341,33.026253 C18.4022869,32.2529833 19.6839917,31.1551313 20.1517672,29.8472554 C20.3575884,29.2553699 20.0582121,28.5966587 19.4781705,28.3866348 L19.4781705,28.3866348 Z" id="Shape"></path>
                                    <path d="M19.4781705,34.2195704 C18.8981289,34 18.2525988,34.3054893 18.037422,34.8973747 C17.5602911,36.2243437 14.4168399,37.6563246 10.1694387,37.6563246 C6.03430353,37.6563246 2.93762994,36.300716 2.33887734,34.9928401 C2.07692308,34.4200477 1.4033264,34.1718377 0.841995842,34.4391408 C0.280665281,34.7064439 0.0374220374,35.3937947 0.299376299,35.9665871 C1.39397089,38.353222 5.36070686,39.947494 10.1694387,39.947494 C12.4615385,39.947494 14.6881497,39.5656325 16.456341,38.8591885 C18.4022869,38.0859189 19.6839917,36.9880668 20.1517672,35.6801909 C20.3575884,35.097852 20.0582121,34.4391408 19.4781705,34.2195704 L19.4781705,34.2195704 Z" id="Shape"></path>
                                    <path d="M10.1694387,11.7279236 C4.36902287,11.7279236 0,14.0286396 0,17.0835322 C0,20.1384248 4.36902287,22.4391408 10.1694387,22.4391408 C15.9698545,22.4391408 20.3388773,20.1384248 20.3388773,17.0835322 C20.3388773,14.0286396 15.9698545,11.7279236 10.1694387,11.7279236 L10.1694387,11.7279236 Z M10.1694387,20.1479714 C5.33264033,20.1479714 2.24532225,18.3341289 2.24532225,17.0835322 C2.24532225,15.8329356 5.33264033,14.0190931 10.1694387,14.0190931 C15.006237,14.0190931 18.0935551,15.8329356 18.0935551,17.0835322 C18.0935551,18.3341289 15.006237,20.1479714 10.1694387,20.1479714 L10.1694387,20.1479714 Z" id="Shape"></path>
                                </g>
                            </g>
                        </g>
                    </g>
                </g>
            </g>
        </g>
    </g>
</svg>