<?xml version="1.0" encoding="UTF-8" standalone="no"?>
<svg width="73px" height="40px" viewBox="0 0 73 40" version="1.1" xmlns="http://www.w3.org/2000/svg" xmlns:xlink="http://www.w3.org/1999/xlink">
    <!-- Generator: Sketch 39.1 (31720) - http://www.bohemiancoding.com/sketch -->
    <title>drone</title>
    <desc>Created with Sketch.</desc>
    <defs></defs>
    <g id="Page-1" stroke="none" stroke-width="1" fill="none" fill-rule="evenodd" opacity="0.85">
        <g id="Artboard" transform="translate(-644.000000, -355.000000)" fill="#FFFFFF">
            <g id="1st---copy" transform="translate(-210.000000, 0.000000)">
                <g id="benefits" transform="translate(210.000000, 336.000000)">
                    <g id="animals-copy" transform="translate(570.000000, 19.000000)">
                        <g id="drone" transform="translate(74.000000, 0.000000)">
                            <g id="Capa_1">
                                <g id="Group">
                                    <path d="M36.5,26.3529412 C33.7614752,26.3529412 31.5334773,28.5695686 31.5334773,31.2941176 C31.5334773,34.0186667 33.7614752,36.2352941 36.5,36.2352941 C39.2385248,36.2352941 41.4665227,34.0186667 41.4665227,31.2941176 C41.4665227,28.5695686 39.2385248,26.3529412 36.5,26.3529412 L36.5,26.3529412 Z M36.5,33.8823529 C35.0655421,33.8823529 33.8984881,32.7212549 33.8984881,31.2941176 C33.8984881,29.8669804 35.0655421,28.7058824 36.5,28.7058824 C37.9344579,28.7058824 39.1015119,29.8669804 39.1015119,31.2941176 C39.1015119,32.7212549 37.9344579,33.8823529 36.5,33.8823529 L36.5,33.8823529 Z" id="Shape"></path>
                                    <path d="M71.8174946,2.50980392 L59.12527,2.50980392 L59.12527,1.17647059 C59.12527,0.526745098 58.5958229,0 57.9427646,0 C57.2897063,0 56.7602592,0.526745098 56.7602592,1.17647059 L56.7602592,2.50980392 L44.0680346,2.50980392 C43.4149762,2.50980392 42.8855292,3.03654902 42.8855292,3.68627451 C42.8855292,4.336 43.4149762,4.8627451 44.0680346,4.8627451 L54.237581,4.8627451 L54.237581,7.53333333 C54.2114082,7.53160784 54.1853931,7.52941176 54.1587473,7.52941176 L18.8412527,7.52941176 C18.8146069,7.52941176 18.7885918,7.53160784 18.762419,7.53333333 L18.762419,4.8627451 L28.9319654,4.8627451 C29.5850238,4.8627451 30.1144708,4.336 30.1144708,3.68627451 C30.1144708,3.03654902 29.5850238,2.50980392 28.9319654,2.50980392 L16.2397408,2.50980392 L16.2397408,1.17647059 C16.2397408,0.526745098 15.7102937,0 15.0572354,0 C14.4041771,0 13.87473,0.526745098 13.87473,1.17647059 L13.87473,2.50980392 L1.1825054,2.50980392 C0.529447084,2.50980392 0,3.03654902 0,3.68627451 C0,4.336 0.529447084,4.8627451 1.1825054,4.8627451 L11.3520518,4.8627451 L11.3520518,9.96078431 C11.3520518,11.9934118 13.0141814,13.6470588 15.0572354,13.6470588 C17.1002894,13.6470588 18.762419,11.9934118 18.762419,9.96078431 L18.762419,9.87843137 C18.7885918,9.88015686 18.8146069,9.88235294 18.8412527,9.88235294 L25.5173629,9.88235294 L26.643581,13.8039216 L25.55,13.8039216 C24.0657192,13.8039216 22.7290151,14.6809412 22.1443844,16.0381176 L19.3227689,22.5882353 L17.5799136,22.5882353 C16.9268553,22.5882353 16.3974082,23.1149804 16.3974082,23.7647059 C16.3974082,24.4144314 16.9268553,24.9411765 17.5799136,24.9411765 L22.62527,24.9411765 C23.2783283,24.9411765 23.8077754,24.4144314 23.8077754,23.7647059 C23.8077754,23.1149804 23.2783283,22.5882353 22.62527,22.5882353 L21.8959006,22.5882353 L24.3183024,16.9648627 C24.5297343,16.4740392 25.0133002,16.1568627 25.5501577,16.1568627 L27.4662894,16.1568627 C28.3345637,17.6757647 29.9784039,18.6666667 31.7863758,18.6666667 L32.7948164,18.6666667 L32.7948164,21.7658039 C31.9747883,22.1995294 31.3275637,22.9338039 31.0191663,23.8539608 L30.6202678,25.0443922 C30.6095464,25.076549 30.579432,25.0980392 30.5455335,25.0980392 L27.6706263,25.0980392 C25.6275724,25.0980392 23.9654428,26.7516863 23.9654428,28.7843137 L23.9654428,36.3137255 C23.9654428,38.3463529 25.6275724,40 27.6706263,40 L45.3293737,40 C47.3724276,40 49.0345572,38.3463529 49.0345572,36.3137255 L49.0345572,28.7843137 C49.0345572,26.7516863 47.3724276,25.0980392 45.3293737,25.0980392 L42.4544665,25.0980392 C42.420568,25.0980392 42.3904536,25.076549 42.3797322,25.0443922 L41.9808337,23.8538039 C41.6724363,22.9336471 41.0252117,22.1995294 40.2051836,21.7658039 L40.2051836,18.6666667 L41.2137819,18.6666667 C43.0217538,18.6666667 44.665594,17.6757647 45.5338683,16.1568627 L47.45,16.1568627 C47.9868575,16.1568627 48.4702657,16.4740392 48.6818553,16.9650196 L51.1040994,22.5882353 L50.37473,22.5882353 C49.7216717,22.5882353 49.1922246,23.1149804 49.1922246,23.7647059 C49.1922246,24.4144314 49.7216717,24.9411765 50.37473,24.9411765 L55.4200864,24.9411765 C56.0731447,24.9411765 56.6025918,24.4144314 56.6025918,23.7647059 C56.6025918,23.1149804 56.0731447,22.5882353 55.4200864,22.5882353 L53.6772311,22.5882353 L50.8556156,16.0381176 C50.2709849,14.6809412 48.9342808,13.8039216 47.45,13.8039216 L46.3565767,13.8039216 L47.4827948,9.88235294 L54.1587473,9.88235294 C54.1853931,9.88235294 54.2114082,9.88015686 54.237581,9.87843137 L54.237581,9.96078431 C54.237581,11.9934118 55.8997106,13.6470588 57.9427646,13.6470588 C59.9858186,13.6470588 61.6479482,11.9934118 61.6479482,9.96078431 L61.6479482,4.8627451 L71.8174946,4.8627451 C72.4705529,4.8627451 73,4.336 73,3.68627451 C73,3.03654902 72.4705529,2.50980392 71.8174946,2.50980392 L71.8174946,2.50980392 Z M15.0572354,11.2941176 C14.3182484,11.2941176 13.7170626,10.696 13.7170626,9.96078431 L13.7170626,4.8627451 L16.3974082,4.8627451 L16.3974082,9.96078431 C16.3974082,10.696 15.7962225,11.2941176 15.0572354,11.2941176 L15.0572354,11.2941176 Z M42.4544665,27.4509804 L45.3293737,27.4509804 C46.0683607,27.4509804 46.6695464,28.049098 46.6695464,28.7843137 L46.6695464,36.3137255 C46.6695464,37.0489412 46.0683607,37.6470588 45.3293737,37.6470588 L27.6706263,37.6470588 C26.9316393,37.6470588 26.3304536,37.0489412 26.3304536,36.3137255 L26.3304536,28.7843137 C26.3304536,28.049098 26.9316393,27.4509804 27.6706263,27.4509804 L30.5455335,27.4509804 C31.599067,27.4509804 32.5307235,26.782902 32.8640324,25.7883922 L33.2629309,24.5979608 C33.4456674,24.052549 33.9565097,23.6861176 34.5343607,23.6861176 L38.4659546,23.6861176 C39.0438056,23.6861176 39.5546479,24.052549 39.7373844,24.5978039 L40.1362829,25.7882353 C40.4692765,26.782902 41.400933,27.4509804 42.4544665,27.4509804 L42.4544665,27.4509804 Z M37.8401728,21.3333333 L35.1598272,21.3333333 L35.1598272,18.6666667 L37.8401728,18.6666667 L37.8401728,21.3333333 L37.8401728,21.3333333 Z M43.7151749,14.436549 C43.3977905,15.5418039 42.3691685,16.3137255 41.2137819,16.3137255 L31.7862181,16.3137255 C30.6308315,16.3137255 29.6022095,15.5418039 29.2848251,14.436549 L27.9769741,9.88235294 L35.3174946,9.88235294 L35.3174946,12.4705882 C35.3174946,13.1203137 35.8469417,13.6470588 36.5,13.6470588 C37.1530583,13.6470588 37.6825054,13.1203137 37.6825054,12.4705882 L37.6825054,9.88235294 L45.0230259,9.88235294 L43.7151749,14.436549 L43.7151749,14.436549 Z M59.2829374,9.96078431 C59.2829374,10.696 58.6817516,11.2941176 57.9427646,11.2941176 C57.2037775,11.2941176 56.6025918,10.696 56.6025918,9.96078431 L56.6025918,4.8627451 L59.2829374,4.8627451 L59.2829374,9.96078431 L59.2829374,9.96078431 Z" id="Shape"></path>
                                </g>
                            </g>
                        </g>
                    </g>
                </g>
            </g>
        </g>
    </g>
</svg>