<?xml version="1.0" encoding="UTF-8" standalone="no"?>
<svg width="59px" height="40px" viewBox="0 0 59 40" version="1.1" xmlns="http://www.w3.org/2000/svg" xmlns:xlink="http://www.w3.org/1999/xlink">
    <!-- Generator: Sketch 39.1 (31720) - http://www.bohemiancoding.com/sketch -->
    <title>Capa_1</title>
    <desc>Created with Sketch.</desc>
    <defs></defs>
    <g id="Page-1" stroke="none" stroke-width="1" fill="none" fill-rule="evenodd" opacity="0.85">
        <g id="Artboard" transform="translate(-410.000000, -354.000000)" fill="#FFFFFF">
            <g id="1st---copy" transform="translate(-210.000000, 0.000000)">
                <g id="benefits" transform="translate(210.000000, 336.000000)">
                    <g id="animals" transform="translate(330.000000, 18.000000)">
                        <g id="delivery-truck" transform="translate(80.000000, 0.000000)">
                            <g id="Capa_1">
                                <path d="M48.1473577,29.2477612 C46.7083333,29.2477612 45.3412602,29.8089552 44.3099593,30.8238806 C43.2786585,31.8507463 42.7030488,33.1880597 42.7030488,34.6208955 C42.7030488,36.0537313 43.2666667,37.3910448 44.3099593,38.4179104 C45.353252,39.4328358 46.7083333,39.9940299 48.1473577,39.9940299 C51.0973577,39.9940299 53.4957317,37.5820896 53.4957317,34.6208955 C53.4957317,31.6597015 51.0973577,29.2477612 48.1473577,29.2477612 L48.1473577,29.2477612 Z M48.1473577,37.6059701 C46.4924797,37.6059701 45.1014228,36.2447761 45.1014228,34.6208955 C45.1014228,32.9970149 46.4924797,31.6358209 48.1473577,31.6358209 C49.778252,31.6358209 51.0973577,32.9731343 51.0973577,34.6208955 C51.0973577,36.2686567 49.778252,37.6059701 48.1473577,37.6059701 L48.1473577,37.6059701 Z M49.5384146,11.3492537 C49.322561,11.1462687 49.0347561,11.038806 48.7349593,11.038806 L42.5831301,11.038806 C41.9235772,11.038806 41.3839431,11.5761194 41.3839431,12.2328358 L41.3839431,22.0238806 C41.3839431,22.680597 41.9235772,23.2179104 42.5831301,23.2179104 L52.3445122,23.2179104 C53.004065,23.2179104 53.5436992,22.680597 53.5436992,22.0238806 L53.5436992,15.4686567 C53.5436992,15.1343284 53.3997967,14.8119403 53.1479675,14.5850746 L49.5384146,11.3492537 L49.5384146,11.3492537 Z M51.1453252,20.8298507 L43.7823171,20.8298507 L43.7823171,13.4149254 L48.2672764,13.4149254 L51.1453252,15.9940299 L51.1453252,20.8298507 L51.1453252,20.8298507 Z M18.8632114,29.2477612 C17.424187,29.2477612 16.0571138,29.8089552 15.025813,30.8238806 C13.9945122,31.8507463 13.4189024,33.1880597 13.4189024,34.6208955 C13.4189024,36.0537313 13.9825203,37.3910448 15.025813,38.4179104 C16.0691057,39.4328358 17.424187,39.9940299 18.8632114,39.9940299 C21.8132114,39.9940299 24.2115854,37.5820896 24.2115854,34.6208955 C24.2115854,31.6597015 21.8132114,29.2477612 18.8632114,29.2477612 L18.8632114,29.2477612 Z M18.8632114,37.6059701 C17.2083333,37.6059701 15.8172764,36.2447761 15.8172764,34.6208955 C15.8172764,32.9970149 17.2083333,31.6358209 18.8632114,31.6358209 C20.4941057,31.6358209 21.8132114,32.9731343 21.8132114,34.6208955 C21.8132114,36.2686567 20.4941057,37.6059701 18.8632114,37.6059701 L18.8632114,37.6059701 Z M10.8646341,30.7164179 L8.45426829,30.7164179 L8.45426829,27.5402985 C8.45426829,26.8835821 7.91463415,26.3462687 7.2550813,26.3462687 C6.59552846,26.3462687 6.05589431,26.8835821 6.05589431,27.5402985 L6.05589431,31.9104478 C6.05589431,32.5671642 6.59552846,33.1044776 7.2550813,33.1044776 L10.8646341,33.1044776 C11.524187,33.1044776 12.0638211,32.5671642 12.0638211,31.9104478 C12.0638211,31.2537313 11.524187,30.7164179 10.8646341,30.7164179 L10.8646341,30.7164179 Z M16.9445122,24.2089552 C16.9445122,23.5522388 16.404878,23.0149254 15.7453252,23.0149254 L1.19918699,23.0149254 C0.539634146,23.0149254 0,23.5522388 0,24.2089552 C0,24.8656716 0.539634146,25.4029851 1.19918699,25.4029851 L15.7453252,25.4029851 C16.404878,25.4029851 16.9445122,24.8776119 16.9445122,24.2089552 L16.9445122,24.2089552 Z M3.63353659,19.8985075 L18.1796748,19.9820896 C18.8392276,19.9820896 19.3788618,19.4567164 19.3908537,18.8 C19.4028455,18.1313433 18.8632114,17.5940299 18.2036585,17.5940299 L3.65752033,17.5104478 L3.64552846,17.5104478 C2.98597561,17.5104478 2.44634146,18.0358209 2.44634146,18.6925373 C2.43434959,19.361194 2.97398374,19.8985075 3.63353659,19.8985075 L3.63353659,19.8985075 Z M6.07987805,14.4776119 L20.6260163,14.4776119 C21.2855691,14.4776119 21.8252033,13.9402985 21.8252033,13.2835821 C21.8252033,12.6268657 21.2855691,12.0895522 20.6260163,12.0895522 L6.07987805,12.0895522 C5.4203252,12.0895522 4.88069106,12.6268657 4.88069106,13.2835821 C4.88069106,13.9402985 5.4203252,14.4776119 6.07987805,14.4776119 L6.07987805,14.4776119 Z M58.448374,12.8656716 L58.448374,12.8656716 L49.8621951,5.78507463 C49.6463415,5.60597015 49.3825203,5.51044776 49.0947154,5.51044776 L38.997561,5.51044776 L38.997561,1.2119403 C38.997561,0.555223881 38.4579268,0.0179104478 37.798374,0.0179104478 L7.2550813,0.0179104478 C6.59552846,0.0179104478 6.05589431,0.555223881 6.05589431,1.2119403 L6.05589431,9.95223881 C6.05589431,10.6089552 6.59552846,11.1462687 7.2550813,11.1462687 C7.91463415,11.1462687 8.45426829,10.6089552 8.45426829,9.95223881 L8.45426829,2.40597015 L36.6111789,2.40597015 L36.6111789,30.7164179 L26.7778455,30.7164179 C26.1182927,30.7164179 25.5786585,31.2537313 25.5786585,31.9104478 C25.5786585,32.5671642 26.1182927,33.1044776 26.7778455,33.1044776 L41.4199187,33.1044776 C42.0794715,33.1044776 42.6191057,32.5671642 42.6191057,31.9104478 C42.6191057,31.2537313 42.0794715,30.7164179 41.4199187,30.7164179 L39.0095528,30.7164179 L39.0095528,7.89850746 L48.675,7.89850746 L56.4936992,14.3462687 L56.4097561,30.6925373 L55.1626016,30.6925373 C54.5030488,30.6925373 53.9634146,31.2298507 53.9634146,31.8865672 C53.9634146,32.5432836 54.5030488,33.080597 55.1626016,33.080597 L57.5969512,33.080597 C58.2565041,33.080597 58.7961382,32.5552239 58.7961382,31.8985075 L58.8920732,13.7970149 C58.8800813,13.438806 58.724187,13.0925373 58.448374,12.8656716 L58.448374,12.8656716 Z" id="Shape"></path>
                            </g>
                        </g>
                    </g>
                </g>
            </g>
        </g>
    </g>
</svg>