<?xml version="1.0" encoding="UTF-8" standalone="no"?>
<svg width="34px" height="41px" viewBox="0 0 34 41" version="1.1" xmlns="http://www.w3.org/2000/svg" xmlns:xlink="http://www.w3.org/1999/xlink">
    <!-- Generator: Sketch 39.1 (31720) - http://www.bohemiancoding.com/sketch -->
    <title>Group</title>
    <desc>Created with Sketch.</desc>
    <defs></defs>
    <g id="Page-1" stroke="none" stroke-width="1" fill="none" fill-rule="evenodd" opacity="0.85">
        <g id="Artboard" transform="translate(-904.000000, -354.000000)" fill="#FFFFFF">
            <g id="1st---copy" transform="translate(-210.000000, 0.000000)">
                <g id="benefits" transform="translate(210.000000, 336.000000)">
                    <g id="animals-copy-2" transform="translate(811.000000, 18.000000)">
                        <g id="medal" transform="translate(93.000000, 0.000000)">
                            <g id="Group">
                                <path d="M24.4698254,15.9323829 C24.4698254,11.8574338 21.086783,8.54236253 16.915212,8.54236253 C12.7521197,8.54236253 9.3605985,11.8574338 9.3605985,15.9323829 C9.3605985,20.007332 12.7436409,23.3224033 16.915212,23.3224033 C21.0783042,23.3307536 24.4698254,20.0156823 24.4698254,15.9323829 L24.4698254,15.9323829 Z M16.915212,21.7107943 C13.7017456,21.7107943 11.0987531,19.1639511 11.0987531,16.0158859 C11.0987531,12.8678208 13.7017456,10.3209776 16.915212,10.3209776 C20.1286783,10.3209776 22.7316708,12.8678208 22.7316708,16.0158859 C22.7316708,19.1639511 20.1286783,21.7107943 16.915212,21.7107943 L16.915212,21.7107943 Z" id="Shape"></path>
                                <path d="M33.7541147,36.1568228 L27.072818,24.8087576 L31.1002494,23.9486762 L29.5825436,19.2808554 L33.2793017,15.9824847 L29.5825436,12.6841141 L31.1002494,8.01629328 L26.20798,6.97250509 L25.1396509,2.17107943 L20.3660848,3.65743381 L17,0.0417515275 L13.6254364,3.66578411 L8.86034913,2.17107943 L7.79201995,6.95580448 L2.89975062,7.99959267 L4.41745636,12.6674134 L0.720698254,15.9657841 L4.41745636,19.2641548 L2.89975062,23.9319756 L6.8084788,24.7670061 L0.161097257,36.0733198 C-0.271321696,36.8415479 0.398503741,37.5095723 1.02593516,37.3509165 L5.01945137,36.5826884 L6.32518703,40.3236253 C6.5286783,40.9582485 7.47830424,41.2171079 7.88528678,40.4906314 L14.5411471,29.2678208 L17,31.9148676 L19.3825436,29.3596741 L25.9451372,40.4906314 C26.4114713,41.2505092 27.4289277,40.9582485 27.5985037,40.4071283 L28.9042394,36.6661914 L32.8977556,37.4344196 C33.6184539,37.6348269 34.2628429,36.9668024 33.7541147,36.1568228 L33.7541147,36.1568228 Z M7.27481297,38.0272912 L6.31670823,35.396945 C6.2319202,35.0545825 5.88428928,34.8040733 5.53665835,34.8040733 L5.36708229,34.8040733 L2.50124688,35.313442 L8.00399002,25.9527495 L8.86034913,29.7855397 L12.8623441,28.5413442 L7.27481297,38.0272912 L7.27481297,38.0272912 Z M14.1680798,26.3368635 L10.157606,27.5894094 L9.25885287,23.5645621 L5.14663342,22.68778 L6.42693267,18.7631365 L3.30673317,15.9741344 L6.41845387,13.201833 L5.13815461,9.27718941 L9.25037406,8.40040733 L10.1491272,4.37556008 L14.159601,5.62810591 L16.9915212,2.5802444 L19.840399,5.6197556 L23.8508728,4.36720978 L24.7496259,8.39205703 L28.8618454,9.2688391 L27.5815461,13.1934827 L30.6932668,15.9657841 L27.5815461,18.7380855 L28.8618454,22.6627291 L24.7496259,23.5395112 L23.8508728,27.5643585 L19.840399,26.3118126 L17.0084788,29.3596741 L14.1680798,26.3368635 L14.1680798,26.3368635 Z M28.4633416,34.8040733 C28.0309227,34.8040733 27.6832918,34.9710794 27.5052369,35.396945 L26.5471322,38.0272912 L20.9256858,28.4661914 L25.1396509,29.7771894 L25.9451372,26.186558 L31.3291771,35.3050916 L28.4633416,34.8040733 L28.4633416,34.8040733 Z" id="Shape"></path>
                            </g>
                        </g>
                    </g>
                </g>
            </g>
        </g>
    </g>
</svg>