<?xml version="1.0" encoding="UTF-8" standalone="no"?>
<svg width="29px" height="31px" viewBox="0 0 29 31" version="1.1" xmlns="http://www.w3.org/2000/svg" xmlns:xlink="http://www.w3.org/1999/xlink">
    <!-- Generator: Sketch 39.1 (31720) - http://www.bohemiancoding.com/sketch -->
    <title>Shape</title>
    <desc>Created with Sketch.</desc>
    <defs></defs>
    <g id="Page-1" stroke="none" stroke-width="1" fill="none" fill-rule="evenodd">
        <g id="Artboard" transform="translate(-1244.000000, -26.000000)" fill="#FFFFFF">
            <g id="1st---copy" transform="translate(-210.000000, 0.000000)">
                <g id="header-v2">
                    <g id="shopping-cart-2" transform="translate(1454.000000, 26.000000)">
                        <g id="Capa_1">
                            <path d="M8.26269536,20.3930986 L25.42583,20.3930986 C27.3719669,20.3930986 28.9596049,18.8144538 28.9596049,16.8793409 L28.9596049,9.69905339 L28.9596049,9.67359138 L28.9596049,9.62266735 C28.9596049,9.60993634 28.9596049,9.59720534 28.9532031,9.58447433 C28.9532031,9.57174333 28.9468013,9.55264682 28.9468013,9.53991581 C28.9468013,9.5271848 28.9403996,9.5144538 28.9403996,9.50172279 C28.9339978,9.48899179 28.9339978,9.47626078 28.927596,9.45716427 C28.9211943,9.44443326 28.9211943,9.43170226 28.9147925,9.41897125 C28.9083907,9.40624025 28.9083907,9.39350924 28.901989,9.38077823 C28.8955872,9.36804723 28.8891854,9.35531622 28.8827837,9.33621971 C28.8763819,9.32348871 28.8699801,9.3107577 28.8635784,9.3043922 C28.8571766,9.29166119 28.8507748,9.27893018 28.8443731,9.26619918 C28.8379713,9.25346817 28.8315695,9.24710267 28.8251678,9.23437166 C28.818766,9.22164066 28.8059625,9.20890965 28.7995607,9.19617864 C28.7931589,9.18344764 28.7867572,9.17708214 28.7739536,9.16435113 C28.7675519,9.15162012 28.7547483,9.14525462 28.7483466,9.13252361 C28.7419448,9.11979261 28.7291413,9.1134271 28.7227395,9.1006961 C28.7163377,9.08796509 28.7035342,9.08159959 28.6971325,9.07523409 C28.6843289,9.06250308 28.6779272,9.05613758 28.6651236,9.04340657 C28.6523201,9.03704107 28.6459183,9.02431006 28.6331148,9.01794456 C28.6203113,9.01157906 28.6075077,8.99884805 28.5947042,8.99248255 C28.5819007,8.98611704 28.5754989,8.97975154 28.5626954,8.97338604 C28.5498918,8.96702053 28.5370883,8.96065503 28.5242848,8.94792402 C28.5114812,8.94155852 28.4986777,8.93519302 28.4858742,8.92882752 C28.4730706,8.92246201 28.4602671,8.91609651 28.4474636,8.90973101 C28.43466,8.9033655 28.4218565,8.897 28.409053,8.8906345 C28.3962494,8.88426899 28.3834459,8.88426899 28.3706424,8.87790349 C28.3578389,8.87153799 28.3386336,8.86517248 28.32583,8.86517248 C28.3130265,8.86517248 28.300223,8.85880698 28.2938212,8.85880698 C28.2746159,8.85244148 28.2618124,8.85244148 28.2426071,8.85244148 C28.2362053,8.85244148 28.2298035,8.84607598 28.217,8.84607598 L6.46379912,5.86065503 L6.46379912,2.84340657 C6.46379912,2.81157906 6.46379912,2.77975154 6.45739735,2.75428953 C6.45739735,2.74792402 6.45739735,2.74155852 6.45099558,2.72882752 C6.45099558,2.70973101 6.44459382,2.6906345 6.44459382,2.67153799 C6.43819205,2.65244148 6.43819205,2.63971047 6.43179029,2.62061396 C6.43179029,2.60788296 6.42538852,2.60151745 6.42538852,2.58878645 C6.41898675,2.56968994 6.41258499,2.55059343 6.40618322,2.53149692 C6.40618322,2.52513142 6.39978146,2.51240041 6.39978146,2.50603491 C6.39337969,2.4869384 6.38697792,2.47420739 6.37417439,2.45511088 C6.36777263,2.44874538 6.36777263,2.43601437 6.36137086,2.42964887 C6.35496909,2.41691786 6.34856733,2.40418686 6.3357638,2.39145585 C6.32936203,2.37872485 6.32296026,2.37235934 6.3165585,2.35962834 C6.31015673,2.34689733 6.30375497,2.34053183 6.2973532,2.32780082 C6.29095143,2.31506982 6.2781479,2.30233881 6.27174614,2.2896078 C6.26534437,2.2832423 6.2589426,2.2768768 6.25254084,2.27051129 C6.23973731,2.25778029 6.22693377,2.24504928 6.21413024,2.23231828 C6.20772848,2.22595277 6.20132671,2.21958727 6.19492494,2.21322177 C6.18212141,2.20049076 6.16931788,2.18775975 6.15011258,2.17502875 C6.14371082,2.16866324 6.13090728,2.16229774 6.12450552,2.15593224 C6.11170199,2.14320123 6.09889845,2.13683573 6.08609492,2.12410472 C6.06688962,2.11137372 6.04768433,2.09864271 6.03488079,2.09227721 C6.02847903,2.0859117 6.02207726,2.0859117 6.0156755,2.0795462 C5.99006843,2.0668152 5.9580596,2.05408419 5.93245254,2.04135318 L1.21435099,0.0680472279 C0.772629139,-0.116552361 0.266889625,0.0871437372 0.0812384106,0.52636345 C-0.104412804,0.965583162 0.100443709,1.46845791 0.542165563,1.65305749 L4.72892053,3.40993634 L4.72892053,7.30562423 L4.72892053,7.92307803 L4.72892053,12.6590123 L4.72892053,16.8920719 L4.72892053,22.2390945 C4.72892053,24.0214353 6.07329139,25.498232 7.80816998,25.7210246 C7.49448344,26.2429959 7.30883223,26.8540842 7.30883223,27.5033655 C7.30883223,29.4193819 8.8772649,30.9725647 10.7977947,30.9725647 C12.7183245,30.9725647 14.2867572,29.4130164 14.2867572,27.5033655 C14.2867572,26.8668152 14.1139095,26.2620924 13.8066247,25.7528522 L21.5783687,25.7528522 C21.2710839,26.2684579 21.0982362,26.8668152 21.0982362,27.5033655 C21.0982362,29.4193819 22.6666689,30.9725647 24.5871987,30.9725647 C26.5077285,30.9725647 28.0761611,29.4130164 28.0761611,27.5033655 C28.0761611,25.5937146 26.5077285,24.0341663 24.5871987,24.0341663 L8.26269536,24.0341663 C7.26401987,24.0341663 6.45739735,23.2257474 6.45739735,22.2390945 L6.45739735,19.9093203 C6.98234216,20.2148645 7.60331347,20.3930986 8.26269536,20.3930986 L8.26269536,20.3930986 Z M12.5646821,27.497 C12.5646821,28.4645565 11.7708631,29.2475133 10.8041965,29.2475133 C9.8375298,29.2475133 9.04371082,28.458191 9.04371082,27.497 C9.04371082,26.535809 9.8375298,25.7464867 10.8041965,25.7464867 C11.7708631,25.7464867 12.5646821,26.5294435 12.5646821,27.497 L12.5646821,27.497 Z M26.3540861,27.497 C26.3540861,28.4645565 25.5602671,29.2475133 24.5936004,29.2475133 C23.6269338,29.2475133 22.8331148,28.458191 22.8331148,27.497 C22.8331148,26.535809 23.6269338,25.7464867 24.5936004,25.7464867 C25.5602671,25.7464867 26.3540861,26.5294435 26.3540861,27.497 L26.3540861,27.497 Z M25.42583,18.6744127 L8.26269536,18.6744127 C7.26401987,18.6744127 6.45739735,17.8659938 6.45739735,16.8793409 L6.45739735,12.6462813 L6.45739735,7.91034702 L6.45739735,7.59207187 L27.231128,10.4374517 L27.231128,16.8729754 C27.231128,17.8723593 26.4181038,18.6744127 25.42583,18.6744127 L25.42583,18.6744127 Z" id="Shape"></path>
                        </g>
                    </g>
                </g>
            </g>
        </g>
    </g>
</svg>