<?xml version="1.0" encoding="UTF-8" standalone="no"?>
<svg width="15px" height="14px" viewBox="0 0 15 14" version="1.1" xmlns="http://www.w3.org/2000/svg" xmlns:xlink="http://www.w3.org/1999/xlink">
    <!-- Generator: Sketch 39.1 (31720) - http://www.bohemiancoding.com/sketch -->
    <title>chat</title>
    <desc>Created with Sketch.</desc>
    <defs></defs>
    <g id="Page-1" stroke="none" stroke-width="1" fill="none" fill-rule="evenodd">
        <g id="Artboard" transform="translate(-370.000000, -1784.000000)" fill="#546A79">
            <g id="POSTS" transform="translate(0.000000, 680.000000)">
                <g id="BLOG-POST" transform="translate(330.000000, 783.000000)">
                    <g id="chat" transform="translate(40.000000, 321.000000)">
                        <g id="Capa_1">
                            <path d="M7.5,0.125 C3.35793103,0.125 0,3.03525 0,6.625 C0,7.948 0.457241379,9.17775 1.24034483,10.2045 C1.13741379,11.39075 0.841551724,13.0615 0,13.875 C0,13.875 2.57146552,13.52625 4.31301724,12.5095 C4.31482759,12.51025 4.31689655,12.511 4.3187069,12.51175 C5.03353448,12.0615 5.74939655,11.59775 5.89758621,11.48025 C5.97517241,11.375 6.12491379,11.34325 6.24155172,11.411 C6.31810345,11.4555 6.36646552,11.53675 6.36801724,11.623 C6.37060345,11.7785 6.36672414,11.819 4.92362069,12.72825 C5.72741379,12.98325 6.59431034,13.125 7.5,13.125 C11.642069,13.125 15,10.21475 15,6.625 C15,3.03525 11.642069,0.125 7.5,0.125 L7.5,0.125 Z" id="Shape"></path>
                        </g>
                    </g>
                </g>
            </g>
        </g>
    </g>
</svg>