<?xml version="1.0" encoding="UTF-8" standalone="no"?>
<svg width="18px" height="22px" viewBox="0 0 18 22" version="1.1" xmlns="http://www.w3.org/2000/svg" xmlns:xlink="http://www.w3.org/1999/xlink">
    <!-- Generator: Sketch 39.1 (31720) - http://www.bohemiancoding.com/sketch -->
    <title>placeholder</title>
    <desc>Created with Sketch.</desc>
    <defs></defs>
    <g id="Page-1" stroke="none" stroke-width="1" fill="none" fill-rule="evenodd" fill-opacity="0.7">
        <g id="Artboard" transform="translate(-1052.000000, -2901.000000)" fill="#FFFFFF">
            <g id="FOOTER" transform="translate(0.000000, 2654.000000)">
                <g id="placeholder" transform="translate(1052.000000, 247.000000)">
                    <g id="Capa_1">
                        <g id="Group">
                            <path d="M8.99530026,0 C4.04177546,0 0.00939947781,3.9572327 0.00939947781,8.81844864 C0.00939947781,9.37190776 0.0610966057,9.92997904 0.169190601,10.4742138 C0.173890339,10.506499 0.192689295,10.6033543 0.230287206,10.769392 C0.366579634,11.3643606 0.568668407,11.9501048 0.831853786,12.5081761 C1.8,14.7450734 3.92898172,18.1811321 8.60052219,21.8616352 C8.71801567,21.9538784 8.85900783,22 9,22 C9.14099217,22 9.28198433,21.9538784 9.39947781,21.8616352 C14.0663185,18.1811321 16.2,14.7450734 17.1681462,12.5081761 C17.4313316,11.9501048 17.6334204,11.3689727 17.7697128,10.769392 C17.8073107,10.6033543 17.8261097,10.506499 17.8308094,10.4742138 C17.9342037,9.92997904 17.9906005,9.37190776 17.9906005,8.81844864 C17.981201,3.9572327 13.9488251,0 8.99530026,0 L8.99530026,0 Z M16.5712794,10.2574423 C16.5712794,10.2666667 16.5665796,10.275891 16.5665796,10.2851153 C16.5618799,10.3081761 16.5477807,10.3773585 16.524282,10.4834382 L16.524282,10.4926625 C16.4067885,11.0092243 16.2328982,11.5119497 16.002611,11.9962264 C15.9979112,12.0008386 15.9979112,12.0100629 15.9932115,12.0146751 C15.1143603,14.0578616 13.1874674,17.1756813 8.99530026,20.5748428 C4.80313316,17.1756813 2.87624021,14.0578616 1.99738903,12.0146751 C1.9926893,12.0100629 1.9926893,12.0008386 1.98798956,11.9962264 C1.76240209,11.5165618 1.58851175,11.0092243 1.46631854,10.4926625 L1.46631854,10.4834382 C1.4381201,10.3773585 1.42872063,10.3081761 1.42402089,10.2851153 C1.42402089,10.275891 1.41932115,10.2666667 1.41932115,10.2528302 C1.32532637,9.77777778 1.27832898,9.29811321 1.27832898,8.81383648 C1.27832898,4.63983229 4.74203655,1.24067086 8.99530026,1.24067086 C13.248564,1.24067086 16.7122715,4.63983229 16.7122715,8.81383648 C16.7122715,9.30272537 16.6652742,9.7870021 16.5712794,10.2574423 L16.5712794,10.2574423 Z" id="Shape"></path>
                            <path d="M8.99530026,3.31614256 C5.85117493,3.31614256 3.28981723,5.82976939 3.28981723,8.91530398 C3.28981723,12.0008386 5.85117493,14.5144654 8.99530026,14.5144654 C12.1394256,14.5144654 14.7007833,12.0008386 14.7007833,8.91530398 C14.7007833,5.82976939 12.1394256,3.31614256 8.99530026,3.31614256 L8.99530026,3.31614256 Z M8.99530026,13.2691824 C6.54673629,13.2691824 4.55874674,11.3136268 4.55874674,8.91530398 C4.55874674,6.51698113 6.55143603,4.56142558 8.99530026,4.56142558 C11.4391645,4.56142558 13.4318538,6.51698113 13.4318538,8.91530398 C13.4318538,11.3136268 11.4438642,13.2691824 8.99530026,13.2691824 L8.99530026,13.2691824 Z" id="Shape"></path>
                        </g>
                    </g>
                </g>
            </g>
        </g>
    </g>
</svg>