<?xml version="1.0" encoding="UTF-8" standalone="no"?>
<svg width="20px" height="20px" viewBox="0 0 20 20" version="1.1" xmlns="http://www.w3.org/2000/svg" xmlns:xlink="http://www.w3.org/1999/xlink">
    <!-- Generator: Sketch 39.1 (31720) - http://www.bohemiancoding.com/sketch -->
    <title>technology</title>
    <desc>Created with Sketch.</desc>
    <defs></defs>
    <g id="Page-1" stroke="none" stroke-width="1" fill="none" fill-rule="evenodd" fill-opacity="0.7">
        <g id="Artboard" transform="translate(-1051.000000, -2824.000000)" fill="#FFFFFF">
            <g id="FOOTER" transform="translate(0.000000, 2654.000000)">
                <g id="technology" transform="translate(1051.000000, 170.000000)">
                    <g id="Capa_1">
                        <path d="M19.2925361,14.4453608 C18.4554227,13.6 17.6183093,12.7670103 16.8059381,11.9628866 C16.364701,11.5257732 15.8492371,11.2948454 15.3090309,11.2948454 C14.7688247,11.2948454 14.2533608,11.5257732 13.8162474,11.9587629 L13.7049072,12.0701031 C13.2636701,12.5072165 12.8059381,12.9608247 12.364701,13.414433 C12.2739794,13.3690722 12.1832577,13.3237113 12.0966598,13.2783505 C11.8945979,13.1793814 11.7007835,13.0845361 11.5317113,12.9773196 C10.2038763,12.1443299 8.98325773,11.0350515 7.80387629,9.57938144 C7.23068041,8.8742268 6.83068041,8.24742268 6.55026804,7.61237113 C6.94202062,7.23298969 7.32552577,6.84536082 7.70078351,6.46597938 C7.79562887,6.37113402 7.89459794,6.27216495 7.9894433,6.17731959 C8.90903093,5.25360825 8.90490722,4.05773196 7.98531959,3.12989691 C7.70490722,2.84536082 7.41624742,2.56082474 7.13995876,2.28453608 C7.01624742,2.16082474 6.89253608,2.0371134 6.76882474,1.91340206 C6.63686598,1.7814433 6.50903093,1.65360825 6.37707216,1.52164948 C6.09665979,1.2371134 5.80387629,0.944329897 5.51109278,0.659793814 C5.06985567,0.226804124 4.55026804,0 4.01418557,0 C3.47810309,0 2.95851546,0.226804124 2.52140206,0.659793814 C2.31109278,0.870103093 2.09665979,1.08041237 1.89459794,1.28659794 C1.59769072,1.58762887 1.28841237,1.89690722 0.979134021,2.19381443 C0.401814433,2.74226804 0.0801649485,3.43505155 0.0183092784,4.2556701 C-0.0765360825,5.54639175 0.282226804,6.71340206 0.603876289,7.58762887 C1.33789691,9.5628866 2.45954639,11.4350515 4.03480412,13.3113402 C5.99769072,15.6453608 8.36057732,17.4927835 11.0574845,18.8082474 C12.5420206,19.5298969 13.8162474,19.8969072 15.0574845,19.9670103 C15.1482062,19.971134 15.2389278,19.9752577 15.3255258,19.9752577 C16.3729485,19.9752577 17.2348041,19.6041237 17.8863505,18.8783505 C18.1667629,18.5649485 18.4677938,18.2721649 18.7853196,17.9628866 C18.9461443,17.8061856 19.1110928,17.6453608 19.2760412,17.4804124 C20.1997526,16.5525773 20.2038763,15.3649485 19.2925361,14.4453608 L19.2925361,14.4453608 Z M18.4925361,16.6969072 C18.3358351,16.8536082 18.1750103,17.0103093 18.0183093,17.1670103 C17.7007835,17.4762887 17.3708866,17.7979381 17.065732,18.1402062 C16.5832577,18.6804124 15.9729485,18.9072165 15.1275876,18.8618557 C14.0348041,18.8 12.9007835,18.4701031 11.5523299,17.814433 C8.99562887,16.5690722 6.7523299,14.8164948 4.89253608,12.6061856 C3.39975258,10.828866 2.33995876,9.06804124 1.65129897,7.21237113 C1.2265567,6.0742268 1.06985567,5.19175258 1.13171134,4.35463918 C1.17294845,3.81443299 1.37501031,3.37319588 1.75026804,3.0185567 C2.06779381,2.70103093 2.38119588,2.38350515 2.68635052,2.07835052 C2.88841237,1.87628866 3.09459794,1.66597938 3.30078351,1.45979381 C3.45748454,1.30309278 3.70903093,1.11752577 4.01418557,1.11752577 C4.31934021,1.11752577 4.5708866,1.30309278 4.73171134,1.45979381 C5.01624742,1.74020619 5.30903093,2.03298969 5.58531959,2.31340206 C5.71727835,2.44536082 5.8451134,2.57731959 5.97707216,2.70515464 C6.10078351,2.82886598 6.22449485,2.95257732 6.34820619,3.07628866 C6.62449485,3.35257732 6.90903093,3.6371134 7.1894433,3.91752577 C7.68428866,4.41649485 7.68841237,4.89896907 7.19356701,5.39381443 C7.09872165,5.49278351 6.99975258,5.58762887 6.90490722,5.68659794 C6.50490722,6.09072165 6.08841237,6.51134021 5.67191753,6.91134021 C5.46573196,7.10927835 5.2636701,7.44742268 5.46573196,7.93402062 C5.78738144,8.70515464 6.25336082,9.4556701 6.92964948,10.2886598 C8.18738144,11.8350515 9.49872165,13.0268041 10.9296495,13.9257732 C11.1523299,14.0659794 11.379134,14.1773196 11.5976907,14.2845361 C11.7296495,14.3463918 11.8492371,14.4082474 11.9688247,14.4742268 C12.1172784,14.556701 12.265732,14.5938144 12.4141856,14.5938144 L12.4141856,14.5938144 C12.6492371,14.5938144 12.8677938,14.4907216 13.0616082,14.2927835 C13.5275876,13.8103093 14.0141856,13.3319588 14.4801649,12.8659794 L14.5915052,12.7546392 C14.7482062,12.5979381 14.9997526,12.4123711 15.3007835,12.4123711 C15.6018144,12.4123711 15.8533608,12.5979381 16.0141856,12.7546392 C16.822433,13.5587629 17.6595464,14.3917526 18.4925361,15.2329897 C18.9750103,15.7072165 18.9708866,16.214433 18.4925361,16.6969072 L18.4925361,16.6969072 Z" id="Shape"></path>
                    </g>
                </g>
            </g>
        </g>
    </g>
</svg>