<?xml version="1.0" encoding="UTF-8" standalone="no"?>
<svg width="41px" height="41px" viewBox="0 0 41 41" version="1.1" xmlns="http://www.w3.org/2000/svg" xmlns:xlink="http://www.w3.org/1999/xlink">
    <!-- Generator: Sketch 39.1 (31720) - http://www.bohemiancoding.com/sketch -->
    <title>add</title>
    <desc>Created with Sketch.</desc>
    <defs></defs>
    <g id="Page-1" stroke="none" stroke-width="1" fill="none" fill-rule="evenodd">
        <g id="Artboard" transform="translate(-780.000000, -991.000000)" fill="#FFFFFF">
            <g id="Catalog" transform="translate(330.000000, 790.000000)">
                <g id="ITEM-Copy" transform="translate(330.000000, 91.000000)">
                    <g id="Group-2" transform="translate(1.000000, 1.000000)">
                        <g id="add" transform="translate(119.000000, 109.000000)">
                            <g id="Capa_1">
                                <path d="M38.7639167,17.6345 L23.35375,17.6345 L23.35375,2.22425 C23.35375,1.52225 22.4005,8.33333332e-05 20.4940833,8.33333332e-05 C18.5876667,8.33333332e-05 17.6344167,1.52233333 17.6344167,2.22425 L17.6344167,17.6345833 L2.22416667,17.6345833 C1.52225,17.6345 0,18.58775 0,20.4940833 C0,22.4004167 1.52225,23.35375 2.22416667,23.35375 L17.6345,23.35375 L17.6345,38.7640833 C17.6345,39.4659167 18.5876667,40.98825 20.4941667,40.98825 C22.4006667,40.98825 23.3538333,39.4659167 23.3538333,38.7640833 L23.3538333,23.35375 L38.7641667,23.35375 C39.466,23.35375 40.9883333,22.4005833 40.9883333,20.4940833 C40.9883333,18.5875833 39.4658333,17.6345 38.7639167,17.6345 L38.7639167,17.6345 Z" id="Shape"></path>
                            </g>
                        </g>
                    </g>
                </g>
            </g>
        </g>
    </g>
</svg>