<?xml version="1.0" encoding="UTF-8" standalone="no"?>
<svg width="25px" height="25px" viewBox="0 0 25 25" version="1.1" xmlns="http://www.w3.org/2000/svg" xmlns:xlink="http://www.w3.org/1999/xlink">
    <!-- Generator: Sketch 39.1 (31720) - http://www.bohemiancoding.com/sketch -->
    <title>magnifying-glass</title>
    <desc>Created with Sketch.</desc>
    <defs></defs>
    <g id="Page-1" stroke="none" stroke-width="1" fill="none" fill-rule="evenodd" fill-opacity="0.8">
        <g id="Artboard" transform="translate(-1240.000000, -93.000000)" fill="#FFFFFF">
            <g id="1st---copy" transform="translate(-210.000000, 0.000000)">
                <g id="header-v2">
                    <g id="search-copy" transform="translate(1240.000000, 86.000000)">
                        <g id="magnifying-glass" transform="translate(210.000000, 7.000000)">
                            <path d="M24.6938776,23.2244898 L18.6836735,17.2142857 C20.1734694,15.3979592 21.0714286,13.0714286 21.0714286,10.5357143 C21.0714286,4.71938776 16.3520408,0 10.5357143,0 C4.71428571,0 0,4.71938776 0,10.5357143 C0,16.3520408 4.71428571,21.0714286 10.5357143,21.0714286 C13.0714286,21.0714286 15.3928571,20.1785714 17.2091837,18.6887755 L23.2193878,24.6938776 C23.627551,25.1020408 24.2857143,25.1020408 24.6938776,24.6938776 C25.1020408,24.2908163 25.1020408,23.627551 24.6938776,23.2244898 L24.6938776,23.2244898 Z M10.5357143,18.9744898 C5.87755102,18.9744898 2.09183673,15.1887755 2.09183673,10.5357143 C2.09183673,5.88265306 5.87755102,2.09183673 10.5357143,2.09183673 C15.1887755,2.09183673 18.9795918,5.88265306 18.9795918,10.5357143 C18.9795918,15.1887755 15.1887755,18.9744898 10.5357143,18.9744898 L10.5357143,18.9744898 Z" id="Shape"></path>
                        </g>
                    </g>
                </g>
            </g>
        </g>
    </g>
</svg>