<?xml version="1.0" encoding="UTF-8" standalone="no"?>
<svg width="40px" height="40px" viewBox="0 0 40 40" version="1.1" xmlns="http://www.w3.org/2000/svg" xmlns:xlink="http://www.w3.org/1999/xlink">
    <!-- Generator: Sketch 39.1 (31720) - http://www.bohemiancoding.com/sketch -->
    <title>vkontakte-logo</title>
    <desc>Created with Sketch.</desc>
    <defs></defs>
    <g id="Page-1" stroke="none" stroke-width="1" fill="none" fill-rule="evenodd">
        <g id="Artboard" transform="translate(-1163.000000, -21.000000)" fill="#FFFFFF">
            <g id="1st---copy" transform="translate(-210.000000, 0.000000)">
                <g id="header-v2">
                    <g id="vkontakte-logo" transform="translate(1373.000000, 21.000000)">
                        <g id="Capa_1">
                            <path d="M22.1558333,22.045 C21.5145833,21.6716667 20.6233333,21.6716667 19.8991667,21.6716667 L17.52125,21.6716667 L17.52125,26.5716667 L19.70375,26.5716667 C20.5116667,26.5716667 21.5420833,26.6295833 22.23875,26.1404167 C22.8783333,25.71 23.2404167,24.865 23.2404167,24.0604167 C23.2404167,23.3129167 22.7954167,22.41875 22.1558333,22.045 L22.1558333,22.045 Z M21.25875,17.8604167 C21.7879167,17.4575 22.0654167,16.7391667 22.0654167,16.0775 C22.0654167,15.35875 21.7316667,14.66875 21.1195833,14.2954167 C20.4791667,13.9220833 19.30875,14.0083333 18.5570833,14.0083333 L17.52125,14.0083333 L17.52125,18.3208333 L18.8916667,18.3208333 C19.67125,18.3204167 20.5908333,18.3779167 21.25875,17.8604167 L21.25875,17.8604167 Z M32.96875,0 L7.03041667,0 C3.14791667,0 0,3.14791667 0,7.03125 L0,32.96875 C0,36.85125 3.14791667,40 7.03041667,40 L32.96875,40 C36.85125,40 40,36.85125 40,32.96875 L40,7.03125 C40,3.14791667 36.85125,0 32.96875,0 L32.96875,0 Z M21.085,30.2229167 L12.9133333,30.2229167 L12.9133333,10.5004167 L21.8416667,10.5004167 C24.4279167,10.5004167 26.8141667,12.1466667 26.8141667,15.0504167 C26.8141667,17.2925 25.5625,18.8279167 23.9658333,19.305 L23.9658333,19.3629167 C26.3333333,19.8520833 28.0241667,21.1379167 28.0241667,24.24 C28.0241667,27.1108333 26.0691667,30.2229167 21.085,30.2229167 L21.085,30.2229167 Z" id="Shape"></path>
                        </g>
                    </g>
                </g>
            </g>
        </g>
    </g>
</svg>