<?xml version="1.0" encoding="UTF-8" standalone="no"?>
<svg width="44px" height="44px" viewBox="0 0 44 44" version="1.1" xmlns="http://www.w3.org/2000/svg" xmlns:xlink="http://www.w3.org/1999/xlink">
    <!-- Generator: Sketch 39.1 (31720) - http://www.bohemiancoding.com/sketch -->
    <title>favorite</title>
    <desc>Created with Sketch.</desc>
    <defs></defs>
    <g id="Landing" stroke="none" stroke-width="1" fill="none" fill-rule="evenodd">
        <g id="Главная_Ленд_BIOTEK" transform="translate(-480.000000, -1289.000000)" fill="#FFFFFF">
            <g id="VIDEO" transform="translate(268.000000, 786.000000)">
                <g id="benefits" transform="translate(0.000000, 485.000000)">
                    <g id="favorite" transform="translate(212.000000, 18.000000)">
                        <g id="Capa_1">
                            <g id="Group">
                                <path d="M26.7666667,16.1333333 L8.43333333,16.1333333 C8.0278,16.1333333 7.7,16.4618667 7.7,16.8666667 C7.7,17.2714667 8.0278,17.6 8.43333333,17.6 L26.7666667,17.6 C27.1722,17.6 27.5,17.2714667 27.5,16.8666667 C27.5,16.4618667 27.1722,16.1333333 26.7666667,16.1333333 L26.7666667,16.1333333 Z" id="Shape"></path>
                                <path d="M8.43333333,11.7333333 L15.7666667,11.7333333 C16.1722,11.7333333 16.5,11.4048 16.5,11 C16.5,10.5952 16.1722,10.2666667 15.7666667,10.2666667 L8.43333333,10.2666667 C8.0278,10.2666667 7.7,10.5952 7.7,11 C7.7,11.4048 8.0278,11.7333333 8.43333333,11.7333333 L8.43333333,11.7333333 Z" id="Shape"></path>
                                <path d="M27.5,22.7333333 C27.5,22.3285333 27.1722,22 26.7666667,22 L8.43333333,22 C8.0278,22 7.7,22.3285333 7.7,22.7333333 C7.7,23.1381333 8.0278,23.4666667 8.43333333,23.4666667 L26.7666667,23.4666667 C27.1722,23.4666667 27.5,23.1381333 27.5,22.7333333 L27.5,22.7333333 Z" id="Shape"></path>
                                <path d="M21.6333333,28.6 C21.6333333,28.1952 21.3055333,27.8666667 20.9,27.8666667 L8.43333333,27.8666667 C8.0278,27.8666667 7.7,28.1952 7.7,28.6 C7.7,29.0048 8.0278,29.3333333 8.43333333,29.3333333 L20.9,29.3333333 C21.3055333,29.3333333 21.6333333,29.0048 21.6333333,28.6 L21.6333333,28.6 Z" id="Shape"></path>
                                <path d="M8.43333333,33.7333333 C8.0278,33.7333333 7.7,34.0618667 7.7,34.4666667 C7.7,34.8714667 8.0278,35.2 8.43333333,35.2 L18.7,35.2 C19.1055333,35.2 19.4333333,34.8714667 19.4333333,34.4666667 C19.4333333,34.0618667 19.1055333,33.7333333 18.7,33.7333333 L8.43333333,33.7333333 L8.43333333,33.7333333 Z" id="Shape"></path>
                                <path d="M1.83333333,1.46666667 L23.1,1.46666667 L23.1,11.7333333 L33.3666667,11.7333333 L33.3666667,24.2 L34.8333333,24.2 L34.8333333,10.6964 L24.1369333,0 L0.366666667,0 L0.366666667,44 L24.5666667,44 L24.5666667,42.5333333 L1.83333333,42.5333333 L1.83333333,1.46666667 L1.83333333,1.46666667 Z M24.5666667,2.5036 L32.3297333,10.2666667 L24.5666667,10.2666667 L24.5666667,2.5036 L24.5666667,2.5036 Z" id="Shape"></path>
                                <path d="M43.5988667,33.0740667 C43.5138,32.8049333 43.2806,32.6091333 43.0019333,32.5695333 L37.2988,31.7709333 L34.7526667,26.7996667 C34.5018667,26.3090667 33.6981333,26.3090667 33.4480667,26.7996667 L30.9019333,31.7709333 L25.1988,32.5695333 C24.9194,32.6084 24.6869333,32.8049333 24.6018667,33.0740667 C24.5168,33.3432 24.5930667,33.6372667 24.7991333,33.8308667 L28.9094667,37.6926 L27.94,43.1383333 C27.8916,43.4126 28.0016,43.6898 28.2245333,43.8555333 C28.4482,44.0212667 28.7459333,44.0462 28.9938,43.9208 L34.1007333,41.3328667 L39.2076667,43.9208 C39.3118,43.9736 39.4254667,44 39.5384,44 C39.6931333,44 39.8471333,43.9508667 39.9762,43.8555333 C40.1991333,43.6898 40.3091333,43.4126 40.2607333,43.1383333 L39.292,37.6926 L43.4023333,33.8308667 C43.6076667,33.6372667 43.6839333,33.3424667 43.5988667,33.0740667 L43.5988667,33.0740667 Z M37.9976667,36.8954667 C37.8172667,37.0648667 37.7344,37.3149333 37.7776667,37.5584 L38.5579333,41.9481333 L34.4307333,39.8566667 C34.3258667,39.8038667 34.2129333,39.7774667 34.0992667,39.7774667 C33.9856,39.7774667 33.8719333,39.8038667 33.7678,39.8566667 L29.6406,41.9481333 L30.4208667,37.5584 C30.4648667,37.3142 30.3812667,37.0648667 30.2008667,36.8954667 L26.9162667,33.8096 L31.4812667,33.1701333 C31.7174,33.1371333 31.9234667,32.9904667 32.032,32.7778 L34.0985333,28.7422667 L36.1650667,32.7778 C36.2736,32.9904667 36.4796667,33.1371333 36.7158,33.1701333 L41.2808,33.8096 L37.9976667,36.8954667 L37.9976667,36.8954667 Z" id="Shape"></path>
                            </g>
                        </g>
                    </g>
                </g>
            </g>
        </g>
    </g>
</svg>