<?xml version="1.0" encoding="UTF-8" standalone="no"?>
<svg width="55px" height="41px" viewBox="0 0 55 41" version="1.1" xmlns="http://www.w3.org/2000/svg" xmlns:xlink="http://www.w3.org/1999/xlink">
    <!-- Generator: Sketch 39.1 (31720) - http://www.bohemiancoding.com/sketch -->
    <title>tool</title>
    <desc>Created with Sketch.</desc>
    <defs></defs>
    <g id="Landing" stroke="none" stroke-width="1" fill="none" fill-rule="evenodd">
        <g id="Главная_Ленд_BIOTEK" transform="translate(-362.000000, -1292.000000)" fill="#FFFFFF">
            <g id="VIDEO" transform="translate(268.000000, 786.000000)">
                <g id="benefits" transform="translate(0.000000, 485.000000)">
                    <g id="tool" transform="translate(94.000000, 21.000000)">
                        <g id="Capa_1">
                            <path d="M54.8386985,18.5388333 L48.5002169,12.1696871 C48.6757158,11.6606637 49.0113232,10.5597778 49.1475705,9.24514035 C49.3742516,7.05667544 48.9359219,5.2360117 47.881974,3.93779825 C47.9850542,3.70282749 48.0405315,3.45227193 48.0486443,3.19991813 L49.547603,2.8204883 L49.6729935,3.567 C49.7123644,3.80113158 49.9143492,3.96680994 50.1429393,3.96680994 C50.1693059,3.96680994 50.1960304,3.96453216 50.2228742,3.95997661 L53.6174837,3.38417836 C53.8774512,3.3400614 54.0524729,3.09262281 54.0086876,2.83151754 L53.6119957,0.46994152 C53.5908785,0.34454386 53.5210846,0.232692982 53.4180043,0.158964912 C53.3148048,0.0853567251 53.1866703,0.0559853801 53.0619957,0.0768450292 L49.6672668,0.652643275 C49.5424729,0.673862573 49.4311605,0.743994152 49.3577874,0.847573099 C49.2844143,0.951152047 49.2550651,1.07990643 49.2760629,1.20530409 L49.3879718,1.87161404 L47.8490456,2.26111404 C47.6883406,1.93071637 47.4364859,1.63424561 47.0747505,1.42145322 C46.3990022,1.02392105 45.534154,1.06336257 44.9048156,1.53150585 C44.3427657,1.94965789 44.0773102,2.58527778 44.1012907,3.21166667 L43.0241974,3.48440058 L43.2574403,4.41445322 L44.3671041,4.13344737 C44.4509761,4.27850585 44.5525054,4.41589181 44.675987,4.54009064 C44.8403905,4.70528947 45.027462,4.83296491 45.2263449,4.9277924 C45.5819957,5.71014912 45.2139371,7.27426316 44.7824078,8.43377193 L38.4224512,2.04304678 C38.3329718,1.9531345 38.2115184,1.90254386 38.0849349,1.90254386 C37.9583514,1.90254386 37.8370174,1.9531345 37.7474187,2.04304678 L23.2917245,16.5690351 L21.4132538,14.6814766 C21.3237744,14.5915643 21.202321,14.5409737 21.0757375,14.5409737 C20.949154,14.5409737 20.82782,14.5915643 20.7382213,14.6814766 L20.2018221,15.2204708 L19.6908351,14.7068918 L21.2883406,13.1016579 C21.4746963,12.9144006 21.4746963,12.6108567 21.2883406,12.4235994 L19.7590781,10.8869386 C19.5727223,10.6996813 19.2705206,10.6996813 19.0841649,10.8869386 L15.2141215,14.7757047 C15.0277657,14.962962 15.0277657,15.2666257 15.2141215,15.4537632 L16.7433839,16.990424 C16.8365618,17.0840526 16.958731,17.1309269 17.0809002,17.1309269 C17.2030694,17.1309269 17.3251193,17.0840526 17.4184165,16.990424 L19.0159219,15.3851901 L19.5269089,15.898769 L18.9905098,16.4377632 C18.804154,16.6250205 18.804154,16.9285643 18.9905098,17.1158216 L19.8699132,17.9994795 L16.9761497,20.9073626 L16.6272993,20.5568246 C16.5310195,20.4600789 16.3981128,20.4079298 16.262462,20.4171608 L14.2759002,20.531769 C14.1589805,20.5384825 14.0486226,20.5882339 13.9658243,20.6714327 L5.91375271,28.7623392 C5.83095445,28.8454181 5.78156182,28.9564298 5.77476139,29.0739152 L5.6608243,31.0700877 C5.65306941,31.2066345 5.7036551,31.3399444 5.79981562,31.4366901 L6.21142082,31.8502865 L3.93876356,34.1340585 C3.80645336,34.2670088 3.75276573,34.465655 3.8174295,34.6421228 C3.97920824,35.0829327 3.87075922,35.5821257 3.54195228,35.9127632 C3.22113883,36.2350088 2.75250542,36.3468596 2.31942516,36.2045585 C2.10037961,36.1323889 1.8617679,36.2280556 1.7517679,36.4314971 L0.650455531,38.4691491 C0.549522777,38.655807 0.582928416,38.8869415 0.732418655,39.0370351 L1.01946855,39.3254737 L0.259013015,40.0896082 C0.0726572668,40.2768655 0.0726572668,40.5805292 0.259013015,40.7677865 L0.259013015,40.7677865 C0.445368764,40.9550439 0.747451193,40.9550439 0.933806941,40.7677865 L1.69426247,40.003652 L2.10586768,40.4172485 C2.19904555,40.5108772 2.32121475,40.5577515 2.44338395,40.5577515 C2.56555315,40.5577515 2.68760304,40.5108772 2.78090022,40.4172485 L8.75895879,34.410269 L9.16638829,34.8196696 C9.26004338,34.9137778 9.38781996,34.9674854 9.52024946,34.9641287 C9.5252603,34.9640088 9.53027115,34.963769 9.535282,34.9634094 L11.5218438,34.8489211 C11.6387636,34.8422076 11.7491215,34.7924561 11.8319197,34.7092573 L19.8839913,26.618231 C19.9667896,26.535152 20.0161822,26.4241404 20.0229826,26.306655 L20.137039,24.3104825 C20.1447939,24.1739357 20.0942082,24.0406257 19.9980477,23.9438801 L19.6491974,23.5933421 L22.542961,20.6854591 L23.4223644,21.569117 C23.5118438,21.6590292 23.6332972,21.7096199 23.7598807,21.7096199 C23.8864642,21.7096199 24.0077983,21.6590292 24.097397,21.569117 L25.8451085,19.8129503 C26.0314642,19.625693 26.0314642,19.3221491 25.8451085,19.1348918 L23.9666377,17.2473333 L24.1656399,17.0473684 L40.2443709,33.2040058 C40.3338503,33.2939181 40.4553037,33.3445088 40.5818872,33.3445088 C40.7084707,33.3445088 40.8298048,33.2939181 40.9194035,33.2040058 L54.8388178,19.2171316 C55.0250542,19.0297544 55.0250542,18.7260906 54.8386985,18.5388333 L54.8386985,18.5388333 Z M52.7503688,1.10256433 L52.9881453,2.51850292 L50.5346204,2.93461696 L50.2967245,1.51867836 L52.7503688,1.10256433 L52.7503688,1.10256433 Z M17.0810195,15.9732164 L16.226551,15.1147339 L19.4216811,11.9042661 L20.2761497,12.7627485 L17.0810195,15.9732164 L17.0810195,15.9732164 Z M2.44338395,39.3998012 L1.65930586,38.6120497 L2.41892625,37.2064211 C3.07486985,37.2923772 3.73725597,37.0725117 4.2167462,36.5907018 C4.73095445,36.073886 4.94546638,35.328693 4.80158351,34.6231813 L6.88597614,32.5287047 L8.08368764,33.7320906 L2.44338395,39.3998012 L2.44338395,39.3998012 Z M19.0804664,26.0691667 L11.2856182,33.901845 L9.69407809,33.9936754 L6.62600868,30.9106433 L6.71727766,29.3114035 L14.5122451,21.478845 L16.1036659,21.3870146 L19.1717354,24.4699269 L19.0804664,26.0691667 L19.0804664,26.0691667 Z M18.9742842,22.9150439 L17.6511822,21.5855409 L20.5449458,18.6776579 L21.8680477,20.0071608 L18.9742842,22.9150439 L18.9742842,22.9150439 Z M23.7598807,20.5517895 L20.0030586,16.7767924 L21.0759761,15.6988041 L24.8327983,19.4738012 L23.7598807,20.5517895 L23.7598807,20.5517895 Z M45.3510195,2.40785088 C45.5504989,2.20740643 45.8126139,2.10718421 46.0746095,2.10718421 C46.3366052,2.10718421 46.5988395,2.20740643 46.7981996,2.40785088 C47.1972777,2.80885965 47.1972777,3.46126316 46.7981996,3.86227193 C46.3992408,4.26316082 45.749859,4.26316082 45.3509002,3.86227193 C44.9520607,3.46126316 44.9520607,2.80873977 45.3510195,2.40785088 L45.3510195,2.40785088 Z M46.0538503,7.57457018 C46.315846,6.58385673 46.3875488,5.76002047 46.2708677,5.11145322 C46.6280694,5.07596784 46.9764425,4.94181871 47.2750651,4.71200292 C48.8296204,6.83249415 48.1541106,10.0047193 47.7397614,11.4055526 L45.5162581,9.1712924 C45.6550108,8.83106433 45.8769197,8.24399708 46.0538503,7.57457018 L46.0538503,7.57457018 Z M48.6454121,18.8154035 L40.5192516,26.9808772 L36.013308,22.4531345 L44.1394685,14.2876608 L48.6454121,18.8154035 L48.6454121,18.8154035 Z M38.5835141,26.3921316 L38.0726464,26.9054708 L36.0884707,24.9116959 L36.5993384,24.3983567 L38.5835141,26.3921316 L38.5835141,26.3921316 Z M39.258308,27.0701901 L40.1817354,27.9980848 C40.2712148,28.0879971 40.3926681,28.1385877 40.5192516,28.1385877 C40.6458351,28.1385877 40.7671692,28.0879971 40.8567679,27.9980848 L49.6578416,19.1543129 C49.8441974,18.9670556 49.8441974,18.6633918 49.6578416,18.4762544 L48.7344143,17.5483596 L49.245282,17.0350205 L50.7672668,18.5643684 L40.2694252,29.1128772 L38.7474403,27.5835292 L39.258308,27.0701901 L39.258308,27.0701901 Z M48.0595011,16.8703012 L46.0753254,14.8765263 L46.5863124,14.3631871 L48.5704881,16.356962 L48.0595011,16.8703012 L48.0595011,16.8703012 Z M45.4004121,14.198348 L44.4769848,13.2704532 C44.3875054,13.1805409 44.2660521,13.1299503 44.1394685,13.1299503 C44.012885,13.1299503 43.891551,13.1805409 43.8019523,13.2704532 L35.0008785,22.1142251 C34.8145228,22.3014825 34.8145228,22.6051462 35.0008785,22.7922836 L35.9243059,23.7201784 L35.4134382,24.2335175 L31.9436659,20.7469591 L32.4545336,20.2336199 L33.377961,21.1615146 C33.4674403,21.2514269 33.5888937,21.3020175 33.7154772,21.3020175 C33.8420607,21.3020175 33.9633948,21.2514269 34.0529935,21.1615146 L42.8541866,12.3177427 C42.9436659,12.2278304 42.9938937,12.1057895 42.9938937,11.9787135 C42.9938937,11.8516374 42.9436659,11.7295965 42.8541866,11.6396842 L41.9307592,10.7117895 L42.4416269,10.1984503 L45.9113991,13.6850088 L45.4004121,14.198348 L45.4004121,14.198348 Z M41.841757,11.9787135 L33.7154772,20.1441871 L29.2095336,15.6164444 L37.3356941,7.45109064 L41.841757,11.9787135 L41.841757,11.9787135 Z M31.7797397,19.5555614 L31.268872,20.0689006 L29.2846963,18.0751257 L29.795564,17.5617865 L31.7797397,19.5555614 L31.7797397,19.5555614 Z M41.2557267,10.0336111 L39.271551,8.03995614 L39.782538,7.52649708 L41.7667137,9.52027193 L41.2557267,10.0336111 L41.2557267,10.0336111 Z M38.596757,7.36177778 L37.6733297,6.43388304 C37.4868547,6.24650585 37.1847722,6.24662573 36.9984165,6.43388304 L28.1973427,15.2775351 C28.010987,15.4647924 28.010987,15.7684561 28.1973427,15.9555936 L29.1207701,16.8834883 L28.6099024,17.3968275 L26.2137636,14.9890965 L36.7116052,4.44046784 L39.107744,6.84819883 L38.596757,7.36177778 L38.596757,7.36177778 Z M40.5817679,32.1865585 L24.8404338,16.3691901 L25.5388503,15.6673947 L39.9319089,30.1302047 C40.0213883,30.220117 40.1428416,30.2707076 40.2694252,30.2707076 C40.3960087,30.2707076 40.5173427,30.220117 40.6069414,30.1302047 L51.779577,18.9035175 C51.9659328,18.7162602 51.9659328,18.4125965 51.779577,18.2254591 L37.3863991,3.76252924 L38.0850542,3.06049415 L53.8263883,18.8778626 L40.5817679,32.1865585 L40.5817679,32.1865585 Z" id="Shape"></path>
                        </g>
                    </g>
                </g>
            </g>
        </g>
    </g>
</svg>