<?xml version="1.0" encoding="UTF-8" standalone="no"?>
<svg width="181px" height="138px" viewBox="0 0 181 138" version="1.1" xmlns="http://www.w3.org/2000/svg" xmlns:xlink="http://www.w3.org/1999/xlink">
    <!-- Generator: Sketch 39.1 (31720) - http://www.bohemiancoding.com/sketch -->
    <title>parker_</title>
    <desc>Created with Sketch.</desc>
    <defs></defs>
    <g id="Page-1" stroke="none" stroke-width="1" fill="none" fill-rule="evenodd">
        <g id="present_land_v4" transform="translate(-373.000000, -197.000000)" fill="#A78A4D">
            <g id="slider_fullheight" transform="translate(0.000000, 1.000000)">
                <g id="slider">
                    <g id="parker_" transform="translate(373.000000, 196.000000)">
                        <g id="Слой_x0020_1">
                            <path d="M88.0756964,0.226412171 C88.2384814,-0.0548994092 88.6997054,-0.0821231106 88.8896211,0.190113903 C89.1157113,0.489574617 89.2332782,0.861631868 89.3598887,1.20646542 C89.9838977,2.93970774 90.2913803,4.75462116 90.644081,6.55138544 C90.9153893,8.06683815 91.1866975,9.58229086 91.3585261,11.1068181 C91.3947005,11.5877702 91.5032238,12.0959459 91.3223516,12.5678234 C91.060087,13.2302668 90.4722525,13.6930698 89.8572872,14.0106796 C89.884418,15.8709659 89.9205924,17.7312521 89.9205924,19.5915384 C98.6838484,19.6278366 107.456148,20.0997141 116.174186,21.0797674 C123.110633,21.8692547 130.019949,22.9763519 136.811699,24.5916249 C141.342546,25.6805729 145.819132,26.9873106 150.15102,28.7114783 C153.451937,30.0454397 156.689549,31.6244144 159.565416,33.7387885 C161.048568,34.8458857 162.43224,36.1163251 163.490342,37.6408523 C164.349485,38.884068 164.973494,40.3178496 165.100104,41.8423769 C165.244802,43.4485753 164.810709,45.0638482 164.014871,46.452257 C163.128598,48.004008 161.88058,49.3198202 160.514995,50.4541411 C157.955654,52.5503661 155.007438,54.1111916 151.995916,55.4360784 C148.242819,57.0785751 144.335981,58.3490145 140.383924,59.428888 C135.53655,60.7447002 130.59874,61.7429026 125.642843,62.5596136 C119.646931,63.5305923 113.596758,64.2111848 107.53754,64.6649132 C102.382684,65.0369704 97.2097403,65.2819838 92.0367966,65.3273566 C91.0239126,64.165812 90.0200721,62.9861183 89.007188,61.8245737 C88.9438828,61.7610517 88.9167519,61.6884552 88.9257956,61.6067841 C88.7901414,42.5229695 88.6725745,23.4300803 88.5278768,4.34626564 C88.4736152,4.43701131 88.4464843,4.52775698 88.4464843,4.63665178 C88.4193535,10.75291 88.3560483,16.8691682 88.3289174,22.9854265 C88.2836994,24.0925237 88.3470047,25.1996208 88.292743,26.306718 C88.2656122,33.4121041 88.1842197,40.5265647 88.1570889,47.6319507 C88.1118709,48.7662716 88.1751761,49.9005925 88.1209145,51.0258388 C88.1118709,54.5921437 88.0666528,58.1584486 88.0576092,61.7247534 C87.0266379,62.9316709 85.9775794,64.1295137 84.9466081,65.3364312 C76.1110033,65.1912381 67.2753985,64.6739878 58.5121425,63.5850397 C50.6803781,62.6049865 42.8847882,61.2165777 35.2791141,59.0659053 C31.5260168,57.9951064 27.809094,56.7337415 24.2549561,55.109394 C21.5418738,53.8571038 18.8920967,52.4142476 16.5588459,50.5176631 C15.1570867,49.365193 13.8728944,48.0221571 12.9685336,46.4341079 C12.1365217,44.9821771 11.7114721,43.267084 11.9285187,41.5973636 C12.1365217,39.8368976 12.9956644,38.2125501 14.1080282,36.8604396 C16.0071858,34.546425 18.539396,32.8494809 21.1349114,31.4066247 C24.4448719,29.5917113 27.9718789,28.2123771 31.5531476,27.0326834 C39.1045602,24.5734757 46.9272809,23.0126502 54.7771325,21.8692547 C63.6850862,20.5897408 72.6744323,19.9182228 81.6728221,19.6732095 C83.4725,19.6369112 85.2631344,19.5915384 87.0628123,19.6006129 C87.1080304,17.7403267 87.1261176,15.8800404 87.1351612,14.0197542 C86.4388034,13.6476969 85.7243584,13.0669246 85.6067915,12.241139 C85.5615735,11.6785159 85.6610531,11.1249673 85.7243584,10.5714187 C85.986623,8.55686477 86.3574109,6.55138544 86.7643733,4.55498068 C86.9723763,3.57492743 87.1713356,2.59487419 87.5059491,1.65111921 C87.6687341,1.17016715 87.8134318,0.671065959 88.0937836,0.235486738 L88.0756964,0.226412171 Z M72.3669497,22.5498473 C64.1643974,23.2939618 55.9799323,24.5825503 48.0306011,26.7876701 C44.295591,27.8403199 40.6148427,29.1016847 37.0968792,30.7351068 C34.1396195,32.1235155 31.245665,33.7569376 28.8491089,36.0165048 C27.6643963,37.1508257 26.5972506,38.466638 26.0003724,40.0183889 C25.457756,41.3886486 25.3763635,42.9403995 25.8104567,44.356032 C26.3349859,46.0983489 27.4744805,47.5775033 28.7586728,48.8297936 C31.08288,51.043988 33.8954421,52.6683355 36.7713093,54.0476697 C40.3435344,55.7355392 44.0966317,57.0332023 47.9039905,58.1130757 C51.8017855,59.2110984 55.7628857,60.0641077 59.7601604,60.7537748 C68.1074104,62.1784818 76.5722273,62.8953726 85.0370442,63.0496402 C85.064175,61.9516176 85.1003495,60.853595 85.1093931,59.7555724 C85.1636547,58.2854925 85.4168757,56.8335618 85.7062712,55.3997802 C86.0680155,53.6120905 86.3845418,51.8062516 86.447847,49.973189 C86.6468064,45.3451598 86.7191552,40.708056 86.8095913,36.0800268 C86.9000274,31.3340282 86.9633327,26.5880296 87.0356815,21.842031 C86.6468064,21.8783293 86.2488876,21.8601802 85.8600125,21.8601802 C81.3562958,21.9237021 76.8525791,22.1505663 72.3669497,22.5498473 L72.3669497,22.5498473 Z M89.9748541,21.842031 C90.0291157,26.9419377 90.1285954,32.0327699 90.2099879,37.1326766 C90.3094675,41.588289 90.3637292,46.0439015 90.5807758,50.4904394 C90.7254735,53.7028361 91.8287937,56.7881889 91.9011425,60.0096603 C91.9011425,61.0260118 91.937317,62.0332887 91.9734914,63.0496402 C100.221262,62.9135217 108.459988,62.2147801 116.599235,60.8717441 C121.89879,59.973362 127.162169,58.8027428 132.280851,57.1511716 C136.115341,55.8988814 139.886526,54.4106524 143.386402,52.3960985 C145.375995,51.2345539 147.284197,49.8915179 148.866828,48.2036485 C150.160064,46.8152397 151.236253,45.1001465 151.444256,43.1672637 C151.625128,41.6064382 151.172948,40.0365381 150.368067,38.7025767 C149.300921,36.9421107 147.754464,35.5264782 146.117571,34.3104862 C142.834742,31.9238751 139.099732,30.2360056 135.31046,28.8203731 C129.088458,26.5426568 122.604191,25.0544278 116.08375,23.9745543 C107.456148,22.5589218 98.7109792,21.9237021 89.9748541,21.8329565 L89.9748541,21.842031 Z M85.0370442,66.262037 C86.0499283,65.1004924 87.0447251,63.9298733 88.0576092,62.7683287 C88.0304784,63.5305923 88.039522,64.3019305 88.0304784,65.0641941 C86.9452454,66.3164844 85.8600125,67.5687747 84.7838232,68.8301395 C84.8019104,68.0769504 84.8380848,67.3237614 84.8742593,66.5705723 C84.856172,66.4435283 84.9556517,66.3527827 85.0280006,66.262037 L85.0370442,66.262037 Z M88.9529264,65.046045 C88.96197,64.2837814 88.9438828,63.5305923 88.9348392,62.7683287 C90.0110285,63.9933952 91.060087,65.2366109 92.1272327,66.4616775 C92.1362763,67.2511648 92.1995816,68.0406522 92.2176688,68.8392141 C91.1233923,67.5778492 90.0381593,66.3164844 88.9529264,65.046045 L88.9529264,65.046045 Z M84.7386051,69.9190875 C85.8419253,68.6486481 86.9271582,67.3600596 88.039522,66.1077694 C88.0033476,66.870033 88.0304784,67.6322966 88.0214348,68.3945603 C86.8909838,69.7012979 85.7605328,71.0171102 84.6300818,72.3238478 L84.7386051,69.9281621 L84.7386051,69.9190875 Z M88.9529264,66.0896202 C90.0743337,67.3600596 91.1686103,68.6577227 92.280974,69.9372367 C92.2990613,70.726724 92.3623665,71.5252859 92.3714101,72.3147733 C91.2409592,71.0171102 90.1285954,69.6922234 88.9800572,68.4036348 C88.96197,67.6322966 88.9891008,66.8609584 88.9438828,66.0896202 L88.9529264,66.0896202 Z M84.5667766,73.5942872 C85.7153148,72.2694004 86.863853,70.9445136 88.0033476,69.6105523 C88.0123912,70.3092939 87.994304,71.0080356 88.0123912,71.6977027 C86.8457658,73.0770369 85.6610531,74.438222 84.4763405,75.799407 C84.5125149,75.0643671 84.5486894,74.3293272 84.5667766,73.5942872 L84.5667766,73.5942872 Z M88.9891008,69.6014777 C90.1466826,70.9263645 91.2861772,72.2694004 92.443759,73.5942872 C92.488977,74.3384017 92.5070642,75.0825162 92.5522823,75.8266307 C91.3675697,74.4563711 90.1738134,73.0861115 88.9981444,71.7067773 C88.9981444,71.0080356 89.0162316,70.3002194 88.9800572,69.6014777 L88.9891008,69.6014777 Z M89.0252752,75.0371434 C89.0343188,74.2839543 89.0252752,73.5398398 89.0252752,72.7957253 C90.2099879,74.1841341 91.4037441,75.5543937 92.5884567,76.9428025 C92.6336748,77.7322898 92.6608056,78.5127026 92.69698,79.3021899 C91.4670493,77.8865575 90.2461623,76.4618504 89.0252752,75.046218 L89.0252752,75.0371434 Z M84.5034713,76.8339077 C85.6610531,75.4908717 86.8186349,74.1478358 87.9762167,72.8047999 L87.9762167,75.0552925 C86.7462861,76.4527759 85.5525298,77.8774829 84.3225992,79.2749662 C84.3587736,78.5943737 84.3859044,77.9047066 84.4130353,77.2241141 C84.4220789,77.0879956 84.394948,76.9337279 84.5034713,76.8339077 L84.5034713,76.8339077 Z M84.2773811,80.4002126 C85.4892246,78.9664309 86.7281989,77.5507985 87.9581295,76.1260914 C87.9490859,76.8702059 87.9671731,77.6143205 87.9490859,78.358435 C86.7191552,79.846664 85.4349629,81.2804456 84.1869451,82.7505254 C84.2050323,81.9701127 84.2412067,81.1896999 84.2773811,80.4002126 L84.2773811,80.4002126 Z M89.0433625,76.0988677 C90.2552059,77.5507985 91.5122674,78.9664309 92.742198,80.4092871 C92.7693289,81.1896999 92.8055033,81.9791872 92.8326341,82.7596 C91.566529,81.3076693 90.3185112,79.8375894 89.0433625,78.3765841 C89.0343188,77.6143205 89.0433625,76.8520568 89.0433625,76.0988677 L89.0433625,76.0988677 Z M84.1688578,83.8213244 C85.4168757,82.3512445 86.6829808,80.8993137 87.9400423,79.447383 C87.9309987,80.2005721 87.9400423,80.9628357 87.9400423,81.7160248 C86.6468064,83.1861047 85.3897449,84.6924828 84.0874654,86.1625627 C84.1145962,85.3821499 84.096509,84.6017371 84.1779015,83.8213244 L84.1688578,83.8213244 Z M89.0704933,79.447383 C90.3275548,80.9174629 91.6117471,82.3784682 92.8597649,83.8576226 C92.9140266,84.6289608 92.904983,85.4093736 92.9411574,86.1897864 C91.982535,85.0917637 91.0329562,83.975592 90.0743337,82.8684948 C89.7487639,82.4692139 89.3779759,82.0971566 89.0795369,81.6797265 C89.0614497,80.935612 89.0704933,80.1914975 89.0704933,79.4383084 L89.0704933,79.447383 Z M84.0512909,87.2333616 C85.5344426,85.5182684 87.0175943,83.8031752 88.4917024,82.088082 C89.9929413,83.8122498 91.4851366,85.5364175 92.9592446,87.2787344 C92.9321138,87.496524 92.9140266,87.7324628 92.7602853,87.9048795 C92.5070642,88.1589674 92.1272327,88.2406385 91.7835756,88.2406385 L85.1546111,88.2406385 C84.8019104,88.231564 84.4039917,88.1317437 84.1869451,87.8232084 C84.0603346,87.6507917 84.0512909,87.4330021 84.0422473,87.2333616 L84.0512909,87.2333616 Z M0,107.868927 L7.68706663,107.868927 C9.80327086,107.878002 11.9285187,107.841703 14.0447229,107.923375 C16.1157091,108.032269 18.2228697,108.33173 20.1129838,109.221038 C21.4152633,109.829034 22.5909323,110.809087 23.2511157,112.10675 C23.9926915,113.57683 24.0921712,115.291923 23.7937321,116.889047 C23.5043367,118.449872 22.6451939,119.883654 21.4514377,120.918155 C20.176289,122.043401 18.6117449,122.769366 17.0019827,123.277542 C14.8405604,123.94906 12.5706149,124.248521 10.3097129,124.330192 C8.49194773,124.357416 6.67418256,124.330192 4.85641739,124.212223 C4.84737378,126.544386 4.865461,128.885625 4.96494069,131.217788 C5.04633316,133.422908 5.18198727,135.637103 5.30859778,137.842222 C3.53605065,137.824073 1.76350352,137.851297 0,137.833148 C0.144697725,135.47376 0.253221019,133.123447 0.316526273,130.76406 C0.406962351,128.150585 0.361744312,125.537109 0.37078792,122.923634 C0.361744312,120.772962 0.388875136,118.613215 0.352700704,116.462542 C0.298439058,113.594979 0.162784941,110.73649 0,107.878002 L0,107.868927 Z M4.85641739,109.511424 L4.85641739,122.37916 C7.63280499,122.841963 10.5177159,122.887336 13.2669727,122.197669 C14.9309965,121.762089 16.5859767,120.972602 17.6892969,119.602342 C18.7112246,118.340978 19.1000997,116.671257 19.0096636,115.074133 C18.9644456,113.99426 18.7112246,112.878088 18.0691284,111.997855 C17.3275526,110.945205 16.1066655,110.346284 14.8948221,110.028674 C13.004708,109.538648 11.0241579,109.520498 9.07978224,109.529573 L4.85641739,109.529573 L4.85641739,109.511424 Z M153.271065,107.868927 L161.437443,107.868927 C163.417993,107.878002 165.3895,107.832629 167.37005,107.923375 C169.386774,108.041344 171.43063,108.340805 173.284569,109.193814 C174.568761,109.783661 175.74443,110.73649 176.377483,112.025079 C177.037666,113.422562 177.128102,115.065059 176.703053,116.544213 C176.296091,117.914473 175.373643,119.085092 174.252235,119.956251 C173.013261,120.936304 171.55724,121.616896 170.065045,122.125072 C168.69946,122.5788 167.288657,122.887336 165.859767,123.032529 C167.198221,124.330192 168.500501,125.673228 169.820867,126.98904 C172.145075,129.312129 174.478325,131.635218 176.82062,133.940158 C178.168117,135.255971 179.524659,136.571783 180.917374,137.833148 C178.80117,137.824073 176.684966,137.833148 174.577805,137.833148 C174.324584,137.887595 174.225104,137.606284 174.080407,137.470165 C171.765243,134.775019 169.332513,132.170618 166.836477,129.638814 C164.702185,127.479067 162.522676,125.355618 160.171338,123.440884 L158.073221,123.440884 C158.073221,125.627855 158.055134,127.805751 158.136526,129.992722 C158.208875,132.615272 158.37166,135.228747 158.516358,137.842222 C156.761898,137.833148 155.016481,137.842222 153.262021,137.842222 C153.415763,135.37394 153.551417,132.905658 153.632809,130.428301 C153.732289,128.077988 153.687071,125.718601 153.696115,123.359213 C153.687071,121.054273 153.723245,118.758408 153.668984,116.453468 C153.587591,113.585904 153.43385,110.727416 153.252978,107.868927 L153.271065,107.868927 Z M158.407834,109.729213 C158.335485,111.362636 158.236006,112.986983 158.181744,114.620405 C158.082264,116.943494 158.064177,119.266583 158.082264,121.580598 C159.655852,121.816537 161.247527,121.825611 162.830159,121.771164 C164.883058,121.653195 166.954044,121.281137 168.807983,120.355532 C170.110263,119.693088 171.294975,118.667662 171.846636,117.279253 C172.425426,115.818248 172.398296,114.066857 171.629589,112.678448 C170.9061,111.398934 169.585734,110.600372 168.229192,110.146644 C166.076814,109.420678 163.770694,109.447902 161.527879,109.529573 C160.487864,109.565871 159.447849,109.620319 158.416878,109.711064 L158.407834,109.729213 Z M25.1140989,137.833148 C30.0428651,128.731357 34.8902389,119.593268 39.6110022,110.382582 C39.9456157,110.382582 40.2802292,110.364433 40.6148427,110.400731 C43.4816663,116.144932 46.3213592,121.907282 49.2062701,127.642409 C50.9516864,131.054446 52.642841,134.502782 54.5510423,137.833148 L49.4685347,137.833148 C48.6817408,135.491909 47.5693771,133.28679 46.5112749,131.063521 C45.9143968,129.847529 45.3265623,128.631537 44.7296842,127.415545 C42.7491341,127.397396 40.7595404,127.333874 38.7789903,127.352023 C36.9160071,127.333874 35.0530239,127.397396 33.1900406,127.415545 C31.9962844,129.920125 30.8115718,132.442855 29.7715569,135.020032 C29.400769,135.945638 29.0299811,136.871244 28.7405856,137.824073 C27.5377858,137.833148 26.3349859,137.824073 25.1321861,137.824073 L25.1140989,137.833148 Z M38.9960369,115.927143 C37.3772311,119.112316 35.7493817,122.288414 34.1396195,125.473587 C35.5323351,125.500811 36.9340943,125.528035 38.3268099,125.564333 C40.2169239,125.564333 42.1070379,125.537109 43.997152,125.473587 C42.3873898,122.361011 40.768584,119.257509 39.1678654,116.135858 C39.1136038,116.063261 39.1045602,115.936217 39.0050805,115.927143 L38.9960369,115.927143 Z M62.0934112,110.881683 L71.5891994,110.881683 C73.2984413,110.85446 75.0167267,110.881683 76.6988378,111.244666 C78.2543383,111.571351 79.8369697,112.170272 80.9583771,113.340891 C81.8717815,114.275572 82.3239619,115.591384 82.3420491,116.879972 C82.3782235,117.959846 82.1250025,119.057868 81.5733424,119.992549 C80.8769846,121.190392 79.7827081,122.097848 78.5979954,122.778441 C76.8706663,123.74942 74.9443779,124.302968 72.9909586,124.566131 C75.8035206,127.533514 78.5708646,130.54627 81.4015139,133.504579 C82.7942295,134.965585 84.1869451,136.42659 85.6429659,137.824073 L79.9726238,137.824073 C77.5398933,134.775019 74.9534215,131.862083 72.2765136,129.021743 C70.9199724,127.606111 69.5363004,126.217702 68.0621923,124.938188 C67.5105323,124.929113 66.9588722,124.938188 66.4072121,124.938188 C66.3891249,127.814826 66.4072121,130.691463 66.5609535,133.559027 C66.6242587,134.983734 66.6966076,136.399366 66.7870436,137.814999 L62.1024548,137.814999 C62.283327,134.711497 62.4370683,131.59892 62.4732427,128.486344 C62.4461119,124.321117 62.5455916,120.155891 62.3647194,115.990665 C62.2923706,114.284646 62.2019345,112.569553 62.1024548,110.863534 L62.0934112,110.881683 Z M66.6694767,112.660299 C66.6061715,114.302795 66.5066918,115.954366 66.4614738,117.596863 C66.3891249,119.457149 66.4072121,121.308361 66.3981685,123.168647 C67.1307007,123.277542 67.8813202,123.33199 68.622896,123.33199 C70.0427425,123.386437 71.4806761,123.277542 72.8733917,122.950858 C74.1394968,122.642322 75.3965583,122.143221 76.4003987,121.281137 C77.386152,120.455352 78.0192045,119.230285 78.100597,117.950771 C78.2362511,116.589586 77.8112016,115.128581 76.7802303,114.202975 C75.4869944,113.032356 73.7054036,112.633075 72.0232926,112.506031 C70.2326582,112.42436 68.4420239,112.52418 66.6604331,112.660299 L66.6694767,112.660299 Z M93.3933378,110.890758 L98.068883,110.890758 C97.9241853,113.413488 97.7975748,115.945292 97.7252259,118.477096 C97.6800079,121.390032 97.7161823,124.293894 97.6980951,127.20683 C97.6709643,130.754985 97.8699237,134.303141 98.0598394,137.842222 L93.3752506,137.842222 C93.5018611,135.573581 93.6284716,133.304939 93.6917769,131.036297 C93.7822129,128.395598 93.7369949,125.745824 93.7460385,123.096051 C93.7912566,119.02157 93.6013408,114.956164 93.3752506,110.890758 L93.3933378,110.890758 Z M113.651019,110.890758 L118.028125,110.890758 C115.342174,112.905312 112.692397,114.974313 110.087838,117.097762 C107.727456,119.02157 105.394205,120.990751 103.169478,123.068827 C108.279116,127.987242 113.370667,132.932882 118.489349,137.842222 L112.963705,137.842222 C110.530975,135.328567 108.0892,132.823987 105.638383,130.337555 C103.404612,128.105212 101.207015,125.845645 98.8647205,123.722196 C101.424062,121.807462 103.856792,119.738461 106.271435,117.642236 C108.776515,115.446191 111.236376,113.195698 113.651019,110.890758 L113.651019,110.890758 Z M125.769454,110.890758 C131.304142,110.899833 136.847873,110.890758 142.382561,110.890758 C142.35543,111.716544 142.35543,112.551404 142.382561,113.386264 C140.356793,113.25922 138.331025,113.095878 136.305257,112.996058 C134.288532,112.896237 132.280851,112.859939 130.264127,112.878088 C130.209865,114.103155 130.137516,115.319147 130.092298,116.544213 C130.04708,118.622289 130.119429,120.691291 130.110386,122.769366 C133.845396,122.778441 137.589449,122.651397 141.315416,122.370085 C141.315416,123.223095 141.324459,124.067029 141.306372,124.920039 C139.04547,124.720398 136.775524,124.675025 134.514623,124.611503 C133.049558,124.593354 131.57545,124.547982 130.110386,124.566131 C130.056124,125.73675 130.110386,126.907369 130.065167,128.077988 C130.074211,130.673314 130.074211,133.268641 130.155604,135.854892 C132.606421,135.863967 135.048195,135.845818 137.489969,135.755072 C139.199211,135.673401 140.917497,135.618953 142.608651,135.328567 C142.599608,136.172502 142.599608,137.007362 142.608651,137.851297 C136.992571,137.833148 131.385534,137.842222 125.769454,137.851297 C125.887021,135.555431 126.022675,133.259566 126.08598,130.9637 C126.167372,128.522642 126.149285,126.072509 126.149285,123.63145 C126.158329,121.498927 126.140242,119.375478 126.067893,117.242955 C125.995544,115.119506 125.877977,113.005132 125.76041,110.890758 L125.769454,110.890758 Z" id="Shape"></path>
                        </g>
                    </g>
                </g>
            </g>
        </g>
    </g>
</svg>