<?xml version="1.0" encoding="iso-8859-1"?>
<!-- Generator: Adobe Illustrator 19.0.0, SVG Export Plug-In . SVG Version: 6.00 Build 0)  -->
<svg version="1.1" id="Layer_1" xmlns="http://www.w3.org/2000/svg" xmlns:xlink="http://www.w3.org/1999/xlink" x="0px" y="0px"
	 viewBox="0 0 489.641 489.641" style="enable-background:new 0 0 489.641 489.641;" xml:space="preserve">
<g>
	<path style="fill:#71D1D1;" d="M443.587,466.705c0,4.215,3.429,7.645,7.645,7.645c4.215,0,7.646-3.43,7.646-7.645v-84.093h-15.29
		L443.587,466.705L443.587,466.705z"/>
	<path style="fill:#FBB03B;" d="M429.613,474.35c-0.848-2.393-1.315-4.965-1.315-7.645V107.396h-68.325v267.571h7.166
		c4.223,0,7.645,3.422,7.645,7.645v45.87v22.935c0,4.222-3.422,7.645-7.645,7.645h-7.166v15.29h69.64V474.35z M382.429,390.256
		c0-4.222,3.422-7.645,7.645-7.645c4.222,0,7.645,3.422,7.645,7.645v30.579c0,4.222-3.422,7.645-7.645,7.645
		c-4.222,0-7.645-3.422-7.645-7.645V390.256z"/>
	<rect x="283.41" y="459.06" style="fill:#FCC062;" width="76.563" height="15.29"/>
	<rect x="283.41" y="436.125" style="fill:#FCC062;" width="76.084" height="7.645"/>
	<path style="fill:#FCC062;" d="M336.559,107.396c-4.223,0-7.645-3.422-7.645-7.645V15.657H283.41v359.309h76.563v-267.57H336.559z"
		/>
	<rect x="131.559" style="fill:#FDD089;" width="151.85" height="0.368"/>
	<path style="fill:#FDD089;" d="M283.41,459.06h-0.365c-4.222,0-7.645-3.422-7.645-7.645c0-4.222,3.422-7.645,7.645-7.645h0.365
		v-7.645h-46.234c-4.222,0-7.645-3.422-7.645-7.645v-0.001h-91.739v38.224c0,4.215,3.43,7.645,7.645,7.645H283.41V459.06z"/>
	<polygon style="fill:#A0E0E0;" points="137.792,413.191 221.886,413.191 221.886,397.901 99.568,397.901 99.568,413.191 
		122.503,413.191 	"/>
	<rect x="265.512" y="390.256" style="fill:#71D1D1;" width="93.982" height="30.58"/>
	<rect x="244.821" y="390.256" style="fill:#A0E0E0;" width="20.691" height="30.58"/>
	<polygon style="fill:#D0F0F0;" points="84.278,411.305 84.278,399.787 58.36,405.546 	"/>
	<polygon style="fill:#A0E0E0;" points="416.386,92.106 344.203,25.494 344.203,92.106 	"/>
	<path d="M466.522,367.322h-22.935V99.751c0-0.268-0.014-0.533-0.041-0.793c-0.001-0.012-0.004-0.024-0.005-0.036
		c-0.027-0.251-0.066-0.499-0.117-0.743c-0.002-0.011-0.006-0.021-0.008-0.032c-0.052-0.244-0.115-0.484-0.19-0.719
		c-0.01-0.033-0.025-0.065-0.036-0.098c-0.07-0.21-0.147-0.418-0.234-0.619c-0.025-0.058-0.056-0.113-0.082-0.171
		c-0.08-0.172-0.162-0.343-0.254-0.508c-0.043-0.077-0.092-0.15-0.137-0.225c-0.085-0.141-0.171-0.281-0.264-0.415
		c-0.059-0.084-0.122-0.164-0.184-0.246c-0.091-0.12-0.183-0.24-0.28-0.354c-0.07-0.082-0.144-0.16-0.218-0.24
		c-0.102-0.109-0.205-0.216-0.313-0.32c-0.033-0.032-0.062-0.067-0.096-0.098L341.716,2.395c-1.412-1.303-3.262-2.027-5.184-2.027
		H283.41H131.56h-1.412c-4.222,0-7.645,3.422-7.645,7.645v374.599H91.982c-0.007,0-0.015,0-0.022,0h-0.036
		c-0.268,0-0.533,0.014-0.794,0.041c-0.041,0.004-0.082,0.014-0.123,0.019c-0.237,0.028-0.472,0.066-0.702,0.115
		c-0.013,0.003-0.027,0.004-0.04,0.007L21.46,398.083c-3.498,0.777-5.986,3.88-5.986,7.463s2.488,6.686,5.986,7.463l68.804,15.29
		c0.014,0.003,0.027,0.004,0.041,0.007c0.206,0.044,0.416,0.076,0.627,0.104c0.061,0.008,0.121,0.021,0.181,0.028
		c0.227,0.024,0.457,0.034,0.688,0.038c0.04,0.001,0.08,0.007,0.121,0.007c0.002,0,0.004-0.001,0.006-0.001h30.574v38.224
		c0,12.646,10.288,22.935,22.934,22.935h305.795c12.646,0,22.935-10.288,22.935-22.935v-91.738
		C474.167,370.744,470.744,367.322,466.522,367.322z M458.878,466.705c0,4.215-3.431,7.645-7.646,7.645
		c-4.216,0-7.645-3.43-7.645-7.645v-84.093h15.29L458.878,466.705L458.878,466.705z M137.792,466.705V428.48h91.739v0.001
		c0,4.222,3.423,7.645,7.645,7.645h46.234h76.084v7.645H283.41h-0.365c-4.222,0-7.645,3.422-7.645,7.645
		c0,4.222,3.422,7.645,7.645,7.645h0.365h76.563h7.166c4.223,0,7.645-3.422,7.645-7.645v-22.935v-45.87
		c0-4.222-3.422-7.645-7.645-7.645h-7.166H283.41h-46.234c-4.222,0-7.645,3.422-7.645,7.645l0,0h-91.739V15.657H283.41h45.504
		v84.094c0,4.222,3.422,7.645,7.645,7.645h23.414h68.325v359.309c0,2.68,0.467,5.252,1.315,7.645h-69.64H283.41H145.437
		C141.222,474.35,137.792,470.92,137.792,466.705z M99.568,397.901h122.319v15.29h-84.094h-15.289H99.568V397.901z M244.821,420.836
		v-30.58h20.692h93.982v30.58h-93.982H244.821z M344.203,25.494l72.183,66.612h-72.183L344.203,25.494L344.203,25.494z
		 M84.278,411.305l-25.918-5.76l25.918-5.759V411.305z"/>
	<path d="M390.074,428.48c4.222,0,7.645-3.422,7.645-7.645v-30.579c0-4.222-3.422-7.645-7.645-7.645
		c-4.222,0-7.645,3.422-7.645,7.645v30.579C382.429,425.058,385.851,428.48,390.074,428.48z"/>
	<g>
		<path style="fill:#FDD089;" d="M137.792,15.657v366.954h91.739l0,0c0-4.222,3.423-7.645,7.645-7.645h46.234V15.657H137.792z
			 M194.346,173.436v7.446v67.51v11.924h-8.494l0,0h-0.972h-7.522v-11.924v-67.51v-7.446V48.811h7.318h1.176l0,0h8.494
			L194.346,173.436L194.346,173.436z"/>
		<polygon style="fill:#FFFFFF;" points="185.852,48.811 184.676,48.811 177.358,48.811 177.358,173.436 177.358,180.882 
			177.358,248.392 177.358,260.316 184.88,260.316 185.852,260.316 185.852,260.316 194.346,260.316 194.346,248.392 
			194.346,180.882 194.346,173.436 194.346,48.811 		"/>
	</g>
</g>
<g>
</g>
<g>
</g>
<g>
</g>
<g>
</g>
<g>
</g>
<g>
</g>
<g>
</g>
<g>
</g>
<g>
</g>
<g>
</g>
<g>
</g>
<g>
</g>
<g>
</g>
<g>
</g>
<g>
</g>
</svg>
