<?xml version="1.0" encoding="UTF-8" standalone="no"?>
<svg width="96px" height="70px" viewBox="0 0 96 70" version="1.1" xmlns="http://www.w3.org/2000/svg" xmlns:xlink="http://www.w3.org/1999/xlink">
    <!-- Generator: Sketch 39.1 (31720) - http://www.bohemiancoding.com/sketch -->
    <title>transport</title>
    <desc>Created with Sketch.</desc>
    <defs></defs>
    <g id="Page-1" stroke="none" stroke-width="1" fill="none" fill-rule="evenodd">
        <g id="present_land_v4" transform="translate(-579.000000, -812.000000)">
            <g id="benefits" transform="translate(0.000000, 769.000000)">
                <g id="Group-Copy-2" transform="translate(544.892809, 43.000000)">
                    <g id="transport" transform="translate(34.107191, 0.000000)">
                        <g id="Layer_1">
                            <path d="M91.0039437,0.0645555556 L48.4400161,0.0645555556 L48.4400161,1.31891667 C48.4400161,-1.66152778 46.0359598,3.78641667 43.0783099,3.78641667 L18.0541811,3.78641667 C15.0947928,3.78641667 12.6940201,6.20336111 12.6940201,9.18225 L0.855114688,49.2173889 C0.855114688,52.2009444 3.25298994,54.6147778 6.21682093,54.6147778 L33.4045231,54.6147778 L43.079662,54.6147778 L91.0052958,54.6147778 C92.3274688,54.6147778 93.3971831,53.5381389 93.3971831,52.2100833 L93.3971831,2.46925 C93.3971831,1.13983333 92.3261167,0.0645555556 91.0039437,0.0645555556 L91.0039437,0.0645555556 Z" id="Shape" fill="#2B414D"></path>
                            <path d="M3.51317505,40.2221944 L0.853569416,49.2175833 C0.853569416,52.2011389 3.25144467,54.6149722 6.21527565,54.6149722 L33.4029779,54.6149722 L43.0781167,54.6149722 L91.0037505,54.6149722 C92.3259235,54.6149722 93.3956378,53.5383333 93.3956378,52.2102778 L93.3956378,40.2221944 L3.51317505,40.2221944 L3.51317505,40.2221944 Z" id="Shape" fill="#475F6C"></path>
                            <path d="M29.6738511,9.03680556 L12.7075412,9.03680556 C12.7075412,9.08580556 12.6953722,9.13325 12.6953722,9.18380556 L7.53146076,26.6396667 C7.8084507,26.6826389 8.08524748,26.7285278 8.37595171,26.7285278 L29.6753964,26.7285278 C32.6361368,26.7285278 35.0371026,24.3115833 35.0371026,21.3311389 L35.0371026,14.4341944 C35.0355573,11.4506389 32.6345915,9.03680556 29.6738511,9.03680556 L29.6738511,9.03680556 Z" id="Shape" fill="#528099"></path>
                            <path d="M10.6063581,41.6498056 C10.6063581,44.4204444 9.97492153,46.669 9.19127565,46.669 C8.41226559,46.669 7.77773843,44.4190833 7.77773843,41.6498056 C7.77773843,38.8729444 8.41226559,36.6261389 9.19127565,36.6261389 C9.97492153,36.6259444 10.6063581,38.8729444 10.6063581,41.6498056 L10.6063581,41.6498056 Z" id="Shape" fill="#C1E5F4"></path>
                            <path d="M9.19127565,46.6703611 C8.41226559,46.6703611 7.77773843,44.4204444 7.77773843,41.6511667 C7.77773843,38.8743056 8.41226559,36.6275 9.19127565,36.6275" id="Shape" fill="#D9F5FF"></path>
                            <g id="Group" transform="translate(10.430584, 8.944444)" fill="#1D5777">
                                <path d="M10.4672837,17.7842778 L24.3204507,3.83891667 C23.8228732,2.289 22.668169,1.05136111 21.1679034,0.467833333 L3.96729175,17.7842778 L10.4672837,17.7842778 L10.4672837,17.7842778 Z" id="Shape"></path>
                                <path d="M13.7961851,17.7842778 L19.2430744,17.7842778 C22.2038149,17.7842778 24.6047807,15.3673333 24.6047807,12.3868889 L24.6047807,6.90375 L13.7961851,17.7842778 L13.7961851,17.7842778 Z" id="Shape"></path>
                                <path d="M7.63711871,0.0923611111 L2.27695775,0.0923611111 C2.27695775,0.141361111 2.26478873,0.188805556 2.26478873,0.239361111 L0.0463581489,7.73208333 L7.63711871,0.0923611111 L7.63711871,0.0923611111 Z" id="Shape"></path>
                            </g>
                            <path d="M95.8543581,56.7668889 C95.8543581,57.8773611 94.9596459,58.7778333 93.8567082,58.7778333 L1.99629779,58.7778333 C0.890076459,58.7793889 0,57.8773611 0,56.7668889 L0,49.8438889 C0,48.7303056 0.890076459,47.8329444 1.99629779,47.8329444 L93.8567082,47.8329444 C94.959839,47.8329444 95.8543581,48.7320556 95.8543581,49.8438889 L95.8543581,56.7668889 L95.8543581,56.7668889 Z" id="Shape" fill="#A78A4D"></path>
                            <g id="Group" transform="translate(0.000000, 47.638889)" fill="#E6D5B7">
                                <path d="M93.8567082,0.194055556 L1.99629779,0.194055556 C0.890076459,0.194055556 0,1.09316667 0,2.20655556 L0,3.73197222 C0,4.84244444 0.890076459,5.74155556 1.99629779,5.74155556 L93.8567082,5.74155556 C94.959839,5.74155556 95.8543581,4.84088889 95.8543581,3.73197222 L95.8543581,2.20655556 C95.8543581,1.09316667 94.959839,0.194055556 93.8567082,0.194055556 L93.8567082,0.194055556 Z" id="Shape"></path>
                                <path d="M26.166664,12.3658889 C26.166664,16.1106944 23.1448853,19.1510278 19.4232918,19.1510278 C15.7016982,19.1510278 12.6830101,16.11225 12.6830101,12.3658889 C12.6830101,8.61486111 15.7016982,5.57472222 19.4232918,5.57472222 C23.1448853,5.57472222 26.166664,8.61330556 26.166664,12.3658889 L26.166664,12.3658889 Z" id="Shape"></path>
                            </g>
                            <path d="M19.4234849,53.2134167 C23.1450785,53.2134167 26.1668571,56.2521944 26.1668571,60.0045833 C26.1668571,63.7493889 23.1450785,66.7897222 19.4234849,66.7897222" id="Shape" fill="#A78A4D"></path>
                            <path d="M19.4234849,69.9832778 C13.9567002,69.9832778 9.50940845,65.5048333 9.50940845,60.0032222 C9.50940845,54.4955833 13.9551549,50.0200556 19.4234849,50.0200556 C24.8918149,50.0200556 29.3375614,54.4953889 29.3375614,60.0032222 C29.3375614,65.5048333 24.8902696,69.9832778 19.4234849,69.9832778 L19.4234849,69.9832778 Z M19.4234849,56.4085278 C17.4546157,56.4085278 15.8541006,58.0228056 15.8541006,60.0047778 C15.8541006,61.9836389 17.4548089,63.595 19.4234849,63.595 C21.392161,63.595 22.9959598,61.9836389 22.9959598,60.0047778 C22.9959598,58.0228056 21.3923541,56.4085278 19.4234849,56.4085278 L19.4234849,56.4085278 Z" id="Shape" fill="#475F6C"></path>
                            <ellipse id="Oval" fill="#E6D5B7" cx="77.6572394" cy="60.0016667" rx="6.74182696" ry="6.78669444"></ellipse>
                            <path d="M72.885827,55.2016111 C75.518004,52.5534722 79.7889416,52.5534722 82.4195734,55.2016111 C85.054841,57.8513056 85.0517505,62.1506667 82.4195734,64.8019167" id="Shape" fill="#A78A4D"></path>
                            <path d="M84.6652394,67.0594167 C80.7976177,70.9527778 74.509328,70.9527778 70.6415131,67.0594167 C66.7738913,63.1660556 66.7738913,56.8372778 70.6415131,52.9454722 C74.5091348,49.049 80.7974245,49.049 84.6652394,52.9454722 C88.5299638,56.8372778 88.5299638,63.1660556 84.6652394,67.0594167 L84.6652394,67.0594167 Z M75.131493,57.4591111 C73.7363058,58.8604722 73.7363058,61.1395556 75.131493,62.5411111 C76.5206922,63.9424722 78.7847082,63.9424722 80.1768048,62.5411111 C81.5675493,61.13975 81.5675493,58.8606667 80.1768048,57.4591111 C78.7862535,56.0608611 76.5206922,56.0608611 75.131493,57.4591111 L75.131493,57.4591111 Z" id="Shape" fill="#475F6C"></path>
                            <g id="Group" transform="translate(42.688129, 12.444444)" fill="#D7B354">
                                <path d="M15.8788249,20.8625278 L8.72170624,20.8625278 C13.1995171,16.4912222 16.5772877,12.7127778 16.5772877,7.99225 C16.5772877,4.0285 14.0165795,0.0293611111 8.30950503,0.0293611111 C5.60740443,0.0293611111 3.02081288,0.965222222 1.02451509,2.66525 C0.598406439,3.03275 0.460104628,3.63786111 0.689770624,4.15391667 L1.67565392,6.35327778 C1.83694165,6.71163889 2.1595171,6.97511111 2.54293763,7.06708333 C2.92172233,7.15905556 3.3265835,7.05794444 3.62771831,6.80361111 C4.36114286,6.18644444 5.86894165,5.14636111 7.67497787,5.14636111 C9.88722736,5.14636111 10.959839,6.20627778 10.959839,8.37044444 C10.9308652,11.2882778 8.5407163,14.042 2.82127968,19.5206667 L0.394430584,21.8946389 C0.151050302,22.1305 0.0141006036,22.4598889 0.0141006036,22.8028889 L0.0141006036,24.7158333 C0.0141006036,25.4142778 0.575613682,25.9793333 1.27233803,25.9793333 L15.8786318,25.9793333 C16.5770946,25.9793333 17.1368692,25.4140833 17.1368692,24.7158333 L17.1368692,22.1289444 C17.1357103,21.4277778 16.5772877,20.8625278 15.8788249,20.8625278 L15.8788249,20.8625278 Z" id="Shape"></path>
                                <path d="M35.4180121,14.7315 L33.4719356,14.7315 L33.4719356,1.6835 C33.4719356,0.985055556 32.9075252,0.42 32.2136982,0.42 L28.867992,0.42 C28.4602334,0.42 28.0721771,0.623777778 27.83633,0.959194444 L17.6301972,15.6658056 C17.4826237,15.8787222 17.4034286,16.1283889 17.4034286,16.38875 L17.4034286,18.4442222 C17.4034286,19.1411111 17.9649416,19.7063611 18.6601207,19.7063611 L28.0310342,19.7063611 L28.0310342,24.7162222 C28.0310342,25.4146667 28.5954447,25.9797222 29.2908169,25.9797222 L32.2136982,25.9797222 C32.9075252,25.9797222 33.4719356,25.4144722 33.4719356,24.7162222 L33.4719356,19.7063611 L35.4180121,19.7063611 C36.1102938,19.7063611 36.6718068,19.1411111 36.6718068,18.4442222 L36.6718068,15.9996667 C36.6716137,15.2965556 36.1102938,14.7315 35.4180121,14.7315 L35.4180121,14.7315 Z M24.1954769,14.7315 L28.0312274,9.35083333 L28.0312274,14.7315 L24.1954769,14.7315 L24.1954769,14.7315 Z" id="Shape"></path>
                            </g>
                            <g id="Group" transform="translate(45.006036, 12.444444)">
                                <path d="M14.8178028,24.7146667 L14.8178028,22.1277778 C14.8178028,21.4293333 14.2593803,20.8642778 13.5595654,20.8642778 L8.77443863,20.8642778 L6.40244668,20.8642778 C10.8802575,16.4929722 14.2580282,12.7145278 14.2580282,7.994 C14.2580282,4.31958333 12.0517666,0.61775 7.17701408,0.0999444444 C4.91145272,0.331138889 2.77994366,1.218 1.07724748,2.667 C0.651138833,3.0345 0.512837022,3.63961111 0.742503018,4.15566667 L1.72838632,6.35502778 C1.74364588,6.38575 1.7755171,6.40247222 1.79077666,6.43475 C2.61092958,5.84363889 3.87979074,5.14811111 5.35726358,5.14811111 C5.81369819,5.14811111 6.20928773,5.20333333 6.56682495,5.29511111 C6.93653119,5.20625 7.3261328,5.14811111 7.72925553,5.14811111 C9.94150503,5.14811111 11.0141167,6.20802778 11.0141167,8.37219444 C10.9866881,11.2900278 8.59653924,14.04375 2.87555734,19.5224167 L0.448708249,21.8963889 C0.203782696,22.13225 0.066832998,22.4616389 0.066832998,22.8046389 L0.066832998,24.7175833 C0.066832998,25.4160278 0.628346076,25.9810833 1.32507042,25.9810833 L13.5593722,25.9810833 C14.2593803,25.9781667 14.8178028,25.4129167 14.8178028,24.7146667 L14.8178028,24.7146667 Z" id="Shape" fill="#A78A4D"></path>
                                <path d="M31.1540282,24.7146667 L31.1540282,19.7048056 L46.9866881,19.7048056 C47.6805151,19.7048056 48.241835,19.1395556 48.241835,18.4426667 L48.241835,15.9981111 C48.241835,15.2965556 47.6803219,14.7315 46.9866881,14.7315 L31.1540282,14.7315 L31.1540282,1.6835 C31.1540282,0.985055556 30.5896177,0.42 29.8957907,0.42 L28.9220765,0.42 C28.5143179,0.42 28.1262616,0.623777778 27.8904145,0.959194444 L17.6856338,15.6658056 C17.5365151,15.8787222 17.4573199,16.1283889 17.4573199,16.38875 L17.4573199,18.4442222 C17.4573199,19.1411111 18.018833,19.7063611 18.7140121,19.7063611 L25.7129336,19.7063611 L28.0849256,19.7063611 L28.0849256,24.7162222 C28.0849256,25.4146667 28.649336,25.9797222 29.3447082,25.9797222 L29.8954044,25.9797222 C30.5896177,25.9781667 31.1540282,25.4129167 31.1540282,24.7146667 L31.1540282,24.7146667 Z M28.086664,14.7315 L25.714672,14.7315 L24.2509135,14.7315 L21.8789215,14.7315 L25.714672,9.35083333 L25.714672,12.6760278 L28.086664,9.35083333 L28.086664,14.7315 L28.086664,14.7315 Z" id="Shape" fill="#A78A4D"></path>
                                <path d="M48.2968853,10.5486111 C48.2968853,10.9131944 48.004829,11.20875 47.6411107,11.20875 L33.6934889,11.20875 C33.3313159,11.20875 33.0377143,10.91475 33.0377143,10.5486111 L33.0377143,10.5486111 C33.0377143,10.1871389 33.3297706,9.88847222 33.6934889,9.88847222 L47.6411107,9.88847222 C48.0046358,9.88847222 48.2968853,10.1855833 48.2968853,10.5486111 L48.2968853,10.5486111 L48.2968853,10.5486111 Z" id="Shape" fill="#E6D5B7"></path>
                                <path d="M48.2968853,6.96772222 C48.2968853,7.33230556 48.004829,7.62786111 47.6411107,7.62786111 L33.6934889,7.62786111 C33.3313159,7.62786111 33.0377143,7.33386111 33.0377143,6.96772222 L33.0377143,6.96772222 C33.0377143,6.60625 33.3297706,6.30758333 33.6934889,6.30758333 L47.6411107,6.30758333 C48.0046358,6.30758333 48.2968853,6.60469444 48.2968853,6.96772222 L48.2968853,6.96772222 L48.2968853,6.96772222 Z" id="Shape" fill="#E6D5B7"></path>
                                <path d="M48.2968853,3.38663889 C48.2968853,3.75122222 48.004829,4.04677778 47.6411107,4.04677778 L33.6934889,4.04677778 C33.3313159,4.04677778 33.0377143,3.75277778 33.0377143,3.38663889 L33.0377143,3.38663889 C33.0377143,3.02516667 33.3297706,2.7265 33.6934889,2.7265 L47.6411107,2.7265 C48.0046358,2.7265 48.2968853,3.02380556 48.2968853,3.38663889 L48.2968853,3.38663889 L48.2968853,3.38663889 Z" id="Shape" fill="#E6D5B7"></path>
                            </g>
                        </g>
                    </g>
                </g>
            </g>
        </g>
    </g>
</svg>