<?xml version="1.0" encoding="UTF-8" standalone="no"?>
<svg width="93px" height="61px" viewBox="0 0 93 61" version="1.1" xmlns="http://www.w3.org/2000/svg" xmlns:xlink="http://www.w3.org/1999/xlink">
    <!-- Generator: Sketch 39.1 (31720) - http://www.bohemiancoding.com/sketch -->
    <title>handshake</title>
    <desc>Created with Sketch.</desc>
    <defs></defs>
    <g id="Page-1" stroke="none" stroke-width="1" fill="none" fill-rule="evenodd">
        <g id="present_land_v4" transform="translate(-536.000000, -3008.000000)" fill="#FFFFFF">
            <g id="STEPS" transform="translate(-63.000000, 2842.000000)">
                <g id="Group-2-Copy" transform="translate(507.000000, 122.000000)">
                    <g id="handshake" transform="translate(92.000000, 44.000000)">
                        <g id="Layer_1">
                            <g id="Group">
                                <rect id="XMLID_60_" transform="translate(12.647706, 18.294392) rotate(-71.070400) translate(-12.647706, -18.294392) " x="-2.71253533" y="12.0147314" width="30.720482" height="12.5593214"></rect>
                                <path d="M32.1984562,4.18607764 L31.0430591,4.75440062 C29.6035479,5.4553323 27.9178045,5.5500528 26.4214705,5.01961801 L24.4894949,4.33763043 C24.3758493,4.26185404 24.2622037,4.20502174 24.148558,4.16713354 L12.2536497,0.0941521739 C11.3634257,-0.208953416 10.3784969,0.264649068 10.075442,1.15502174 L0.0935682281,30.2342143 C-0.0579592668,30.6699286 -0.0200773931,31.1435311 0.169331976,31.5413571 C0.358741344,31.9391832 0.718619145,32.2612329 1.15426069,32.4127857 L13.0302281,36.4857671 C13.2196375,36.5425994 13.4090468,36.5804876 13.5795153,36.5804876 C14.2992709,36.5804876 14.9622037,36.1258292 15.2084358,35.4248975 L24.6220815,8.03172981 L25.2660733,8.25905901 C27.6336904,9.09259938 30.2854216,8.94104658 32.558334,7.84228882 L33.7137312,7.27396584 C35.1343014,6.57303416 36.8011039,6.47831366 38.2974379,6.98980435 L60.1363381,14.5106118 C59.9090468,15.4199286 59.4544644,16.4997422 58.6210631,17.0870093 C57.6929572,17.7311087 56.3102688,17.7311087 54.4919389,17.1059534 L44.7562974,13.7717919 C44.3017149,13.6202391 43.8092505,13.6581273 43.3925499,13.8854565 C42.9758493,14.1127857 42.6727943,14.5106118 42.5402077,14.9652702 C42.5212668,15.0221025 41.1764603,20.0612329 36.8768676,22.372413 C34.1683136,23.8311087 30.7968269,23.887941 26.8381711,22.5429099 C25.947947,22.2398043 24.9630183,22.7134068 24.6599633,23.6037795 C24.3569084,24.4941522 24.8304318,25.4792453 25.7206558,25.7823509 C27.9935682,26.559059 30.1338941,26.9568851 32.1226925,26.9568851 C34.4334868,26.9568851 36.5548717,26.4453944 38.4868473,25.4034689 C42.3318574,23.3385621 44.3206558,19.7202391 45.2298208,17.5606118 L53.3554827,20.3453944 C56.253446,21.3494317 58.6778859,21.1978789 60.5530387,19.890736 C63.5646477,17.8068851 63.7161752,13.5823509 63.7351161,13.3929099 C63.754057,12.635146 63.2805336,11.9721025 62.5797189,11.7258292 L39.3960122,3.73141925 C37.066277,2.93576708 34.4334868,3.10626398 32.1984562,4.18607764 L32.1984562,4.18607764 Z M12.5377637,32.6780031 L3.90069654,29.7227236 L12.7461141,3.90191615 L21.3831813,6.85719565 L12.5377637,32.6780031 L12.5377637,32.6780031 Z" id="Shape"></path>
                                <rect id="XMLID_142_" transform="translate(78.681743, 18.478327) rotate(243.926944) translate(-78.681743, -18.478327) " x="63.3223669" y="12.1991663" width="30.7187515" height="12.5583208"></rect>
                                <path d="M77.6945866,34.6292453 L73.6222851,38.380177 C69.9288024,41.7711708 65.7617963,44.6317298 61.2538534,46.8292453 L39.6422444,57.4000528 C38.6951976,57.8736553 37.5398004,57.4758292 37.066277,56.5096801 C36.5927536,55.5624752 36.9905132,54.4068851 37.956501,53.9332826 L38.2216741,53.8006739 L38.2216741,53.8006739 L50.0408187,48.0227236 C50.8931609,47.6059534 51.2530387,46.582972 50.8363381,45.7304876 C50.4196375,44.8780031 49.3968269,44.5180652 48.5444847,44.9348354 L36.7253401,50.7127857 L36.7253401,50.7127857 L30.7778859,53.630177 C29.8308391,54.1037795 28.675442,53.7059534 28.2019185,52.7398043 C27.9746273,52.285146 27.9367454,51.7547112 28.1072138,51.2811087 C28.2776823,50.7885621 28.6186191,50.4096801 29.0732016,50.1823509 L33.5622037,47.9848354 L33.5622037,47.9848354 L46.4041589,41.6953944 C47.256501,41.2786242 47.6163788,40.2556429 47.1996782,39.4031584 C46.7829776,38.5506739 45.760167,38.190736 44.9078248,38.6075062 L32.0469287,44.9158913 L32.0469287,44.9158913 L31.5544644,45.1621646 L25.4176008,48.1742764 C24.9630183,48.4016056 24.4326721,48.4394938 23.9591487,48.2689969 C23.4666843,48.0985 23.0878656,47.7575062 22.8605743,47.3028478 C22.3870509,46.3556429 22.7848106,45.2000528 23.7507984,44.7264503 L25.8721833,43.6845248 L25.8721833,43.6845248 L30.2096578,41.5627857 L31.4218778,40.9755186 L31.4218778,40.9755186 L41.3848106,36.087941 C42.2371527,35.6711708 42.5970305,34.6481894 42.1803299,33.795705 C41.7636293,32.9432205 40.7408187,32.5832826 39.8884766,33.0000528 L29.0921426,38.2854565 L24.3758493,40.5966366 C23.4288024,41.051295 22.2734053,40.672413 21.7998819,39.706264 C21.5725906,39.2516056 21.5347088,38.7211708 21.7051772,38.2475683 C21.8756456,37.7550217 22.2165825,37.3761398 22.671165,37.1488106 L30.9104725,33.1137174 C31.7628147,32.6969472 32.1226925,31.6739658 31.7059919,30.8214814 C31.2892912,29.9689969 30.2664807,29.609059 29.4141385,30.0258292 L21.174831,34.0609224 C19.8868473,34.6860776 18.9208595,35.7848354 18.466277,37.1298665 C18.0116945,38.4748975 18.0874582,39.9335932 18.7125092,41.2217919 C19.1102688,42.0174441 19.6784969,42.6804876 20.3603707,43.1730342 C19.1670916,44.7453944 18.8640367,46.9050217 19.7921426,48.7994317 C20.4171935,50.0876304 21.5157678,51.0537795 22.8605743,51.5084379 C23.4288024,51.6978789 23.9970305,51.7925994 24.5652587,51.7925994 C24.5463177,52.6450839 24.7167862,53.4975683 25.1145458,54.2742764 C26.0426517,56.1686863 27.9556864,57.2674441 29.9255438,57.2674441 C30.7210631,57.2674441 31.5165825,57.0969472 32.27422,56.7180652 L33.4864399,56.1307981 C33.5432627,56.7748975 33.7137312,57.4000528 33.9978452,58.006264 C34.9259511,59.9006739 36.8389857,60.9994317 38.8088432,60.9994317 C39.6043625,60.9994317 40.3998819,60.8289348 41.1575193,60.4500528 L62.7691283,49.8792453 C67.5801263,47.530177 72.0123055,44.4991211 75.9520204,40.8807981 L80.7819593,36.4289348 L91.8434664,31.0109224 C92.6958086,30.5941522 93.0556864,29.5711708 92.6389857,28.7186863 L79.1151568,1.15502174 C78.9068065,0.738251553 78.5658697,0.435145963 78.1302281,0.283593168 C77.6945866,0.132040373 77.2210631,0.169928571 76.8233035,0.359369565 L65.5345051,5.87210248 C64.6821629,6.28887267 64.3222851,7.31185404 64.7389857,8.16433851 L77.6945866,34.6292453 L77.6945866,34.6292453 Z M76.7854216,4.20502174 L88.7750346,28.7376304 L80.573609,32.7537795 L68.5839959,8.22117081 L76.7854216,4.20502174 L76.7854216,4.20502174 Z" id="Shape"></path>
                            </g>
                        </g>
                    </g>
                </g>
            </g>
        </g>
    </g>
</svg>