<?xml version="1.0" encoding="UTF-8" standalone="no"?>
<svg width="33px" height="33px" viewBox="0 0 33 33" version="1.1" xmlns="http://www.w3.org/2000/svg" xmlns:xlink="http://www.w3.org/1999/xlink">
    <!-- Generator: Sketch 39.1 (31720) - http://www.bohemiancoding.com/sketch -->
    <title>phone-call-2</title>
    <desc>Created with Sketch.</desc>
    <defs></defs>
    <g id="Page-1" stroke="none" stroke-width="1" fill="none" fill-rule="evenodd" opacity="0.507462687">
        <g id="present_land_v4" transform="translate(-1045.000000, -37.000000)" fill="#33353E">
            <g id="header" transform="translate(145.000000, 25.000000)">
                <g id="phone-call-2" transform="translate(900.000000, 12.000000)">
                    <g id="Capa_1">
                        <g id="Group">
                            <path d="M26.0697215,20.433962 C25.3944051,19.7307975 24.5798481,19.3548481 23.716557,19.3548481 C22.8602278,19.3548481 22.0387089,19.7238354 21.3355443,20.427 L19.1355443,22.620038 C18.9545316,22.5225696 18.773519,22.4320633 18.5994684,22.341557 C18.3488354,22.2162405 18.1121266,22.0978861 17.9102278,21.9725696 C15.8494684,20.6637089 13.9766835,18.9580127 12.180481,16.7510506 C11.3102278,15.6510506 10.7254177,14.7251013 10.3007342,13.7852278 C10.8716203,13.2630759 11.4007342,12.720038 11.9159241,12.1978861 C12.1108608,12.0029494 12.3057975,11.8010506 12.5007342,11.6061139 C13.9627595,10.1440886 13.9627595,8.25041772 12.5007342,6.78839241 L10.6001013,4.88775949 C10.3842785,4.67193671 10.1614937,4.4491519 9.95263291,4.22636709 C9.53491139,3.79472152 9.0963038,3.3491519 8.64377215,2.93143038 C7.9684557,2.26307595 7.16086076,1.90801266 6.31149367,1.90801266 C5.46212658,1.90801266 4.64060759,2.26307595 3.94440506,2.93143038 C3.93744304,2.93839241 3.93744304,2.93839241 3.93048101,2.94535443 L1.56339241,5.33332911 C0.672253165,6.22446835 0.164025316,7.3105443 0.0526329114,8.57067089 C-0.114455696,10.6035823 0.484278481,12.4972532 0.943772152,13.7364937 C2.07162025,16.7788987 3.75643038,19.598519 6.26972152,22.620038 C9.31908861,26.2611772 12.9880759,29.1364937 17.1792152,31.162443 C18.780481,31.9213038 20.9178228,32.8194051 23.3057975,32.9725696 C23.452,32.9795316 23.6051646,32.9864937 23.7444051,32.9864937 C25.3526329,32.9864937 26.7032658,32.4086456 27.7614937,31.2599114 C27.7684557,31.2459873 27.7823797,31.2390253 27.7893418,31.2251013 C28.1513671,30.7864937 28.5690886,30.3896582 29.0076962,29.9649747 C29.3070633,29.6795316 29.6133924,29.3801646 29.9127595,29.0668734 C30.602,28.3497848 30.9640253,27.5143418 30.9640253,26.6580127 C30.9640253,25.7947215 30.595038,24.9662405 29.8918734,24.270038 L26.0697215,20.433962 L26.0697215,20.433962 Z M28.5621266,27.7649747 C28.5551646,27.7649747 28.5551646,27.7719367 28.5621266,27.7649747 C28.2906076,28.0573797 28.0121266,28.3219367 27.7127595,28.6143418 C27.2602278,29.0459873 26.8007342,29.498519 26.3690886,30.0067468 C25.6659241,30.7586456 24.837443,31.1137089 23.7513671,31.1137089 C23.6469367,31.1137089 23.5355443,31.1137089 23.4311139,31.1067468 C21.3633924,30.9744684 19.4418734,30.1668734 18.0007342,29.4776329 C14.0602278,27.570038 10.6001013,24.8618101 7.72478481,21.4295316 C5.35073418,18.5681392 3.76339241,15.9225696 2.71212658,13.0820633 C2.06465823,11.348519 1.82794937,9.99788608 1.93237975,8.72383544 C2.002,7.90927848 2.31529114,7.23396203 2.89313924,6.65611392 L5.26718987,4.28206329 C5.60832911,3.96181013 5.97035443,3.78775949 6.32541772,3.78775949 C6.76402532,3.78775949 7.11908861,4.05231646 7.34187342,4.27510127 C7.34883544,4.28206329 7.35579747,4.28902532 7.36275949,4.29598734 C7.78744304,4.69282278 8.19124051,5.10358228 8.61592405,5.54218987 C8.83174684,5.76497468 9.05453165,5.98775949 9.27731646,6.21750633 L11.1779494,8.11813924 C11.9159241,8.85611392 11.9159241,9.53839241 11.1779494,10.2763671 C10.9760506,10.4782658 10.7811139,10.6801646 10.5792152,10.8751013 C9.99440506,11.4738354 9.43744304,12.0307975 8.83174684,12.5738354 C8.81782278,12.5877595 8.80389873,12.5947215 8.79693671,12.6086456 C8.19820253,13.2073797 8.30959494,13.7921899 8.43491139,14.1890253 C8.44187342,14.2099114 8.44883544,14.2307975 8.45579747,14.2516835 C8.95010127,15.4491519 9.6463038,16.577 10.7045316,17.9206709 L10.7114937,17.9276329 C12.6330127,20.2947215 14.658962,22.1396582 16.8937722,23.5529494 C17.1792152,23.733962 17.4716203,23.8801646 17.7501013,24.0194051 C18.0007342,24.1447215 18.237443,24.2630759 18.4393418,24.3883924 C18.4671899,24.4023165 18.495038,24.4232025 18.5228861,24.4371266 C18.7595949,24.555481 18.9823797,24.6111772 19.2121266,24.6111772 C19.7899747,24.6111772 20.152,24.2491519 20.2703544,24.1307975 L22.6513671,21.7497848 C22.8880759,21.5130759 23.2640253,21.2276329 23.7026329,21.2276329 C24.1342785,21.2276329 24.4893418,21.4991519 24.7051646,21.7358608 C24.7121266,21.7428228 24.7121266,21.7428228 24.7190886,21.7497848 L28.5551646,25.5858608 C29.2722532,26.2959873 29.2722532,27.027 28.5621266,27.7649747 L28.5621266,27.7649747 Z" id="Shape"></path>
                            <path d="M17.8266835,7.84662025 C19.6507342,8.15294937 21.3076962,9.01624051 22.630481,10.3390253 C23.9532658,11.6618101 24.8095949,13.3187722 25.1228861,15.1428228 C25.1994684,15.6023165 25.5963038,15.9225696 26.0488354,15.9225696 C26.1045316,15.9225696 26.1532658,15.9156076 26.208962,15.9086456 C26.7241519,15.8251013 27.0652911,15.3377595 26.9817468,14.8225696 C26.6057975,12.6156076 25.5614937,10.6035823 23.9671899,9.00927848 C22.3728861,7.41497468 20.3608608,6.37067089 18.1538987,5.99472152 C17.6387089,5.91117722 17.1583291,6.25231646 17.0678228,6.7605443 C16.9773165,7.26877215 17.3114937,7.76307595 17.8266835,7.84662025 L17.8266835,7.84662025 Z" id="Shape"></path>
                            <path d="M32.9482025,14.5510506 C32.3285823,10.9168734 30.6159241,7.60991139 27.9842785,4.97826582 C25.3526329,2.34662025 22.0456709,0.633962025 18.4114937,0.0143417722 C17.9032658,-0.076164557 17.4228861,0.271936709 17.3323797,0.780164557 C17.2488354,1.29535443 17.5899747,1.77573418 18.1051646,1.86624051 C21.3494684,2.41624051 24.3083291,3.9548481 26.6614937,6.30105063 C29.0146582,8.65421519 30.5463038,11.6130759 31.0963038,14.8573797 C31.1728861,15.3168734 31.5697215,15.6371266 32.0222532,15.6371266 C32.0779494,15.6371266 32.1266835,15.6301646 32.1823797,15.6232025 C32.6906076,15.5466203 33.0387089,15.0592785 32.9482025,14.5510506 L32.9482025,14.5510506 Z" id="Shape"></path>
                        </g>
                    </g>
                </g>
            </g>
        </g>
    </g>
</svg>