<?xml version="1.0" encoding="UTF-8" standalone="no"?>
<svg width="87px" height="86px" viewBox="0 0 87 86" version="1.1" xmlns="http://www.w3.org/2000/svg" xmlns:xlink="http://www.w3.org/1999/xlink">
    <!-- Generator: Sketch 39.1 (31720) - http://www.bohemiancoding.com/sketch -->
    <title>laser-machine</title>
    <desc>Created with Sketch.</desc>
    <defs></defs>
    <g id="Page-1" stroke="none" stroke-width="1" fill="none" fill-rule="evenodd">
        <g id="present_land_v4" transform="translate(-835.000000, -2993.000000)" fill="#FFFFFF">
            <g id="STEPS" transform="translate(-63.000000, 2842.000000)">
                <g id="Group-2-Copy-2" transform="translate(808.000000, 122.000000)">
                    <g id="laser-machine" transform="translate(136.315494, 75.315494) rotate(-45.000000) translate(-136.315494, -75.315494) translate(123.315494, 22.815494)">
                        <g id="Capa_1" transform="translate(0.000000, -0.000000)">
                            <g id="Group">
                                <path d="M1.72920864,3.05533376e-13 C1.09800247,3.05533376e-13 0.58669321,0.513764834 0.58669321,1.14739913 L0.58669321,5.35443928 L0.58669321,14.3087421 L0.58669321,28.6849782 C0.58669321,29.3186125 1.09800247,29.8323774 1.72920864,29.8323774 L4.79867716,29.8323774 L4.79867716,39.8439072 C4.79867716,40.4775415 5.30998642,40.9913064 5.94119259,40.9913064 L8.38268086,40.9913064 L8.38268086,49.6891317 C8.38268086,49.9550583 8.47515741,50.2128857 8.64317438,50.4183376 L12.1462611,54.6923319 L12.1462611,93.6671855 L8.91818457,90.4253105 C8.47193148,89.9774199 7.74824877,89.9774199 7.30253333,90.4253105 C6.85628025,90.8734711 6.85628025,91.5997073 7.30253333,92.0481379 L10.5483525,95.3081013 L5.95839753,95.3081013 C5.32719136,95.3081013 4.8158821,95.8218661 4.8158821,96.4555004 C4.8158821,97.0891347 5.32719136,97.6028995 5.95839753,97.6028995 L10.5483525,97.6028995 L7.30253333,100.862593 C6.85628025,101.310754 6.85628025,102.03726 7.30253333,102.48542 C7.52565988,102.709501 7.81814383,102.821541 8.11062778,102.821541 C8.40311173,102.821541 8.69559568,102.709501 8.91818457,102.48542 L12.1462611,99.2435453 L12.1462611,103.74486 C12.1462611,104.378494 12.6575704,104.892259 13.2887765,104.892259 C13.9199827,104.892259 14.431292,104.378494 14.431292,103.74486 L14.431292,99.2076384 L17.6951225,102.48515 C17.9182491,102.709231 18.2101954,102.821271 18.5026793,102.821271 C18.7951633,102.821271 19.0876472,102.709231 19.3107738,102.48515 C19.7570269,102.03699 19.7570269,101.310484 19.3107738,100.862323 L16.0654923,97.6031695 L20.6554472,97.6031695 C21.2866534,97.6031695 21.7979627,97.0894047 21.7979627,96.4557704 C21.7979627,95.8221361 21.2866534,95.3083712 20.6554472,95.3083712 L16.0649546,95.3083712 L19.3107738,92.0489478 C19.7570269,91.6007872 19.7570269,90.8742811 19.3107738,90.4261205 C18.8650583,89.9782298 18.140838,89.9782298 17.6951225,90.4261205 L14.431292,93.7036323 L14.431292,54.6926019 L17.9343787,50.4186076 C18.1029333,50.2131557 18.1948722,49.9553283 18.1948722,49.6894017 L18.1948722,40.9915763 L20.6368981,40.9915763 C21.2681043,40.9915763 21.7794136,40.4778115 21.7794136,39.8441772 L21.7794136,29.8323774 L24.8483444,29.8323774 C25.4795506,29.8323774 25.9908599,29.3186125 25.9908599,28.6849782 L25.9908599,1.14739913 C25.9908599,0.513764834 25.4795506,3.05533376e-13 24.8483444,3.05533376e-13 L1.72920864,3.05533376e-13 Z M23.705829,2.29479826 L23.705829,13.1389349 L2.89699383,13.1389349 C2.89538086,13.0625316 2.88758488,12.9880182 2.87172407,12.9162045 L2.87172407,6.74724684 C2.88892901,6.66787381 2.89941327,6.58634098 2.89941327,6.50183841 C2.89941327,6.41733584 2.88892901,6.33580301 2.87172407,6.25642998 L2.87172407,2.29479826 L23.705829,2.29479826 L23.705829,2.29479826 Z M15.9098414,49.2776879 L13.2887765,52.4755568 L10.6677117,49.2776879 L10.6677117,40.9913064 L15.9098414,40.9913064 L15.9098414,49.2776879 L15.9098414,49.2776879 Z M19.4943827,38.6965081 L7.08370802,38.6965081 L7.08370802,29.8323774 L19.4943827,29.8323774 L19.4943827,38.6965081 L19.4943827,38.6965081 Z M2.87172407,27.5375791 L2.87172407,20.8629559 L15.7351037,20.8629559 C16.3663099,20.8629559 16.8776191,20.3491911 16.8776191,19.7155568 C16.8776191,19.0819225 16.3663099,18.5681576 15.7351037,18.5681576 L2.87172407,18.5681576 L2.87172407,15.4337332 L23.705829,15.4337332 L23.705829,27.5375791 L2.87172407,27.5375791 L2.87172407,27.5375791 Z" id="Shape"></path>
                                <path d="M8.80850309,8.05420194 L17.7695877,8.05420194 C18.4007938,8.05420194 18.9121031,7.5404371 18.9121031,6.90680281 C18.9121031,6.27316851 18.4007938,5.75940368 17.7695877,5.75940368 L8.80850309,5.75940368 C8.17729691,5.75940368 7.66598765,6.27316851 7.66598765,6.90680281 C7.66598765,7.5404371 8.17729691,8.05420194 8.80850309,8.05420194 L8.80850309,8.05420194 Z" id="Shape"></path>
                            </g>
                        </g>
                    </g>
                </g>
            </g>
        </g>
    </g>
</svg>