<?xml version="1.0" encoding="UTF-8" standalone="no"?>
<svg width="33px" height="33px" viewBox="0 0 33 33" version="1.1" xmlns="http://www.w3.org/2000/svg" xmlns:xlink="http://www.w3.org/1999/xlink">
    <!-- Generator: Sketch 39.1 (31720) - http://www.bohemiancoding.com/sketch -->
    <title>fountain-pen</title>
    <desc>Created with Sketch.</desc>
    <defs></defs>
    <g id="Page-1" stroke="none" stroke-width="1" fill="none" fill-rule="evenodd">
        <g id="present_land_v4" transform="translate(-216.000000, -1226.000000)" fill="#33353E">
            <g id="GOODS" transform="translate(-56.000000, 1070.000000)">
                <g id="tabs" transform="translate(201.000000, 146.000000)">
                    <g id="fountain-pen" transform="translate(71.000000, 10.000000)">
                        <g id="Capa_1">
                            <path d="M30.6407324,7.24140845 C30.9902535,6.38629014 31.1171408,5.79470704 31.1625042,5.45689859 L32.2077211,4.41149577 L32.2077211,4.41149577 C32.6513155,3.96790141 32.8954225,3.37845634 32.8954225,2.75117746 C32.8954225,2.12389859 32.6512225,1.53417465 32.207907,1.09085915 L31.8039127,0.686492958 C30.8882789,-0.22895493 29.3984451,-0.228769014 28.4828113,0.686678873 L27.436293,1.73319718 C26.7133606,1.83321972 24.8080986,2.30888451 21.6594338,4.54628451 C16.5913775,8.14728169 10.707431,14.5036394 4.1712,23.4386451 C3.96818028,23.716031 3.9978338,24.1002254 4.24091831,24.3433099 L4.45695211,24.5593437 L1.54746761,27.0274648 C1.33887042,27.2042704 1.25186197,27.482493 1.32650704,27.7455634 C1.34900282,27.8283887 1.85552958,29.7973268 0.194095775,31.7827183 C-0.0451774648,32.0688423 -0.0171042254,32.4926366 0.258143662,32.7444592 C0.391630986,32.8666056 0.560256338,32.927307 0.728788732,32.927307 C0.887095775,32.927307 1.04503099,32.8733915 1.17359155,32.766769 C1.17433521,32.7660254 1.17535775,32.7654676 1.17628732,32.7648169 C3.1614,31.1033831 5.13024507,31.6102817 5.20870141,31.6313831 C5.47214366,31.7060282 5.75427042,31.620507 5.93126197,31.4117239 L8.3993831,28.5016817 L8.5511831,28.6536676 C8.6862507,28.7885493 8.86491549,28.8577099 9.04450986,28.8577099 C9.18812958,28.8577099 9.33267887,28.813369 9.45594085,28.7233859 C18.4451408,22.1475549 24.8219493,16.2343268 28.4099324,11.1482366 C29.0978197,10.1731099 29.6155014,9.32031549 30.0050873,8.58678592 L30.4519352,9.03381972 C30.7462394,9.32812394 30.9083577,9.71956901 30.9083577,10.1358338 C30.9083577,10.5521915 30.7462394,10.9435437 30.4519352,11.2378479 L22.4021662,19.2876169 C22.1298,19.5599831 22.1298,20.0013465 22.4021662,20.2736197 C22.5383493,20.4096169 22.7168282,20.477662 22.8951211,20.477662 C23.0736,20.477662 23.2520789,20.4096169 23.388262,20.2736197 L31.438031,12.2238507 C31.9955915,11.6661042 32.3028169,10.9243944 32.3028169,10.1357408 C32.3028169,9.34690141 31.9955915,8.60537746 31.438031,8.04763099 L30.6407324,7.24140845 L30.6407324,7.24140845 Z M5.12978028,30.2009493 C4.80591549,30.1567944 4.33090141,30.124538 3.7613493,30.1832873 L4.6686169,29.2760197 C4.94079718,29.0038394 4.94079718,28.5622901 4.66843099,28.2902028 C4.3962507,28.0180225 3.95488732,28.0178366 3.68261408,28.2902028 L2.77553239,29.1972845 C2.83437465,28.6279183 2.80202535,28.1528113 2.7581493,27.8288535 L5.44648732,25.548693 L7.41021972,27.5124254 L5.12978028,30.2009493 L5.12978028,30.2009493 Z M9.11404225,27.2442423 L5.65015775,23.7804507 C9.36084507,18.7443718 12.5716986,14.9603408 15.2758394,12.1200169 L20.7749408,17.6192113 C17.9280169,20.3297662 14.1426845,23.5392254 9.11404225,27.2442423 L9.11404225,27.2442423 Z M27.2704563,10.3442451 C26.1480845,11.9354028 24.4201859,14.0382 21.7760958,16.6484535 L16.2464113,11.118769 C18.733031,8.59961408 20.748169,6.92237746 22.2839239,5.81404225 C25.1558535,3.74136338 26.8805915,3.2513831 27.497738,3.13620845 L29.7612592,5.39982254 C29.6556592,5.98452676 29.2024901,7.60543099 27.2704563,10.3442451 L27.2704563,10.3442451 Z M28.7375155,2.40398028 L29.469,1.67268169 C29.8410169,1.30047887 30.4461718,1.30066479 30.8178169,1.67212394 L31.2218113,2.07667606 C31.4020563,2.25682817 31.5012423,2.49647324 31.5012423,2.75117746 C31.5012423,3.00588169 31.4021493,3.24534085 31.2218113,3.42567887 L31.2218113,3.42567887 L31.2218113,3.42567887 L30.4905127,4.15716338 L28.7375155,2.40398028 L28.7375155,2.40398028 Z" id="Shape"></path>
                        </g>
                    </g>
                </g>
            </g>
        </g>
    </g>
</svg>