<?xml version="1.0" encoding="UTF-8" standalone="no"?>
<svg width="66px" height="79px" viewBox="0 0 66 79" version="1.1" xmlns="http://www.w3.org/2000/svg" xmlns:xlink="http://www.w3.org/1999/xlink">
    <!-- Generator: Sketch 39.1 (31720) - http://www.bohemiancoding.com/sketch -->
    <title>technology</title>
    <desc>Created with Sketch.</desc>
    <defs></defs>
    <g id="Page-1" stroke="none" stroke-width="1" fill="none" fill-rule="evenodd">
        <g id="present_land_v4" transform="translate(-1199.000000, -808.000000)">
            <g id="benefits" transform="translate(0.000000, 769.000000)">
                <g id="Group-Copy-5" transform="translate(1144.732022, 39.000000)">
                    <g id="technology" transform="translate(55.092383, 0.000000)">
                        <g id="Layer_1">
                            <path d="M64.653628,45.6047619 C63.9060089,44.3587302 61.6631518,39.25 59.9187073,35.2626984 C60.5417232,33.0198413 60.7909296,30.652381 60.7909296,28.2849206 C60.7909296,12.5849206 47.7075962,0 32.7552153,0 C17.8028343,0 3.09965972,17.0706349 8.20838988,31.8984127 C10.451247,38.502381 12.1956915,43.3619048 13.9401359,46.9753968 L4.59489782,62.6753968 C2.97505655,65.9150794 6.33934226,68.531746 9.5790248,70.1515873 L22.0393423,76.6309524 C25.2790248,78.2507937 30.6369613,79.6214286 32.2568026,76.5063492 L38.8607708,64.4198413 C43.4710883,66.4134921 47.8321994,67.4103175 51.3210883,67.2857143 C54.9345804,67.0365079 56.1806121,63.2984127 56.9282312,57.9404762 C57.6758502,57.9404762 58.5480724,57.9404762 59.0464851,57.1928571 C59.7941042,55.8222222 57.9250565,53.8285714 57.9250565,53.8285714 C57.9250565,53.8285714 61.0401359,52.9563492 60.2925169,52.084127 C59.669501,51.4611111 59.1710883,48.7198413 59.0464851,47.9722222 C60.1679137,47.9722222 61.5385486,47.847619 62.7845804,47.4738095 C65.7750565,46.6015873 64.653628,45.6047619 64.653628,45.6047619 L64.653628,45.6047619 Z" id="Shape" fill="#475F6C"></path>
                            <path d="M64.653628,45.6047619 C63.9060089,44.3587302 60.9155327,41.7420635 59.1710883,37.8793651 C59.7941042,35.6365079 60.7909296,30.7769841 60.7909296,28.4095238 C60.7909296,12.5849206 47.9568026,4.36111111 33.0044216,4.36111111 C18.0520407,4.36111111 3.2242629,17.1952381 8.33299306,32.0230159 C10.5758502,38.6269841 12.3202946,43.4865079 14.0647391,47.1 L4.59489782,62.6753968 C2.97505655,65.9150794 6.33934226,68.531746 9.5790248,70.1515873 L22.0393423,76.6309524 C25.2790248,78.2507937 30.6369613,79.6214286 32.2568026,76.5063492 L33.3782312,60.5571429 C37.8639454,65.4166667 47.8321994,67.4103175 51.3210883,67.2857143 C54.9345804,67.0365079 56.1806121,63.2984127 56.9282312,57.9404762 C57.6758502,57.9404762 58.5480724,57.9404762 59.0464851,57.1928571 C59.7941042,55.8222222 55.9314058,54.4515873 55.9314058,54.4515873 C55.9314058,54.4515873 61.0401359,52.9563492 60.41712,52.084127 C59.7941042,51.4611111 57.551247,48.8444444 57.4266438,47.9722222 C58.5480724,47.9722222 61.6631518,47.7230159 62.9091835,47.3492063 C65.7750565,46.6015873 64.653628,45.6047619 64.653628,45.6047619 L64.653628,45.6047619 Z" id="Shape" fill="#2B414D"></path>
                            <path d="M40.4806121,21.8055556 C40.4806121,12.2111111 31.3845804,4.48571429 20.2948978,4.48571429 C9.20521528,4.48571429 0.109183532,12.3357143 0.109183532,21.8055556 C0.109183532,27.4126984 3.2242629,32.3968254 8.08378671,35.5119048 L9.70362798,42.2404762 C9.70362798,47.5984127 14.0647391,51.7103175 19.2980724,51.7103175 L21.4163264,51.7103175 C26.7742629,51.7103175 31.0107708,47.5984127 31.0107708,42.2404762 L32.6306121,35.3873016 C37.3655327,32.2722222 40.4806121,27.4126984 40.4806121,21.8055556 L40.4806121,21.8055556 Z" id="Shape" fill="#E6D5B7"></path>
                            <path d="M40.4806121,21.8055556 C40.4806121,12.2111111 31.3845804,7.22698413 20.2948978,7.22698413 C9.20521528,7.22698413 0.109183532,12.3357143 0.109183532,21.8055556 C0.109183532,27.4126984 4.59489782,31.0261905 9.32981845,34.1412698 L9.5790248,42.2404762 C9.5790248,47.5984127 13.9401359,51.7103175 19.1734692,51.7103175 L21.2917232,51.7103175 C26.6496597,51.7103175 30.8861677,47.5984127 30.8861677,42.2404762 L31.135374,34.1412698 C36.119501,30.9015873 40.4806121,27.4126984 40.4806121,21.8055556 L40.4806121,21.8055556 Z" id="Shape" fill="#A78A4D"></path>
                            <path d="M9.5790248,42.6142857 L9.5790248,48.0968254 C9.5790248,53.9531746 14.3139454,58.8126984 20.2948978,58.8126984 C26.151247,58.8126984 31.0107708,54.0777778 31.0107708,48.0968254 L31.0107708,42.6142857 L9.5790248,42.6142857 L9.5790248,42.6142857 L9.5790248,42.6142857 Z" id="Shape" fill="#1D5777"></path>
                            <path d="M9.5790248,48.0968254 C9.5790248,53.9531746 14.3139454,58.8126984 20.2948978,58.8126984 C26.151247,58.8126984 31.0107708,54.0777778 31.0107708,48.0968254" id="Shape" fill="#1D5777"></path>
                            <g id="Group" transform="translate(9.189484, 11.993056)" fill="#F9F4BD">
                                <path d="M11.1054137,30.3720238 C10.7316042,30.3720238 10.4823978,30.1228175 10.4823978,29.7490079 L10.4823978,15.7934524 C10.4823978,15.6688492 10.3577946,6.57281746 4.75065179,5.32678571 C3.62922321,5.07757937 2.88160417,5.32678571 2.25858829,5.94980159 C1.2617629,7.07123016 1.2617629,9.18948413 2.00938194,11.3077381 C2.88160417,13.7998016 4.75065179,15.4196429 7.1181121,16.0426587 L7.1181121,12.9275794 C7.1181121,12.5537698 7.36731845,12.3045635 7.74112798,12.3045635 C8.1149375,12.3045635 8.36414385,12.5537698 8.36414385,12.9275794 L8.36414385,16.7902778 C8.36414385,17.0394841 8.23954067,17.1640873 8.1149375,17.2886905 C7.99033433,17.4132937 7.74112798,17.4132937 7.6165248,17.4132937 C4.50144544,17.0394841 1.88477877,14.796627 0.763350198,11.6815476 C-0.233475198,9.06488095 0.0157311508,6.44821429 1.2617629,4.95297619 C2.13398512,3.95615079 3.50462004,3.58234127 4.99985813,3.95615079 C11.7284296,5.45138889 11.8530327,15.2950397 11.8530327,15.7934524 L11.8530327,29.7490079 C11.7284296,30.1228175 11.4792232,30.3720238 11.1054137,30.3720238 L11.1054137,30.3720238 Z" id="Shape"></path>
                                <path d="M11.1054137,30.3720238 C11.4792232,30.3720238 11.7284296,30.1228175 11.7284296,29.7490079 L11.7284296,15.7934524 C11.7284296,15.6688492 11.8530327,6.57281746 17.4601756,5.32678571 C18.5816042,5.07757937 19.3292232,5.32678571 19.9522391,5.94980159 C20.9490645,7.07123016 20.9490645,9.18948413 20.2014454,11.3077381 C19.3292232,13.7998016 17.4601756,15.4196429 15.0927153,16.0426587 L15.0927153,12.9275794 C15.0927153,12.5537698 14.8435089,12.3045635 14.4696994,12.3045635 C14.0958899,12.3045635 13.8466835,12.5537698 13.8466835,12.9275794 L13.8466835,16.7902778 C13.8466835,17.0394841 13.9712867,17.1640873 14.0958899,17.2886905 C14.2204931,17.4132937 14.4696994,17.4132937 14.5943026,17.4132937 C17.7093819,17.0394841 20.3260486,14.796627 21.4474772,11.6815476 C22.4443026,9.06488095 22.1950962,6.44821429 20.9490645,4.95297619 C20.0768423,3.95615079 18.7062073,3.58234127 17.2109692,3.95615079 C10.4823978,5.45138889 10.3577946,15.2950397 10.3577946,15.7934524 L10.3577946,29.7490079 C10.4823978,30.1228175 10.7316042,30.3720238 11.1054137,30.3720238 L11.1054137,30.3720238 Z" id="Shape"></path>
                                <path d="M13.2236677,20.2791667 C13.2236677,20.528373 12.9744613,20.7775794 12.725255,20.7775794 L9.6101756,20.7775794 C9.36096925,20.7775794 9.1117629,20.528373 9.1117629,20.2791667 L9.1117629,20.2791667 C9.1117629,20.0299603 9.36096925,19.780754 9.6101756,19.780754 L12.725255,19.780754 C12.9744613,19.6561508 13.2236677,19.9053571 13.2236677,20.2791667 L13.2236677,20.2791667 L13.2236677,20.2791667 Z" id="Shape"></path>
                                <path d="M13.2236677,22.8958333 C13.2236677,23.1450397 12.9744613,23.394246 12.725255,23.394246 L9.6101756,23.394246 C9.36096925,23.394246 9.1117629,23.1450397 9.1117629,22.8958333 L9.1117629,22.8958333 C9.1117629,22.646627 9.36096925,22.3974206 9.6101756,22.3974206 L12.725255,22.3974206 C12.9744613,22.3974206 13.2236677,22.646627 13.2236677,22.8958333 L13.2236677,22.8958333 L13.2236677,22.8958333 Z" id="Shape"></path>
                                <path d="M13.2236677,25.5125 C13.2236677,25.7617063 12.9744613,26.0109127 12.725255,26.0109127 L9.6101756,26.0109127 C9.36096925,26.0109127 9.1117629,25.7617063 9.1117629,25.5125 L9.1117629,25.5125 C9.1117629,25.2632937 9.36096925,25.0140873 9.6101756,25.0140873 L12.725255,25.0140873 C12.9744613,25.0140873 13.2236677,25.2632937 13.2236677,25.5125 L13.2236677,25.5125 L13.2236677,25.5125 Z" id="Shape"></path>
                                <ellipse id="Oval" cx="11.1054137" cy="0.965674603" rx="0.872222222" ry="0.872222222"></ellipse>
                            </g>
                            <g id="Group" transform="translate(10.747024, 44.857143)" fill="#528099">
                                <path d="M19.1423185,0.373809524 C19.1423185,0.498412698 19.0177153,0.623015873 18.8931121,0.623015873 L0.327239087,0.623015873 C0.202635913,0.623015873 0.0780327381,0.498412698 0.0780327381,0.373809524 L0.0780327381,0.373809524 C0.0780327381,0.249206349 0.202635913,0.124603175 0.327239087,0.124603175 L18.8931121,0.124603175 C19.0177153,0.124603175 19.1423185,0.249206349 19.1423185,0.373809524 L19.1423185,0.373809524 L19.1423185,0.373809524 Z" id="Shape"></path>
                                <path d="M19.1423185,2.24285714 C19.1423185,2.36746032 19.0177153,2.49206349 18.8931121,2.49206349 L0.327239087,2.49206349 C0.202635913,2.49206349 0.0780327381,2.36746032 0.0780327381,2.24285714 L0.0780327381,2.24285714 C0.0780327381,2.11825397 0.202635913,1.99365079 0.327239087,1.99365079 L18.8931121,1.99365079 C19.0177153,1.99365079 19.1423185,2.11825397 19.1423185,2.24285714 L19.1423185,2.24285714 L19.1423185,2.24285714 Z" id="Shape"></path>
                                <path d="M19.1423185,4.11190476 C19.1423185,4.23650794 19.0177153,4.36111111 18.8931121,4.36111111 L0.327239087,4.36111111 C0.202635913,4.36111111 0.0780327381,4.23650794 0.0780327381,4.11190476 L0.0780327381,4.11190476 C0.0780327381,3.98730159 0.202635913,3.86269841 0.327239087,3.86269841 L18.8931121,3.86269841 C19.0177153,3.86269841 19.1423185,3.98730159 19.1423185,4.11190476 L19.1423185,4.11190476 L19.1423185,4.11190476 Z" id="Shape"></path>
                                <path d="M19.1423185,6.10555556 C19.1423185,6.23015873 19.0177153,6.3547619 18.8931121,6.3547619 L0.327239087,6.3547619 C0.202635913,6.3547619 0.0780327381,6.23015873 0.0780327381,6.10555556 L0.0780327381,6.10555556 C0.0780327381,5.98095238 0.202635913,5.85634921 0.327239087,5.85634921 L18.8931121,5.85634921 C19.0177153,5.85634921 19.1423185,5.85634921 19.1423185,6.10555556 L19.1423185,6.10555556 L19.1423185,6.10555556 Z" id="Shape"></path>
                                <path d="M17.7716835,7.97460317 C17.7716835,8.09920635 17.6470804,8.22380952 17.5224772,8.22380952 L1.57327083,8.22380952 C1.44866766,8.22380952 1.32406448,8.09920635 1.32406448,7.97460317 L1.32406448,7.97460317 C1.32406448,7.85 1.44866766,7.72539683 1.57327083,7.72539683 L17.6470804,7.72539683 C17.7716835,7.72539683 17.7716835,7.85 17.7716835,7.97460317 L17.7716835,7.97460317 L17.7716835,7.97460317 Z" id="Shape"></path>
                                <circle id="Oval" cx="5.43596925" cy="10.3420635" r="0.373809524"></circle>
                                <circle id="Oval" cx="8.17723909" cy="10.3420635" r="0.373809524"></circle>
                                <circle id="Oval" cx="10.9185089" cy="10.3420635" r="0.373809524"></circle>
                                <circle id="Oval" cx="13.6597788" cy="10.3420635" r="0.373809524"></circle>
                            </g>
                        </g>
                    </g>
                </g>
            </g>
        </g>
    </g>
</svg>