<?xml version="1.0" encoding="UTF-8" standalone="no"?>
<svg width="33px" height="33px" viewBox="0 0 33 33" version="1.1" xmlns="http://www.w3.org/2000/svg" xmlns:xlink="http://www.w3.org/1999/xlink">
    <!-- Generator: Sketch 39.1 (31720) - http://www.bohemiancoding.com/sketch -->
    <title>Capa_1</title>
    <desc>Created with Sketch.</desc>
    <defs></defs>
    <g id="Page-1" stroke="none" stroke-width="1" fill="none" fill-rule="evenodd">
        <g id="present_land_v4" transform="translate(-571.000000, -1226.000000)" fill="#FFFFFF">
            <g id="GOODS" transform="translate(-56.000000, 1070.000000)">
                <g id="tabs" transform="translate(201.000000, 146.000000)">
                    <g id="tool" transform="translate(426.000000, 10.000000)">
                        <g id="Capa_1">
                            <path d="M32.2271303,3.21100231 L29.1742496,0.158121626 C28.9632408,-0.0528870969 28.622173,-0.0528870969 28.4111643,0.158121626 L26.7921715,1.77711439 L26.7921715,1.77711439 C26.5897975,1.57474029 26.2314604,1.57474029 26.0290863,1.77711439 L24.5029158,3.3032849 L23.7398305,2.54019964 C23.5288218,2.32919092 23.187754,2.32919092 22.9767453,2.54019964 L17.6346088,7.88233609 C17.4236001,8.09334482 17.4236001,8.43441262 17.6346088,8.64542135 C17.7398434,8.75065588 17.8779974,8.80354297 18.0161515,8.80354297 C18.1543055,8.80354297 18.2924596,8.75065588 18.3976941,8.64542135 L23.3582879,3.68482753 L23.7398305,4.06637015 L15.5115697,12.294631 L15.51103,12.294631 L15.5104903,12.2951707 L7.70154857,20.1046521 C7.49053984,20.3156608 7.49053984,20.6567286 7.70154857,20.8677374 L6.6049508,21.9637955 C5.55854182,21.2762632 4.13544718,21.3912117 3.21585929,22.3107996 C3.11440241,22.4122565 3.05773766,22.5487915 3.05773766,22.6923422 C3.05773766,22.8358929 3.11440241,22.9729676 3.21585929,23.0738848 C3.41985238,23.2778779 3.53210254,23.5487894 3.53210254,23.8369701 C3.53210254,24.1256905 3.41985238,24.3966019 3.21585929,24.600595 C2.80787311,25.0085812 2.09713529,25.0085812 1.68914911,24.600595 C1.54236044,24.454346 1.32595507,24.4041572 1.12897762,24.4732343 C0.933079495,24.5417716 0.793846118,24.7166228 0.771180219,24.9227746 L0.00917429232,31.7916212 C-0.00917429232,31.9545998 0.0480301186,32.1170387 0.164057933,32.2325269 C0.265514813,32.3339838 0.403129198,32.3906485 0.545600561,32.3906485 C0.565568138,32.3906485 0.585535715,32.3895692 0.604963629,32.3874105 L7.47381025,31.6243253 C7.679962,31.6011197 7.85481322,31.4618863 7.92335058,31.2665279 C7.99188794,31.0711694 7.94223882,30.8526054 7.79545015,30.7063564 C7.59145706,30.5023633 7.4792069,30.2314518 7.4792069,29.9432711 C7.4792069,29.6550904 7.59145706,29.384179 7.79545015,29.1801859 C8.20343632,28.7721997 8.91417415,28.7721997 9.32216032,29.1801859 C9.52453442,29.38256 9.88287148,29.38256 10.0852456,29.1801859 C11.0086111,28.2568203 11.1203216,26.8256307 10.4230754,25.7781424 L11.5175145,24.6837033 L11.5175145,24.6837033 C11.6189714,24.7851602 11.7560461,24.8418249 11.8990571,24.8418249 C12.0420682,24.8418249 12.1796825,24.7851602 12.2805998,24.6837033 L30.6081375,6.35616558 C30.8191462,6.14515686 30.8191462,5.80408905 30.6081375,5.59308033 L32.2271303,3.97408757 C32.438139,3.76361851 32.438139,3.42201103 32.2271303,3.21100231 L32.2271303,3.21100231 Z M9.59738909,28.0501289 C8.7911307,27.6065249 7.7010089,27.7479169 7.03236489,28.4176403 C6.62437872,28.8250868 6.39987839,29.3674494 6.39987839,29.9438108 C6.39987839,30.18612 6.43981354,30.422493 6.5159062,30.6453743 L2.01726498,31.1451034 L3.54559415,29.6200122 C3.61952815,29.6561697 3.6988588,29.681534 3.78304642,29.681534 L4.86237493,29.681534 C5.00538596,29.681534 5.14300034,29.6248692 5.24391756,29.5234123 L5.78358181,28.9837481 C5.88503869,28.8828309 5.94170344,28.7457561 5.94170344,28.6022055 L5.94170344,27.5228769 C5.94170344,27.3793263 5.88503869,27.2422515 5.78358181,27.1413343 L5.24391756,26.6016701 C5.14300034,26.5002132 5.00538596,26.4435484 4.86237493,26.4435484 L3.78304642,26.4435484 C3.64003539,26.4435484 3.50242101,26.5002132 3.40150379,26.6016701 L2.86183954,27.1413343 C2.76092232,27.2422515 2.70371791,27.3793263 2.70371791,27.5228769 L2.70371791,28.6022055 C2.70371791,28.694488 2.73447877,28.7802947 2.77873124,28.8596253 L1.25094174,30.3841768 L1.7512105,25.8806786 C2.50512147,26.1397175 3.40042446,25.9432797 3.97948421,25.3642199 C4.67295277,24.6707514 4.79545656,23.6194854 4.34591624,22.7991957 C4.96113349,22.4646039 5.74850363,22.5541882 6.26873997,23.0738848 C6.27251762,23.0776625 6.27575561,23.0814401 6.28007292,23.0852178 L9.31622402,26.1213689 L9.32216032,26.1273052 C9.841857,26.6470019 9.93359992,27.4354513 9.59738909,28.0501289 L9.59738909,28.0501289 Z M3.78304642,28.3787845 L3.78304642,27.746298 L4.00646742,27.5228769 L4.63895393,27.5228769 L4.86237493,27.746298 L4.86237493,28.3787845 L4.63895393,28.6022055 L4.00646742,28.6022055 L3.78304642,28.3787845 L3.78304642,28.3787845 Z M9.69776664,24.976741 L7.40851088,22.6874852 L8.44412658,21.6518695 L10.733922,23.941665 L9.69776664,24.976741 L9.69776664,24.976741 Z M11.8990571,23.5390754 L8.84617645,20.4861947 L15.8931123,13.4397986 L16.6561975,14.2034235 C16.7614321,14.308658 16.8995861,14.3615451 17.0377402,14.3615451 C17.1758942,14.3615451 17.3140483,14.308658 17.4192828,14.2034235 C17.6302915,13.9924148 17.6302915,13.651347 17.4192828,13.4403382 L16.6561975,12.6767133 L17.6340692,11.6988417 L18.7792367,12.8434696 C18.8844712,12.9487041 19.0226253,13.0015912 19.1607793,13.0015912 C19.2989334,13.0015912 19.4370874,12.9487041 19.542322,12.8434696 C19.7533307,12.6324609 19.7533307,12.291393 19.542322,12.0803843 L18.3971544,10.9357564 L19.3728674,9.96004347 L22.4262877,13.0129242 L11.8990571,23.5390754 L11.8990571,23.5390754 Z M23.1888333,12.2492992 L20.135413,9.19641855 L26.4106289,2.92174227 L29.4635096,5.97462296 L23.1888333,12.2492992 L23.1888333,12.2492992 Z M29.8580042,4.81758279 L27.5682087,2.52778737 L28.7932466,1.30274951 L31.083042,3.59254494 L29.8580042,4.81758279 L29.8580042,4.81758279 Z" id="Shape"></path>
                        </g>
                    </g>
                </g>
            </g>
        </g>
    </g>
</svg>