<?xml version="1.0" encoding="UTF-8" standalone="no"?>
<svg width="81px" height="80px" viewBox="0 0 81 80" version="1.1" xmlns="http://www.w3.org/2000/svg" xmlns:xlink="http://www.w3.org/1999/xlink">
    <!-- Generator: Sketch 39.1 (31720) - http://www.bohemiancoding.com/sketch -->
    <title>factory</title>
    <desc>Created with Sketch.</desc>
    <defs></defs>
    <g id="Page-1" stroke="none" stroke-width="1" fill="none" fill-rule="evenodd">
        <g id="present_land_v4" transform="translate(-994.000000, -807.000000)">
            <g id="benefits" transform="translate(0.000000, 769.000000)">
                <g id="Group-Copy-4" transform="translate(944.785617, 38.000000)">
                    <g id="factory" transform="translate(50.000000, 0.000000)">
                        <g id="Layer_1">
                            <polygon id="Shape" fill="#FFFFFF" points="73.1192767 36.2236302 70.734066 36.2236302 70.734066 45.0861874 73.1192767 48.9440064 75.6081922 45.0861874 75.6081922 36.2236302"></polygon>
                            <g id="Group" transform="translate(19.970561, 2.650178)">
                                <path d="M53.148716,35.0331671 L53.148716,35.0331671 C50.8672101,35.0331671 49.1042283,33.2606556 48.8968187,31.0710827 L48.5857043,25.0236908 L57.8154325,25.0236908 L57.4006132,31.0710827 C57.2969084,33.2606556 55.4302218,35.0331671 53.148716,35.0331671 L53.148716,35.0331671 Z" id="Shape" fill="#E6D5B7"></path>
                                <path d="M53.8746496,17.4123182 L52.5264871,14.2843568 C50.348686,8.96682252 44.333807,6.36018807 38.9411568,8.23696488 L26.8076938,12.5118454 L25.4595313,8.44549563 C24.0076639,4.06634975 19.8594714,1.14691916 15.1927549,1.14691916 L0.155557217,1.14691916 L0.155557217,0.104265378 L15.2964597,0.104265378 C20.3779955,0.104265378 24.8373024,3.3364921 26.4965794,8.1326995 L27.5336275,11.1563955 L38.6300423,7.29857647 C44.5412166,5.21326891 51.0746197,8.1326995 53.4598304,13.8672953 L54.8079929,16.9952566 L53.8746496,17.4123182 L53.8746496,17.4123182 Z" id="Shape" fill="#E6E9EE"></path>
                            </g>
                            <g id="Group" transform="translate(4.414839, 8.384774)" fill="#A78A4D">
                                <path d="M17.3705559,0.208530756 L0.155557217,0.208530756 C0.155557217,1.04265378 0.362966841,1.87677681 0.570376464,2.60663445 L13.3260683,40.1421706 C14.4668212,43.4786627 17.9927848,45.3554395 21.3113388,44.3127857 C24.6298928,43.3743973 26.703989,39.9336398 25.8743505,36.4928824 L17.3705559,0.208530756 L17.3705559,0.208530756 Z" id="Shape"></path>
                                <rect id="Rectangle-path" transform="translate(57.340834, 12.763444) rotate(195.658136) translate(-57.340834, -12.763444) " x="47.8516078" y="10.3131804" width="18.9784525" height="4.90052771"></rect>
                            </g>
                            <path d="M53.1042481,11.617001 L15.4594014,0.669136271 C10.8963897,-0.686313646 6.02226358,1.92032081 4.77780584,6.50799745 C3.42964329,11.3042048 6.54078764,16.2046776 11.4149138,17.143066 L50.2005133,24.3373771 C53.6227721,24.9629694 56.9413261,22.7733964 57.7709646,19.332639 C58.3931935,15.9961469 56.422802,12.5553894 53.1042481,11.617001 L53.1042481,11.617001 Z" id="Shape" fill="#E6D5B7"></path>
                            <ellipse id="Oval" fill="#A78A4D" cx="13.2816004" cy="8.90610115" rx="3.62966841" ry="3.64928824"></ellipse>
                            <ellipse id="Oval" fill="#E6D5B7" cx="73.1192767" cy="24.2331117" rx="6.84451757" ry="6.88151496"></ellipse>
                            <ellipse id="Oval" fill="#A78A4D" cx="73.1192767" cy="24.2331117" rx="3.11114435" ry="3.12796135"></ellipse>
                            <polygon id="Shape" fill="#E6D5B7" points="46.7782546 75.8444739 3.42964329 75.8444739 9.02970312 61.8729133 41.1781947 61.8729133"></polygon>
                            <g id="Group" transform="translate(0.007385, 58.432156)" fill="#A78A4D">
                                <path d="M47.911623,21.1658718 L2.28150586,21.1658718 C1.03704812,21.1658718 0,20.123218 0,18.8720335 L0,18.8720335 C0,17.6208489 1.03704812,16.5781951 2.28150586,16.5781951 L47.911623,16.5781951 C49.1560807,16.5781951 50.1931288,17.6208489 50.1931288,18.8720335 L50.1931288,18.8720335 C50.1931288,20.123218 49.1560807,21.1658718 47.911623,21.1658718 L47.911623,21.1658718 Z" id="Shape"></path>
                                <path d="M41.8967439,4.69194202 L8.29638493,4.69194202 C7.05192719,4.69194202 6.01487907,3.64928824 6.01487907,2.3981037 L6.01487907,2.3981037 C6.01487907,1.14691916 7.05192719,0.104265378 8.29638493,0.104265378 L41.8967439,0.104265378 C43.1412016,0.104265378 44.1782498,1.14691916 44.1782498,2.3981037 L44.1782498,2.3981037 C44.0745449,3.64928824 43.1412016,4.69194202 41.8967439,4.69194202 L41.8967439,4.69194202 Z" id="Shape"></path>
                            </g>
                            <path d="M37.6522311,58.6406865 L12.5556667,58.6406865 L12.5556667,54.365806 C12.5556667,47.3800257 18.1557265,41.7496953 25.1039489,41.7496953 L25.1039489,41.7496953 C32.0521713,41.7496953 37.6522311,47.3800257 37.6522311,54.365806 L37.6522311,58.6406865 L37.6522311,58.6406865 L37.6522311,58.6406865 Z" id="Shape" fill="#E6D5B7"></path>
                            <ellipse id="Oval" fill="#A78A4D" cx="25.1039489" cy="51.0293139" rx="2.48891548" ry="2.50236908"></ellipse>
                        </g>
                    </g>
                </g>
            </g>
        </g>
    </g>
</svg>