<?xml version="1.0" encoding="UTF-8" standalone="no"?>
<svg width="82px" height="81px" viewBox="0 0 82 81" version="1.1" xmlns="http://www.w3.org/2000/svg" xmlns:xlink="http://www.w3.org/1999/xlink">
    <!-- Generator: Sketch 39.1 (31720) - http://www.bohemiancoding.com/sketch -->
    <title>business</title>
    <desc>Created with Sketch.</desc>
    <defs></defs>
    <g id="Page-1" stroke="none" stroke-width="1" fill="none" fill-rule="evenodd">
        <g id="present_land_v4" transform="translate(-786.000000, -807.000000)">
            <g id="benefits" transform="translate(0.000000, 769.000000)">
                <g id="Group-Copy-3" transform="translate(745.839213, 38.000000)">
                    <g id="business" transform="translate(41.053596, 0.000000)">
                        <g id="Layer_1">
                            <polygon id="Shape" fill="#A78A4D" points="0 20.188549 40.5085577 0.0607478906 81.0171153 20.1883883 81.0171153 22.8468317 40.5085577 42.974472 0 22.9103116"></polygon>
                            <polygon id="Shape" fill="#A78A4D" points="0 20.188549 40.5085577 40.3161893 81.0171153 20.188549 81.0171153 60.507149 40.3819192 80.6347893 0 60.5073097"></polygon>
                            <polygon id="Shape" fill="#CAAD6F" points="40.5085577 80.5716308 40.5085577 40.3163501 0.253116211 20.3150267 0 20.3150267 0 60.5069882 40.3819192 80.6346286"></polygon>
                            <polygon id="Shape" fill="#E6D5B7" points="16.5198906 12.0234218 56.9651291 32.1510622 65.1934148 28.1002385 24.6215379 7.97275887"></polygon>
                            <path d="M56.9651291,32.1512229 L65.1934148,28.1003992 L65.1934148,40.7592632 L62.9780453,40.3795086 L60.636198,43.227749 L56.9651291,42.9746328 C56.9651291,42.974472 56.9651291,32.1512229 56.9651291,32.1512229 L56.9651291,32.1512229 Z" id="Shape" fill="#E6D5B7"></path>
                            <path d="M32.1536335,56.3930061 L18.4819832,49.5572613 C17.7224739,49.1775066 17.0894423,49.6205805 17.0894423,50.5700476 L17.0894423,59.7478003 C17.0894423,60.6972674 17.7223132,61.7732121 18.4819832,62.1529668 L32.2169527,68.9887116 C32.9764621,69.3684663 33.6094937,68.9253924 33.6094937,67.9759253 L33.6094937,58.7348534 C33.5460137,57.7853863 32.9131428,56.7729215 32.1536335,56.3930061 L32.1536335,56.3930061 Z M29.0521162,63.9251017 L20.3174374,59.5578426 C19.9376827,59.3678849 19.6212472,58.7983333 19.6212472,58.2919402 C19.6212472,57.785547 19.9376827,57.5324308 20.3174374,57.7222278 L29.0521162,62.0894869 C29.4318709,62.2794446 29.7483063,62.8489962 29.7483063,63.3553893 C29.7483063,63.8617825 29.4318709,64.1148987 29.0521162,63.9251017 L29.0521162,63.9251017 Z M30.3180187,60.7602652 L20.3174374,55.6966553 C19.9376827,55.5066976 19.6212472,54.9371459 19.6212472,54.4307528 C19.6212472,53.9243597 19.9376827,53.6712435 20.3174374,53.8610404 L30.3180187,58.9246503 C30.6977733,59.114608 31.0142088,59.6841597 31.0142088,60.1905528 C31.0143695,60.7602652 30.6977733,60.9500621 30.3180187,60.7602652 L30.3180187,60.7602652 Z" id="Shape" fill="#E6D5B7"></path>
                        </g>
                    </g>
                </g>
            </g>
        </g>
    </g>
</svg>