<?xml version="1.0" encoding="UTF-8" standalone="no"?>
<svg width="782px" height="430px" viewBox="0 0 782 430" version="1.1" xmlns="http://www.w3.org/2000/svg" xmlns:xlink="http://www.w3.org/1999/xlink">
    <!-- Generator: Sketch 39.1 (31720) - http://www.bohemiancoding.com/sketch -->
    <title>macbook-air</title>
    <desc>Created with Sketch.</desc>
    <defs></defs>
    <g id="Page-1" stroke="none" stroke-width="1" fill="none" fill-rule="evenodd">
        <g id="present_land_v4" transform="translate(-147.000000, -2275.000000)" stroke="#FFFFFF">
            <g id="VIDEO" transform="translate(-17.000000, 2215.000000)">
                <g id="macbook-air" transform="translate(164.000000, 61.000000)">
                    <g id="Page-1">
                        <g>
                            <g id="macbook-air">
                                <g id="device" transform="translate(0.557583, 0.000000)">
                                    <path d="M390.44102,411.478217 L80.2020411,411.478217 L80.2020411,21.6504975 C80.2020411,9.93433329 89.6997799,0.435307439 101.414449,0.435307439 L390.44102,0.435307439 L679.46759,0.435307439 C691.18226,0.435307439 700.679999,9.93433329 700.679999,21.6504975 L700.679999,411.478217 L390.44102,411.478217 L390.44102,411.478217 Z M106.718599,26.954295 L674.163441,26.954295 L674.163441,384.959229 L106.718599,384.959229 L106.718599,26.954295 L106.718599,26.954295 Z" id="path-2" stroke-width="2" fill="#D4D7DB"></path>
                                    <path d="M740.454836,427.389609 L390.44102,427.389609 L40.428601,427.389609 C19.3530921,427.389609 2.11774849,420.363545 0.751549267,411.478217 L390.44102,411.478217 L780.130491,411.478217 C778.764291,420.363545 761.528948,427.389609 740.454836,427.389609 L740.454836,427.389609 L740.454836,427.389609 Z" id="path-3" stroke-width="2" fill="#C1C3C8"></path>
                                    <path d="M445.255224,411.478217 C443.208719,416.158531 438.549952,419.433913 433.115887,419.433913 L390.689674,419.433913 L390.44102,419.433913 L348.014806,419.433913 C342.580742,419.433913 337.921975,416.158531 335.87547,411.478217 L445.255224,411.478217 L445.255224,411.478217 L445.255224,411.478217 Z" id="path-4" fill="#979AA1"></path>
                                    <ellipse id="circle-1" stroke-width="2" fill="#A5ADBD" cx="391.140883" cy="15.8210732" rx="5.5877269" ry="5.59177386"></ellipse>
                                </g>
                            </g>
                        </g>
                    </g>
                </g>
            </g>
        </g>
    </g>
</svg>