<?xml version="1.0" encoding="UTF-8" standalone="no"?>
<svg width="48px" height="48px" viewBox="0 0 48 48" version="1.1" xmlns="http://www.w3.org/2000/svg" xmlns:xlink="http://www.w3.org/1999/xlink">
    <!-- Generator: Sketch 39.1 (31720) - http://www.bohemiancoding.com/sketch -->
    <title>error</title>
    <desc>Created with Sketch.</desc>
    <defs></defs>
    <g id="Page-1" stroke="none" stroke-width="1" fill="none" fill-rule="evenodd">
        <g id="present_modal" transform="translate(-1113.000000, -129.000000)" fill="#DFE1DF">
            <g id="error" transform="translate(1113.000000, 129.000000)">
                <g id="Capa_1">
                    <g id="Group">
                        <path d="M24,0 C10.7667692,0 0,10.7658462 0,24 C0,37.2341538 10.7667692,48 24,48 C37.2332308,48 48,37.2341538 48,24 C48,10.7658462 37.2332308,0 24,0 L24,0 Z M24,46.1538462 C11.7849231,46.1538462 1.84615385,36.2150769 1.84615385,24 C1.84615385,11.7849231 11.7849231,1.84615385 24,1.84615385 C36.2150769,1.84615385 46.1538462,11.7849231 46.1538462,24 C46.1538462,36.2150769 36.2150769,46.1538462 24,46.1538462 L24,46.1538462 Z" id="Shape"></path>
                        <path d="M33.707,14.293 C33.316,13.902 32.684,13.902 32.293,14.293 L24,22.586 L15.707,14.293 C15.316,13.902 14.684,13.902 14.293,14.293 C13.902,14.684 13.902,15.316 14.293,15.707 L22.586,24 L14.293,32.293 C13.902,32.684 13.902,33.316 14.293,33.707 C14.488,33.902 14.744,34 15,34 C15.256,34 15.512,33.902 15.707,33.707 L24,25.414 L32.293,33.707 C32.488,33.902 32.744,34 33,34 C33.256,34 33.512,33.902 33.707,33.707 C34.098,33.316 34.098,32.684 33.707,32.293 L25.414,24 L33.707,15.707 C34.098,15.316 34.098,14.684 33.707,14.293 L33.707,14.293 Z" id="Shape"></path>
                    </g>
                </g>
            </g>
        </g>
    </g>
</svg>