<?xml version="1.0" encoding="UTF-8" standalone="no"?>
<svg width="62px" height="62px" viewBox="0 0 62 62" version="1.1" xmlns="http://www.w3.org/2000/svg" xmlns:xlink="http://www.w3.org/1999/xlink">
    <!-- Generator: Sketch 39.1 (31720) - http://www.bohemiancoding.com/sketch -->
    <title>Group 4</title>
    <desc>Created with Sketch.</desc>
    <defs>
        <circle id="path-1" cx="30" cy="30" r="30"></circle>
    </defs>
    <g id="статика" stroke="none" stroke-width="1" fill="none" fill-rule="evenodd">
        <g id="polis812_about" transform="translate(-135.000000, -936.000000)">
            <g id="viza_price_v2" transform="translate(0.000000, 508.000000)">
                <g id="seo" transform="translate(135.000000, 131.000000)">
                    <g id="Group-4" transform="translate(1.000000, 298.000000)">
                        <mask id="mask-2" fill="white">
                            <use xlink:href="#path-1"></use>
                        </mask>
                        <use id="Oval-3" stroke="#E3E6E7" fill="#FFFFFF" xlink:href="#path-1"></use>
                        <g id="tag" mask="url(#mask-2)">
                            <g id="Layer_1">
                                <path d="M30,0.000352048531 C13.4315625,0.000352048531 0,13.4498968 0,30.0411226 C0,46.6330525 13.4315625,60.0825973 30,60.0825973 C46.5684375,60.0825973 60,46.6330525 60,30.0411226 C60,13.4498968 46.5684375,0.000352048531 30,0.000352048531 L30,0.000352048531 Z" id="Shape" fill="#3DB39E"></path>
                                <path d="M42.4488281,20.9163767 L46.6698047,20.9163767 C47.2248047,20.9163767 47.6867578,21.3003443 47.82,21.817621 C47.8446094,21.720925 47.8619531,21.6217646 47.8619531,21.5172062 C47.8619531,20.8539468 47.3279297,20.3155472 46.6698047,20.3155472 L42.4488281,20.3155472 C40.905,20.3155472 39.6503906,19.1277355 39.4986328,17.6118145 C39.4884375,17.7121483 39.4686328,17.8094311 39.4686328,17.9122293 C39.4686328,19.5716687 40.8030469,20.9163767 42.4488281,20.9163767 L42.4488281,20.9163767 Z M46.6698047,24.5213537 L38.0580469,24.5213537 L36.8688281,23.3196947 L36.2742188,23.3196947 L38.0586328,25.1221832 L46.6709766,25.1221832 C48.3167578,25.1221832 49.6511719,23.7768884 49.6511719,22.1180357 C49.6511719,22.0152375 49.6313672,21.9179548 49.6211719,21.817621 C49.4682422,23.3335419 48.2136328,24.5213537 46.6698047,24.5213537 L46.6698047,24.5213537 Z" id="Shape" fill="#37A18E"></path>
                                <path d="M42.4488281,16.1097408 L56.5776562,16.1097408 C56.2566797,15.4962375 55.9176562,14.8948213 55.5570703,14.3072523 L42.4488281,14.3072523 C40.8030469,14.3072523 39.4686328,15.6525471 39.4686328,17.3113998 C39.4686328,18.9702524 40.8030469,20.3155472 42.4488281,20.3155472 L46.6698047,20.3155472 C47.3286328,20.3155472 47.8619531,20.8539468 47.8619531,21.5172062 C47.8619531,22.1804657 47.3279297,22.7188652 46.6698047,22.7188652 L36.2736328,22.7188652 L38.0580469,24.5213537 L46.6703906,24.5213537 C48.3161719,24.5213537 49.6505859,23.1760589 49.6505859,21.5172062 C49.6505859,19.8583535 48.3161719,18.5130588 46.6703906,18.5130588 L42.4488281,18.5130588 C41.79,18.5130588 41.2566797,17.9746592 41.2566797,17.3113998 C41.2565625,16.6481403 41.79,16.1097408 42.4488281,16.1097408 L42.4488281,16.1097408 Z" id="Shape" fill="#E4E7E7"></path>
                                <path d="M24.6,23.7318262 C24.6,22.5704181 23.6598047,21.628923 22.5,21.628923 C21.7661719,21.628923 21.1230469,22.0067884 20.7473437,22.5775764 C21.0785156,22.3588369 21.4739062,22.2297524 21.9,22.2297524 C23.0598047,22.2297524 24,23.1712476 24,24.3326557 C24,24.7592211 23.8709766,25.1557451 23.6526562,25.4869055 C24.2226562,25.111387 24.6,24.4666688 24.6,23.7318262 L24.6,23.7318262 Z M33.8213672,46.8566033 C33.0083203,47.6700702 31.6907813,47.6700702 30.8783203,46.8566033 L17.0142188,33.1143889 C16.9140234,33.0140551 16.1909766,31.8934846 16.1909766,30.9754594 L16.1969531,19.371001 C16.1969531,18.8813015 16.258125,18.5117679 16.3841016,18.2257872 C15.8219531,18.4726905 15.5969531,18.9978296 15.5969531,19.9718305 L15.5909766,31.5762889 C15.5909766,32.4937274 16.3140234,33.6148846 16.4142188,33.7152184 L30.2784375,47.4574328 C31.0907813,48.2708996 32.4084375,48.2708996 33.2214844,47.4574328 L44.9928516,35.6788278 L44.9951953,35.6764808 L33.8213672,46.8566033 L33.8213672,46.8566033 L33.8213672,46.8566033 Z" id="Shape" fill="#37A18E"></path>
                                <path d="M45.5928516,32.1326429 L31.8588281,18.2600532 C31.7574609,18.1585459 30.7661719,17.4350862 29.7420703,17.4321524 C26.8962891,17.4621939 21.1140234,17.4429486 18.0966797,17.4429486 C16.6855078,17.4429486 16.1970703,17.9085914 16.1970703,19.371001 L16.1910937,30.9754594 C16.1910937,31.8928979 16.9141406,33.0140551 17.0143359,33.1143889 L30.8785547,46.8566033 C31.6908984,47.6700702 33.0085547,47.6700702 33.8216016,46.8566033 L45.5929687,35.0779983 C46.4051953,34.2644141 46.4051953,32.9462271 45.5928516,32.1326429 L45.5928516,32.1326429 L45.5928516,32.1326429 Z M22.5,25.8347294 C21.3401953,25.8347294 20.4,24.8932343 20.4,23.7318262 C20.4,22.5704181 21.3401953,21.628923 22.5,21.628923 C23.6598047,21.628923 24.6,22.5704181 24.6,23.7318262 C24.6,24.8932343 23.6598047,25.8347294 22.5,25.8347294 L22.5,25.8347294 Z" id="Shape" fill="#EFC75E"></path>
                                <path d="M22.5,20.427264 C20.6771484,20.427264 19.2,21.9064545 19.2,23.7318262 C19.2,25.5571978 20.6771484,27.0363884 22.5,27.0363884 C24.3228516,27.0363884 25.8,25.5571978 25.8,23.7318262 C25.8,21.9064545 24.3228516,20.427264 22.5,20.427264 L22.5,20.427264 Z M22.5,25.2338999 C21.6713672,25.2338999 21,24.5616046 21,23.7318262 C21,22.9020478 21.6713672,22.2297524 22.5,22.2297524 C23.3286328,22.2297524 24,22.9020478 24,23.7318262 C24,24.5616046 23.3286328,25.2338999 22.5,25.2338999 L22.5,25.2338999 Z" id="Shape" fill="#30444D"></path>
                                <path d="M32.4,31.2421948 C33.7253906,31.2421948 34.8,30.1660998 34.8,28.8388769 C34.8,27.5116539 33.7253906,26.4355589 32.4,26.4355589 C31.0746094,26.4355589 30,27.5116539 30,28.8388769 C30,30.1660998 31.0746094,31.2421948 32.4,31.2421948 L32.4,31.2421948 Z M32.4,27.6372179 C33.0623437,27.6372179 33.6,28.1756174 33.6,28.8388769 C33.6,29.5021363 33.0623437,30.0405359 32.4,30.0405359 C31.7376562,30.0405359 31.2,29.5021363 31.2,28.8388769 C31.2,28.1756174 31.7376562,27.6372179 32.4,27.6372179 L32.4,27.6372179 Z M32.4,36.0488308 C31.0746094,36.0488308 30,37.1249258 30,38.4521488 C30,39.7793717 31.0746094,40.8554667 32.4,40.8554667 C33.7253906,40.8554667 34.8,39.7793717 34.8,38.4521488 C34.8,37.1249258 33.7253906,36.0488308 32.4,36.0488308 L32.4,36.0488308 Z M32.4,39.6538077 C31.7376562,39.6538077 31.2,39.1154082 31.2,38.4521488 C31.2,37.7888893 31.7376562,37.2504898 32.4,37.2504898 C33.0623437,37.2504898 33.6,37.7888893 33.6,38.4521488 C33.6,39.1155255 33.0623437,39.6538077 32.4,39.6538077 L32.4,39.6538077 Z M38.4,33.0446833 L26.4,33.0446833 C26.0688281,33.0446833 25.8,33.3132964 25.8,33.6455128 C25.8,33.9777293 26.0688281,34.2463423 26.4,34.2463423 L38.4,34.2463423 C38.7317578,34.2463423 39,33.9777293 39,33.6455128 C39,33.3132964 38.7317578,33.0446833 38.4,33.0446833 L38.4,33.0446833 Z" id="Shape" fill="#D07C40"></path>
                                <polygon id="Shape" fill="#CDCFCF" points="37.9373438 22.7188652 36.2735156 22.7188652 38.0579297 24.5213537 39.7373438 24.5213537"></polygon>
                                <path d="M0.875976562,22.8305819 C0.729609375,23.4242531 0.60421875,24.0262561 0.494414062,24.6330704 L23.6934375,24.6330704 C23.8830469,24.3813557 24,24.0713183 24,23.7318262 C24,23.392334 23.8830469,23.0822966 23.6934375,22.8305819 L0.875976562,22.8305819 L0.875976562,22.8305819 L0.875976562,22.8305819 Z" id="Shape" fill="#E4E7E7"></path>
                                <path d="M45.5928516,32.1326429 L31.8588281,18.2600532 C31.7574609,18.1585459 30.7661719,17.4350862 29.7420703,17.4321524 C26.8962891,17.4621939 21.1140234,17.4429486 18.0966797,17.4429486 C17.1582422,17.4429486 16.6338281,17.6574635 16.3843359,18.2257872 C16.6657031,18.1019834 17.0257031,18.0437781 17.4966797,18.0437781 C20.5140234,18.0437781 26.296875,18.0630234 29.1420703,18.0329819 C30.1662891,18.036033 31.1574609,18.7587886 31.2588281,18.8608827 L44.9928516,32.7334724 C45.8046094,33.5463525 45.8051953,34.8621925 44.9951953,35.6763634 L45.5928516,35.0778809 C46.4051953,34.2644141 46.4051953,32.9462271 45.5928516,32.1326429 L45.5928516,32.1326429 Z" id="Shape" fill="#F2D27E"></path>
                                <path d="M56.5776562,16.1097408 L42.4488281,16.1097408 C41.79,16.1097408 41.2566797,16.6481403 41.2566797,17.3113998 C41.2566797,17.4159582 41.2740234,17.5151185 41.2986328,17.6118145 C41.431875,17.0945379 41.8938281,16.7105703 42.4488281,16.7105703 L56.8853906,16.7105703 C56.7851953,16.5093159 56.6819531,16.309235 56.5776562,16.1097408 L56.5776562,16.1097408 L56.5776562,16.1097408 Z M23.6934375,24.6330704 L0.6215625,24.6330704 L0.494414062,25.2338999 L22.5,25.2338999 C22.9890234,25.2338999 23.4192187,24.9960325 23.6934375,24.6330704 L23.6934375,24.6330704 L23.6934375,24.6330704 Z" id="Shape" fill="#37A18E"></path>
                                <path d="M16.1940234,25.2338999 L21.0330469,25.2338999 C20.8572656,25.0621002 20.7162891,24.8577947 20.6094141,24.6330704 L16.1946094,24.6330704 L16.1940234,25.2338999 L16.1940234,25.2338999 Z" id="Shape" fill="#D7B354"></path>
                                <path d="M19.5630469,25.2338999 L22.5,25.2338999 C22.0109766,25.2338999 21.5807813,24.9959151 21.3065625,24.6330704 L19.3271484,24.6330704 C19.3865625,24.842774 19.4657812,25.0434417 19.5630469,25.2338999 L19.5630469,25.2338999 L19.5630469,25.2338999 Z" id="Shape" fill="#273A45"></path>
                                <polygon id="Shape" fill="#319180" points="15.5946094 25.2338999 16.1940234 25.2338999 16.1946094 24.6330704 15.5951953 24.6330704"></polygon>
                            </g>
                        </g>
                    </g>
                </g>
            </g>
        </g>
    </g>
</svg>