<?xml version="1.0" encoding="UTF-8" standalone="no"?>
<svg width="63px" height="80px" viewBox="0 0 63 80" version="1.1" xmlns="http://www.w3.org/2000/svg" xmlns:xlink="http://www.w3.org/1999/xlink">
    <!-- Generator: Sketch 39.1 (31720) - http://www.bohemiancoding.com/sketch -->
    <title>certificate</title>
    <desc>Created with Sketch.</desc>
    <defs></defs>
    <g id="Page-1" stroke="none" stroke-width="1" fill="none" fill-rule="evenodd">
        <g id="present_land_v4" transform="translate(-200.000000, -806.000000)">
            <g id="benefits" transform="translate(0.000000, 769.000000)">
                <g id="Group" transform="translate(145.000000, 37.000000)">
                    <g id="certificate" transform="translate(55.000000, 0.000000)">
                        <g id="Layer_1">
                            <path d="M40.4423316,25.5765545 L16.1953063,36.4950495 L35.7938886,79.4203564 L46.3469468,70.5607921 L59.9780734,68.5642772 L40.4423316,25.5765545 L40.4423316,25.5765545 Z" id="Shape" fill="#2B414D"></path>
                            <path d="M22.4769646,26.0133069 L46.7239899,36.931802 L27.1254076,79.9195248 L16.5723494,70.9975446 L2.87854177,69.0010297 C2.87838228,69.0010297 22.4769646,26.0133069 22.4769646,26.0133069 L22.4769646,26.0133069 Z" id="Shape" fill="#475F6C"></path>
                            <path d="M62.8676203,31.2541782 C62.8676203,33.5626139 59.5383494,35.4968713 59.0357848,37.6804752 C58.5332203,39.926495 60.7318405,43.1085941 59.7895519,45.1675248 C58.7844228,47.2264554 54.9527468,47.4759604 53.5707342,49.2229703 C52.1887215,50.9699802 52.8169671,54.8381782 51.0580709,56.2732673 C49.2991747,57.7083564 45.7815418,56.2108515 43.771443,57.2091881 C41.7613443,58.2075248 40.6935342,61.9508911 38.4949139,62.4500594 C36.3591342,62.9492277 33.7837899,60.0792079 31.5223291,60.0792079 C29.2610278,60.0792079 26.6855241,62.9492277 24.5497443,62.4500594 C22.3511241,61.9508911 21.2833139,58.2073663 19.2732152,57.2091881 C17.2631165,56.2108515 13.682643,57.7083564 11.9865873,56.2732673 C10.2276911,54.8383366 10.8559367,50.9699802 9.47392405,49.2229703 C8.09191139,47.4759604 4.26023544,47.2264554 3.25510633,45.1675248 C2.31281772,43.1710099 4.51143797,39.9266535 4.00887342,37.6804752 C3.38078734,35.4967129 0.0515164557,33.5626139 0.0515164557,31.2541782 C0.0515164557,28.9457426 3.38078734,27.0114851 3.8833519,24.8278812 C4.38591646,22.5818614 2.1872962,19.3997624 3.12958481,17.3408317 C4.13471392,15.281901 7.96638987,15.032396 9.34840253,13.2853861 C10.7304152,11.5383762 10.1021696,7.67017822 11.8610658,6.23508911 C13.619962,4.8 17.1375949,6.29750495 19.1476937,5.29916832 C21.1577924,4.30083168 22.2256025,0.557465347 24.4242228,0.0582970297 C26.5600025,-0.440871287 29.1353468,2.42914851 31.3968076,2.42914851 C33.6581089,2.42914851 36.2336127,-0.440871287 38.3693924,0.0582970297 C40.5680127,0.557465347 41.6358228,4.3009901 43.6459215,5.29916832 C45.6560203,6.29750495 49.2364937,4.8 50.9325494,6.23508911 C52.6914456,7.6700198 52.0632,11.5383762 53.4452127,13.2853861 C54.8272253,15.032396 58.6589013,15.281901 59.6640304,17.3408317 C60.606319,19.3373465 58.4076987,22.581703 58.9102633,24.8278812 C59.5383494,27.0116436 62.8676203,28.9457426 62.8676203,31.2541782 L62.8676203,31.2541782 Z" id="Shape" fill="#A78A4D"></path>
                            <path d="M31.4596481,18.7759208 C24.4870633,18.7759208 18.8964911,24.3911287 18.8964911,31.2541782 C18.8964911,38.1172277 24.5499038,43.7324356 31.4596481,43.7324356 C38.4322329,43.7324356 44.0228051,38.1172277 44.0228051,31.2541782 C44.0228051,24.3911287 38.4320734,18.7759208 31.4596481,18.7759208 L31.4596481,18.7759208 Z M31.4596481,36.8693861 C28.3188987,36.8693861 25.8062354,34.373703 25.8062354,31.2541782 C25.8062354,28.1346535 28.3188987,25.6389703 31.4596481,25.6389703 C34.6003975,25.6389703 37.1130608,28.1346535 37.1130608,31.2541782 C37.1130608,34.373703 34.6003975,36.8693861 31.4596481,36.8693861 L31.4596481,36.8693861 Z M31.4596481,8.79318812 C18.9593316,8.79318812 8.84583797,18.8381782 8.84583797,31.2541782 C8.84583797,43.6701782 18.9591722,53.7151683 31.4596481,53.7151683 C43.9601241,53.7151683 54.0732987,43.6700198 54.0732987,31.2541782 C54.0732987,18.8383366 43.9599646,8.79318812 31.4596481,8.79318812 L31.4596481,8.79318812 Z M31.4596481,49.9716436 C21.0322709,49.9716436 12.6148329,41.6112475 12.6148329,31.2541782 C12.6148329,20.8971089 21.0321114,12.5367129 31.4596481,12.5367129 C41.8871848,12.5367129 50.3044633,20.8971089 50.3044633,31.2541782 C50.3044633,41.6112475 41.8870253,49.9716436 31.4596481,49.9716436 L31.4596481,49.9716436 Z" id="Shape" fill="#E6D5B7"></path>
                        </g>
                    </g>
                </g>
            </g>
        </g>
    </g>
</svg>