<?xml version="1.0" encoding="UTF-8" standalone="no"?>
<svg width="24px" height="24px" viewBox="0 0 24 24" version="1.1" xmlns="http://www.w3.org/2000/svg" xmlns:xlink="http://www.w3.org/1999/xlink">
    <!-- Generator: Sketch 39.1 (31720) - http://www.bohemiancoding.com/sketch -->
    <title>Group 14</title>
    <desc>Created with Sketch.</desc>
    <defs></defs>
    <g id="Page-1" stroke="none" stroke-width="1" fill="none" fill-rule="evenodd" opacity="0.702017257">
        <g id="present_land_v4" transform="translate(-639.000000, -5211.000000)" fill="#33353E">
            <g id="footer" transform="translate(0.000000, 5075.000000)">
                <g id="instagra" transform="translate(626.000000, 123.000000)">
                    <g id="instagram">
                        <g id="Layer_1">
                            <g id="Group">
                                <g id="Group-13" transform="translate(8.000000, 9.000000)">
                                    <g id="Group-14" transform="translate(5.000000, 4.000000)">
                                        <path d="M19.3638889,0.266666667 L4.50166667,0.266666667 C2.12944444,0.266666667 0.199444444,2.19666667 0.199444444,4.56888889 L0.199444444,19.4311111 C0.199444444,21.8033333 2.12944444,23.7338889 4.50166667,23.7338889 L19.3638889,23.7338889 C21.7361111,23.7338889 23.6666667,21.8038889 23.6666667,19.4311111 L23.6666667,4.56888889 C23.6666667,2.19666667 21.7366667,0.266666667 19.3638889,0.266666667 L19.3638889,0.266666667 Z M11.9327778,19.7255556 C7.67333333,19.7255556 4.20777778,16.26 4.20777778,12 C4.20777778,7.74055556 7.67333333,4.275 11.9327778,4.275 C16.1927778,4.275 19.6583333,7.74055556 19.6583333,12 C19.6583333,16.2594444 16.1922222,19.7255556 11.9327778,19.7255556 L11.9327778,19.7255556 Z M19.9066667,5.87222222 C18.8983333,5.87222222 18.0783333,5.05222222 18.0783333,4.04444444 C18.0783333,3.03666667 18.8983333,2.21666667 19.9066667,2.21666667 C20.9144444,2.21666667 21.7344444,3.03666667 21.7344444,4.04444444 C21.7344444,5.05222222 20.9144444,5.87222222 19.9066667,5.87222222 L19.9066667,5.87222222 Z" id="Shape"></path>
                                        <path d="M7.47166667,11.9994444 C7.47166667,14.4594444 9.47388889,16.4611111 11.9327778,16.4611111 C14.3927778,16.4611111 16.3933333,14.4594444 16.3933333,11.9994444 C16.3933333,9.54111111 14.3922222,7.53944444 11.9327778,7.53944444 C9.47388889,7.53944444 7.47166667,9.54055556 7.47166667,11.9994444 Z" id="Shape"></path>
                                    </g>
                                </g>
                            </g>
                        </g>
                    </g>
                </g>
            </g>
        </g>
    </g>
</svg>