<?xml version="1.0" encoding="UTF-8" standalone="no"?>
<svg width="21px" height="12px" viewBox="0 0 21 12" version="1.1" xmlns="http://www.w3.org/2000/svg" xmlns:xlink="http://www.w3.org/1999/xlink">
    <!-- Generator: Sketch 39.1 (31720) - http://www.bohemiancoding.com/sketch -->
    <title>Shape</title>
    <desc>Created with Sketch.</desc>
    <defs></defs>
    <g id="Page-1" stroke="none" stroke-width="1" fill="none" fill-rule="evenodd" opacity="0.503323228">
        <g id="present_land_v4" transform="translate(-719.000000, -659.000000)" fill="#FFFFFF">
            <g id="thin-arrowheads-pointing-down" transform="translate(719.000000, 659.000000)">
                <g id="Capa_1">
                    <g id="Group">
                        <path d="M10.0136105,11.7915523 C10.1537579,11.9288809 10.3152,11.9974007 10.4974947,11.9974007 C10.6797895,11.9974007 10.8409368,11.9289531 10.9810105,11.7915523 L20.7849895,2.18519856 C20.9251368,2.04779783 20.9947684,1.88967509 20.9947684,1.71104693 C20.9947684,1.53241877 20.9246947,1.37422383 20.7849895,1.23689531 L19.7332211,0.20599278 C19.5930737,0.0685920578 19.4316316,0 19.2491158,0 C19.0670421,0 18.9056737,0.0685920578 18.7655263,0.20599278 L10.4974947,8.30743682 L2.22983158,0.20599278 C2.08961053,0.0685920578 1.92824211,0 1.74594737,0 C1.56357895,0 1.40221053,0.0685920578 1.26206316,0.20599278 L0.210442105,1.23689531 C0.07,1.37422383 0,1.53212996 0,1.71104693 C0,1.8899639 0.0702210526,2.04787004 0.210442105,2.18519856 L10.0136105,11.7915523 L10.0136105,11.7915523 Z" id="Shape"></path>
                    </g>
                </g>
            </g>
        </g>
    </g>
</svg>