<?xml version="1.0" encoding="UTF-8" standalone="no"?>
<svg width="69px" height="75px" viewBox="0 0 69 75" version="1.1" xmlns="http://www.w3.org/2000/svg" xmlns:xlink="http://www.w3.org/1999/xlink">
    <!-- Generator: Sketch 39.1 (31720) - http://www.bohemiancoding.com/sketch -->
    <title>clipboard-variant-with-pencil-and-check-mark-variant</title>
    <desc>Created with Sketch.</desc>
    <defs></defs>
    <g id="Page-1" stroke="none" stroke-width="1" fill="none" fill-rule="evenodd">
        <g id="present_land_v4" transform="translate(-249.000000, -2998.000000)" fill="#FFFFFF">
            <g id="STEPS" transform="translate(-63.000000, 2842.000000)">
                <g id="Group-2" transform="translate(206.000000, 122.000000)">
                    <g id="clipboard-variant-with-pencil-and-check-mark-variant" transform="translate(106.000000, 34.000000)">
                        <g id="Capa_1">
                            <path d="M51.804,59.891 L54.528,57.167 L54.528,71.684 C54.528,73.436 53.102,74.861 51.35,74.861 L30.918,74.861 L23.671,74.861 L3.241,74.861 C1.489,74.861 0.063,73.436 0.063,71.684 L0.063,8.143 C0.063,6.391 1.489,4.966 3.241,4.966 L13.412,4.966 L13.045,6.622 C13.014,6.761 12.999,6.888 12.999,7.008 L12.999,14.27 C12.999,15.271 13.813,16.085 14.814,16.085 L39.776,16.085 C40.778,16.085 41.592,15.271 41.592,14.27 L41.592,7.008 C41.592,6.887 41.576,6.761 41.545,6.622 L41.178,4.966 L51.349,4.966 L51.35,4.966 C53.102,4.966 54.528,6.391 54.528,8.143 L54.528,29.724 L51.803,32.448 L51.803,8.143 C51.803,7.893 51.599,7.689 51.349,7.689 L44.315,7.689 L44.315,14.27 C44.315,16.772 42.28,18.809 39.776,18.809 L14.813,18.809 C12.31,18.809 10.274,16.773 10.274,14.27 L10.274,7.689 L3.241,7.689 C2.991,7.689 2.787,7.893 2.787,8.143 L2.787,71.684 C2.787,71.934 2.991,72.139 3.241,72.139 L23.672,72.139 L30.919,72.139 L51.35,72.139 C51.6,72.139 51.804,71.934 51.804,71.684 L51.804,59.891 L51.804,59.891 Z M16.31,14.38 L38.28,14.38 C39.163,14.38 39.878,13.665 39.878,12.782 L39.878,6.391 C39.878,5.508 39.163,4.793 38.28,4.793 L32.289,4.793 C32.289,2.146 30.04,0 27.268,0 C24.494,0 22.246,2.146 22.246,4.793 L16.311,4.793 C15.428,4.793 14.714,5.508 14.714,6.391 L14.714,12.782 C14.714,13.664 15.428,14.38 16.31,14.38 L16.31,14.38 Z M23.525,42.852 L14.921,34.248 L11.386,37.783 L23.525,49.922 L43.205,30.241 L39.671,26.706 L23.525,42.852 L23.525,42.852 Z M68.193,35.546 L62.012,29.364 C61.102,28.455 59.491,28.587 58.417,29.66 L55.015,33.063 L64.495,42.542 L67.896,39.139 C68.972,38.067 69.103,36.455 68.193,35.546 L68.193,35.546 Z M53.437,34.642 L62.916,44.121 L40.312,66.727 C40.208,66.831 39.921,67.119 39.517,67.221 C39.47,67.242 39.423,67.262 39.375,67.278 L27.578,71.037 C27.248,71.141 26.916,71.075 26.701,70.858 C26.486,70.643 26.418,70.311 26.522,69.981 L30.282,58.186 C30.298,58.137 30.317,58.09 30.339,58.043 C30.442,57.639 30.729,57.352 30.834,57.247 L53.437,34.642 L53.437,34.642 Z M37.396,65.998 L31.56,60.162 L29.995,65.077 L32.482,67.564 L37.396,65.998 L37.396,65.998 Z M53.072,38.41 C52.736,38.074 52.193,38.074 51.857,38.41 L34.236,56.032 C33.9,56.367 33.9,56.912 34.236,57.247 C34.571,57.582 35.115,57.582 35.451,57.247 L53.072,39.625 C53.408,39.289 53.408,38.745 53.072,38.41 L53.072,38.41 Z" id="Shape"></path>
                        </g>
                    </g>
                </g>
            </g>
        </g>
    </g>
</svg>