<?xml version="1.0" encoding="UTF-8" standalone="no"?>
<svg width="60px" height="81px" viewBox="0 0 60 81" version="1.1" xmlns="http://www.w3.org/2000/svg" xmlns:xlink="http://www.w3.org/1999/xlink">
    <!-- Generator: Sketch 39.1 (31720) - http://www.bohemiancoding.com/sketch -->
    <title>money</title>
    <desc>Created with Sketch.</desc>
    <defs></defs>
    <g id="Page-1" stroke="none" stroke-width="1" fill="none" fill-rule="evenodd">
        <g id="present_land_v4" transform="translate(-1149.000000, -2995.000000)" fill="#FFFFFF">
            <g id="STEPS" transform="translate(-63.000000, 2842.000000)">
                <g id="Group-2-Copy-3" transform="translate(1108.000000, 122.000000)">
                    <g id="money" transform="translate(104.000000, 31.000000)">
                        <g id="Capa_1">
                            <g id="Group">
                                <path d="M57.8225806,56.776464 C59.4793548,53.400384 59.5877419,49.329648 56.7212903,46.70136 C58.0154839,42.876864 56.9496774,38.077128 53.1025806,36.65736 C53.7877419,34.301232 53.9683871,31.65156 52.723871,29.534544 C51.6006452,27.623592 49.3129032,27.124632 47.2419355,27.179712 C49.4935484,22.298976 52.8987097,16.208424 57.3858065,11.827296 L58.0167742,11.212344 L57.4864516,10.507968 C57.123871,10.025856 48.4754839,-1.261656 37.4812903,2.155248 L36.7219355,2.39112 L36.7819355,3.186216 C36.7974194,3.387096 38.2129032,22.956048 34.0941935,31.684608 C33.7212903,31.88484 33.3503226,32.085072 32.9832258,32.285304 C32.3819355,30.416472 31.6445161,28.535328 30.7632258,26.732592 C28.9709677,22.562064 26.1967742,17.063784 22.4445161,12.352824 C24.2148387,10.790496 23.3122581,8.224416 22.6425806,6.87204 C24.9922581,4.820472 28.4606452,2.508408 32.4645161,2.087856 C32.8580645,3.192048 33.7754839,5.149008 35.4174194,5.714712 C35.356129,4.258008 35.2922581,3.367008 35.2883871,3.325536 L35.1690323,1.73664 L36.6845161,1.264896 C37.2729032,1.08216 37.8677419,0.94608 38.4664516,0.835272 L37.8464516,0.642816 C26.8509677,-2.77344 18.2032258,8.513424 17.8406452,8.995536 L17.3103226,9.699912 L17.94,10.315512 C22.7212903,14.984352 26.276129,21.595248 28.5135484,26.614008 C21.8096774,28.919592 19.3670968,34.734096 17.2122581,39.864312 C15.7154839,43.42896 14.4058065,46.53936 11.9793548,47.72844 L11.8987097,47.481552 L11.1503226,45.173376 L0.274193548,48.732192 L10.7374194,80.988984 L21.6141935,77.430168 L20.9851613,75.490704 C30.8477419,72.616176 41.1174194,71.499672 51.0941935,69.111144 C54.1587097,68.377608 57.343871,67.653792 59.0348387,64.773432 C60.4735484,62.327232 59.4232258,58.990032 57.8225806,56.776464 L57.8225806,56.776464 Z M6.19612903,53.925912 L5.16064516,50.733216 L8.33741935,49.693824 L9.37290323,52.885224 L6.19612903,53.925912 L6.19612903,53.925912 Z M38.5458065,21.330216 C38.8367742,22.547808 39.8522581,23.748552 41.3354839,24.43932 C43.5658065,25.476768 45.9980645,24.966144 46.7664516,23.296896 C47.5367742,21.628944 46.3522581,19.434816 44.1225806,18.39672 C41.9141935,17.36964 39.5109677,17.862768 38.716129,19.492488 C39.0845161,14.97852 39.0696774,10.526112 38.976129,7.388496 C41.2154839,7.382664 42.3980645,4.898232 42.8612903,3.59964 C46.8645161,4.020192 50.3329032,6.332904 52.6832258,8.383824 C52.0129032,9.7362 51.1103226,12.301632 52.8812903,13.864608 C49.3651613,18.279432 46.7109677,23.381136 44.916129,27.438264 C42.1258065,27.932688 39.3877419,29.027808 36.7658065,30.308256 C37.6464516,27.66636 38.2058065,24.529392 38.5458065,21.330216 L38.5458065,21.330216 Z M28.6606452,26.941896 C28.6554839,26.949024 28.6509677,26.955504 28.6458065,26.962632 L28.5703226,26.740368 C28.6006452,26.80776 28.6316129,26.876448 28.6606452,26.941896 L28.6606452,26.941896 Z M54.7541935,63.962784 C52.16,65.576304 48.4109677,66.022776 45.4851613,66.618288 C37.1935484,68.306976 28.103871,69.415056 19.9683871,71.79192 L13.2090323,51.475176 C16.9806452,49.897296 19.2658065,45.474696 20.9077419,41.564016 C22.7606452,37.151784 24.6832258,32.60088 29.4832258,30.772872 C30.0819355,32.23152 30.48,33.62148 30.9612903,35.31924 C31.2167742,36.221904 32.2490323,36.431856 32.983871,36.028152 C36.8580645,33.902064 41.0567742,31.6062 45.4735484,30.842208 C45.5051613,30.853224 45.5380645,30.860352 45.5690323,30.872664 C45.5767742,30.855816 45.583871,30.837672 45.5903226,30.820824 C45.6645161,30.808512 45.7374194,30.79296 45.8116129,30.781944 C47.1490323,30.575232 49.3167742,30.437856 49.9980645,31.952232 C50.5083871,33.084936 50.3290323,34.434072 50.0890323,35.609544 C49.9477419,36.300312 49.6154839,37.339704 49.5470968,37.508832 C49.2490323,38.244312 49.5341935,39.332952 50.4612903,39.44376 C54.0064516,39.865608 54.5129032,43.907832 53.1774194,46.666368 C52.9348387,47.166624 52.9890323,47.93904 53.4825806,48.289608 C56.2877419,50.278968 55.8225806,53.432784 54.263871,56.121984 C54.0483871,56.49264 54.0496774,57.143232 54.34,57.48084 C55.8767742,59.266728 57.3116129,62.371944 54.7541935,63.962784 L54.7541935,63.962784 Z" id="Shape"></path>
                                <path d="M31.2032258,16.884936 C28.9735484,17.923032 27.7890323,20.11716 28.5593548,21.785112 C29.3283871,23.453712 31.76,23.964984 33.9903226,22.927536 C34.3290323,22.770072 34.6393548,22.5828 34.9270968,22.377384 C35.1567742,20.533176 35.3070968,18.631296 35.4,16.774776 C34.2858065,16.192224 32.7006452,16.188336 31.2032258,16.884936 L31.2032258,16.884936 Z" id="Shape"></path>
                            </g>
                        </g>
                    </g>
                </g>
            </g>
        </g>
    </g>
</svg>