<?xml version="1.0" encoding="UTF-8" standalone="no"?>
<svg width="37px" height="81px" viewBox="0 0 37 81" version="1.1" xmlns="http://www.w3.org/2000/svg" xmlns:xlink="http://www.w3.org/1999/xlink">
    <!-- Generator: Sketch 39.1 (31720) - http://www.bohemiancoding.com/sketch -->
    <title>pen</title>
    <desc>Created with Sketch.</desc>
    <defs></defs>
    <g id="Page-1" stroke="none" stroke-width="1" fill="none" fill-rule="evenodd">
        <g id="present_land_v4" transform="translate(-412.000000, -806.000000)">
            <g id="benefits" transform="translate(0.000000, 769.000000)">
                <g id="Group-Copy" transform="translate(344.946404, 37.000000)">
                    <g id="pen" transform="translate(67.000000, 0.000000)">
                        <g id="Capa_1">
                            <g id="Group">
                                <path d="M29.4165275,69.7983894 C28.8348807,68.4241468 28.0869037,66.3653681 27.5005046,63.7661298 L23.5917431,63.7661298 C22.8887431,63.7661298 22.3188073,63.187583 22.3188073,62.4737489 L19.7729358,62.4737489 C19.7729358,63.1874106 19.203,63.7661298 18.5001697,63.7661298 L9.49949541,63.7664745 C8.91309633,66.3655404 8.16528899,68.4243191 7.5836422,69.7983894 L29.4165275,69.7983894 L29.4165275,69.7983894 Z" id="Shape" fill="#F2EBD9"></path>
                                <path d="M22.3188073,62.4735766 C22.3188073,61.7595702 22.8887431,61.1810234 23.5917431,61.1810234 L27.0096606,61.1810234 C26.9658716,60.8983851 26.9236101,60.6129894 26.8850826,60.3213894 C26.0737982,54.1831404 26.4027248,44.8402213 32.4055505,34.7841574 C25.9239312,27.8602085 22.0740642,18.8474936 21.5375642,9.29018298 C21.5224587,9.02133191 21.5903486,8.75472128 21.7318991,8.52688723 C22.1158165,7.90887447 22.3188073,7.19504043 22.3188073,6.46259362 C22.3188073,4.77762128 21.2544633,3.34081915 19.7729358,2.80725319 L19.7729358,30.9513064 C21.2544633,31.4848723 22.3188073,32.9216745 22.3188073,34.6066468 C22.3188073,36.7447021 20.6057752,38.4843064 18.5,38.4843064 C16.3942248,38.4843064 14.6811927,36.7447021 14.6811927,34.6066468 C14.6811927,32.9216745 15.7455367,31.4848723 17.2270642,30.9513064 L17.2270642,2.80742553 C15.7455367,3.34099149 14.6811927,4.77779362 14.6811927,6.46276596 C14.6811927,7.19521277 14.8841835,7.90904681 15.2681009,8.52705957 C15.4094817,8.75472128 15.4773716,9.02150426 15.4624358,9.29035532 C14.9259358,18.847666 11.0762385,27.8603809 4.59444954,34.7843298 C10.5972752,44.8403936 10.9262018,54.1833128 10.1149174,60.3215617 C10.0763899,60.613334 10.0341284,60.8989021 9.99033945,61.1815404 L18.5,61.1810234 C19.2031697,61.1810234 19.7729358,61.7595702 19.7729358,62.4735766 L22.3188073,62.4735766 Z" id="Shape" fill="#A78A4D"></path>
                                <path d="M5.55984404,72.3834957 L4.05608257,72.3834957 L2.86800917,78.4148936 L34.1318211,78.4148936 L32.9437477,72.3834957 L5.55984404,72.3834957 L5.55984404,72.3834957 Z" id="Shape" fill="#475F6C"></path>
                                <path d="M36.932789,79.453934 L35.2355413,70.8374298 C35.1165642,70.2332043 34.5941514,69.7983894 33.9873853,69.7983894 L32.2176651,69.7983894 C31.547422,68.3943319 30.0297431,64.7970702 29.3936147,59.8652043 C28.2939679,51.3390064 30.2093119,43.0745936 35.0863532,35.3011787 C35.407133,34.790017 35.335,34.1213362 34.9128945,33.6927255 C28.5363349,27.2182404 24.7064954,18.6498191 24.1027844,9.52784043 C24.6022844,8.58824043 24.8645092,7.53730851 24.8645092,6.46276596 C24.8646789,2.89911064 22.0095688,0 18.5,0 C14.9904312,0 12.1353211,2.89911064 12.1353211,6.46276596 C12.1353211,7.53730851 12.3975459,8.58824043 12.8970459,9.52784043 C12.2933349,18.6498191 8.46349541,27.2180681 2.08693578,33.6927255 C1.66483028,34.1213362 1.59269725,34.790017 1.91347706,35.3011787 C6.79051835,43.0745936 8.70586239,51.3391787 7.6062156,59.8652043 C6.96991743,64.7981043 5.45189908,68.3955383 4.78233486,69.7983894 L3.01261468,69.7983894 C2.40584862,69.7983894 1.88343578,70.2332043 1.76445872,70.8374298 L0.0672110092,79.453934 C-0.00746788991,79.8336 0.0892752294,80.2273979 0.330963303,80.5269255 C0.572821101,80.8262809 0.933995413,81 1.31536697,81 L35.684633,81 C36.0660046,81 36.4271789,80.8262809 36.6690367,80.5269255 C36.9108945,80.2275702 37.0076376,79.8336 36.932789,79.453934 L36.932789,79.453934 Z M2.86800917,78.4148936 L4.05608257,72.3834957 L5.55458257,72.3834957 L32.9437477,72.3834957 L34.1318211,78.4148936 L2.86800917,78.4148936 L2.86800917,78.4148936 Z M9.49932569,63.7664745 L18.5,63.7661298 C19.203,63.7661298 19.7727661,63.1874106 19.7727661,62.4737489 C19.7727661,61.7595702 19.2028303,61.1810234 18.4998303,61.1810234 L9.99016972,61.1813681 C10.0339587,60.8985574 10.0762202,60.6131617 10.1147477,60.3213894 C10.9260321,54.1831404 10.5971055,44.8402213 4.59427982,34.7841574 C11.0758991,27.8602085 14.9257661,18.8474936 15.4622661,9.29018298 C15.4773716,9.02133191 15.4094817,8.75472128 15.2679312,8.52688723 C14.8840138,7.90887447 14.6810229,7.19504043 14.6810229,6.46259362 C14.6810229,4.77762128 15.745367,3.34081915 17.2268945,2.80725319 L17.2268945,30.9513064 C15.745367,31.4848723 14.6810229,32.9216745 14.6810229,34.6066468 C14.6810229,36.7447021 16.394055,38.4843064 18.4998303,38.4843064 C20.6056055,38.4843064 22.3186376,36.7447021 22.3186376,34.6066468 C22.3186376,32.9216745 21.2542936,31.4848723 19.7727661,30.9513064 L19.7727661,2.80742553 C21.2542936,3.34099149 22.3186376,4.77779362 22.3186376,6.46276596 C22.3186376,7.19521277 22.1156468,7.90904681 21.7317294,8.52705957 C21.5903486,8.75472128 21.5224587,9.02150426 21.5373945,9.29035532 C22.0738945,18.847666 25.9235917,27.8603809 32.4053807,34.7843298 C26.402555,44.8403936 26.0736284,54.1833128 26.8849128,60.3215617 C26.9234404,60.6131617 26.9657018,60.8987298 27.0094908,61.1811957 L23.5917431,61.1811957 C22.8887431,61.1811957 22.3188073,61.7597426 22.3188073,62.4737489 C22.3188073,63.1877553 22.8887431,63.7663021 23.5917431,63.7663021 L27.5005046,63.7663021 C28.0869037,66.3655404 28.834711,68.4243191 29.4165275,69.7985617 L7.58347248,69.7985617 C8.16511927,68.4243191 8.91309633,66.3655404 9.49932569,63.7664745 L9.49932569,63.7664745 Z M18.5,33.314266 C19.2019817,33.314266 19.7729358,33.8940191 19.7729358,34.6068191 C19.7729358,35.3196191 19.2019817,35.8993723 18.5,35.8993723 C17.7980183,35.8993723 17.2270642,35.3196191 17.2270642,34.6068191 C17.2270642,33.8940191 17.7980183,33.314266 18.5,33.314266 L18.5,33.314266 Z" id="Shape" fill="#2B414D"></path>
                                <path d="M22.8458028,58.5936766 C23.5481239,58.5602426 24.0905642,57.954983 24.0576376,57.2418383 C23.717,49.8704936 25.3337982,42.687 28.8632248,35.8911 C29.1913028,35.2596447 28.9530092,34.4777362 28.3311376,34.1447745 C27.7096055,33.8119851 26.9393945,34.0537787 26.6114862,34.6850617 C22.8670183,41.8945787 21.152289,49.524434 21.5146514,57.3629936 C21.5465596,58.0554574 22.1095367,58.594883 22.785211,58.594883 C22.8052385,58.5950553 22.8254358,58.5945383 22.8458028,58.5936766 L22.8458028,58.5936766 Z" id="Shape" fill="#FFFFFF"></path>
                            </g>
                        </g>
                    </g>
                </g>
            </g>
        </g>
    </g>
</svg>