<?xml version="1.0" encoding="UTF-8" standalone="no"?>
<svg width="33px" height="33px" viewBox="0 0 33 33" version="1.1" xmlns="http://www.w3.org/2000/svg" xmlns:xlink="http://www.w3.org/1999/xlink">
    <!-- Generator: Sketch 39.1 (31720) - http://www.bohemiancoding.com/sketch -->
    <title>Layer_1</title>
    <desc>Created with Sketch.</desc>
    <defs></defs>
    <g id="Page-1" stroke="none" stroke-width="1" fill="none" fill-rule="evenodd">
        <g id="present_land_v4" transform="translate(-390.000000, -1226.000000)" fill="#33353E">
            <g id="GOODS" transform="translate(-56.000000, 1070.000000)">
                <g id="tabs" transform="translate(201.000000, 146.000000)">
                    <g id="pen" transform="translate(245.000000, 10.000000)">
                        <g id="Layer_1">
                            <g id="Group">
                                <path d="M32.833325,2.07939922 C32.833325,1.52503746 32.6186003,1.00382296 32.2287863,0.611843343 C31.838907,0.219863732 31.3205721,0.00394610347 30.7693385,0.00394610347 C30.2179741,0.00394610347 29.6997046,0.219863732 29.3098253,0.611843343 L27.0495582,2.88453587 L26.6256682,2.45829093 C26.5029684,2.33497519 26.3366434,2.26565531 26.1631893,2.26565531 C25.9897351,2.26565531 25.8234101,2.33497519 25.7007103,2.45829093 L3.79963981,24.4809025 C3.76000436,24.5207581 3.7266478,24.5656122 3.69878525,24.6134258 L3.69839282,24.6125708 L1.78895838,27.8775768 C1.63793816,28.1358493 1.67960117,28.4641651 1.89027077,28.6760709 L2.57309928,29.3626929 L0.191571333,31.7573858 C-0.0638353092,32.0142113 -0.0638353092,32.4306568 0.191571333,32.6875481 C0.319307356,32.815928 0.486678828,32.8801837 0.654050299,32.8801837 C0.821421771,32.8801837 0.988858648,32.815928 1.11652927,32.6875481 L3.49799181,30.2928552 L4.3196098,31.1191035 C4.44564529,31.2458392 4.61308217,31.3117391 4.78235038,31.3117391 C4.89602433,31.3117391 5.01048313,31.2820118 5.11369227,31.2209788 L8.36065957,29.3008706 L8.35994012,29.3005417 C8.40683552,29.2728532 8.45131094,29.2395087 8.49160044,29.1990611 L28.622353,8.95627375 L29.1312041,9.46795183 C29.6854463,10.0252732 29.6854463,10.9320878 29.1312041,11.4893433 L26.1959572,14.4408972 C25.9405505,14.6977228 25.9405505,15.1141682 26.1959572,15.3710596 C26.3236932,15.4994395 26.4910647,15.5636952 26.6584361,15.5636952 C26.8258076,15.5636952 26.9931791,15.4994395 27.1209151,15.3710596 L30.056162,12.4194399 C31.1203673,11.3493224 31.1203673,9.60797273 30.056162,8.53778947 L29.5473109,8.02611139 L30.3924747,7.17625224 C30.6478814,6.91942667 30.6478814,6.50298122 30.3924747,6.24608988 L29.9685847,5.81984494 L32.2287863,3.54702087 C32.6186003,3.15504126 32.833325,2.63382676 32.833325,2.07939922 L32.833325,2.07939922 Z M4.88673681,29.8291223 L3.17292881,28.1057931 L4.39731097,26.0121222 L6.96870972,28.5978722 L4.88673681,29.8291223 L4.88673681,29.8291223 Z M8.02905607,27.8037189 L5.18707671,24.9460166 L26.1631239,3.85350158 L29.0049724,6.71120394 L8.02905607,27.8037189 L8.02905607,27.8037189 Z M31.303763,2.61692429 L29.0710315,4.86219139 L28.0019209,3.78714127 L30.2347832,1.54193993 C30.5295637,1.24545602 31.0091787,1.24558756 31.3038284,1.54193993 C31.5985435,1.8382923 31.5985435,2.32057192 31.303763,2.61692429 L31.303763,2.61692429 Z" id="Shape"></path>
                                <path d="M24.6305532,16.0150636 L23.8967088,16.752985 C23.6413021,17.0098106 23.6413021,17.426256 23.8967088,17.6831473 C24.0244448,17.8115272 24.1918163,17.875783 24.3591877,17.875783 C24.5265592,17.875783 24.6939307,17.8115272 24.8216667,17.6831473 L25.5555111,16.945226 C25.8109178,16.6884004 25.8109178,16.271955 25.5555111,16.0150636 C25.3000391,15.7583038 24.8860252,15.7583038 24.6305532,16.0150636 L24.6305532,16.0150636 Z" id="Shape"></path>
                                <path d="M13.783456,17.2875505 L7.00206629,24.1066146 C6.74665965,24.3634401 6.74665965,24.7798856 7.00206629,25.0367769 C7.12980231,25.1651568 7.29717378,25.2294126 7.46454526,25.2294126 C7.63191673,25.2294126 7.7993536,25.1651568 7.92702422,25.0367769 L14.7084139,18.2177128 C14.9638206,17.9608873 14.9638206,17.5444418 14.7084139,17.2875505 C14.4530073,17.0307907 14.0388626,17.0307907 13.783456,17.2875505 L13.783456,17.2875505 Z" id="Shape"></path>
                            </g>
                        </g>
                    </g>
                </g>
            </g>
        </g>
    </g>
</svg>