<?xml version="1.0" encoding="UTF-8" standalone="no"?>
<svg width="140px" height="38px" viewBox="0 0 140 38" version="1.1" xmlns="http://www.w3.org/2000/svg" xmlns:xlink="http://www.w3.org/1999/xlink">
    <!-- Generator: Sketch 39.1 (31720) - http://www.bohemiancoding.com/sketch -->
    <title>логотип</title>
    <desc>Created with Sketch.</desc>
    <defs></defs>
    <g id="Page-1" stroke="none" stroke-width="1" fill="none" fill-rule="evenodd">
        <g id="present_land_v4" transform="translate(-144.000000, -5117.000000)" fill="#FFFFFF">
            <g id="footer" transform="translate(0.000000, 5075.000000)">
                <g id="логотип" transform="translate(144.000000, 42.000000)">
                    <g id="Слой_1">
                        <g id="Слой_x0020_1">
                            <g id="Group" transform="translate(2.871831, 30.998927)">
                                <g transform="translate(0.000000, 0.449827)" id="Shape">
                                    <polygon points="4.13663083 0.0809688581 4.13663083 4.59408304 3.30748636 4.59408304 3.30748636 0.73366782 1.18644027 0.73366782 1.18644027 4.59408304 0.366387302 4.59408304 0.366387302 0.0809688581"></polygon>
                                </g>
                                <g transform="translate(6.818622, 0.000000)" id="Shape">
                                    <path d="M0.80414285,2.93602076 C0.822780418,4.04574394 1.53919033,4.50276817 2.36878937,4.50276817 C2.96246408,4.50276817 3.32021446,4.40020761 3.63159821,4.26930796 L3.77297098,4.85723183 C3.48067937,4.98768166 2.98110165,5.13657439 2.25560024,5.13657439 C0.850964056,5.13657439 0.0118189452,4.22297578 0.01227352,2.86134948 C0.01227352,1.49972318 0.822780418,0.42733564 2.15195718,0.42733564 C3.64114428,0.42733564 4.03707894,1.7232872 4.03753352,2.55366782 C4.03753352,2.72145329 4.01889595,2.85235294 4.00934988,2.93602076 L0.80414285,2.93602076 L0.80414285,2.93602076 Z M3.23566354,2.34899654 C3.24520961,1.8267474 3.01883136,1.01525952 2.08558926,1.01525952 C1.24689872,1.01525952 0.87869312,1.7799654 0.813234347,2.34899654 L3.23566354,2.34899654 L3.23566354,2.34899654 Z"></path>
                                </g>
                                <g transform="translate(14.091819, 0.000000)" id="Shape">
                                    <path d="M0.208649841,2.00397924 C0.208649841,1.42595156 0.190012273,0.959480969 0.170920131,0.530795848 L0.915968255,0.530795848 L0.953697965,1.3049481 L0.972335532,1.3049481 C1.31190292,0.754359862 1.84921035,0.428235294 2.59334933,0.428235294 C3.69660241,0.428235294 4.52574687,1.3517301 4.52574687,2.72235294 C4.52574687,4.34487889 3.527046,5.14737024 2.45197656,5.14737024 C1.84875578,5.14737024 1.32099442,4.88647059 1.04734038,4.43844291 L1.02870281,4.43844291 L1.02870281,6.89134948 L0.208195266,6.89134948 L0.208195266,2.00397924 L0.208649841,2.00397924 Z M1.02915738,3.20681661 C1.02915738,3.3282699 1.04779495,3.44027682 1.06643252,3.54238754 C1.21735136,4.11186851 1.71738366,4.50321799 2.31060379,4.50321799 C3.18747861,4.50321799 3.69660241,3.79474048 3.69660241,2.75923875 C3.69660241,1.85463668 3.21611683,1.08093426 2.33924201,1.08093426 C1.77375093,1.08093426 1.24598957,1.4817301 1.08552466,2.09754325 C1.05734102,2.20055363 1.02915738,2.32155709 1.02915738,2.43311419 L1.02915738,3.20681661 L1.02915738,3.20681661 Z"></path>
                                </g>
                                <g transform="translate(21.365016, 0.000000)" id="Shape">
                                    <path d="M3.65296323,4.87612457 C3.43613104,4.98813149 2.95519088,5.13702422 2.34242403,5.13702422 C0.96642606,5.13702422 0.0709136714,4.21397924 0.0709136714,2.83391003 C0.0709136714,1.44439446 1.03279398,0.437231834 2.52198108,0.437231834 C3.01201273,0.437231834 3.44567711,0.558685121 3.67160079,0.670692042 L3.48340682,1.3049481 C3.2852122,1.19294118 2.97382845,1.0899308 2.52152651,1.0899308 C1.47509528,1.0899308 0.910058783,1.85463668 0.909604208,2.79657439 C0.909604208,3.84107266 1.58828441,4.48432526 2.49288829,4.48432526 C2.96428238,4.48432526 3.27566613,4.36287197 3.51113588,4.26076125 L3.65296323,4.87612457 L3.65296323,4.87612457 Z"></path>
                                </g>
                                <g transform="translate(28.183639, 0.000000)" id="Shape">
                                    <path d="M4.83122115,2.74979239 C4.83122115,4.41910035 3.6625093,5.14647059 2.55925622,5.14647059 C1.32463102,5.14647059 0.372296775,4.25131488 0.372296775,2.82446367 C0.372296775,1.31394464 1.37145222,0.427785467 2.63471564,0.427785467 C3.94525483,0.427785467 4.83122115,1.36972318 4.83122115,2.74979239 L4.83122115,2.74979239 Z M1.21144189,2.79657439 C1.21144189,3.78484429 1.78647903,4.53110727 2.59698593,4.53110727 C3.38885526,4.53110727 3.98298454,3.79429066 3.98298454,2.77813149 C3.98298454,2.01297578 3.59614137,1.04359862 2.61607807,1.04359862 C1.63556019,1.04314879 1.21144189,1.93875433 1.21144189,2.79657439 L1.21144189,2.79657439 Z"></path>
                                </g>
                                <g transform="translate(35.911410, 0.449827)" id="Shape">
                                    <polygon points="0.976881281 0.0809688581 0.976881281 1.89916955 3.14520316 1.89916955 3.14520316 0.0809688581 3.96525612 0.0809688581 3.96525612 4.59408304 3.14520316 4.59408304 3.14520316 2.55231834 0.976881281 2.55231834 0.976881281 4.59408304 0.156828312 4.59408304 0.156828312 0.0809688581"></polygon>
                                </g>
                                <g transform="translate(42.275458, 0.000000)" id="Shape">
                                    <path d="M3.11338292,5.04391003 L3.04701499,4.47532872 L3.01883136,4.47532872 C2.76426946,4.82934256 2.27423781,5.14647059 1.62374124,5.14647059 C0.700045217,5.14647059 0.228651133,4.50276817 0.228651133,3.8500692 C0.228651133,2.75878893 1.20916901,2.16186851 2.97155558,2.17176471 L2.97155558,2.07865052 C2.97155558,1.70529412 2.86791252,1.03415225 1.93512499,1.03415225 C1.51055212,1.03415225 1.06734167,1.16460208 0.747320998,1.36972318 L0.558672449,0.828581315 C0.935969547,0.586124567 1.48236848,0.427785467 2.05740562,0.427785467 C3.45249573,0.427785467 3.79206312,1.36972318 3.79206312,2.27387543 L3.79206312,3.96207612 C3.79206312,4.35387543 3.81070069,4.73622837 3.86752254,5.04346021 L3.11338292,5.04346021 L3.11338292,5.04391003 Z M2.99064772,2.74079585 C2.08558926,2.72190311 1.05825017,2.88069204 1.05825017,3.75740484 C1.05825017,4.28910035 1.4169097,4.54055363 1.84057343,4.54055363 C2.43470272,4.54055363 2.81109066,4.16764706 2.94382651,3.78484429 C2.97155558,3.70117647 2.99110229,3.60761246 2.99110229,3.52394464 L2.99110229,2.74079585 L2.99064772,2.74079585 Z"></path>
                                </g>
                                <g transform="translate(49.548655, 0.449827)" id="Shape">
                                    <path d="M4.2002713,0.0809688581 L4.2002713,4.59408304 L3.38021834,4.59408304 L3.38021834,0.723771626 L1.81557182,0.723771626 L1.81557182,1.89871972 C1.81557182,3.16678201 1.69283662,4.01560554 1.09916191,4.39795848 C0.872783648,4.57564014 0.61822175,4.67820069 0.194558021,4.67820069 L0.109097956,4.03404844 C0.269562866,4.00615917 0.448665344,3.94093426 0.561854473,3.84782007 C0.985972777,3.54013841 1.03279398,2.90588235 1.03279398,1.89871972 L1.03279398,0.0805190311 L4.2002713,0.0805190311 L4.2002713,0.0809688581 Z"></path>
                                </g>
                                <g transform="translate(55.912702, 0.449827)" id="Shape">
                                    <path d="M1.11870862,0.0809688581 L1.11870862,1.6099308 C1.30735717,1.57259516 1.62783242,1.56314879 1.87284824,1.56314879 C2.90018733,1.56314879 3.98434827,1.88027682 3.98434827,3.08356401 C3.98434827,3.54958478 3.79569972,3.876609 3.50340811,4.11906574 C3.00383039,4.53875433 2.19332349,4.64086505 1.52418936,4.64086505 C1.06234135,4.64086505 0.637768467,4.61297578 0.298655654,4.57564014 L0.298655654,0.0809688581 L1.11870862,0.0809688581 L1.11870862,0.0809688581 Z M1.11870862,4.02550173 C1.27917353,4.04394464 1.45827601,4.06238754 1.73147548,4.06238754 C2.3537884,4.06238754 3.15474923,3.85726644 3.15474923,3.10200692 C3.15474923,2.3184083 2.32515019,2.15062284 1.71238333,2.15062284 C1.49509657,2.15062284 1.3069026,2.16951557 1.11870862,2.19740484 L1.11870862,4.02550173 L1.11870862,4.02550173 Z"></path>
                                </g>
                                <g transform="translate(61.822175, 0.449827)" id="Shape">
                                    <polygon points="0.828235316 0.0809688581 0.828235316 1.89916955 2.99655719 1.89916955 2.99655719 0.0809688581 3.81661016 0.0809688581 3.81661016 4.59408304 2.99655719 4.59408304 2.99655719 2.55231834 0.828235316 2.55231834 0.828235316 4.59408304 0.0081823467 4.59408304 0.0081823467 0.0809688581"></polygon>
                                </g>
                                <g transform="translate(68.186222, 0.449827)" id="Shape">
                                    <path d="M1.23962552,0.0809688581 L1.23962552,1.61937716 C1.418728,1.58204152 1.6823814,1.56314879 1.98421907,1.56314879 C2.96428238,1.56314879 3.95434633,1.96484429 3.9548009,3.07411765 C3.95434633,3.54958478 3.77478928,3.87615917 3.48295224,4.11861592 C2.98291995,4.5383045 2.24787247,4.64041522 1.64465169,4.64041522 C1.18280367,4.64041522 0.758685369,4.61252595 0.419117981,4.57519031 L0.419117981,0.0805190311 L1.23962552,0.0805190311 L1.23962552,0.0809688581 Z M1.23917095,4.02550173 C1.39963586,4.04394464 1.57873834,4.06238754 1.81466267,4.06238754 C2.44652166,4.06238754 3.13383878,3.80148789 3.13429336,3.10200692 C3.13429336,2.37463668 2.47425073,2.15062284 1.8519378,2.15062284 C1.61601347,2.15062284 1.40918193,2.16951557 1.23917095,2.19740484 L1.23917095,4.02550173 L1.23917095,4.02550173 Z M5.34943644,0.0809688581 L5.34943644,4.59408304 L4.52938347,4.59408304 L4.52938347,0.0809688581 L5.34943644,0.0809688581 L5.34943644,0.0809688581 Z"></path>
                                </g>
                                <g transform="translate(75.459420, 0.000000)" id="Shape">
                                    <path d="M1.23417063,2.93602076 C1.25280819,4.04574394 1.96967268,4.50276817 2.79881714,4.50276817 C3.39294643,4.50276817 3.75069681,4.40020761 4.06162599,4.26930796 L4.20299875,4.85723183 C3.91116172,4.98768166 3.411584,5.13657439 2.68562802,5.13657439 C1.28099183,5.13657439 0.441846722,4.22297578 0.442301296,2.86134948 C0.442301296,1.49972318 1.25280819,0.42733564 2.58198496,0.42733564 C4.07117206,0.42733564 4.46710672,1.7232872 4.46710672,2.55366782 C4.46710672,2.72145329 4.44846915,2.85235294 4.43892308,2.93602076 L1.23417063,2.93602076 L1.23417063,2.93602076 Z M3.66614589,2.34899654 C3.67523739,1.8267474 3.44976828,1.01525952 2.51561703,1.01525952 C1.67738107,1.01525952 1.3087209,1.7799654 1.24326212,2.34899654 L3.66614589,2.34899654 L3.66614589,2.34899654 Z"></path>
                                </g>
                                <g transform="translate(88.187514, 0.449827)" id="Shape">
                                    <polygon points="4.16936022 0.0809688581 4.16890564 4.59408304 3.33976118 4.59408304 3.33976118 0.73366782 1.21871508 0.73366782 1.21871508 4.59408304 0.399116689 4.59408304 0.399116689 0.0809688581"></polygon>
                                </g>
                                <g transform="translate(95.006137, 0.000000)" id="Shape">
                                    <path d="M4.50301813,2.74979239 C4.50301813,4.41910035 3.33476085,5.14647059 2.23150777,5.14647059 C0.996882572,5.14647059 0.044548332,4.25131488 0.044548332,2.82446367 C0.044548332,1.31394464 1.0432492,0.427785467 2.30696719,0.427785467 C3.61750639,0.427785467 4.50347271,1.36972318 4.50301813,2.74979239 L4.50301813,2.74979239 Z M0.883693443,2.79657439 C0.883693443,3.78484429 1.45873059,4.53110727 2.26923748,4.53110727 C3.06110681,4.53110727 3.6552361,3.79429066 3.6552361,2.77813149 C3.6552361,2.01297578 3.26839293,1.04359862 2.28832963,1.04359862 C1.30781175,1.04314879 0.883238868,1.93875433 0.883693443,2.79657439 L0.883693443,2.79657439 Z"></path>
                                </g>
                                <g transform="translate(101.824759, 0.449827)" id="Shape">
                                    <path d="M4.29164084,0.0809688581 L4.29164084,3.97871972 L4.7634895,3.98816609 L4.7166683,6.03083045 L4.06571716,6.03083045 L4.02798745,4.59453287 L0.870056199,4.59453287 L0.832326489,6.03083045 L0.182284501,6.03083045 L0.144554792,3.98816609 L0.530943386,3.97871972 C0.728683431,3.68948097 0.87960227,3.38179931 0.983699903,3.05567474 C1.16280238,2.49608997 1.24780787,1.88972318 1.24780787,1.25546713 L1.24780787,0.0809688581 L4.29164084,0.0809688581 L4.29164084,0.0809688581 Z M1.98240077,1.4515917 C1.98285535,2.04806228 1.89739528,2.62653979 1.74693102,3.13034602 C1.65237946,3.43802768 1.52055276,3.71782007 1.37917999,3.96927336 L3.48158852,3.96927336 L3.48158852,0.70532872 L1.98285535,0.70532872 L1.98240077,1.4515917 L1.98240077,1.4515917 Z"></path>
                                </g>
                                <g transform="translate(108.643381, 0.000000)" id="Shape">
                                    <path d="M3.05747022,5.04391003 L2.99110229,4.47532872 L2.96291865,4.47532872 C2.70790218,4.82934256 2.2183251,5.14647059 1.56782854,5.14647059 C0.644132515,5.14647059 0.17273843,4.50276817 0.172283855,3.8500692 C0.172283855,2.75878893 1.15325631,2.16186851 2.9151883,2.17176471 L2.91564287,2.07865052 C2.9151883,1.70529412 2.81199981,1.03415225 1.87921229,1.03415225 C1.45463941,1.03415225 1.01188354,1.16460208 0.690953721,1.36972318 L0.502759747,0.828581315 C0.880056845,0.586124567 1.42645577,0.427785467 2.00149292,0.427785467 C3.39612845,0.427785467 3.73615042,1.36972318 3.73569584,2.27387543 L3.73569584,3.96207612 C3.73569584,4.35387543 3.75478798,4.73622837 3.81115526,5.04346021 L3.05747022,5.04346021 L3.05747022,5.04391003 Z M2.93518959,2.74079585 C2.03013113,2.72190311 1.00279205,2.88069204 1.00279205,3.75740484 C1.00279205,4.28910035 1.36054243,4.54055363 1.7851153,4.54055363 C2.37924459,4.54055363 2.75563254,4.16764706 2.88791381,3.78484429 C2.91609745,3.70117647 2.93473502,3.60761246 2.93518959,3.52394464 L2.93518959,2.74079585 L2.93518959,2.74079585 Z"></path>
                                </g>
                                <g transform="translate(116.371153, 0.000000)" id="Shape">
                                    <path d="M0.267744567,2.00397924 C0.268199142,1.42595156 0.249561574,0.959480969 0.230469432,0.530795848 L0.975517556,0.530795848 L1.01324727,1.3049481 L1.03188483,1.3049481 C1.37145222,0.754359862 1.90830508,0.428235294 2.65289863,0.428235294 C3.75615171,0.428235294 4.58529617,1.3517301 4.58529617,2.72235294 C4.58529617,4.34487889 3.5865953,5.14737024 2.51152586,5.14737024 C1.90875965,5.14737024 1.38054372,4.88647059 1.10688968,4.43844291 L1.08825211,4.43844291 L1.08825211,6.89134948 L0.267744567,6.89134948 L0.267744567,2.00397924 L0.267744567,2.00397924 Z M1.08825211,3.20681661 C1.08825211,3.3282699 1.10734425,3.44027682 1.12598182,3.54238754 C1.27690066,4.11186851 1.77693296,4.50321799 2.37015309,4.50321799 C3.24702791,4.50321799 3.75660628,3.79474048 3.75615171,2.75923875 C3.75660628,1.85463668 3.27566613,1.08093426 2.39833673,1.08093426 C1.83284566,1.08093426 1.3050843,1.4817301 1.14507396,2.09754325 C1.11689032,2.20055363 1.08825211,2.32155709 1.08870669,2.43311419 L1.08825211,3.20681661 L1.08825211,3.20681661 Z"></path>
                                </g>
                                <g transform="translate(123.644350, 0.449827)" id="Shape">
                                    <path d="M1.25962682,0.0809688581 L1.25917224,2.03951557 L1.45736686,2.03951557 L3.17293222,0.0809688581 L4.18163374,0.0809688581 L2.19286891,2.12273356 C2.92791639,2.19740484 3.37067226,2.68231834 3.72933179,3.49380623 C3.85161242,3.79204152 4.01162276,4.23062284 4.21890887,4.59408304 L3.3520347,4.59408304 C3.22884492,4.39795848 3.06928916,4.04394464 2.92791639,3.67058824 C2.61607807,2.94366782 2.19241434,2.60764706 1.41918258,2.60764706 L1.25917224,2.60764706 L1.25871767,4.59408304 L0.438664698,4.59408304 L0.438664698,0.0809688581 L1.25962682,0.0809688581 L1.25962682,0.0809688581 Z"></path>
                                </g>
                                <g transform="translate(129.553823, 0.449827)" id="Shape">
                                    <path d="M1.15598376,0.0809688581 L1.15643833,1.9832872 C1.15643833,2.70121107 1.14689226,3.14923875 1.10916255,3.79204152 L1.13780077,3.80148789 C1.41054566,3.25134948 1.57101057,2.93422145 1.87239367,2.41197232 L3.29566742,0.0805190311 L4.2670938,0.0805190311 L4.2670938,4.59363322 L3.47567905,4.59363322 L3.47567905,2.68186851 C3.47567905,1.9450519 3.49431661,1.56269896 3.5325009,0.835778547 L3.50431726,0.835778547 C3.21202565,1.41380623 3.01428561,1.77816609 2.75063221,2.23474048 C2.31696784,2.93422145 1.81739012,3.80103806 1.32690389,4.59363322 L0.375024224,4.59363322 L0.375024224,0.0805190311 L1.15598376,0.0805190311 L1.15598376,0.0809688581 Z"></path>
                                </g>
                            </g>
                            <path d="M17.0001954,3.64629758 L7.08938111,3.64629758 L3.97609121,20.7689619 L0.455114007,20.7689619 L4.17947883,0.414740484 L21.1308795,0.414740484 L17.4069707,20.7689619 L13.8859935,20.7689619 L17.0001954,3.64629758 L17.0001954,3.64629758 Z M23.3289251,20.126609 L22.1487296,26.5101038 L18.7093811,26.5101038 L22.4332899,6.11539792 L25.8521173,6.11539792 L25.7299023,6.67768166 C25.9538111,6.53733564 26.197785,6.43702422 26.442215,6.3367128 C27.3583713,5.99529412 28.314202,5.8549481 29.2914658,5.8549481 C30.6545277,5.8549481 32.3030619,6.03577855 33.3409772,6.99885813 C34.2571336,7.84228374 34.5011075,9.08695502 34.5011075,10.2911419 C34.5011075,10.7724567 34.4600651,11.2542215 34.3989577,11.736436 C34.317785,12.3383045 34.2366124,12.9208304 34.1143974,13.522699 C33.8088599,15.1488235 33.2798697,17.4370934 32.2620195,18.7816263 C30.9801303,20.4680277 29.0059935,21.0298616 26.9511401,21.0298616 C26.0965472,21.0298616 25.1192834,20.9700346 24.325798,20.6888927 C23.9390879,20.5485467 23.6134853,20.3672664 23.3084039,20.1468512 L23.3289251,20.126609 L23.3289251,20.126609 Z M38.815114,14.4862284 C38.7745277,14.7268858 38.7540065,14.9675433 38.7339414,15.2082007 C38.692899,15.5698616 38.6523127,15.9310727 38.6523127,16.2720415 C38.6523127,16.6939792 38.7134202,17.396609 39.0796091,17.6777509 C39.5474919,18.0187197 40.6469707,18.0592042 41.2165472,18.0592042 C41.8882736,18.0592042 43.4551792,18.0389619 44.0452769,17.6975433 C44.4926384,17.4366436 44.6764169,16.7740484 44.7776547,16.312526 L44.9605212,15.3287543 L48.3793485,15.3287543 L48.2370684,16.1114533 C47.9525081,17.7168858 47.2602606,19.323218 45.7549186,20.1666436 C44.4525081,20.8886159 42.3766775,20.9893772 40.9114658,20.9893772 C39.5684691,20.9893772 37.7571336,20.8490311 36.6585668,20.0056055 C35.5390228,19.1626298 35.2745277,17.7168858 35.2745277,16.4326298 C35.2745277,15.3890311 35.437329,14.2847059 35.6206515,13.2608997 C35.9667752,11.3140484 36.6585668,8.9250173 38.1643648,7.52020761 C39.5684691,6.21525952 41.5426059,5.83380623 43.4150489,5.83380623 C44.8191531,5.83380623 46.4672313,6.01418685 47.6068404,6.89764706 C48.7259283,7.78065744 49.0720521,9.16567474 49.0720521,10.5106574 C49.0720521,11.2933564 48.9699023,12.0962976 48.8280782,12.8794464 L48.5225407,14.4250519 L38.8356352,14.4250519 L38.815114,14.4862284 L38.815114,14.4862284 Z M65.1278176,14.4862284 C65.0867752,14.7268858 65.0667101,14.9675433 65.0461889,15.2082007 C65.0051466,15.5698616 64.9645603,15.9310727 64.9645603,16.2720415 C64.9645603,16.6939792 65.0256678,17.396609 65.3923127,17.6777509 C65.8601954,18.0187197 66.9592182,18.0592042 67.5292508,18.0592042 C68.2009772,18.0592042 69.7674267,18.0389619 70.3575244,17.6975433 C70.805342,17.4366436 70.9886645,16.7740484 71.0899023,16.312526 L71.2732248,15.3287543 L74.6920521,15.3287543 L74.549772,16.1114533 C74.2647557,17.7168858 73.5725081,19.323218 72.0671661,20.1666436 C70.7647557,20.8886159 68.6889251,20.9893772 67.2237134,20.9893772 C65.8807166,20.9893772 64.0693811,20.8490311 62.9708143,20.0056055 C61.8517264,19.1626298 61.5872313,17.7168858 61.5872313,16.4326298 C61.5872313,15.3890311 61.7495765,14.2847059 61.932899,13.2608997 C62.2790228,11.3140484 62.9708143,8.9250173 64.4766124,7.52020761 C65.8807166,6.21525952 67.8548534,5.83380623 69.7272964,5.83380623 C71.1314007,5.83380623 72.7794788,6.01418685 73.9190879,6.89764706 C75.0381759,7.78065744 75.3842997,9.16567474 75.3842997,10.5106574 C75.3842997,11.2933564 75.2826059,12.0962976 75.1403257,12.8794464 L74.8347883,14.4250519 L65.1478827,14.4250519 L65.1278176,14.4862284 L65.1278176,14.4862284 Z M80.5734202,11.5551557 L86.2915309,11.5551557 L87.2683388,6.11539792 L90.7076873,6.11539792 L88.041759,20.7689619 L84.6024104,20.7689619 L85.7420195,14.5064706 L80.0239088,14.5064706 L78.8842997,20.7689619 L75.4449511,20.7689619 L78.1108795,6.11539792 L81.550228,6.11539792 L80.5734202,11.5551557 L80.5734202,11.5551557 Z M95.5306189,9.06626298 L90.8700326,9.06626298 L91.3789577,6.11539792 L104.138111,6.11539792 L103.629642,9.06626298 L98.9489902,9.06626298 L96.8120521,20.7689619 L93.3727036,20.7689619 L95.5096417,9.06626298 L95.5306189,9.06626298 L95.5306189,9.06626298 Z M53.1621498,17.7983045 L60.427101,17.7983045 L59.8570684,20.7289273 L48.0336808,20.7289273 L48.5426059,17.8783737 L57.4150489,9.02622837 L50.8624104,9.02622837 L51.3708795,6.07536332 L62.5024756,6.07536332 L62.0345928,8.88588235 L53.1416287,17.7987543 L53.1621498,17.7987543 L53.1621498,17.7983045 Z M24.5497068,13.4624221 C24.4680782,13.9037024 24.4074267,14.3661246 24.3463192,14.8074048 C24.2852117,15.2486851 24.2441694,15.6908651 24.2441694,16.1316955 C24.2441694,16.5936678 24.3052769,17.2765052 24.691987,17.617474 C25.0992182,17.9989273 26.07557,18.0394118 26.5840391,18.0394118 C27.6014332,18.0394118 28.9243648,17.8788235 29.5760261,17.0160554 C30.1456026,16.2531488 30.5528339,14.1650519 30.7156352,13.2415571 C30.7767427,12.8601038 30.8579153,12.4791003 30.9185668,12.0976471 C31.0001954,11.59609 31.0608469,11.0742907 31.0608469,10.5718339 C31.0608469,10.150346 30.9997394,9.58806228 30.6536156,9.30692042 C30.1857329,8.90567474 29.1683388,8.84539792 28.5983062,8.84539792 C27.6620847,8.84539792 26.2785016,8.96595156 25.6473616,9.78913495 C25.0983062,10.4917647 24.6910749,12.6396886 24.5487948,13.4826644 L24.5487948,13.4624221 L24.5497068,13.4624221 Z M45.6322476,11.5956401 C45.6732899,11.2740138 45.7138762,10.9532872 45.7138762,10.6316609 C45.7138762,10.150346 45.6322476,9.56782007 45.2054072,9.2466436 C44.6964821,8.86519031 43.7401954,8.80536332 43.1295765,8.80536332 C42.2749837,8.80536332 41.0943322,8.90567474 40.443127,9.52778547 C39.934658,10.0095502 39.6085993,10.8322837 39.4052117,11.5956401 L45.6322476,11.5956401 L45.6322476,11.5956401 Z M71.9449511,11.5956401 C71.9855375,11.2740138 72.0261238,10.9532872 72.0261238,10.6316609 C72.0261238,10.150346 71.9449511,9.56782007 71.5176547,9.2466436 C71.0091857,8.86519031 70.052443,8.80536332 69.4418241,8.80536332 C68.5872313,8.80536332 67.4070358,8.90567474 66.7553746,9.52778547 C66.2469055,10.0095502 65.9213029,10.8322837 65.7179153,11.5956401 L71.9449511,11.5956401 L71.9449511,11.5956401 Z" id="Shape"></path>
                            <path d="M118.485147,13.2217647 L121.395505,13.2217647 L120.825472,16.4132872 L117.91557,16.4132872 L117.122085,20.7694118 L113.682736,20.7694118 L114.476221,16.4132872 L103.609577,16.4132872 L104.260782,12.880346 L116.511466,0.354463668 L120.845993,0.354463668 L118.505668,13.2213149 L118.485147,13.2213149 L118.485147,13.2217647 Z M125.241173,10.0900692 C125.078827,9.96951557 124.91557,9.82916955 124.793811,9.66858131 C124.285342,9.06626298 124.101564,8.32359862 124.101564,7.56069204 C124.101564,7.23951557 124.122085,6.9183391 124.162671,6.59716263 C124.203713,6.33626298 124.2443,6.07491349 124.285342,5.85449827 C124.590423,4.1483045 125.282671,2.42186851 126.828599,1.43854671 C128.456612,0.394948097 130.980261,0.214117647 132.872769,0.214117647 C134.399088,0.214117647 136.576612,0.314429066 137.939674,1.07733564 C139.201498,1.7799654 139.669381,3.00439446 139.669381,4.38941176 C139.669381,4.9516955 139.608274,5.5333218 139.507036,6.07536332 C139.324169,7.07892734 138.998111,8.24352941 138.367427,9.06626298 C137.980717,9.56782007 137.492313,9.94927336 136.963322,10.2304152 C137.207296,10.3910035 137.410684,10.5920761 137.594007,10.8129412 C138.164039,11.5155709 138.367427,12.3985813 138.367427,13.3018339 C138.367427,13.5222491 138.367427,13.7431142 138.346906,13.9644291 C138.326384,14.2253287 138.285798,14.4862284 138.245212,14.7673702 C137.939674,16.473564 137.288469,18.480692 135.823257,19.5643253 C134.154658,20.7892042 131.305407,20.9700346 129.311205,20.9700346 C127.7443,20.9700346 125.363388,20.8692734 123.959283,20.0663322 C122.677394,19.3236678 122.229577,18.0187197 122.229577,16.61391 C122.229577,15.8910381 122.351792,15.1483737 122.474007,14.4255017 C122.677394,13.3418685 123.023062,12.157474 123.755896,11.2942561 C124.183648,10.792699 124.712638,10.4112457 125.302736,10.1301038 L125.241173,10.0900692 L125.241173,10.0900692 Z M115.046254,13.2217647 L116.633225,4.48972318 L108.126971,13.2217647 L115.046254,13.2217647 L115.046254,13.2217647 Z M132.445016,3.38539792 C131.468208,3.38539792 129.657329,3.44567474 128.823257,4.00750865 C128.192117,4.42899654 127.927622,5.39252595 127.785342,6.07491349 C127.703713,6.476609 127.643062,6.93813149 127.643062,7.35961938 C127.643062,7.76086505 127.724691,8.14231834 128.131466,8.32314879 C128.843779,8.64432526 130.45127,8.66456747 131.224691,8.66456747 C132.140391,8.66456747 134.1957,8.62453287 134.969121,8.06224913 C135.559218,7.64076125 135.844235,6.49685121 135.96645,5.83425606 C136.027557,5.5333218 136.048078,5.21214533 136.048078,4.89051903 C136.048078,4.40875433 135.905798,4.04754325 135.478046,3.80643599 C134.765733,3.4249827 133.219349,3.3849481 132.425863,3.3849481 L132.445016,3.3849481 L132.445016,3.38539792 Z M130.918697,11.8565398 C129.921368,11.8565398 127.988274,11.9163668 127.133681,12.4988927 C126.401303,13.020692 126.055179,14.1448097 125.891922,14.9877855 C125.810749,15.3692388 125.749642,15.7704844 125.749642,16.1519377 C125.749642,16.6539446 125.871857,17.0956747 126.359805,17.3363322 C127.133225,17.7177855 128.781759,17.7582699 129.636352,17.7582699 C130.613616,17.7582699 132.628339,17.6979931 133.46241,17.1559516 C134.194788,16.6741869 134.520391,15.47 134.663127,14.6670588 C134.704169,14.4866782 134.724235,14.2851557 134.744756,14.1052249 C134.765277,13.9243945 134.785342,13.7233218 134.785342,13.5429412 C134.785342,13.0211419 134.643062,12.5789619 134.154658,12.3180623 C133.401759,11.9163668 131.77329,11.8772318 130.918697,11.8772318 L130.918697,11.8565398 L130.918697,11.8565398 Z" id="Shape"></path>
                        </g>
                    </g>
                </g>
            </g>
        </g>
    </g>
</svg>