<?xml version="1.0" encoding="UTF-8" standalone="no"?>
<svg width="180px" height="49px" viewBox="0 0 180 49" version="1.1" xmlns="http://www.w3.org/2000/svg" xmlns:xlink="http://www.w3.org/1999/xlink">
    <!-- Generator: Sketch 39.1 (31720) - http://www.bohemiancoding.com/sketch -->
    <title>логотип</title>
    <desc>Created with Sketch.</desc>
    <defs></defs>
    <g id="Page-1" stroke="none" stroke-width="1" fill="none" fill-rule="evenodd">
        <g id="present_land_v4" transform="translate(-145.000000, -26.000000)" fill="#FFFFFF">
            <g id="header" transform="translate(145.000000, 25.000000)">
                <g id="логотип" transform="translate(0.000000, 1.000000)">
                    <g id="Слой_1">
                        <g id="Слой_x0020_1">
                            <g id="Group" transform="translate(3.692354, 39.742215)">
                                <g transform="translate(0.000000, 0.576701)" id="Shape">
                                    <polygon points="5.31852535 0.103806228 5.31852535 5.88985006 4.25248247 5.88985006 4.25248247 0.940599769 1.52542321 0.940599769 1.52542321 5.88985006 0.471069388 5.88985006 0.471069388 0.103806228"></polygon>
                                </g>
                                <g transform="translate(8.766800, 0.000000)" id="Shape">
                                    <path d="M1.03389795,3.76412918 C1.05786054,5.18685121 1.97895899,5.7727797 3.04558633,5.7727797 C3.80888239,5.7727797 4.26884716,5.64129181 4.6691977,5.47347174 L4.85096268,6.2272203 C4.47515919,6.39446367 3.83284497,6.58535179 2.90005745,6.58535179 C1.09409664,6.58535179 0.0151957867,5.41407151 0.0157802401,3.66839677 C0.0157802401,1.92272203 1.05786054,0.547866205 2.76680209,0.547866205 C4.68147122,0.547866205 5.19053007,2.20934256 5.19111453,3.2739331 C5.19111453,3.48904268 5.16715194,3.65686275 5.15487842,3.76412918 L1.03389795,3.76412918 L1.03389795,3.76412918 Z M4.16013884,3.01153403 C4.17241236,2.34198385 3.8813546,1.30161476 2.6814719,1.30161476 C1.6031555,1.30161476 1.1297483,2.28200692 1.04558702,3.01153403 L4.16013884,3.01153403 L4.16013884,3.01153403 Z"></path>
                                </g>
                                <g transform="translate(18.118053, 0.000000)" id="Shape">
                                    <path d="M0.268264081,2.56920415 C0.268264081,1.82814302 0.244301494,1.23010381 0.219754454,0.680507497 L1.17767347,0.680507497 L1.2261831,1.67301038 L1.25014568,1.67301038 C1.68673233,0.967128028 2.37755617,0.549019608 3.33430628,0.549019608 C4.75277452,0.549019608 5.81881741,1.73298731 5.81881741,3.49019608 C5.81881741,5.57035755 4.53477343,6.59919262 3.15254129,6.59919262 C2.37697172,6.59919262 1.69842139,6.26470588 1.34658048,5.69031142 L1.3226179,5.69031142 L1.3226179,8.83506344 L0.267679628,8.83506344 L0.267679628,2.56920415 L0.268264081,2.56920415 Z M1.32320235,4.11130334 C1.32320235,4.26701269 1.34716494,4.4106113 1.37112752,4.54152249 C1.56516603,5.2716263 2.2080647,5.7733564 2.9707763,5.7733564 C4.09818679,5.7733564 4.75277452,4.8650519 4.75277452,3.53748558 C4.75277452,2.37773933 4.13500735,1.38581315 3.00759686,1.38581315 C2.28053691,1.38581315 1.60198659,1.89965398 1.39567457,2.68915802 C1.35943846,2.82122261 1.32320235,2.97635525 1.32320235,3.11937716 L1.32320235,4.11130334 L1.32320235,4.11130334 Z"></path>
                                </g>
                                <g transform="translate(27.469307, 0.000000)" id="Shape">
                                    <path d="M4.696667,6.25144175 C4.41788276,6.39504037 3.79953113,6.58592849 3.01168804,6.58592849 C1.24254779,6.58592849 0.0911747203,5.40253749 0.0911747203,3.63321799 C0.0911747203,1.85178777 1.32787798,0.560553633 3.24254711,0.560553633 C3.8725878,0.560553633 4.43015628,0.716262976 4.72062959,0.859861592 L4.47866591,1.67301038 C4.22384426,1.52941176 3.82349372,1.39734717 3.24196265,1.39734717 C1.89655107,1.39734717 1.17007558,2.37773933 1.16949112,3.58535179 C1.16949112,4.92445213 2.04207995,5.74913495 3.20514209,5.74913495 C3.8112202,5.74913495 4.21157074,5.59342561 4.51431756,5.46251442 L4.696667,6.25144175 L4.696667,6.25144175 Z"></path>
                                </g>
                                <g transform="translate(36.236107, 0.000000)" id="Shape">
                                    <path d="M6.21157005,3.52537486 C6.21157005,5.66551326 4.70894052,6.59803922 3.29047228,6.59803922 C1.70309702,6.59803922 0.478667282,5.45040369 0.478667282,3.62110727 C0.478667282,1.68454441 1.76329571,0.548442907 3.38749153,0.548442907 C5.0724705,0.548442907 6.21157005,1.75605536 6.21157005,3.52537486 L6.21157005,3.52537486 Z M1.55756814,3.58535179 C1.55756814,4.85236448 2.29690161,5.80911188 3.33898191,5.80911188 C4.35709962,5.80911188 5.12098013,4.8644752 5.12098013,3.56170704 C5.12098013,2.58073818 4.62361034,1.33794694 3.36352895,1.33794694 C2.1028631,1.33737024 1.55756814,2.48558247 1.55756814,3.58535179 L1.55756814,3.58535179 Z"></path>
                                </g>
                                <g transform="translate(46.171813, 0.576701)" id="Shape">
                                    <polygon points="1.25599022 0.103806228 1.25599022 2.43483276 4.04383263 2.43483276 4.04383263 0.103806228 5.09818645 0.103806228 5.09818645 5.88985006 4.04383263 5.88985006 4.04383263 3.272203 1.25599022 3.272203 1.25599022 5.88985006 0.201636401 5.88985006 0.201636401 0.103806228"></polygon>
                                </g>
                                <g transform="translate(54.354160, 0.000000)" id="Shape">
                                    <path d="M4.00292089,6.46655133 L3.91759071,5.73760092 L3.8813546,5.73760092 C3.55406073,6.19146482 2.92402004,6.59803922 2.08766731,6.59803922 C0.900058137,6.59803922 0.293980028,5.7727797 0.293980028,4.93598616 C0.293980028,3.53690888 1.55464587,2.7716263 3.82057145,2.78431373 L3.82057145,2.66493656 C3.82057145,2.18627451 3.68731609,1.32583622 2.48801785,1.32583622 C1.94213843,1.32583622 1.37229643,1.49307958 0.960841283,1.75605536 L0.718293149,1.06228374 C1.20338942,0.751441753 1.90590233,0.548442907 2.6452358,0.548442907 C4.43892308,0.548442907 4.87550972,1.75605536 4.87550972,2.91522491 L4.87550972,5.07958478 C4.87550972,5.58189158 4.89947231,6.07208766 4.97252898,6.46597463 L4.00292089,6.46597463 L4.00292089,6.46655133 Z M3.84511849,3.51384083 C2.6814719,3.48961938 1.36060736,3.69319493 1.36060736,4.8171857 C1.36060736,5.4988466 1.82174105,5.82122261 2.36645156,5.82122261 C3.13033206,5.82122261 3.61425943,5.34313725 3.7849198,4.85236448 C3.82057145,4.74509804 3.84570295,4.62514418 3.84570295,4.51787774 L3.84570295,3.51384083 L3.84511849,3.51384083 Z"></path>
                                </g>
                                <g transform="translate(63.705414, 0.576701)" id="Shape">
                                    <path d="M5.40034882,0.103806228 L5.40034882,5.88985006 L4.345995,5.88985006 L4.345995,0.927912341 L2.33430662,0.927912341 L2.33430662,2.43425606 C2.33430662,4.05997693 2.17650422,5.14821223 1.41320817,5.6384083 C1.1221504,5.86620531 0.794856536,5.99769319 0.250146028,5.99769319 L0.140268801,5.17185698 C0.346580828,5.1361015 0.576855442,5.05247982 0.722384323,4.93310265 C1.26767928,4.53863899 1.32787798,3.7254902 1.32787798,2.43425606 L1.32787798,0.103229527 L5.40034882,0.103229527 L5.40034882,0.103806228 Z"></path>
                                </g>
                                <g transform="translate(71.887760, 0.576701)" id="Shape">
                                    <path d="M1.43833966,0.103806228 L1.43833966,2.06401384 C1.68088779,2.01614764 2.09292739,2.00403691 2.40794774,2.00403691 C3.72881228,2.00403691 5.12273349,2.4106113 5.12273349,3.9532872 C5.12273349,4.55074971 4.88018535,4.97001153 4.50438186,5.28085352 C3.86206764,5.8189158 2.81998734,5.94982699 1.95967203,5.94982699 C1.36586744,5.94982699 0.81998803,5.91407151 0.383985841,5.86620531 L0.383985841,0.103806228 L1.43833966,0.103806228 L1.43833966,0.103806228 Z M1.43833966,5.16089965 C1.64465169,5.18454441 1.8749263,5.20818916 2.22618275,5.20818916 C3.02629937,5.20818916 4.05610615,4.94521338 4.05610615,3.97693195 C4.05610615,2.97231834 2.98947881,2.75720877 2.20163571,2.75720877 C1.92226702,2.75720877 1.68030334,2.78143022 1.43833966,2.8171857 L1.43833966,5.16089965 L1.43833966,5.16089965 Z"></path>
                                </g>
                                <g transform="translate(79.485654, 0.576701)" id="Shape">
                                    <polygon points="1.06487398 0.103806228 1.06487398 2.43483276 3.85271639 2.43483276 3.85271639 0.103806228 4.9070702 0.103806228 4.9070702 5.88985006 3.85271639 5.88985006 3.85271639 3.272203 1.06487398 3.272203 1.06487398 5.88985006 0.01052016 5.88985006 0.01052016 0.103806228"></polygon>
                                </g>
                                <g transform="translate(87.668000, 0.576701)" id="Shape">
                                    <path d="M1.59380425,0.103806228 L1.59380425,2.07612457 C1.82407886,2.02825836 2.16306179,2.00403691 2.55113881,2.00403691 C3.8112202,2.00403691 5.08415956,2.51903114 5.08474402,3.94117647 C5.08415956,4.55074971 4.8533005,4.96943483 4.47808146,5.28027682 C3.83518279,5.8183391 2.89012174,5.94925029 2.11455217,5.94925029 C1.52074758,5.94925029 0.975452617,5.91349481 0.538865975,5.8656286 L0.538865975,0.103229527 L1.59380425,0.103229527 L1.59380425,0.103806228 Z M1.59321979,5.16089965 C1.79953182,5.18454441 2.02980643,5.20818916 2.33313772,5.20818916 C3.14552785,5.20818916 4.02922129,4.87370242 4.02980575,3.97693195 C4.02980575,3.044406 3.1811795,2.75720877 2.38106289,2.75720877 C2.07773161,2.75720877 1.81180534,2.78143022 1.59321979,2.8171857 L1.59321979,5.16089965 L1.59321979,5.16089965 Z M6.87784685,0.103806228 L6.87784685,5.88985006 L5.82349303,5.88985006 L5.82349303,0.103806228 L6.87784685,0.103806228 L6.87784685,0.103806228 Z"></path>
                                </g>
                                <g transform="translate(97.019254, 0.000000)" id="Shape">
                                    <path d="M1.58679081,3.76412918 C1.61075339,5.18685121 2.5324363,5.7727797 3.59847919,5.7727797 C4.3623597,5.7727797 4.82232447,5.64129181 5.22209055,5.47347174 L5.40385554,6.2272203 C5.0286365,6.39446367 4.38632228,6.58535179 3.45295031,6.58535179 C1.6469895,6.58535179 0.568088642,5.41407151 0.568673095,3.66839677 C0.568673095,1.92272203 1.61075339,0.547866205 3.31969495,0.547866205 C5.23436407,0.547866205 5.74342293,2.20934256 5.74342293,3.2739331 C5.74342293,3.48904268 5.71946034,3.65686275 5.70718682,3.76412918 L1.58679081,3.76412918 L1.58679081,3.76412918 Z M4.71361615,3.01153403 C4.72530522,2.34198385 4.43541636,1.30161476 3.23436476,1.30161476 C2.15663281,1.30161476 1.68264115,2.28200692 1.59847987,3.01153403 L4.71361615,3.01153403 L4.71361615,3.01153403 Z"></path>
                                </g>
                                <g transform="translate(113.383947, 0.576701)" id="Shape">
                                    <polygon points="5.36060599 0.103806228 5.36002154 5.88985006 4.29397866 5.88985006 4.29397866 0.940599769 1.56691939 0.940599769 1.56691939 5.88985006 0.513150029 5.88985006 0.513150029 0.103806228"></polygon>
                                </g>
                                <g transform="translate(122.150747, 0.000000)" id="Shape">
                                    <path d="M5.78959474,3.52537486 C5.78959474,5.66551326 4.28754967,6.59803922 2.86908142,6.59803922 C1.28170616,6.59803922 0.0572764269,5.45040369 0.0572764269,3.62110727 C0.0572764269,1.68454441 1.3413204,0.548442907 2.96610068,0.548442907 C4.65107964,0.548442907 5.79017919,1.75605536 5.78959474,3.52537486 L5.78959474,3.52537486 Z M1.13617728,3.58535179 C1.13617728,4.85236448 1.87551075,5.80911188 2.91759105,5.80911188 C3.93570876,5.80911188 4.69958927,4.8644752 4.69958927,3.56170704 C4.69958927,2.58073818 4.20221948,1.33794694 2.94213809,1.33794694 C1.68147225,1.33737024 1.13559283,2.48558247 1.13617728,3.58535179 L1.13617728,3.58535179 Z"></path>
                                </g>
                                <g transform="translate(130.917547, 0.576701)" id="Shape">
                                    <path d="M5.51782394,0.103806228 L5.51782394,5.10092272 L6.1244865,5.11303345 L6.06428781,7.73183391 L5.22735063,7.73183391 L5.17884101,5.89042676 L1.11864368,5.89042676 L1.07013406,7.73183391 L0.234365788,7.73183391 L0.185856161,5.11303345 L0.682641496,5.10092272 C0.936878697,4.73010381 1.1309172,4.33564014 1.26475702,3.91753172 C1.49503163,3.20011534 1.60432441,2.42272203 1.60432441,1.60957324 L1.60432441,0.103806228 L5.51782394,0.103806228 L5.51782394,0.103806228 Z M2.548801,1.86101499 C2.54938545,2.62572088 2.43950822,3.36735871 2.24605417,4.01326413 C2.12448787,4.4077278 1.95499641,4.76643599 1.77323142,5.088812 L4.4763281,5.088812 L4.4763281,0.904267589 L2.54938545,0.904267589 L2.548801,1.86101499 L2.548801,1.86101499 Z"></path>
                                </g>
                                <g transform="translate(139.684347, 0.000000)" id="Shape">
                                    <path d="M3.93103313,6.46655133 L3.84570295,5.73760092 L3.80946684,5.73760092 C3.48158852,6.19146482 2.85213228,6.59803922 2.01577955,6.59803922 C0.828170376,6.59803922 0.222092267,5.7727797 0.221507814,4.93598616 C0.221507814,3.53690888 1.48275811,2.7716263 3.74809924,2.78431373 L3.74868369,2.66493656 C3.74809924,2.18627451 3.61542833,1.32583622 2.41613009,1.32583622 C1.87025067,1.32583622 1.30099312,1.49307958 0.88836907,1.75605536 L0.646405389,1.06228374 C1.13150166,0.751441753 1.83401457,0.548442907 2.57334804,0.548442907 C4.36645087,0.548442907 4.80362196,1.75605536 4.80303751,2.91522491 L4.80303751,5.07958478 C4.80303751,5.58189158 4.82758455,6.07208766 4.90005676,6.46597463 L3.93103313,6.46597463 L3.93103313,6.46655133 Z M3.77381519,3.51384083 C2.6101686,3.48961938 1.28930406,3.69319493 1.28930406,4.8171857 C1.28930406,5.4988466 1.74926883,5.82122261 2.29514825,5.82122261 C3.05902876,5.82122261 3.54295612,5.34313725 3.71303204,4.85236448 C3.74926815,4.74509804 3.77323073,4.62514418 3.77381519,4.51787774 L3.77381519,3.51384083 L3.77381519,3.51384083 Z"></path>
                                </g>
                                <g transform="translate(149.620054, 0.000000)" id="Shape">
                                    <path d="M0.344243015,2.56920415 C0.344827468,1.82814302 0.320864881,1.23010381 0.296317841,0.680507497 L1.25423686,0.680507497 L1.30274648,1.67301038 L1.32670907,1.67301038 C1.76329571,0.967128028 2.4535351,0.549019608 3.41086967,0.549019608 C4.82933791,0.549019608 5.89538079,1.73298731 5.89538079,3.49019608 C5.89538079,5.57035755 4.61133682,6.59919262 3.22910468,6.59919262 C2.45411956,6.59919262 1.77498478,6.26470588 1.42314387,5.69031142 L1.39918129,5.69031142 L1.39918129,8.83506344 L0.344243015,8.83506344 L0.344243015,2.56920415 L0.344243015,2.56920415 Z M1.39918129,4.11130334 C1.39918129,4.26701269 1.42372833,4.4106113 1.44769091,4.54152249 C1.64172942,5.2716263 2.28462809,5.7733564 3.04733969,5.7733564 C4.17475018,5.7733564 4.82992236,4.8650519 4.82933791,3.53748558 C4.82992236,2.37773933 4.21157074,1.38581315 3.0835758,1.38581315 C2.35651585,1.38581315 1.67796553,1.89965398 1.47223795,2.68915802 C1.43600185,2.82122261 1.39918129,2.97635525 1.39976574,3.11937716 L1.39918129,4.11130334 L1.39918129,4.11130334 Z"></path>
                                </g>
                                <g transform="translate(158.971307, 0.576701)" id="Shape">
                                    <path d="M1.61952019,0.103806228 L1.61893574,2.61476355 L1.87375739,2.61476355 L4.07948428,0.103806228 L5.37638623,0.103806228 L2.81940289,2.72145329 C3.76446393,2.8171857 4.33372148,3.43886967 4.79485516,4.47923875 C4.95207311,4.8615917 5.15780069,5.42387543 5.42431141,5.88985006 L4.3097589,5.88985006 C4.15137204,5.6384083 3.94622892,5.18454441 3.76446393,4.70588235 C3.36352895,3.7739331 2.81881844,3.34313725 1.82466331,3.34313725 L1.61893574,3.34313725 L1.61835129,5.88985006 L0.563997469,5.88985006 L0.563997469,0.103806228 L1.61952019,0.103806228 L1.61952019,0.103806228 Z"></path>
                                </g>
                                <g transform="translate(166.569201, 0.576701)" id="Shape">
                                    <path d="M1.48626483,0.103806228 L1.48684929,2.54267589 C1.48684929,3.46309112 1.47457577,4.03748558 1.42606614,4.8615917 L1.4628867,4.87370242 C1.8135587,4.16839677 2.01987073,3.76182238 2.40736329,3.0922722 L4.23728668,0.103229527 L5.48626346,0.103229527 L5.48626346,5.88927336 L4.4687302,5.88927336 L4.4687302,3.43829296 C4.4687302,2.49365629 4.49269279,2.00346021 4.54178687,1.07151096 L4.50555076,1.07151096 C4.12974727,1.81257209 3.87551007,2.27970012 3.53652713,2.8650519 C2.97895865,3.76182238 2.33664444,4.87312572 1.70601929,5.88927336 L0.482174002,5.88927336 L0.482174002,0.103229527 L1.48626483,0.103229527 L1.48626483,0.103806228 Z"></path>
                                </g>
                            </g>
                            <path d="M21.8573941,4.67474048 L9.11491857,4.67474048 L5.11211726,26.6268743 L0.58514658,26.6268743 L5.37361564,0.53171857 L27.1682736,0.53171857 L22.3803909,26.6268743 L17.8534202,26.6268743 L21.8573941,4.67474048 L21.8573941,4.67474048 Z M29.9943322,25.8033449 L28.4769381,33.9873126 L24.0549186,33.9873126 L28.8428013,7.84025375 L33.2384365,7.84025375 L33.0813029,8.56113033 C33.3691857,8.38119954 33.6828664,8.25259516 33.9971336,8.12399077 C35.1750489,7.68627451 36.4039739,7.50634371 37.660456,7.50634371 C39.4129642,7.50634371 41.5325081,7.73817762 42.8669707,8.97289504 C44.044886,10.0542099 44.3585668,11.6499423 44.3585668,13.1937716 C44.3585668,13.810842 44.305798,14.428489 44.2272313,15.0467128 C44.1228664,15.8183391 44.0185016,16.5651672 43.8613681,17.3367935 C43.4685342,19.4215686 42.7884039,22.355248 41.4797394,24.0790081 C39.8315961,26.2410611 37.2934202,26.961361 34.6514658,26.961361 C33.5527036,26.961361 32.2962215,26.8846597 31.2760261,26.5242215 C30.7788274,26.3442907 30.3601954,26.11188 29.9679479,25.8292964 L29.9943322,25.8033449 L29.9943322,25.8033449 Z M49.9051466,18.5720877 C49.8529642,18.8806228 49.8265798,19.189158 49.8007818,19.4976932 C49.748013,19.961361 49.6958306,20.4244521 49.6958306,20.8615917 C49.6958306,21.4025375 49.7743974,22.3033449 50.2452117,22.6637832 C50.8467752,23.1009227 52.2603909,23.1528258 52.9927036,23.1528258 C53.8563518,23.1528258 55.8709446,23.1268743 56.6296417,22.689158 C57.2048208,22.3546713 57.4411075,21.5051903 57.5712704,20.9134948 L57.8063844,19.6522491 L62.2020195,19.6522491 L62.0190879,20.6557093 C61.6532248,22.7139562 60.7631922,24.7733564 58.8277524,25.8546713 C57.1532248,26.7802768 54.4842997,26.9094579 52.600456,26.9094579 C50.8737459,26.9094579 48.544886,26.7295271 47.132443,25.6482122 C45.6930293,24.567474 45.3529642,22.7139562 45.3529642,21.067474 C45.3529642,19.7295271 45.5622801,18.3137255 45.7979805,17.0011534 C46.2429967,14.5051903 47.132443,11.4423299 49.0684691,9.64129181 C50.8737459,7.96828143 53.4119218,7.47923875 55.8193485,7.47923875 C57.6246254,7.47923875 59.7435831,7.71049596 61.2087948,8.84313725 C62.6476221,9.97520185 63.0926384,11.7508651 63.0926384,13.4752018 C63.0926384,14.4786621 62.9613029,15.5080738 62.7789577,16.5121107 L62.3861238,18.4936563 L49.9315309,18.4936563 L49.9051466,18.5720877 L49.9051466,18.5720877 Z M83.7357655,18.5720877 C83.6829967,18.8806228 83.6571987,19.189158 83.6308143,19.4976932 C83.5780456,19.961361 83.5258632,20.4244521 83.5258632,20.8615917 C83.5258632,21.4025375 83.60443,22.3033449 84.0758306,22.6637832 C84.6773941,23.1009227 86.0904235,23.1528258 86.8233225,23.1528258 C87.6869707,23.1528258 89.7009772,23.1268743 90.4596743,22.689158 C91.0354397,22.3546713 91.2711401,21.5051903 91.4013029,20.9134948 L91.6370033,19.6522491 L96.0326384,19.6522491 L95.8497068,20.6557093 C95.4832573,22.7139562 94.5932248,24.7733564 92.657785,25.8546713 C90.9832573,26.7802768 88.3143322,26.9094579 86.4304886,26.9094579 C84.7037785,26.9094579 82.3749186,26.7295271 80.9624756,25.6482122 C79.5236482,24.567474 79.1835831,22.7139562 79.1835831,21.067474 C79.1835831,19.7295271 79.3923127,18.3137255 79.628013,17.0011534 C80.0730293,14.5051903 80.9624756,11.4423299 82.8985016,9.64129181 C84.7037785,7.96828143 87.2419544,7.47923875 89.6493811,7.47923875 C91.454658,7.47923875 93.5736156,7.71049596 95.0388274,8.84313725 C96.4776547,9.97520185 96.922671,11.7508651 96.922671,13.4752018 C96.922671,14.4786621 96.7919218,15.5080738 96.6089902,16.5121107 L96.2161564,18.4936563 L83.7615635,18.4936563 L83.7357655,18.5720877 L83.7357655,18.5720877 Z M103.594397,14.8143022 L110.946254,14.8143022 L112.20215,7.84025375 L116.624169,7.84025375 L113.196547,26.6268743 L108.774528,26.6268743 L110.239739,18.5980392 L102.887883,18.5980392 L101.422671,26.6268743 L97.0006515,26.6268743 L100.428274,7.84025375 L104.850293,7.84025375 L103.594397,14.8143022 L103.594397,14.8143022 Z M122.825081,11.6234141 L116.832899,11.6234141 L117.487231,7.84025375 L133.891857,7.84025375 L133.238111,11.6234141 L127.22013,11.6234141 L124.472638,26.6268743 L120.050619,26.6268743 L122.798111,11.6234141 L122.825081,11.6234141 L122.825081,11.6234141 Z M68.3513355,22.8183391 L77.691987,22.8183391 L76.9590879,26.5755479 L61.7575896,26.5755479 L62.4119218,22.9209919 L73.8193485,11.5720877 L65.3945277,11.5720877 L66.0482736,7.78892734 L80.3603257,7.78892734 L79.7587622,11.3921569 L68.3249511,22.8189158 L68.3513355,22.8189158 L68.3513355,22.8183391 Z M31.5639088,17.2595156 C31.4589577,17.8252595 31.3809772,18.4181084 31.3024104,18.9838524 C31.2238436,19.5495963 31.1710749,20.1164937 31.1710749,20.6816609 C31.1710749,21.2739331 31.2496417,22.1493656 31.7468404,22.5865052 C32.2704235,23.0755479 33.5257329,23.127451 34.1794788,23.127451 C35.487557,23.127451 37.1884691,22.9215686 38.0263192,21.8154556 C38.7586319,20.8373702 39.282215,18.160323 39.4915309,16.9763552 C39.5700977,16.4873126 39.6744625,15.9988466 39.752443,15.5098039 C39.8573941,14.866782 39.9353746,14.1978085 39.9353746,13.5536332 C39.9353746,13.0132641 39.8568078,12.2923875 39.4117915,11.9319493 C38.810228,11.4175317 37.5021498,11.3402537 36.7692508,11.3402537 C35.5655375,11.3402537 33.786645,11.4948097 32.9751792,12.550173 C32.2692508,13.4509804 31.7456678,16.204729 31.5627362,17.2854671 L31.5627362,17.2595156 L31.5639088,17.2595156 Z M58.6700326,14.8662053 C58.7228013,14.4538639 58.7749837,14.0426759 58.7749837,13.6303345 C58.7749837,13.0132641 58.6700326,12.266436 58.1212378,11.8546713 C57.4669055,11.3656286 56.2373941,11.2889273 55.4523127,11.2889273 C54.3535505,11.2889273 52.83557,11.4175317 51.9983062,12.2151096 C51.3445603,12.8327566 50.925342,13.8875433 50.6638436,14.8662053 L58.6700326,14.8662053 L58.6700326,14.8662053 Z M92.5006515,14.8662053 C92.5528339,14.4538639 92.6050163,14.0426759 92.6050163,13.6303345 C92.6050163,13.0132641 92.5006515,12.266436 91.9512704,11.8546713 C91.2975244,11.3656286 90.0674267,11.2889273 89.2823453,11.2889273 C88.1835831,11.2889273 86.6661889,11.4175317 85.8283388,12.2151096 C85.1745928,12.8327566 84.7559609,13.8875433 84.4944625,14.8662053 L92.5006515,14.8662053 L92.5006515,14.8662053 Z" id="Shape"></path>
                            <path d="M152.338046,16.9509804 L156.079935,16.9509804 L155.347036,21.0426759 L151.605733,21.0426759 L150.585537,26.627451 L146.163518,26.627451 L147.183713,21.0426759 L133.212313,21.0426759 L134.049577,16.5132641 L149.800456,0.4544406 L155.37342,0.4544406 L152.36443,16.9504037 L152.338046,16.9504037 L152.338046,16.9509804 Z M161.024365,12.9359862 C160.815635,12.7814302 160.605733,12.6014994 160.449186,12.3956171 C159.79544,11.6234141 159.559153,10.6712803 159.559153,9.69319493 C159.559153,9.28143022 159.585537,8.86966551 159.63772,8.45790081 C159.690489,8.12341407 159.742671,7.78835063 159.79544,7.50576701 C160.187687,5.3183391 161.07772,3.10495963 163.065342,1.84429066 C165.158502,0.506343714 168.403192,0.274509804 170.836417,0.274509804 C172.798827,0.274509804 175.598502,0.403114187 177.35101,1.38119954 C178.973355,2.28200692 179.574919,3.85178777 179.574919,5.62745098 C179.574919,6.34832757 179.496352,7.09400231 179.366189,7.78892734 C179.131075,9.07554787 178.711857,10.5686275 177.900977,11.6234141 C177.403779,12.266436 176.775831,12.7554787 176.0957,13.115917 C176.409381,13.3217993 176.670879,13.5795848 176.90658,13.8627451 C177.639479,14.7635525 177.900977,15.8956171 177.900977,17.0536332 C177.900977,17.3362168 177.900977,17.6193772 177.874593,17.9031142 C177.848208,18.2376009 177.796026,18.5720877 177.743844,18.932526 C177.35101,21.1199539 176.513746,23.6931949 174.629902,25.0824683 C172.48456,26.6528258 168.821238,26.8846597 166.257264,26.8846597 C164.242671,26.8846597 161.181498,26.7554787 159.376221,25.7260669 C157.728078,24.7739331 157.152313,23.1009227 157.152313,21.2998847 C157.152313,20.3731257 157.309446,19.4209919 157.46658,18.494233 C157.728078,17.1049596 158.172508,15.5865052 159.114723,14.4798155 C159.664691,13.8367935 160.344821,13.3477509 161.103518,12.9873126 L161.024365,12.9359862 L161.024365,12.9359862 Z M147.916612,16.9509804 L149.957003,5.75605536 L139.020391,16.9509804 L147.916612,16.9509804 L147.916612,16.9509804 Z M170.28645,4.34025375 C169.030554,4.34025375 166.70228,4.41753172 165.629902,5.1378316 C164.818436,5.67820069 164.478371,6.91349481 164.29544,7.78835063 C164.190489,8.30334487 164.112508,8.89504037 164.112508,9.43540946 C164.112508,9.94982699 164.217459,10.4388697 164.740456,10.6707036 C165.656287,11.0824683 167.723062,11.1084198 168.717459,11.1084198 C169.894788,11.1084198 172.537329,11.0570934 173.531726,10.3362168 C174.290423,9.79584775 174.656873,8.32929642 174.814007,7.47981546 C174.892573,7.09400231 174.918958,6.6822376 174.918958,6.26989619 C174.918958,5.65224913 174.736026,5.18915802 174.186059,4.88004614 C173.270228,4.39100346 171.28202,4.33967705 170.261824,4.33967705 L170.28645,4.33967705 L170.28645,4.34025375 Z M168.324039,15.200692 C167.041759,15.200692 164.556352,15.2773933 163.45759,16.0242215 C162.515961,16.6931949 162.070945,18.1343714 161.861042,19.2151096 C161.756678,19.7041522 161.678111,20.2185698 161.678111,20.7076125 C161.678111,21.3512111 161.835244,21.9175317 162.462606,22.2260669 C163.457003,22.7151096 165.576547,22.7670127 166.675309,22.7670127 C167.931792,22.7670127 170.52215,22.6897347 171.594528,21.9948097 C172.536156,21.3771626 172.954788,19.8333333 173.138306,18.8039216 C173.191075,18.5726644 173.216873,18.3143022 173.243257,18.0836217 C173.269642,17.8517878 173.29544,17.5940023 173.29544,17.3627451 C173.29544,16.6937716 173.112508,16.1268743 172.48456,15.7923875 C171.516547,15.2773933 169.422801,15.2272203 168.324039,15.2272203 L168.324039,15.200692 L168.324039,15.200692 Z" id="Shape"></path>
                        </g>
                    </g>
                </g>
            </g>
        </g>
    </g>
</svg>