<?xml version="1.0" encoding="UTF-8" standalone="no"?>
<svg width="40px" height="40px" viewBox="0 0 40 40" version="1.1" xmlns="http://www.w3.org/2000/svg" xmlns:xlink="http://www.w3.org/1999/xlink">
    <!-- Generator: Sketch 39.1 (31720) - http://www.bohemiancoding.com/sketch -->
    <title>Group</title>
    <desc>Created with Sketch.</desc>
    <defs></defs>
    <g id="Page-1" stroke="none" stroke-width="1" fill="none" fill-rule="evenodd" opacity="0.692688899">
        <g id="present_land_v4" transform="translate(-405.000000, -3556.000000)" fill="#FFFFFF">
            <g id="GAL" transform="translate(-41.000000, 3287.000000)">
                <g id="Group-3" transform="translate(289.000000, 141.000000)">
                    <g id="zoom" transform="translate(157.000000, 128.000000)">
                        <g id="Group">
                            <path d="M15.5897436,31.008547 C19.3504274,31.008547 22.7692308,29.6752137 25.4358974,27.4188034 L37.4017094,39.3846154 C37.6752137,39.6581197 38.017094,39.7948718 38.3931624,39.7948718 C38.7350427,39.7948718 39.1111111,39.6581197 39.3846154,39.3846154 C39.9316239,38.8376068 39.9316239,37.9487179 39.3846154,37.4017094 L27.4188034,25.4358974 C29.6410256,22.7692308 31.008547,19.3162393 31.008547,15.5897436 C31.008547,7.07692308 24.1025641,0.170940171 15.5897436,0.170940171 C7.11111111,0.170940171 0.170940171,7.11111111 0.170940171,15.5897436 C0.170940171,24.1025641 7.11111111,31.008547 15.5897436,31.008547 L15.5897436,31.008547 Z M15.5897436,2.97435897 C22.5641026,2.97435897 28.2051282,8.64957265 28.2051282,15.5897436 C28.2051282,22.5641026 22.5641026,28.2051282 15.5897436,28.2051282 C8.61538462,28.2051282 2.97435897,22.5299145 2.97435897,15.5897436 C2.97435897,8.64957265 8.64957265,2.97435897 15.5897436,2.97435897 L15.5897436,2.97435897 Z" id="Shape"></path>
                            <path d="M14.1880342,24.7179487 C14.1880342,25.5042735 14.8034188,26.1196581 15.5897436,26.1196581 C16.3760684,26.1196581 16.991453,25.5042735 16.991453,24.7179487 L16.991453,16.991453 L24.7179487,16.991453 C25.5042735,16.991453 26.1196581,16.3760684 26.1196581,15.5897436 C26.1196581,14.8034188 25.5042735,14.1880342 24.7179487,14.1880342 L16.991453,14.1880342 L16.991453,6.46153846 C16.991453,5.67521368 16.3760684,5.05982906 15.5897436,5.05982906 C14.8034188,5.05982906 14.1880342,5.67521368 14.1880342,6.46153846 L14.1880342,14.1880342 L6.46153846,14.1880342 C5.67521368,14.1880342 5.05982906,14.8034188 5.05982906,15.5897436 C5.05982906,16.3760684 5.67521368,16.991453 6.46153846,16.991453 L14.1880342,16.991453 L14.1880342,24.7179487 L14.1880342,24.7179487 Z" id="Shape"></path>
                        </g>
                    </g>
                </g>
            </g>
        </g>
    </g>
</svg>