<?xml version="1.0" encoding="UTF-8" standalone="no"?>
<svg width="123px" height="43px" viewBox="0 0 123 43" version="1.1" xmlns="http://www.w3.org/2000/svg" xmlns:xlink="http://www.w3.org/1999/xlink">
    <!-- Generator: Sketch 40.1 (33804) - http://www.bohemiancoding.com/sketch -->
    <title>brightkite</title>
    <desc>Created with Sketch.</desc>
    <defs></defs>
    <g id="Symbols" stroke="none" stroke-width="1" fill="none" fill-rule="evenodd">
        <g id="Header-int" transform="translate(-195.000000, -10.000000)" fill="#FFFFFF">
            <g id="brightkite">
                <path d="M201.325,18.225 C201.708335,17.2083283 201.9,16.1833385 201.9,15.15 C201.9,14.1833285 201.700002,13.4166695 201.3,12.85 C201.2,13.4833365 201.083334,14.0166645 200.95,14.45 C200.349997,16.850012 199.933335,19.016657 199.7,20.95 C200.400004,20.149996 200.941665,19.2416718 201.325,18.225 L201.325,18.225 Z M203.175,37.625 C203.358334,37.3083318 203.499999,37.050001 203.6,36.85 L203.85,35.9 L203.25,36.35 C202.849998,36.5833345 202.566667,36.8499985 202.4,37.15 C202.366666,37.216667 202.35,37.316666 202.35,37.45 C202.35,37.783335 202.466665,37.9999995 202.7,38.1 L202.75,38.1 C202.85,38.1 202.991666,37.9416682 203.175,37.625 L203.175,37.625 Z M212.1,26.55 C212.1,26.349999 212.016667,26.25 211.85,26.25 C211.683332,26.25 211.6,26.349999 211.6,26.55 C211.6,26.7166675 211.683332,26.966665 211.85,27.3 C211.883333,27.233333 211.925,27.1583338 211.975,27.075 C212.025,26.9916662 212.066666,26.883334 212.1,26.75 L212.1,26.55 Z M227.05,22.7 C226.549998,22.7 226.066669,22.5833345 225.6,22.35 C225.133331,22.1166655 224.733335,21.800002 224.4,21.4 C224.133332,20.999998 224,20.6500015 224,20.35 C224,20.016665 224.141665,19.7583342 224.425,19.575 C224.708335,19.3916658 225.033332,19.2833335 225.4,19.25 C226.033337,19.25 226.608331,19.4583313 227.125,19.875 C227.641669,20.2916687 227.983332,20.799997 228.15,21.4 C228.216667,21.733335 228.233334,21.966666 228.2,22.1 C228.133333,22.4000015 227.983335,22.5666665 227.75,22.6 C227.483332,22.666667 227.250001,22.7 227.05,22.7 L227.05,22.7 Z M287.393288,34.6865051 C287.395518,34.6910117 287.397755,34.69551 287.4,34.7 C287.666668,35.1333355 288.008331,35.4916652 288.425,35.775 C288.841669,36.0583348 289.299997,36.233333 289.8,36.3 C290.333336,36.366667 290.891664,36.3083343 291.475,36.125 C292.058336,35.9416657 292.516665,35.6666685 292.85,35.3 C293.050001,35.099999 293.499996,34.5166715 294.2,33.55 C294.408424,33.2582063 294.600556,32.9501254 294.776399,32.6257537 C294.835886,33.1940195 294.91042,33.7020992 295,34.15 C295.133334,34.81667 295.349999,35.449997 295.65,36.05 C295.983335,36.7500035 296.449997,37.333331 297.05,37.8 C297.650003,38.266669 298.299997,38.5 299,38.5 C301.066677,38.5 302.733327,37.4416772 304,35.325 C304.30652,34.8127883 304.588641,34.2913069 304.846361,33.7605546 C304.908421,33.9412008 304.976301,34.1210158 305.05,34.3 C305.416668,35.2666715 305.999996,35.9666645 306.8,36.4 C307.266669,36.6333345 307.83333,36.75 308.5,36.75 C308.933335,36.75 309.316665,36.7000005 309.65,36.6 C310.916673,36.3666655 311.83333,36.0666685 312.4,35.7 C313.700006,34.966663 314.799995,33.9750062 315.7,32.725 C316.600004,31.4749938 317.249998,30.2333395 317.65,29 C317.683333,28.8999995 317.7,28.7666675 317.7,28.6 C317.7,28.399999 317.65,28.233334 317.55,28.1 C317.449999,27.966666 317.333334,27.9 317.2,27.9 C316.933332,27.9 316.75,28.0833315 316.65,28.45 C316.349998,29.4833385 315.733338,30.6583268 314.8,31.975 C313.866662,33.2916733 313.116669,34.083332 312.55,34.35 C312.016664,34.5833345 311.500002,34.7 311,34.7 C310.299996,34.7 309.766668,34.5166685 309.4,34.15 C309.099998,33.8499985 308.875001,33.4916688 308.725,33.075 C308.574999,32.6583313 308.45,32.150003 308.35,31.55 L308.2,30.25 L310.75,27.85 C311.750005,26.916662 312.25,26.083337 312.25,25.35 C312.25,24.7833305 312.025002,24.3166685 311.575,23.95 C311.124998,23.5833315 310.600003,23.4 310,23.4 L309.9,23.4 C309.399997,23.4333335 308.825003,23.5999985 308.175,23.9 C307.524997,24.2000015 307.016668,24.5333315 306.65,24.9 C305.916663,25.6666705 305.350002,26.5666615 304.95,27.6 C304.549998,28.6333385 304.35,29.6999945 304.35,30.8 C304.35,30.8439725 304.350313,30.8879002 304.35094,30.9317831 C304.044912,31.7707737 303.677933,32.5935106 303.25,33.4 C302.383329,35.0333415 301.466672,35.85 300.5,35.85 C300.299999,35.85 300.150001,35.8333335 300.05,35.8 C299.649998,35.6999995 299.358334,35.2750037 299.175,34.525 C298.991666,33.7749963 298.9,33.1166695 298.9,32.55 C298.866667,31.949997 298.85,31.050006 298.85,29.85 C298.85,27.583322 298.966665,25.5000095 299.2,23.6 L299.45,21.65 C299.483334,21.583333 299.5,21.483334 299.5,21.35 L302.75,21.3 C302.983335,21.3 303.15,21.2500005 303.25,21.15 C303.383334,21.016666 303.45,20.850001 303.45,20.65 C303.45,20.5499995 303.433334,20.4833335 303.4,20.45 C303.333333,20.316666 303.183335,20.25 302.95,20.25 C302.316664,20.2166665 301.33334,20.2 300,20.2 L299.7,20.2 C299.766667,19.933332 299.85,19.5916687 299.95,19.175 C300.050001,18.7583312 300.166666,18.2000035 300.3,17.5 C300.433334,17.099998 300.175003,16.6833355 299.525,16.25 C298.874997,15.8166645 298.200003,15.6 297.5,15.6 C296.699996,15.6 296.200001,15.9499965 296,16.65 C295.633331,17.98334 295.366668,19.1999945 295.2,20.3 C294.466663,20.3 293.366674,20.333333 291.9,20.4 C291.766666,20.4 291.633334,20.433333 291.5,20.5 C291.333332,20.6000005 291.25,20.7666655 291.25,21 C291.25,21.1000005 291.283333,21.1916662 291.35,21.275 C291.416667,21.3583337 291.483333,21.4166665 291.55,21.45 L292,21.55 L295.05,21.45 C294.749999,23.6833445 294.6,26.0166545 294.6,28.45 C294.6,28.7879348 294.605948,29.1793977 294.617843,29.6243911 C294.443179,29.9748481 294.253898,30.3667173 294.05,30.8 C293.583331,31.800005 293.133335,32.6499965 292.7,33.35 C292.399998,33.816669 292.166667,34.116666 292,34.25 C291.799999,34.450001 291.533335,34.55 291.2,34.55 C291.066666,34.55 290.966667,34.5333335 290.9,34.5 C290.599998,34.366666 290.383334,34.0833355 290.25,33.65 C290.216666,33.5499995 290.2,33.400001 290.2,33.2 C290.2,32.8999985 290.216666,32.683334 290.25,32.55 L290.65,28.6 C290.683333,28.4333325 290.733333,28.1083358 290.8,27.625 C290.866667,27.1416643 290.9,26.733335 290.9,26.4 C290.9,25.3666615 290.56667,24.616669 289.9,24.15 C289.599998,23.949999 289.275002,23.8250003 288.925,23.775 C288.574998,23.7249998 288.133336,23.7 287.6,23.7 C287.399999,23.7 287.25,23.733333 287.15,23.8 C287.016666,23.9000005 286.95,24.083332 286.95,24.35 C286.849999,25.750007 286.8,27.149993 286.8,28.55 C286.8,29.1707531 286.820069,30.0323282 286.860208,31.1347421 C286.682449,32.2065555 286.495714,33.103303 286.3,33.825 C286.033332,34.8083382 285.666669,35.3 285.2,35.3 C285.033332,35.3 284.9,35.266667 284.8,35.2 C284.433331,34.9666655 284.158334,34.683335 283.975,34.35 C283.791666,34.016665 283.583334,33.550003 283.35,32.95 C283.016665,31.949995 282.583336,31.1333365 282.05,30.5 C281.516664,29.8666635 280.58334,29.4000015 279.25,29.1 C279.25,29.0666665 279.216667,29.05 279.15,29.05 C279.950004,28.6833315 280.649997,28.1750033 281.25,27.525 C281.850003,26.8749968 282.283332,26.150004 282.55,25.35 C282.716667,24.7833305 282.8,24.2833355 282.8,23.85 C282.8,23.4833315 282.75,23.1500015 282.65,22.85 C282.516666,22.4166645 282.300001,22.0416683 282,21.725 C281.699998,21.4083318 281.350002,21.2000005 280.95,21.1 C280.849999,21.0666665 280.666668,21.05 280.4,21.05 C279.966664,21.05 279.550002,21.149999 279.15,21.35 C278.849998,21.483334 278.541668,21.6749988 278.225,21.925 C277.908332,22.1750012 277.7,22.3499995 277.6,22.45 C277.266665,22.783335 277.1,22.95 277.1,22.95 L277.1,17.3 C277.1,15.766659 276.933335,14.6166705 276.6,13.85 C276.299998,13.2166635 276.008335,12.7500015 275.725,12.45 C275.441665,12.1499985 274.96667,11.766669 274.3,11.3 C274.199999,11.233333 274.066667,11.1500005 273.9,11.05 C273.733332,10.9499995 273.583334,10.9 273.45,10.9 C273.349999,10.9 273.266667,10.9166665 273.2,10.95 C272.966665,11.016667 272.8,11.316664 272.7,11.85 C272.599999,12.383336 272.55,12.9333305 272.55,13.5 L273.098751,30.5112964 C272.765443,31.4963134 272.349194,32.4592114 271.85,33.4 C270.983329,35.0333415 270.066671,35.85 269.1,35.85 C268.899999,35.85 268.75,35.8333335 268.65,35.8 C268.249998,35.6999995 267.958334,35.2750037 267.775,34.525 C267.591666,33.7749963 267.5,33.1166695 267.5,32.55 C267.466666,31.949997 267.45,31.050006 267.45,29.85 C267.45,27.583322 267.566665,25.5000095 267.8,23.6 L268.05,21.65 C268.083333,21.583333 268.1,21.483334 268.1,21.35 L271.35,21.3 C271.583334,21.3 271.749999,21.2500005 271.85,21.15 C271.983334,21.016666 272.05,20.850001 272.05,20.65 C272.05,20.5499995 272.033333,20.4833335 272,20.45 C271.933333,20.316666 271.783334,20.25 271.55,20.25 C270.916663,20.2166665 269.93334,20.2 268.6,20.2 L268.3,20.2 C268.366667,19.933332 268.449999,19.5916687 268.55,19.175 C268.65,18.7583312 268.766666,18.2000035 268.9,17.5 C269.033334,17.099998 268.775003,16.6833355 268.125,16.25 C267.474997,15.8166645 266.800003,15.6 266.1,15.6 C265.299996,15.6 264.800001,15.9499965 264.6,16.65 C264.233331,17.98334 263.966667,19.1999945 263.8,20.3 C263.066663,20.3 261.966674,20.333333 260.5,20.4 C260.366666,20.4 260.233334,20.433333 260.1,20.5 C259.933332,20.6000005 259.85,20.7666655 259.85,21 C259.85,21.1000005 259.883333,21.1916662 259.95,21.275 C260.016667,21.3583337 260.083333,21.4166665 260.15,21.45 L260.6,21.55 L263.65,21.45 C263.349998,23.6833445 263.2,26.0166545 263.2,28.45 C263.2,29.250004 263.233333,30.349993 263.3,31.75 C263.305027,31.8203834 263.310244,31.8900084 263.315651,31.9588752 C263.294115,32.0862383 263.272231,32.2166133 263.25,32.35 C262.983332,33.950008 262.733335,35.2083287 262.5,36.125 C262.266665,37.0416712 261.908336,37.8083302 261.425,38.425 C260.941664,39.0416697 260.300004,39.3333335 259.5,39.3 C258.999998,39.3 258.75,37.4500185 258.75,33.75 L258.8,30.35 C258.8,28.216656 258.450003,26.7666705 257.75,26 C257.049997,25.2333295 256.233338,24.85 255.3,24.85 C254.699997,24.85 254.09167,24.9583322 253.475,25.175 C252.85833,25.3916677 252.300003,25.699998 251.8,26.1 C251.733333,21.833312 251.533335,18.1166825 251.2,14.95 C251.066666,13.149991 250.683336,11.9000035 250.05,11.2 C249.516664,10.599997 248.966669,10.3 248.4,10.3 C248.166666,10.3 248,10.3166665 247.9,10.35 C247.033329,10.5166675 246.616667,10.833331 246.65,11.3 L247.299077,28.7033778 L243.2,34.05 L243,31.7 C242.899999,30.766662 242.783334,29.333343 242.65,27.4 C242.549999,26.466662 242.416667,25.7083363 242.25,25.125 C242.083332,24.5416637 241.766669,24.050002 241.3,23.65 C240.866664,23.3499985 240.450002,23.2 240.05,23.2 C239.683331,23.2 239.366668,23.3499985 239.1,23.65 C238.933332,23.8833345 238.85,24.33333 238.85,25 L238.85,30 L238.85,30.5 L238.9,30.7 L238.9,32.65 C238.9,33.2833365 238.916666,33.7499985 238.95,34.05 C238.516664,34.250001 238.050002,34.35 237.55,34.35 C237.316665,34.35 237.133334,34.3333335 237,34.3 C236.43333,34.166666 235.941669,33.8583358 235.525,33.375 C235.108331,32.8916642 234.833334,32.3333365 234.7,31.7 C234.599999,31.299998 234.55,30.8833355 234.55,30.45 C234.55,29.78333 234.666665,28.983338 234.9,28.05 C235.033334,27.4833305 235.166666,27.033335 235.3,26.7 C235.433334,26.366665 235.633332,26.0500015 235.9,25.75 C236.200001,25.4499985 236.583331,25.3 237.05,25.3 C237.483335,25.3 237.849998,25.399999 238.15,25.6 C238.25,25.666667 238.325,25.666667 238.375,25.6 C238.425,25.533333 238.433333,25.4500005 238.4,25.35 C238.033331,24.1166605 237.383338,23.5 236.45,23.5 C236.116665,23.5 235.716669,23.6166655 235.25,23.85 C234.783331,24.0833345 234.366668,24.4166645 234,24.85 C233.066662,25.983339 232.383335,27.21666 231.95,28.55 C231.869719,28.7908443 231.801522,29.0316874 231.74541,29.2725302 C231.523541,29.7063172 231.275072,30.2154727 231,30.8 C230.533331,31.800005 230.083336,32.6499965 229.65,33.35 C229.349998,33.816669 229.116668,34.116666 228.95,34.25 C228.749999,34.450001 228.483335,34.55 228.15,34.55 C228.016666,34.55 227.916667,34.5333335 227.85,34.5 C227.549999,34.366666 227.333334,34.0833355 227.2,33.65 C227.166667,33.5499995 227.15,33.400001 227.15,33.2 C227.15,32.8999985 227.166667,32.683334 227.2,32.55 L227.6,28.6 C227.633333,28.4333325 227.683333,28.1083358 227.75,27.625 C227.816667,27.1416643 227.85,26.733335 227.85,26.4 C227.85,25.3666615 227.51667,24.616669 226.85,24.15 C226.549999,23.949999 226.225002,23.8250003 225.875,23.775 C225.524998,23.7249998 225.083336,23.7 224.55,23.7 C224.349999,23.7 224.2,23.733333 224.1,23.8 C223.966666,23.9000005 223.9,24.083332 223.9,24.35 C223.8,25.750007 223.75,27.149993 223.75,28.55 C223.75,28.9251319 223.757329,29.3882119 223.771988,29.9392437 C223.627537,30.268679 223.461875,30.6472643 223.275,31.075 C222.524996,32.7916752 221.716671,34.183328 220.85,35.25 C220.716666,35.450001 220.458335,35.7333315 220.075,36.1 C219.691665,36.4666685 219.366668,36.6999995 219.1,36.8 L219.1,36.7 C218.833332,36.3333315 218.7,35.283342 218.7,33.55 C218.7,32.7166625 218.716666,32.133335 218.75,31.8 C218.783333,31.3666645 218.916665,30.383341 219.15,28.85 L219.35,27.2 C219.316666,26.6999975 219.058336,26.283335 218.575,25.95 C218.091664,25.616665 217.566669,25.45 217,25.45 L216.9,25.45 C216.499998,25.4833335 216.116668,25.5833325 215.75,25.75 C215.283331,25.9833345 214.71667,26.43333 214.05,27.1 C213.516664,27.633336 213.150001,27.9 212.95,27.9 L212.9,27.9 C213.200001,27.23333 213.35,26.666669 213.35,26.2 C213.35,25.933332 213.258334,25.6916678 213.075,25.475 C212.891666,25.2583323 212.683334,25.1333335 212.45,25.1 L212.3,25.1 C212.033332,25.1 211.766668,25.1499995 211.5,25.25 C211.233332,25.3500005 211.05,25.4833325 210.95,25.65 C210.716665,25.983335 210.6,26.383331 210.6,26.85 C210.6,27.050001 210.633333,27.316665 210.7,27.65 C210.754428,27.8949263 210.875509,28.1148562 211.063243,28.3097907 C210.677785,28.8835429 210.173374,29.4969412 209.55,30.15 C208.849997,30.883337 208.150003,31.5333305 207.45,32.1 C207.483334,31.9333325 207.5,31.683335 207.5,31.35 C207.5,31.016665 207.483334,30.783334 207.45,30.65 C207.316666,29.049992 206.850004,27.950003 206.05,27.35 C205.28333,26.7833305 204.500004,26.5 203.7,26.5 C202.866662,26.5 202.06667,26.7833305 201.3,27.35 C200.53333,27.9166695 199.86667,28.6166625 199.3,29.45 L199.3,27.9 C199.3,26.0666575 199.366666,24.416674 199.5,22.95 C201.233342,21.1166575 202.283332,18.900013 202.65,16.3 C202.716667,15.766664 202.75,15.3833345 202.75,15.15 C202.75,14.3833295 202.616668,13.600004 202.35,12.8 C202.183333,12.2333305 201.900002,11.7250023 201.5,11.275 C201.099998,10.8249977 200.633336,10.4833345 200.1,10.25 L200.05,10.25 C199.916666,10.183333 199.733335,10.15 199.5,10.15 C199.233332,10.15 199.033334,10.1666665 198.9,10.2 C198.366664,10.266667 197.950002,10.499998 197.65,10.9 C197.383332,11.2000015 197.150001,11.7333295 196.95,12.5 C195.649993,17.0000225 195,21.616643 195,26.35 C195,28.483344 195.116666,30.4666575 195.35,32.3 C195.616668,34.2000095 195.999998,35.5999955 196.5,36.5 C196.866669,37.16667 197.216665,37.599999 197.55,37.8 C197.883335,38.000001 198.399996,38.1 199.1,38.1 C199.900004,38.1 200.3,37.533339 200.3,36.4 C200.3,35.666663 200.216667,35.166668 200.05,34.9 C199.849999,34.499998 199.683334,33.833338 199.55,32.9 L199.4,30.85 C199.800002,30.0166625 200.366663,29.2916697 201.1,28.675 C201.833337,28.0583302 202.48333,27.75 203.05,27.75 C203.483336,27.75 203.816665,27.9666645 204.05,28.4 C204.150001,28.6333345 204.233333,29.0999965 204.3,29.8 C204.400001,30.600004 204.45,31.3166635 204.45,31.95 C204.45,32.5833365 204.366668,33.399995 204.2,34.4 C204.2,34.4 203.700005,34.73333 202.7,35.4 C202.599999,35.5000005 202.441668,35.6333325 202.225,35.8 C202.008332,35.9666675 201.816667,36.183332 201.65,36.45 C201.483332,36.716668 201.4,37.1333305 201.4,37.7 C201.4,38.5333375 201.933328,39.0333325 203,39.2 C203.066667,39.2333335 203.183333,39.25 203.35,39.25 C203.816669,39.25 204.299997,39.116668 204.8,38.85 C205.300003,38.583332 205.699998,38.250002 206,37.85 C206.533336,37.116663 206.916665,36.1000065 207.15,34.8 C207.216667,34.4333315 207.283333,34.016669 207.35,33.55 C209.781382,31.6797061 211.338248,30.1300819 212.020636,28.9010875 C212.109394,28.9356947 212.202515,28.9686655 212.3,29 C212.566668,29.066667 212.749999,29.1 212.85,29.1 C213.150001,29.1 213.424999,29.033334 213.675,28.9 C213.925001,28.766666 214.216665,28.5500015 214.55,28.25 C214.883335,27.9499985 215.133332,27.7500005 215.3,27.65 C214.666663,30.250013 214.35,32.4666575 214.35,34.3 C214.35,37.100014 215.099992,38.933329 216.6,39.8 C216.966668,39.9000005 217.283332,39.95 217.55,39.95 C218.116669,39.95 218.68333,39.7666685 219.25,39.4 C220.250005,38.6999965 221.274995,37.4916753 222.325,35.775 C222.928635,34.7881055 223.449641,33.8507932 223.888024,32.9630544 C223.954596,33.6381972 224.108588,34.2171758 224.35,34.7 C224.616668,35.1333355 224.958331,35.4916652 225.375,35.775 C225.791669,36.0583348 226.249998,36.233333 226.75,36.3 C227.283336,36.366667 227.841664,36.3083343 228.425,36.125 C229.008336,35.9416657 229.466665,35.6666685 229.8,35.3 C230.000001,35.099999 230.449996,34.5166715 231.15,33.55 C231.376369,33.2330833 231.58352,32.8969542 231.771456,32.5416078 C232.053345,33.576485 232.579523,34.3792763 233.35,34.95 C234.083337,35.483336 234.966661,35.75 236,35.75 C236.533336,35.75 237.099997,35.6666675 237.7,35.5 C238.066668,35.366666 238.499997,35.1500015 239,34.85 L239.1,36.7 L239.1,39.15 L238.5,40 C238.399999,40.133334 238.191668,40.4249978 237.875,40.875 C237.558332,41.3250022 237.300001,41.749998 237.1,42.15 C236.633331,43.0500045 236.275001,43.999995 236.025,45 C235.774999,46.000005 235.683333,46.966662 235.75,47.9 C235.783333,48.3333355 235.941665,48.9083298 236.225,49.625 C236.508335,50.3416702 236.916664,50.9833305 237.45,51.55 C237.983336,52.1166695 238.633329,52.4 239.4,52.4 C239.766668,52.4 240.099998,52.333334 240.4,52.2 C240.766668,52.066666 241.108332,51.833335 241.425,51.5 C241.741668,51.166665 241.999999,50.8166685 242.2,50.45 C242.500001,49.8833305 242.699999,49.26667 242.8,48.6 C242.9,47.93333 242.966666,47.100005 243,46.1 C243.066667,44.433325 243.108333,42.5750102 243.125,40.525 C243.141667,38.4749897 243.15,37.0000045 243.15,36.1 C244.350006,34.76666 245.716659,33.033344 247.25,30.9 L247.374898,30.7363399 L247.45,32.75 C247.383333,33.283336 247.35,33.683332 247.35,33.95 C247.35,34.5166695 247.433333,34.966665 247.6,35.3 C247.766667,35.6666685 248.033332,35.9749987 248.4,36.225 C248.766669,36.4750013 249.166664,36.633333 249.6,36.7 C250.333337,36.7333335 250.916664,36.3666705 251.35,35.6 C251.650002,35.0999975 251.8,34.450004 251.8,33.65 C251.833334,32.9499965 251.85,31.900007 251.85,30.5 L251.85,27.35 C252.250002,27.216666 252.5,27.15 252.6,27.15 C253.500004,27.15 254.083332,27.8666595 254.35,29.3 C254.616668,30.7333405 254.766666,32.6333215 254.8,35 C254.8,35.866671 254.833333,36.699996 254.9,37.5 C255.100001,39.4666765 255.91666,40.683331 257.35,41.15 C258.050004,41.350001 258.683331,41.45 259.25,41.45 C260.616673,41.45 261.68333,40.916672 262.45,39.85 C263.216671,38.783328 263.749999,37.5666735 264.05,36.2 C264.078222,36.0714309 264.10615,35.9403545 264.133782,35.8067707 C264.171022,35.8884467 264.209762,35.9695231 264.25,36.05 C264.583335,36.7500035 265.049997,37.333331 265.65,37.8 C266.250003,38.266669 266.899996,38.5 267.6,38.5 C269.666677,38.5 271.333327,37.4416772 272.6,35.325 C272.888523,34.842863 273.155427,34.3525128 273.400712,33.8539485 C273.493647,34.224143 273.610076,34.5561595 273.75,34.85 C274.216669,35.7500045 274.799996,36.2 275.5,36.2 L275.55,36.2 C276.116669,36.2 276.583331,35.7166715 276.95,34.75 C277.083334,34.283331 277.15,33.5666715 277.15,32.6 L277.15,30.6 C278.050004,30.9000015 278.849996,31.649994 279.55,32.85 C279.683334,33.050001 279.916665,33.48333 280.25,34.15 C280.283333,34.2500005 280.383332,34.4583317 280.55,34.775 C280.716667,35.0916682 280.899999,35.383332 281.1,35.65 C281.466668,36.1500025 281.899997,36.5499985 282.4,36.85 C282.900002,37.1500015 283.449997,37.3 284.05,37.3 L284.3,37.3 C284.733335,37.3 285.099998,37.2583338 285.4,37.175 C285.700001,37.0916663 285.966665,36.9333345 286.2,36.7 C286.714588,36.2762217 287.112347,35.6050625 287.393288,34.6865051 Z M239.45,48.55 C239.45,47.3166605 239.400001,45.800009 239.3,44 L239.15,41.1 C238.683331,41.7333365 238.325001,42.283331 238.075,42.75 C237.824999,43.216669 237.600001,43.749997 237.4,44.35 C237.099999,45.2500045 236.95,46.133329 236.95,47 C236.95,48.3000065 237.33333,49.483328 238.1,50.55 C238.600003,51.1833365 238.949999,51.366668 239.15,51.1 C239.350001,50.899999 239.45,50.0500075 239.45,48.55 L239.45,48.55 Z M279.2,27.225 C279.800003,26.7416642 280.266665,26.200003 280.6,25.6 C280.966669,24.866663 281.15,24.300002 281.15,23.9 C281.15,23.5999985 281.050001,23.383334 280.85,23.25 C280.616666,23.0833325 280.433334,23 280.3,23 C280.099999,23 279.816668,23.1166655 279.45,23.35 C279.083331,23.550001 278.716668,23.9999965 278.35,24.7 C277.883331,25.4666705 277.516668,26.6999915 277.25,28.4 C277.950003,28.0999985 278.599997,27.7083357 279.2,27.225 L279.2,27.225 Z M290.1,22.7 C289.599997,22.7 289.116669,22.5833345 288.65,22.35 C288.183331,22.1166655 287.783335,21.800002 287.45,21.4 C287.183332,20.999998 287.05,20.6500015 287.05,20.35 C287.05,20.016665 287.191665,19.7583342 287.475,19.575 C287.758335,19.3916658 288.083331,19.2833335 288.45,19.25 C289.083336,19.25 289.658331,19.4583313 290.175,19.875 C290.691669,20.2916687 291.033332,20.799997 291.2,21.4 C291.266667,21.733335 291.283333,21.966666 291.25,22.1 C291.183333,22.4000015 291.033334,22.5666665 290.8,22.6 C290.533332,22.666667 290.300001,22.7 290.1,22.7 L290.1,22.7 Z M308.9,28 C310.066672,26.9666615 310.716666,26.2000025 310.85,25.7 C310.883333,25.5999995 310.9,25.450001 310.9,25.25 C310.9,24.983332 310.816667,24.816667 310.65,24.75 C310.583333,24.683333 310.483334,24.65 310.35,24.65 C309.983331,24.65 309.616668,24.883331 309.25,25.35 C308.58333,26.1166705 308.2,27.0833275 308.1,28.25 L308.1,28.7 L308.9,28 Z"></path>
            </g>
        </g>
    </g>
</svg>